<svg width="313" height="233" viewBox="0 0 313 233" fill="none" xmlns="http://www.w3.org/2000/svg">
<path d="M312.111 204.37H0V204.526H312.111V204.37Z" fill="#EBEBEB"/>
<path d="M280.838 214.414H260.164V214.57H280.838V214.414Z" fill="#EBEBEB"/>
<path d="M206.755 216.112H201.331V216.268H206.755V216.112Z" fill="#EBEBEB"/>
<path d="M259.538 208.621H247.56V208.777H259.538V208.621Z" fill="#EBEBEB"/>
<path d="M59.7072 209.67H32.7471V209.826H59.7072V209.67Z" fill="#EBEBEB"/>
<path d="M69.2198 209.67H65.2684V209.826H69.2198V209.67Z" fill="#EBEBEB"/>
<path d="M140.544 212.304H82.067V212.46H140.544V212.304Z" fill="#EBEBEB"/>
<path d="M147.941 176.53H27.4096C25.4433 176.524 23.8516 174.932 23.8516 172.966V3.53309C23.8703 1.57928 25.4558 0.00624222 27.4096 0H147.941C149.907 0 151.505 1.59801 151.505 3.56431V172.966C151.505 174.932 149.907 176.53 147.941 176.53ZM27.4096 0.124844C25.5307 0.131087 24.0076 1.65419 24.0076 3.53309V172.966C24.0076 174.844 25.5307 176.368 27.4096 176.374H147.941C149.819 176.368 151.343 174.844 151.349 172.966V3.53309C151.343 1.65419 149.819 0.131087 147.941 0.124844H27.4096Z" fill="#EBEBEB"/>
<path d="M282.966 176.53H162.429C160.463 176.524 158.871 174.932 158.865 172.966V3.53309C158.883 1.57928 160.475 0.00624222 162.429 0H282.966C284.92 0.00624222 286.499 1.57928 286.518 3.53309V172.966C286.518 174.932 284.932 176.524 282.966 176.53ZM162.429 0.124844C160.55 0.131087 159.027 1.65419 159.021 3.53309V172.966C159.027 174.844 160.55 176.368 162.429 176.374H282.966C284.845 176.368 286.368 174.844 286.374 172.966V3.53309C286.368 1.65419 284.845 0.131087 282.966 0.124844H162.429Z" fill="#EBEBEB"/>
<path d="M256.448 20.9863H111.822V117.16H256.448V20.9863Z" fill="#E6E6E6"/>
<path d="M254.208 20.9863H109.582V117.16H254.208V20.9863Z" fill="#F5F5F5"/>
<path d="M250.188 25.4929H113.596V112.641H250.188V25.4929Z" fill="white"/>
<path d="M115.294 25.4996H113.602V112.647H115.294V25.4996Z" fill="#E6E6E6"/>
<path d="M252.548 85.5494H111.243V91.6106H252.548V85.5494Z" fill="#F5F5F5"/>
<g opacity="0.4">
<path opacity="0.4" d="M118.746 16.2361H105.094V97.5971H118.746V16.2361Z" fill="#E6E6E6"/>
<path opacity="0.4" d="M125.519 16.2363H118.753V91.0617H125.519V16.2363Z" fill="#F5F5F5"/>
<path opacity="0.4" d="M139.17 16.2363H125.519V97.5973H139.17V16.2363Z" fill="#E6E6E6"/>
<path opacity="0.4" d="M145.943 16.2363H139.177V91.0617H145.943V16.2363Z" fill="#F5F5F5"/>
<path opacity="0.4" d="M159.596 16.2363H145.944V97.5973H159.596V16.2363Z" fill="#E6E6E6"/>
<path opacity="0.4" d="M166.369 16.2363H159.602V91.0617H166.369V16.2363Z" fill="#F5F5F5"/>
<path opacity="0.4" d="M180.02 16.2363H166.368V97.5973H180.02V16.2363Z" fill="#E6E6E6"/>
<path opacity="0.4" d="M186.793 16.2363H180.026V91.0617H186.793V16.2363Z" fill="#F5F5F5"/>
<path opacity="0.4" d="M200.444 16.2363H186.792V97.5973H200.444V16.2363Z" fill="#E6E6E6"/>
<path opacity="0.4" d="M207.211 16.2363H200.444V91.0617H207.211V16.2363Z" fill="#F5F5F5"/>
<path opacity="0.4" d="M220.863 16.2363H207.211V97.5973H220.863V16.2363Z" fill="#E6E6E6"/>
<path opacity="0.4" d="M227.635 16.2363H220.869V91.0617H227.635V16.2363Z" fill="#F5F5F5"/>
<path opacity="0.4" d="M241.287 16.2363H227.635V97.5973H241.287V16.2363Z" fill="#E6E6E6"/>
<path opacity="0.4" d="M248.06 16.2363H241.294V91.0617H248.06V16.2363Z" fill="#F5F5F5"/>
<path opacity="0.4" d="M261.711 16.2363H248.06V97.5973H261.711V16.2363Z" fill="#E6E6E6"/>
</g>
<path d="M83.6955 138.577H51.6791V204.37H83.6955V138.577Z" fill="#EBEBEB"/>
<path d="M57.7591 204.37H51.6791V190.968H64.1386L57.7591 204.37Z" fill="#F5F5F5"/>
<path d="M266.367 138.577H234.351V204.37H266.367V138.577Z" fill="#EBEBEB"/>
<path d="M239.657 138.577H51.6791V196.149H239.657V138.577Z" fill="#F5F5F5"/>
<path d="M233.409 179.907H177.685C177.404 179.907 177.173 179.676 177.173 179.395V142.947C177.173 142.666 177.404 142.435 177.685 142.435H187.972C188.085 142.435 188.191 142.466 188.278 142.535C189.807 143.652 191.505 144.52 193.303 145.113C195.475 145.831 197.748 146.193 200.032 146.187H211.056C215.276 146.262 219.402 144.988 222.848 142.554C222.935 142.485 223.041 142.454 223.147 142.454H233.441C233.721 142.454 233.952 142.685 233.952 142.966V179.395C233.952 179.676 233.721 179.907 233.441 179.907C233.428 179.907 233.422 179.907 233.409 179.907ZM178.197 178.883H232.897V143.478H223.284C219.701 145.974 215.426 147.285 211.056 147.223H200.032C197.635 147.229 195.251 146.848 192.979 146.093C191.131 145.488 189.389 144.601 187.81 143.471H178.197V178.883Z" fill="#E6E6E6"/>
<path d="M173.534 179.907H117.803C117.522 179.907 117.292 179.676 117.292 179.395V142.947C117.292 142.666 117.522 142.435 117.803 142.435H127.535C127.647 142.435 127.753 142.466 127.841 142.535C129.358 143.652 131.043 144.52 132.835 145.113C135.007 145.831 137.279 146.193 139.564 146.186H150.587C154.789 146.249 158.902 144.969 162.329 142.535C162.416 142.472 162.523 142.435 162.635 142.435H173.534C173.815 142.429 174.039 142.653 174.046 142.934C174.046 142.94 174.046 142.94 174.046 142.947V179.376C174.058 179.657 173.833 179.894 173.553 179.907C173.546 179.907 173.54 179.907 173.534 179.907ZM118.321 178.883H173.022V143.477H162.835C159.258 145.974 154.982 147.285 150.619 147.223H139.595C137.198 147.229 134.813 146.848 132.541 146.093C130.694 145.493 128.946 144.607 127.366 143.471H118.315L118.321 178.883Z" fill="#E6E6E6"/>
<path d="M113.652 179.907H57.9279C57.647 179.907 57.4161 179.676 57.4161 179.395V142.947C57.4098 142.666 57.6346 142.441 57.9155 142.435C57.9217 142.435 57.9217 142.435 57.9279 142.435H67.6596C67.7657 142.435 67.8718 142.466 67.9592 142.535C69.476 143.652 71.1614 144.52 72.953 145.113C75.1252 145.831 77.3974 146.193 79.6883 146.187H90.7121C94.9193 146.249 99.0329 144.969 102.466 142.535C102.554 142.466 102.66 142.435 102.772 142.435H113.621C113.902 142.435 114.133 142.666 114.133 142.947V179.377C114.145 179.657 113.933 179.888 113.652 179.907ZM58.4398 178.883H113.14V143.478H102.997C99.4137 145.974 95.1378 147.285 90.7745 147.223H79.7195C77.3225 147.229 74.938 146.848 72.6658 146.093C70.8181 145.494 69.0703 144.607 67.491 143.471H58.4398V178.883Z" fill="#E6E6E6"/>
<path d="M233.578 204.37H239.658V190.968H227.204L233.578 204.37Z" fill="#F5F5F5"/>
<path d="M89.8509 127.553H84.8009C84.8384 124.058 84.8009 115.181 84.4451 94.8503C83.8209 58.0213 82.6536 55.7491 82.6536 55.7491L88.6399 73.9389C90.0631 78.2148 90.8871 82.6718 91.0993 87.1724C91.761 101.355 89.2641 112.678 89.8509 127.553Z" fill="#E6E6E6"/>
<path d="M93.6895 68.4522C100.425 58.2587 113.871 52.9403 127.616 47.934C133.009 45.9678 117.866 70.3561 106.854 81.4173C98.3025 90.0066 90.0004 89.8131 87.5472 98.2713C87.0728 88.446 87.8842 77.235 93.6895 68.4522Z" fill="#E6E6E6"/>
<path d="M85.9744 61.9102C80.6935 49.9876 67.3539 34.5256 52.3601 23.6329C46.4737 19.357 60.9993 56.0924 71.2428 71.1112C79.2203 82.8216 86.6611 89.9502 87.8221 98.3023C92.8533 87.8528 91.2491 73.8266 85.9744 61.9102Z" fill="#E6E6E6"/>
<path d="M86.4738 138.577C92.3976 138.577 97.2978 133.952 97.6349 128.034L98.6274 117.928H74.3202L75.3065 128.034C75.6498 133.952 80.5437 138.577 86.4738 138.577Z" fill="#F0F0F0"/>
<path d="M72.7466 117.984H100.2L100.986 114.395H71.9601L72.7466 117.984Z" fill="#F0F0F0"/>
<path d="M74.1012 124.139H98.8453L99.557 120.55H73.3896L74.1012 124.139Z" fill="#F0F0F0"/>
<path d="M156.055 232.56C222.898 232.56 277.085 229.396 277.085 225.494C277.085 221.591 222.898 218.428 156.055 218.428C89.2119 218.428 35.0248 221.591 35.0248 225.494C35.0248 229.396 89.2119 232.56 156.055 232.56Z" fill="#F5F5F5"/>
<path d="M252.985 164.376H59.1208V186.324H252.985V164.376Z" fill="#407BFF"/>
<path opacity="0.3" d="M252.991 164.376H211.406V186.324H252.991V164.376Z" fill="black"/>
<path d="M80.5253 186.324H59.1208V225.494H80.5253V186.324Z" fill="#407BFF"/>
<path opacity="0.3" d="M59.1271 186.324V188.515L74.2832 193.091V225.494H80.5254V186.324H59.1271Z" fill="black"/>
<path d="M252.992 186.324H231.587V225.494H252.992V186.324Z" fill="#407BFF"/>
<path opacity="0.2" d="M252.992 186.324H231.587V225.494H252.992V186.324Z" fill="black"/>
<path opacity="0.3" d="M231.587 186.324V188.515L246.75 193.091V225.494H252.992V186.324H231.587Z" fill="black"/>
<path d="M211.406 186.324H190.002V225.494H211.406V186.324Z" fill="#407BFF"/>
<path opacity="0.3" d="M190.002 186.324V188.515L205.164 193.091V225.494H211.406V186.324H190.002Z" fill="black"/>
<path d="M122.111 186.324H100.706V225.494H122.111V186.324Z" fill="#407BFF"/>
<path opacity="0.2" d="M122.111 186.324H100.706V225.494H122.111V186.324Z" fill="black"/>
<path opacity="0.3" d="M100.706 186.324V188.515L115.869 193.091V225.494H122.111V186.324H100.706Z" fill="black"/>
<path d="M226.268 160.063H107.74C106.267 160.075 105.062 158.889 105.05 157.41C105.05 157.335 105.05 157.266 105.056 157.191L109.938 79.7315C110.069 78.1335 111.386 76.8913 112.99 76.8601H231.511C232.984 76.8476 234.189 78.0336 234.201 79.513C234.201 79.5879 234.201 79.6566 234.195 79.7315L229.314 157.191C229.189 158.789 227.872 160.031 226.268 160.063Z" fill="#263238"/>
<path opacity="0.6" d="M226.268 160.063H107.74C106.267 160.075 105.062 158.889 105.05 157.41C105.05 157.335 105.05 157.266 105.056 157.191L109.938 79.7315C110.069 78.1335 111.386 76.8913 112.99 76.8601H231.511C232.984 76.8476 234.189 78.0336 234.201 79.513C234.201 79.5879 234.201 79.6566 234.195 79.7315L229.314 157.191C229.189 158.789 227.872 160.031 226.268 160.063Z" fill="black"/>
<path d="M225.382 160.063H106.861C105.388 160.075 104.177 158.895 104.164 157.416C104.164 157.341 104.164 157.266 104.17 157.191L109.052 79.7315C109.183 78.1335 110.5 76.8913 112.104 76.8601H230.625C232.098 76.8476 233.303 78.0273 233.316 79.5005C233.316 79.5754 233.316 79.6566 233.309 79.7315L228.428 157.191C228.303 158.789 226.986 160.031 225.382 160.063Z" fill="#263238"/>
<path d="M225.232 161.049H84.2013C82.878 161.036 81.6607 161.785 81.0802 162.978C80.843 163.471 81.0552 164.058 81.5484 164.295C81.6857 164.357 81.8355 164.395 81.9853 164.389H227.417C227.96 164.395 228.409 163.964 228.415 163.415C228.415 163.265 228.384 163.115 228.322 162.978C227.747 161.798 226.549 161.049 225.232 161.049Z" fill="#263238"/>
<path opacity="0.6" d="M225.231 161.049H205.175C203.858 161.043 202.659 161.792 202.085 162.978C201.848 163.471 202.06 164.058 202.553 164.295C202.691 164.357 202.834 164.395 202.984 164.388H227.416C227.959 164.395 228.409 163.964 228.415 163.415C228.415 163.265 228.384 163.115 228.321 162.978C227.747 161.798 226.548 161.049 225.231 161.049Z" fill="black"/>
<path d="M212.797 163.483H207.616C207.367 163.477 207.167 163.277 207.167 163.028C207.167 162.778 207.367 162.578 207.616 162.572H212.797C213.047 162.572 213.253 162.778 213.253 163.028C213.253 163.277 213.047 163.483 212.797 163.483Z" fill="#407BFF"/>
<path opacity="0.7" d="M146.175 163.483H141C140.75 163.483 140.544 163.277 140.544 163.028C140.544 162.778 140.75 162.572 141 162.572H146.175C146.424 162.572 146.63 162.778 146.63 163.028C146.63 163.277 146.424 163.483 146.175 163.483Z" fill="white"/>
<path d="M214.769 162.572H218.159C218.365 162.572 218.534 162.74 218.534 162.946V163.109C218.534 163.315 218.365 163.483 218.159 163.483H214.769C214.564 163.483 214.395 163.315 214.395 163.109V162.946C214.395 162.74 214.564 162.572 214.769 162.572Z" fill="#407BFF"/>
<path d="M106.842 154.395L111.374 82.5279C111.424 81.9037 111.936 81.423 112.56 81.4168H229.595C230.163 81.4105 230.632 81.86 230.638 82.428C230.638 82.4592 230.638 82.4905 230.638 82.5279L226.112 154.395C226.062 155.019 225.544 155.499 224.92 155.506H107.891C107.317 155.512 106.842 155.05 106.842 154.469C106.842 154.444 106.842 154.419 106.842 154.395Z" fill="white"/>
<path opacity="0.1" d="M173.421 79.2008L134.438 153.296H105.68C105.106 153.302 104.638 152.846 104.632 152.278C104.632 152.247 104.632 152.216 104.632 152.179L109.164 80.3182C109.214 79.6939 109.725 79.2133 110.35 79.2008H173.421Z" fill="#407BFF"/>
<path opacity="0.1" d="M207.56 79.2008L168.577 153.296H159.489L198.471 79.2008H207.56Z" fill="#407BFF"/>
<path opacity="0.1" d="M228.428 80.3184L223.896 152.179C223.852 152.803 223.334 153.29 222.71 153.296H178.39L217.373 79.2011H227.36C227.935 79.1886 228.415 79.638 228.428 80.2185C228.434 80.2498 228.428 80.2872 228.428 80.3184Z" fill="#407BFF"/>
<path opacity="0.4" d="M172.055 79.276C172.017 79.7441 171.63 80.1124 171.162 80.1187C170.732 80.1249 170.376 79.7754 170.376 79.3446C170.376 79.3197 170.376 79.2947 170.376 79.276C170.407 78.8078 170.794 78.4395 171.268 78.4333C171.699 78.427 172.055 78.7766 172.055 79.2073C172.055 79.226 172.055 79.251 172.055 79.276Z" fill="white"/>
<path d="M152.716 62.0413C149.301 65.9489 147.329 77.9277 149.857 83.8204C152.385 89.7131 123.053 95.6119 147.254 105.188C171.455 114.763 190.812 103.658 183.808 93.7393C176.804 83.8204 184.563 67.3035 176.455 63.1524C169.126 59.3696 159.557 54.2073 152.716 62.0413Z" fill="#263238"/>
<path d="M145.481 110.275C144.202 114.644 142.841 119.014 141.43 123.383C140.019 127.753 138.553 132.072 136.998 136.411L136.405 138.046L136.106 138.864L136.012 139.107L135.862 139.476C135.768 139.713 135.625 139.969 135.5 140.212C134.888 141.33 133.977 142.247 132.872 142.871C131.867 143.414 130.743 143.714 129.601 143.733C127.997 143.739 126.405 143.427 124.926 142.815C123.715 142.322 122.535 141.742 121.411 141.074C117.316 138.558 113.565 135.524 110.25 132.047L112.941 128.876C113.846 129.457 114.813 130.075 115.75 130.655C116.686 131.236 117.666 131.798 118.615 132.353C120.475 133.439 122.391 134.426 124.364 135.293C125.263 135.687 126.187 136.017 127.135 136.273C127.791 136.492 128.484 136.573 129.17 136.511C129.345 136.511 129.314 136.411 129.17 136.467C129.027 136.523 128.871 136.685 128.865 136.667C128.858 136.648 128.865 136.667 128.865 136.629C128.865 136.617 128.865 136.604 128.865 136.592L128.915 136.436L129.152 135.63L129.632 134.007L133.446 120.899C134.745 116.529 136.081 112.16 137.454 107.79L145.481 110.275Z" fill="#B65B52"/>
<path d="M112.747 128.777L105.493 126.092L108.371 133.758C108.371 133.758 113.49 134.495 115.475 131.804L113.858 129.638C113.577 129.251 113.19 128.951 112.747 128.777Z" fill="#B55B52"/>
<path d="M99.0955 128.321L101.855 134.607L108.403 133.745L105.519 126.08L99.0955 128.321Z" fill="#B55B52"/>
<path d="M140.188 98.9702C136.867 99.8129 134.57 113.465 134.57 113.465L143.715 119.707C143.715 119.707 152.454 105.936 149.926 102.291C147.242 98.4645 145.026 97.7404 140.188 98.9702Z" fill="#407BFF"/>
<path opacity="0.5" d="M140.188 98.9702C136.867 99.8129 134.57 113.465 134.57 113.465L143.715 119.707C143.715 119.707 152.454 105.936 149.926 102.291C147.242 98.4645 145.026 97.7404 140.188 98.9702Z" fill="white"/>
<path opacity="0.2" d="M139.888 103.933L146.985 105.575L147.666 112.522C146.461 114.975 145.138 117.366 143.689 119.682L138.14 115.937C138.384 112.722 138.983 106.118 139.888 103.933Z" fill="black"/>
<path d="M140.188 98.97C140.188 98.97 136.349 100.318 144.033 147.547H176.718C176.168 134.245 176.156 126.036 182.51 98.739C177.935 97.7902 173.297 97.1847 168.634 96.9101C163.135 96.6417 158.646 96.4669 153.79 96.9101C147.417 97.4906 140.188 98.97 140.188 98.97Z" fill="#407BFF"/>
<path opacity="0.5" d="M140.188 98.97C140.188 98.97 136.349 100.318 144.033 147.547H176.718C176.168 134.245 176.156 126.036 182.51 98.739C177.935 97.7902 173.297 97.1847 168.634 96.9101C163.135 96.6417 158.646 96.4669 153.79 96.9101C147.417 97.4906 140.188 98.97 140.188 98.97Z" fill="#C0D0ED"/>
<path opacity="0.2" d="M174.819 111.411L179.039 115.006C178.14 119.782 177.535 123.746 177.166 127.297C176.361 123.752 174.351 114.126 174.819 111.411Z" fill="black"/>
<path d="M167.161 80.1932C166.224 84.9685 165.288 93.7201 168.634 96.9099C168.634 96.9099 165.513 104.063 157.242 104.063C148.971 104.063 153.79 96.9099 153.79 96.9099C159.114 95.6614 158.977 91.6852 158.053 87.9773L167.161 80.1932Z" fill="#B55B52"/>
<path d="M167.573 95.1249C166.786 96.7166 164.252 100.356 157.173 101.654C156.973 101.692 156.774 101.648 156.605 101.542C155.282 100.618 154.458 98.6642 155.038 96.3983C155.151 95.9863 154.913 95.5618 154.501 95.4432C154.339 95.3995 154.164 95.4058 154.002 95.4744C153.459 95.6991 152.935 95.98 152.441 96.2984C152.335 96.3733 152.242 96.4669 152.186 96.5855C151.667 97.5593 149.57 102.328 155.9 105.268C156 105.312 156.106 105.337 156.218 105.343C159.963 105.418 166.511 104.682 170.65 97.2285C170.8 96.9538 170.775 96.6168 170.581 96.3671C170.026 95.7553 169.377 95.2372 168.665 94.8252C168.309 94.6005 167.841 94.7004 167.61 95.0562C167.598 95.0749 167.585 95.0999 167.573 95.1249Z" fill="#FAFAFA"/>
<path d="M169.307 114.775L160.88 114.532C160.537 114.532 160.256 114.257 160.25 113.914C160.25 113.889 160.25 113.864 160.256 113.839L160.337 112.797C160.387 112.435 160.699 112.166 161.068 112.172L169.495 112.416C169.838 112.416 170.119 112.69 170.125 113.034C170.125 113.059 170.125 113.09 170.119 113.115L170.038 114.151C169.988 114.513 169.676 114.782 169.307 114.775Z" fill="#FAFAFA"/>
<path opacity="0.2" d="M163.446 83.3707L158.053 87.9712C158.284 88.8326 158.44 89.7128 158.515 90.6054C160.544 90.312 163.34 88.0773 163.559 85.9487C163.677 85.0873 163.64 84.2134 163.446 83.3707Z" fill="black"/>
<path d="M173.452 71.1611C171.948 79.0075 171.48 82.3596 166.96 85.8989C160.163 91.2298 150.856 87.6593 149.994 79.5256C149.214 72.2035 151.804 60.6055 159.982 58.4582C165.793 56.9101 171.761 60.3745 173.309 66.186C173.739 67.8152 173.789 69.5131 173.452 71.1611Z" fill="#B55B52"/>
<path d="M168.989 65.3558C168.016 70.2684 167.785 76.779 172.285 76.779C176.786 76.779 180.313 69.1198 176.43 63.121C172.548 57.1223 169.558 62.4594 168.989 65.3558Z" fill="#263238"/>
<path d="M176.767 65.9612C176.767 71.3045 170.038 68.6641 167.06 66.3607C164.083 64.0573 163.939 64.307 158.421 64.3008C152.903 64.2945 151.798 63.9138 150.169 61.2795C148.54 58.6453 148.689 56.91 152.36 57.4655C156.03 58.0211 152.947 54.2758 155.681 52.1971C158.415 50.1185 161.655 50.6428 165.394 55.3869C169.133 60.131 176.767 56.704 176.767 65.9612Z" fill="#263238"/>
<path d="M174.783 78.1381C175.491 75.7232 174.796 73.3936 173.232 72.9349C171.667 72.4762 169.824 74.062 169.116 76.477C168.409 78.892 169.103 81.2216 170.668 81.6803C172.233 82.139 174.075 80.5531 174.783 78.1381Z" fill="white"/>
<path d="M162.297 84.1824C160.849 84.1824 159.414 83.889 158.084 83.3147C157.965 83.2647 157.909 83.1337 157.959 83.0151V83.0088C158.015 82.8902 158.153 82.834 158.271 82.884C160.806 83.9701 163.671 83.9888 166.218 82.9277C168.696 81.9164 170.656 79.9439 171.661 77.4657C173.533 72.1037 175.444 65.412 173.234 61.236C172.335 59.588 170.762 58.4207 168.927 58.0337C168.802 58.0025 168.727 57.8714 168.758 57.7466C168.789 57.6217 168.92 57.5468 169.045 57.578C171.005 58.0025 172.685 59.2509 173.646 61.0112C175.943 65.3246 174.027 72.1474 172.098 77.6093C171.043 80.2123 168.977 82.2785 166.374 83.3396C165.082 83.8827 163.696 84.1699 162.297 84.1824Z" fill="white"/>
<path opacity="0.6" d="M174.564 78.1649C174.008 80.0375 172.735 81.3546 171.717 81.0612C170.7 80.7679 170.325 78.9826 170.881 77.085C171.437 75.1873 172.71 73.8889 173.727 74.1886C174.745 74.4882 175.119 76.2672 174.564 78.1649Z" fill="#407BFF"/>
<path d="M156.287 81.81L158.733 82.2844C159.164 82.3656 159.445 82.7838 159.364 83.2145L159.339 83.3581C159.258 83.7888 158.84 84.0697 158.409 83.9885L155.962 83.5141C155.531 83.433 155.25 83.0148 155.331 82.584L155.356 82.4405C155.444 82.0098 155.856 81.7289 156.287 81.81Z" fill="white"/>
<path d="M155.538 71.8163C155.538 71.8163 154.09 74.4443 152.716 75.6241C153.459 76.5292 154.957 76.3544 154.957 76.3544L155.538 71.8163Z" fill="#A02724"/>
<path d="M156.917 79.7127H156.973C158.39 79.825 159.795 79.3943 160.906 78.5142C160.956 78.4642 160.956 78.3893 160.906 78.3394C160.862 78.2957 160.787 78.2894 160.737 78.3394C159.676 79.1758 158.34 79.5816 156.992 79.4817C156.929 79.4692 156.867 79.5129 156.855 79.5816V79.5878C156.848 79.6378 156.873 79.6877 156.917 79.7127Z" fill="#263238"/>
<path d="M164.058 68.7263C164.127 68.7638 164.22 68.7638 164.289 68.7263C164.401 68.6514 164.432 68.5016 164.364 68.3892C163.758 67.378 162.703 66.7163 161.524 66.6165C161.386 66.6165 161.28 66.7226 161.274 66.8599C161.274 66.991 161.38 67.0971 161.511 67.1033C162.522 67.197 163.434 67.7775 163.952 68.6514C163.977 68.6826 164.014 68.7138 164.058 68.7263Z" fill="#263238"/>
<path d="M160.481 71.9226C160.375 72.5468 159.944 73.0275 159.52 72.9588C159.095 72.8901 158.852 72.3346 158.958 71.6604C159.064 70.9863 159.501 70.5555 159.919 70.6242C160.338 70.6929 160.594 71.2796 160.481 71.9226Z" fill="#263238"/>
<path d="M153.203 70.6868C153.097 71.311 152.666 71.7917 152.242 71.723C151.817 71.6544 151.574 71.0676 151.68 70.4246C151.786 69.7817 152.223 69.3135 152.641 69.3884C153.059 69.4633 153.315 70.0376 153.203 70.6868Z" fill="#263238"/>
<path d="M152.822 69.4567L151.349 68.7451C151.349 68.7451 151.935 70.0871 152.822 69.4567Z" fill="#263238"/>
<path d="M160.1 70.6927L158.627 69.9874C158.627 69.9874 159.214 71.3294 160.1 70.6927Z" fill="#263238"/>
<path d="M150.731 66.3359C150.806 66.3796 150.906 66.3796 150.981 66.3359C151.761 65.6804 152.816 65.4432 153.802 65.7116C153.927 65.7553 154.071 65.6867 154.115 65.5618C154.158 65.437 154.09 65.2934 153.965 65.2497C152.829 64.9251 151.605 65.1748 150.688 65.9239C150.581 65.9988 150.557 66.1424 150.631 66.2485C150.638 66.2547 150.638 66.261 150.644 66.261C150.663 66.2922 150.694 66.3234 150.731 66.3359Z" fill="#263238"/>
<path d="M142.791 155.506C142.791 155.506 142.703 151.037 144.039 147.547H176.717C176.717 147.547 179.657 152.291 180.419 155.506H142.791Z" fill="#407BFF"/>
<path d="M177.21 145.631L177.466 148.552C177.585 148.783 177.316 149.014 176.935 149.014H143.852C143.558 149.014 143.315 148.87 143.296 148.683L142.996 145.756C142.996 145.556 143.234 145.381 143.558 145.381H176.642C176.86 145.356 177.079 145.45 177.21 145.631Z" fill="#407BFF"/>
<path opacity="0.3" d="M177.21 145.631L177.466 148.552C177.585 148.783 177.316 149.014 176.935 149.014H143.852C143.558 149.014 143.315 148.87 143.296 148.683L142.996 145.756C142.996 145.556 143.234 145.381 143.558 145.381H176.642C176.86 145.356 177.079 145.45 177.21 145.631Z" fill="#FAFAFA"/>
<path d="M172.759 149.326H173.646C173.827 149.326 173.958 149.238 173.945 149.126L173.533 145.325C173.533 145.212 173.365 145.125 173.19 145.125H172.285C172.104 145.125 171.973 145.212 171.985 145.325L172.397 149.126C172.428 149.238 172.584 149.326 172.759 149.326Z" fill="#407BFF"/>
<path d="M146.362 149.326H147.248C147.423 149.326 147.56 149.238 147.548 149.126L147.129 145.325C147.129 145.212 146.967 145.125 146.786 145.125H145.9C145.725 145.125 145.588 145.212 145.6 145.325L146.018 149.126C146.031 149.238 146.187 149.326 146.362 149.326Z" fill="#407BFF"/>
<path d="M159.564 149.326H160.425C160.6 149.326 160.737 149.238 160.725 149.126L160.307 145.325C160.307 145.212 160.138 145.125 159.963 145.125H159.077C158.902 145.125 158.765 145.212 158.777 145.325L159.196 149.126C159.233 149.238 159.383 149.326 159.564 149.326Z" fill="#407BFF"/>
<path d="M185.306 107.99C186.742 112.653 188.121 117.335 189.445 122.048L191.436 129.076L192.428 132.572L192.678 133.434L192.803 133.864L192.834 133.964L192.734 133.808C192.578 133.583 192.385 133.384 192.16 133.221C191.673 132.866 191.093 132.66 190.487 132.628C190.031 132.61 189.576 132.697 189.164 132.89C188.714 133.134 188.758 133.19 188.795 133.146C188.902 133.053 188.995 132.953 189.083 132.841C189.376 132.472 189.651 132.085 189.894 131.686C190.443 130.787 190.986 129.776 191.498 128.739C192.56 126.667 193.515 124.47 194.482 122.26C195.45 120.05 196.355 117.816 197.291 115.562C198.227 113.309 199.12 111.043 200.044 108.808L204.033 109.994C202.996 114.863 201.786 119.645 200.287 124.407C199.551 126.798 198.733 129.164 197.79 131.561C197.304 132.759 196.786 133.958 196.143 135.2C195.799 135.874 195.418 136.523 194.994 137.148C194.732 137.541 194.438 137.909 194.12 138.259C193.614 138.833 192.996 139.301 192.31 139.638C191.623 139.975 190.862 140.131 190.1 140.1C189.195 140.05 188.327 139.732 187.603 139.183C187.141 138.833 186.742 138.415 186.423 137.934C186.224 137.628 186.043 137.304 185.893 136.967C185.837 136.829 185.774 136.686 185.731 136.561L185.612 136.255L185.45 135.812L185.125 134.932C184.701 133.764 184.27 132.597 183.877 131.43C183.078 129.095 182.279 126.767 181.53 124.426C180 119.751 178.571 115.05 177.247 110.325L185.306 107.99Z" fill="#B65B52"/>
<path d="M182.51 98.7393C185.787 99.7318 190.8 112.585 190.8 112.585L178.097 121.667C178.097 121.667 172.385 110.681 173.759 106.448C175.194 102.041 178.777 97.6032 182.51 98.7393Z" fill="#407BFF"/>
<path opacity="0.5" d="M182.51 98.7393C185.787 99.7318 190.8 112.585 190.8 112.585L178.097 121.667C178.097 121.667 172.385 110.681 173.759 106.448C175.194 102.041 178.777 97.6032 182.51 98.7393Z" fill="white"/>
<path d="M200.188 110.518L198.446 102.84L205.687 106.66C205.687 106.66 205.775 111.829 202.853 113.458L200.188 110.518Z" fill="#B55B52"/>
<path d="M201.48 96.7477L206.099 100.025L205.687 106.66L198.446 102.84L201.48 96.7477Z" fill="#B55B52"/>
<path d="M71.7853 58.1088H122.347C126.199 58.0713 129.357 61.1675 129.395 65.0189C129.395 65.2124 129.388 65.4059 129.376 65.5994L127.965 88.4834C127.647 92.6594 124.201 95.9054 120.013 95.9741H114.157L116.548 103.833L105.113 95.9741H69.4695C65.618 96.0115 62.4595 92.9154 62.422 89.0639C62.422 88.8704 62.4282 88.6769 62.4407 88.4834L63.839 65.5994C64.1573 61.4296 67.603 58.1837 71.7853 58.1088Z" fill="#2960CD"/>
<path d="M117.716 70.0936H74.9567C74.2326 70.0873 73.6521 69.5006 73.6521 68.7765C73.6521 68.739 73.6521 68.7016 73.6583 68.6641C73.7145 67.8776 74.3637 67.2658 75.1502 67.2534H117.916C118.646 67.2534 119.233 67.8464 119.233 68.5705C119.233 68.6017 119.233 68.6329 119.227 68.6641C119.183 69.4631 118.521 70.0936 117.716 70.0936Z" fill="white"/>
<path d="M92.3844 78.4518H74.4443C73.7139 78.458 73.1209 77.8712 73.1147 77.1472C73.1147 77.1097 73.1147 77.0785 73.1209 77.041C73.1771 76.2545 73.8325 75.6428 74.6191 75.6303H92.5779C93.3083 75.6241 93.9013 76.2046 93.9137 76.9287C93.9137 76.9661 93.9138 77.0036 93.9075 77.041C93.8451 77.8338 93.1834 78.4518 92.3844 78.4518Z" fill="white"/>
<path d="M107.759 86.8103H73.9328C73.2025 86.8165 72.6095 86.2298 72.6032 85.5057C72.6032 85.4682 72.6032 85.437 72.6095 85.3996C72.6656 84.613 73.3148 83.9951 74.1076 83.9888H107.934C108.658 83.9826 109.251 84.5569 109.264 85.281C109.264 85.3184 109.264 85.3559 109.257 85.3996C109.201 86.1861 108.546 86.7978 107.759 86.8103Z" fill="white"/>
<path d="M105.562 78.4518H98.4898C97.7594 78.458 97.1664 77.8713 97.1602 77.1472C97.1602 77.1097 97.1602 77.0785 97.1664 77.041C97.2288 76.2545 97.878 75.6428 98.6645 75.6303H105.731C106.455 75.6241 107.048 76.1983 107.06 76.9224C107.06 76.9599 107.06 76.9973 107.054 77.041C106.998 77.8276 106.349 78.4393 105.562 78.4518Z" fill="white"/>
<path d="M142.191 16.9724H114.626C111.367 17.0223 108.683 19.5442 108.44 22.7964L107.366 40.6117C107.154 43.6079 109.407 46.211 112.403 46.4232C112.547 46.4357 112.697 46.4357 112.84 46.4357H117.354L114.744 52.553L124.395 46.4357H140.387C143.646 46.3857 146.33 43.8639 146.573 40.6117L147.666 22.7964C147.878 19.8001 145.625 17.1971 142.628 16.9849C142.485 16.9787 142.335 16.9724 142.191 16.9724Z" fill="#407BFF"/>
<g opacity="0.5">
<path opacity="0.5" d="M142.191 16.9724H114.626C111.367 17.0223 108.683 19.5442 108.44 22.7964L107.366 40.6117C107.154 43.6079 109.407 46.211 112.403 46.4232C112.547 46.4357 112.697 46.4357 112.84 46.4357H117.354L114.744 52.553L124.395 46.4357H140.387C143.646 46.3857 146.33 43.8639 146.573 40.6117L147.666 22.7964C147.878 19.8001 145.625 17.1971 142.628 16.9849C142.485 16.9787 142.335 16.9724 142.191 16.9724Z" fill="#C0D0ED"/>
</g>
<path d="M128.902 34.6191C128.708 35.4243 127.984 35.9986 127.154 35.9986H125.525C125.525 35.5367 125.562 35.2558 125.568 35.1559C125.593 34.257 125.824 33.3769 126.242 32.5779C126.829 31.6915 127.585 30.9174 128.452 30.3057C129.145 29.8001 129.801 29.2445 130.412 28.6453C130.737 28.2645 130.93 27.7838 130.962 27.2845C131.012 26.6103 130.743 25.9549 130.244 25.5054C129.638 24.9873 128.858 24.7251 128.059 24.7688C127.223 24.7439 126.405 25.0185 125.749 25.5429C125.362 25.8612 125.044 26.2607 124.813 26.7102C124.47 27.3781 123.752 27.7776 123.003 27.7214C122.135 27.6153 121.517 26.8225 121.623 25.9549C121.654 25.7239 121.729 25.5054 121.854 25.3057C122.229 24.6752 122.716 24.1134 123.284 23.6452C124.638 22.5591 126.336 21.9973 128.071 22.066C130.113 22.066 131.698 22.5965 132.841 23.664C133.927 24.5941 134.507 25.9798 134.42 27.4093C134.364 28.2083 134.089 28.9761 133.621 29.6315C132.747 30.7114 131.729 31.6727 130.606 32.4905C130.025 32.8962 129.52 33.4081 129.12 33.9948C129.02 34.1946 128.945 34.4006 128.902 34.6191ZM125.337 39.101V38.9012C125.406 37.9649 126.18 37.2408 127.116 37.2283H127.341C128.203 37.2158 128.914 37.9025 128.927 38.7639C128.927 38.8076 128.927 38.8513 128.92 38.9012V39.101C128.852 40.0373 128.078 40.7676 127.141 40.7801H126.942C126.08 40.8051 125.362 40.1309 125.331 39.2695C125.331 39.2133 125.331 39.1571 125.337 39.101Z" fill="white"/>
</svg>
