<svg width="340" height="254" viewBox="0 0 340 254" fill="none" xmlns="http://www.w3.org/2000/svg">
<g clip-path="url(#clip0)">
<path d="M340 222.632H0V222.802H340V222.632Z" fill="#EBEBEB"/>
<path d="M305.932 233.573H283.41V233.743H305.932V233.573Z" fill="#EBEBEB"/>
<path d="M225.23 235.423H219.32V235.593H225.23V235.423Z" fill="#EBEBEB"/>
<path d="M282.73 227.263H269.681V227.433H282.73V227.263Z" fill="#EBEBEB"/>
<path d="M65.042 228.405H35.6728V228.575H65.042V228.405Z" fill="#EBEBEB"/>
<path d="M75.4053 228.405H71.101V228.575H75.4053V228.405Z" fill="#EBEBEB"/>
<path d="M153.102 231.275H89.3997V231.445H153.102V231.275Z" fill="#EBEBEB"/>
<path d="M161.16 192.304H29.8588C27.7168 192.297 25.9828 190.563 25.9828 188.421V3.8488C26.0032 1.7204 27.7304 0.0068 29.8588 0H161.16C163.302 0 165.043 1.7408 165.043 3.8828V188.421C165.043 190.563 163.302 192.304 161.16 192.304ZM29.8588 0.136C27.812 0.1428 26.1528 1.802 26.1528 3.8488V188.421C26.1528 190.468 27.812 192.127 29.8588 192.134H161.16C163.207 192.127 164.866 190.468 164.873 188.421V3.8488C164.866 1.802 163.207 0.1428 161.16 0.136H29.8588Z" fill="#EBEBEB"/>
<path d="M308.251 192.304H176.943C174.801 192.297 173.067 190.563 173.06 188.421V3.8488C173.08 1.7204 174.814 0.0068 176.943 0H308.251C310.379 0.0068 312.1 1.7204 312.12 3.8488V188.421C312.12 190.563 310.393 192.297 308.251 192.304ZM176.943 0.136C174.896 0.1428 173.237 1.802 173.23 3.8488V188.421C173.237 190.468 174.896 192.127 176.943 192.134H308.251C310.298 192.127 311.957 190.468 311.964 188.421V3.8488C311.957 1.802 310.298 0.1428 308.251 0.136H176.943Z" fill="#EBEBEB"/>
<path d="M89.08 220.415H42.1124C47.2056 215.737 59.194 216.022 59.194 216.022C59.194 216.022 50.8776 207.094 53.9444 201.362C57.0112 195.629 65.2256 208.196 65.2256 208.196C65.2256 208.196 54.8964 189.502 58.7384 184.844C62.5804 180.186 72.9096 205.312 72.9096 205.312C72.9096 205.312 66.6332 178.718 70.4072 177.963C74.1812 177.208 78.1252 203.184 78.1252 203.184C78.1252 203.184 76.7652 179.438 79.9408 180.118C83.1164 180.798 81.6 211.779 81.6 211.779C81.6 211.779 84.796 195.969 86.156 201.015C87.516 206.06 84.796 216.866 84.796 216.866C86.9312 216.743 88.808 218.294 89.08 220.415Z" fill="#E0E0E0"/>
<path d="M113.723 220.415H174.712C168.103 214.343 152.531 214.717 152.531 214.717C152.531 214.717 163.329 203.109 159.331 195.677C155.332 188.244 144.69 204.517 144.69 204.517C144.69 204.517 158.1 180.241 153.109 174.189C148.118 168.137 134.715 200.777 134.715 200.777C134.715 200.777 142.875 166.24 137.958 165.26C133.042 164.281 127.942 198.009 127.942 198.009C127.942 198.009 129.703 167.178 125.576 168.055C121.448 168.932 123.454 209.175 123.454 209.175C123.454 209.175 119.306 188.646 117.531 195.194C115.756 201.742 119.306 215.778 119.306 215.778C115.24 215.859 114.063 218.654 113.723 220.415Z" fill="#E0E0E0"/>
<path d="M169.646 220.415H216.614C211.521 215.737 199.532 216.022 199.532 216.022C199.532 216.022 207.849 207.094 204.782 201.362C201.715 195.629 193.501 208.196 193.501 208.196C193.501 208.196 203.83 189.502 199.988 184.844C196.146 180.186 185.817 205.312 185.817 205.312C185.817 205.312 192.093 178.718 188.319 177.963C184.545 177.208 180.601 203.184 180.601 203.184C180.601 203.184 181.961 179.438 178.785 180.118C175.61 180.798 177.147 211.779 177.147 211.779C177.147 211.779 173.951 195.969 172.591 201.015C171.231 206.06 173.951 216.866 173.951 216.866C171.802 216.73 169.918 218.28 169.646 220.415Z" fill="#E0E0E0"/>
<path d="M77.9212 220.415C75.8404 188.455 70.8288 106.672 71.536 72.0732L68.1972 71.8488C68.1972 71.8488 64.8652 176.079 66.6876 220.415H77.9212Z" fill="#E0E0E0"/>
<path d="M70.6451 86.3668L79.2199 79.3968L80.0767 75.072L85.2243 67.218L86.3327 66.8168L81.2531 75.6976L81.0491 78.676L88.7671 77.2616L91.9971 71.298L95.4039 68.6256L95.9139 69.5096L93.0103 72.1004L90.6303 78.4652L80.0631 81.124L69.0403 94.486L70.6451 86.3668Z" fill="#E0E0E0"/>
<path d="M68.9657 79.8864L68.5509 82.8104L59.2825 73.9364L53.5705 72.8076L49.1641 69.768L49.4633 69.4756L53.6521 72.1412L58.2897 72.3588L53.8969 66.8984L49.5721 63.75L49.8645 63.5664L54.2029 66.3748L61.3429 73.6032L60.6357 66.9936L58.9833 64.1852L58.8201 63.41L60.9009 66.47L66.3273 64.6816L66.7829 65.0216L61.2137 67.0004L62.2201 74.29L68.9657 79.8864Z" fill="#E0E0E0"/>
<path d="M99.8171 68.5032C100.028 67.32 98.1511 66.4632 96.1248 66.334C94.6287 66.2388 93.1532 66.0076 91.698 65.654C91.8884 65.2324 91.7524 64.7224 92.0244 63.988C92.616 62.3832 92.2963 61.302 90.5215 59.908C88.7467 58.514 86.9584 58.786 83.0416 59.228C79.1248 59.67 79.696 57.9224 76.1872 56.2428C72.6784 54.5632 60.4588 55.2636 58.208 56.8276C56.848 57.766 51.578 57.2152 50.116 59.5136C48.654 61.812 40.0112 61.2 41.1536 63.24C42.296 65.28 43.6764 65.3276 43.4452 68.68C43.214 72.0324 46.2536 70.9104 49.2864 72.1684C52.3192 73.4264 51.9112 71.0668 53.8968 70.9172C55.8824 70.7676 55.3316 70.5636 57.3716 69.6184C59.4116 68.6732 59.126 69.8632 62.3628 71.4884C64.1444 72.386 64.804 71.298 65.3548 70.1284C65.688 70.8832 65.314 71.9848 65.9804 73.2632C66.5176 74.2832 68.6596 74.5144 70.6996 74.324C72.9368 78.5672 73.8956 75.004 76.6972 75.3304C79.6552 75.65 84.1024 73.2904 86.1832 73.066C88.264 72.8416 88.4067 72.284 90.5555 73.9568C92.7043 75.6296 101.986 72.3656 102.864 70.686C103.741 69.0064 99.6063 69.6864 99.8171 68.5032Z" fill="#E0E0E0"/>
<path d="M138.04 220.415C136.068 189.169 132.6 128.853 133.124 101.939L130.268 101.748C130.268 101.748 127.786 179.187 128.717 220.415H138.04Z" fill="#E0E0E0"/>
<path d="M132.342 114.165L139.672 108.202L140.406 104.502L144.806 97.7908L145.751 97.444L141.413 105.033L141.236 107.59L147.839 106.372L150.6 101.279L153.517 98.9876L153.952 99.7424L151.47 101.959L149.43 107.406L140.393 109.677L130.961 121.101L132.342 114.165Z" fill="#E0E0E0"/>
<path d="M130.9 108.623L130.547 111.119L122.618 103.53L117.735 102.564L113.968 99.9668L114.227 99.7152L117.803 101.993L121.768 102.184L118.014 97.512L114.315 94.8192L114.567 94.6628L118.279 97.0632L124.386 103.244L123.781 97.5936L122.359 95.1864L122.223 94.5268L124.005 97.1448L128.649 95.6148L129.037 95.9072L124.277 97.6004L125.134 103.836L130.9 108.623Z" fill="#E0E0E0"/>
<path d="M157.291 98.8856C157.468 97.8724 155.863 97.1516 154.136 97.0292C152.857 96.9408 151.586 96.7436 150.341 96.4308C150.504 96.0704 150.389 95.6284 150.62 95.0028C151.13 93.6428 150.858 92.7112 149.342 91.5144C147.825 90.3176 146.288 90.5556 142.963 90.9432C139.638 91.3308 140.107 89.828 137.102 88.3932C134.096 86.9584 123.651 87.5568 121.727 88.8896C120.571 89.692 116.056 89.2296 114.804 91.1948C113.553 93.16 106.141 92.6568 107.12 94.3636C108.1 96.0704 109.269 96.152 109.079 99.008C108.888 101.864 111.472 100.912 114.07 101.986C116.668 103.061 116.321 101.048 118.014 100.919C119.707 100.79 119.245 100.62 120.986 99.8104C122.726 99.0012 122.488 100.014 125.256 101.408C126.779 102.177 127.344 101.245 127.82 100.273C128.098 100.919 127.779 101.864 128.35 102.952C128.806 103.829 130.642 104.026 132.382 103.863C134.293 107.494 135.102 104.462 137.516 104.727C140.039 104.999 143.847 103 145.629 102.789C147.41 102.578 147.526 102.109 149.369 103.55C151.212 104.992 159.147 102.19 159.895 100.749C160.643 99.3072 157.08 99.8988 157.291 98.8856Z" fill="#E0E0E0"/>
<path d="M115.478 189.251C114.845 184.776 102.939 92.7792 100.239 35.7H95.7781C95.7781 35.7 98.2873 151.021 105.761 193.059L115.478 189.251Z" fill="#E6E6E6"/>
<path d="M59.1056 220.415H177.514C164.669 213.411 134.45 213.846 134.45 213.846C134.45 213.846 155.414 200.471 147.682 191.903C139.951 183.335 119.252 202.103 119.252 202.103C119.252 202.103 145.282 174.128 135.572 167.151C125.861 160.174 99.8512 197.792 99.8512 197.792C99.8512 197.792 115.661 157.984 106.155 156.856C96.6484 155.727 86.7 194.602 86.7 194.602C86.7 194.602 90.1 159.066 82.11 160.079C74.12 161.092 77.9824 207.468 77.9824 207.468C77.9824 207.468 69.9312 183.811 66.4904 191.352C63.0496 198.893 69.9448 215.077 69.9448 215.077C62.0364 215.166 59.7584 218.389 59.1056 220.415Z" fill="#F0F0F0"/>
<path d="M100.348 54.8012L111.132 44.7576L111.88 38.9232L118.028 28.0024L119.462 27.37L113.499 39.644V43.6288L123.644 41.0516L127.412 32.8304L131.702 28.9544L132.457 30.0832L128.826 33.796L126.235 42.4864L112.411 46.9812L98.9331 65.7492L100.348 54.8012Z" fill="#E6E6E6"/>
<path d="M97.5189 46.3352L97.2333 50.252L84.0957 39.2836L76.3913 38.2908L70.2509 34.6392L70.6317 34.2244L76.4389 37.3932L82.6337 37.2776L76.2893 30.396L70.2509 26.5948L70.6317 26.3228L76.6565 29.6752L86.8089 38.6512L85.2721 29.9132L82.8173 26.3228L82.5317 25.3096L85.5849 29.1992L92.6433 26.3228L93.2757 26.7376L86.0473 29.8792L88.0397 39.4876L97.5189 46.3352Z" fill="#E6E6E6"/>
<path d="M137.564 28.3968C137.734 26.8056 135.164 25.8468 132.457 25.8468C130.458 25.84 128.466 25.6632 126.5 25.3164C126.711 24.7316 126.5 24.0584 126.779 23.0588C127.425 20.876 126.908 19.4616 124.413 17.7684C121.917 16.0752 119.564 16.592 114.43 17.5508C109.296 18.5096 109.868 16.116 105.04 14.1984C100.212 12.2808 84.0208 14.314 81.1648 16.592C79.4512 17.952 72.3724 17.7072 70.6316 20.9032C68.8908 24.0992 57.3036 24.0924 59.0036 26.6424C60.7036 29.1924 62.56 29.1992 62.56 33.6668C62.56 38.1344 66.4904 36.3868 70.6452 37.7468C74.8 39.1068 74.0452 36.0468 76.67 35.666C79.2948 35.2852 78.5468 35.0676 81.1784 33.626C83.81 32.1844 83.5312 33.7892 87.9784 35.666C90.4332 36.6996 91.2152 35.1968 91.8476 33.626C92.3508 34.6052 91.9632 36.108 92.9628 37.7468C93.7652 39.0592 96.6416 39.168 99.3344 38.7328C102.694 44.1728 103.652 39.4128 107.413 39.5352C111.37 39.6916 117.082 36.1828 119.836 35.666C122.59 35.1492 122.72 34.4284 125.739 36.4548C128.758 38.4812 140.808 33.3132 141.821 31.0148C142.834 28.7164 137.394 29.9948 137.564 28.3968Z" fill="#F0F0F0"/>
<path d="M289.68 34.7344C289.68 32.1912 287.62 30.1308 285.077 30.1308C284.628 30.1308 284.186 30.1988 283.757 30.328C284.533 24.9968 280.847 20.0464 275.516 19.2712C275.053 19.2032 274.584 19.1692 274.115 19.1692C273.51 19.1692 272.911 19.2304 272.32 19.3392C269.879 15.3204 264.643 14.042 260.624 16.4832C258.115 18.0064 256.571 20.7128 256.53 23.6436H256.387C252.049 23.5144 248.431 26.928 248.309 31.2664C248.18 35.6048 251.593 39.2224 255.932 39.3448C256.088 39.3516 256.238 39.3516 256.394 39.3448H285.213C287.701 39.2768 289.687 37.23 289.68 34.7344Z" fill="#F5F5F5"/>
<path d="M190.346 77.7104C190.346 75.174 188.285 73.1136 185.749 73.1136H185.742C185.293 73.1136 184.851 73.1748 184.423 73.304C185.198 67.9728 181.512 63.0224 176.181 62.2472C175.712 62.1792 175.236 62.1452 174.76 62.1452C174.155 62.1452 173.556 62.2064 172.965 62.3152C170.496 58.31 165.253 57.0588 161.241 59.5204C158.766 61.0436 157.236 63.7296 157.189 66.64H157.08C152.741 66.5108 149.124 69.9244 149.001 74.2628C148.872 78.6012 152.286 82.2188 156.624 82.3412C156.781 82.348 156.93 82.348 157.087 82.3412H185.905C188.394 82.2596 190.366 80.206 190.346 77.7104Z" fill="#F5F5F5"/>
<path d="M297.262 134.429C297.262 131.886 295.201 129.826 292.658 129.826C292.209 129.826 291.767 129.894 291.339 130.023C292.114 124.692 288.429 119.741 283.097 118.966C282.635 118.898 282.166 118.864 281.697 118.864C281.091 118.864 280.493 118.925 279.901 119.034C277.46 115.015 272.224 113.737 268.205 116.178C265.696 117.701 264.153 120.408 264.112 123.338H263.969C259.637 123.338 256.122 126.854 256.122 131.186C256.122 135.517 259.637 139.033 263.969 139.033H292.787C295.276 138.965 297.262 136.925 297.262 134.429Z" fill="#F5F5F5"/>
<path d="M67.1909 113.662C67.1841 112.125 65.9465 110.888 64.4097 110.881C64.1377 110.881 63.8657 110.922 63.6073 111.003C64.0765 107.78 61.8461 104.788 58.6229 104.319C58.3509 104.278 58.0721 104.258 57.8001 104.258C57.4397 104.258 57.0725 104.292 56.7189 104.36C55.2229 101.946 52.0473 101.204 49.6333 102.7C48.1509 103.618 47.2397 105.223 47.1989 106.964H47.1105C44.4789 106.964 42.3505 109.092 42.3505 111.724C42.3505 114.356 44.4789 116.484 47.1105 116.484H64.4845C66.0077 116.443 67.2113 115.185 67.1909 113.662Z" fill="#F5F5F5"/>
<path d="M214.696 26.3364C214.696 24.7996 213.452 23.5552 211.915 23.5552C211.643 23.5552 211.378 23.596 211.12 23.6708C211.589 20.4476 209.358 17.4556 206.135 16.9864C205.856 16.9456 205.571 16.9252 205.292 16.9252C204.925 16.9252 204.564 16.9592 204.204 17.0272C202.708 14.6132 199.532 13.872 197.118 15.368C195.636 16.286 194.725 17.8908 194.684 19.6316H194.602C191.971 19.6316 189.842 21.76 189.842 24.3916C189.842 27.0232 191.971 29.1516 194.602 29.1516H212.024C213.534 29.0972 214.717 27.846 214.696 26.3364Z" fill="#F5F5F5"/>
<path d="M170 253.341C242.816 253.341 301.845 249.894 301.845 245.643C301.845 241.392 242.816 237.946 170 237.946C97.1839 237.946 38.1548 241.392 38.1548 245.643C38.1548 249.894 97.1839 253.341 170 253.341Z" fill="#F5F5F5"/>
<path d="M253.13 234.6C253.13 234.6 250.92 234.484 250.703 228.48C250.485 222.476 254.375 220.823 257.367 221.564C257.367 221.564 256.931 217.26 258.869 217.423C260.807 217.586 260.678 220.449 260.678 220.449C260.678 220.449 261.358 214.329 263.99 214.329C266.621 214.329 263.99 221.544 263.99 221.544C263.99 221.544 267.655 219.783 269.001 221.544C270.348 223.305 267.322 225.366 267.322 225.366C267.322 225.366 272.082 226.916 270.083 231.839C270.083 231.839 273.394 232.356 274.319 234.559C274.319 234.559 274.054 230.105 275.251 230.404C276.447 230.704 276.175 234.607 276.175 234.607C276.175 234.607 278.161 230.323 279.881 231.832C281.602 233.342 279.093 236.98 279.093 236.98C279.093 236.98 282.404 235.375 282.928 237.504C283.451 239.632 281.078 240.428 281.078 240.428C281.078 240.428 284.519 239.632 284.519 243.583C284.519 243.583 291.142 242.95 292.733 246.5H253.293L253.13 234.6Z" fill="#407BFF"/>
<path opacity="0.4" d="M253.13 234.6C253.13 234.6 250.92 234.484 250.703 228.48C250.485 222.476 254.375 220.823 257.367 221.564C257.367 221.564 256.931 217.26 258.869 217.423C260.807 217.586 260.678 220.449 260.678 220.449C260.678 220.449 261.358 214.329 263.99 214.329C266.621 214.329 263.99 221.544 263.99 221.544C263.99 221.544 267.655 219.783 269.001 221.544C270.348 223.305 267.322 225.366 267.322 225.366C267.322 225.366 272.082 226.916 270.083 231.839C270.083 231.839 273.394 232.356 274.319 234.559C274.319 234.559 274.054 230.105 275.251 230.404C276.447 230.704 276.175 234.607 276.175 234.607C276.175 234.607 278.161 230.323 279.881 231.832C281.602 233.342 279.093 236.98 279.093 236.98C279.093 236.98 282.404 235.375 282.928 237.504C283.451 239.632 281.078 240.428 281.078 240.428C281.078 240.428 284.519 239.632 284.519 243.583C284.519 243.583 291.142 242.95 292.733 246.5H253.293L253.13 234.6Z" fill="white"/>
<path d="M232.975 172.72C232.023 188.36 226.855 246.16 226.855 246.16L264.194 246.507L253.695 142.066L270.45 136.952L273.965 126.8L288.116 118.796L295.032 108.174L292.359 107.494L284.723 117.3L275.815 119.238L279.63 110.201H275.4L264.792 131.131L253.912 133.362L252.919 95.2816C241.985 100.388 238.49 91.8816 238.49 91.8816C238.49 91.8816 235.661 151.49 234.07 155.992C232.458 155.094 230.962 154.013 229.602 152.762C225.91 149.478 222.707 145.683 220.082 141.501L219.402 140.379H216.002L232.975 172.72Z" fill="#407BFF"/>
<g opacity="0.2">
<path opacity="0.2" d="M232.975 172.72C232.023 188.36 226.855 246.16 226.855 246.16L264.194 246.507L253.695 142.066L270.45 136.952L273.965 126.8L288.116 118.796L295.032 108.174L292.359 107.494L284.723 117.3L275.815 119.238L279.63 110.201H275.4L264.792 131.131L253.912 133.362L252.919 95.2816C241.985 100.388 238.49 91.8816 238.49 91.8816C238.49 91.8816 235.661 151.49 234.07 155.992C232.458 155.094 230.962 154.013 229.602 152.762C225.91 149.478 222.707 145.683 220.082 141.501L219.402 140.379H216.002L232.975 172.72Z" fill="black"/>
</g>
<path opacity="0.1" d="M272.333 123.978L267.784 132.75L253.552 136.354C253.552 136.354 253.599 134.116 253.831 131.247L253.892 133.396L264.772 131.165L275.4 110.235H279.643L275.829 119.272L284.737 117.334L292.373 107.528L292.747 107.617L286.865 116.518L272.333 123.978Z" fill="black"/>
<path d="M251.845 194.861L255.204 246.425L249.281 246.371V205.673L251.845 194.861Z" fill="#407BFF"/>
<path d="M232.975 172.72L215.975 140.413H219.375L220.055 141.535C222.68 145.717 225.883 149.512 229.575 152.796C230.935 154.047 232.431 155.128 234.043 156.026C235.634 151.524 238.463 91.9156 238.463 91.9156C239.571 94.2752 241.679 96.0228 244.202 96.6756C244.358 115.926 244.521 135.184 244.685 154.435C245.888 151.715 246.935 149.07 247.037 146.22C247.398 154.108 247.881 162.588 247.847 170.374L241.305 194.507L240.04 246.282L226.875 246.16C226.875 246.16 232.023 188.36 232.975 172.72Z" fill="#407BFF"/>
<path d="M190.951 71.8488C185.511 73.7936 181.751 79.5532 181.921 85.34C182.24 91.2492 185.899 96.4648 191.352 98.7768C196.84 100.939 203.062 100.116 207.801 96.6076C208.039 102.163 211.834 108.202 217.131 109.881C222.605 111.52 228.528 109.67 232.091 105.203C246.371 114.172 296.351 117.497 305.137 79.3016C306.945 71.4136 302.553 63.0632 296.113 58.1604C289.673 53.2576 281.486 51.2516 273.455 50.2656C265.833 38.1276 248.928 31.4976 234.695 33.4016C220.463 35.3056 207.863 46.0564 203.708 59.772C189.231 59.84 190.74 72.8212 190.951 71.8488Z" fill="#407BFF"/>
<g opacity="0.2">
<path opacity="0.2" d="M190.951 71.8488C185.511 73.7936 181.751 79.5532 181.921 85.34C182.24 91.2492 185.899 96.4648 191.352 98.7768C196.84 100.939 203.062 100.116 207.801 96.6076C208.039 102.163 211.834 108.202 217.131 109.881C222.605 111.52 228.528 109.67 232.091 105.203C246.371 114.172 296.351 117.497 305.137 79.3016C306.945 71.4136 302.553 63.0632 296.113 58.1604C289.673 53.2576 281.486 51.2516 273.455 50.2656C265.833 38.1276 248.928 31.4976 234.695 33.4016C220.463 35.3056 207.863 46.0564 203.708 59.772C189.231 59.84 190.74 72.8212 190.951 71.8488Z" fill="#29B473"/>
</g>
<path d="M208.583 146.982C210.943 150.484 215.696 151.402 219.191 149.042C220.674 148.043 221.755 146.554 222.258 144.84C225.658 147.22 230.867 146.635 234.294 144.316C238.993 141.134 240.224 134.749 237.041 130.05C235.389 127.609 232.764 125.99 229.84 125.616C229.507 121.774 227.385 118.313 224.108 116.28C220.68 114.179 216.485 113.737 212.697 115.076C208.25 114.349 203.735 115.811 200.552 119C198.261 121.224 196.738 124.379 197.003 127.561C197.268 130.744 199.594 133.797 202.728 134.402C201.593 136.734 201.477 139.427 202.402 141.848C203.415 144.214 206.149 146.078 208.583 146.982Z" fill="#407BFF"/>
<path opacity="0.2" d="M208.583 146.982C210.943 150.484 215.696 151.402 219.191 149.042C220.674 148.043 221.755 146.554 222.258 144.84C225.658 147.22 230.867 146.635 234.294 144.316C238.993 141.134 240.224 134.749 237.041 130.05C235.389 127.609 232.764 125.99 229.84 125.616C229.507 121.774 227.385 118.313 224.108 116.28C220.68 114.179 216.485 113.737 212.697 115.076C208.25 114.349 203.735 115.811 200.552 119C198.261 121.224 196.738 124.379 197.003 127.561C197.268 130.744 199.594 133.797 202.728 134.402C201.593 136.734 201.477 139.427 202.402 141.848C203.415 144.214 206.149 146.078 208.583 146.982Z" fill="black"/>
<path d="M280.541 89.2364C276.549 87.8628 272.197 89.9776 270.824 93.9692C270.239 95.6556 270.266 97.4984 270.898 99.1644C266.764 99.2936 262.936 102.904 261.589 106.814C259.74 112.173 262.582 118.021 267.94 119.87C270.722 120.829 273.788 120.55 276.352 119.102C278.929 121.972 282.71 123.461 286.552 123.114C290.557 122.733 294.175 120.571 296.405 117.225C300.397 115.144 303.137 111.268 303.776 106.814C304.273 103.666 303.6 100.225 301.471 97.8384C299.343 95.4516 295.657 94.4384 292.788 95.7984C292.284 93.2688 290.761 91.052 288.578 89.6784C286.341 88.3524 283.03 88.502 280.541 89.2364Z" fill="#407BFF"/>
<path opacity="0.1" d="M280.541 89.2364C276.549 87.8628 272.197 89.9776 270.824 93.9692C270.239 95.6556 270.266 97.4984 270.898 99.1644C266.764 99.2936 262.936 102.904 261.589 106.814C259.74 112.173 262.582 118.021 267.94 119.87C270.722 120.829 273.788 120.55 276.352 119.102C278.929 121.972 282.71 123.461 286.552 123.114C290.557 122.733 294.175 120.571 296.405 117.225C300.397 115.144 303.137 111.268 303.776 106.814C304.273 103.666 303.6 100.225 301.471 97.8384C299.343 95.4516 295.657 94.4384 292.788 95.7984C292.284 93.2688 290.761 91.052 288.578 89.6784C286.341 88.3524 283.03 88.502 280.541 89.2364Z" fill="black"/>
<path d="M255.306 244.997C255.306 244.997 241.591 236.11 244.195 234.6C246.799 233.09 255.939 241.978 255.939 241.978C255.939 241.978 245.834 227.195 248.329 224.23C250.825 221.265 257.55 236.28 257.55 236.28C257.55 236.28 252.981 219.116 256.19 217.24C259.4 215.363 260.59 234.437 260.59 234.437C260.59 234.437 261.848 213.765 267.764 214.037C273.68 214.309 265.044 234.437 265.044 234.437C265.044 234.437 273.387 222.476 276.345 225.869C279.303 229.262 266.927 238.789 266.927 238.789C266.927 238.789 276.182 234.444 276.801 237.667C277.42 240.89 266.601 244.324 266.601 244.324C266.601 244.324 270.076 245.324 270.885 246.493H252.403C252.403 246.493 252.103 245.616 255.306 244.997Z" fill="#407BFF"/>
<path opacity="0.6" d="M255.306 244.997C255.306 244.997 241.591 236.11 244.195 234.6C246.799 233.09 255.939 241.978 255.939 241.978C255.939 241.978 245.834 227.195 248.329 224.23C250.825 221.265 257.55 236.28 257.55 236.28C257.55 236.28 252.981 219.116 256.19 217.24C259.4 215.363 260.59 234.437 260.59 234.437C260.59 234.437 261.848 213.765 267.764 214.037C273.68 214.309 265.044 234.437 265.044 234.437C265.044 234.437 273.387 222.476 276.345 225.869C279.303 229.262 266.927 238.789 266.927 238.789C266.927 238.789 276.182 234.444 276.801 237.667C277.42 240.89 266.601 244.324 266.601 244.324C266.601 244.324 270.076 245.324 270.885 246.493H252.403C252.403 246.493 252.103 245.616 255.306 244.997Z" fill="white"/>
<path d="M77.9756 210.548C77.928 210.304 73.3312 186.456 68.8432 183.28C64.4844 180.207 60.6832 184.43 60.5472 184.64L60.0372 184.198C60.078 184.144 64.3824 179.336 69.2308 182.764C73.95 186.089 78.4516 209.46 78.642 210.453L77.9756 210.548Z" fill="#407BFF"/>
<path d="M76.2687 212.514C76.2687 212.35 74.5687 195.956 69.2851 190.924C68.0067 189.706 66.7555 189.23 65.5655 189.509C62.7367 190.155 60.9891 194.732 60.9755 194.779L60.3363 194.541C60.4111 194.337 62.2267 189.577 65.4091 188.843C66.8371 188.516 68.2991 189.047 69.7543 190.427C75.1943 195.636 76.8807 211.766 76.9487 212.446L76.2687 212.514Z" fill="#407BFF"/>
<path d="M73.1 185.892C73.1 185.892 76.1736 185.273 76.7652 187.932C77.3568 190.59 71.6516 199.022 71.6516 199.022C71.6516 199.022 66.47 198.023 66.47 191.209C66.47 184.396 72.08 184.375 73.1 185.892Z" fill="#407BFF"/>
<path opacity="0.2" d="M73.1 185.892C73.1 185.892 76.1736 185.273 76.7652 187.932C77.3568 190.59 71.6516 199.022 71.6516 199.022C71.6516 199.022 66.47 198.023 66.47 191.209C66.47 184.396 72.08 184.375 73.1 185.892Z" fill="white"/>
<path d="M65.1645 191.032C65.1645 191.032 66.4021 189.672 64.7769 189.339C63.1517 189.006 55.6513 190.4 56.7461 197.88C56.7461 197.88 65.7493 197.955 66.3885 194.936C67.0277 191.916 65.1645 191.032 65.1645 191.032Z" fill="#407BFF"/>
<path opacity="0.2" d="M65.1645 191.032C65.1645 191.032 66.4021 189.672 64.7769 189.339C63.1517 189.006 55.6513 190.4 56.7461 197.88C56.7461 197.88 65.7493 197.955 66.3885 194.936C67.0277 191.916 65.1645 191.032 65.1645 191.032Z" fill="white"/>
<path d="M76.7244 178.214C76.7244 178.214 76.3776 176.854 77.588 177.208C78.7984 177.562 83.402 181.193 79.9612 185.858C79.9612 185.858 73.8412 182.662 74.5212 180.418C75.2012 178.174 76.7244 178.214 76.7244 178.214Z" fill="#407BFF"/>
<path opacity="0.2" d="M76.7244 178.214C76.7244 178.214 76.3776 176.854 77.588 177.208C78.7984 177.562 83.402 181.193 79.9612 185.858C79.9612 185.858 73.8412 182.662 74.5212 180.418C75.2012 178.174 76.7244 178.214 76.7244 178.214Z" fill="white"/>
<path d="M189.842 215.438L189.162 215.254C189.244 214.975 197.091 187.048 211.283 179.527L211.603 180.125C197.69 187.517 189.917 215.159 189.842 215.438Z" fill="#407BFF"/>
<path d="M189.972 212.282L189.353 211.997C189.496 211.704 203.034 182.111 198.37 172.713L198.975 172.414C203.789 182.097 190.536 211.058 189.972 212.282Z" fill="#407BFF"/>
<path d="M189.441 214.424L188.761 214.227C189.224 212.69 200.097 176.576 207.053 172.135L207.42 172.706C200.702 177.011 189.55 214.05 189.441 214.424Z" fill="#407BFF"/>
<path d="M200.818 173.876C200.818 173.876 202.858 174.413 203.15 173.196C203.442 171.979 197.2 166.049 190.91 169.306C190.91 169.306 191.862 175.195 195.888 176.786C199.913 178.378 200.818 173.876 200.818 173.876Z" fill="#407BFF"/>
<path opacity="0.2" d="M200.818 173.876C200.818 173.876 202.858 174.413 203.15 173.196C203.442 171.979 197.2 166.049 190.91 169.306C190.91 169.306 191.862 175.195 195.888 176.786C199.913 178.378 200.818 173.876 200.818 173.876Z" fill="white"/>
<path d="M205.557 172.387C205.557 172.387 203.463 172.564 203.388 171.285C203.313 170.007 210.494 165.281 216.097 169.585C216.097 169.585 214.125 175.216 209.882 176.106C205.639 176.997 205.557 172.387 205.557 172.387Z" fill="#407BFF"/>
<path opacity="0.2" d="M205.557 172.387C205.557 172.387 203.463 172.564 203.388 171.285C203.313 170.007 210.494 165.281 216.097 169.585C216.097 169.585 214.125 175.216 209.882 176.106C205.639 176.997 205.557 172.387 205.557 172.387Z" fill="white"/>
<path d="M212.201 178.038C212.201 178.038 211.276 176.44 212.928 176.467C214.581 176.494 221.646 179.377 219.014 186.456C219.014 186.456 210.174 184.654 210.174 181.574C210.174 178.493 212.201 178.038 212.201 178.038Z" fill="#407BFF"/>
<path opacity="0.2" d="M212.201 178.038C212.201 178.038 211.276 176.44 212.928 176.467C214.581 176.494 221.646 179.377 219.014 186.456C219.014 186.456 210.174 184.654 210.174 181.574C210.174 178.493 212.201 178.038 212.201 178.038Z" fill="white"/>
<path d="M205.639 182.036C205.639 182.036 206.026 180.676 206.897 181.601C207.767 182.526 209.936 187.952 204.632 190.278C204.632 190.278 200.926 184.457 202.626 182.798C204.326 181.138 205.639 182.036 205.639 182.036Z" fill="#407BFF"/>
<path opacity="0.2" d="M205.639 182.036C205.639 182.036 206.026 180.676 206.897 181.601C207.767 182.526 209.936 187.952 204.632 190.278C204.632 190.278 200.926 184.457 202.626 182.798C204.326 181.138 205.639 182.036 205.639 182.036Z" fill="white"/>
<path d="M62.5124 182.498C62.5124 182.498 63.1924 181.247 61.9208 181.308C60.6492 181.37 55.3044 183.736 57.4872 189.101C57.4872 189.101 64.2056 187.517 64.1308 185.157C64.056 182.798 62.5124 182.498 62.5124 182.498Z" fill="#407BFF"/>
<path opacity="0.2" d="M62.5124 182.498C62.5124 182.498 63.1924 181.247 61.9208 181.308C60.6492 181.37 55.3044 183.736 57.4872 189.101C57.4872 189.101 64.2056 187.517 64.1308 185.157C64.056 182.798 62.5124 182.498 62.5124 182.498Z" fill="white"/>
<path d="M182.022 228.84C182.022 228.84 177.534 228.664 177.092 219.613C176.65 210.562 184.572 208.148 190.631 209.256C190.631 209.256 189.74 202.81 193.684 203.048C197.628 203.286 197.356 207.59 197.356 207.59C197.356 207.59 198.716 198.451 204.081 198.444C209.447 198.438 204.081 209.256 204.081 209.256C204.081 209.256 211.528 206.618 214.281 209.256C217.035 211.895 210.882 214.982 210.882 214.982C210.882 214.982 220.531 217.301 216.498 224.686C216.498 224.686 223.224 225.461 225.107 228.766C225.107 228.766 224.57 222.095 226.991 222.544C229.411 222.992 228.868 228.84 228.868 228.84C228.868 228.84 232.907 222.414 236.402 224.686C239.897 226.957 234.79 232.397 234.79 232.397C234.79 232.397 241.516 229.99 242.59 233.179C243.664 236.368 238.823 237.565 238.823 237.565C238.823 237.565 245.82 236.368 245.82 242.291C245.82 242.291 259.27 241.339 262.5 246.656H182.294L182.022 228.84Z" fill="#407BFF"/>
<path opacity="0.4" d="M182.022 228.84C182.022 228.84 177.534 228.664 177.092 219.613C176.65 210.562 184.572 208.148 190.631 209.256C190.631 209.256 189.74 202.81 193.684 203.048C197.628 203.286 197.356 207.59 197.356 207.59C197.356 207.59 198.716 198.451 204.081 198.444C209.447 198.438 204.081 209.256 204.081 209.256C204.081 209.256 211.528 206.618 214.281 209.256C217.035 211.895 210.882 214.982 210.882 214.982C210.882 214.982 220.531 217.301 216.498 224.686C216.498 224.686 223.224 225.461 225.107 228.766C225.107 228.766 224.57 222.095 226.991 222.544C229.411 222.992 228.868 228.84 228.868 228.84C228.868 228.84 232.907 222.414 236.402 224.686C239.897 226.957 234.79 232.397 234.79 232.397C234.79 232.397 241.516 229.99 242.59 233.179C243.664 236.368 238.823 237.565 238.823 237.565C238.823 237.565 245.82 236.368 245.82 242.291C245.82 242.291 259.27 241.339 262.5 246.656H182.294L182.022 228.84Z" fill="white"/>
<path d="M88.4408 228.84C88.4408 228.84 91.7524 228.664 92.0788 219.613C92.4052 210.562 86.5776 208.148 82.0896 209.256C82.0896 209.256 82.7696 202.81 79.8388 203.048C76.908 203.286 77.1188 207.59 77.1188 207.59C77.1188 207.59 76.126 198.451 72.1548 198.444C68.1836 198.438 72.1548 209.256 72.1548 209.256C72.1548 209.256 66.6672 206.618 64.6748 209.256C62.6824 211.895 67.1976 214.982 67.1976 214.982C67.1976 214.982 60.078 217.301 63.0564 224.686C63.0564 224.686 58.0924 225.461 56.7052 228.766C56.7052 228.766 57.0996 222.095 55.3452 222.544C53.5908 222.992 53.9852 228.84 53.9852 228.84C53.9852 228.84 51.0136 222.414 48.4296 224.686C45.8456 226.957 49.6196 232.397 49.6196 232.397C49.6196 232.397 44.6624 229.99 43.8668 233.179C43.0712 236.368 46.648 237.565 46.648 237.565C46.648 237.565 41.4868 236.368 41.4868 242.291C41.4868 242.291 31.5656 241.339 29.1788 246.656H88.3388L88.4408 228.84Z" fill="#407BFF"/>
<path opacity="0.4" d="M88.4408 228.84C88.4408 228.84 91.7524 228.664 92.0788 219.613C92.4052 210.562 86.5776 208.148 82.0896 209.256C82.0896 209.256 82.7696 202.81 79.8388 203.048C76.908 203.286 77.1188 207.59 77.1188 207.59C77.1188 207.59 76.126 198.451 72.1548 198.444C68.1836 198.438 72.1548 209.256 72.1548 209.256C72.1548 209.256 66.6672 206.618 64.6748 209.256C62.6824 211.895 67.1976 214.982 67.1976 214.982C67.1976 214.982 60.078 217.301 63.0564 224.686C63.0564 224.686 58.0924 225.461 56.7052 228.766C56.7052 228.766 57.0996 222.095 55.3452 222.544C53.5908 222.992 53.9852 228.84 53.9852 228.84C53.9852 228.84 51.0136 222.414 48.4296 224.686C45.8456 226.957 49.6196 232.397 49.6196 232.397C49.6196 232.397 44.6624 229.99 43.8668 233.179C43.0712 236.368 46.648 237.565 46.648 237.565C46.648 237.565 41.4868 236.368 41.4868 242.291C41.4868 242.291 31.5656 241.339 29.1788 246.656H88.3388L88.4408 228.84Z" fill="white"/>
<path d="M58.9152 245.147C58.9152 245.147 72.624 236.259 70.04 234.763C67.456 233.267 58.276 242.134 58.276 242.134C58.276 242.134 68.3808 227.351 65.8852 224.386C63.3896 221.422 56.6644 236.436 56.6644 236.436C56.6644 236.436 61.234 219.273 58.0244 217.396C54.8148 215.519 53.6112 234.6 53.6112 234.6C53.6112 234.6 52.36 213.921 46.4372 214.2C40.5144 214.479 49.1572 234.6 49.1572 234.6C49.1572 234.6 40.8 222.625 37.8352 226.025C34.8704 229.425 47.2464 238.945 47.2464 238.945C47.2464 238.945 37.9916 234.6 37.4 237.837C36.8084 241.074 47.6 244.494 47.6 244.494C47.6 244.494 44.1184 245.494 43.316 246.656H61.8188C61.8188 246.656 62.1112 245.772 58.9152 245.147Z" fill="#407BFF"/>
<path opacity="0.6" d="M58.9152 245.147C58.9152 245.147 72.624 236.259 70.04 234.763C67.456 233.267 58.276 242.134 58.276 242.134C58.276 242.134 68.3808 227.351 65.8852 224.386C63.3896 221.422 56.6644 236.436 56.6644 236.436C56.6644 236.436 61.234 219.273 58.0244 217.396C54.8148 215.519 53.6112 234.6 53.6112 234.6C53.6112 234.6 52.36 213.921 46.4372 214.2C40.5144 214.479 49.1572 234.6 49.1572 234.6C49.1572 234.6 40.8 222.625 37.8352 226.025C34.8704 229.425 47.2464 238.945 47.2464 238.945C47.2464 238.945 37.9916 234.6 37.4 237.837C36.8084 241.074 47.6 244.494 47.6 244.494C47.6 244.494 44.1184 245.494 43.316 246.656H61.8188C61.8188 246.656 62.1112 245.772 58.9152 245.147Z" fill="white"/>
<path d="M65.7763 246.656C65.7763 246.656 81.5523 188.605 84.4219 186.456C87.2915 184.307 103.659 178.248 103.659 178.248C103.659 178.248 143.473 184.899 149.457 184.239C155.441 183.58 174.671 179.88 177.432 184.239C180.193 188.598 191.08 214.792 191.08 214.792L206.373 221.245L216.063 246.656H65.7763Z" fill="#407BFF"/>
<path opacity="0.6" d="M216.063 246.656H65.7831C65.7831 246.656 81.4843 188.856 84.4083 186.463C85.4283 185.796 86.5027 185.212 87.6247 184.729C93.3095 182.084 103.646 178.262 103.646 178.262C103.646 178.262 143.46 184.912 149.444 184.253C155.428 183.593 174.658 179.887 177.419 184.253C178.004 185.184 178.962 187.102 180.105 189.55C184.334 198.56 191.08 214.785 191.08 214.785L206.373 221.245L216.063 246.656Z" fill="white"/>
<path opacity="0.1" d="M180.118 189.536L174.182 195.412L158.712 191.76L141.209 195.398L142.331 202.164L135.959 209.753L138.224 202.164L133.28 193.834C133.28 193.834 113.138 195.058 107.882 193.834C104.584 193.066 94.6084 188.21 87.6588 184.715C93.3436 182.07 103.68 178.248 103.68 178.248C103.68 178.248 143.494 184.899 149.478 184.239C155.462 183.58 174.692 179.874 177.453 184.239C178.017 185.171 178.976 187.088 180.118 189.536Z" fill="black"/>
<path opacity="0.1" d="M216.063 246.656H65.7831C65.7831 246.656 81.4843 188.856 84.4083 186.463L74.7251 231.506L79.5667 238.986L91.4667 229.956L100.64 235.015L113.302 232.458L114.56 226.338L132.498 214.54L121.237 224.971L125.202 236.871L142.44 239.843H161.48L169.32 234.6L166.695 223.924L162.731 217.736L182.825 217.688L174.27 222.986L177.426 232.39L187.102 236.878L198.349 229.935L202.932 243.182L216.063 246.656Z" fill="black"/>
<path d="M195.976 246.656H220.884C220.884 246.656 215.927 239.068 213.812 240.033C211.058 241.284 209.018 234.41 205.972 236.035C204.898 236.613 205.428 238.449 204.748 239.19C203.633 240.414 202.212 240.176 200.865 240.849C198.22 242.168 197.282 243.909 195.976 246.656Z" fill="#407BFF"/>
<path opacity="0.2" d="M195.976 246.656H220.884C220.884 246.656 215.927 239.068 213.812 240.033C211.058 241.284 209.018 234.41 205.972 236.035C204.898 236.613 205.428 238.449 204.748 239.19C203.633 240.414 202.212 240.176 200.865 240.849C198.22 242.168 197.282 243.909 195.976 246.656Z" fill="black"/>
<path d="M218.164 244.542C218.164 244.542 216.525 235.056 217.654 233.662C218.783 232.268 218.98 238.836 218.98 238.836C218.98 238.836 222.775 225.128 225.202 225.06C227.63 224.992 222.36 236.953 222.36 236.953C222.36 236.953 232.737 219.994 235.749 221.571C238.761 223.149 224.869 238.184 224.869 238.184C224.869 238.184 232.458 231.649 234.131 233.498C235.803 235.348 225.705 240.978 225.705 240.978C225.705 240.978 230.159 239.979 230.153 241.461C230.146 242.944 222.618 245.385 218.164 244.542Z" fill="#407BFF"/>
<path opacity="0.2" d="M218.164 244.542C218.164 244.542 216.525 235.056 217.654 233.662C218.783 232.268 218.98 238.836 218.98 238.836C218.98 238.836 222.775 225.128 225.202 225.06C227.63 224.992 222.36 236.953 222.36 236.953C222.36 236.953 232.737 219.994 235.749 221.571C238.761 223.149 224.869 238.184 224.869 238.184C224.869 238.184 232.458 231.649 234.131 233.498C235.803 235.348 225.705 240.978 225.705 240.978C225.705 240.978 230.159 239.979 230.153 241.461C230.146 242.944 222.618 245.385 218.164 244.542Z" fill="white"/>
<path d="M216.668 243.188C216.668 243.188 208.869 241.774 208.114 240.509C207.359 239.244 212.486 240.944 212.486 240.944C212.486 240.944 202.966 234.144 203.585 232.24C204.204 230.336 211.97 237.823 211.97 237.823C211.97 237.823 201.77 225.012 203.857 223.122C205.945 221.231 213.642 236.218 213.642 236.218C213.642 236.218 210.732 228.5 212.629 227.725C214.526 226.95 216.029 236.361 216.029 236.361C216.029 236.361 216.512 232.635 217.654 233.056C218.797 233.478 218.579 239.979 216.668 243.188Z" fill="#407BFF"/>
<path opacity="0.2" d="M216.668 243.188C216.668 243.188 208.869 241.774 208.114 240.509C207.359 239.244 212.486 240.944 212.486 240.944C212.486 240.944 202.966 234.144 203.585 232.24C204.204 230.336 211.97 237.823 211.97 237.823C211.97 237.823 201.77 225.012 203.857 223.122C205.945 221.231 213.642 236.218 213.642 236.218C213.642 236.218 210.732 228.5 212.629 227.725C214.526 226.95 216.029 236.361 216.029 236.361C216.029 236.361 216.512 232.635 217.654 233.056C218.797 233.478 218.579 239.979 216.668 243.188Z" fill="white"/>
<path d="M216.083 242.148C216.083 242.148 208.549 234.607 208.685 232.628C208.821 230.649 213.187 236.463 213.187 236.463C213.187 236.463 207.876 221.632 210.031 220.021C212.187 218.409 215.009 232.628 215.009 232.628C215.009 232.628 213.581 210.65 217.321 210.188C221.061 209.726 218.083 232.152 218.083 232.152C218.083 232.152 220.803 221.401 223.482 222C226.161 222.598 220.626 234.151 220.626 234.151C220.626 234.151 224.026 230.404 224.958 231.751C225.889 233.097 220.653 240.04 216.083 242.148Z" fill="#407BFF"/>
<path opacity="0.1" d="M216.083 242.148C216.083 242.148 208.549 234.607 208.685 232.628C208.821 230.649 213.187 236.463 213.187 236.463C213.187 236.463 207.876 221.632 210.031 220.021C212.187 218.409 215.009 232.628 215.009 232.628C215.009 232.628 213.581 210.65 217.321 210.188C221.061 209.726 218.083 232.152 218.083 232.152C218.083 232.152 220.803 221.401 223.482 222C226.161 222.598 220.626 234.151 220.626 234.151C220.626 234.151 224.026 230.404 224.958 231.751C225.889 233.097 220.653 240.04 216.083 242.148Z" fill="white"/>
<path d="M206.951 246.656H226.8C226.8 246.656 222.85 240.611 221.163 241.38C218.974 242.379 217.348 236.898 214.921 238.197C214.064 238.653 214.479 240.115 213.942 240.706C213.051 241.686 211.902 241.495 210.848 242.032C208.76 243.08 207.992 244.467 206.951 246.656Z" fill="#407BFF"/>
<path d="M82.9599 246.656H58.0719C58.0719 246.656 63.0359 239.068 65.1507 240.033C67.8707 241.284 69.9107 234.41 72.9843 236.035C74.0587 236.613 73.5351 238.449 74.2151 239.19C75.3303 240.414 76.7515 240.176 78.0979 240.849C80.7431 242.168 81.6815 243.909 82.9599 246.656Z" fill="#407BFF"/>
<path opacity="0.2" d="M82.9599 246.656H58.0719C58.0719 246.656 63.0359 239.068 65.1507 240.033C67.8707 241.284 69.9107 234.41 72.9843 236.035C74.0587 236.613 73.5351 238.449 74.2151 239.19C75.3303 240.414 76.7515 240.176 78.0979 240.849C80.7431 242.168 81.6815 243.909 82.9599 246.656Z" fill="black"/>
<path d="M60.7988 244.542C60.7988 244.542 62.4308 235.056 61.302 233.662C60.1732 232.268 59.942 238.836 59.942 238.836C59.942 238.836 56.1816 225.128 53.754 225.08C51.3264 225.032 56.6372 236.973 56.6372 236.973C56.6372 236.973 46.24 219.994 43.2412 221.571C40.2424 223.149 54.1212 238.184 54.1212 238.184C54.1212 238.184 46.5256 231.649 44.8528 233.498C43.18 235.348 53.2848 240.978 53.2848 240.978C53.2848 240.978 48.8308 239.979 48.8376 241.461C48.8444 242.944 56.338 245.385 60.7988 244.542Z" fill="#407BFF"/>
<path opacity="0.2" d="M60.7988 244.542C60.7988 244.542 62.4308 235.056 61.302 233.662C60.1732 232.268 59.942 238.836 59.942 238.836C59.942 238.836 56.1816 225.128 53.754 225.08C51.3264 225.032 56.6372 236.973 56.6372 236.973C56.6372 236.973 46.24 219.994 43.2412 221.571C40.2424 223.149 54.1212 238.184 54.1212 238.184C54.1212 238.184 46.5256 231.649 44.8528 233.498C43.18 235.348 53.2848 240.978 53.2848 240.978C53.2848 240.978 48.8308 239.979 48.8376 241.461C48.8444 242.944 56.338 245.385 60.7988 244.542Z" fill="white"/>
<path d="M68.442 244.99C68.442 244.99 74.3784 239.734 74.3716 238.258C74.3648 236.783 70.856 240.904 70.856 240.904C70.856 240.904 75.48 230.139 73.9568 228.847C72.4336 227.555 69.6796 238 69.6796 238C69.6796 238 71.7196 221.762 68.9996 221.224C66.2796 220.687 67.422 237.49 67.422 237.49C67.422 237.49 65.9056 229.384 63.886 229.711C61.8664 230.037 65.4432 238.857 65.4432 238.857C65.4432 238.857 63.0972 235.919 62.3356 236.878C61.574 237.837 65.1508 243.229 68.442 244.99Z" fill="#407BFF"/>
<path opacity="0.2" d="M68.442 244.99C68.442 244.99 74.3784 239.734 74.3716 238.258C74.3648 236.783 70.856 240.904 70.856 240.904C70.856 240.904 75.48 230.139 73.9568 228.847C72.4336 227.555 69.6796 238 69.6796 238C69.6796 238 71.7196 221.762 68.9996 221.224C66.2796 220.687 67.422 237.49 67.422 237.49C67.422 237.49 65.9056 229.384 63.886 229.711C61.8664 230.037 65.4432 238.857 65.4432 238.857C65.4432 238.857 63.0972 235.919 62.3356 236.878C61.574 237.837 65.1508 243.229 68.442 244.99Z" fill="white"/>
<path d="M72.0119 246.656H52.1559C52.1559 246.656 56.1135 240.611 57.7999 241.38C59.9895 242.379 61.6147 236.898 64.0423 238.197C64.8991 238.653 64.4775 240.115 65.0147 240.706C65.9055 241.686 67.0547 241.495 68.1155 242.032C70.2235 243.08 70.9715 244.467 72.0119 246.656Z" fill="#407BFF"/>
<path d="M118.912 116.28C118.912 116.28 96.05 112.717 91.7116 114.587C87.3732 116.457 85.9112 123.182 85.9112 123.182C85.9112 123.182 85.1292 124.542 87.4956 124.719C87.4956 124.719 77.8192 148.825 80.8792 153.442C83.9392 158.059 114.757 159.909 118.959 157.644C123.162 155.38 133.137 118 118.912 116.28Z" fill="#263238"/>
<path d="M132.376 139.278C132.376 139.278 135.402 146.302 136.082 147.281C136.762 148.26 151.824 155.183 151.824 155.183C153.041 155.013 154.285 155.013 155.502 155.183C157.359 155.475 159.916 156.257 160.147 156.543C160.378 156.828 157.352 161.228 157.352 161.228C157.352 161.228 151.334 161.602 150.552 159.222C150.552 159.222 135.463 153.619 133.708 152.15C131.954 150.681 127.072 142.004 127.072 142.004L132.376 139.278Z" fill="#E4897B"/>
<path d="M128.044 123.896C130.873 125.582 135.3 143.738 136.252 145.894C137.204 148.05 148.764 153.292 148.764 153.292L143.636 158.202C143.636 158.202 131.92 153 130.465 151.545C129.01 150.09 123.162 135 123.162 135L128.044 123.896Z" fill="#628CE0"/>
<path d="M127.106 165.39C127.106 165.39 174.787 158.542 177.303 169C179.962 180.064 141.678 187.524 118.823 188.306C95.9683 189.088 89.3587 184.062 93.0307 155.788L123.903 155.713L127.106 165.39Z" fill="#263238"/>
<path opacity="0.2" d="M127.106 165.39C127.106 165.39 174.787 158.542 177.303 169C179.962 180.064 141.678 187.524 118.823 188.306C95.9683 189.088 89.3587 184.062 93.0307 155.788L123.903 155.713L127.106 165.39Z" fill="black"/>
<path d="M170.17 181.601C170.122 181.635 170.048 181.635 170 181.601C169.952 181.567 169.939 181.512 169.959 181.458C170.034 181.206 170.789 179.003 171.557 178.772C171.72 178.731 171.897 178.786 172.013 178.908C172.23 179.085 172.332 179.37 172.285 179.649C172.162 180.057 171.911 180.424 171.571 180.683C171.136 181.036 170.666 181.342 170.17 181.601ZM170.36 181.179C171.074 180.866 171.652 180.309 171.992 179.608C172.033 179.418 171.958 179.221 171.802 179.105C171.754 179.051 171.686 179.03 171.618 179.051C171.557 179.078 171.496 179.112 171.442 179.16C170.966 179.765 170.598 180.445 170.36 181.179Z" fill="#407BFF"/>
<path d="M170.129 181.635C170.075 181.648 170.02 181.635 169.986 181.594C169.912 181.526 168.858 180.193 169.028 179.296C169.075 179.071 169.204 178.874 169.395 178.745C169.558 178.582 169.816 178.554 170.007 178.684C170.558 179.078 170.49 180.86 170.218 181.54V181.608L170.129 181.635ZM169.524 179.017C169.429 179.098 169.368 179.214 169.34 179.336C169.232 179.908 169.762 180.764 170.02 181.172C170.197 180.411 170.143 179.132 169.816 178.935C169.782 178.935 169.714 178.86 169.551 178.976L169.497 179.017H169.524Z" fill="#407BFF"/>
<path d="M153.653 187.204L163.649 187.211L168.443 187.218L169.014 182.165L164.58 181.574L153.741 180.125L153.653 187.204Z" fill="#E4897B"/>
<path d="M167.96 181.56L166.743 187.32C166.682 187.632 166.886 187.938 167.198 188C167.205 188 167.205 188 167.212 188L170.082 188.516C170.082 188.516 173.896 189.489 174.971 188.802C178.099 186.803 181.091 174.121 179.84 173.162C179.377 172.822 178.568 173.339 178.167 173.754C176.882 175.066 174.141 178.724 173.053 179.812C171.788 181.077 169.538 181.111 168.552 181.064C168.259 181.057 168.001 181.268 167.96 181.56Z" fill="#263238"/>
<path opacity="0.2" d="M153.653 187.204L163.649 187.211L164.58 181.574L153.741 180.125L153.653 187.204Z" fill="black"/>
<path d="M115.906 165.043V166.308C115.906 167.185 116.6 167.899 117.47 167.94H163.975C164.873 167.912 165.6 167.205 165.655 166.308V165.043H115.906Z" fill="#263238"/>
<path opacity="0.2" d="M115.906 165.043V166.308C115.906 167.185 116.6 167.899 117.47 167.94H163.975C164.873 167.912 165.6 167.205 165.655 166.308V165.043H115.906Z" fill="white"/>
<path opacity="0.2" d="M133.28 165.043V166.308C133.287 167.185 133.974 167.899 134.851 167.94H163.996C164.893 167.912 165.621 167.205 165.675 166.308V165.043H133.28Z" fill="white"/>
<path d="M134.83 166.777H165.553C166.559 166.729 167.443 166.076 167.79 165.131L174.835 143.031C175.1 142.412 174.814 141.692 174.196 141.42C174.026 141.345 173.835 141.311 173.652 141.324H142.929C141.909 141.399 141.032 142.066 140.699 143.031L133.654 165.104C133.389 165.709 133.668 166.416 134.273 166.682C134.45 166.756 134.64 166.79 134.83 166.777Z" fill="#263238"/>
<path opacity="0.2" d="M134.83 166.777H165.553C166.559 166.729 167.443 166.076 167.79 165.131L174.835 143.031C175.1 142.412 174.814 141.692 174.196 141.42C174.026 141.345 173.835 141.311 173.652 141.324H142.929C141.909 141.399 141.032 142.066 140.699 143.031L133.654 165.104C133.389 165.709 133.668 166.416 134.273 166.682C134.45 166.756 134.64 166.79 134.83 166.777Z" fill="white"/>
<path opacity="0.2" d="M136 166.777H165.566C166.573 166.729 167.457 166.076 167.804 165.131L174.848 143.031C175.114 142.412 174.828 141.692 174.209 141.42C174.039 141.345 173.849 141.311 173.665 141.324H144.085C143.065 141.399 142.188 142.066 141.855 143.031L134.81 165.104C134.545 165.709 134.824 166.416 135.429 166.682C135.606 166.756 135.803 166.79 136 166.777Z" fill="white"/>
<path opacity="0.2" d="M153.966 155.04C153.585 156.509 154.319 157.706 155.604 157.706C156.89 157.706 158.229 156.509 158.61 155.04C158.991 153.571 158.256 152.374 156.978 152.374C155.7 152.374 154.36 153.592 153.966 155.04Z" fill="white"/>
<path opacity="0.2" d="M167.96 181.56L166.743 187.32C166.682 187.632 166.886 187.938 167.198 188C167.205 188 167.205 188 167.212 188L170.082 188.516C170.082 188.516 173.896 189.489 174.971 188.802C178.099 186.803 181.091 174.121 179.84 173.162C179.377 172.822 178.568 173.339 178.167 173.754C176.882 175.066 174.141 178.724 173.053 179.812C171.788 181.077 169.538 181.111 168.552 181.064C168.259 181.057 168.001 181.268 167.96 181.56Z" fill="white"/>
<path d="M102.177 159.793L92.5344 159.916L92.718 156.781L102.177 156.577V159.793Z" fill="black"/>
<path d="M121.203 156.162L124.086 156.101L125.12 159.487L121.203 159.542V156.162Z" fill="black"/>
<path d="M119.972 156.189V159.555L103.659 159.773V156.543L119.972 156.189Z" fill="black"/>
<path d="M110.575 158.97L110.527 157.658C110.486 156.958 111.017 156.352 111.717 156.298L114.668 156.176C115.002 156.162 115.321 156.291 115.559 156.522C115.804 156.767 115.947 157.1 115.96 157.447L116.008 158.753C116.042 159.453 115.512 160.058 114.811 160.113L111.867 160.235H111.812C111.132 160.208 110.588 159.657 110.575 158.97ZM114.791 159.562C115.199 159.521 115.498 159.168 115.471 158.76L115.423 157.454C115.416 157.25 115.328 157.06 115.185 156.917C115.049 156.781 114.859 156.706 114.668 156.713L111.717 156.835C111.309 156.869 111.003 157.23 111.037 157.638L111.085 158.95C111.085 159.358 111.418 159.691 111.826 159.691C111.833 159.691 111.833 159.691 111.84 159.691L114.791 159.562Z" fill="white"/>
<path d="M111.078 158.542H112.56C112.744 158.535 112.893 158.386 112.9 158.202C112.9 158.012 112.751 157.862 112.56 157.862H111.078C110.887 157.862 110.738 158.012 110.738 158.202C110.745 158.386 110.894 158.535 111.078 158.542Z" fill="white"/>
<path d="M128.044 123.896C128.044 123.896 124.324 147.417 125.881 155.856L91.4803 156.856C91.4803 156.856 95.5603 132.559 100.966 123.393C100.966 123.366 109.949 108.365 128.044 123.896Z" fill="#407BFF"/>
<path opacity="0.6" d="M128.044 123.896C128.044 123.896 124.324 147.417 125.881 155.856L91.4803 156.856C91.4803 156.856 95.5603 132.559 100.966 123.393C100.966 123.366 109.949 108.365 128.044 123.896Z" fill="white"/>
<path d="M107.862 118.66C107.862 118.66 113.567 124.236 116.865 123.325C120.163 122.414 121.4 120.734 121.4 120.734C121.4 120.734 118.748 119.571 119.041 118.939C119.075 118.871 119.156 118.742 119.272 118.551C120.258 117.055 123.753 112.282 123.753 112.282L116.273 108.072C116.273 108.072 115.661 109.521 114.913 111.248C113.9 113.546 112.635 116.328 112.193 116.844C111.418 117.756 107.862 118.66 107.862 118.66Z" fill="#E4897B"/>
<path opacity="0.2" d="M114.879 111.248C115.348 113.9 116.504 117.021 119.272 118.551C120.258 117.055 123.753 112.282 123.753 112.282L116.273 108.072C116.273 108.072 115.634 109.521 114.879 111.248Z" fill="black"/>
<path d="M113.376 106.08C112.961 107.399 112.757 108.78 112.771 110.16C112.914 111.846 111.037 112.411 110.799 111.391C110.799 111.391 110.833 113.873 112.445 113.499C112.445 113.499 112.445 115.219 113.886 115.246C115.11 113.553 115.749 111.506 115.695 109.419C115.471 106.148 113.376 106.08 113.376 106.08Z" fill="#263238"/>
<path d="M126.303 97.8112C123.855 98.8244 124.263 104.509 128.343 109.371C130.839 107.222 131.974 102.258 131.383 100.3C130.431 97.1652 128.432 96.934 126.303 97.8112Z" fill="#263238"/>
<path d="M129.88 111.649C129.662 112.302 129.404 112.934 129.105 113.553C126.691 118.47 119.748 119.428 116.674 114.566L116.64 114.519C114.6 111.241 115.369 108.188 116.219 102.891C116.824 98.8924 120.557 96.1384 124.555 96.7436C125.671 96.9136 126.725 97.3352 127.649 97.9812C131.655 100.803 131.417 107.127 129.88 111.649Z" fill="#E4897B"/>
<path d="M123.678 106.08C123.583 106.508 123.733 106.903 124.005 106.964C124.277 107.025 124.583 106.733 124.685 106.284C124.787 105.835 124.637 105.461 124.358 105.4C124.08 105.339 123.801 105.686 123.678 106.08Z" fill="#263238"/>
<path d="M128.52 107.188C128.425 107.61 128.574 108.004 128.853 108.066C129.132 108.127 129.431 107.841 129.533 107.386C129.635 106.93 129.479 106.563 129.2 106.502C128.921 106.44 128.602 106.76 128.52 107.188Z" fill="#263238"/>
<path d="M126.881 107.032C127.099 108.44 127.507 109.813 128.098 111.112C127.418 111.398 126.643 111.37 125.984 111.03L126.881 107.032Z" fill="#DE5753"/>
<path d="M122.699 104.278C122.645 104.271 122.59 104.244 122.55 104.21C122.454 104.108 122.454 103.945 122.55 103.843C123.168 103.292 124.012 103.081 124.814 103.272C124.943 103.306 125.025 103.435 124.991 103.571C124.95 103.707 124.807 103.782 124.671 103.748C124.039 103.605 123.372 103.782 122.89 104.217C122.835 104.264 122.767 104.285 122.699 104.278Z" fill="#263238"/>
<path d="M131.07 106.08C130.975 106.053 130.9 105.978 130.873 105.883C130.744 105.244 130.315 104.713 129.724 104.441C129.594 104.394 129.52 104.251 129.567 104.115C129.615 103.986 129.758 103.911 129.894 103.958C130.648 104.285 131.199 104.958 131.369 105.767C131.403 105.903 131.322 106.039 131.186 106.073C131.145 106.08 131.111 106.087 131.07 106.08Z" fill="#263238"/>
<path d="M124.977 113.642C123.508 113.499 122.244 112.533 121.713 111.153C121.686 111.051 121.747 110.949 121.842 110.922C121.944 110.894 122.046 110.949 122.08 111.051C122.08 111.126 122.638 112.853 125.038 113.268C125.14 113.288 125.208 113.383 125.195 113.485C125.174 113.587 125.079 113.655 124.977 113.642Z" fill="#263238"/>
<path d="M130.907 102.048C130.907 102.048 132.484 100.837 132.423 99.4229C132.314 97.6073 131.26 95.9753 129.649 95.1321C128.146 94.2617 126.439 93.7925 124.705 93.7721C118.68 93.4185 115.403 95.2273 114.369 98.4437C113.73 99.5861 113.744 101.708 114.315 103.693C114.315 103.707 114.315 103.714 114.315 103.727C114.621 104.863 115.158 105.917 115.886 106.842C119.558 103.659 120.924 101.402 120.346 99.9057C120.469 99.8717 122.291 98.2397 123.1 98.1989C124.27 98.1377 126.426 99.2461 128.173 100.286C129.132 100.851 130.118 99.9465 130.118 99.9465L130.907 102.048Z" fill="#263238"/>
<path d="M112.778 106.536C112.853 107.882 113.465 109.147 114.471 110.044C115.831 111.214 117.259 110.194 117.524 108.528C117.769 107.025 117.361 104.598 115.702 104.067C114.043 103.537 112.683 104.883 112.778 106.536Z" fill="#E4897B"/>
<path d="M112.771 110.112C112.771 110.112 115.001 101.442 120.516 98.2124C126.031 94.9824 131.75 97.24 131.75 97.24C131.689 96.3696 131.566 95.506 131.376 94.656C131.213 94.384 128.479 93.4456 128.479 93.4456C128.479 93.4456 126.922 91.154 124.759 90.4196C122.597 89.6852 116.137 89.4744 113.879 91.358C111.622 93.2416 110.133 97.0768 111.085 97.1448C112.037 97.2128 112.764 97.2128 112.764 97.2128C112.764 97.2128 110.983 103.367 111.744 104.292C111.751 104.285 110.432 108.569 112.771 110.112Z" fill="#628CE0"/>
<path d="M123.835 189.543C123.869 189.496 123.93 189.468 123.991 189.475C124.046 189.482 124.086 189.53 124.086 189.584C124.141 189.842 124.494 192.141 123.923 192.705C123.794 192.814 123.624 192.848 123.461 192.8C123.182 192.746 122.958 192.542 122.876 192.27C122.794 191.848 122.849 191.413 123.026 191.026C123.243 190.502 123.515 190.006 123.835 189.543ZM123.835 190.012C123.359 190.624 123.121 191.386 123.155 192.161C123.209 192.345 123.366 192.488 123.556 192.515C123.617 192.542 123.692 192.528 123.74 192.481C123.787 192.433 123.828 192.372 123.848 192.304C123.991 191.549 123.991 190.767 123.855 190.012H123.835Z" fill="#407BFF"/>
<path d="M139.053 178.289L129.574 181.438L125.018 182.954L126.072 187.925L130.471 187.088L141.209 185.035L139.053 178.289Z" fill="#E4897B"/>
<path d="M127.303 188.183L126.623 182.335C126.589 182.016 126.303 181.778 125.984 181.812C125.97 181.812 125.956 181.812 125.943 181.818L123.08 182.24C123.08 182.24 119.156 182.526 118.354 183.512C116.015 186.402 117.164 199.383 118.674 199.872C119.224 200.049 119.823 199.301 120.074 198.784C120.877 197.132 122.325 192.794 123.005 191.42C123.808 189.822 125.929 189.074 126.881 188.809C127.16 188.734 127.337 188.469 127.303 188.183Z" fill="#263238"/>
<path d="M123.855 189.502C123.896 189.468 123.964 189.468 124.005 189.502C124.093 189.502 125.65 190.182 125.916 191.087C125.99 191.311 125.97 191.563 125.848 191.767C125.773 191.984 125.562 192.12 125.338 192.1C124.658 192.012 123.896 190.4 123.821 189.679V189.604C123.814 189.564 123.828 189.53 123.855 189.502ZM125.61 191.542C125.65 191.427 125.65 191.291 125.61 191.175C125.446 190.618 124.576 190.108 124.134 189.883C124.331 190.638 124.964 191.719 125.358 191.767C125.399 191.767 125.48 191.767 125.569 191.604L125.61 191.542Z" fill="#407BFF"/>
<path opacity="0.2" d="M139.053 178.289L129.574 181.438L130.472 187.088L141.209 185.035L139.053 178.289Z" fill="black"/>
<path d="M132.117 187.966L134.824 188.217L133.205 178.867L130.098 180.499L132.117 187.966Z" fill="#407BFF"/>
<path opacity="0.6" d="M132.117 187.966L134.824 188.217L133.205 178.867L130.098 180.499L132.117 187.966Z" fill="white"/>
<path opacity="0.2" d="M127.303 188.183L126.623 182.335C126.589 182.016 126.303 181.778 125.984 181.812C125.97 181.812 125.956 181.812 125.943 181.818L123.08 182.24C123.08 182.24 119.156 182.526 118.354 183.512C116.015 186.402 117.164 199.383 118.674 199.872C119.224 200.049 119.823 199.301 120.074 198.784C120.877 197.132 122.325 192.794 123.005 191.42C123.808 189.822 125.929 189.074 126.881 188.809C127.16 188.734 127.337 188.469 127.303 188.183Z" fill="white"/>
<path d="M162.738 180.839C162.738 180.839 118.374 163.608 104.795 166.484C91.2152 169.361 91.1404 176.474 97.9948 183.104C104.849 189.734 115.172 187.184 115.172 187.184C115.172 187.184 107.086 182.342 107.651 179.35C108.215 176.358 113.356 183.199 113.356 183.199C113.356 183.199 140.162 189.754 162.316 188.027L162.738 180.839Z" fill="#263238"/>
<path d="M163.275 180.118L160.786 178.976L159.351 188.312L162.819 187.748L163.275 180.118Z" fill="#407BFF"/>
<path opacity="0.6" d="M163.275 180.118L160.786 178.976L159.351 188.312L162.819 187.748L163.275 180.118Z" fill="white"/>
<path d="M105.046 116.851C105.046 116.851 111.051 133.171 110.738 136.836C110.425 140.502 98.056 167.96 98.056 167.96L87.856 172.04C87.856 172.04 89.9572 131.709 105.046 116.851Z" fill="#407BFF"/>
<path opacity="0.2" d="M105.046 116.851C105.046 116.851 111.051 133.171 110.738 136.836C110.425 140.502 98.056 167.96 98.056 167.96L87.856 172.04C87.856 172.04 89.9572 131.709 105.046 116.851Z" fill="black"/>
<path d="M126.718 164.227C126.718 164.227 123.508 156.618 122.482 152.402C121.455 148.186 125.045 126.528 123.114 119.258L128.044 123.896L125.956 150.96L126.718 164.227Z" fill="#407BFF"/>
<path opacity="0.2" d="M126.718 164.227C126.718 164.227 123.508 156.618 122.482 152.402C121.455 148.186 125.045 126.528 123.114 119.258L128.044 123.896L125.956 150.96L126.718 164.227Z" fill="black"/>
<path d="M90.3176 152.402C90.3176 152.402 111.595 156.482 108.229 117.613L104.768 117.314C104.768 117.314 106.876 132.083 102.993 141.746C99.11 151.409 89.9572 150.96 89.9572 150.96L90.3176 152.402Z" fill="#263238"/>
<path d="M110.616 135.13L103.476 118.551L101.32 121.4C101.32 121.4 100.939 117.382 102.19 116.212C103.442 115.042 106.95 116.504 108.31 116.851C109.67 117.198 110.616 135.13 110.616 135.13Z" fill="#628CE0"/>
<path d="M121.87 119.517C121.87 119.517 124.624 127.677 124.175 140.447C123.726 153.218 126.024 152.157 126.024 152.157L126.351 150.953C126.351 150.953 125.066 150.804 125.168 146.499C125.27 142.195 125.848 124.821 124.175 120.258L121.87 119.517Z" fill="#263238"/>
<path d="M123.311 134.64C123.311 134.64 123.991 122.4 120.55 118.816C120.55 118.816 123.127 117.851 124.175 118.816C125.222 119.782 125.48 129.105 123.427 135.136" fill="#628CE0"/>
<path d="M106.032 139.645C106.032 139.645 109.147 146.873 109.847 147.88C110.548 148.886 126.045 156.04 126.045 156.04C127.303 155.863 128.574 155.863 129.832 156.04C131.743 156.339 134.375 157.141 134.592 157.447C134.81 157.753 131.716 162.268 131.716 162.268C131.716 162.268 125.521 162.649 124.753 160.228C124.753 160.228 109.222 154.462 107.42 152.952C105.618 151.443 100.64 142.453 100.64 142.453L106.032 139.645Z" fill="#E4897B"/>
<path d="M102.177 123.427C105.495 123.427 110.153 143.684 111.017 146.431C111.88 149.178 125.644 155.04 125.644 155.04L121.271 160.215C121.271 160.215 106.393 154.843 104.645 152.374C102.898 149.906 97.6004 135.85 97.3556 132.6C97.1108 129.35 99.96 123.42 102.177 123.427Z" fill="#628CE0"/>
</g>
<defs>
<clipPath id="clip0">
<rect width="340" height="253.341" fill="white"/>
</clipPath>
</defs>
</svg>
