<svg width="320" height="239" viewBox="0 0 320 239" fill="none" xmlns="http://www.w3.org/2000/svg">
<path d="M320 209.536H0V209.696H320V209.536Z" fill="#EBEBEB"/>
<path d="M71.4625 214.906H50.2657V215.066H71.4625V214.906Z" fill="#EBEBEB"/>
<path d="M104.64 219.52H85.3311V219.68H104.64V219.52Z" fill="#EBEBEB"/>
<path d="M60.8636 220.845H36.3836V221.005H60.8636V220.845Z" fill="#EBEBEB"/>
<path d="M287.936 220.499H277.76V220.659H287.936V220.499Z" fill="#EBEBEB"/>
<path d="M275.705 220.499H250.54V220.659H275.705V220.499Z" fill="#EBEBEB"/>
<path d="M179.411 214.823H160V214.983H179.411V214.823Z" fill="#EBEBEB"/>
<path d="M228.333 214.823H182.189V214.983H228.333V214.823Z" fill="#EBEBEB"/>
<path d="M151.68 180.992H28.1024C26.0864 180.986 24.4544 179.354 24.4544 177.338V3.6224C24.4736 1.6192 26.0992 0.0064 28.1024 0H151.68C153.696 0 155.334 1.6384 155.334 3.6544V177.338C155.334 179.354 153.696 180.992 151.68 180.992ZM28.1024 0.128C26.176 0.1344 24.6144 1.696 24.6144 3.6224V177.338C24.6144 179.264 26.176 180.826 28.1024 180.832H151.68C153.606 180.826 155.168 179.264 155.174 177.338V3.6224C155.168 1.696 153.606 0.1344 151.68 0.128H28.1024Z" fill="#EBEBEB"/>
<path d="M290.118 180.992H166.534C164.518 180.986 162.886 179.354 162.88 177.338V3.6224C162.899 1.6192 164.531 0.0064 166.534 0H290.118C292.122 0.0064 293.741 1.6192 293.76 3.6224V177.338C293.76 179.354 292.134 180.986 290.118 180.992ZM166.534 0.128C164.608 0.1344 163.046 1.696 163.04 3.6224V177.338C163.046 179.264 164.608 180.826 166.534 180.832H290.118C292.045 180.826 293.606 179.264 293.613 177.338V3.6224C293.606 1.696 292.045 0.1344 290.118 0.128H166.534Z" fill="#EBEBEB"/>
<path d="M267.085 129.05H243.245V209.536H267.085V129.05Z" fill="#E6E6E6"/>
<path d="M263.123 209.536H267.085V202.291H258.957L263.123 209.536Z" fill="#F0F0F0"/>
<path d="M170.042 129.05H146.202V209.536H170.042V129.05Z" fill="#E6E6E6"/>
<path d="M267.091 129.05H166.586V206.752H267.091V129.05Z" fill="#F0F0F0"/>
<path d="M264.013 132.493H169.664V153.805H264.013V132.493Z" fill="#E6E6E6"/>
<path d="M221.293 139.117H212.378C208.538 139.117 204.807 136.486 202.138 131.846H231.52C228.864 136.486 225.165 139.117 221.293 139.117Z" fill="#F0F0F0"/>
<path d="M170.553 209.536H166.586V202.291H174.713L170.553 209.536Z" fill="#F0F0F0"/>
<path d="M264.013 157.248H169.664V178.56H264.013V157.248Z" fill="#E6E6E6"/>
<path d="M221.293 163.84H212.378C208.538 163.84 204.807 161.216 202.138 156.57H231.52C228.864 161.242 225.165 163.84 221.293 163.84Z" fill="#F0F0F0"/>
<path d="M264.013 182.003H169.664V203.315H264.013V182.003Z" fill="#E6E6E6"/>
<path d="M221.293 188.621H212.378C208.538 188.621 204.807 185.99 202.138 181.35H231.52C228.864 185.99 225.165 188.621 221.293 188.621Z" fill="#F0F0F0"/>
<path d="M277.945 24.6719H174.995V74.6431H277.945V24.6719Z" fill="#F0F0F0"/>
<path d="M281.657 24.6719H176.729V74.6431H281.657V24.6719Z" fill="#F5F5F5"/>
<path d="M276.467 28.832H181.926V70.4896H276.467V28.832Z" fill="white"/>
<path d="M246.758 111.398C248.614 92.1981 249.901 60.9789 248.902 50.5469C248.864 50.1821 248.672 49.8557 248.378 49.6445C247.808 49.2285 247.008 49.3501 246.586 49.9197C246.419 50.1501 246.33 50.4317 246.342 50.7197C246.515 55.8909 246.72 68.8125 245.619 91.1037C245.069 102.195 244.282 109.792 244.826 111.398H246.758Z" fill="#F0F0F0"/>
<path d="M252.077 70.0542C256.313 64.6014 265.081 60.2878 274.067 59.6286C277.593 59.3662 263.424 66.3998 257.587 73.427C253.062 78.8798 247.987 87.8654 246.297 92.7678C247.289 82.6494 247.833 75.5198 252.077 70.0542Z" fill="#F0F0F0"/>
<path d="M243.2 68.8767C238.816 62.7711 228.691 58.0671 217.734 57.5359C213.434 57.3311 229.798 64.9983 235.904 72.8575C240.646 78.9567 245.504 89.0687 246.848 94.6175C247.174 83.1103 247.59 74.9887 243.2 68.8767Z" fill="#F0F0F0"/>
<path d="M251.783 52.0833C255.13 47.5329 262.522 43.7953 270.343 43.0337C273.415 42.7329 261.472 48.7937 256.839 54.6945C253.236 59.2513 249.408 66.7073 248.256 70.7457C248.448 62.4705 248.442 56.6337 251.783 52.0833Z" fill="#F0F0F0"/>
<path d="M245.043 53.0179C241.325 47.8403 232.755 43.8659 223.475 43.4179C219.834 43.2451 233.715 49.7347 238.835 56.3907C242.855 61.5555 246.976 70.1187 248.109 74.8163C248.403 65.0627 248.755 58.1891 245.043 53.0179Z" fill="#F0F0F0"/>
<path d="M249.536 90.5857C251.955 87.1553 257.388 84.2689 263.193 83.5777C265.472 83.3089 256.691 88.0129 253.337 92.4481C250.732 95.8913 248 101.485 247.206 104.499C247.212 98.3489 247.123 94.0161 249.536 90.5857Z" fill="#F0F0F0"/>
<path d="M245.12 88.653C243.021 85.2482 237.824 82.3746 232.032 81.6834C229.754 81.4146 238.15 86.093 241.101 90.4898C243.386 93.9074 245.581 99.4498 246.093 102.445C246.72 96.3522 247.245 92.0578 245.12 88.653Z" fill="#F0F0F0"/>
<path d="M245.971 129.049C250.598 129.049 254.419 128.083 254.682 123.468L255.456 110.112H236.493L237.267 123.468C237.53 128.083 241.35 129.049 245.971 129.049Z" fill="#E6E6E6"/>
<path d="M236.601 113.152H255.36C256.121 113.152 256.755 112.576 256.838 111.821L257.126 109.261C257.216 108.442 256.621 107.699 255.795 107.61C255.744 107.603 255.693 107.603 255.641 107.603H236.32C235.494 107.603 234.822 108.275 234.829 109.107C234.829 109.158 234.829 109.21 234.835 109.261L235.117 111.821C235.2 112.576 235.84 113.152 236.601 113.152Z" fill="#F0F0F0"/>
<path d="M176.16 129.049H163.584L167.309 101.485H176.16V129.049Z" fill="#E6E6E6"/>
<path d="M194.618 129.049H170.784L166.343 96.787H190.183L194.618 129.049Z" fill="#F0F0F0"/>
<path d="M197.798 129.049H172.998L168.563 96.787H193.363L197.798 129.049Z" fill="#F5F5F5"/>
<path d="M175.187 126.509L171.45 99.3282H191.168L194.906 126.509H175.187Z" fill="white"/>
<path d="M186.304 120.237H181.607C180.762 120.237 180.045 119.616 179.93 118.778L178.381 107.52C178.311 107.034 178.458 106.547 178.778 106.176C179.104 105.811 179.572 105.6 180.058 105.6H184.756C185.6 105.6 186.317 106.221 186.432 107.059L187.981 118.317C188.109 119.238 187.463 120.096 186.535 120.224C186.458 120.231 186.381 120.237 186.304 120.237ZM180.544 118.688C180.615 119.206 181.063 119.597 181.588 119.597H186.285C186.586 119.597 186.88 119.469 187.079 119.238C187.277 119.008 187.367 118.701 187.328 118.4L185.78 107.149C185.709 106.63 185.261 106.24 184.736 106.24H180.039C179.732 106.24 179.444 106.368 179.245 106.598C179.04 106.822 178.951 107.13 178.996 107.43L180.544 118.688Z" fill="#F5F5F5"/>
<path d="M135.36 23.2H40.3967V123.411H135.36V23.2Z" fill="#E6E6E6"/>
<path d="M145.542 19.9554H34.2529C33.7345 19.9554 33.3121 20.3778 33.3121 20.8962V20.9026C33.3121 21.421 33.7345 21.8434 34.2529 21.8434H145.542C146.061 21.8434 146.483 21.421 146.483 20.9026C146.49 20.3842 146.067 19.9618 145.549 19.9554C145.549 19.9554 145.542 19.9554 145.542 19.9554Z" fill="#E6E6E6"/>
<path d="M139.399 23.2H42.2851V123.411H139.399V23.2Z" fill="#F0F0F0"/>
<path d="M133.754 28.8446H47.9231V117.773H133.754V28.8446Z" fill="#FAFAFA"/>
<path d="M67.405 117.773L100.519 28.8384H116.147L83.0402 117.773H67.405Z" fill="white"/>
<path d="M86.394 117.773L119.508 28.8384H125.6L92.4868 117.773H86.394Z" fill="white"/>
<path d="M133.753 28.8384H133.037V117.766H133.753V28.8384Z" fill="#E6E6E6"/>
<g opacity="0.6">
<path opacity="0.6" d="M45.5938 161.965H33.6706L35.5586 18.2722H47.4882L45.5938 161.965Z" fill="#F0F0F0"/>
<path opacity="0.6" d="M50.2405 161.965H40.9477L42.8421 18.2717H52.1285L50.2405 161.965Z" fill="#E6E6E6"/>
<path opacity="0.6" d="M57.5172 161.965H45.594L47.4884 18.2717H59.4116L57.5172 161.965Z" fill="#F0F0F0"/>
<path opacity="0.6" d="M62.1638 161.965H52.871L54.7654 18.2717H64.0582L62.1638 161.965Z" fill="#E6E6E6"/>
<path opacity="0.6" d="M69.4401 161.965H57.5169L59.4113 18.2717H71.3345L69.4401 161.965Z" fill="#F0F0F0"/>
</g>
<g opacity="0.6">
<path opacity="0.6" d="M137.426 161.965H144.165L145.068 18.2717H138.329L137.426 161.965Z" fill="#F0F0F0"/>
<path opacity="0.6" d="M134.803 161.965H140.051L140.96 18.2717H135.705L134.803 161.965Z" fill="#E6E6E6"/>
<path opacity="0.6" d="M130.688 161.965H137.427L138.329 18.2717H131.59L130.688 161.965Z" fill="#F0F0F0"/>
<path opacity="0.6" d="M128.063 161.965H133.311L134.22 18.2717H128.966L128.063 161.965Z" fill="#E6E6E6"/>
<path opacity="0.6" d="M123.949 161.965H130.688L131.591 18.2722H124.851L123.949 161.965Z" fill="#F0F0F0"/>
</g>
<path d="M160 238.439C228.533 238.439 284.09 235.195 284.09 231.194C284.09 227.193 228.533 223.949 160 223.949C91.4676 223.949 35.9108 227.193 35.9108 231.194C35.9108 235.195 91.4676 238.439 160 238.439Z" fill="#F5F5F5"/>
<path d="M182.157 40.8254C178.317 35.6286 179.207 31.091 182.157 27.827C185.837 23.731 191.847 23.763 195.853 25.8558C202.125 29.1262 203.475 43.4558 192.999 45.4782C189.28 44.179 185.658 42.6238 182.157 40.8254Z" fill="#263238"/>
<path d="M194.63 26.7583C198.47 24.4991 197.402 20.1151 200.87 17.7983C205.696 14.5983 216.096 15.9871 212.845 23.9871C209.594 31.9871 221.165 32.4479 217.805 40.3967C214.445 48.3455 204.685 53.1967 202.176 41.6767C200.301 33.0431 208.269 21.9199 201.837 23.1167C197.824 23.8591 196.486 27.9871 196.486 27.9871L194.63 26.7583Z" fill="#263238"/>
<path d="M185.088 60.6397C184.563 62.0925 183.993 63.4109 183.385 64.7741C182.777 66.1373 182.105 67.4493 181.401 68.7613C179.987 71.5133 178.201 74.0669 176.108 76.3453C175.507 76.9853 174.854 77.5613 174.144 78.0797C173.446 78.5789 172.697 79.0077 171.916 79.3597C170.476 80.0061 168.979 80.4989 167.436 80.8445C164.518 81.5165 161.536 81.8429 158.54 81.8109C157.772 81.7981 157.164 81.1645 157.177 80.3965C157.19 79.7757 157.612 79.2317 158.214 79.0781H158.278C160.953 78.4509 163.59 77.6573 166.169 76.7037C167.379 76.2493 168.556 75.6989 169.676 75.0589C170.176 74.7709 170.649 74.4445 171.097 74.0797C171.526 73.7213 171.929 73.3181 172.288 72.8893C173.113 71.9165 173.856 70.8733 174.508 69.7789C175.2 68.6461 175.865 67.4749 176.48 66.2525C177.696 63.8333 178.848 61.2477 179.84 58.7645V58.7261C180.39 57.2861 181.996 56.5693 183.436 57.1197C184.876 57.6701 185.593 59.2765 185.043 60.7165L185.088 60.6397Z" fill="#B55B52"/>
<path d="M184.255 55.9038C178.969 56.5054 176.057 64.435 176.057 64.435L181.471 72.0638C181.471 72.0638 187.871 64.8126 188.428 61.5742C188.985 58.2398 188.159 55.4494 184.255 55.9038Z" fill="#263238"/>
<path opacity="0.2" d="M181.363 60.7553C183.136 59.6417 185.068 60.2561 186.713 62.3233C187.052 62.9185 187.283 63.5649 187.385 64.2433C185.785 67.1425 181.465 72.0577 181.465 72.0577L178.988 68.5697C178.803 66.5089 180.217 61.4401 181.363 60.7553Z" fill="black"/>
<path d="M159.507 79.3599L155.52 77.2095L155.411 82.4063C155.411 82.4063 158.074 82.9823 159.834 81.5615L159.507 79.3599Z" fill="#B55B52"/>
<path d="M151.519 77.3887L152.217 81.6319L155.436 82.4063L155.545 77.2095L151.519 77.3887Z" fill="#B55B52"/>
<path d="M171.616 68.0383L168.121 65.1711L144.313 100.941L147.84 103.808C151.859 107.098 160.441 101.76 167.04 91.8783C173.638 81.9967 175.635 71.3279 171.616 68.0383Z" fill="#407BFF"/>
<path d="M171.616 68.0383L168.121 65.1711L144.313 100.941L147.84 103.808C151.859 107.098 160.441 101.76 167.04 91.8783C173.638 81.9967 175.635 71.3279 171.616 68.0383Z" fill="#AB8416"/>
<path d="M164.115 88.0432C170.466 78.0036 172.079 67.6283 167.718 64.8695C163.357 62.1107 154.673 68.013 148.322 78.0526C141.971 88.0923 140.358 98.4676 144.719 101.226C149.08 103.985 157.764 98.0829 164.115 88.0432Z" fill="#E9B523"/>
<path d="M151.802 88.9213L155.002 84.0957C154.675 83.1037 154.662 82.0413 154.957 81.0429C155.322 79.7821 155.891 78.5917 156.64 77.5165C157.312 76.4285 158.195 75.4877 159.238 74.7389C160.128 74.1501 160.89 74.0093 161.51 74.3165L162.291 73.1517L162.97 73.7085L162.202 74.8797C162.624 75.5389 162.752 76.3453 162.56 77.1005C162.31 78.2269 161.882 79.3085 161.28 80.3005L159.84 79.7117C160.288 79.0269 160.512 78.2205 160.48 77.4077L157.478 81.8877C157.894 82.9053 157.978 84.0189 157.722 85.0877C156.909 87.6477 155.347 89.9005 153.242 91.5709C152.269 92.2429 151.405 92.4413 150.65 92.1533L149.875 93.3181L149.197 92.7613L149.933 91.6541C149.472 90.8861 149.35 89.9581 149.606 89.0941C149.952 87.6669 150.522 86.3037 151.296 85.0557L152.768 85.7597C152.442 86.3357 152.179 86.9437 151.987 87.5773C151.846 88.0125 151.782 88.4669 151.802 88.9213ZM159.853 76.7997C159.494 76.8317 159.162 76.9853 158.893 77.2221C158.15 77.8365 157.6 78.6493 157.312 79.5709C157.178 79.9613 157.146 80.3773 157.203 80.7869L159.853 76.7997ZM152.378 89.5997C152.774 89.6573 153.178 89.5357 153.478 89.2669C154.394 88.5565 155.066 87.5773 155.398 86.4637C155.526 86.0157 155.514 85.5485 155.366 85.1069L152.378 89.5997Z" fill="white"/>
<path opacity="0.1" d="M167.072 77.043C167.546 73.907 167.072 71.3918 165.587 70.1566C162.317 67.475 155.347 71.827 149.965 79.8718C147.699 83.187 146.035 86.867 145.03 90.7518C145.581 87.0782 147.405 82.5534 150.291 78.2078C155.648 70.163 162.643 65.8174 165.914 68.4926C167.68 69.9326 168 73.139 167.072 77.043Z" fill="black"/>
<path d="M213.472 196.358L208.096 196.87L205.357 184.345L210.733 183.833L213.472 196.358Z" fill="#B55B52"/>
<path d="M243.418 188.614L238.419 190.573L233.6 178.694L238.598 176.736L243.418 188.614Z" fill="#B55B52"/>
<path d="M236.966 188.115L242.444 185.389C242.636 185.293 242.873 185.35 243.001 185.529L245.779 189.555C246.048 189.958 245.945 190.502 245.542 190.771C245.51 190.797 245.472 190.816 245.433 190.835C243.513 191.757 242.668 192.211 240.256 193.395C238.771 194.131 235.462 195.865 233.414 196.883C231.366 197.901 230.252 195.929 231.014 195.321C234.425 192.601 235.552 190.547 236.3 188.825C236.435 188.518 236.665 188.269 236.966 188.115Z" fill="#263238"/>
<path d="M207.047 194.08H213.511C213.747 194.08 213.952 194.24 214.016 194.47L215.424 199.59C215.546 200.013 215.303 200.461 214.88 200.582C214.803 200.608 214.72 200.614 214.637 200.614C212.378 200.576 211.296 200.614 208.455 200.614H199.776C197.415 200.614 196.896 198.221 197.856 198.009C202.24 197.037 204.768 195.699 206.119 194.425C206.368 194.195 206.701 194.067 207.047 194.08Z" fill="#263238"/>
<path opacity="0.2" d="M205.363 184.352L206.771 190.803H212.262L210.739 183.833L205.363 184.352Z" fill="black"/>
<path opacity="0.2" d="M238.598 176.743L233.6 178.701L236.09 184.819L241.082 182.861L238.598 176.743Z" fill="black"/>
<path d="M200.666 50.4958C204.941 50.003 207.706 52.0382 207.898 56.307C208.461 71.3534 210.125 74.8158 212.64 82.5982L191.322 88.531C183.744 72.1214 181.082 64.3838 180.237 60.7422C179.879 59.0014 180.717 57.235 182.298 56.4222C187.975 53.2606 194.215 51.2446 200.666 50.4958Z" fill="#263238"/>
<path d="M194.182 40.4098C194.438 43.693 195.289 49.3698 198.022 50.8738C198.022 50.8738 197.619 52.9026 190.553 59.6674C186.195 55.9938 188.422 53.5298 188.422 53.5298C191.667 51.7314 190.905 49.389 189.625 47.1298L194.182 40.4098Z" fill="#B55B52"/>
<path opacity="0.2" d="M193.689 41.1454C194.156 43.0142 194.22 44.9534 193.881 46.8478C193.638 48.1278 192.243 49.1006 190.681 49.6574C190.47 48.7678 190.118 47.9166 189.644 47.1358L193.689 41.1454Z" fill="black"/>
<path d="M195.437 34.208C196.48 39.5136 197.037 41.7344 195.104 45.088C192.192 50.1568 185.446 50.2848 182.835 45.3952C180.486 40.9984 179.168 33.0624 183.738 29.6448C186.995 27.1936 191.616 27.84 194.074 31.0976C194.765 32.0128 195.232 33.0816 195.437 34.208Z" fill="#B55B52"/>
<path d="M198.208 37.4399C198.368 38.4703 198.106 39.5263 197.478 40.3647C196.646 41.4719 195.392 40.9343 194.918 39.7247C194.496 38.6239 194.413 36.7167 195.59 36.0511C196.448 35.5775 197.53 35.8975 197.997 36.7551C198.112 36.9663 198.182 37.1967 198.208 37.4399Z" fill="#B55B52"/>
<path d="M190.784 31.3983C190.586 33.4271 192.212 36.8959 195.264 37.7023C198.426 34.0671 196.34 29.0815 193.434 28.9791C190.528 28.8767 190.784 31.3983 190.784 31.3983Z" fill="#263238"/>
<path d="M186.522 25.8687C181.856 26.0799 176.851 28.1599 178.586 35.4687C182.656 34.6175 193.984 33.3503 194.854 30.4447C193.709 26.7135 189.581 25.7279 186.522 25.8687Z" fill="#263238"/>
<path d="M191.321 88.5311C191.321 88.5311 190.079 131.59 193.542 147.84C197.132 164.749 205.241 188.915 205.241 188.915L212.857 188.422C212.857 188.422 207.935 156.826 206.457 143.789C204.371 125.818 206.963 84.1727 206.963 84.1727L191.321 88.5311Z" fill="#407BFF"/>
<path opacity="0.2" d="M202.048 101.997C202.393 98.093 205.337 98.8418 205.996 104.128C205.708 112.448 205.503 122.106 205.67 130.56C202.495 124.359 201.26 110.88 202.048 101.997Z" fill="black"/>
<path d="M213.824 188.915L204.652 189.536L203.379 185.235L213.305 184.185L213.824 188.915Z" fill="#263238"/>
<path d="M198.842 86.4384C198.842 86.4384 205.332 122.534 214.144 141.958C221.261 157.645 234.157 182.918 234.157 182.918L241.152 180.301C241.152 180.301 230.215 151.61 226.26 140.576C216.41 113.056 221.78 96.352 212.64 82.5984L198.842 86.4384Z" fill="#407BFF"/>
<path d="M241.978 180.966L233.908 183.776L231.61 179.641L241.216 177.261L241.978 180.966Z" fill="#263238"/>
<path d="M212.608 81.28L214.106 82.9248C214.221 83.0528 214.106 83.2512 213.837 83.3152L191.482 89.5424C191.29 89.5936 191.104 89.5424 191.059 89.4272L190.336 87.5712C190.285 87.4432 190.419 87.2832 190.63 87.2256L212.218 81.216C212.352 81.1648 212.499 81.1904 212.608 81.28Z" fill="#263238"/>
<path d="M210.381 84.4797L210.963 84.3133C211.078 84.2813 211.149 84.1981 211.117 84.1277L210.157 81.7277C210.157 81.6573 210.016 81.6253 209.901 81.6573L209.318 81.8173C209.203 81.8173 209.133 81.9325 209.158 82.0029L210.125 84.4093C210.15 84.4797 210.265 84.5117 210.381 84.4797Z" fill="#407BFF"/>
<path d="M193.165 89.267L193.747 89.107C193.856 89.107 193.933 88.9918 193.901 88.9214L192.941 86.5214C192.941 86.451 192.794 86.419 192.679 86.451L192.103 86.611C191.987 86.611 191.917 86.7262 191.943 86.7966L192.903 89.203C192.935 89.2734 193.05 89.299 193.165 89.267Z" fill="#407BFF"/>
<path d="M201.772 86.8737L202.355 86.7137C202.47 86.6817 202.54 86.5984 202.508 86.528L201.548 84.1217C201.548 84.0513 201.401 84.0193 201.286 84.0513L200.71 84.2113C200.595 84.2113 200.524 84.3329 200.55 84.4033L201.516 86.8033C201.542 86.8737 201.657 86.9057 201.772 86.8737Z" fill="#407BFF"/>
<path d="M187.898 37.7598C188.007 38.1886 187.898 38.5918 187.597 38.6622C187.296 38.7326 187.002 38.451 186.893 38.0222C186.784 37.5934 186.893 37.1966 187.194 37.1198C187.495 37.043 187.789 37.3182 187.898 37.7598Z" fill="#263238"/>
<path d="M183.092 39.0015C183.207 39.4239 183.092 39.8271 182.791 39.9039C182.49 39.9807 182.196 39.6863 182.087 39.2639C181.978 38.8415 182.087 38.4319 182.388 38.3615C182.689 38.2911 182.983 38.5727 183.092 39.0015Z" fill="#263238"/>
<path d="M182.515 38.3549L181.421 38.3229C181.421 38.3229 182.15 38.9885 182.515 38.3549Z" fill="#263238"/>
<path d="M184.557 39.3984C184.429 40.4672 184.16 41.5168 183.751 42.5088C184.269 42.7072 184.852 42.6688 185.338 42.3936L184.557 39.3984Z" fill="#A02724"/>
<path d="M187.219 43.6798C187.168 43.6734 187.13 43.635 187.117 43.5838C187.098 43.5198 187.136 43.4494 187.2 43.4302H187.206C188.288 43.1742 189.178 42.419 189.606 41.395C189.626 41.3246 189.696 41.2862 189.766 41.3118H189.773C189.837 41.3374 189.875 41.4078 189.856 41.4718C189.408 42.579 188.454 43.3982 187.296 43.6798C187.27 43.6862 187.245 43.6862 187.219 43.6798Z" fill="#263238"/>
<path d="M188.838 35.8399C188.793 35.8335 188.749 35.8143 188.717 35.7823C188.211 35.3599 187.533 35.2063 186.899 35.3727C186.765 35.4175 186.617 35.3407 186.573 35.2063C186.521 35.0783 186.592 34.9311 186.72 34.8863C186.726 34.8863 186.726 34.8799 186.733 34.8799C187.539 34.6623 188.397 34.8479 189.037 35.3791C189.145 35.4751 189.158 35.6415 189.069 35.7503C189.011 35.8143 188.928 35.8463 188.838 35.8399Z" fill="#263238"/>
<path d="M180.23 37.3632H180.179C180.044 37.3184 179.974 37.1712 180.019 37.0368C180.275 36.2432 180.895 35.6224 181.689 35.3728C181.823 35.3344 181.964 35.4176 182.003 35.552C182.003 35.552 182.003 35.552 182.003 35.5584C182.035 35.6992 181.951 35.84 181.811 35.872C181.196 36.0832 180.716 36.576 180.531 37.2032C180.486 37.3248 180.358 37.3952 180.23 37.3632Z" fill="#263238"/>
<path d="M205.28 60.5696C203.616 64 201.888 67.3664 200.064 70.7136C199.155 72.3904 198.246 74.0672 197.28 75.7184C196.313 77.3696 195.36 79.0272 194.214 80.6848C193.952 81.0944 193.625 81.5296 193.318 81.9648L193.203 82.1184L193.145 82.2016L193.049 82.3232C192.915 82.4896 192.78 82.6304 192.646 82.7712C192.403 83.0208 192.14 83.2512 191.859 83.456C190.937 84.128 189.932 84.6848 188.876 85.1136C187.008 85.8688 185.081 86.4704 183.116 86.9184C179.353 87.7888 175.532 88.384 171.686 88.704L171.251 85.9776C173.036 85.504 174.854 85.0048 176.64 84.4864C178.425 83.968 180.198 83.4176 181.926 82.816C183.609 82.2464 185.254 81.5744 186.848 80.7936C187.52 80.4608 188.153 80.0576 188.736 79.584C188.832 79.5072 188.921 79.4176 188.998 79.3216C189.024 79.296 189.043 79.264 189.062 79.232L189.203 79.0144C189.427 78.6624 189.657 78.3296 189.888 77.9328C190.796 76.4032 191.692 74.7648 192.563 73.1264L195.155 68.1536L200.275 58.1184L205.28 60.5696Z" fill="#B55B52"/>
<path d="M173.005 86.0033L169.235 84.5569L169.555 89.8753C169.555 89.8753 172.519 89.8753 173.888 88.0513L173.005 86.0033Z" fill="#B55B52"/>
<path d="M166.272 84.7105L165.465 88.6209L169.555 89.8753L169.235 84.5569L166.272 84.7105Z" fill="#B55B52"/>
<path d="M200.64 53.2481C198.534 54.2145 196.09 62.9633 196.09 62.9633L205.21 64.0001C205.21 64.0001 206.976 59.7505 206.618 57.5681C206.08 54.0801 203.04 52.1473 200.64 53.2481Z" fill="#263238"/>
<path d="M234.24 189.677C234.202 189.619 234.176 189.549 234.157 189.485C234.099 189.337 234.118 189.171 234.221 189.049C234.662 188.512 236.621 188.729 236.838 188.755C236.89 188.761 236.934 188.793 236.947 188.845C236.966 188.896 236.947 188.947 236.909 188.979C236.352 189.446 235.315 190.195 234.65 190.003C234.47 189.958 234.323 189.837 234.24 189.677ZM236.499 188.979C235.712 188.915 234.656 188.928 234.419 189.209C234.381 189.273 234.381 189.344 234.419 189.408C234.458 189.574 234.579 189.709 234.739 189.76C235.091 189.862 235.744 189.574 236.512 188.979H236.499Z" fill="#407BFF"/>
<path d="M234.72 187.91C234.695 187.866 234.675 187.814 234.663 187.763C234.605 187.558 234.701 187.347 234.887 187.245C235.053 187.136 235.264 187.104 235.456 187.162C236.218 187.366 236.922 188.768 236.954 188.826C236.979 188.864 236.979 188.915 236.954 188.954C236.928 188.992 236.883 189.011 236.839 189.011C236.026 188.909 235.271 188.518 234.72 187.91ZM236.583 188.685C236.32 188.224 235.834 187.526 235.386 187.405C235.264 187.366 235.136 187.386 235.034 187.456C234.893 187.546 234.893 187.629 234.912 187.686C235.008 188.058 235.955 188.576 236.602 188.71L236.583 188.685Z" fill="#407BFF"/>
<path d="M204.16 195.142C203.712 195.181 203.264 195.072 202.88 194.841C202.675 194.694 202.554 194.457 202.554 194.201C202.535 194.061 202.599 193.926 202.714 193.849C203.296 193.453 205.498 194.451 205.914 194.656C205.965 194.681 205.997 194.733 205.991 194.79C205.984 194.848 205.939 194.886 205.888 194.899C205.325 195.04 204.743 195.123 204.16 195.142ZM203.13 194.029C203.04 194.022 202.951 194.041 202.874 194.086C202.874 194.086 202.823 194.131 202.829 194.208C202.835 194.381 202.912 194.534 203.053 194.637C203.431 194.925 204.333 194.963 205.485 194.745C204.749 194.387 203.962 194.144 203.149 194.029H203.13Z" fill="#407BFF"/>
<path d="M205.92 194.925H205.869C205.139 194.63 203.667 193.446 203.75 192.838C203.75 192.704 203.859 192.537 204.192 192.499C205.472 192.345 206.022 194.681 206.048 194.777C206.054 194.822 206.042 194.873 206.003 194.905C205.978 194.918 205.952 194.925 205.92 194.925ZM204.314 192.736H204.224C204.09 192.736 204.019 192.793 204.006 192.857C203.962 193.209 204.979 194.137 205.722 194.547C205.549 193.99 205.088 192.736 204.314 192.736Z" fill="#407BFF"/>
<path d="M187.322 37.12H186.221C186.221 37.12 186.957 37.76 187.322 37.12Z" fill="#263238"/>
<path d="M189.836 200.621H224.857C225.356 200.621 225.766 201.03 225.766 201.529V204.486H188.934V201.529C188.934 201.03 189.337 200.627 189.836 200.621Z" fill="#263238"/>
<path d="M226.08 214.272H189.248V218.131H226.08V214.272Z" fill="#263238"/>
<path opacity="0.5" d="M226.08 214.272H201.728V218.131H226.08V214.272Z" fill="black"/>
<path d="M205.273 204.48L201.132 230.4C201.062 230.842 200.684 231.162 200.236 231.168H198.208C197.708 231.168 197.299 230.758 197.299 230.259C197.299 230.214 197.305 230.163 197.312 230.118L201.414 204.454L205.273 204.48Z" fill="#263238"/>
<path opacity="0.5" d="M205.273 204.48L204.96 206.451H201.094L201.414 204.48H205.273Z" fill="black"/>
<path d="M192.793 204.48L188.652 230.4C188.582 230.842 188.204 231.162 187.756 231.168H185.728C185.228 231.168 184.819 230.758 184.819 230.259C184.819 230.214 184.825 230.163 184.832 230.118L188.934 204.454L192.793 204.48Z" fill="#263238"/>
<path d="M229.863 230.144L225.767 204.48H221.927L226.049 230.4C226.119 230.842 226.497 231.168 226.945 231.168H228.967C229.466 231.168 229.876 230.758 229.869 230.253C229.869 230.214 229.869 230.183 229.863 230.144Z" fill="#263238"/>
<path opacity="0.5" d="M226.08 206.451L225.767 204.48H221.901L222.215 206.451H226.08Z" fill="black"/>
<path d="M217.383 230.144L213.287 204.48H209.447L213.569 230.4C213.639 230.842 214.017 231.168 214.465 231.168H216.487C216.986 231.168 217.396 230.758 217.389 230.253C217.389 230.214 217.389 230.183 217.383 230.144Z" fill="#263238"/>
<path opacity="0.5" d="M217.383 230.144L213.287 204.48H209.447L213.569 230.4C213.639 230.842 214.017 231.168 214.465 231.168H216.487C216.986 231.168 217.396 230.758 217.389 230.253C217.389 230.214 217.389 230.183 217.383 230.144Z" fill="black"/>
<path opacity="0.5" d="M201.414 200.621H224.857C225.356 200.621 225.766 201.03 225.766 201.529V204.486H201.446V200.646L201.414 200.621Z" fill="black"/>
<path d="M93.2996 227.667L98.426 218.259L80.09 202.189L78.6564 227.667H93.2996Z" fill="#407BFF"/>
<path d="M93.2996 227.667L98.426 218.259L80.09 202.189L78.6564 227.667H93.2996Z" fill="#FF9B9B"/>
<path d="M156.493 120.461C166.778 113.421 175.393 114.144 178.253 116.199C181.114 118.253 172.026 133.856 172.026 133.856C165.146 131.859 159.482 126.97 156.493 120.461Z" fill="#FFA7A7"/>
<path opacity="0.2" d="M161.389 127.533C167.181 121.843 173.088 120.019 174.688 120.973C176.288 121.926 171.149 132.896 171.149 132.896C171.149 132.896 164.205 133.894 161.389 127.533Z" fill="black"/>
<path d="M67.1299 142.528L66.5475 142.234C68.1539 139.072 70.0483 136.058 72.1987 133.235L72.7171 133.632C70.5923 136.422 68.7235 139.405 67.1299 142.528Z" fill="#FF9B9B"/>
<path d="M64.0829 149.76L63.4429 149.549C63.9293 148.122 64.4797 146.694 65.0813 145.312L65.6829 145.574C65.1069 146.931 64.5629 148.339 64.0829 149.76Z" fill="#FF9B9B"/>
<path d="M183.751 167.52C183.751 199.296 159.827 225.05 125.293 225.05C90.7586 225.05 62.765 199.296 62.765 167.52C62.765 135.744 90.7586 109.99 125.293 109.99C159.827 109.99 183.751 135.744 183.751 167.52Z" fill="#FFA7A7"/>
<path opacity="0.1" d="M116.96 218.957L114.457 224.192C116.268 224.486 118.105 224.697 119.968 224.832L116.96 218.957Z" fill="black"/>
<path d="M113.171 231.194L120.365 218.259L97.3567 209.85L94.4127 231.194H113.171Z" fill="#FFA7A7"/>
<path d="M146.682 231.194L140.448 218.259L162.355 209.85L163.808 231.194H146.682Z" fill="#FFA7A7"/>
<path opacity="0.2" d="M162.419 175.834C162.419 184.435 154.816 191.405 145.466 191.405C136.115 191.405 128.544 184.435 128.544 175.834C128.544 167.232 136.122 160.262 145.466 160.262C154.81 160.262 162.419 167.232 162.419 175.834Z" fill="black"/>
<path opacity="0.2" d="M139.846 180.928C141.433 180.928 142.72 178.533 142.72 175.578C142.72 172.623 141.433 170.227 139.846 170.227C138.259 170.227 136.973 172.623 136.973 175.578C136.973 178.533 138.259 180.928 139.846 180.928Z" fill="black"/>
<path opacity="0.4" d="M119.296 146.79C120.122 149.305 119.36 152.051 117.6 152.915C115.84 153.779 113.76 152.435 112.915 149.92C112.071 147.405 112.845 144.659 114.605 143.795C116.365 142.931 118.471 144.269 119.296 146.79Z" fill="black"/>
<path opacity="0.4" d="M163.841 146.906C163.201 149.421 163.988 152.134 165.575 152.96C167.162 153.786 168.954 152.416 169.581 149.894C170.209 147.373 169.434 144.666 167.847 143.84C166.26 143.014 164.481 144.384 163.841 146.906Z" fill="black"/>
<path opacity="0.2" d="M155.136 180.928C156.723 180.928 158.01 178.533 158.01 175.578C158.01 172.623 156.723 170.227 155.136 170.227C153.549 170.227 152.262 172.623 152.262 175.578C152.262 178.533 153.549 180.928 155.136 180.928Z" fill="black"/>
<path d="M107.015 119.936C95.8723 110.707 85.8947 109.99 82.4515 111.667C79.0083 113.344 87.9619 131.437 87.9619 131.437C87.9619 131.437 100.186 130.72 107.015 119.936Z" fill="#FFA7A7"/>
<path opacity="0.2" d="M100.742 126.579C94.6305 119.539 88.0257 116.608 86.0993 117.338C84.1729 118.067 89.0561 130.56 89.0561 130.56C89.0561 130.56 96.9281 132.826 100.742 126.579Z" fill="black"/>
<path opacity="0.4" d="M129.517 114.995H138.931C138.931 114.995 136.883 112.743 129.933 112.058C125.997 111.738 122.035 111.955 118.157 112.698C118.157 112.698 125.914 112.525 129.517 114.995Z" fill="black"/>
</svg>
