<svg xmlns="http://www.w3.org/2000/svg" width="311.458" height="89.5" viewBox="0 0 311.458 89.5"><g transform="translate(-0.002 -0.015)"><path d="M104.183,19.458A32.036,32.036,0,0,0,92.78,5.372C77.111-5.144,57.34,2.191,53.575,7.317,49.816,2.191,30.038-5.144,14.369,5.376a32.017,32.017,0,0,0-11.4,14.086A34.018,34.018,0,0,0,.077,35.4a30.648,30.648,0,0,0,9.015,19.49L36.16,81.953a25.766,25.766,0,0,0,14.931,7.379,17.024,17.024,0,0,0,4.968,0A25.767,25.767,0,0,0,70.989,81.95L98.057,54.881A30.647,30.647,0,0,0,107.072,35.4,34.038,34.038,0,0,0,104.183,19.458ZM66.454,77.174a19.175,19.175,0,0,1-8.108,4.913,19.687,19.687,0,0,1-4.772.794h0a19.687,19.687,0,0,1-4.772-.794,19.175,19.175,0,0,1-8.108-4.913L24.819,61.22C37.575,49.69,53.575,50.061,53.575,50.061h0s16-.371,28.755,11.158Zm20.561-20.9a43.637,43.637,0,0,0-5.624-4.3l8.867-15.36a3.37,3.37,0,0,0-5.84-3.363l-8.87,15.364a54.449,54.449,0,0,0-5.675-2.453l6.744-25.893a3.372,3.372,0,0,0-6.527-1.694l-6.7,25.7a46.7,46.7,0,0,0-6.538-.972V27.171a3.363,3.363,0,0,0-3.363-3.363h0a3.363,3.363,0,0,0-3.363,3.363V43.376a53.076,53.076,0,0,0-6.414.952L37.009,18.561a3.372,3.372,0,1,0-6.527,1.694l6.74,25.88a53.529,53.529,0,0,0-5.72,2.388L22.693,33.241a3.37,3.37,0,1,0-5.84,3.363l8.805,15.254a37.309,37.309,0,0,0-5.693,4.466S9.013,48,7.288,37.986s.9-22.107,15.508-29.37c15.3-7.1,29.288,5.5,30.765,8.039,0,0,5.967-8.706,19.1-9.9s22.581,8,25.814,16.4,3.274,20.874-11.464,33.118Z" transform="translate(0 0)" fill="#fff"/><path d="M344,41.541a.831.831,0,0,1,.831-.831h10.306a9.769,9.769,0,1,1,.045,19.538H349.71V70.554a.862.862,0,0,1-.835.831h-4.03a.831.831,0,0,1-.831-.831h0ZM354.791,54.9a4.511,4.511,0,0,0,4.511-4.51c0-.015,0-.03,0-.045a4.375,4.375,0,0,0-4.511-4.25H349.71V54.9Z" transform="translate(-225.818 -26.714)" fill="#fff"/><path d="M421.06,41.541a.831.831,0,0,1,.831-.831h12.546a9.489,9.489,0,0,1,9.551,9.417c0,4.033-2.673,7.318-6.486,8.85l6,11.128a.828.828,0,0,1-.742,1.271h-4.617a.749.749,0,0,1-.687-.4l-5.84-11.619h-4.865V70.533a.862.862,0,0,1-.831.831h-4.03a.831.831,0,0,1-.831-.831h0Zm12.88,13.144a4.466,4.466,0,0,0,4.336-4.466,4.36,4.36,0,0,0-4.336-4.257H426.8v8.723Z" transform="translate(-276.404 -26.714)" fill="#fff"/><path d="M516.857,39.43A15.772,15.772,0,1,1,501.13,55.247v-.014a15.742,15.742,0,0,1,15.68-15.8Zm0,25.849a10.076,10.076,0,1,0-10.032-10.121v.089A10.093,10.093,0,0,0,516.857,65.279Z" transform="translate(-328.966 -25.874)" fill="#fff"/><path d="M605.42,66.241,607,63.527a1.01,1.01,0,0,1,1.377-.378.971.971,0,0,1,.11.072c.22.131,3.779,2.714,6.617,2.714,2.278,0,3.985-1.488,3.985-3.374,0-2.233-1.883-3.779-5.562-5.256-4.122-1.663-8.245-4.294-8.245-9.461,0-3.9,2.893-8.414,9.856-8.414a15.372,15.372,0,0,1,8.764,2.937,1.085,1.085,0,0,1,.261,1.446L622.5,46.308a1.154,1.154,0,0,1-1.536.526c-.344-.216-3.679-2.4-6.088-2.4-2.5,0-3.855,1.666-3.855,3.068,0,2.061,1.621,3.46,5.153,4.906,4.25,1.718,9.159,4.25,9.159,9.9,0,4.511-3.9,8.675-10.076,8.675a14,14,0,0,1-9.64-3.435C605.244,67.161,605.025,66.941,605.42,66.241Z" transform="translate(-397.289 -25.874)" fill="#fff"/><path d="M681.68,41.541a.831.831,0,0,1,.831-.831h10.31a9.769,9.769,0,1,1,.031,19.538h-5.476V70.554a.862.862,0,0,1-.831.831h-4.03a.831.831,0,0,1-.835-.828V41.541ZM692.457,54.9a4.514,4.514,0,0,0,4.515-4.514c0-.014,0-.028,0-.042a4.376,4.376,0,0,0-4.514-4.25h-5.081V54.9Z" transform="translate(-447.488 -26.714)" fill="#fff"/><path d="M758.687,41.541a.831.831,0,0,1,.831-.831h17.823a.831.831,0,0,1,.831.831v3.594a.831.831,0,0,1-.831.828H764.383V53.15H775.2a.863.863,0,0,1,.835.835V57.62a.831.831,0,0,1-.831.831H764.383v7.668h12.959a.831.831,0,0,1,.831.831v3.594a.832.832,0,0,1-.821.842H759.511a.831.831,0,0,1-.831-.831Z" transform="translate(-498.035 -26.714)" fill="#fff"/><path d="M835.21,41.541a.831.831,0,0,1,.831-.831h12.529a9.489,9.489,0,0,1,9.551,9.417c0,4.033-2.673,7.318-6.486,8.85l6,11.128a.828.828,0,0,1-.742,1.271h-4.6a.749.749,0,0,1-.687-.4l-5.84-11.619H840.9V70.533a.859.859,0,0,1-.831.831h-4.03a.831.831,0,0,1-.831-.831ZM848.09,54.685a4.466,4.466,0,0,0,4.336-4.466,4.36,4.36,0,0,0-4.336-4.257h-7.142v8.723Z" transform="translate(-548.273 -26.714)" fill="#fff"/><path d="M340.974,148.932a.612.612,0,0,1,.612-.612h7.369c3.831,0,6.789,2.573,6.789,5.954a6.129,6.129,0,0,1-3.539,5.115c1.718.546,4.184,2.285,4.184,5.246,0,3.6-3.092,6.211-7.015,6.211h-7.8a.611.611,0,0,1-.611-.611Zm7.6,8.85a2.759,2.759,0,0,0,2.766-2.9,2.628,2.628,0,0,0-2.5-2.749,2.523,2.523,0,0,0-.264,0H345.1v5.634Zm.45,9.276a2.872,2.872,0,0,0,2.9-2.847c0-.026,0-.053,0-.08a3.119,3.119,0,0,0-3.284-2.8H345.1v5.727Z" transform="translate(-223.822 -97.355)" fill="#fff"/><path d="M421.227,148.932a.612.612,0,0,1,.612-.612h13.1a.612.612,0,0,1,.612.612v2.639a.612.612,0,0,1-.612.611h-9.527v5.277h7.95a.635.635,0,0,1,.611.612v2.669a.612.612,0,0,1-.611.612h-7.95v5.634h9.527a.612.612,0,0,1,.612.612v2.638a.612.612,0,0,1-.612.611H421.832a.611.611,0,0,1-.611-.611Z" transform="translate(-276.509 -97.355)" fill="#fff"/><path d="M498.81,147.961a.6.6,0,0,1,.612-.581h.8l13.4,14.223h.024V148.314a.612.612,0,0,1,.611-.612h2.961a.632.632,0,0,1,.612.612v21.644a.6.6,0,0,1-.612.577h-.773L503,155.763h-.034V169.6a.612.612,0,0,1-.612.611h-2.927a.635.635,0,0,1-.612-.611Z" transform="translate(-327.443 -96.738)" fill="#fff"/><path d="M593.71,148.932a.608.608,0,0,1,.6-.612h13.1a.612.612,0,0,1,.612.612h0v2.639a.612.612,0,0,1-.612.611h-9.527v5.277h7.943a.632.632,0,0,1,.611.612v2.669a.612.612,0,0,1-.611.612h-7.943v5.634h9.527a.612.612,0,0,1,.612.612h0v2.638a.612.612,0,0,1-.612.611h-13.1a.612.612,0,0,1-.612-.611h0Z" transform="translate(-389.74 -97.355)" fill="#fff"/><path d="M671.27,148.931a.612.612,0,0,1,.612-.612h13.1a.612.612,0,0,1,.625.6v2.652a.612.612,0,0,1-.612.612h-9.54v6.05h7.95a.632.632,0,0,1,.611.612v2.638a.632.632,0,0,1-.611.612h-7.95v8.142a.635.635,0,0,1-.612.612h-2.961a.612.612,0,0,1-.612-.612h0Z" transform="translate(-440.654 -97.355)" fill="#fff"/><path d="M746.59,148.932a.632.632,0,0,1,.611-.612h2.992a.632.632,0,0,1,.612.612v21.3a.636.636,0,0,1-.612.612H747.2a.635.635,0,0,1-.611-.612Z" transform="translate(-490.098 -97.355)" fill="#fff"/><path d="M796.625,152.182H791.7a.612.612,0,0,1-.611-.611h0v-2.639a.612.612,0,0,1,.611-.612h14.061a.611.611,0,0,1,.612.612h0v2.639a.611.611,0,0,1-.612.611H800.84v18.054a.635.635,0,0,1-.611.611h-2.985a.635.635,0,0,1-.612-.611Z" transform="translate(-519.31 -97.355)" fill="#fff"/><path d="M863.7,167.069l1.158-2a.749.749,0,0,1,1.023-.275.731.731,0,0,1,.073.048c.161.1,2.766,2,4.858,2a2.688,2.688,0,0,0,2.93-2.477c0-1.642-1.374-2.769-4.088-3.861-3.027-1.223-6.05-3.154-6.05-6.95,0-2.865,2.123-6.184,7.242-6.184a11.311,11.311,0,0,1,6.435,2.157.793.793,0,0,1,.192,1.062l-1.223,1.835a.847.847,0,0,1-1.127.385c-.254-.161-2.7-1.769-4.466-1.769a2.564,2.564,0,0,0-2.831,2.254c0,1.512,1.192,2.542,3.779,3.6,3.123,1.254,6.727,3.119,6.727,7.273,0,3.315-2.862,6.369-7.4,6.369a10.348,10.348,0,0,1-7.08-2.508C863.558,167.742,863.4,167.584,863.7,167.069Z" transform="translate(-566.867 -96.732)" fill="#fff"/></g></svg>