<svg width="312" height="233" viewBox="0 0 312 233" fill="none" xmlns="http://www.w3.org/2000/svg">
<path d="M312 204.298H0V204.454H312V204.298Z" fill="#EBEBEB"/>
<path d="M280.738 214.338H260.071V214.494H280.738V214.338Z" fill="#EBEBEB"/>
<path d="M206.681 216.035H201.258V216.191H206.681V216.035Z" fill="#EBEBEB"/>
<path d="M259.446 208.547H247.472V208.703H259.446V208.547Z" fill="#EBEBEB"/>
<path d="M59.6849 209.595H32.7343V209.751H59.6849V209.595Z" fill="#EBEBEB"/>
<path d="M69.1955 209.595H65.2455V209.751H69.1955V209.595Z" fill="#EBEBEB"/>
<path d="M140.493 212.228H82.0371V212.384H140.493V212.228Z" fill="#EBEBEB"/>
<path d="M147.889 176.467H27.4008C25.4352 176.461 23.844 174.87 23.844 172.904V3.53184C23.8627 1.57872 25.4477 0.00624 27.4008 0H147.889C149.855 0 151.452 1.59744 151.452 3.56304V172.904C151.452 174.87 149.855 176.467 147.889 176.467ZM27.4008 0.1248C25.5226 0.13104 24 1.6536 24 3.53184V172.904C24 174.782 25.5226 176.305 27.4008 176.311H147.889C149.767 176.305 151.29 174.782 151.296 172.904V3.53184C151.29 1.6536 149.767 0.13104 147.889 0.1248H27.4008Z" fill="#EBEBEB"/>
<path d="M282.865 176.467H162.371C160.405 176.461 158.814 174.87 158.807 172.904V3.53184C158.826 1.57872 160.417 0.00624 162.371 0H282.865C284.818 0.00624 286.397 1.57872 286.415 3.53184V172.904C286.415 174.87 284.831 176.461 282.865 176.467ZM162.371 0.1248C160.492 0.13104 158.97 1.6536 158.963 3.53184V172.904C158.97 174.782 160.492 176.305 162.371 176.311H282.865C284.743 176.305 286.266 174.782 286.272 172.904V3.53184C286.266 1.6536 284.743 0.13104 282.865 0.1248H162.371Z" fill="#EBEBEB"/>
<path d="M275.853 63.3232H165.848V202.619H275.853V63.3232Z" fill="#F0F0F0"/>
<path d="M271.964 68.4028H169.734V98.1926H271.964V68.4028Z" fill="#E0E0E0"/>
<path d="M175.543 73.2202H169.734V98.1865H175.543V73.2202Z" fill="#EBEBEB"/>
<path d="M203.622 73.2202H197.813V98.1865H203.622V73.2202Z" fill="#EBEBEB"/>
<path d="M236.595 73.0621L230.844 74.0493L235.088 98.7667L240.838 97.7796L236.595 73.0621Z" fill="#EBEBEB"/>
<path d="M182.737 76.5146H176.928V98.1924H182.737V76.5146Z" fill="#EBEBEB"/>
<path d="M196.093 76.5146H190.284V98.1924H196.093V76.5146Z" fill="#EBEBEB"/>
<path d="M229.782 76.5146H223.973V98.1924H229.782V76.5146Z" fill="#EBEBEB"/>
<path d="M211.27 75.7463L205.599 77.007L210.303 98.1688L215.974 96.9081L211.27 75.7463Z" fill="#EBEBEB"/>
<path d="M187.762 71.9845H184.86V98.1863H187.762V71.9845Z" fill="#EBEBEB"/>
<path d="M222.299 71.9845H219.398V98.1863H222.299V71.9845Z" fill="#EBEBEB"/>
<path d="M271.964 102.904H169.734V132.693H271.964V102.904Z" fill="#E0E0E0"/>
<path d="M271.964 107.727H266.154V132.693H271.964V107.727Z" fill="#EBEBEB"/>
<path d="M243.884 107.727H238.074V132.693H243.884V107.727Z" fill="#EBEBEB"/>
<path d="M206.217 107.094L201.975 131.698L207.7 132.685L211.942 108.081L206.217 107.094Z" fill="#EBEBEB"/>
<path d="M264.769 111.016H258.959V132.693H264.769V111.016Z" fill="#EBEBEB"/>
<path d="M251.422 111.016H245.613V132.693H251.422V111.016Z" fill="#EBEBEB"/>
<path d="M217.727 111.016H211.918V132.693H217.727V111.016Z" fill="#EBEBEB"/>
<path d="M230.062 108.908L225.294 130.151L230.986 131.428L235.754 110.186L230.062 108.908Z" fill="#EBEBEB"/>
<path d="M256.844 106.492H253.943V132.693H256.844V106.492Z" fill="#EBEBEB"/>
<path d="M222.299 106.492H219.398V132.693H222.299V106.492Z" fill="#EBEBEB"/>
<path d="M175.543 107.727H169.734V132.693H175.543V107.727Z" fill="#EBEBEB"/>
<path d="M182.737 111.016H176.928V132.693H182.737V111.016Z" fill="#EBEBEB"/>
<path d="M196.093 111.016H190.284V132.693H196.093V111.016Z" fill="#EBEBEB"/>
<path d="M187.762 106.485H184.86V132.687H187.762V106.485Z" fill="#EBEBEB"/>
<path d="M271.964 137.411H169.734V167.201H271.964V137.411Z" fill="#E0E0E0"/>
<path d="M234.218 142.228H228.409V167.195H234.218V142.228Z" fill="#EBEBEB"/>
<path d="M266.115 141.594L260.39 142.581L264.632 167.185L270.357 166.198L266.115 141.594Z" fill="#EBEBEB"/>
<path d="M213.339 145.523H207.529V167.201H213.339V145.523Z" fill="#EBEBEB"/>
<path d="M226.687 145.523H220.878V167.201H226.687V145.523Z" fill="#EBEBEB"/>
<path d="M260.377 145.523H254.568V167.201H260.377V145.523Z" fill="#EBEBEB"/>
<path d="M241.868 144.755L236.197 146.015L240.901 167.177L246.572 165.917L241.868 144.755Z" fill="#EBEBEB"/>
<path d="M218.357 140.992H215.455V167.194H218.357V140.992Z" fill="#EBEBEB"/>
<path d="M252.894 140.992H249.993V167.194H252.894V140.992Z" fill="#EBEBEB"/>
<path d="M199.307 141.595L193.582 142.583L197.824 167.187L203.549 166.2L199.307 141.595Z" fill="#EBEBEB"/>
<path d="M193.564 145.523H187.755V167.201H193.564V145.523Z" fill="#EBEBEB"/>
<path d="M175.056 144.764L169.385 146.025L174.089 167.187L179.76 165.926L175.056 144.764Z" fill="#EBEBEB"/>
<path d="M186.083 140.992H183.181V167.194H186.083V140.992Z" fill="#EBEBEB"/>
<path d="M87.7911 74.0249H70.6124V98.3359H87.7911V74.0249Z" fill="#E0E0E0"/>
<path d="M86.6685 75.1609H71.73V97.1881H86.6685V75.1609Z" fill="#EBEBEB"/>
<path d="M66.2062 65.5948H49.0275V89.9059H66.2062V65.5948Z" fill="#E0E0E0"/>
<path d="M65.0836 66.7306H50.145V88.7578H65.0836V66.7306Z" fill="#EBEBEB"/>
<path d="M92.5023 53.9384H70.6124V69.4073H92.5023V53.9384Z" fill="#E0E0E0"/>
<path d="M91.4715 54.9492H71.6407V68.4027H91.4715V54.9492Z" fill="#EBEBEB"/>
<path d="M66.2001 45.1405H41.8891V62.3192H66.2001V45.1405Z" fill="#E0E0E0"/>
<path d="M65.0643 46.257H43.0371V61.1955H65.0643V46.257Z" fill="#EBEBEB"/>
<path d="M84.0582 29.6523H70.6048V48.6906H84.0582V29.6523Z" fill="#E0E0E0"/>
<path d="M83.1851 30.5446H71.4851V47.7919H83.1851V30.5446Z" fill="#EBEBEB"/>
<path d="M156 232.477C222.82 232.477 276.988 229.315 276.988 225.413C276.988 221.512 222.82 218.35 156 218.35C89.1808 218.35 35.0129 221.512 35.0129 225.413C35.0129 229.315 89.1808 232.477 156 232.477Z" fill="#F5F5F5"/>
<path d="M255.515 202.919C255.515 202.919 250.723 193.559 256.202 184.286C261.68 175.014 263.265 172.848 259.771 170.976C256.276 169.104 254.679 178.377 254.679 178.377C254.679 178.377 251.734 171.987 254.167 165.273C256.601 158.559 258.123 147.676 254.791 146.509C251.459 145.342 254.167 160.106 251.272 165.142C251.272 165.142 248.857 159.526 248.458 154.16C248.058 148.793 248.682 140.201 246.062 137.998C243.441 135.795 241.756 137.324 244.333 149.186C245.881 156.256 246.735 163.457 246.891 170.696C246.891 170.696 241.201 155.133 237.382 154.677C233.563 154.222 233.569 159.264 236.839 163.632C240.109 168 246.411 175.837 247.447 179.856C247.447 179.856 241.207 168.143 235.591 171.744C229.975 175.344 240.483 182.408 245.169 184.96C249.855 187.512 253.1 203.543 253.1 203.543L255.515 202.919Z" fill="#407BFF"/>
<path d="M255.515 202.919C255.515 202.919 250.723 193.559 256.202 184.286C261.68 175.014 263.265 172.848 259.771 170.976C256.276 169.104 254.679 178.377 254.679 178.377C254.679 178.377 251.734 171.987 254.167 165.273C256.601 158.559 258.123 147.676 254.791 146.509C251.459 145.342 254.167 160.106 251.272 165.142C251.272 165.142 248.857 159.526 248.458 154.16C248.058 148.793 248.682 140.201 246.062 137.998C243.441 135.795 241.756 137.324 244.333 149.186C245.881 156.256 246.735 163.457 246.891 170.696C246.891 170.696 241.201 155.133 237.382 154.677C233.563 154.222 233.569 159.264 236.839 163.632C240.109 168 246.411 175.837 247.447 179.856C247.447 179.856 241.207 168.143 235.591 171.744C229.975 175.344 240.483 182.408 245.169 184.96C249.855 187.512 253.1 203.543 253.1 203.543L255.515 202.919Z" fill="#21905C"/>
<path d="M251.727 206.769C251.727 206.769 256.401 197.322 250.798 188.143C245.194 178.964 243.578 176.811 247.054 174.87C250.529 172.93 252.239 182.209 252.239 182.209C252.239 182.209 255.097 175.775 252.576 169.105C250.055 162.434 248.389 151.57 251.69 150.353C254.991 149.137 252.507 163.944 255.434 168.936C255.434 168.936 257.78 163.32 258.105 157.922C258.429 152.525 257.693 143.964 260.289 141.73C262.884 139.496 264.575 140.993 262.161 152.893C260.713 159.982 259.952 167.195 259.889 174.427C259.889 174.427 265.374 158.79 269.187 158.291C272.999 157.791 273.062 162.821 269.848 167.239C266.635 171.657 260.438 179.563 259.459 183.606C259.459 183.606 265.549 171.813 271.215 175.326C276.881 178.839 266.466 186.059 261.817 188.673C257.169 191.288 254.13 207.356 254.13 207.356L251.727 206.769Z" fill="#407BFF"/>
<path d="M251.727 206.769C251.727 206.769 256.401 197.322 250.798 188.143C245.194 178.964 243.578 176.811 247.054 174.87C250.529 172.93 252.239 182.209 252.239 182.209C252.239 182.209 255.097 175.775 252.576 169.105C250.055 162.434 248.389 151.57 251.69 150.353C254.991 149.137 252.507 163.944 255.434 168.936C255.434 168.936 257.78 163.32 258.105 157.922C258.429 152.525 257.693 143.964 260.289 141.73C262.884 139.496 264.575 140.993 262.161 152.893C260.713 159.982 259.952 167.195 259.889 174.427C259.889 174.427 265.374 158.79 269.187 158.291C272.999 157.791 273.062 162.821 269.848 167.239C266.635 171.657 260.438 179.563 259.459 183.606C259.459 183.606 265.549 171.813 271.215 175.326C276.881 178.839 266.466 186.059 261.817 188.673C257.169 191.288 254.13 207.356 254.13 207.356L251.727 206.769Z" fill="#29B473"/>
<path d="M273.269 200.036H234.693L237.813 224.797H270.149L273.269 200.036Z" fill="#FFFCAC"/>
<path d="M160.336 211.218H43.3362V224.79H160.336V211.218Z" fill="#407BFF"/>
<path opacity="0.4" d="M160.336 211.218H43.3362V224.79H160.336V211.218Z" fill="white"/>
<path opacity="0.4" d="M160.331 211.218H92.2343V224.79H160.331V211.218Z" fill="white"/>
<path d="M214.656 211.218H97.6555V224.79H214.656V211.218Z" fill="#407BFF"/>
<path opacity="0.4" d="M214.656 211.218H97.6555V224.79H214.656V211.218Z" fill="white"/>
<path opacity="0.4" d="M214.656 211.218H146.559V224.79H214.656V211.218Z" fill="white"/>
<path d="M44.08 182.832H163.713C166.69 182.832 169.105 185.247 169.105 188.224V209.265C169.105 212.242 166.69 214.656 163.713 214.656H44.08C41.1035 214.656 38.6887 212.242 38.6887 209.265V188.224C38.6887 185.247 41.1035 182.832 44.08 182.832Z" fill="#407BFF"/>
<path opacity="0.6" d="M93.9998 182.832H163.713C166.69 182.832 169.104 185.247 169.104 188.224V209.265C169.104 212.242 166.69 214.656 163.713 214.656H93.9998C91.0233 214.656 88.6085 212.242 88.6085 209.265V188.224C88.6085 185.247 91.0233 182.832 93.9998 182.832Z" fill="white"/>
<path opacity="0.6" d="M44.08 182.832H163.713C166.69 182.832 169.105 185.247 169.105 188.224V209.265C169.105 212.242 166.69 214.656 163.713 214.656H44.08C41.1035 214.656 38.6887 212.242 38.6887 209.265V188.224C38.6887 185.247 41.1035 182.832 44.08 182.832Z" fill="white"/>
<path d="M96.495 182.832H216.128C219.105 182.832 221.52 185.247 221.52 188.224V209.265C221.52 212.242 219.105 214.656 216.128 214.656H96.495C93.5185 214.656 91.1036 212.242 91.1036 209.265V188.224C91.1036 185.247 93.5185 182.832 96.495 182.832Z" fill="#407BFF"/>
<path opacity="0.6" d="M146.415 182.832H216.128C219.104 182.832 221.519 185.247 221.519 188.224V209.265C221.519 212.242 219.104 214.656 216.128 214.656H146.415C143.438 214.656 141.023 212.242 141.023 209.265V188.224C141.023 185.247 143.438 182.832 146.415 182.832Z" fill="white"/>
<path opacity="0.6" d="M96.495 182.832H216.128C219.105 182.832 221.52 185.247 221.52 188.224V209.265C221.52 212.242 219.105 214.656 216.128 214.656H96.495C93.5185 214.656 91.1036 212.242 91.1036 209.265V188.224C91.1036 185.247 93.5185 182.832 96.495 182.832Z" fill="white"/>
<path d="M118.34 183.569H41.5885L29.901 123.178C28.784 117.375 32.5779 111.765 38.3811 110.642C39.0488 110.511 39.7227 110.448 40.4029 110.448H95.3523C100.475 110.448 104.881 114.086 105.854 119.116L118.34 183.569Z" fill="#407BFF"/>
<path d="M63.391 183.569H41.5947L29.901 123.178C28.784 117.375 32.5779 111.765 38.3811 110.642C39.0488 110.511 39.7227 110.448 40.4029 110.448C45.5259 110.448 49.9314 114.086 50.911 119.116L63.391 183.569Z" fill="#407BFF"/>
<g opacity="0.6">
<path opacity="0.6" d="M118.34 183.569H41.5885L29.901 123.178C28.784 117.375 32.5779 111.765 38.3811 110.642C39.0488 110.511 39.7227 110.448 40.4029 110.448H95.3523C100.475 110.448 104.881 114.086 105.854 119.116L118.34 183.569Z" fill="white"/>
<path opacity="0.6" d="M63.391 183.569H41.5947L29.901 123.178C28.784 117.375 32.5779 111.765 38.3811 110.642C39.0488 110.511 39.7227 110.448 40.4029 110.448C45.5259 110.448 49.9314 114.086 50.911 119.116L63.391 183.569Z" fill="white"/>
</g>
<path opacity="0.6" d="M118.342 183.456H63.3929L50.9129 119.053C49.9332 114.036 45.5215 110.423 40.4047 110.448H95.3542C100.471 110.423 104.876 114.042 105.856 119.059L118.342 183.456Z" fill="white"/>
<path d="M96.0083 120.663C101.088 121.786 100.539 138.435 104.47 142.896C107.309 146.122 118.248 146.952 120.538 149.03C122.828 151.108 120.538 155.164 120.538 155.164C120.538 155.164 101.668 154.74 97.0067 152.612C92.3454 150.484 96.0083 120.663 96.0083 120.663Z" fill="#407BFF"/>
<path opacity="0.1" d="M96.0083 120.663C101.088 121.786 100.539 138.435 104.47 142.896C107.309 146.122 118.248 146.952 120.538 149.03C122.828 151.108 120.538 155.164 120.538 155.164C120.538 155.164 101.668 154.74 97.0067 152.612C92.3454 150.484 96.0083 120.663 96.0083 120.663Z" fill="black"/>
<path d="M131.308 168.137C131.245 168.243 131.177 168.287 131.102 168.274C128.93 167.881 123.102 171.07 116.013 174.751L114.023 175.775L113.343 176.118C109.767 177.946 105.967 179.793 102.211 181.303C97.7864 183.094 93.4247 184.423 89.5871 184.71C89.0629 184.754 88.5574 184.773 88.0582 184.773C70.8171 184.773 76.4331 156.325 76.4331 156.325L97.0251 154.746L99.4525 158.933L100.769 161.198L103.739 160.399C105.231 160 107.452 159.482 109.979 158.939L110.603 158.808C111.458 158.627 112.351 158.446 113.262 158.265C119.982 156.905 127.695 155.588 130.553 155.57C132.587 155.557 132.231 166.783 131.308 168.137Z" fill="#E4897B"/>
<path d="M110.405 157.872L114.399 177.666C114.399 177.666 100.671 188.841 88.8146 184.48C76.9586 180.118 80.7026 159.981 80.7026 159.981L96.3026 155.202L100.571 160.293L110.405 157.872Z" fill="#407BFF"/>
<path opacity="0.6" d="M114.398 177.634C114.167 177.759 113.942 177.903 113.736 178.065C111.084 179.893 108.283 181.484 105.362 182.832C100.763 184.704 95.0101 186.32 89.5938 184.636C89.3317 184.554 89.0758 184.505 88.82 184.411C76.964 180.043 80.708 159.931 80.708 159.931L96.308 155.164L99.428 158.908L100.545 160.243L109.824 157.985L110.404 157.841L110.598 158.808L112.345 167.469L114.023 175.775L114.398 177.634Z" fill="white"/>
<path d="M109.717 157.454L113.879 178.882L116.375 176.91L113.049 157.042L109.717 157.454Z" fill="#407BFF"/>
<path opacity="0.4" d="M116.375 176.91L113.879 178.882L113.735 178.14L113.342 176.118L111.651 167.407L110.004 158.939L109.823 157.984L109.717 157.454L113.049 157.042L113.255 158.265L114.815 167.588L116.013 174.751L116.375 176.91Z" fill="white"/>
<path opacity="0.2" d="M131.309 168.137C131.247 168.243 131.178 168.287 131.103 168.274C128.932 167.881 123.104 171.07 116.015 174.751L116.377 176.91L113.881 178.882L113.738 178.065C111.086 179.893 108.284 181.484 105.363 182.832L102.243 181.228L97.6882 178.845L99.5602 161.822L102.262 165.566C102.262 165.566 108.565 167.095 111.685 167.394L112.377 167.463C113.232 167.532 114.068 167.582 114.873 167.588C115.422 167.588 115.94 167.588 116.433 167.544C121.743 167.17 127.547 166.97 131.309 168.137Z" fill="black"/>
<path d="M174.631 179.625L174.437 183.749H173.957C173.333 183.787 172.197 183.843 170.631 183.918C161.789 184.323 139.868 185.097 130.52 183.225L87.5639 184.08L97.005 167.544L156.054 176.736L174.231 179.562L174.631 179.625Z" fill="#E4897B"/>
<path d="M181.727 174.72C181.652 176.33 181.59 177.784 181.527 179.125C181.44 180.96 181.371 182.595 181.296 184.155C181.172 186.869 178.944 185.066 174.127 184.735C174.008 184.735 173.964 184.342 173.958 183.78C173.958 182.576 174.133 180.542 174.233 179.568C174.233 179.225 174.289 179.013 174.289 179.013C174.875 178.464 175.437 177.89 175.961 177.278C177.303 175.843 178.326 174.14 178.975 172.286C179.936 168.898 181.895 170.901 181.727 174.72Z" fill="#263238"/>
<path d="M108.733 168.792L103.897 185.683L94.3868 184.772C94.3868 184.772 69.77 194.17 76.2908 157.067L95.7845 153.504L101.17 166.452L108.733 168.792Z" fill="#407BFF"/>
<path opacity="0.6" d="M108.733 168.792L103.897 185.683L94.3868 184.772C94.3868 184.772 69.77 194.17 76.2908 157.067L95.7845 153.504L101.17 166.452L108.733 168.792Z" fill="white"/>
<path d="M107.69 167.869L102.23 185.952H105.456L110.242 168.792L107.69 167.869Z" fill="#407BFF"/>
<path opacity="0.4" d="M107.69 167.869L102.23 185.952H105.456L110.242 168.792L107.69 167.869Z" fill="white"/>
<path opacity="0.2" d="M181.527 179.119C181.44 180.954 181.371 182.589 181.296 184.149C181.171 186.863 178.944 185.06 174.127 184.729C174.008 184.729 173.964 184.336 173.958 183.774C173.334 183.812 172.198 183.868 170.632 183.943C166.077 181.378 159.7 178.395 156.055 176.736L174.233 179.562C174.233 179.219 174.289 179.007 174.289 179.007C174.875 178.458 175.437 177.884 175.961 177.272L181.527 179.119Z" fill="black"/>
<path d="M130.546 155.569C129.797 155.569 130.309 168.131 131.102 168.274C134.452 168.898 180.173 182.37 180.173 182.37L181.508 178.37C181.508 178.37 138.04 155.532 130.546 155.569Z" fill="#E4897B"/>
<path d="M179.63 183.144C179.194 182.988 181.346 177.678 181.346 177.678C181.346 177.678 185.852 175.469 187.692 172.48C189.533 169.491 190.875 171.956 189.671 175.6C188.466 179.244 187.543 181.99 186.688 184.567C185.833 187.144 184.173 184.773 179.63 183.144Z" fill="#263238"/>
<path d="M98.9029 157.667L100.569 160.262C100.569 160.262 82.6789 181.584 78.417 182.832C78.417 182.832 76.0084 180.811 76.0708 176C76.1332 171.189 98.9029 157.667 98.9029 157.667Z" fill="#407BFF"/>
<path opacity="0.1" d="M98.9029 157.667L100.569 160.262C100.569 160.262 82.6789 181.584 78.417 182.832C78.417 182.832 76.0084 180.811 76.0708 176C76.1332 171.189 98.9029 157.667 98.9029 157.667Z" fill="black"/>
<path d="M92.9198 97.1879C94.8916 98.5856 96.0335 100.888 95.9399 103.303C95.7839 107.409 94.9353 113.768 95.9399 116.083C96.9446 118.398 93.3441 119.04 93.3441 119.04C93.55 118.41 93.55 117.73 93.3441 117.1C93.3441 117.1 93.3441 118.173 91.9089 118.56C90.4737 118.947 79.0108 119.234 76.4337 117.1C73.8566 114.966 79.2417 97.7557 82.2057 96.7199C85.1697 95.684 92.9198 97.1879 92.9198 97.1879Z" fill="#263238"/>
<path d="M95.635 105.524C95.635 108.02 95.5539 113.374 96.7208 115.458C97.8876 117.543 96.1779 118.416 96.1779 118.416" stroke="#263238" stroke-width="0.5" stroke-linecap="round" stroke-linejoin="round"/>
<path d="M97.0007 151.538L100.258 158.914L76.5959 180.754C71.242 178.414 75.4228 140.724 70.8926 127.09C70.6742 126.466 70.4495 125.748 70.2062 125.043C69.8942 124.101 70.3996 123.084 71.3418 122.772C71.3668 122.766 71.3855 122.759 71.4105 122.747C73.6257 122.117 75.8783 121.611 78.1497 121.231C81.2073 120.688 84.2961 120.363 87.3974 120.257C91.4097 120.257 96.0086 120.675 96.0086 120.675C96.0086 120.675 96.6326 120.831 97.0756 125.081C97.4562 129.056 97.8244 137.03 97.0007 151.538Z" fill="#407BFF"/>
<path d="M79.0991 121.973C79.0991 121.973 80.6279 124.145 85.701 124.794C85.701 124.794 88.197 123.14 87.1487 121.131C87.1487 121.131 86.0504 120.788 85.8133 119.041C85.701 117.811 85.8632 116.569 86.2813 115.403C86.3375 115.215 86.4061 115.016 86.4747 114.816L80.06 110.804C80.06 110.804 82.3189 118.934 79.0991 121.973Z" fill="#E4897B"/>
<path opacity="0.2" d="M81.4996 113.132C81.4996 113.132 81.8428 117.718 85.8114 119.041C85.6991 117.812 85.8613 116.57 86.2794 115.403C83.9394 114.192 81.4996 113.132 81.4996 113.132Z" fill="black"/>
<path d="M76.5963 122.547C76.5963 122.547 77.1766 118.866 78.6492 118.666C78.6492 118.666 82.025 121.393 86.9172 119.04C86.9172 119.04 87.8158 118.909 87.8345 120.607C87.8532 122.304 89.9311 121.979 88.4585 124.975C86.9858 127.97 80.3028 128.868 76.5963 122.547Z" fill="#407BFF"/>
<path opacity="0.1" d="M76.5963 122.547C76.5963 122.547 77.1766 118.866 78.6492 118.666C78.6492 118.666 82.025 121.393 86.9172 119.04C86.9172 119.04 87.8158 118.909 87.8345 120.607C87.8532 122.304 89.9311 121.979 88.4585 124.975C86.9858 127.97 80.3028 128.868 76.5963 122.547Z" fill="black"/>
<path d="M88.0581 98.1052C93.2997 98.9976 94.5102 102.093 93.9736 107.565C93.2997 114.429 90.9846 118.941 84.676 116.376C76.1272 112.9 79.3533 96.6201 88.0581 98.1052Z" fill="#E4897B"/>
<path d="M90.6347 106.704C90.9217 107.559 91.3086 108.376 91.7891 109.138C91.4022 109.524 90.8281 109.662 90.304 109.493L90.6347 106.704Z" fill="#DE5753"/>
<path d="M87.4975 105.712C87.4351 106.149 87.1481 106.461 86.8735 106.423C86.599 106.386 86.4055 105.993 86.4679 105.562C86.5303 105.132 86.8174 104.813 87.0919 104.857C87.3665 104.901 87.5599 105.281 87.4975 105.712Z" fill="#263238"/>
<path d="M86.9655 104.832L87.9639 104.601C87.9639 104.601 87.3586 105.35 86.9655 104.832Z" fill="#263238"/>
<path d="M92.8888 106.411C92.8264 106.848 92.5394 107.16 92.2648 107.122C91.9903 107.085 91.7906 106.692 91.853 106.261C91.9154 105.83 92.2024 105.512 92.477 105.556C92.7515 105.6 92.9762 105.98 92.8888 106.411Z" fill="#263238"/>
<path d="M92.3519 105.556L93.344 105.325C93.344 105.325 92.7699 106.08 92.3519 105.556Z" fill="#263238"/>
<path d="M88.0639 102.086C87.2402 101.843 86.3542 101.993 85.6553 102.492" stroke="#263238" stroke-width="0.7247" stroke-linecap="round" stroke-linejoin="round"/>
<path d="M91.9155 102.517C92.6706 102.461 93.4131 102.748 93.931 103.303" stroke="#263238" stroke-width="0.7247" stroke-linecap="round" stroke-linejoin="round"/>
<path d="M80.8195 105.961C80.8195 105.961 84.0081 102.074 84.2015 98.6856C84.2015 98.6856 95.3212 96.1896 94.0295 106.848C94.0295 106.848 96.6441 97.656 87.6648 95.9088C78.6854 94.1616 76.4764 107.328 80.495 112.077C80.495 112.077 78.8414 108.401 80.8195 105.961Z" fill="#263238"/>
<path d="M81.4878 107.216C81.5814 105.949 80.6392 104.838 79.3724 104.72C77.7188 104.62 76.371 107.84 80.2772 109.319C80.8388 109.5 81.2632 108.988 81.4878 107.216Z" fill="#E4897B"/>
<path d="M92.919 100.233C92.919 100.233 95.415 97.3441 93.3496 94.9292C91.2841 92.5143 82.5606 92.0401 79.6216 94.6172C76.6825 97.1943 76.9945 98.5921 76.9945 98.5921C75.6592 101.494 75.0976 104.695 75.3534 107.877C75.9025 112.788 74.0056 115.833 75.266 117.393C76.5265 118.953 77.762 119.041 77.762 119.041C77.4376 117.892 77.4376 116.669 77.762 115.521C78.3361 113.961 77.762 115.053 77.762 115.053C77.762 115.053 78.4297 119.109 79.1224 119.577C79.8836 119.92 80.6948 120.133 81.5248 120.201C80.7011 118.273 80.3579 116.183 80.5201 114.092C80.9132 111.047 82.5481 107.927 82.1612 104.339C81.9803 102.08 82.598 99.8276 83.9147 97.9806C83.9147 97.9806 90.136 97.2692 92.919 100.233Z" fill="#263238"/>
<path d="M92.9197 99.2972C94.2551 98.823 95.085 97.4939 94.929 96.0899C94.6919 93.5939 90.0493 92.0838 87.441 92.5081" stroke="#263238" stroke-width="0.5" stroke-linecap="round" stroke-linejoin="round"/>
<path d="M77.7376 98.2799C77.7376 98.2799 74.5177 102.873 74.8173 108.12C75.1168 113.368 73.3197 114.984 73.8688 116.613" stroke="#263238" stroke-width="0.5" stroke-linecap="round" stroke-linejoin="round"/>
<path d="M86.2799 110.136C86.2799 110.136 86.4733 111.59 89.3999 111.702" stroke="#263238" stroke-width="0.5" stroke-linecap="round" stroke-linejoin="round"/>
<path d="M104.469 150.496C104.469 150.496 108.057 151.214 108.731 151.426C110.765 152.487 112.687 153.741 114.485 155.17C115.333 156.006 109.823 157.36 108.731 157.042C107.639 156.724 105.667 154.39 105.667 154.39L101.711 153.766L104.469 150.496Z" fill="#E4897B"/>
<path d="M71.4102 122.734C71.4102 122.734 68.4337 123.758 67.8097 132.494C67.1857 141.23 68.5522 155.582 74.6737 159.538C80.7951 163.494 102.978 155.17 102.978 155.17C102.978 155.17 103.946 150.64 102.978 149.654C98.9722 145.567 85.0758 149.292 80.221 147.027C75.3663 144.762 77.725 127.121 71.4102 122.734Z" fill="#407BFF"/>
<path opacity="0.1" d="M71.4102 122.734C71.4102 122.734 68.4337 123.758 67.8097 132.494C67.1857 141.23 68.5522 155.582 74.6737 159.538C80.7951 163.494 102.978 155.17 102.978 155.17C102.978 155.17 103.946 150.64 102.978 149.654C98.9722 145.567 85.0758 149.292 80.221 147.027C75.3663 144.762 77.725 127.121 71.4102 122.734Z" fill="black"/>
<path d="M102.96 149.654L102.23 155.432L105.35 155.57L106.704 150.496L102.96 149.654Z" fill="#407BFF"/>
<path opacity="0.2" d="M102.96 149.654L102.23 155.432L105.35 155.57L106.704 150.496L102.96 149.654Z" fill="black"/>
<path d="M140.399 156V157.835C140.399 158.303 139.844 158.496 139.382 158.496H102.747C102.279 158.496 101.711 158.303 101.711 157.835V156H140.399Z" fill="#263238"/>
<path opacity="0.4" d="M140.399 156V157.835C140.399 158.303 139.844 158.496 139.382 158.496H102.747C102.279 158.496 101.711 158.303 101.711 157.835V156H140.399Z" fill="white"/>
<path opacity="0.2" d="M140.401 156V157.835C140.401 158.303 139.845 158.496 139.383 158.496H115.222C114.748 158.496 114.193 158.303 114.193 157.835V156H140.401Z" fill="black"/>
<path d="M146.528 136.968L142.16 156.749C141.998 157.404 141.417 157.866 140.743 157.872H116.932C116.401 157.86 115.977 157.423 115.989 156.892C115.989 156.799 116.008 156.711 116.033 156.624L120.401 136.993C120.588 136.388 121.169 135.988 121.805 136.032H145.629C146.272 136.032 146.671 136.319 146.528 136.968Z" fill="#263238"/>
<path opacity="0.4" d="M146.527 136.968L142.159 156.749C141.997 157.404 141.416 157.866 140.742 157.872H117.742C117.205 157.859 116.787 157.416 116.793 156.886C116.793 156.799 116.812 156.711 116.837 156.624L121.205 136.993C121.392 136.381 121.979 135.982 122.615 136.032H145.628C146.271 136.032 146.67 136.319 146.527 136.968Z" fill="white"/>
<path opacity="0.2" d="M134.784 147.021C134.784 148.712 132.968 150.091 131.664 150.091C130.36 150.091 129.543 148.712 129.923 147.021C130.304 145.33 131.627 144.007 132.931 143.957C132.55 145.648 133.362 147.021 134.684 147.021H134.784Z" fill="black"/>
<path d="M202.174 117.936V119.496" stroke="#407BFF" stroke-width="2" stroke-linejoin="round"/>
<path d="M202.174 121.324V144.787" stroke="#407BFF" stroke-width="2" stroke-linejoin="round" stroke-dasharray="4.88 4.88"/>
<path d="M202.175 145.704V147.264H200.615" stroke="#407BFF" stroke-width="2" stroke-linejoin="round"/>
<path d="M198.812 147.264H151.601" stroke="#407BFF" stroke-width="2" stroke-linejoin="round" stroke-dasharray="4.82 4.82"/>
<path d="M150.696 147.264H149.136" stroke="#407BFF" stroke-width="2" stroke-linejoin="round"/>
<path d="M202.176 118.341C203.424 118.341 204.435 117.33 204.435 116.082C204.435 114.835 203.424 113.824 202.176 113.824C200.929 113.824 199.917 114.835 199.917 116.082C199.917 117.33 200.929 118.341 202.176 118.341Z" fill="#407BFF"/>
<path d="M149.136 149.523C150.383 149.523 151.395 148.511 151.395 147.264C151.395 146.016 150.383 145.005 149.136 145.005C147.888 145.005 146.877 146.016 146.877 147.264C146.877 148.511 147.888 149.523 149.136 149.523Z" fill="#407BFF"/>
<path d="M134.346 11.8558H269.38C271.551 11.8558 273.311 13.6155 273.311 15.787V107.141C273.311 109.312 271.551 111.072 269.38 111.072H134.346C132.175 111.072 130.415 109.312 130.415 107.141V15.787C130.415 13.6155 132.175 11.8558 134.346 11.8558Z" fill="#263238"/>
<path opacity="0.4" d="M134.346 11.8558H269.38C271.551 11.8558 273.311 13.6155 273.311 15.787V107.141C273.311 109.312 271.551 111.072 269.38 111.072H134.346C132.175 111.072 130.415 109.312 130.415 107.141V15.787C130.415 13.6155 132.175 11.8558 134.346 11.8558Z" fill="white"/>
<path d="M273.312 28.0797H130.416V92.9757H273.312V28.0797Z" fill="#407BFF"/>
<path opacity="0.4" d="M273.312 28.0797H130.416V92.9757H273.312V28.0797Z" fill="black"/>
<path d="M269.568 74.8801V61.1521H267.072V44.3041H263.952V61.1521H258.336V86.1121H247.104V61.1521H227.136V86.1121H217.152V87.3601H207.792V62.4001H204.048V76.7521H194.688V72.3841H177.84V58.6561H175.344V41.8081H172.224V58.6561H166.608V83.6161H155.376V58.6561H135.408V83.6161H130.416V92.9761H217.152H232.128H273.312V74.8801H269.568Z" fill="#407BFF"/>
<path opacity="0.3" d="M269.568 74.8801V61.1521H267.072V44.3041H263.952V61.1521H258.336V86.1121H247.104V61.1521H227.136V86.1121H217.152V87.3601H207.792V62.4001H204.048V76.7521H194.688V72.3841H177.84V58.6561H175.344V41.8081H172.224V58.6561H166.608V83.6161H155.376V58.6561H135.408V83.6161H130.416V92.9761H217.152H232.128H273.312V74.8801H269.568Z" fill="black"/>
<path d="M164.735 40.5602H139.775V92.9762H164.735V40.5602Z" fill="#407BFF"/>
<g opacity="0.4">
<path opacity="0.4" d="M164.735 45.5519H139.775V46.1759H164.735V45.5519Z" fill="black"/>
</g>
<path opacity="0.4" d="M164.735 50.5442H139.775V51.1682H164.735V50.5442Z" fill="black"/>
<path opacity="0.4" d="M164.735 64.896H139.775V65.52H164.735V64.896Z" fill="black"/>
<path opacity="0.4" d="M164.735 69.8881H139.775V70.5121H164.735V69.8881Z" fill="black"/>
<path opacity="0.4" d="M164.735 74.88H139.775V75.504H164.735V74.88Z" fill="black"/>
<path opacity="0.4" d="M164.735 79.8723H139.775V80.4963H164.735V79.8723Z" fill="black"/>
<path d="M200.303 63.6482H175.967V92.9762H200.303V63.6482Z" fill="#407BFF"/>
<path opacity="0.4" d="M200.303 68.6399H175.967V69.2639H200.303V68.6399Z" fill="black"/>
<path opacity="0.4" d="M200.303 73.6322H175.967V74.2562H200.303V73.6322Z" fill="black"/>
<path opacity="0.4" d="M200.303 78.6239H175.967V79.2479H200.303V78.6239Z" fill="black"/>
<path d="M235.871 53.6642H210.911V92.9762H235.871V53.6642Z" fill="#407BFF"/>
<path opacity="0.4" d="M235.871 58.656H210.911V59.28H235.871V58.656Z" fill="black"/>
<path opacity="0.4" d="M235.871 69.2639H210.911V69.8879H235.871V69.2639Z" fill="black"/>
<path opacity="0.4" d="M235.871 83.6161H210.911V84.2401H235.871V83.6161Z" fill="black"/>
<path opacity="0.4" d="M235.871 88.6082H210.911V89.2322H235.871V88.6082Z" fill="black"/>
<g opacity="0.2">
<path opacity="0.2" d="M164.735 40.5602H139.775V92.9762H164.735V40.5602Z" fill="black"/>
</g>
<g opacity="0.2">
<path opacity="0.2" d="M200.303 63.6482H175.967V92.9762H200.303V63.6482Z" fill="black"/>
</g>
<g opacity="0.2">
<path opacity="0.2" d="M235.871 53.6642H210.911V92.9762H235.871V53.6642Z" fill="black"/>
</g>
<path d="M259.789 111.072H213.407L222.487 62.8556C223.017 60.0601 225.457 58.0321 228.302 58.0321H262.622C265.892 58.0321 268.538 60.6779 268.538 63.9476C268.538 64.3158 268.507 64.6839 268.438 65.0459L259.789 111.072Z" fill="#407BFF"/>
<path opacity="0.4" d="M259.789 111.072H213.407L222.487 62.8556C223.017 60.0601 225.457 58.0321 228.302 58.0321H262.622C265.892 58.0321 268.538 60.6779 268.538 63.9476C268.538 64.3158 268.507 64.6839 268.438 65.0459L259.789 111.072Z" fill="white"/>
<path opacity="0.2" d="M259.789 111.072H247.727L256.813 62.8556C257.337 60.0601 259.783 58.0321 262.628 58.0321C265.898 58.0321 268.544 60.6779 268.544 63.9476C268.544 64.3158 268.513 64.6839 268.444 65.0459L259.789 111.072Z" fill="black"/>
<path d="M222.456 79.8718C222.456 79.8718 221.763 81.7438 220.659 84.14C218.899 87.9776 216.097 93.1568 213.408 94.1864C211.205 95.035 205.67 95.191 200.728 95.1411C195.786 95.0912 191.568 94.8478 191.568 94.8478V91.1038L207.792 86.7795C207.792 86.7795 216.353 71.3293 221.414 69.0392L222.456 79.8718Z" fill="#92C8EB"/>
<path opacity="0.2" d="M220.658 84.1401C218.899 87.9777 216.097 93.1569 213.408 94.1865C211.205 95.0351 205.67 95.1911 200.728 95.1412C200.728 95.1412 208.634 90.8606 210.912 88.6079C213.439 86.1119 221.208 74.8799 221.208 74.8799L220.658 84.1401Z" fill="#033556"/>
<path d="M247.727 111.072C247.471 105.275 245.031 86.3802 248.351 68.1095C245.78 67.6602 243.178 67.4044 240.57 67.3358C236.751 67.1985 232.926 67.2796 229.119 67.5854C226.511 67.9036 223.934 68.434 221.407 69.1578C221.407 69.1578 217.825 82.4678 221.812 111.072H247.727Z" fill="#B6DAF1"/>
<path d="M239.184 54.5001C238.56 58.2004 237.967 64.9646 240.594 67.367C238.441 69.6758 235.446 71.0236 232.289 71.111C227.571 71.3169 229.169 67.5916 229.169 67.5916C233.262 66.5184 233.087 63.4732 232.289 60.6278L239.184 54.5001Z" fill="#B97964"/>
<path opacity="0.2" d="M236.376 57.0084L232.289 60.6526C232.483 61.314 232.614 61.9879 232.689 62.6743C234.255 62.4123 236.37 60.6463 236.501 58.999C236.582 58.3313 236.539 57.6574 236.376 57.0084Z" fill="black"/>
<path d="M230.255 44.9281C232.296 46.3133 231.366 48.672 226.742 52.3412C224.87 49.9076 224.552 45.1777 226.05 43.9921C227.547 42.8065 228.44 43.73 230.255 44.9281Z" fill="#263238"/>
<path d="M238.991 48.7342C238.767 53.7262 238.885 56.6653 236.414 59.2673C232.67 63.1861 226.493 61.0083 225.182 56.0413C224.046 51.5859 224.596 44.1853 229.444 42.0949C232.895 40.5848 236.92 42.151 238.43 45.6017C238.86 46.5877 239.054 47.6609 238.991 48.7342Z" fill="#B97964"/>
<path d="M231.583 50.2318C231.583 50.6374 231.378 50.9681 231.115 50.9743C230.853 50.9806 230.635 50.6561 230.629 50.2505C230.623 49.8449 230.822 49.5142 231.09 49.5017C231.359 49.4892 231.552 49.8324 231.583 50.2318Z" fill="#263238"/>
<path d="M226.966 50.3191C226.966 50.7247 226.76 51.0554 226.498 51.0616C226.236 51.0679 226.011 50.7434 226.005 50.3316C225.999 49.9197 226.205 49.589 226.473 49.589C226.741 49.589 226.96 49.9197 226.966 50.3191Z" fill="#263238"/>
<path d="M228.478 50.4813C228.016 51.7293 227.386 52.9087 226.606 53.9882C227.173 54.3813 227.885 54.4999 228.553 54.3189L228.478 50.4813Z" fill="#A24E3F"/>
<path d="M232.82 48.753C232.87 48.7654 232.926 48.7654 232.976 48.753C233.076 48.6718 233.095 48.5221 233.02 48.416C232.558 47.7982 231.828 47.4426 231.061 47.4613C230.936 47.4675 230.836 47.5736 230.842 47.7046C230.861 47.8294 230.973 47.923 231.098 47.9168C231.703 47.9043 232.284 48.1914 232.639 48.6843C232.689 48.7342 232.752 48.7592 232.82 48.753Z" fill="#263238"/>
<path d="M224.839 48.7965C224.932 48.7903 225.013 48.7404 225.057 48.6593C225.294 48.0977 225.787 47.6858 226.38 47.5548C226.511 47.5298 226.598 47.4113 226.58 47.2802C226.561 47.1554 226.442 47.0681 226.318 47.0805C225.562 47.2365 224.932 47.7482 224.627 48.4596C224.57 48.5781 224.62 48.7154 224.739 48.7716C224.77 48.7841 224.801 48.7965 224.839 48.7965Z" fill="#263238"/>
<path d="M236.951 44.3475C234.63 45.1899 234.961 47.6984 238.542 52.3909C240.964 50.4876 242.424 45.9761 241.263 44.4661C240.102 42.956 238.992 43.6174 236.951 44.3475Z" fill="#263238"/>
<path d="M241.487 52.6903C241.156 53.9071 240.364 54.9367 239.272 55.5669C237.824 56.3906 236.701 55.1863 236.776 53.6138C236.838 52.1911 237.668 50.0507 239.272 49.8698C240.876 49.6888 241.855 51.1989 241.487 52.6903Z" fill="#B97964"/>
<path d="M241.543 45.0527C241.543 45.0527 242.592 42.1199 239.141 39.705C236.164 37.6146 228.227 37.9079 226.006 40.4039C224.658 42.0013 223.897 44.0106 223.859 46.101L225.07 44.229L224.739 46.569L227.971 44.073L226.967 46.569C226.967 46.569 230.299 46.101 231.959 44.229L231.11 45.9263C231.11 45.9263 233.15 46.1759 235.877 44.1479C235.877 44.1479 233.862 46.4879 236.545 47.8919C239.228 49.2959 241.543 45.0527 241.543 45.0527Z" fill="#263238"/>
<path d="M232.29 55.1489C231.572 56.2409 230.305 56.8462 229.007 56.7089" stroke="#263238" stroke-width="0.5" stroke-linecap="round" stroke-linejoin="round"/>
<path d="M215.904 90.7356C215.904 90.7356 206.494 90.4486 205.533 90.3487C204.572 90.2489 200.484 87.9526 199.623 87.8527C198.762 87.7529 196.428 91.397 196.141 92.2582C195.854 93.1193 202.643 95.4218 203.317 95.3282C204.085 95.1223 204.828 94.8478 205.539 94.5046L215.904 95.7151V90.7356Z" fill="#B97964"/>
<path d="M248.351 68.1096C257.143 71.2795 241.712 95.0851 236.92 97.5375C232.127 99.9898 207.791 94.848 207.791 94.848L208.746 89.9247C208.746 89.9247 230.286 90.4738 232.271 89.9746C234.255 89.4754 238.972 79.3229 241.687 74.5306C243.197 71.7538 245.524 69.5136 248.351 68.1096Z" fill="#92C8EB"/>
<path d="M228.028 97.612H170.713C170.339 97.612 170.039 97.3125 170.039 96.9381V95.2595C170.039 94.8851 170.339 94.5856 170.713 94.5856H228.028C228.402 94.5856 228.702 94.8851 228.702 95.2595V96.9381C228.702 97.3125 228.402 97.612 228.028 97.612Z" fill="#407BFF"/>
<path opacity="0.5" d="M170.352 95.1786V96.8634C170.352 97.2378 170.352 97.3439 170.707 97.3439H228.028C228.402 97.3439 229.008 97.2378 229.008 96.8634V95.1786C229.008 94.8104 228.384 94.8479 228.028 94.8479H170.707C170.352 94.8479 170.352 94.8104 170.352 95.1786Z" fill="white"/>
<path opacity="0.2" d="M204.671 95.1786V96.8634C204.671 97.2378 204.865 97.3439 205.233 97.3439H228.028C228.402 97.3439 229.007 97.2378 229.007 96.8634V95.1786C229.007 94.8104 228.383 94.8479 228.028 94.8479H205.233C204.865 94.8479 204.671 94.8104 204.671 95.1786Z" fill="black"/>
<path d="M174.718 92.3522V94.1867C174.718 94.6547 175.193 94.8482 175.654 94.8482H212.289C212.757 94.8482 213.406 94.6547 213.406 94.1867V92.3522H174.718Z" fill="#263238"/>
<path opacity="0.6" d="M174.718 92.3522V94.1867C174.718 94.6547 175.193 94.8482 175.654 94.8482H212.289C212.757 94.8482 213.406 94.6547 213.406 94.1867V92.3522H174.718Z" fill="white"/>
<path opacity="0.2" d="M174.718 92.3522V94.1867C174.718 94.6547 175.193 94.8482 175.654 94.8482H199.816C200.284 94.8482 200.926 94.6547 200.926 94.1867V92.3522H174.718Z" fill="black"/>
<path d="M168.51 73.3197L172.878 93.1005C173.047 93.7495 173.621 94.2113 174.295 94.2237H198.119C198.643 94.2175 199.068 93.7807 199.055 93.2503C199.055 93.1567 199.036 93.0631 199.011 92.9757L194.643 73.3447C194.462 72.7269 193.87 72.3213 193.227 72.3775H169.409C168.766 72.3837 168.367 72.6708 168.51 73.3197Z" fill="#263238"/>
<path opacity="0.6" d="M168.51 73.3197L172.878 93.1005C173.047 93.7495 173.621 94.2113 174.295 94.2237H198.119C198.643 94.2175 199.068 93.7807 199.055 93.2503C199.055 93.1567 199.036 93.0631 199.011 92.9757L194.643 73.3447C194.462 72.7269 193.87 72.3213 193.227 72.3775H169.409C168.766 72.3837 168.367 72.6708 168.51 73.3197Z" fill="white"/>
<path opacity="0.4" d="M168.51 73.3201L172.878 93.1009C173.047 93.7499 173.621 94.2116 174.295 94.2241H197.308C197.838 94.2116 198.263 93.7748 198.25 93.2444C198.25 93.1508 198.231 93.0635 198.206 92.9761L193.838 73.3451C193.651 72.7273 193.065 72.3279 192.422 72.3779H169.409C168.766 72.3841 168.367 72.6711 168.51 73.3201Z" fill="white"/>
<path opacity="0.2" d="M185.346 84.0716L184.941 82.2371H178.738L179.144 84.0716H185.346Z" fill="black"/>
<path d="M156.175 63.9352C156.175 64.3096 156.137 64.6777 156.069 65.0459L147.401 111.072H134.347C132.176 111.072 130.416 109.312 130.416 107.141V58.0321H150.253C153.516 58.0259 156.168 60.6716 156.175 63.9352Z" fill="#407BFF"/>
<path opacity="0.4" d="M156.175 63.9352C156.175 64.3096 156.137 64.6777 156.069 65.0459L147.401 111.072H134.347C132.176 111.072 130.416 109.312 130.416 107.141V58.0321H150.253C153.516 58.0259 156.168 60.6716 156.175 63.9352Z" fill="white"/>
<path opacity="0.2" d="M147.401 111.072H135.357L144.443 62.8556C144.967 60.0601 147.407 58.0321 150.252 58.0321C153.522 58.0321 156.168 60.6779 156.168 63.9476C156.168 64.3158 156.137 64.6839 156.068 65.0459L147.401 111.072Z" fill="black"/>
<path d="M218.175 24.9602H200.353C198.431 24.9602 196.559 26.4391 196.559 28.3548V42.0828C196.559 43.9984 198.431 45.5522 200.353 45.5522H210.811L219.379 50.4444L215.903 45.5522H218.206C220.065 45.5397 221.563 44.0296 221.551 42.1701C221.551 42.1389 221.551 42.1077 221.551 42.0828V28.3548C221.6 26.5327 220.165 25.0101 218.343 24.9602C218.287 24.9602 218.231 24.9602 218.175 24.9602Z" fill="white"/>
<path d="M215.837 36.688C216.726 32.9212 214.393 29.147 210.626 28.258C206.859 27.369 203.085 29.702 202.196 33.4688C201.307 37.2356 203.64 41.0098 207.407 41.8988C211.174 42.7878 214.948 40.4548 215.837 36.688Z" fill="#407BFF"/>
<path opacity="0.4" d="M215.837 36.688C216.726 32.9212 214.393 29.147 210.626 28.258C206.859 27.369 203.085 29.702 202.196 33.4688C201.307 37.2356 203.64 41.0098 207.407 41.8988C211.174 42.7878 214.948 40.4548 215.837 36.688Z" fill="white"/>
<path d="M205.714 34.5069L208.416 37.7018L212.784 31.8237" stroke="white" stroke-width="2" stroke-linecap="round" stroke-linejoin="round"/>
</svg>
