<svg width="313" height="247" viewBox="0 0 313 247" fill="none" xmlns="http://www.w3.org/2000/svg">
<path d="M313 218.093H0V218.25H313V218.093Z" fill="#EBEBEB"/>
<path d="M48.8282 224.053H32.8402V224.21H48.8282V224.053Z" fill="#EBEBEB"/>
<path d="M165.264 222.357H96.4413V222.513H165.264V222.357Z" fill="#EBEBEB"/>
<path d="M106.421 226.094H60.9297V226.251H106.421V226.094Z" fill="#EBEBEB"/>
<path d="M281.643 228.817H221.391V228.973H281.643V228.817Z" fill="#EBEBEB"/>
<path d="M215.815 228.817H211.852V228.973H215.815V228.817Z" fill="#EBEBEB"/>
<path d="M232.177 226.175H188.563V226.332H232.177V226.175Z" fill="#EBEBEB"/>
<path d="M148.362 190.174H27.4876C25.5157 190.168 23.9194 188.571 23.9194 186.599V16.6843C23.9382 14.7249 25.5283 13.1474 27.4876 13.1411H148.362C150.334 13.1411 151.936 14.7437 151.936 16.7156V186.599C151.936 188.571 150.334 190.174 148.362 190.174ZM27.4876 13.2663C25.6034 13.2726 24.0759 14.8 24.0759 16.6843V186.599C24.0759 188.484 25.6034 190.011 27.4876 190.017H148.362C150.246 190.011 151.774 188.484 151.78 186.599V16.6843C151.774 14.8 150.246 13.2726 148.362 13.2663H27.4876Z" fill="#EBEBEB"/>
<path d="M283.771 190.174H162.891C160.919 190.168 159.322 188.571 159.316 186.599V16.6843C159.335 14.7249 160.931 13.1474 162.891 13.1411H283.771C285.731 13.1474 287.314 14.7249 287.333 16.6843V186.599C287.333 188.571 285.743 190.168 283.771 190.174ZM162.891 13.2663C161.006 13.2726 159.479 14.8 159.473 16.6843V186.599C159.479 188.484 161.006 190.011 162.891 190.017H283.771C285.655 190.011 287.183 188.484 287.189 186.599V16.6843C287.183 14.8 285.655 13.2726 283.771 13.2663H162.891Z" fill="#EBEBEB"/>
<path d="M243.181 27.5327H79.0377V101.05H243.181V27.5327Z" fill="#E6E6E6"/>
<path d="M241.568 27.5327H75.5776V101.05H241.568V27.5327Z" fill="#F0F0F0"/>
<path d="M243.181 101.044H79.0377V103.535H243.181V101.044Z" fill="#E6E6E6"/>
<path d="M235.809 101.044H69.8188V103.535H235.809V101.044Z" fill="#F0F0F0"/>
<path d="M236.728 32.3721H80.4222V96.2116H236.728V32.3721Z" fill="#FAFAFA"/>
<path d="M194.504 96.2116L166.103 32.3721H137.031L165.439 96.2116H194.504Z" fill="white"/>
<path d="M234.487 85.538C234.675 85.538 234.831 85.3815 234.831 85.1937V35.5206C234.831 35.3265 234.681 35.1763 234.487 35.17C234.299 35.17 234.143 35.3265 234.143 35.5143V35.5206V85.1937C234.136 85.3815 234.287 85.5317 234.474 85.538C234.481 85.538 234.481 85.538 234.487 85.538Z" fill="#F0F0F0"/>
<path d="M154.509 96.2116L126.101 32.3721H116.048L144.45 96.2116H154.509Z" fill="white"/>
<path d="M81.0357 32.3658H80.4222V96.2053H81.0357V32.3658Z" fill="#E6E6E6"/>
<g opacity="0.5">
<path opacity="0.5" d="M74.4316 39.014H238.581L239.026 34.2501H74.876L74.4316 39.014Z" fill="#E6E6E6"/>
<path opacity="0.5" d="M74.4315 46.8891H238.581L239.026 42.119H74.876L74.4315 46.8891Z" fill="#E6E6E6"/>
<path opacity="0.5" d="M74.4315 54.7578H238.581L239.026 49.9939H74.876L74.4315 54.7578Z" fill="#E6E6E6"/>
<path opacity="0.5" d="M74.4315 62.6332H238.581L239.026 57.863H74.876L74.4315 62.6332Z" fill="#E6E6E6"/>
<path opacity="0.5" d="M74.4315 70.5019H238.581L239.026 65.7318H74.876L74.4315 70.5019Z" fill="#E6E6E6"/>
<path opacity="0.5" d="M74.4315 78.3705H238.581L239.026 73.6067H74.876L74.4315 78.3705Z" fill="#E6E6E6"/>
</g>
<path d="M263.645 150.692H247.432V215.058H263.645V150.692Z" fill="#F0F0F0"/>
<path d="M260.529 215.057H184.025V218.093H260.529V215.057Z" fill="#F0F0F0"/>
<path d="M247.433 150.692H180.914V215.058H247.433V150.692Z" fill="#F5F5F5"/>
<path d="M241.048 190.994H187.287C187.143 190.994 187.03 190.881 187.03 190.737V190.731V175.012C187.024 174.868 187.137 174.756 187.281 174.749H187.287H208.12C208.264 174.749 208.383 174.868 208.383 175.012C208.383 175.069 208.364 175.131 208.327 175.175C208.22 175.313 208.158 175.482 208.158 175.657C208.17 176.114 208.546 176.483 209.009 176.471H209.015H219.326C219.783 176.483 220.171 176.126 220.183 175.663V175.657C220.183 175.482 220.121 175.313 220.014 175.175C219.927 175.062 219.945 174.893 220.058 174.806C220.102 174.768 220.164 174.749 220.221 174.749H241.048C241.192 174.749 241.311 174.868 241.311 175.012V190.731C241.311 190.875 241.192 190.994 241.048 190.994ZM187.55 190.468H240.76V175.275H220.653C220.69 175.4 220.709 175.526 220.709 175.657C220.697 176.408 220.077 177.009 219.326 176.997H209.015C208.264 177.009 207.644 176.408 207.632 175.657C207.632 175.526 207.651 175.4 207.688 175.275H187.55V190.468Z" fill="white"/>
<path d="M241.048 209.58H187.287C187.143 209.58 187.03 209.467 187.03 209.323V209.317V193.598C187.024 193.454 187.137 193.342 187.281 193.335H187.287H208.126C208.227 193.335 208.321 193.398 208.364 193.486C208.408 193.58 208.389 193.686 208.327 193.767C208.214 193.899 208.158 194.068 208.158 194.243C208.17 194.706 208.552 195.076 209.015 195.063H219.326C219.789 195.076 220.171 194.706 220.183 194.243C220.183 194.068 220.121 193.905 220.014 193.767C219.945 193.692 219.933 193.58 219.977 193.486C220.02 193.398 220.114 193.335 220.215 193.335H241.048C241.192 193.335 241.311 193.454 241.311 193.598V209.317C241.311 209.461 241.192 209.58 241.048 209.58ZM187.55 209.079H240.76V193.861H220.653C220.69 193.986 220.709 194.112 220.709 194.243C220.697 194.994 220.077 195.602 219.326 195.589H209.015C208.264 195.602 207.644 194.994 207.632 194.243C207.632 194.112 207.651 193.986 207.688 193.861H187.55V209.079Z" fill="white"/>
<path d="M241.048 172.408H187.287C187.143 172.408 187.03 172.295 187.03 172.151V172.145V156.426C187.024 156.282 187.137 156.169 187.281 156.163H187.287H208.12C208.22 156.163 208.314 156.226 208.358 156.313C208.408 156.401 208.408 156.508 208.358 156.595C208.245 156.727 208.189 156.896 208.189 157.071C208.202 157.528 208.577 157.897 209.04 157.885H209.047H219.357C219.814 157.897 220.202 157.54 220.215 157.077V157.071C220.215 156.896 220.158 156.727 220.046 156.595C219.995 156.508 219.995 156.401 220.046 156.313C220.089 156.226 220.183 156.163 220.283 156.163H241.11C241.254 156.163 241.373 156.282 241.373 156.426V172.145C241.38 172.289 241.273 172.408 241.135 172.414C241.104 172.42 241.073 172.414 241.048 172.408ZM187.55 171.882H240.76V156.689H220.653C220.69 156.814 220.709 156.939 220.709 157.071C220.697 157.822 220.077 158.423 219.326 158.411H209.015C208.264 158.423 207.644 157.822 207.632 157.071C207.632 156.939 207.651 156.814 207.688 156.689H187.55V171.882Z" fill="white"/>
<path d="M247.433 145.408H178.754V150.692H247.433V145.408Z" fill="#F0F0F0"/>
<path d="M265.905 145.408H247.426V150.692H265.905V145.408Z" fill="#E6E6E6"/>
<path d="M56.5412 130.773H30.5434V218.087H56.5412V130.773Z" fill="#F5F5F5"/>
<path d="M34.8372 130.773H30.5491V218.087H34.8372V130.773Z" fill="#F0F0F0"/>
<path d="M151.235 133.659H52.534V155.506H151.235V133.659Z" fill="#E6E6E6"/>
<path d="M151.235 162.048H52.534V167.094H151.235V162.048Z" fill="#E6E6E6"/>
<path d="M145.47 130.779H30.5491V138.366H145.47V130.779Z" fill="#F0F0F0"/>
<path d="M171.462 130.773H145.47V218.087H171.462V130.773Z" fill="#F5F5F5"/>
<path d="M149.751 130.773H145.463V218.087H149.751V130.773Z" fill="#F0F0F0"/>
<path d="M156.501 246.364C223.534 246.364 277.876 243.191 277.876 239.277C277.876 235.364 223.534 232.191 156.501 232.191C89.467 232.191 35.1255 235.364 35.1255 239.277C35.1255 243.191 89.467 246.364 156.501 246.364Z" fill="#F5F5F5"/>
<path d="M117.061 73.2374C115.94 74.3016 114.607 75.1217 113.154 75.6413C113.073 74.045 112.798 72.4675 112.334 70.94C112.334 70.94 112.46 74.3517 111.489 76.2297C110.112 76.6679 108.704 77.0185 107.283 77.2814C107.195 76.8557 107.076 76.4363 106.932 76.0294C106.888 76.4926 106.794 76.9496 106.65 77.3941C101.911 78.258 95.3822 79.6665 89.4791 78.6461C85.8796 74.0137 89.6481 70.5895 90.0174 67.8538C90.4994 64.2731 87.1441 63.4343 87.551 60.5296C87.9579 57.625 91.2068 59.3903 92.8407 56.1038C95.0066 51.7218 99.7642 49.1239 103.921 49.944C109.423 51.0395 107.527 59.2839 111.777 61.9319C116.028 64.5799 118.137 69.1497 117.061 73.2374Z" fill="#263238"/>
<path d="M116.967 74.32H116.917C116.836 74.295 116.798 74.2074 116.823 74.1322C116.823 74.1322 116.823 74.1322 116.823 74.126C117.982 70.7581 118.526 66.4262 112.373 62.7766C110.1 61.4244 109.468 58.9893 108.848 56.6355C108.016 53.4492 107.239 50.4444 102.438 50.5133C102.357 50.507 102.294 50.4444 102.288 50.363C102.281 50.2816 102.338 50.2128 102.419 50.2065C102.425 50.2065 102.432 50.2065 102.438 50.2065C107.446 50.1377 108.322 53.3991 109.149 56.5542C109.743 58.8516 110.369 61.2241 112.529 62.5137C118.946 66.3198 118.213 71.021 117.111 74.2261C117.086 74.2825 117.03 74.32 116.967 74.32Z" fill="#263238"/>
<path d="M110.175 114.754C110.175 114.754 109.924 145.365 108.009 170.512C103.858 195.401 100.221 229.568 100.221 229.568H96.2525C96.2525 229.568 92.2524 184.227 96.6657 169.641C94.049 150.937 94.8628 115.261 94.8628 115.261L110.175 114.754Z" fill="#B55B52"/>
<path d="M115.415 87.7665C115.415 88.0544 115.415 88.4801 115.415 88.8432L115.465 89.9888C115.509 90.7588 115.578 91.5287 115.665 92.2862C115.828 93.8011 116.091 95.2973 116.454 96.7746C116.805 98.1831 117.287 99.5541 117.906 100.869C118.476 102.083 119.246 103.191 120.185 104.143L120.417 104.374C120.31 104.268 120.173 104.193 120.022 104.168C119.947 104.168 120.022 104.205 120.216 104.199C120.736 104.143 121.237 104.011 121.719 103.811C122.996 103.291 124.229 102.665 125.4 101.933C126.652 101.188 127.866 100.362 129.087 99.5102C130.307 98.6589 131.534 97.77 132.718 96.8936C133.356 96.4178 134.264 96.5493 134.74 97.1878C135.146 97.7324 135.115 98.4836 134.677 98.9969C133.638 100.211 132.555 101.307 131.434 102.409C130.314 103.51 129.131 104.543 127.872 105.539C126.57 106.59 125.168 107.511 123.691 108.287C122.795 108.744 121.844 109.076 120.855 109.257C120.166 109.382 119.459 109.37 118.777 109.219C117.875 109.019 117.061 108.543 116.442 107.861L116.679 108.099C115.171 106.803 113.919 105.238 112.974 103.485C112.078 101.845 111.383 100.105 110.889 98.3021C110.401 96.568 110.05 94.8027 109.831 93.0124C109.725 92.1297 109.649 91.2408 109.599 90.3519C109.599 89.9074 109.556 89.4629 109.549 89.0122C109.543 88.5615 109.549 88.1421 109.549 87.6037C109.649 86.0012 111.027 84.7867 112.629 84.8869C114.138 84.9808 115.321 86.214 115.352 87.7227L115.415 87.7665Z" fill="#B55B52"/>
<path d="M138.809 96.8558L138.652 94.4457C138.602 93.6945 137.951 93.1249 137.2 93.1749C137.156 93.1749 137.112 93.1812 137.062 93.1937C135.86 93.394 134.758 93.9887 133.932 94.8839L131.303 97.7009L130.827 100.33C132.943 101.369 135.904 99.2409 135.904 99.2409L138.064 98.1767C138.558 97.9263 138.852 97.4067 138.809 96.8558Z" fill="#B55B52"/>
<path d="M113.512 83.3415C117.663 86.6781 117.03 90.3589 117.951 93.0758C116.029 96.331 108.429 97.8647 108.429 97.8647C108.429 97.8647 109.036 79.742 113.512 83.3415Z" fill="#407BFF"/>
<path d="M115.353 87.0092C115.979 95.5541 110.789 102.033 110.345 111.041L88.7727 110.515C89.3987 101.751 89.1358 102.615 86.0559 85.6445C85.7116 83.754 86.9636 81.9386 88.8541 81.5943C88.9292 81.5818 89.0043 81.5692 89.0794 81.563C90.682 81.3814 92.6664 81.2062 94.751 81.1686C98.2441 81.0184 101.743 81.1123 105.224 81.4628C107.471 81.732 109.869 82.1639 111.697 82.527C113.844 82.9339 115.184 84.8182 115.353 87.0092Z" fill="#407BFF"/>
<path d="M105.837 90.0333C105.924 90.916 105.48 91.6296 104.841 91.6296C104.203 91.6296 103.589 90.9222 103.527 90.0396C103.464 89.1569 103.883 88.437 104.522 88.437C105.16 88.437 105.749 89.1507 105.837 90.0333Z" fill="white"/>
<path d="M104.679 86.0457C106.131 86.415 107.684 87.4104 108.303 89.9519C112.635 83.4666 105.236 81.4446 105.236 81.4446L104.679 86.0457Z" fill="white"/>
<path d="M102.131 86.3834C99.8965 86.0954 97.8494 87.6667 97.5552 89.9078C97.5552 89.914 97.5552 89.9203 97.5552 89.9266C92.8039 83.7417 94.7633 81.125 94.7633 81.125L102.131 86.3834Z" fill="white"/>
<path d="M96.1344 69.3876C96.6978 72.7742 97.1861 78.9654 94.7635 81.1501C94.7635 81.1501 99.0328 85.7763 103.897 86.997C105.343 85.5446 105.862 83.3975 105.236 81.4443C101.48 80.4427 101.681 77.657 102.407 75.0591L96.1344 69.3876Z" fill="#B55B52"/>
<path opacity="0.2" d="M98.6883 71.704L102.407 75.0531C102.225 75.6666 102.1 76.2926 102.031 76.9311C100.598 76.6807 98.6695 75.0531 98.5631 73.5444C98.4879 72.9309 98.5318 72.3049 98.6883 71.704Z" fill="black"/>
<path d="M92.1595 65.6191C94.363 70.8087 95.1894 73.0498 98.8327 74.8213C104.31 77.4881 110.201 73.6445 109.594 67.904C109.043 62.7333 105.531 55.1211 99.5776 54.8457C95.3333 54.6391 91.7276 57.9131 91.521 62.1574C91.4647 63.3468 91.6838 64.5299 92.1595 65.6191Z" fill="#B55B52"/>
<path d="M91.4884 61.4814C98.5372 61.4251 108.39 57.9007 105.492 54.2136C104.008 46.8768 91.5886 54.514 91.4884 61.4814Z" fill="#263238"/>
<path d="M92.5539 60.2666C97.274 62.9083 96.022 68.0227 93.0297 69.0306C89.8684 65.237 89.0796 59.603 92.5539 60.2666Z" fill="#263238"/>
<path d="M101.198 67.7223C101.198 67.7223 102.801 67.4281 107.239 67.6785C106.613 69.0369 105.605 70.1199 103.333 69.9696C102.162 69.9822 101.205 69.0432 101.192 67.8788C101.192 67.8225 101.192 67.7724 101.198 67.7223Z" fill="#263238"/>
<path d="M104.241 68.518C103.371 68.4178 102.495 68.6056 101.737 69.0501C102.138 69.3631 102.626 69.5384 103.133 69.5509C104.003 69.6511 104.886 69.457 105.637 69.0125C105.237 68.6995 104.748 68.5243 104.241 68.518Z" fill="#A02724"/>
<path d="M101.412 67.6912C101.412 67.9541 101.538 68.1106 101.945 68.2796C103.134 68.4236 104.33 68.4487 105.525 68.3673C106.107 68.3422 106.652 68.0918 107.046 67.6662C105.168 67.5222 103.284 67.5347 101.412 67.6912Z" fill="white"/>
<path d="M100.661 64.0291C100.811 64.461 101.162 64.7302 101.45 64.6551C101.737 64.5799 101.831 64.123 101.681 63.691C101.531 63.2591 101.174 62.9899 100.892 63.065C100.611 63.1401 100.504 63.5971 100.661 64.0291Z" fill="#263238"/>
<path d="M106.194 62.0888C106.345 62.5207 106.701 62.7899 106.983 62.7148C107.265 62.6396 107.371 62.1827 107.215 61.7507C107.058 61.3188 106.708 61.0496 106.426 61.1247C106.144 61.1998 106.044 61.6568 106.194 62.0888Z" fill="#263238"/>
<path d="M106.314 61.1936L107.246 60.5238C107.246 60.5238 106.996 61.5254 106.314 61.1936Z" fill="#263238"/>
<path d="M104.617 63.1588C105.343 64.0102 106.188 64.7489 107.121 65.3686C106.789 65.8444 106.263 66.1574 105.681 66.2074L104.617 63.1588Z" fill="#A02724"/>
<path d="M92.021 70.6395C92.7597 71.4533 93.7989 71.9415 94.9006 71.9854C96.3467 72.0354 96.7286 70.6645 96.04 69.4814C95.414 68.4172 93.9303 67.1088 92.6157 67.6034C91.6642 68.0165 91.226 69.1245 91.6392 70.0761C91.7331 70.2826 91.8583 70.4767 92.021 70.6395Z" fill="#B55B52"/>
<path d="M98.1065 63.259C98.1754 63.2402 98.238 63.1964 98.2693 63.1338C98.5823 62.5203 99.1707 62.1009 99.853 62.0007C99.997 61.982 100.11 61.8568 100.103 61.7128C100.091 61.5625 99.9657 61.4499 99.8155 61.4624C98.9516 61.5751 98.2004 62.1009 97.7998 62.8709C97.7309 63.0023 97.7747 63.1651 97.9062 63.234C97.9688 63.2715 98.0377 63.2778 98.1065 63.259Z" fill="#263238"/>
<path d="M106.67 60.041C106.726 60.0035 106.776 59.9471 106.795 59.8845C106.839 59.7468 106.763 59.5966 106.619 59.5528H106.613C105.787 59.2773 104.885 59.4276 104.191 59.9471C104.078 60.0473 104.072 60.2163 104.172 60.329C104.266 60.4292 104.422 60.4479 104.535 60.3603C105.092 59.9534 105.806 59.847 106.457 60.0661C106.526 60.0849 106.607 60.0786 106.67 60.041Z" fill="#263238"/>
<path d="M100.786 63.1334L101.712 62.4636C101.712 62.4636 101.462 63.4652 100.786 63.1334Z" fill="#263238"/>
<path d="M104.404 115.493C104.404 115.493 100.385 146.793 93.8996 171.52C85.0479 190.356 74.625 204.904 63.9392 220.348L60.1832 218.344C67.5137 201.705 75.3575 181.999 82.7818 169.028C88.1529 121.815 87.5582 115.511 87.5582 115.511L104.404 115.493Z" fill="#B55B52"/>
<path d="M66.5432 232.867C66.3053 231.86 64.2771 229.205 64.2771 229.205C64.2771 229.205 63.6511 225.606 65.4915 218.97C65.5353 218.814 65.4852 218.645 65.3663 218.532L61.6854 215.202C61.4663 215.02 61.1408 215.039 60.9467 215.246C60.6337 215.571 59.6196 217.374 59.2566 217.925C58.8935 218.476 58.3551 219.277 58.0046 219.803C56.7526 221.781 54.0795 226.307 54.0795 226.307L54.5616 226.564C55.4442 225.224 56.4082 223.934 57.4474 222.707C58.5366 221.549 58.4866 223.59 58.0734 225.337C57.6602 227.083 58.7745 229.806 61.8294 231.597C65.4602 233.619 66.7936 233.9 66.5432 232.867Z" fill="#263238"/>
<path d="M110.357 111.022C114.927 125.47 111.452 140.138 109.28 167.832C99.2641 169.341 90.2936 167.832 79.9833 164.702C86.6064 132.914 78.4371 124.988 88.7849 110.497L110.357 111.022Z" fill="#407BFF"/>
<path d="M88.4155 108.919C88.2903 109.483 88.209 110.052 88.1651 110.622C88.1213 110.847 88.2528 111.073 88.4719 111.148C90.7943 111.505 104.391 113.483 110.463 111.98C110.639 111.905 110.751 111.724 110.726 111.536C110.726 111.016 110.726 110.203 110.726 109.696C110.726 109.433 110.57 109.213 110.376 109.213C108.253 109.213 97.0543 109.264 88.7285 108.638C88.5658 108.638 88.4343 108.763 88.4155 108.919Z" fill="#263238"/>
<path d="M99.439 108.701C100.484 108.425 106.619 108.607 107.176 108.863C107.734 109.12 107.464 112.507 106.97 112.719C105.987 113.158 100.397 113.045 99.3889 112.82C98.3811 112.594 98.7254 108.92 99.439 108.701Z" fill="white"/>
<path opacity="0.2" d="M99.5018 146.016L100.347 132.056L105.167 125.427L99.5018 146.016Z" fill="black"/>
<path d="M90.0807 89.5135C89.2481 90.5402 88.3341 91.6733 87.5141 92.7938C86.694 93.9143 85.8489 95.0537 85.0977 96.218C83.5891 98.3902 82.3746 100.757 81.4857 103.248C81.4106 103.536 81.3229 103.818 81.2729 104.087L81.229 104.262C81.229 104.262 81.229 104.293 81.229 104.337C81.2916 104.75 81.4231 105.145 81.6297 105.508C82.2619 106.628 83.0069 107.68 83.8645 108.638C85.7362 110.76 87.7207 112.776 89.8178 114.679L89.8553 114.716C90.4375 115.261 90.4688 116.175 89.9242 116.763C89.4672 117.252 88.741 117.358 88.1589 117.033C85.4858 115.549 82.9818 113.784 80.6844 111.768C79.4324 110.679 78.3244 109.445 77.3791 108.081C76.7782 107.211 76.3525 106.234 76.1271 105.201C76.0645 104.863 76.027 104.525 76.027 104.181C76.027 104.005 76.027 103.811 76.027 103.617C76.027 103.423 76.0583 103.379 76.0771 103.254C76.1334 102.797 76.2273 102.372 76.3149 101.94C76.7093 100.331 77.2665 98.7721 77.9801 97.2822C78.6499 95.8675 79.4011 94.4902 80.2337 93.1631C81.0475 91.8485 81.8863 90.5652 82.8003 89.3445C83.7143 88.1238 84.622 86.9407 85.6924 85.7325C86.7754 84.5494 88.6158 84.4742 89.799 85.5572C90.9133 86.5839 91.0572 88.2929 90.1182 89.4885L90.0807 89.5135Z" fill="#B55B52"/>
<path d="M89.3479 81.513C85.2602 81.7571 83.9205 84.0796 82.512 86.5773C83.764 90.1392 88.9598 95.8609 88.9598 95.8609C88.9598 95.8609 96.7723 81.0748 89.3479 81.513Z" fill="#407BFF"/>
<path d="M134.095 93.5573C127.141 88.9687 117.895 91.5603 113.437 99.3353C106.476 94.7467 97.2303 97.3383 92.7794 105.113C88.3286 112.888 90.3631 122.917 97.3179 127.505L122.514 144.113L138.628 115.943C143.091 108.168 141.057 98.1459 134.095 93.5573Z" fill="#407BFF"/>
<path opacity="0.9" d="M134.095 93.5573C127.141 88.9687 117.895 91.5603 113.437 99.3353C106.476 94.7467 97.2303 97.3383 92.7794 105.113C88.3286 112.888 90.3631 122.917 97.3179 127.505L122.514 144.113L138.628 115.943C143.091 108.168 141.057 98.1459 134.095 93.5573Z" fill="white"/>
<path opacity="0.2" d="M98.8634 124.832C96.0839 122.948 94.1684 120.031 93.5549 116.732C92.8663 113.308 93.4422 109.746 95.1825 106.716C96.8101 103.755 99.5395 101.564 102.782 100.619C105.887 99.7235 109.224 100.243 111.915 102.033L114.307 103.611L115.834 100.938C117.462 97.977 120.197 95.786 123.44 94.8407C126.545 93.9456 129.882 94.4651 132.567 96.2555C138.201 99.9677 139.848 108.106 136.248 114.41L121.669 139.9L98.8634 124.832Z" fill="#407BFF"/>
<path d="M122.978 127.831L115.873 129.815L111.297 107.261L118.402 105.276L122.978 127.831Z" fill="#407BFF"/>
<path d="M107.515 124.307L105.95 116.607L126.759 110.785L128.317 118.485L107.515 124.307Z" fill="#407BFF"/>
<path d="M88.0335 113.677L93.4296 113.809L90.5938 118.147C90.5938 118.147 87.3762 117.352 86.5499 115.079L88.0335 113.677Z" fill="#B55B52"/>
<path d="M95.665 116.938L94.6446 119.223C94.4318 119.724 93.8559 119.962 93.3488 119.755C93.2862 119.73 93.2299 119.699 93.1798 119.662L90.5944 118.147L93.4302 113.808L95.3458 115.574C95.7214 115.918 95.8466 116.463 95.665 116.938Z" fill="#B55B52"/>
<path d="M109.406 238.169C108.649 237.393 105.763 236.373 105.763 236.373C105.763 236.373 103.065 232.748 100.924 226.038C100.874 225.875 100.736 225.75 100.573 225.712L95.6528 224.535C95.3961 224.454 95.1207 224.598 95.0393 224.861C95.033 224.879 95.0268 224.905 95.0268 224.923C94.9454 225.355 95.0268 227.822 95.0268 228.485C95.0268 229.149 95.0268 230.1 95.0268 230.733C95.0706 233.068 95.3272 238.32 95.3272 238.32H95.8719C95.8719 236.73 95.972 235.133 96.1661 233.556C96.4353 232.016 97.5245 233.838 98.1317 235.578C98.7389 237.318 101.187 239.171 104.742 239.259C108.924 239.359 110.176 238.977 109.406 238.169Z" fill="#263238"/>
<path d="M207.439 224.379L217.016 224.467L216.653 235.772L208.653 235.703L207.439 224.379Z" fill="#FFC3BD"/>
<path opacity="0.2" d="M207.444 224.379L217.022 224.473L216.816 230.802L208.12 230.727L207.444 224.379Z" fill="black"/>
<path d="M217.605 179.37C220.948 164.503 226.482 148.802 220.654 135.462L194.061 137.785C194.061 137.785 196.697 169.429 197.404 182.801C198.143 196.704 207.17 228.78 207.17 228.78H218.125C218.125 228.78 219.815 194.763 217.605 179.37Z" fill="#263238"/>
<path d="M218.187 239.265H215.683L215.057 238.42L214.011 239.278H199.889C199.751 238.301 199.882 237.306 200.264 236.398C200.264 236.398 205.166 235.603 207.063 234.301C207.388 234.075 207.789 233.994 208.177 234.075C209.886 234.401 214.405 235.133 216.853 234.182C217.079 234.113 217.316 234.245 217.379 234.47C217.385 234.495 217.392 234.526 217.398 234.551C217.535 236.141 217.805 237.719 218.187 239.265Z" fill="#263238"/>
<path d="M248.735 217.818L257.962 215.233L261.518 225.969L253.812 228.141L248.735 217.818Z" fill="#FFC3BD"/>
<path opacity="0.2" d="M248.742 217.825L257.969 215.233L259.96 221.249L251.584 223.603L248.742 217.825Z" fill="black"/>
<path d="M247.54 176.659C247.001 162.149 246.094 140.445 240.654 134.242L210.875 136.264C210.875 136.264 221.999 167.138 226.287 180.184C230.75 193.749 250.019 222.032 250.019 222.032L259.972 219.171C259.972 219.171 252.904 192.804 247.54 176.659Z" fill="#263238"/>
<path d="M166.81 115.567L167.63 119.517C167.004 123.705 161.733 121.921 161.733 121.921L158.872 122.084C157.827 122.078 156.938 121.314 156.775 120.275L156.18 117.52C155.848 116.356 156.512 115.142 157.664 114.785L160.105 114.24C160.813 114.084 161.551 114.102 162.252 114.297L166.81 115.567Z" fill="#FFC3BD"/>
<path d="M151.799 123.524C147.267 123.518 143.323 120.413 142.246 116.012C142.121 115.505 142.434 114.998 142.935 114.873C143.436 114.748 143.949 115.061 144.074 115.562C145.113 119.837 149.42 122.466 153.702 121.434C157.984 120.401 160.607 116.088 159.574 111.806L133.608 4.43415C133.489 3.92709 133.795 3.42003 134.302 3.30109C134.809 3.18215 135.317 3.48889 135.435 3.99595L161.389 111.355C162.673 116.638 159.436 121.959 154.153 123.243C154.147 123.243 154.14 123.249 154.134 123.249C153.37 123.431 152.588 123.524 151.799 123.524Z" fill="#263238"/>
<path d="M67.3703 52.5042C67.0824 49.9188 71.6459 46.7074 77.8308 45.2113C84.2348 43.6651 89.9188 44.5352 90.5574 47.1581C89.9314 44.5352 96.3291 40.7416 104.868 38.6758C113.406 36.61 120.818 37.0608 121.444 39.6837C120.818 37.0608 129.451 32.7288 140.738 29.9995C152.024 27.2701 161.709 27.1762 162.341 29.7992C161.715 27.1762 168.106 23.3827 176.645 21.3169C185.184 19.2511 192.602 19.7018 193.234 22.3247C192.608 19.7018 197.278 16.3276 203.663 14.8127C209.848 13.3166 215.394 14.0803 216.314 16.5217C212.152 0.740237 175.837 -4.03614 134.897 5.8797C93.9565 15.7955 63.8522 36.5662 67.3703 52.5042Z" fill="#407BFF"/>
<path opacity="0.2" d="M90.5577 47.1583C89.9317 44.5354 96.3294 40.7418 104.868 38.676C113.407 36.6102 120.819 37.061 121.445 39.6839C120.819 37.061 129.451 32.729 140.738 29.9997C152.025 27.2703 161.709 27.1764 162.341 29.7994C161.715 27.1764 168.107 23.3829 176.645 21.3171C185.184 19.2513 192.602 19.702 193.234 22.3249C189.378 6.36192 163.261 -1.02488 134.897 5.83608C106.533 12.697 86.6952 31.1891 90.5577 47.1583Z" fill="black"/>
<path d="M121.444 39.6845C120.818 37.0616 129.451 32.7297 140.737 30.0003C152.024 27.2709 161.708 27.177 162.341 29.8C158.497 13.8307 146.202 3.12611 134.916 5.83669C123.629 8.54727 117.6 23.7153 121.444 39.6845Z" fill="#407BFF"/>
<path d="M167.768 116.024C166.059 113.007 162.954 113.182 160.506 112.563C160.093 112.456 159.436 113.395 159.943 113.984C160.506 114.766 161.37 115.279 162.322 115.417C162.441 116.494 163.818 119.311 166.86 119.004C167.518 118.153 167.843 117.095 167.768 116.024Z" fill="#FFC3BD"/>
<path d="M211.307 91.2293C210.005 93.1824 208.665 95.0729 207.332 96.9822C205.999 98.8915 204.634 100.776 203.25 102.654C200.49 106.41 197.666 110.134 194.693 113.847L193.441 115.43L192.27 115.937C191.644 116.207 191.018 116.488 190.436 116.72L188.721 117.346C187.619 117.709 186.524 118.066 185.453 118.373C183.312 118.999 181.19 119.537 179.087 120.038C176.983 120.539 174.868 120.977 172.764 121.377C170.661 121.778 168.557 122.154 166.392 122.46L163.831 112.632L175.375 108.112C177.284 107.374 179.131 106.585 180.977 105.815C181.891 105.427 182.755 105.026 183.613 104.632L184.802 104.006L185.816 103.443L183.375 105.533C185.848 101.777 188.314 97.9024 190.793 94.0525L194.549 88.2683C195.801 86.3527 197.053 84.4059 198.305 82.5216L211.307 91.2293Z" fill="#407BFF"/>
<g opacity="0.6">
<path opacity="0.6" d="M211.307 91.2293C210.005 93.1824 208.665 95.0729 207.332 96.9822C205.999 98.8915 204.634 100.776 203.25 102.654C200.49 106.41 197.666 110.134 194.693 113.847L193.441 115.43L192.27 115.937C191.644 116.207 191.018 116.488 190.436 116.72L188.721 117.346C187.619 117.709 186.524 118.066 185.453 118.373C183.312 118.999 181.19 119.537 179.087 120.038C176.983 120.539 174.868 120.977 172.764 121.377C170.661 121.778 168.557 122.154 166.392 122.46L163.831 112.632L175.375 108.112C177.284 107.374 179.131 106.585 180.977 105.815C181.891 105.427 182.755 105.026 183.613 104.632L184.802 104.006L185.816 103.443L183.375 105.533C185.848 101.777 188.314 97.9024 190.793 94.0525L194.549 88.2683C195.801 86.3527 197.053 84.4059 198.305 82.5216L211.307 91.2293Z" fill="white"/>
</g>
<path d="M205.003 77.3257C213.755 75.6855 222.663 75.022 231.558 75.3475C236.51 75.6292 240.291 79.8735 240.009 84.8189C239.997 84.9879 239.984 85.1569 239.965 85.3259C237.724 106.46 242.025 131.299 241.968 135.443C241.968 135.443 203.156 151.425 192.771 139.318C187.763 114.128 194.975 92.1932 198.343 83.0223C199.419 80.0926 201.942 77.9329 205.003 77.3257Z" fill="#407BFF"/>
<path d="M240.296 79.1343C238.624 76.9934 235.651 74.1764 225.679 74.6897C217.027 82.2643 210.999 92.6935 210.999 92.6935C210.999 92.6935 205.503 84.9248 210.717 76.1045C204.977 76.261 201.221 78.0388 199.869 78.9778C198.517 79.9168 191.887 92.537 190.422 112.569C188.958 132.601 192.182 170.061 193.434 179.657C212.107 187.169 242.988 178.718 249.561 172.145C248.728 156.915 242.994 134.066 241.949 124.363C240.903 114.66 243.006 83.3598 240.296 79.1343Z" fill="#407BFF"/>
<path opacity="0.7" d="M240.296 79.1343C238.624 76.9934 235.651 74.1764 225.679 74.6897C217.027 82.2643 210.999 92.6935 210.999 92.6935C210.999 92.6935 205.503 84.9248 210.717 76.1045C204.977 76.261 201.221 78.0388 199.869 78.9778C198.517 79.9168 191.887 92.537 190.422 112.569C188.958 132.601 192.182 170.061 193.434 179.657C212.107 187.169 242.988 178.718 249.561 172.145C248.728 156.915 242.994 134.066 241.949 124.363C240.903 114.66 243.006 83.3598 240.296 79.1343Z" fill="white"/>
<path d="M209.316 78.477C209.798 77.3002 210.655 76.3236 211.763 75.6976C212.095 74.5395 212.014 73.3063 211.538 72.2045L224.227 66.8647C223.557 71.278 223.044 74.7649 224.853 76.718C222.424 78.5146 217.967 81.7573 212.827 82.0765C207.688 82.3958 208.646 80.3613 209.316 78.477Z" fill="#FFC3BD"/>
<path opacity="0.2" d="M211.676 72.6117L221.429 71.1469C218.662 74.7025 214.123 76.3552 211.889 75.2159C212.039 74.3457 211.97 73.4443 211.676 72.6117Z" fill="black"/>
<path d="M212.508 82.0889L214.468 80.1233L217.448 81.2939C217.448 81.2939 215.782 83.1719 212.508 82.0889Z" fill="#407BFF"/>
<path opacity="0.3" d="M212.508 82.0889L214.468 80.1233L217.448 81.2939C217.448 81.2939 215.782 83.1719 212.508 82.0889Z" fill="black"/>
<path d="M211.32 64.8995C208.759 64.4926 207.564 60.7929 209.241 58.7397C210.919 56.6864 206.938 55.8976 208.258 53.9195C209.579 51.9413 213.367 49.9569 215.676 51.7785C217.986 53.6002 212.741 58.9901 213.874 62.1827C213.072 63.1342 212.215 64.0356 211.32 64.8995Z" fill="#263238"/>
<path d="M226.168 59.9726C225.191 66.1888 224.396 70.3892 220.534 72.6866C212.834 77.2502 208.828 73.4316 207.926 67.0526C207.112 61.2997 208.84 52.1038 215.2 50.2508C219.795 48.9174 224.603 51.5591 225.936 56.154C226.299 57.3935 226.374 58.6955 226.168 59.9726Z" fill="#FFC3BD"/>
<path d="M223.395 66.5584C220.985 65.6131 220.603 61.7319 222.7 60.0981C224.797 58.4642 221.066 56.8241 222.788 55.1714C224.509 53.5188 229.567 51.9037 230.488 54.6894C231.934 59.0714 226.062 61.0997 226.475 64.4613C225.486 65.2125 224.459 65.9136 223.395 66.5584Z" fill="#263238"/>
<path d="M224.007 54.9088C217.979 56.9871 219.412 52.7554 216.057 53.3438C212.701 53.9322 209.358 54.5082 208.676 51.4658C208.119 49.0119 209.747 46.7708 212.977 46.9899C211.305 48.1042 211.725 49.2122 213.371 48.6551C215.018 48.0979 219.174 44.0727 221.346 47.2779C223.519 50.483 227.256 48.0228 229.002 50.1136C230.749 52.2045 227.951 55.7101 224.007 54.9088Z" fill="#263238"/>
<path d="M209.354 71.572C209.711 70.9648 210.306 70.5329 211 70.3951C211.846 70.6831 212.622 71.1526 213.273 71.7598C213.586 73.2747 210.143 74.8022 209.642 75.0088C209.467 73.6566 209.354 71.572 209.354 71.572Z" fill="#263238"/>
<path opacity="0.2" d="M217.848 60.4104C218.568 60.1475 219.363 60.1851 220.058 60.5106C219.32 60.617 218.575 60.5857 217.848 60.4104Z" fill="black"/>
<path opacity="0.2" d="M217.848 60.937C218.543 60.8431 219.244 61.056 219.77 61.5255C219.094 61.4691 218.437 61.2688 217.848 60.937Z" fill="black"/>
<path opacity="0.2" d="M209.228 59.6842C209.228 59.6842 208.715 59.0582 208.333 59.4088C208.583 59.6153 208.902 59.7092 209.228 59.6842Z" fill="black"/>
<path opacity="0.2" d="M209.134 60.1727C209.134 60.1727 208.715 59.6218 208.446 60.1727C208.652 60.3104 208.928 60.3104 209.134 60.1727Z" fill="black"/>
<path opacity="0.2" d="M211.107 54.8709C212.935 54.5328 214.8 54.4515 216.653 54.6205C213.579 54.9084 211.107 54.8709 211.107 54.8709Z" fill="black"/>
<path opacity="0.2" d="M210.392 55.7098C210.392 55.7098 214.63 55.5596 216.752 56.3984C214.617 56.3421 212.489 56.1104 210.392 55.7098Z" fill="black"/>
<path d="M228.552 66.4078C227.67 67.7162 226.305 68.6176 224.759 68.9118C222.699 69.2937 221.835 67.4094 222.543 65.5565C223.169 63.8913 225.047 61.6878 227.031 62.1385C229.015 62.5892 229.61 64.7865 228.552 66.4078Z" fill="#FFC3BD"/>
<path d="M216.158 60.5862C216.108 61.0932 215.801 61.4751 215.469 61.4438C215.137 61.4125 214.906 60.968 214.95 60.461C214.993 59.9539 215.306 59.5658 215.644 59.5971C215.982 59.6284 216.208 60.0916 216.158 60.5862Z" fill="#263238"/>
<path d="M210.755 60.1483C210.705 60.6554 210.399 61.0372 210.067 61.0059C209.735 60.9746 209.503 60.5302 209.547 60.0231C209.591 59.5161 209.904 59.1279 210.242 59.1592C210.58 59.1905 210.805 59.635 210.755 60.1483Z" fill="#263238"/>
<path d="M215.507 66.2263C216.309 66.8148 218.587 66.4329 218.744 65.6003C220.215 66.6019 219.013 68.1607 216.866 68.6364C214.719 69.1122 211.933 68.242 211.319 67.4658L211.394 64.8929C213.022 64.5862 214.093 65.1997 215.507 66.2263Z" fill="#263238"/>
<path d="M208.327 65.5819C207.457 66.1578 206.894 65.7885 206.925 64.9559C205.56 65.7822 205.673 67.0843 207.269 67.7917C208.866 68.4991 210.712 68.1735 211.345 67.4787L211.495 64.9371C210.268 64.4739 209.642 64.718 208.327 65.5819Z" fill="#263238"/>
<path d="M212.471 60.7179L212.095 64.9997C212.095 64.9997 210.43 65.2251 209.535 64.4113C210.161 62.9402 211.175 61.6632 212.471 60.7179Z" fill="#ED847E"/>
<path d="M217.993 59.0717C218.049 59.0717 218.099 59.0592 218.143 59.0279C218.281 58.9402 218.325 58.7524 218.237 58.6147C217.749 57.7759 216.885 57.2187 215.921 57.1311C215.758 57.1248 215.62 57.25 215.614 57.4128V57.419C215.608 57.5818 215.733 57.7258 215.902 57.732C216.666 57.8134 217.348 58.2579 217.73 58.9277C217.786 59.0216 217.887 59.0779 217.993 59.0717Z" fill="#263238"/>
<path d="M207.97 58.3262C208.07 58.3325 208.17 58.2886 208.233 58.2073C208.684 57.5938 209.404 57.237 210.167 57.2495C210.33 57.262 210.48 57.1431 210.493 56.974C210.505 56.8113 210.38 56.6673 210.217 56.6485C209.253 56.6172 208.333 57.0617 207.757 57.8379C207.657 57.9694 207.676 58.1572 207.807 58.2573C207.857 58.2949 207.914 58.3199 207.97 58.3262Z" fill="#263238"/>
<path d="M252.442 129.534L256.198 128.069C260.436 128.031 259.547 133.49 259.547 133.49L260.173 136.288C260.342 137.321 259.734 138.323 258.739 138.648L256.116 139.694C255.027 140.207 253.719 139.756 253.18 138.68L252.235 136.364C251.96 135.687 251.859 134.961 251.935 134.235L252.442 129.534Z" fill="#FFC3BD"/>
<path d="M239.508 78.2955L240.328 78.9215L241.067 79.5475C241.549 79.9482 242.012 80.3551 242.475 80.762C243.402 81.582 244.31 82.4084 245.198 83.266C246.976 84.9624 248.685 86.7591 250.338 88.6371C251.17 89.5761 251.978 90.5464 252.761 91.5417C253.543 92.537 254.3 93.5825 255.039 94.6717C256.579 96.9065 257.919 99.2791 259.033 101.752L259.59 103.004L259.659 103.93C259.828 106.109 259.96 108.312 260.097 110.484L260.517 117.039C260.755 121.421 260.992 125.803 261.143 130.185L250.144 131.405C249.318 127.111 248.585 122.804 247.84 118.504L246.788 112.049C246.438 109.896 246.087 107.743 245.768 105.589L246.394 107.768C245.505 106.178 244.479 104.663 243.327 103.248C242.112 101.752 240.773 100.274 239.345 98.8283C237.918 97.3823 236.397 95.9863 234.832 94.6341C234.049 93.9518 233.254 93.282 232.447 92.6372L231.245 91.6857L230.65 91.2287L230.131 90.8406L239.508 78.2955Z" fill="#407BFF"/>
<g opacity="0.7">
<path opacity="0.7" d="M239.508 78.2955L240.328 78.9215L241.067 79.5475C241.549 79.9482 242.012 80.3551 242.475 80.762C243.402 81.582 244.31 82.4084 245.198 83.266C246.976 84.9624 248.685 86.7591 250.338 88.6371C251.17 89.5761 251.978 90.5464 252.761 91.5417C253.543 92.537 254.3 93.5825 255.039 94.6717C256.579 96.9065 257.919 99.2791 259.033 101.752L259.59 103.004L259.659 103.93C259.828 106.109 259.96 108.312 260.097 110.484L260.517 117.039C260.755 121.421 260.992 125.803 261.143 130.185L250.144 131.405C249.318 127.111 248.585 122.804 247.84 118.504L246.788 112.049C246.438 109.896 246.087 107.743 245.768 105.589L246.394 107.768C245.505 106.178 244.479 104.663 243.327 103.248C242.112 101.752 240.773 100.274 239.345 98.8283C237.918 97.3823 236.397 95.9863 234.832 94.6341C234.049 93.9518 233.254 93.282 232.447 92.6372L231.245 91.6857L230.65 91.2287L230.131 90.8406L239.508 78.2955Z" fill="white"/>
</g>
<path d="M223.689 73.9827C223.689 73.9827 219.933 79.3725 214.468 80.1362C216.678 81.0502 218.65 82.4524 220.233 84.2365C220.233 84.2365 225.867 79.8545 226.637 75.5602C226.093 74.014 223.689 73.9827 223.689 73.9827Z" fill="#407BFF"/>
<path opacity="0.3" d="M214.337 180.39C214.187 180.39 214.055 180.29 214.03 180.14C205.391 137.528 210.512 93.877 210.562 93.4388C210.581 93.2635 210.737 93.1445 210.913 93.1633C211.088 93.1821 211.207 93.3386 211.188 93.5139C211.138 93.9521 206.03 137.503 214.65 180.015C214.681 180.184 214.575 180.346 214.406 180.384L214.337 180.39Z" fill="#407BFF"/>
<path d="M223.57 104.318H214.148C213.547 104.337 213.047 103.861 213.028 103.26C213.028 103.185 213.034 103.11 213.047 103.035L213.673 98.7342C213.817 98.0205 214.43 97.501 215.156 97.4822H224.546C225.147 97.4697 225.648 97.9454 225.66 98.5464C225.66 98.609 225.66 98.6716 225.648 98.7342L225.022 103.035C224.897 103.748 224.296 104.281 223.57 104.318Z" fill="white"/>
<path d="M220.234 98.5026H219.213C219.063 98.5089 218.932 98.3899 218.925 98.2397C218.925 98.2209 218.925 98.1959 218.932 98.1771L219.314 95.623C219.345 95.4352 219.501 95.3037 219.689 95.2975H220.71C220.86 95.2912 220.991 95.4102 220.998 95.5604C220.998 95.5792 220.998 95.6042 220.991 95.623L220.609 98.1771C220.578 98.3649 220.422 98.4963 220.234 98.5026Z" fill="#407BFF"/>
<path d="M212.509 82.0892L209.911 80.1549L206.938 81.338C206.937 81.338 209.485 83.7419 212.509 82.0892Z" fill="#407BFF"/>
<path opacity="0.3" d="M212.509 82.0892L209.911 80.1549L206.938 81.338C206.937 81.338 209.485 83.7419 212.509 82.0892Z" fill="black"/>
<path d="M211.764 75.6982C211.764 75.6982 209.886 78.365 209.886 80.1553C208.008 81.0192 205.166 83.4168 205.166 83.4168C205.166 83.4168 205.535 79.6608 209.297 76.3868C210.03 75.911 210.894 75.6732 211.764 75.6982Z" fill="#407BFF"/>
<path d="M264.492 226.865L262.77 228.041L261.831 227.66L261.406 228.98L251.027 236.073C250.401 235.297 249.994 234.377 249.844 233.394C249.844 233.394 252.761 230.99 252.892 228.624C252.898 228.442 253.011 228.286 253.174 228.211C254.357 227.722 258.989 225.707 260.686 223.334C260.83 223.127 261.112 223.077 261.312 223.221C261.356 223.253 261.393 223.29 261.425 223.334C262.357 224.586 263.384 225.769 264.492 226.865Z" fill="#263238"/>
</svg>
