<svg width="310" height="265" viewBox="0 0 310 265" fill="none" xmlns="http://www.w3.org/2000/svg">
<g clip-path="url(#clip0)">
<path d="M216.715 244.772H210.058V244.964H216.715V244.772Z" fill="#EBEBEB"/>
<path d="M36.2676 236.85H3.18408V237.042H36.2676V236.85Z" fill="#EBEBEB"/>
<path d="M47.9416 236.85H43.0928V237.042H47.9416V236.85Z" fill="#EBEBEB"/>
<path d="M169.421 230.332H300.047L309.316 0.63269H178.69L169.421 230.332Z" fill="#E6E6E6"/>
<path d="M166.228 230.332H296.854L306.122 0.63269H175.496L166.228 230.332Z" fill="#F0F0F0"/>
<path d="M290.595 223.8L299.343 7.1655H181.754L173.014 223.8H290.595Z" fill="#FAFAFA"/>
<path d="M42.1966 45.2185L49.0293 62.107C48.8301 110.938 51.0362 113.755 51.0515 122.154H33.8012C33.1807 81.2755 39.2245 90.4644 42.1966 45.2185Z" fill="#EBEBEB"/>
<path d="M51.856 95.0858C37.9377 56.7641 5.9649 68.6321 7.42796 82.6343C8.89102 96.6364 59.8147 117.125 51.856 95.0858Z" fill="#EBEBEB"/>
<path d="M46.5783 117.179C38.9949 92.4834 18.8491 96.5136 18.8491 107.86C18.8491 119.206 50.9368 131.388 46.5783 117.179Z" fill="#EBEBEB"/>
<path d="M46.0341 72.6086C34.1382 39.5992 4.50927 44.1361 6.89919 58.0691C9.28911 72.0022 52.8745 91.5929 46.0341 72.6086Z" fill="#EBEBEB"/>
<path d="M46.1187 57.8005C47.2217 35.308 24.9924 26.05 26.532 39.4917C28.0717 52.9335 45.4829 70.7356 46.1187 57.8005Z" fill="#EBEBEB"/>
<path d="M44.4566 80.8303C49.1521 53.1177 77.632 42.57 74.4531 58.261C71.2742 73.952 41.7602 96.7669 44.4566 80.8303Z" fill="#EBEBEB"/>
<path d="M42.0586 65.1623C36.528 36.0987 62.1124 23.1866 62.8478 37.1964C63.5832 51.2062 45.2375 81.8666 42.0586 65.1623Z" fill="#EBEBEB"/>
<path d="M39.8374 97.9875C51.1436 69.9832 75.3492 76.9306 72.9056 89.6738C70.4621 102.417 33.3341 114.108 39.8374 97.9875Z" fill="#EBEBEB"/>
<path d="M45.4214 117.548C45.1686 99.4768 61.5074 94.8094 61.7219 105.265C61.9363 115.721 45.5592 127.926 45.4214 117.548Z" fill="#EBEBEB"/>
<path d="M40.4194 139.441C31.5721 139.464 23.8968 133.315 21.9818 124.656C21.5375 122.407 20.8941 120.196 20.0591 118.054L19.9136 117.709H60.9099L60.7643 118.054C59.9294 120.196 59.286 122.407 58.8417 124.656C56.9267 133.308 49.2667 139.464 40.4194 139.441Z" fill="#E0E0E0"/>
<path d="M19.0328 139.411H0.840332V230.325H19.0328V139.411Z" fill="#E6E6E6"/>
<path d="M6.30206 230.332H0.848145V219.378H12.0164L6.30206 230.332Z" fill="#F0F0F0"/>
<path d="M143.737 139.411H125.545V230.325H143.737V139.411Z" fill="#E6E6E6"/>
<path d="M130.294 139.411H0.840332V226.678H130.294V139.411Z" fill="#F0F0F0"/>
<path d="M124.848 230.332H130.302V219.378H119.126L124.848 230.332Z" fill="#F0F0F0"/>
<path d="M126.066 145.552H5.07617V180.473H126.066V145.552Z" fill="#E6E6E6"/>
<path d="M37.7537 156.407H89.7191C95.0428 156.407 100.129 152.1 103.791 144.492H23.6899C27.3438 152.1 32.4377 156.407 37.7537 156.407Z" fill="#F0F0F0"/>
<path d="M126.066 186.123H5.07617V221.044H126.066V186.123Z" fill="#E6E6E6"/>
<path d="M37.7537 196.97H89.7191C95.0428 196.97 100.129 192.663 103.791 185.056H23.6899C27.3438 192.663 32.4377 196.97 37.7537 196.97Z" fill="#F0F0F0"/>
<path d="M154.5 265C236.525 265 303.019 261.109 303.019 256.31C303.019 251.511 236.525 247.62 154.5 247.62C72.4745 247.62 5.97998 251.511 5.97998 256.31C5.97998 261.109 72.4745 265 154.5 265Z" fill="#F5F5F5"/>
<path d="M273.13 179.053H74.9199C70.9444 179.114 67.6736 175.928 67.6123 171.944C67.6046 171.66 67.62 171.384 67.6506 171.1L79.5542 29.0822C79.9985 24.6298 83.6906 21.2137 88.1564 21.1293H286.367C290.35 21.0755 293.628 24.269 293.682 28.2608C293.682 28.5372 293.674 28.8059 293.644 29.0822L281.74 171.1C281.288 175.552 277.596 178.96 273.13 179.053Z" fill="#407BFF"/>
<path opacity="0.7" d="M273.13 179.053H74.9199C70.9444 179.114 67.6736 175.928 67.6123 171.944C67.6046 171.66 67.62 171.384 67.6506 171.1L79.5542 29.0822C79.9985 24.6298 83.6906 21.2137 88.1564 21.1293H286.367C290.35 21.0755 293.628 24.269 293.682 28.2608C293.682 28.5372 293.674 28.8059 293.644 29.0822L281.74 171.1C281.288 175.552 277.596 178.96 273.13 179.053Z" fill="white"/>
<path d="M75.1807 175.982C72.7448 176.028 70.7379 174.078 70.6919 171.637C70.6919 171.46 70.6996 171.276 70.7149 171.1L82.6185 29.0822C82.8866 26.3493 85.1616 24.246 87.9039 24.1999H286.106C288.55 24.1538 290.557 26.1037 290.603 28.5525C290.603 28.7291 290.595 28.9057 290.58 29.0822L278.676 171.1C278.408 173.832 276.133 175.936 273.391 175.982H75.1807Z" fill="white"/>
<path opacity="0.1" d="M145.668 52.0507H97.3027C94.4072 52.0507 91.8564 54.2385 91.6343 56.9176L81.6763 175.982H140.566L150.524 56.9176C150.739 54.2308 148.556 52.0507 145.668 52.0507Z" fill="#407BFF"/>
<path d="M144.167 54.9985H98.3061C96.1536 55.0445 94.3765 56.695 94.1467 58.8368L91.8487 86.3958C91.6572 88.3073 93.0437 90.0192 94.9587 90.2188C95.0966 90.2342 95.2344 90.2418 95.3647 90.2341H141.217C143.37 90.1958 145.162 88.5453 145.377 86.3958L147.675 58.8368C147.859 56.91 146.457 55.1981 144.534 55.0138C144.412 55.0061 144.289 54.9985 144.167 54.9985Z" fill="white"/>
<path d="M140.865 94.4026H95.0048C92.8524 94.4486 91.0676 96.0914 90.8455 98.2409L88.5475 125.8C88.356 127.711 89.7424 129.423 91.6574 129.623C91.7953 129.638 91.9332 129.646 92.0634 129.638H137.916C140.069 129.6 141.861 127.949 142.076 125.8L144.374 98.2409C144.557 96.314 143.156 94.6022 141.233 94.4179C141.11 94.4102 140.988 94.4026 140.865 94.4026Z" fill="white"/>
<path d="M137.564 133.814H91.6879C89.5355 133.86 87.7507 135.503 87.5286 137.653L85.2306 165.212C85.0391 167.123 86.4255 168.835 88.3405 169.035C88.4784 169.05 88.6163 169.058 88.7465 169.05H134.584C136.736 169.004 138.521 167.361 138.743 165.212L141.041 137.653C141.233 135.741 139.846 134.029 137.931 133.83C137.809 133.822 137.686 133.814 137.564 133.814Z" fill="white"/>
<path opacity="0.5" d="M106.87 70.4745H98.7579C97.877 70.4899 97.1569 69.7836 97.1416 68.9008C97.1416 68.8394 97.1416 68.778 97.1493 68.7166L97.831 60.587C97.9382 59.6044 98.7502 58.8521 99.7383 58.8291H107.843C108.724 58.8137 109.444 59.52 109.459 60.4028C109.459 60.4642 109.459 60.5256 109.451 60.587L108.769 68.7166C108.67 69.6992 107.858 70.4515 106.87 70.4745Z" fill="#2960CD"/>
<path opacity="0.2" d="M135.664 63.7805H115.327C114.66 63.7882 114.117 63.2585 114.109 62.5907C114.109 62.5446 114.109 62.4985 114.117 62.4525C114.193 61.7155 114.806 61.1475 115.549 61.1321H135.886C136.553 61.1244 137.097 61.6618 137.104 62.322C137.104 62.368 137.104 62.4064 137.097 62.4525C137.02 63.1971 136.407 63.7652 135.664 63.7805Z" fill="#263238"/>
<path opacity="0.2" d="M127.253 68.1715H114.959C114.293 68.1792 113.749 67.6419 113.741 66.9817C113.741 66.9356 113.741 66.8972 113.749 66.8512C113.825 66.1142 114.431 65.5462 115.174 65.5231H127.476C128.142 65.5154 128.686 66.0451 128.694 66.713C128.694 66.7591 128.694 66.8051 128.686 66.8512C128.609 67.5881 127.996 68.1562 127.253 68.1715Z" fill="#263238"/>
<path opacity="0.5" d="M103.569 109.886H95.4566C94.5757 109.902 93.8557 109.195 93.8403 108.313C93.8403 108.251 93.8403 108.19 93.848 108.128L94.5297 99.9988C94.6293 99.0162 95.4489 98.2562 96.4371 98.2408H104.541C105.422 98.2255 106.142 98.9317 106.158 99.8146C106.158 99.876 106.158 99.9374 106.15 99.9988L105.476 108.128C105.376 109.111 104.557 109.871 103.569 109.886Z" fill="#2960CD"/>
<path opacity="0.2" d="M132.362 103.192H112.017C111.351 103.192 110.815 102.663 110.807 101.995C110.807 101.949 110.807 101.91 110.815 101.864C110.891 101.127 111.504 100.559 112.24 100.544H132.584C133.251 100.536 133.795 101.074 133.802 101.734C133.802 101.78 133.802 101.818 133.795 101.864C133.718 102.609 133.105 103.177 132.362 103.192Z" fill="#263238"/>
<path opacity="0.2" d="M123.952 107.583H111.65C110.991 107.591 110.447 107.061 110.439 106.401C110.439 106.355 110.439 106.309 110.447 106.263C110.524 105.526 111.129 104.958 111.872 104.935H124.174C124.84 104.927 125.384 105.457 125.392 106.125C125.392 106.171 125.392 106.217 125.384 106.263C125.308 107 124.695 107.568 123.952 107.583Z" fill="#263238"/>
<path opacity="0.5" d="M100.26 149.298H92.1553C91.2744 149.306 90.5467 148.592 90.5391 147.709C90.5391 147.648 90.5391 147.594 90.5467 147.532L91.2285 139.441C91.328 138.459 92.14 137.706 93.1281 137.683H101.24C102.121 137.668 102.841 138.374 102.856 139.257C102.856 139.318 102.856 139.38 102.849 139.441L102.167 147.563C102.052 148.538 101.24 149.275 100.26 149.298Z" fill="#2960CD"/>
<path opacity="0.2" d="M129.061 142.596H108.716C108.057 142.604 107.514 142.074 107.506 141.414C107.506 141.368 107.506 141.322 107.514 141.276C107.59 140.539 108.195 139.971 108.938 139.956H129.283C129.942 139.94 130.486 140.47 130.501 141.13C130.501 141.176 130.501 141.23 130.494 141.276C130.417 142.013 129.804 142.581 129.061 142.596Z" fill="#263238"/>
<path opacity="0.2" d="M120.65 146.995H108.348C107.682 146.995 107.146 146.465 107.138 145.798C107.138 145.751 107.138 145.713 107.146 145.667C107.215 144.93 107.828 144.362 108.571 144.347H120.873C121.539 144.347 122.083 144.884 122.09 145.552C122.09 145.59 122.09 145.629 122.083 145.667C122.006 146.412 121.393 146.98 120.65 146.995Z" fill="#263238"/>
<path opacity="0.1" d="M208.886 52.0507H160.483C157.595 52.0507 155.044 54.2385 154.822 56.9176L144.864 175.982H203.746L213.704 56.9176C213.926 54.2308 211.743 52.0507 208.886 52.0507Z" fill="#407BFF"/>
<path d="M207.354 54.9985H161.494C159.341 55.0445 157.556 56.6873 157.334 58.8368L155.036 86.3958C154.845 88.3073 156.231 90.0192 158.146 90.2188C158.276 90.2342 158.414 90.2418 158.545 90.2341H204.405C206.557 90.1881 208.342 88.5453 208.564 86.3958L210.862 58.8368C211.054 56.9176 209.652 55.2057 207.737 55.0138C207.614 55.0061 207.484 54.9985 207.354 54.9985Z" fill="white"/>
<path d="M204.045 94.4026H158.192C156.04 94.4486 154.255 96.0914 154.033 98.2409L151.735 125.8C151.543 127.719 152.945 129.431 154.86 129.623C154.99 129.638 155.121 129.638 155.251 129.638H201.111C203.264 129.592 205.048 127.949 205.271 125.8L207.569 98.2409C207.76 96.3217 206.358 94.6098 204.443 94.4179C204.313 94.4026 204.175 94.4026 204.045 94.4026Z" fill="white"/>
<path d="M200.743 133.814H154.89C152.738 133.853 150.946 135.503 150.731 137.653L148.433 165.212C148.242 167.131 149.643 168.843 151.558 169.035C151.689 169.05 151.819 169.05 151.949 169.05H197.809C199.962 169.004 201.747 167.361 201.969 165.212L204.267 137.653C204.458 135.741 203.072 134.029 201.157 133.83C201.019 133.814 200.881 133.814 200.743 133.814Z" fill="white"/>
<path opacity="0.5" d="M170.05 70.4745H161.945C161.064 70.4899 160.344 69.7836 160.329 68.9008C160.329 68.8394 160.329 68.778 160.337 68.7166L161.019 60.5871C161.118 59.6045 161.938 58.8521 162.926 58.8368H171.038C171.919 58.8214 172.639 59.5277 172.654 60.4105C172.654 60.4719 172.654 60.5333 172.646 60.5947L171.965 68.7243C171.857 69.7069 171.038 70.4592 170.05 70.4745Z" fill="#2960CD"/>
<path opacity="0.2" d="M198.851 63.7805H178.507C177.84 63.7882 177.296 63.2585 177.289 62.5907C177.289 62.5446 177.289 62.4985 177.296 62.4525C177.373 61.7155 177.986 61.1475 178.729 61.1321H199.074C199.732 61.1244 200.276 61.6541 200.284 62.3143C200.284 62.3604 200.284 62.4064 200.276 62.4525C200.2 63.1894 199.594 63.7575 198.851 63.7805Z" fill="#263238"/>
<path opacity="0.2" d="M190.441 68.1716H178.139C177.472 68.1792 176.929 67.6419 176.921 66.9817C176.921 66.9356 176.921 66.8972 176.929 66.8512C177.005 66.1066 177.618 65.5385 178.361 65.5231H190.663C191.329 65.5231 191.866 66.0528 191.873 66.7207C191.873 66.7667 191.873 66.8051 191.866 66.8512C191.789 67.5881 191.176 68.1562 190.441 68.1716Z" fill="#263238"/>
<path opacity="0.5" d="M166.756 109.886H158.644C157.763 109.902 157.043 109.195 157.028 108.313C157.028 108.251 157.028 108.19 157.035 108.128L157.717 99.9988C157.817 99.0162 158.629 98.2562 159.617 98.2409H167.721C168.594 98.2255 169.322 98.9164 169.337 99.7992C169.337 99.8683 169.337 99.9374 169.33 99.9988L168.656 108.128C168.548 109.111 167.737 109.863 166.756 109.886Z" fill="#2960CD"/>
<path opacity="0.2" d="M195.55 103.192H175.182C174.515 103.2 173.972 102.67 173.964 102.002C173.964 101.956 173.964 101.91 173.972 101.864C174.048 101.127 174.661 100.559 175.404 100.544H195.749C196.408 100.536 196.952 101.066 196.959 101.726C196.959 101.772 196.959 101.818 196.952 101.864C196.883 102.593 196.285 103.162 195.55 103.192Z" fill="#263238"/>
<path opacity="0.2" d="M187.139 107.583H174.837C174.171 107.591 173.627 107.054 173.619 106.393C173.619 106.347 173.619 106.309 173.627 106.263C173.703 105.518 174.316 104.95 175.059 104.935H187.354C188.02 104.927 188.564 105.457 188.571 106.125C188.571 106.171 188.571 106.217 188.564 106.263C188.487 107 187.874 107.568 187.139 107.583Z" fill="#263238"/>
<path opacity="0.5" d="M163.447 149.298H155.342C154.461 149.306 153.734 148.592 153.726 147.709C153.726 147.648 153.726 147.594 153.734 147.532L154.415 139.411C154.515 138.428 155.327 137.668 156.315 137.653H164.458C165.339 137.637 166.059 138.343 166.074 139.226C166.074 139.288 166.074 139.349 166.066 139.411L165.385 147.532C165.285 148.53 164.45 149.298 163.447 149.298Z" fill="#2960CD"/>
<path opacity="0.2" d="M192.248 142.596H171.903C171.245 142.612 170.701 142.082 170.686 141.422C170.686 141.376 170.686 141.322 170.693 141.276C170.77 140.539 171.383 139.971 172.126 139.956H192.463C193.122 139.94 193.666 140.47 193.681 141.13C193.681 141.176 193.681 141.23 193.673 141.276C193.597 142.013 192.991 142.581 192.248 142.596Z" fill="#263238"/>
<path opacity="0.2" d="M183.83 146.995H171.536C170.869 147.003 170.326 146.473 170.318 145.805C170.318 145.759 170.318 145.713 170.326 145.667C170.402 144.93 171.015 144.362 171.758 144.347H184.052C184.719 144.339 185.263 144.876 185.27 145.536C185.27 145.583 185.27 145.621 185.263 145.667C185.186 146.412 184.573 146.98 183.83 146.995Z" fill="#263238"/>
<path opacity="0.1" d="M272.035 52.0507H223.67C220.828 52.0046 218.392 54.0927 218.001 56.9176L208.043 175.982H266.926L276.884 56.9176C277.114 54.2308 274.931 52.0507 272.035 52.0507Z" fill="#407BFF"/>
<path d="M270.533 54.9985H224.681C222.528 55.0445 220.743 56.6873 220.521 58.8368L218.223 86.3958C218.032 88.3073 219.418 90.0192 221.333 90.2188C221.471 90.2342 221.609 90.2418 221.739 90.2341H267.592C269.744 90.1958 271.537 88.5453 271.751 86.3958L274.049 58.8368C274.241 56.9176 272.839 55.2057 270.924 55.0138C270.794 54.9985 270.664 54.9985 270.533 54.9985Z" fill="white"/>
<path d="M267.232 94.4026H221.379C219.227 94.4486 217.442 96.0914 217.22 98.2409L214.922 125.8C214.73 127.711 216.117 129.423 218.032 129.623C218.17 129.638 218.308 129.646 218.438 129.638H264.291C266.443 129.6 268.236 127.949 268.45 125.8L270.748 98.2409C270.932 96.314 269.53 94.6022 267.607 94.4179C267.485 94.4102 267.355 94.4026 267.232 94.4026Z" fill="white"/>
<path d="M263.931 133.814H218.078C215.926 133.86 214.141 135.503 213.919 137.653L211.621 165.212C211.429 167.123 212.816 168.835 214.731 169.035C214.869 169.05 215.006 169.058 215.137 169.05H260.974C263.127 169.012 264.919 167.361 265.133 165.212L267.431 137.653C267.623 135.733 266.221 134.022 264.306 133.83C264.184 133.822 264.053 133.814 263.931 133.814Z" fill="white"/>
<path opacity="0.5" d="M233.237 70.4745H225.133C224.26 70.4899 223.532 69.799 223.517 68.9162C223.517 68.8471 223.517 68.778 223.524 68.7166L224.198 60.587C224.306 59.6044 225.118 58.8521 226.106 58.8291H234.21C235.091 58.8137 235.811 59.52 235.826 60.4028C235.826 60.4642 235.826 60.5256 235.819 60.587L235.137 68.7166C235.037 69.6992 234.225 70.4592 233.237 70.4745Z" fill="#2960CD"/>
<path opacity="0.2" d="M262.031 63.7805H241.694C241.027 63.7882 240.483 63.2585 240.476 62.5907C240.476 62.5446 240.476 62.4985 240.483 62.4525C240.56 61.7155 241.173 61.1475 241.916 61.1321H262.253C262.919 61.1244 263.463 61.6618 263.471 62.322C263.471 62.368 263.471 62.4064 263.463 62.4525C263.387 63.1971 262.774 63.7652 262.031 63.7805Z" fill="#263238"/>
<path opacity="0.2" d="M253.62 68.1715H241.364C240.698 68.1792 240.154 67.6419 240.146 66.9817C240.146 66.9356 240.146 66.8972 240.154 66.8512C240.231 66.1065 240.844 65.5385 241.587 65.5231H253.881C254.547 65.5154 255.091 66.0451 255.099 66.713C255.099 66.7591 255.099 66.8051 255.091 66.8512C255.015 67.6035 254.379 68.1792 253.62 68.1715Z" fill="#263238"/>
<path opacity="0.5" d="M229.936 109.886H221.824C220.943 109.902 220.223 109.195 220.208 108.313C220.208 108.251 220.208 108.19 220.215 108.128L220.897 99.9988C221.004 99.0162 221.816 98.2639 222.804 98.2408H230.909C231.789 98.2255 232.509 98.9317 232.525 99.8146C232.525 99.876 232.525 99.9374 232.517 99.9988L231.866 108.128C231.766 109.126 230.932 109.886 229.936 109.886Z" fill="#2960CD"/>
<path opacity="0.2" d="M258.73 103.192H238.392C237.726 103.2 237.182 102.67 237.174 102.002C237.174 101.956 237.174 101.91 237.182 101.864C237.259 101.127 237.871 100.559 238.614 100.544H258.952C259.618 100.536 260.162 101.074 260.17 101.734C260.17 101.78 260.17 101.818 260.162 101.864C260.085 102.609 259.473 103.177 258.73 103.192Z" fill="#263238"/>
<path opacity="0.2" d="M250.319 107.583H237.994C237.327 107.591 236.784 107.054 236.776 106.393C236.776 106.347 236.776 106.309 236.784 106.263C236.86 105.518 237.473 104.95 238.216 104.935H250.51C251.177 104.927 251.721 105.457 251.728 106.125C251.728 106.171 251.728 106.217 251.721 106.263C251.644 106.992 251.046 107.553 250.319 107.583Z" fill="#263238"/>
<path opacity="0.5" d="M226.634 149.298H218.522C217.641 149.306 216.913 148.592 216.906 147.709C216.906 147.648 216.906 147.594 216.913 147.532L217.595 139.411C217.702 138.428 218.514 137.676 219.502 137.653H227.607C228.488 137.637 229.208 138.343 229.223 139.226C229.223 139.288 229.223 139.349 229.215 139.411L228.534 147.532C228.434 148.515 227.622 149.275 226.634 149.298Z" fill="#2960CD"/>
<path opacity="0.2" d="M255.428 142.596H235.09C234.432 142.612 233.888 142.082 233.873 141.422C233.873 141.376 233.873 141.322 233.88 141.276C233.957 140.539 234.562 139.971 235.305 139.956H255.65C256.309 139.94 256.853 140.47 256.868 141.13C256.868 141.176 256.868 141.23 256.86 141.276C256.784 142.013 256.171 142.581 255.428 142.596Z" fill="#263238"/>
<path opacity="0.2" d="M247.017 146.995H234.761C234.095 147.003 233.551 146.473 233.543 145.805C233.543 145.759 233.543 145.713 233.551 145.667C233.628 144.93 234.241 144.362 234.976 144.347H247.278C247.944 144.339 248.488 144.876 248.496 145.536C248.496 145.583 248.496 145.621 248.488 145.667C248.412 146.427 247.776 146.995 247.017 146.995Z" fill="#263238"/>
<path d="M51.8098 47.7978C51.8864 52.4038 52.1315 60.4949 49.7109 63.3353C55.2721 65.1546 60.2588 68.4095 64.1807 72.7622C67.4975 67.3271 63.1772 64.41 63.1772 64.41C58.3974 62.8747 59.3472 59.8655 60.3354 56.5492L51.8098 47.7978Z" fill="#B55B52"/>
<path d="M47.643 71.603L44.8241 77.038L42.0436 82.4808C41.1397 84.3001 40.2511 86.1118 39.4315 87.9004C39.0255 88.7986 38.6655 89.6891 38.3131 90.5489C38.0067 91.2782 37.754 92.0305 37.5471 92.7905V91.5699C37.6467 92.6753 37.8459 93.7731 38.1523 94.8401C38.4893 96.0223 38.8953 97.1892 39.3626 98.3253C39.8375 99.4998 40.3813 100.674 40.9635 101.849C41.5457 103.023 42.1968 104.229 42.7789 105.326L42.8632 105.472C43.4607 106.57 43.0547 107.936 41.9593 108.535C41.1473 108.98 40.1439 108.873 39.4315 108.274C38.2825 107.307 37.2024 106.263 36.2143 105.134C35.2262 104.014 34.307 102.831 33.472 101.596C32.5988 100.306 31.8251 98.9548 31.174 97.5423C30.4616 96.03 29.9254 94.4409 29.5807 92.8058C29.5271 92.4757 29.5271 92.1379 29.5807 91.8078V91.5852C29.7493 90.3032 30.025 89.0443 30.408 87.8083C30.7451 86.6952 31.1281 85.6512 31.5187 84.6149C32.2847 82.5575 33.135 80.5846 34.0159 78.6425C34.8968 76.7003 35.816 74.8041 36.7658 72.8927C37.7157 70.9812 38.6961 69.1465 39.7685 67.2734C41.0324 65.1316 43.79 64.4177 45.9272 65.6843C47.9571 66.8896 48.7231 69.4612 47.666 71.5723L47.643 71.603Z" fill="#B55B52"/>
<path d="M45.5132 106.938L44.4715 106.278L41.5147 104.374L39.4082 107.522C40.1742 110.593 43.2382 112.059 43.2382 112.059L44.4102 112.327C45.2528 112.542 46.1184 112.066 46.3865 111.237L46.7235 110.332C47.1142 109.057 46.6239 107.675 45.5132 106.938Z" fill="#B55B52"/>
<path d="M99.8916 94.7096L97.5936 95.7536C96.6591 96.1682 96.2301 97.2659 96.6361 98.2101L97.4557 100.137C97.6625 100.605 98.0838 100.951 98.5817 101.058C100.543 101.465 103.369 100.337 105.399 99.3156C106.694 98.6861 107.23 97.1201 106.594 95.8227C106.548 95.7229 106.494 95.6308 106.433 95.5387L105.545 94.1722C104.763 92.99 103.185 92.6523 101.983 93.4046L99.8916 94.7096Z" fill="#B55B52"/>
<path d="M43.6981 63.7038C39.669 65.4924 35.9845 69.753 32.9741 77.6292C33.9469 80.8764 43.9049 86.2039 43.9049 86.2039C43.9049 86.2039 56.3295 59.7887 43.6981 63.7038Z" fill="#0F244E"/>
<path d="M76.9576 73.7908C76.9193 76.7233 81.7528 83.5018 76.1916 87.4322C75.7091 93.3509 75.0503 99.1774 73.7864 108.888H44.0349C46.8615 98.1411 44.4179 90.9174 39.8832 72.0406C38.8951 68.1485 41.2467 64.1874 45.1303 63.1971C45.4827 63.105 45.8427 63.0436 46.2027 63.0052C47.3824 62.8824 48.6386 62.7826 49.9255 62.7212C54.4219 62.3987 58.9336 62.3987 63.4301 62.7212C64.8931 62.8593 66.4022 63.0436 67.8499 63.2432C73.0817 63.9955 76.9653 68.494 76.9576 73.7908Z" fill="#0F244E"/>
<path d="M63.5452 61.7923C56.6895 60.042 42.0053 60.257 39.3319 62.322C36.6586 64.387 42.281 67.9182 42.6027 68.2023C40.6648 69.2847 42.6027 74.8886 50.6534 76.4316C58.7041 77.9746 60.4812 67.9873 62.8098 65.8916C63.9971 64.8246 64.6482 63.1741 63.5452 61.7923Z" fill="#2960CD"/>
<path opacity="0.2" d="M43.6982 67.9643C47.7274 68.517 56.3372 66.5979 59.271 65.6997C55.5176 67.711 45.9196 71.3727 43.6982 67.9643Z" fill="black"/>
<path d="M76.0387 70.2366C76.4523 72.2862 76.8583 74.4357 77.3179 76.5237C77.7775 78.6117 78.2218 80.7228 78.7044 82.7878C79.187 84.8528 79.7232 86.9025 80.3053 88.8677C80.5964 89.8503 80.9258 90.8099 81.2475 91.7081C81.5386 92.5218 81.8833 93.3125 82.2893 94.0801L80.7573 92.6907C80.7573 92.6907 80.8109 92.6907 80.8339 92.7367C80.8568 92.7828 81.0483 92.8212 81.1556 92.8749L82.1284 93.1666C82.8408 93.3662 83.6604 93.5351 84.4264 93.6963C86.035 94.0034 87.7125 94.3027 89.3977 94.5637L94.507 95.3698C96.2075 95.6615 97.9386 95.9148 99.6392 96.2219C100.865 96.4445 101.677 97.619 101.455 98.8473C101.278 99.8146 100.497 100.559 99.5166 100.682C97.7318 100.905 95.9777 101.02 94.2006 101.15C92.4234 101.281 90.654 101.312 88.8386 101.327C87.0231 101.342 85.2537 101.327 83.4076 101.181C82.4808 101.112 81.5462 101.035 80.5504 100.889C80.0449 100.82 79.5317 100.728 78.9648 100.598C78.6661 100.513 78.4056 100.459 78.0456 100.337C77.8694 100.283 77.6933 100.221 77.5171 100.152L76.889 99.8683C76.3451 99.615 75.8778 99.2158 75.5408 98.7168L75.3876 98.4788C74.6599 97.358 74.0165 96.1835 73.4649 94.9629C72.9441 93.8345 72.5228 92.7214 72.1091 91.6236C71.2972 89.4127 70.6231 87.2249 70.0179 85.0294C69.4128 82.8339 68.8766 80.6461 68.3864 78.4505C67.8961 76.255 67.4672 74.0749 67.1148 71.7872C66.7241 69.3307 68.394 67.0201 70.8452 66.6285C73.2275 66.2447 75.4872 67.8184 75.9621 70.1828L76.0387 70.2366Z" fill="#B55B52"/>
<path d="M70.3854 63.9187C74.0545 65.7458 77.693 69.2923 79.2021 77.4142C78.2522 80.6307 65.1383 86.8257 65.1383 86.8257C65.1383 86.8257 57.8383 59.2206 70.3854 63.9187Z" fill="#0F244E"/>
<path d="M69.8648 44.2512C69.7959 44.8346 70.0487 45.3566 70.4317 45.4104C70.8147 45.4641 71.1977 45.0496 71.259 44.4661C71.3202 43.8827 71.0751 43.3607 70.6921 43.2993C70.3091 43.2379 69.9414 43.6678 69.8648 44.2512Z" fill="#263238"/>
<path d="M70.5234 43.307L71.9789 43.1227C71.9789 43.1227 71.1209 44.1054 70.5234 43.307Z" fill="#263238"/>
<path d="M70.0332 44.8884C70.3933 46.3085 70.9371 47.6673 71.6572 48.9416C70.9907 49.2794 70.2094 49.3024 69.52 49.003L70.0332 44.8884Z" fill="#A02724"/>
<path d="M71.228 40.2287C71.3122 40.2287 71.3965 40.1903 71.4578 40.1289C71.588 39.9907 71.588 39.7758 71.4578 39.6376C70.6611 38.8239 69.5198 38.4477 68.3938 38.6243C68.2099 38.6626 68.095 38.8469 68.141 39.0311V39.0388C68.187 39.223 68.3708 39.3459 68.5623 39.2998C69.4509 39.1847 70.3318 39.4917 70.9599 40.1289C71.0288 40.198 71.1284 40.2364 71.228 40.2287Z" fill="#263238"/>
<path d="M50.6991 39.3151C50.2319 46.5542 49.8872 49.6018 52.9971 53.847C57.6774 60.2186 66.54 59.4509 69.0831 52.5496C71.3811 46.3393 71.7718 35.5459 65.2072 31.6078C60.7414 28.8366 54.8738 30.226 52.1086 34.7015C51.2583 36.091 50.7681 37.68 50.6991 39.3151Z" fill="#B55B52"/>
<path d="M64.8779 45.848C69.7957 43.9288 69.1446 38.4324 66.5938 36.2522C71.5804 38.3019 75.0198 36.7051 71.2511 31.2624C67.4823 25.8197 46.8616 24.6759 49.7111 33.1201C40.5191 30.157 43.2155 42.4165 43.698 50.4539C37.0492 57.171 53.5948 62.9975 64.0583 59.6045C74.5219 56.2114 64.8779 45.848 64.8779 45.848Z" fill="#263238"/>
<path d="M62.9934 44.8346C63.5679 46.677 63.7594 47.4677 64.8778 48.3505C66.5477 49.6786 68.501 48.9646 68.4474 47.0839C68.4014 45.3873 67.4745 42.6621 65.5978 42.0557C63.7211 41.4492 62.4189 42.9922 62.9934 44.8346Z" fill="#B55B52"/>
<path d="M73.779 108.888C73.779 108.888 74.8284 147.371 76.2302 172.696C77.7162 195.926 79.6236 250.269 79.6236 250.269L73.7713 250.576C73.7713 250.576 60.8029 204.854 61.3545 177.226C46.134 138.581 51.6033 110.047 51.6033 110.047L73.779 108.888Z" fill="#B55B52"/>
<path d="M79.1866 247.843C79.4547 247.651 79.8147 247.651 80.0828 247.843C82.894 249.938 86.3027 251.082 89.811 251.09C93.7023 251.259 92.7371 253.393 87.1683 254.099C80.6266 254.921 79.2172 256.264 77.103 256.801C74.9889 257.339 73.273 255.719 73.3496 251.267C73.3573 250.952 73.5565 250.675 73.8475 250.568C75.7242 249.869 77.5167 248.956 79.1866 247.843Z" fill="#0F244E"/>
<path d="M66.004 108.888C66.004 108.888 55.28 154.434 49.0677 175.629C42.5337 197.891 37.3632 248.695 37.3939 250.384H32.3306C32.3306 250.384 25.7813 209.206 33.8626 175.613C34.6286 121.109 44.0045 108.888 44.0045 108.888H66.004Z" fill="#B55B52"/>
<path d="M37.5316 248.541C37.8074 248.426 38.1215 248.511 38.2976 248.749C39.6075 250.445 40.5956 252.334 44.4256 253.992C47.6199 255.366 45.8581 257.239 40.8408 256.548C34.9502 255.742 34.8736 256.702 32.882 256.702C30.8904 256.702 29.9636 254.721 31.4113 250.414C31.5109 250.123 31.756 249.908 32.0547 249.854C33.9238 249.639 35.7698 249.202 37.5316 248.541Z" fill="#0F244E"/>
<path d="M32.0243 165.204C31.4268 170.831 30.3237 183.029 30.3237 183.029C30.3237 183.029 47.9417 186.652 78.8269 184.833C78.666 181.118 78.6354 175.744 78.6354 175.744L32.0243 165.204Z" fill="#0F244E"/>
<path d="M73.7789 108.735C78.0609 133.538 80.0142 158.687 79.6235 183.85C62.9094 183.705 46.2489 182.046 29.8335 178.899C29.8335 178.899 30.7374 126.191 44.0351 108.742C51.7181 106.923 73.6027 108.144 73.7789 108.735Z" fill="#2960CD"/>
<path d="M244.781 242.646H244.735C244.635 242.63 244.566 242.531 244.589 242.431V242.423C248.565 223.746 246.704 206.021 239.066 189.723C234.379 179.59 227.599 170.562 219.189 163.239C219.112 163.17 219.112 163.055 219.181 162.978L219.189 162.97C219.265 162.893 219.388 162.893 219.465 162.97C227.914 170.324 234.723 179.383 239.442 189.554C247.102 205.921 248.986 223.738 244.995 242.523C244.965 242.607 244.873 242.661 244.781 242.646Z" fill="#263238"/>
<path d="M251.943 207.663C250.671 210.427 248.726 212.814 246.282 214.626C245.439 208.462 248.097 202.336 253.176 198.758C253.521 201.783 253.092 204.846 251.943 207.663Z" fill="#0C3623"/>
<path d="M234.103 184.449C236.592 186.192 238.607 188.526 239.955 191.251C233.75 191.005 228.197 187.305 225.577 181.663C228.611 181.855 231.544 182.814 234.103 184.449Z" fill="#0C3623"/>
<path d="M231.1 165.427C231.514 168.436 231.154 171.506 230.074 174.347C226.052 169.61 224.995 163.024 227.339 157.266C229.254 159.623 230.548 162.433 231.1 165.427Z" fill="#29B473"/>
<path d="M220.79 162.955C220.882 163.776 220.292 164.521 219.472 164.613C218.652 164.705 217.909 164.114 217.818 163.292C217.726 162.471 218.315 161.726 219.135 161.634C219.135 161.634 219.135 161.634 219.143 161.634C219.955 161.565 220.675 162.149 220.79 162.955Z" fill="#29B473"/>
<path d="M249.277 238.83C249.201 238.83 249.132 238.784 249.101 238.715C242.659 223.362 241.364 207.84 245.271 192.609C247.653 183.16 251.996 174.316 258.025 166.67C258.101 166.593 258.216 166.593 258.293 166.663C258.293 166.663 258.293 166.663 258.301 166.67C258.377 166.747 258.377 166.862 258.301 166.939C252.318 174.539 248.013 183.321 245.654 192.709C241.778 207.848 243.057 223.278 249.484 238.562C249.522 238.661 249.476 238.769 249.384 238.815C249.384 238.815 249.384 238.815 249.377 238.815L249.277 238.83Z" fill="#263238"/>
<path d="M240.514 222.257C241.724 223.531 243.241 224.475 244.911 225.005C244.229 221.474 241.625 218.618 238.178 217.612C238.553 219.332 239.357 220.929 240.514 222.257Z" fill="#29B473"/>
<path d="M246.083 193.423C245.011 195.081 244.367 196.977 244.222 198.95C247.891 197.285 250.334 193.707 250.541 189.669C248.764 190.529 247.232 191.819 246.083 193.423Z" fill="#29B473"/>
<path d="M245.777 181.924C245.914 183.536 246.466 185.094 247.362 186.437C248.902 183.497 248.672 179.943 246.765 177.226C246.045 178.684 245.7 180.296 245.777 181.924Z" fill="#29B473"/>
<path d="M255.382 172.174C254.034 173.065 252.924 174.285 252.173 175.721C255.482 175.675 258.485 173.779 259.955 170.816C258.339 170.877 256.769 171.338 255.382 172.174Z" fill="#29B473"/>
<path d="M256.884 166.893C256.937 167.607 257.558 168.144 258.27 168.09C258.982 168.037 259.519 167.415 259.465 166.701C259.411 165.987 258.791 165.45 258.079 165.503H258.071C257.359 165.557 256.83 166.179 256.884 166.893Z" fill="#29B473"/>
<path d="M252.548 235.545L254.08 229.166H240.123L241.655 235.545C237.312 237.633 234.547 242.032 234.539 246.86C234.539 253.769 240.154 256.31 247.078 256.31C254.003 256.31 259.618 253.8 259.618 246.86C259.626 242.039 256.876 237.648 252.548 235.545Z" fill="#FFFCAC"/>
</g>
<defs>
<clipPath id="clip0">
<rect width="310" height="265" fill="white"/>
</clipPath>
</defs>
</svg>
