<svg xmlns="http://www.w3.org/2000/svg" viewBox="0 0 191.36 224.41"><defs><style>.cls-1{fill:#21376d;}.cls-2{fill:#f26f60;}.cls-3{fill:#fff;}.cls-4{fill:#ce2d27;}.cls-5{fill:none;}</style></defs><title>frhc-iconAsset 4</title><g id="Layer_2" data-name="Layer 2"><g id="Layer_1-2" data-name="Layer 1"><path class="cls-1" d="M183.32,104.3c-20-41.09,7.37-70.59,7.37-70.59-12.64,1.06-20-16.85-20-16.85C132.75,42.14,95.87,0,95.87,0h-.38S58.61,42.14,20.69,16.86c0,0-7.38,17.91-20,16.85,0,0,27.39,29.5,7.37,70.59s-2.1,81.12,47.41,95.87c0,0,34.77,7.38,40,24.24h.38c5.27-16.86,40-24.24,40-24.24,49.51-14.75,67.43-54.78,47.41-95.87"/><polygon class="cls-2" points="169.52 95.11 146.97 56.56 120.06 72.56 120.06 40.56 72.05 40.56 72.05 72.56 45.14 56.56 22.6 95.11 49.51 111.11 22.6 127.11 42.96 166.39 72.05 150.39 72.05 183.84 120.06 183.84 120.06 150.39 149.15 166.39 169.52 127.11 142.6 111.11 169.52 95.11"/><path class="cls-3" d="M97,45.52a4.14,4.14,0,0,0-1.27,0,4.61,4.61,0,0,0-3.81,4.79l4.78,133.8,4-133.88A4.58,4.58,0,0,0,97,45.52"/><path class="cls-4" d="M98,59.62a6.86,6.86,0,0,0-1.67-.72,8.34,8.34,0,0,0-7.77,1.24c-4,3.24-9.72,8.1-6.48,18.63A24.74,24.74,0,0,0,93.43,93.29L93.1,84s-4.53-2.78-4.53-10.08,4.86-8.1,4.86-8.1a8.07,8.07,0,0,1,3.24.81,5,5,0,0,0,4.86-.81c.77-.76-.64-4.42-3.52-6.19"/><path class="cls-4" d="M99.58,86.43s9.8,4.79,7.31,13.6a9.15,9.15,0,0,1-1.12,2.44,114.22,114.22,0,0,1-9.1,12.76c-4.86,5.67-2.12,9.62-2.12,9.62l.31,8.42a14,14,0,0,1-7.1-14.8c1.52-9.9,10.69-12.53,11.91-19a5.69,5.69,0,0,0-.39-2.86Z"/><path class="cls-4" d="M98.12,135.41c2.6.89,1,3.32,1,3.32-2.43,4.05-7.29,7.29-8.1,13.77s4.88,9.36,4.88,9.36l-.16-4.52c-3.39-7.32,6.62-12.13,8.24-18.61s-5.62-10.64-5.62-10.64Z"/><path class="cls-4" d="M97.56,158.15s8,9.74-3.32,13c0,0,6.16-3,3.08-8.78Z"/><rect class="cls-5" width="191.36" height="224.4"/></g></g></svg>