<svg xmlns="http://www.w3.org/2000/svg" viewBox="0 0 846.4 87.99"><defs><style>.cls-1{fill:#21376d;}.cls-2{fill:#f26f60;}.cls-3{fill:#fff;}.cls-4{fill:#ce2d27;}.cls-5{fill:none;}.cls-6{fill:#6c6a6c;}</style></defs><title>frhc-logo-horizontalAsset 3</title><g id="Layer_2" data-name="Layer 2"><g id="Layer_1-2" data-name="Layer 1"><path class="cls-1" d="M71.88,40.9C64,24.79,74.77,13.22,74.77,13.22c-5,.41-7.85-6.61-7.85-6.61C52.05,16.52,37.59,0,37.59,0h-.15S23,16.52,8.11,6.61c0,0-2.89,7-7.85,6.61,0,0,10.74,11.57,2.89,27.68S2.33,72.71,21.74,78.49c0,0,13.64,2.89,15.7,9.5h.15c2.07-6.61,15.7-9.5,15.7-9.5C72.71,72.71,79.73,57,71.88,40.9"/><polygon class="cls-2" points="66.47 37.29 57.63 22.18 47.08 28.45 47.08 15.9 28.25 15.9 28.25 28.45 17.7 22.18 8.86 37.29 19.41 43.57 8.86 49.84 16.85 65.24 28.25 58.97 28.25 72.09 47.08 72.09 47.08 58.97 58.48 65.24 66.47 49.84 55.92 43.57 66.47 37.29"/><path class="cls-3" d="M38,17.85a1.6,1.6,0,0,0-.49,0A1.81,1.81,0,0,0,36,19.72l1.88,52.47,1.56-52.5A1.8,1.8,0,0,0,38,17.85"/><path class="cls-4" d="M38.43,23.38a2.6,2.6,0,0,0-.66-.29,3.27,3.27,0,0,0-3,.49c-1.59,1.27-3.81,3.18-2.54,7.31a9.7,9.7,0,0,0,4.44,5.69l-.13-3.65A4.57,4.57,0,0,1,34.73,29c0-2.86,1.9-3.17,1.9-3.17a3.21,3.21,0,0,1,1.27.31,2,2,0,0,0,1.91-.31c.3-.31-.25-1.74-1.38-2.43"/><path class="cls-4" d="M39.05,33.89s3.84,1.88,2.86,5.33a3.48,3.48,0,0,1-.44,1,44.92,44.92,0,0,1-3.56,5C36,47.41,37.08,49,37.08,49l.11,3.31a5.53,5.53,0,0,1-2.78-5.81c.6-3.88,4.19-4.91,4.67-7.44a2.18,2.18,0,0,0-.15-1.13Z"/><path class="cls-4" d="M38.47,53.09c1,.35.39,1.31.39,1.31-1,1.58-2.86,2.86-3.18,5.4a3.71,3.71,0,0,0,1.91,3.67l-.06-1.78c-1.33-2.87,2.6-4.75,3.23-7.29s-2.2-4.18-2.2-4.18Z"/><path class="cls-4" d="M38.25,62S41.4,65.83,37,67.1c0,0,2.42-1.16,1.21-3.44Z"/><rect class="cls-5" width="75.03" height="87.99"/><path class="cls-1" d="M117.65,13.11h22.84V19h-16v7h15.63v5.9H124.52V45.38h-6.87Z"/><path class="cls-1" d="M145.47,14.9a3.68,3.68,0,1,1,3.68,3.68A3.71,3.71,0,0,1,145.47,14.9ZM146.1,22h6.14V45.38H146.1Z"/><path class="cls-1" d="M159.31,22h6.14V25.2a10,10,0,0,1,7.45-3.72v6a7.51,7.51,0,0,0-1.69-.19c-2,0-4.74,1.16-5.76,2.66V45.38h-6.14Z"/><path class="cls-1" d="M178.32,38a13.41,13.41,0,0,0,8.08,3.19c2.66,0,3.92-.92,3.92-2.37,0-1.65-2-2.23-4.69-2.76-4-.77-9.2-1.74-9.2-7.3,0-3.92,3.44-7.36,9.58-7.36a15,15,0,0,1,9.44,3.19L193,28.83a9.85,9.85,0,0,0-6.92-2.71c-2.22,0-3.67.83-3.67,2.18s1.83,2,4.45,2.52c4,.77,9.38,1.84,9.38,7.64,0,4.26-3.62,7.5-10.11,7.5a15.71,15.71,0,0,1-10.45-3.63Z"/><path class="cls-1" d="M203,39.57V27.38h-3.87V22H203V15.62h6.19V22h4.74v5.37h-4.74V37.93c0,1.45.78,2.56,2.13,2.56a3.36,3.36,0,0,0,2.13-.67l1.31,4.64a7.61,7.61,0,0,1-5.13,1.5C205.27,46,203,43.74,203,39.57Z"/><path class="cls-1" d="M231.11,33.82h-5V45.38h-6.87V13.11H234.3c6.73,0,10.84,4.4,10.84,10.4,0,5.71-3.58,8.76-7.06,9.58l7.25,12.29h-7.88ZM233.29,19h-7.21v8.9h7.21c2.75,0,4.83-1.74,4.83-4.45S236,19,233.29,19Z"/><path class="cls-1" d="M260.28,21.43c7,0,11.71,5.23,11.71,12.87v1.36H254.62c.39,3,2.76,5.41,6.73,5.41a9.57,9.57,0,0,0,6.24-2.32l2.71,4c-2.32,2.13-6,3.24-9.63,3.24-7.11,0-12.48-4.79-12.48-12.29A11.89,11.89,0,0,1,260.28,21.43Zm-5.76,10.06H266a5.41,5.41,0,0,0-5.76-5.17A5.62,5.62,0,0,0,254.52,31.49Z"/><path class="cls-1" d="M278,38a13.41,13.41,0,0,0,8.08,3.19c2.66,0,3.92-.92,3.92-2.37,0-1.65-2-2.23-4.69-2.76-4-.77-9.2-1.74-9.2-7.3,0-3.92,3.44-7.36,9.58-7.36a15,15,0,0,1,9.44,3.19l-2.47,4.21a9.85,9.85,0,0,0-6.92-2.71c-2.23,0-3.68.83-3.68,2.18s1.84,2,4.45,2.52c4,.77,9.39,1.84,9.39,7.64,0,4.26-3.63,7.5-10.11,7.5a15.69,15.69,0,0,1-10.45-3.63Z"/><path class="cls-1" d="M301.46,54.28V22h6.14V25a9,9,0,0,1,7.21-3.53c6,0,10.36,4.45,10.36,12.24S320.81,46,314.81,46a8.93,8.93,0,0,1-7.21-3.58v11.9ZM312.88,26.9a6.89,6.89,0,0,0-5.28,2.66v8.27a7,7,0,0,0,5.28,2.66c3.53,0,5.9-2.75,5.9-6.82S316.41,26.9,312.88,26.9Z"/><path class="cls-1" d="M329.23,33.67c0-6.63,4.64-12.24,12.34-12.24S354,27,354,33.67,349.31,46,341.57,46,329.23,40.35,329.23,33.67Zm18.34,0c0-3.63-2.18-6.77-6-6.77s-6,3.14-6,6.77,2.13,6.82,6,6.82S347.57,37.35,347.57,33.67Z"/><path class="cls-1" d="M375.24,31.25c0-3.24-1.69-4.35-4.31-4.35a6.65,6.65,0,0,0-5.32,2.76V45.38h-6.14V22h6.14v3a10.71,10.71,0,0,1,8.18-3.63c5.13,0,7.6,2.9,7.6,7.45v16.5h-6.15Z"/><path class="cls-1" d="M404.51,42.38A9.06,9.06,0,0,1,397.3,46C391.4,46,387,41.51,387,33.72s4.4-12.29,10.35-12.29A9,9,0,0,1,404.51,25V13.11h6.2V45.38h-6.2Zm0-12.82a6.67,6.67,0,0,0-5.32-2.66c-3.48,0-5.9,2.76-5.9,6.82s2.42,6.77,5.9,6.77a6.67,6.67,0,0,0,5.32-2.66Z"/><path class="cls-1" d="M428.37,21.43c7,0,11.71,5.23,11.71,12.87v1.36H422.71c.38,3,2.75,5.41,6.72,5.41a9.55,9.55,0,0,0,6.24-2.32l2.71,4c-2.32,2.13-6,3.24-9.63,3.24-7.11,0-12.48-4.79-12.48-12.29A11.89,11.89,0,0,1,428.37,21.43Zm-5.76,10.06h11.52a5.42,5.42,0,0,0-5.76-5.17A5.61,5.61,0,0,0,422.61,31.49Z"/><path class="cls-1" d="M445.49,22h6.15V25.2a10,10,0,0,1,7.45-3.72v6a7.59,7.59,0,0,0-1.69-.19c-2,0-4.74,1.16-5.76,2.66V45.38h-6.15Z"/><path class="cls-1" d="M464.51,38a13.41,13.41,0,0,0,8.08,3.19c2.66,0,3.92-.92,3.92-2.37,0-1.65-2-2.23-4.7-2.76-4-.77-9.19-1.74-9.19-7.3,0-3.92,3.44-7.36,9.58-7.36a15,15,0,0,1,9.44,3.19l-2.47,4.21a9.86,9.86,0,0,0-6.92-2.71c-2.23,0-3.68.83-3.68,2.18s1.84,2,4.45,2.52c4,.77,9.39,1.84,9.39,7.64,0,4.26-3.63,7.5-10.11,7.5a15.67,15.67,0,0,1-10.45-3.63Z"/><path class="cls-1" d="M510.18,31.83H494.94V45.38h-6.87V13.11h6.87V25.79h15.24V13.11h6.92V45.38h-6.92Z"/><path class="cls-1" d="M534.86,21.43c7,0,11.71,5.23,11.71,12.87v1.36H529.2c.38,3,2.76,5.41,6.72,5.41a9.55,9.55,0,0,0,6.24-2.32l2.71,4c-2.32,2.13-6,3.24-9.62,3.24-7.12,0-12.49-4.79-12.49-12.29A11.9,11.9,0,0,1,534.86,21.43ZM529.1,31.49h11.52a5.42,5.42,0,0,0-5.76-5.17A5.62,5.62,0,0,0,529.1,31.49Z"/><path class="cls-1" d="M566,43a9.68,9.68,0,0,1-7.41,3c-3.72,0-8.12-2.51-8.12-7.74,0-5.47,4.4-7.45,8.12-7.45,3.1,0,5.86,1,7.41,2.85V30.38c0-2.37-2-3.92-5.13-3.92a9.81,9.81,0,0,0-6.82,2.76l-2.33-4.11A15.34,15.34,0,0,1,562,21.43c5.33,0,10.21,2.13,10.21,8.86V45.38H566Zm0-6.09a6.14,6.14,0,0,0-4.94-2c-2.42,0-4.4,1.26-4.4,3.54s2,3.43,4.4,3.43a6.17,6.17,0,0,0,4.94-2Z"/><path class="cls-1" d="M579.23,13.11h6.14V45.38h-6.14Z"/><path class="cls-1" d="M593.64,39.57V27.38h-3.87V22h3.87V15.62h6.2V22h4.74v5.37h-4.74V37.93c0,1.45.77,2.56,2.13,2.56a3.3,3.3,0,0,0,2.12-.67l1.31,4.64a7.59,7.59,0,0,1-5.13,1.5C596,46,593.64,43.74,593.64,39.57Z"/><path class="cls-1" d="M625.58,31.16c0-3.25-1.7-4.26-4.36-4.26a6.78,6.78,0,0,0-5.32,2.76V45.38h-6.14V13.11h6.14v12a10.81,10.81,0,0,1,8.23-3.63c5.12,0,7.59,2.81,7.59,7.36V45.38h-6.14Z"/><path class="cls-1" d="M637.38,29.27c0-9.92,7.5-16.69,16.94-16.69a14.91,14.91,0,0,1,13.74,7.88l-5.91,2.91a8.81,8.81,0,0,0-7.83-4.7c-5.62,0-9.87,4.5-9.87,10.6s4.25,10.6,9.87,10.6a8.74,8.74,0,0,0,7.83-4.7L668.06,38A15,15,0,0,1,654.32,46C644.88,46,637.38,39.19,637.38,29.27Z"/><path class="cls-1" d="M687,43a9.64,9.64,0,0,1-7.4,3c-3.73,0-8.13-2.51-8.13-7.74,0-5.47,4.4-7.45,8.13-7.45,3.1,0,5.86,1,7.4,2.85V30.38c0-2.37-2-3.92-5.13-3.92a9.85,9.85,0,0,0-6.82,2.76l-2.32-4.11A15.3,15.3,0,0,1,683,21.43c5.32,0,10.21,2.13,10.21,8.86V45.38H687Zm0-6.09a6.12,6.12,0,0,0-4.93-2c-2.42,0-4.4,1.26-4.4,3.54s2,3.43,4.4,3.43a6.15,6.15,0,0,0,4.93-2Z"/><path class="cls-1" d="M700.23,22h6.15V25.2a10,10,0,0,1,7.45-3.72v6a7.66,7.66,0,0,0-1.69-.19c-2,0-4.75,1.16-5.76,2.66V45.38h-6.15Z"/><path class="cls-1" d="M729.22,21.43c7,0,11.71,5.23,11.71,12.87v1.36H723.55c.39,3,2.76,5.41,6.73,5.41a9.55,9.55,0,0,0,6.24-2.32l2.71,4c-2.32,2.13-6,3.24-9.63,3.24-7.11,0-12.48-4.79-12.48-12.29A11.89,11.89,0,0,1,729.22,21.43Zm-5.76,10.06H735a5.4,5.4,0,0,0-5.75-5.17A5.61,5.61,0,0,0,723.46,31.49Z"/><path class="cls-1" d="M749.29,38.07A3.92,3.92,0,1,1,745.38,42,4,4,0,0,1,749.29,38.07Z"/><path class="cls-1" d="M768.26,21.43c4.79,0,7.69,2.08,9.24,4.21l-4,3.77a5.69,5.69,0,0,0-4.94-2.51c-3.72,0-6.34,2.71-6.34,6.77s2.62,6.82,6.34,6.82A5.91,5.91,0,0,0,773.49,38l4,3.72C776,43.88,773.05,46,768.26,46c-7.21,0-12.39-5.08-12.39-12.29S761.05,21.43,768.26,21.43Z"/><path class="cls-1" d="M781,33.67c0-6.63,4.65-12.24,12.34-12.24S805.71,27,805.71,33.67,801.06,46,793.32,46,781,40.35,781,33.67Zm18.34,0c0-3.63-2.18-6.77-6-6.77s-6,3.14-6,6.77,2.13,6.82,6,6.82S799.32,37.35,799.32,33.67Z"/><path class="cls-1" d="M840.21,30.62c0-2.17-1-3.72-3.49-3.72a6.19,6.19,0,0,0-4.83,2.71V45.38h-6.2V30.62c0-2.17-1-3.72-3.48-3.72a6.27,6.27,0,0,0-4.84,2.76V45.38h-6.15V22h6.15v3A10.23,10.23,0,0,1,825,21.43c3.44,0,5.62,1.6,6.49,4.26a9.91,9.91,0,0,1,8-4.26c4.31,0,6.87,2.27,6.87,7.06V45.38h-6.19Z"/><path class="cls-6" d="M118,64.94h1.72V78.79H118Z"/><path class="cls-6" d="M135.78,72c0-1.26-.56-2.09-1.84-2.09a3.45,3.45,0,0,0-2.66,1.53v7.35h-1.56V72c0-1.26-.54-2.1-1.84-2.1a3.51,3.51,0,0,0-2.64,1.56v7.33h-1.57v-10h1.56v1.45a4.36,4.36,0,0,1,3.24-1.7,2.58,2.58,0,0,1,2.7,1.87,4.22,4.22,0,0,1,3.36-1.87c1.83,0,2.8,1,2.8,3v7.25h-1.56Z"/><path class="cls-6" d="M153.39,72c0-1.26-.56-2.09-1.85-2.09a3.45,3.45,0,0,0-2.65,1.53v7.35h-1.56V72c0-1.26-.54-2.1-1.85-2.1a3.49,3.49,0,0,0-2.63,1.56v7.33h-1.56v-10h1.56v1.45a4.34,4.34,0,0,1,3.23-1.7,2.58,2.58,0,0,1,2.7,1.87,4.22,4.22,0,0,1,3.36-1.87c1.84,0,2.8,1,2.8,3v7.25h-1.55Z"/><path class="cls-6" d="M163.25,68.51c3,0,4.82,2.37,4.82,5.38v.39H160a3.54,3.54,0,0,0,3.57,3.5h0a4.37,4.37,0,0,0,3.09-1.27l.75,1a5.45,5.45,0,0,1-4,1.53,5,5,0,0,1-5.11-5.27A5,5,0,0,1,163.25,68.51ZM160,73.14h6.58a3.24,3.24,0,0,0-3.14-3.34h-.16A3.35,3.35,0,0,0,160,73.14Z"/><path class="cls-6" d="M178.68,77.3A4.25,4.25,0,0,1,175.29,79c-2.61,0-4.46-2-4.46-5.25s1.83-5.28,4.46-5.28a4.22,4.22,0,0,1,3.39,1.77V64.94h1.56V78.79h-1.56Zm0-5.78a3.75,3.75,0,0,0-3-1.61c-2,0-3.22,1.65-3.22,3.88s1.21,3.86,3.22,3.86a3.76,3.76,0,0,0,3-1.58Z"/><path class="cls-6" d="M183.91,66a1,1,0,1,1,1.05,1A1,1,0,0,1,183.91,66Zm.27,2.74h1.56v10h-1.56Z"/><path class="cls-6" d="M196,77.65A4.33,4.33,0,0,1,192.63,79a3.33,3.33,0,0,1-3.49-3.17v-.15a3.28,3.28,0,0,1,3.49-3.3,4.23,4.23,0,0,1,3.32,1.4V72c0-1.35-1.08-2.1-2.53-2.1a4,4,0,0,0-3.07,1.4l-.7-1.09a5.24,5.24,0,0,1,4-1.65c2.1,0,3.89,1,3.89,3.38v6.9H196Zm0-2.86a3.36,3.36,0,0,0-2.76-1.26,2.25,2.25,0,0,0-2.46,2c0,.06,0,.12,0,.18a2.25,2.25,0,0,0,2.47,2.18A3.35,3.35,0,0,0,196,76.67Z"/><path class="cls-6" d="M201.76,76.69V70.13h-1.65v-1.4h1.65V66h1.56v2.74h2v1.4h-2v6.23c0,.75.34,1.28,1,1.28a1.5,1.5,0,0,0,1.06-.41l.45,1.16a2.5,2.5,0,0,1-1.86.64A2.08,2.08,0,0,1,201.76,76.69Z"/><path class="cls-6" d="M212.75,68.51c3,0,4.81,2.37,4.81,5.38v.39h-8.11a3.52,3.52,0,0,0,3.56,3.5h.05a4.36,4.36,0,0,0,3.09-1.27l.75,1a5.45,5.45,0,0,1-4,1.53,5,5,0,0,1-5.11-5.27A5,5,0,0,1,212.75,68.51Zm-3.3,4.63H216a3.24,3.24,0,0,0-3.14-3.34h-.16A3.34,3.34,0,0,0,209.45,73.14Z"/><path class="cls-6" d="M221.16,75.53a5.84,5.84,0,0,0,4.35,2c2.48,0,3.26-1.33,3.26-2.4,0-1.65-1.68-2.09-3.5-2.61-2.22-.58-4.69-1.2-4.69-3.92,0-2.29,2-3.85,4.76-3.85a6.49,6.49,0,0,1,4.89,1.94l-1,1.24a5.33,5.33,0,0,0-4-1.67c-1.66,0-2.85.9-2.85,2.2s1.6,1.81,3.37,2.29c2.26.6,4.83,1.31,4.83,4.2,0,2-1.39,4.06-5.11,4.06a6.85,6.85,0,0,1-5.31-2.19Z"/><path class="cls-6" d="M240.17,77.65A4.33,4.33,0,0,1,236.85,79a3.33,3.33,0,0,1-3.49-3.17v-.15a3.28,3.28,0,0,1,3.49-3.3,4.23,4.23,0,0,1,3.32,1.4V72c0-1.35-1.08-2.1-2.53-2.1a4,4,0,0,0-3.07,1.4l-.7-1.09a5.24,5.24,0,0,1,4-1.65c2.1,0,3.88,1,3.88,3.38v6.9H240.2Zm0-2.86a3.36,3.36,0,0,0-2.76-1.26,2.26,2.26,0,0,0-2.46,2,.91.91,0,0,0,0,.17,2.25,2.25,0,0,0,2.47,2.18,3.35,3.35,0,0,0,2.76-1.25Z"/><path class="cls-6" d="M244.18,68.76h1.68L249.2,77l3.33-8.23h1.7l-4.2,10h-1.7Z"/><path class="cls-6" d="M256.41,66a1,1,0,0,1,1-1h0a1,1,0,0,1,1.06,1h0a1,1,0,1,1-2.09,0Zm.26,2.74h1.56v10h-1.56Z"/><path class="cls-6" d="M268.94,72.23c0-1.76-.89-2.32-2.23-2.32a3.89,3.89,0,0,0-3,1.55v7.33h-1.55v-10h1.55v1.45a5,5,0,0,1,3.58-1.7c2.09,0,3.19,1.06,3.19,3.24v7h-1.56Z"/><path class="cls-6" d="M275.21,80.2a3.81,3.81,0,0,0,3.26,1.4c1.67,0,3.23-.8,3.23-3V77.16A4.25,4.25,0,0,1,278.33,79c-2.62,0-4.47-2-4.47-5.19s1.83-5.21,4.47-5.21a4.22,4.22,0,0,1,3.37,1.76V68.79h1.55v9.74c0,3.32-2.32,4.37-4.78,4.37a5.19,5.19,0,0,1-4.05-1.5Zm6.47-8.68a3.7,3.7,0,0,0-3-1.61c-2,0-3.22,1.59-3.22,3.81s1.21,3.83,3.22,3.83a3.72,3.72,0,0,0,3-1.65Z"/><path class="cls-6" d="M287.13,76.34a4.54,4.54,0,0,0,3.3,1.43c1.54,0,2.37-.7,2.37-1.66s-1.23-1.45-2.58-1.79c-1.69-.39-3.63-.85-3.63-2.92,0-1.56,1.35-2.89,3.74-2.89A5.08,5.08,0,0,1,294,70l-.7,1.08a3.88,3.88,0,0,0-3-1.27c-1.4,0-2.23.62-2.23,1.52s1.15,1.28,2.46,1.59c1.74.4,3.75.9,3.75,3.12,0,1.68-1.35,3-3.94,3a5.35,5.35,0,0,1-4-1.58Z"/><path class="cls-6" d="M297.31,80.78a3.12,3.12,0,0,0,1.35-1.92,1.5,1.5,0,0,1-.3,0,1,1,0,0,1-1-1V77.8a1.12,1.12,0,0,1,1.11-1.12h0a1.39,1.39,0,0,1,1.31,1.48v.09a4,4,0,0,1-1.71,3.14Z"/><path class="cls-6" d="M303.53,75.53a5.87,5.87,0,0,0,4.36,2c2.47,0,3.26-1.33,3.26-2.4,0-1.65-1.68-2.09-3.5-2.61-2.21-.58-4.69-1.2-4.69-3.92,0-2.29,2-3.85,4.76-3.85a6.49,6.49,0,0,1,4.89,1.94l-1,1.24a5.3,5.3,0,0,0-4-1.67c-1.66,0-2.84.9-2.84,2.2s1.59,1.81,3.36,2.29c2.26.6,4.84,1.31,4.84,4.2,0,2-1.4,4.06-5.11,4.06a6.82,6.82,0,0,1-5.31-2.19Z"/><path class="cls-6" d="M316,66a1.05,1.05,0,1,1,1.05,1A1,1,0,0,1,316,66Zm.27,2.74h1.55v10h-1.55Z"/><path class="cls-6" d="M333.89,72c0-1.26-.56-2.09-1.86-2.09a3.48,3.48,0,0,0-2.65,1.53v7.35h-1.56V72c0-1.26-.54-2.1-1.85-2.1a3.49,3.49,0,0,0-2.63,1.56v7.33h-1.56v-10h1.56v1.45a4.37,4.37,0,0,1,3.23-1.7,2.59,2.59,0,0,1,2.71,1.87,4.21,4.21,0,0,1,3.36-1.87c1.83,0,2.8,1,2.8,3v7.25h-1.55Z"/><path class="cls-6" d="M339.39,82.59V68.76h1.55v1.5a4.21,4.21,0,0,1,3.38-1.75c2.65,0,4.47,2,4.47,5.26S347,79,344.32,79a4.14,4.14,0,0,1-3.38-1.76v5.31Zm4.54-12.7a3.73,3.73,0,0,0-3,1.59V76a3.7,3.7,0,0,0,3,1.61c2,0,3.22-1.65,3.22-3.88s-1.2-3.83-3.24-3.83Z"/><path class="cls-6" d="M352.13,64.94h1.56V78.79h-1.56Z"/><path class="cls-6" d="M362,68.51c3,0,4.82,2.37,4.82,5.38v.39h-8.12a3.54,3.54,0,0,0,3.57,3.5h.05a4.37,4.37,0,0,0,3.09-1.27l.74,1a5.37,5.37,0,0,1-4,1.53,5,5,0,0,1-5.1-5.27A5,5,0,0,1,362,68.51Zm-3.3,4.63h6.59a3.26,3.26,0,0,0-3.16-3.34H362A3.35,3.35,0,0,0,358.69,73.14Z"/><path class="cls-6" d="M370.21,64.94h9.09v1.57h-7.36V71h7.2v1.54h-7.2v4.77h7.35v1.54H370.2Z"/><path class="cls-6" d="M389.57,72.23c0-1.76-.9-2.32-2.25-2.32a3.89,3.89,0,0,0-3,1.55v7.33H382.8v-10h1.55v1.45a5,5,0,0,1,3.57-1.7c2.1,0,3.2,1.06,3.2,3.24v7h-1.55Z"/><path class="cls-6" d="M395.07,68.76h1.55v1.62A4.26,4.26,0,0,1,400,68.56v1.59a2.56,2.56,0,0,0-.62-.06,3.67,3.67,0,0,0-2.72,1.6v7.1h-1.55Z"/><path class="cls-6" d="M402.16,73.77a4.93,4.93,0,0,1,5-5.26c3.05,0,5,2.35,5,5.26s-1.91,5.27-5,5.27A5,5,0,0,1,402.16,73.77Zm8.29,0c0-2-1.18-3.86-3.32-3.86s-3.34,1.82-3.34,3.86,1.2,3.88,3.34,3.88S410.45,75.82,410.45,73.77Z"/><path class="cls-6" d="M415.46,64.94H417V78.79h-1.55Z"/><path class="cls-6" d="M421,64.94h1.56V78.79H421Z"/><path class="cls-6" d="M438.56,72c0-1.26-.56-2.09-1.85-2.09a3.49,3.49,0,0,0-2.66,1.53v7.35h-1.56V72c0-1.26-.53-2.1-1.84-2.1A3.52,3.52,0,0,0,428,71.42v7.33h-1.56v-10H428v1.45a4.36,4.36,0,0,1,3.24-1.7,2.59,2.59,0,0,1,2.7,1.87,4.21,4.21,0,0,1,3.36-1.87c1.83,0,2.8,1,2.8,3v7.25h-1.56Z"/><path class="cls-6" d="M448.42,68.51c3,0,4.82,2.37,4.82,5.38v.39h-8.12a3.53,3.53,0,0,0,3.56,3.5h.05a4.36,4.36,0,0,0,3.09-1.27l.75,1a5.41,5.41,0,0,1-4,1.53,5,5,0,0,1-5.11-5.27A5,5,0,0,1,448.42,68.51Zm-3.3,4.63h6.58a3.25,3.25,0,0,0-3.15-3.34h-.15A3.35,3.35,0,0,0,445.12,73.14Z"/><path class="cls-6" d="M463.35,72.23c0-1.76-.9-2.32-2.25-2.32a3.86,3.86,0,0,0-3,1.55v7.33h-1.56v-10h1.56v1.45a5,5,0,0,1,3.57-1.7c2.1,0,3.2,1.06,3.2,3.24v7h-1.56Z"/><path class="cls-6" d="M469.16,76.69V70.13H467.5v-1.4h1.66V66h1.56v2.74h2v1.4h-2v6.23c0,.75.33,1.28,1,1.28a1.46,1.46,0,0,0,1.05-.41l.46,1.13a2.6,2.6,0,0,1-1.88.65C469.9,79,469.16,78.19,469.16,76.69Z"/></g></g></svg>