<svg xmlns="http://www.w3.org/2000/svg" viewBox="0 0 93.02 108.41"><defs><style>.cls-1{fill:#00c7ab;}.cls-2{fill:#29446e;}</style></defs><title>dhc-iconAsset 1</title><g id="Layer_2" data-name="Layer 2"><g id="Layer_1-2" data-name="Layer 1"><path class="cls-1" d="M49.12,107.81a5.89,5.89,0,0,1-5.18,0h0A78.17,78.17,0,0,1,0,37.51V20.4a5.92,5.92,0,0,1,4.85-5.82l.77-.14A123,123,0,0,0,43.62.75h0a5.94,5.94,0,0,1,5.78,0h0a122.93,122.93,0,0,0,38,13.69h0l.77.14A5.92,5.92,0,0,1,93,20.4V37.51a78.22,78.22,0,0,1-43.93,70.3ZM12.7,25.08a1.08,1.08,0,0,0-.86,1.06V37.51A66.37,66.37,0,0,0,46,95.56a1.11,1.11,0,0,0,1.06,0,66.43,66.43,0,0,0,34.16-58V26.14a1.09,1.09,0,0,0-.86-1.06A134.94,134.94,0,0,1,47,12.91a1,1,0,0,0-1,0A135.32,135.32,0,0,1,12.7,25.08Z"/><path class="cls-2" d="M77.15,76.45A73.44,73.44,0,0,0,88.32,37.51V20.4a1.18,1.18,0,0,0-1-1.16l-.78-.15A127.48,127.48,0,0,1,47.11,4.88h0a1.17,1.17,0,0,0-1.12,0h0A127.71,127.71,0,0,1,6.52,19.09l-.77.15a1.18,1.18,0,0,0-1,1.16V37.51A73.51,73.51,0,0,0,46,103.56a1.19,1.19,0,0,0,1,0A73.38,73.38,0,0,0,77.15,76.45ZM47.06,95.56a1.11,1.11,0,0,1-1.06,0,66.38,66.38,0,0,1-34.16-58V26.14a1.08,1.08,0,0,1,.86-1.06A135.32,135.32,0,0,0,46,12.91a1,1,0,0,1,1,0A135.53,135.53,0,0,0,80.33,25.08a1.09,1.09,0,0,1,.86,1.06V37.51A66.43,66.43,0,0,1,47,95.56Z"/><path class="cls-1" d="M46.13,17.29a138.88,138.88,0,0,1-29.67,11,.88.88,0,0,0-.68.86v8.4a62.36,62.36,0,0,0,9.49,33.09c.15.25.31.5.47.74a1,1,0,0,0,1.74-.85h0a81.29,81.29,0,0,1-4.64-27.07V42c.36-7.84,9.41-12.14,15.85-7.65a51.19,51.19,0,0,0,11.23,5.89.6.6,0,0,0,.62-1,21.12,21.12,0,0,1-3.14-3.73A1.05,1.05,0,0,1,47.72,34a1,1,0,0,1,.5-.17,28,28,0,0,0,7.57-1.54h0A10.79,10.79,0,0,1,70.21,42.47a81.25,81.25,0,0,1-4.09,25.46L65,71.45a1,1,0,0,0,1.74.85c.37-.56.74-1.12,1.1-1.7a62.36,62.36,0,0,0,9.49-33.09v-8.4a.88.88,0,0,0-.68-.86A138.88,138.88,0,0,1,47,17.25.86.86,0,0,0,46.13,17.29Z"/><path class="cls-1" d="M55.41,83.85h0a3.5,3.5,0,0,1-3.38-3L50.41,70a3.93,3.93,0,0,0-3.88-3.33h0A3.93,3.93,0,0,0,42.65,70L41,80.87a3.5,3.5,0,0,1-3.38,3h0a.49.49,0,0,0-.31.86c2.4,2.08,7.27,5.34,8.75,6.32a.8.8,0,0,0,.89,0,63.19,63.19,0,0,0,8.74-6.34.48.48,0,0,0,.05-.69A.47.47,0,0,0,55.41,83.85Z"/><path class="cls-2" d="M55.5,50H49.58V43.72A1.7,1.7,0,0,0,47.92,42H45.14a1.7,1.7,0,0,0-1.66,1.74h0V50H37.56a1.7,1.7,0,0,0-1.66,1.74h0v2.93a1.7,1.7,0,0,0,1.66,1.74h5.92v6.23a1.7,1.7,0,0,0,1.66,1.74h2.78a1.7,1.7,0,0,0,1.66-1.74h0V56.36H55.5a1.7,1.7,0,0,0,1.66-1.74h0V51.69A1.7,1.7,0,0,0,55.5,50Z"/></g></g></svg>