<svg xmlns="http://www.w3.org/2000/svg" viewBox="0 0 571.04 164.44"><defs><style>.cls-1{fill:#29446e;}.cls-2{fill:#00c7ab;}</style></defs><title>dhc-logoAsset 2</title><g id="Layer_2" data-name="Layer 2"><g id="Layer_1-2" data-name="Layer 1"><path class="cls-1" d="M0,135.4H11.23c8.92,0,15.11,5.68,15.11,14.26s-6.19,14.21-15.11,14.21H0Zm11.23,23.14a8.53,8.53,0,0,0,8.92-8.12c0-.25,0-.51,0-.76,0-5-3.07-8.92-8.92-8.92H6.06v17.8Z"/><path class="cls-1" d="M40.73,142.74c6.14,0,10.33,4.61,10.33,11.36v1.19H35.73c.34,2.61,2.44,4.79,5.94,4.79a8.42,8.42,0,0,0,5.5-2.05l2.39,3.5a12.83,12.83,0,0,1-8.49,2.86c-6.28,0-11-4.23-11-10.85a10.5,10.5,0,0,1,10.19-10.8Zm-5.08,8.88H45.81a4.78,4.78,0,0,0-5-4.56h-.09a4.94,4.94,0,0,0-5.08,4.56Z"/><path class="cls-1" d="M69.76,151.41c0-2.86-1.5-3.84-3.8-3.84a5.88,5.88,0,0,0-4.7,2.43v13.87H55.84V143.26h5.42V146a9.44,9.44,0,0,1,7.22-3.21c4.52,0,6.7,2.57,6.7,6.58v14.55H69.76Z"/><path class="cls-1" d="M82.48,158.75V148H79.06v-4.73h3.42v-5.64h5.46v5.64h4.19V148H87.94v9.31c0,1.28.69,2.26,1.88,2.26A3,3,0,0,0,91.7,159l1.15,4.09a6.66,6.66,0,0,1-4.52,1.33C84.53,164.39,82.48,162.42,82.48,158.75Z"/><path class="cls-1" d="M109.08,161.74a8.53,8.53,0,0,1-6.54,2.65c-3.28,0-7.17-2.22-7.17-6.83,0-4.83,3.89-6.58,7.17-6.58,2.74,0,5.17.86,6.54,2.52v-2.86c0-2.09-1.8-3.46-4.53-3.46a8.67,8.67,0,0,0-6,2.44l-2-3.63a13.53,13.53,0,0,1,9-3.25c4.7,0,9,1.88,9,7.82v13.31h-5.42Zm0-5.38a5.46,5.46,0,0,0-4.36-1.79c-2.13,0-3.88,1.11-3.88,3.11s1.75,3,3.88,3a5.42,5.42,0,0,0,4.36-1.8Z"/><path class="cls-1" d="M120.73,135.4h5.42v28.47h-5.42Z"/><path class="cls-1" d="M146,134.93c8.63,0,14.9,6.15,14.9,14.73s-6.27,14.73-14.9,14.73-14.85-6.15-14.85-14.73S137.42,134.93,146,134.93Zm0,5.38c-5.25,0-8.62,4-8.62,9.35S140.75,159,146,159s8.67-4.06,8.67-9.35S151.25,140.31,146,140.31Z"/><path class="cls-1" d="M167.09,148h-3.41v-4.73h3.41v-1.11c0-4.49,2.91-7.18,7-7.18a8.77,8.77,0,0,1,3.93.86l-1.11,3.84a3.34,3.34,0,0,0-1.75-.43c-1.54,0-2.56,1-2.56,3v1h4.18V148H172.6v15.88h-5.47Z"/><path class="cls-1" d="M181.67,148h-3.41v-4.73h3.41v-1.11c0-4.49,2.9-7.18,7-7.18a8.77,8.77,0,0,1,3.93.86l-1.11,3.93a3,3,0,0,0-1.75-.52c-1.54,0-2.57,1-2.57,2.91v1.11h4.19V148h-4.19v15.88h-5.46Z"/><path class="cls-1" d="M193.88,137a3.25,3.25,0,1,1,3.25,3.25h0A3.27,3.27,0,0,1,193.88,137Z"/><rect class="cls-1" x="194.43" y="143.26" width="5.42" height="20.62"/><path class="cls-1" d="M215.7,142.74c4.22,0,6.78,1.84,8.15,3.72l-3.54,3.33a5,5,0,0,0-4.36-2.22c-3.28,0-5.59,2.39-5.59,6s2.31,6,5.59,6a5.21,5.21,0,0,0,4.36-2.22l3.54,3.29c-1.37,1.92-3.93,3.76-8.15,3.76-6.36,0-10.93-4.49-10.93-10.85S209.34,142.74,215.7,142.74Z"/><path class="cls-1" d="M237.6,142.74c6.14,0,10.33,4.61,10.33,11.36v1.19H232.6c.34,2.61,2.44,4.79,5.94,4.79A8.43,8.43,0,0,0,244,158l2.39,3.5a12.83,12.83,0,0,1-8.49,2.86c-6.28,0-11-4.23-11-10.85a10.49,10.49,0,0,1,10.2-10.77Zm-5.08,8.88h10.16a4.78,4.78,0,0,0-5-4.56h-.09a4.94,4.94,0,0,0-5.08,4.56Z"/><path class="cls-2" d="M272.35,151.92H258.9v12h-6.06V135.4h6.06v11.19h13.45V135.4h6.1v28.47h-6.1Z"/><path class="cls-2" d="M294.12,142.74c6.15,0,10.33,4.61,10.33,11.36v1.19H289.13c.34,2.61,2.43,4.79,5.93,4.79a8.45,8.45,0,0,0,5.51-2.05l2.39,3.5a12.87,12.87,0,0,1-8.5,2.86c-6.27,0-11-4.23-11-10.85a10.5,10.5,0,0,1,10.19-10.8ZM289,151.62h10.2a4.77,4.77,0,0,0-5-4.57h-.11A5,5,0,0,0,289,151.62Z"/><path class="cls-2" d="M321.61,161.74a8.49,8.49,0,0,1-6.53,2.65c-3.28,0-7.17-2.22-7.17-6.83,0-4.83,3.89-6.58,7.17-6.58,2.74,0,5.17.86,6.53,2.52v-2.86c0-2.09-1.79-3.46-4.52-3.46a8.67,8.67,0,0,0-6,2.44L309,146a13.53,13.53,0,0,1,9-3.25c4.69,0,9,1.88,9,7.82v13.31h-5.43Zm0-5.38a5.39,5.39,0,0,0-4.35-1.79c-2.13,0-3.88,1.11-3.88,3.11s1.75,3,3.88,3a5.37,5.37,0,0,0,4.35-1.8Z"/><path class="cls-2" d="M333.27,135.4h5.42v28.47h-5.42Z"/><path class="cls-2" d="M346,158.75V148h-3.41v-4.73H346v-5.64h5.47v5.64h4.18V148h-4.18v9.31c0,1.28.68,2.26,1.87,2.26a3,3,0,0,0,1.88-.59l1.15,4.09a6.66,6.66,0,0,1-4.52,1.33C348,164.39,346,162.42,346,158.75Z"/><path class="cls-2" d="M374.17,151.32c0-2.86-1.5-3.75-3.84-3.75a6,6,0,0,0-4.7,2.43v13.87h-5.42V135.4h5.42V146a9.54,9.54,0,0,1,7.26-3.21c4.52,0,6.7,2.48,6.7,6.49v14.64h-5.42Z"/><path class="cls-1" d="M384.58,149.66c0-8.75,6.62-14.73,14.95-14.73a13.14,13.14,0,0,1,12.12,7l-5.21,2.56a7.81,7.81,0,0,0-6.91-4.14c-5,0-8.71,4-8.71,9.35s3.75,9.35,8.71,9.35a7.7,7.7,0,0,0,6.91-4.14l5.21,2.52a13.24,13.24,0,0,1-12.12,7C391.2,164.39,384.58,158.41,384.58,149.66Z"/><path class="cls-1" d="M428.39,161.74a8.53,8.53,0,0,1-6.54,2.65c-3.28,0-7.17-2.22-7.17-6.83,0-4.83,3.89-6.58,7.17-6.58,2.74,0,5.17.86,6.54,2.52v-2.86c0-2.09-1.8-3.46-4.53-3.46a8.67,8.67,0,0,0-6,2.44l-2-3.63a13.53,13.53,0,0,1,9-3.25c4.7,0,9,1.88,9,7.82v13.31h-5.42Zm0-5.38a5.46,5.46,0,0,0-4.36-1.79c-2.13,0-3.88,1.11-3.88,3.11s1.75,3,3.88,3a5.42,5.42,0,0,0,4.36-1.8Z"/><path class="cls-1" d="M440,143.26h5.42v2.81a8.83,8.83,0,0,1,6.58-3.28v5.29a6.67,6.67,0,0,0-6.58,2.18v13.61H440Z"/><path class="cls-1" d="M465.61,142.74c6.15,0,10.33,4.61,10.33,11.36v1.19H460.62c.34,2.61,2.43,4.79,5.93,4.79a8.45,8.45,0,0,0,5.51-2.05l2.39,3.5a12.85,12.85,0,0,1-8.5,2.86c-6.27,0-11-4.23-11-10.85a10.5,10.5,0,0,1,10.19-10.8Zm-5.08,8.88h10.16a4.77,4.77,0,0,0-5-4.57h-.11a5,5,0,0,0-5.08,4.56Z"/><path class="cls-2" d="M483.5,157.43a3.46,3.46,0,1,1-3.46,3.46h0A3.5,3.5,0,0,1,483.5,157.43Z"/><path class="cls-2" d="M502.11,142.74c4.23,0,6.79,1.84,8.16,3.72l-3.55,3.33a5,5,0,0,0-4.35-2.22c-3.29,0-5.59,2.39-5.59,6s2.3,6,5.59,6a5.19,5.19,0,0,0,4.35-2.22l3.55,3.29c-1.37,1.92-3.93,3.76-8.16,3.76-6.36,0-10.93-4.49-10.93-10.85S495.75,142.74,502.11,142.74Z"/><path class="cls-2" d="M513.34,153.54a10.91,10.91,0,1,1,11,10.85h-.08a10.45,10.45,0,0,1-10.89-10C513.33,154.11,513.33,153.83,513.34,153.54Zm16.18,0c0-3.2-1.92-6-5.29-6s-5.25,2.77-5.25,6,1.88,6,5.25,6S529.52,156.79,529.52,153.54Z"/><path class="cls-2" d="M565.59,150.85c0-1.92-.85-3.28-3.07-3.28a5.49,5.49,0,0,0-4.27,2.39v13.91h-5.46v-13c0-1.92-.86-3.28-3.08-3.28a5.52,5.52,0,0,0-4.26,2.43v13.87H540V143.26h5.43V146a9,9,0,0,1,6.74-3.21c3,0,5,1.41,5.72,3.76a8.75,8.75,0,0,1,7.09-3.76c3.8,0,6.06,2,6.06,6.24v14.89h-5.47Z"/><path class="cls-2" d="M288.12,107.81a5.89,5.89,0,0,1-5.18,0h0A78.17,78.17,0,0,1,239,37.51V20.4a5.92,5.92,0,0,1,4.85-5.82l.77-.14a123,123,0,0,0,38-13.69h0a5.94,5.94,0,0,1,5.78,0h0a122.93,122.93,0,0,0,38,13.69h0l.77.14A5.92,5.92,0,0,1,332,20.4V37.51a78.22,78.22,0,0,1-43.93,70.3ZM251.7,25.08a1.08,1.08,0,0,0-.86,1.06V37.51A66.37,66.37,0,0,0,285,95.56a1.11,1.11,0,0,0,1.06,0,66.43,66.43,0,0,0,34.16-58V26.14a1.09,1.09,0,0,0-.86-1.06A134.94,134.94,0,0,1,286,12.91a1,1,0,0,0-1,0A135.32,135.32,0,0,1,251.7,25.08Z"/><path class="cls-1" d="M316.15,76.45a73.44,73.44,0,0,0,11.17-38.94V20.4a1.18,1.18,0,0,0-1-1.16l-.78-.15A127.48,127.48,0,0,1,286.11,4.88h0a1.17,1.17,0,0,0-1.12,0h0a127.71,127.71,0,0,1-39.47,14.21l-.77.15a1.18,1.18,0,0,0-1,1.16V37.51A73.51,73.51,0,0,0,285,103.56a1.19,1.19,0,0,0,1,0A73.38,73.38,0,0,0,316.15,76.45ZM286.06,95.56a1.11,1.11,0,0,1-1.06,0,66.38,66.38,0,0,1-34.16-58V26.14a1.08,1.08,0,0,1,.86-1.06A135.32,135.32,0,0,0,285,12.91a1,1,0,0,1,1,0,135.53,135.53,0,0,0,33.33,12.17,1.09,1.09,0,0,1,.86,1.06V37.51A66.43,66.43,0,0,1,286,95.56Z"/><path class="cls-2" d="M285.13,17.29a138.88,138.88,0,0,1-29.67,11,.88.88,0,0,0-.68.86v8.4a62.36,62.36,0,0,0,9.49,33.09c.15.25.31.5.47.74a1,1,0,0,0,1.74-.85h0a81.29,81.29,0,0,1-4.64-27.07V42c.36-7.84,9.41-12.14,15.85-7.65a51.19,51.19,0,0,0,11.23,5.89.6.6,0,0,0,.62-1,21.12,21.12,0,0,1-3.14-3.73,1.05,1.05,0,0,1,.32-1.46,1,1,0,0,1,.5-.17,28,28,0,0,0,7.57-1.54h0a10.79,10.79,0,0,1,14.42,10.18,81.25,81.25,0,0,1-4.09,25.46L304,71.45a1,1,0,0,0,1.74.85c.37-.56.74-1.12,1.1-1.7a62.36,62.36,0,0,0,9.49-33.09v-8.4a.88.88,0,0,0-.68-.86,138.88,138.88,0,0,1-29.67-11A.86.86,0,0,0,285.13,17.29Z"/><path class="cls-2" d="M294.41,83.85h0a3.5,3.5,0,0,1-3.38-3L289.41,70a3.93,3.93,0,0,0-3.88-3.33h0A3.93,3.93,0,0,0,281.65,70L280,80.87a3.5,3.5,0,0,1-3.38,3h0a.49.49,0,0,0-.31.86c2.4,2.08,7.27,5.34,8.75,6.32a.8.8,0,0,0,.89,0,63.19,63.19,0,0,0,8.74-6.34.48.48,0,0,0,.05-.69A.47.47,0,0,0,294.41,83.85Z"/><path class="cls-1" d="M294.5,50h-5.92V43.72A1.7,1.7,0,0,0,286.92,42h-2.78a1.7,1.7,0,0,0-1.66,1.74h0V50h-5.92a1.7,1.7,0,0,0-1.66,1.74h0v2.93a1.7,1.7,0,0,0,1.66,1.74h5.92v6.23a1.7,1.7,0,0,0,1.66,1.74h2.78a1.7,1.7,0,0,0,1.66-1.74h0V56.36h5.92a1.7,1.7,0,0,0,1.66-1.74h0V51.69A1.7,1.7,0,0,0,294.5,50Z"/></g></g></svg>