<svg xmlns="http://www.w3.org/2000/svg" viewBox="0 0 124.63 133.45"><defs><style>.cls-1{fill:#1a6172;}.cls-2{fill:#f4d589;}</style></defs><title>rhc-logo-Asset 1</title><g id="Layer_2" data-name="Layer 2"><g id="Layer_1-2" data-name="Layer 1"><polygon class="cls-1" points="115.73 66.77 124.64 66.77 95.7 36.72 95.7 17.8 84.57 17.8 84.57 25.59 61.2 0 0 66.77 8.9 66.77 8.9 133.45 115.73 133.45 115.73 66.77"/><path class="cls-2" d="M95.31,66.71H75.64V47a2.32,2.32,0,0,0-2.33-2.32h-22A2.32,2.32,0,0,0,49,47V66.71H29.33A2.32,2.32,0,0,0,27,69V91a2.32,2.32,0,0,0,2.32,2.32H49V113a2.32,2.32,0,0,0,2.32,2.32h22A2.32,2.32,0,0,0,75.64,113V93.35H95.31A2.32,2.32,0,0,0,97.63,91V69A2.32,2.32,0,0,0,95.31,66.71Z"/></g></g></svg>