<?xml version="1.0" encoding="utf-8"?>
<!-- Generator: Adobe Illustrator 23.1.0, SVG Export Plug-In . SVG Version: 6.00 Build 0)  -->
<svg version="1.1" id="Layer_1" xmlns="http://www.w3.org/2000/svg" xmlns:xlink="http://www.w3.org/1999/xlink" x="0px" y="0px"
	 viewBox="0 0 133 148.8" style="enable-background:new 0 0 133 148.8;" xml:space="preserve">
<style type="text/css">
	.st0{fill:#28436D;}
	.st1{fill:#F15A24;}
	.st2{fill:#5D6BB2;}
	.st3{fill:#29B473;}
	.st4{fill:#48A3DB;}
	.st5{opacity:0.3;enable-background:new    ;}
</style>
<path class="st0" d="M44.3,86.8L44.3,86.8V59.7L0,37.2V62l22.1,12.4l0,0L0,86.8v24.8l22.1,12.4l0,0l22.2-12.4l23.9-11.4L44.3,86.8z"
	/>
<polygon class="st1" points="94.6,86.7 94.6,86.8 94.5,86.8 "/>
<polygon class="st1" points="94.6,111.5 94.6,111.6 94.5,111.6 "/>
<polygon class="st2" points="91.1,85.4 66.5,99.2 66.5,99.2 66.5,99.2 44.3,111.5 44.3,111.6 44.3,136.4 66.5,148.7 66.5,148.8 
	88.7,136.4 88.7,136.4 88.7,136.3 88.7,111.6 88.6,111.6 88.7,111.5 88.7,111.6 110.8,124 110.9,123.9 133,111.5 "/>
<polygon class="st1" points="50.2,111.5 50.2,111.6 50.2,111.6 "/>
<path class="st3" d="M133,111.5L133,111.5V86.8l0,0l-22.1-12.4l0,0L133,62l0,0V37.2l0,0l-22.1-12.4l0,0L88.8,37.2l0,0L63,47.6
	L88.7,62l0,0v24.8"/>
<path class="st4" d="M44.3,62L44.3,62l22.2-12.4l0,0l22.2-12.4l0,0V12.4l0,0L66.5,0L44.3,12.4v24.8l0,0L22.2,24.8l0,0L0,37.2l0,0"/>
<polygon class="st5" points="66.5,49.6 88.7,27 88.7,37.2 "/>
<polygon class="st5" points="44.3,62 35.3,32 44.3,37.2 "/>
<polygon class="st5" points="44.4,86.7 13.1,79.4 22.2,74.3 "/>
<polygon class="st5" points="66.5,99.1 44.3,121.7 44.4,111.5 "/>
<polygon class="st5" points="88.7,86.7 97.8,116.6 88.7,111.5 "/>
<polygon class="st5" points="88.6,61.9 119.9,69.3 110.8,74.3 "/>
</svg>
