<svg xmlns="http://www.w3.org/2000/svg" viewBox="0 0 481.22 148.75"><defs><style>.cls-1{fill:#383735;}.cls-2{fill:#28436d;}.cls-3{fill:#f15a24;}.cls-4{fill:#5d6bb2;}.cls-5{fill:#29b473;}.cls-6{fill:#48a3db;}.cls-7{opacity:0.3;isolation:isolate;}.cls-8{fill:#4c4b4a;}</style></defs><title>candor_logo_horizontal_fullcolorAsset 1</title><g id="Layer_2" data-name="Layer 2"><g id="Layer_1-2" data-name="Layer 1"><path class="cls-1" d="M182.41,52.53a22.2,22.2,0,0,1,15.9,6.11,1.26,1.26,0,0,1,.14,1.76h0l-.08.08-4,4.14a1.07,1.07,0,0,1-1.5.15h0a.71.71,0,0,1-.15-.15,15.59,15.59,0,0,0-10.12-3.88c-8.4,0-14.64,7-14.64,15.31a14.88,14.88,0,0,0,14.63,15.12h.07a15.7,15.7,0,0,0,10-3.75,1.24,1.24,0,0,1,1.65,0l4.06,4.2a1.24,1.24,0,0,1,0,1.76h0a22.45,22.45,0,0,1-15.95,6.38,23.66,23.66,0,1,1-1.09-47.23h1.07Z"/><path class="cls-1" d="M205.92,97.41l20.44-44.22a1.24,1.24,0,0,1,1.11-.73h.67a1.15,1.15,0,0,1,1.11.73l20.23,44.22A1.14,1.14,0,0,1,249,99a1.09,1.09,0,0,1-.66.14h-5.75a1.9,1.9,0,0,1-1.92-1.25l-3.21-7.09H217.88l-3.21,7.09a2,2,0,0,1-1.92,1.25H207a1.15,1.15,0,0,1-1.25-1v0A1.12,1.12,0,0,1,205.92,97.41Zm28.39-14L227.74,69h-.13l-6.5,14.46Z"/><path class="cls-1" d="M260.39,53.65a1.25,1.25,0,0,1,1.25-1.19h1.64l27.34,29h.06V54.38a1.25,1.25,0,0,1,1.25-1.25h6a1.25,1.25,0,0,1,1.25,1.25V98.59A1.25,1.25,0,0,1,298,99.84h-1.58L268.88,69.61h0V97.87a1.25,1.25,0,0,1-1.25,1.25h-6a1.25,1.25,0,0,1-1.25-1.25Z"/><path class="cls-1" d="M316.1,54.38a1.25,1.25,0,0,1,1.18-1.25h15.58a23,23,0,0,1,1.05,46H317.28a1.26,1.26,0,0,1-1.18-1.25Zm16,36.71a14.47,14.47,0,0,0,14.79-14.16c0-.28,0-.56,0-.84a14.48,14.48,0,0,0-13.93-15h-8.35v30Z"/><path class="cls-1" d="M389.81,52.53a23.52,23.52,0,1,1-.12,0Zm0,38.76a15.12,15.12,0,1,0-15-15.23v.23A15.11,15.11,0,0,0,389.81,91.29Z"/><path class="cls-1" d="M427,54.38a1.25,1.25,0,0,1,1.25-1.25H447a14.22,14.22,0,0,1,14.32,14.12c0,6-4,11-9.73,13.26l9,16.7a1.25,1.25,0,0,1-.38,1.71,1.14,1.14,0,0,1-.7.19h-6.9a1.14,1.14,0,0,1-1.05-.59l-8.76-17.41h-7.29V97.87a1.25,1.25,0,0,1-1.25,1.25h-6A1.25,1.25,0,0,1,427,97.87Zm19.33,19.71a6.71,6.71,0,0,0,6.5-6.71,6.55,6.55,0,0,0-6.5-6.38H435.6V74.09Z"/><path class="cls-2" d="M44.33,86.78h0V59.72L0,37.21V62L22.15,74.36h0L0,86.75v24.82l22.15,12.36h0l22.16-12.39,23.86-11.42Z"/><polygon class="cls-3" points="94.55 86.74 94.55 86.78 94.51 86.75 94.55 86.74"/><polygon class="cls-3" points="94.55 111.53 94.55 111.59 94.5 111.57 94.55 111.53"/><polygon class="cls-4" points="91.11 85.39 66.51 99.15 66.51 99.17 66.48 99.17 44.33 111.54 44.33 111.59 44.33 136.35 66.51 148.73 66.53 148.75 88.68 136.38 88.69 136.38 88.69 136.34 88.69 111.59 88.63 111.57 88.69 111.53 88.69 111.59 110.82 123.96 110.87 123.95 132.99 111.54 91.11 85.39"/><polygon class="cls-3" points="50.19 111.54 50.19 111.59 50.17 111.57 50.19 111.54"/><path class="cls-5" d="M133,111.54h0V86.79h0L110.87,74.41h0L133,62h0V37.21h0l-22.12-12.4h0L88.79,37.19h0L63,47.64,88.66,62h0V86.78"/><path class="cls-6" d="M44.32,62h0L66.47,49.59h0L88.62,37.21h0V12.39h0L66.51,0,44.33,12.37V37.21h0L22.17,24.81h0L0,37.17H0"/><polygon class="cls-7" points="66.48 49.57 88.69 26.99 88.66 37.18 66.48 49.57"/><polygon class="cls-7" points="44.35 61.98 35.26 32.05 44.35 37.18 44.35 61.98"/><polygon class="cls-7" points="44.37 86.74 13.07 79.41 22.2 74.35 44.37 86.74"/><polygon class="cls-7" points="66.53 99.11 44.32 121.7 44.36 111.5 66.53 99.11"/><polygon class="cls-7" points="88.67 86.72 97.76 116.63 88.67 111.5 88.67 86.72"/><polygon class="cls-7" points="88.64 61.94 119.94 69.28 110.82 74.34 88.64 61.94"/><path class="cls-8" d="M468.89,55.34h-1.84a.23.23,0,0,1-.21-.21V54.5a.22.22,0,0,1,.21-.21h4.85a.23.23,0,0,1,.22.21v.63a.24.24,0,0,1-.22.21h-1.84V62a.22.22,0,0,1-.21.22h-.75a.24.24,0,0,1-.21-.22Z"/><path class="cls-8" d="M474,54.34a.2.2,0,0,1,.21-.16h.18c.07,0,.17,0,.18.12l2.37,5.75h0l2.34-5.75a.22.22,0,0,1,.2-.12h.17a.2.2,0,0,1,.2.16l1.39,7.5c0,.16,0,.27-.2.27h-.79a.21.21,0,0,1-.21-.17l-.83-5h0l-2,5.18a.18.18,0,0,1-.19.12h-.21a.18.18,0,0,1-.19-.12l-2-5.18h0l-.8,5a.21.21,0,0,1-.21.17h-.73c-.16,0-.23-.11-.21-.27Z"/></g></g></svg>