<svg xmlns="http://www.w3.org/2000/svg" width="267" height="253" viewBox="0 0 267 253"><g><g/><g><g><path fill="#3564b9" d="M140.312 121.151c-10.185 0-18.441-8.256-18.441-18.44 0-10.186 8.256-18.442 18.44-18.442 10.185 0 18.442 8.256 18.442 18.441 0 10.185-8.257 18.441-18.441 18.441zm26.952-18.44c.002-14.887-12.064-26.956-26.949-26.958-14.886-.002-26.955 12.063-26.957 26.95-.002 13.218 9.582 24.487 22.63 26.607-.594 15.32-5.34 26.921-14.132 34.51-9.643 8.32-21.1 8.966-24.386 8.966-4.258 0-15.177-.837-24.6-8.6-9.467-7.8-14.267-20.084-14.267-36.507v-17.022c0-5.089 0-6.8 5.274-12.012 9.012-8.9 26.412-26.162 33.874-33.624 9.52-9.52 10.94-19.636 10.94-24.822V22.021c0-9.85-5.654-15.97-14.758-15.97H78.707v-1.2a4.85 4.85 0 0 0-9.7 0v10.906a4.85 4.85 0 0 0 9.7 0v-1.2h15.222c2.909 0 6.248.848 6.248 7.46V40.2c0 3.864-1.1 11.452-8.45 18.8-7.451 7.452-24.832 24.7-33.835 33.584a40.706 40.706 0 0 0-3.55 3.934 41.089 41.089 0 0 0-3.548-3.934c-9-8.89-26.386-26.133-33.837-33.584-7.351-7.352-8.448-14.937-8.448-18.8V22.021c0-3.47.71-7.459 6.247-7.459H29.98v1.2a4.85 4.85 0 0 0 9.7 0V4.853a4.851 4.851 0 0 0-9.7-.007v1.207H14.758C5.658 6.053 0 12.173 0 22.023v18.176c0 5.184 1.419 15.3 10.94 24.822 7.463 7.462 24.864 24.725 33.875 33.624 5.274 5.209 5.274 6.922 5.274 12.012v17.021c0 19.084 5.843 33.58 17.366 43.076 11.553 9.518 24.842 10.547 30.015 10.547a46.71 46.71 0 0 0 29.946-11.034c10.719-9.25 16.459-23.011 17.09-40.93 13.095-2.084 22.739-13.367 22.758-26.627z"/></g><g><path fill="none" stroke="#5886e2" stroke-linecap="round" stroke-miterlimit="50" stroke-width="2" d="M115.829 101.621v0s.626-13.991 13.148-20.27a23.855 23.855 0 0 1 24.852 1.27"/></g><g><path fill="none" stroke="#5886e2" stroke-linecap="round" stroke-miterlimit="50" stroke-width="2" d="M28.948 8.44v0h-15.3c-7.82 0-10.82 8.181-10.82 10.181"/></g><g><path fill="none" stroke="#5886e2" stroke-linecap="round" stroke-miterlimit="50" stroke-width="2" d="M54.829 102.621c0-3 5.278-8.619 6.189-9.553 8.823-9.041 32.81-32.447 32.81-32.447v0"/></g><g><path fill="none" stroke="#5886e2" stroke-linecap="round" stroke-miterlimit="50" stroke-width="2" d="M78.982 8.098h15.725"/></g></g><g><path fill="#875b4b" d="M196.608 233l.748 1.797c.118.284.835 1.207.858 1.53-.016.23.024.324.063.418.984 2.366 2.599 4.914 4.956 6.043 1.245.592 3.019.854 3.919-.187 1.246-.74-.251-3.004-.684-4.045-1.102-2.65-2.452-5.403-2.852-8.234-.486-4.905 1.633-9.91 2.882-14.648.862-3.8 1.952-7.584 3.272-11.352 1.397-3.579 2.969-7.008 4.5-10.532 2.14-4.997 3.382-10.287 4.89-15.467.609-1.474-.42-14.139-1.28-18.933-.733-3.978-1.265-8.064-2.2-11.933-.595-2.75-3.44-5.333-5.641-6.908-5.657-4.037-12.531-4.14-19.067-3.228-1.534.148 14.522 29.718 15.898 34.6 1.026 3.456-1.21 10.242-3.12 12.59-3.78 4.792-5.077 24.093-5.221 27.484a83.333 83.333 0 0 1-1.008 11.188c-.262 1.774-.886 3.476-1.376 5.235-.071.362-.181.63-.158.953-.04 1.238.282 2.547.62 3.628z"/></g><g><path fill="#875b4b" d="M187.668 239.196c-.333-1.29-.752-2.697-.968-4.074-.346-1.914-.682-4.273-.618-6.918.063-2.645.683-6.539 1.19-10.423.403-3.886 2.39-18.095 2.8-20.924 1.885-14.747 3.77-29.495 5.553-44.231-.068.317-3.295.981-3.691 1.128-1.303.35-2.605.699-3.918.946a98.864 98.864 0 0 1-7.71 1.157l-.306.034c-.917.101.556 15.539.678 17.588.32 6.668-3.872 13.39-4.061 20.114-.41 12.213.822 23.739 2.679 35.68.514 4.114.242 7.407 1.325 11.394 1.083 3.988 5.785 9.504 6.307 9.476 1.058-.159 3.542-1.581 3.384-2.64-.331-2.74-1.605-4.015-2.168-6.581z"/></g><g><path fill="#16346f" d="M191.55 249.388c-.288-1.261-2.027-5.415-2.692-7.271-.13-.536-2.136-6.79-2.266-7.326 1.025 5.125 3.666 11.797 1.727 12.766-.926.463-3.07.97-5.745-4.216-.948-1.839-.904-4.087-1.58-5.587s-1.294-2.76-1.265-2.963c-.001.724.097 3.484.198 4.223.214 2.827 1.067 5.539 2.369 8.004a9.406 9.406 0 0 0 3.344 4.106 5.362 5.362 0 0 0 3.68 1.048c1.638.019 2.519-1.522 2.23-2.784z"/></g><g><path fill="#16346f" d="M195.914 232.399c.307 1.538.763 2.902 1.354 4.322a30.421 30.421 0 0 0 1.937 3.857c1.465 2.721 3.56 5.624 6.824 6.265.994.253 2.232.293 2.98-.574.9-1.04.232-2.649-.335-3.746-.394-.946-.843-1.758-1.331-2.665-.646-1.286-2.131-4.354-2.722-5.774.315.757 1.336 3.242 1.516 3.944.18.701.268 1.443.22 2.129-.016.228-.127.496-.237.764-.576 1.017-1.98 1.379-2.997.803-1.553-.798-2.545-2.383-3.554-3.74-.661-1.057-1.323-2.114-1.89-3.21-.803-1.665-1.323-3.447-1.653-5.308-.071.363-.181.631-.158.954-.048.686-.001 1.333.046 1.979z"/></g><g><path fill="#2d2355" d="M202.68 51.445c-.466-4.095-5.195-4.308-7.845-5.506a15.921 15.921 0 0 1-5.241 8.558l.624 2.606.114-.047a3.55 3.55 0 0 1 2.32-.28 4.478 4.478 0 0 1 3.987 1.128c.294.277.557.584.786.917 3.03-1.511 5.582-4.438 5.256-7.376z"/></g><g><path fill="#875b4b" d="M202.208 44.691c.336-.544-.16-1.837 1.051-3.232.528-.608.639-1.693.482-2.459-.157-.766-.031-1.459.278-1.84.31-.38 2.685-.59 2.85-1.39.094-.673-.456-3.192-.903-5.157-.821-3.386-1.297-5.347-1.96-6.714-2.566-5.258-9.853-4.122-14.614-4.237a8.306 8.306 0 0 0-4.18.628c-2.165 1.161-2.844 3.871-3.608 6.005-1.955 4.718.374 7.592.374 7.592s-5.46-.813-5.512 3.412c-.052 4.226 5.219 8.765 5.16 8.849 2.722.746 4.04 14.248 6.75 15.098l9.426.814 3.366-5.627c-.353-1.515-4.727-2.238-5.042-3.774-1.03-5.023-1.542-7.177 0-8.157 3.376.563 5.32 1.423 6.082.19z"/></g><g><path fill="#d4f8ef" d="M179.312 179.526c-7.464 15.471-1.68 48.343-1.891 48.678l9.654.111c.724-1.046 5.895-54.239 5.895-54.239l3.734-21.093-22.077-9.421s6.786 31.609 4.685 35.964zm7.616-43.139c.869 3.157 9.622 14.518 15.214 25.562 3.136 6.195 4.703 16.408 3.9 17.879-5.016 9.194-7.84 11.911-9.89 41.637l10.252 1.025c6.514-33.801 15.064-37.539 13.855-48.609-.542-4.434-5.607-39.308-6.68-43.644l-26.651 6.15z"/></g><g><path fill="#f7f7f7" d="M208.403 99.74c2.05 6.15 14.35 3.075 17.426 0l11.275-7.175c-6.845-2.13-19.221 2.588-21.218 2.058a81.624 81.624 0 0 1-5.433-11.283c-.85 4.253-4.1 10.25-2.05 16.4z"/></g><g><path fill="#efefef" d="M221.885 158.674l-14.468 1.771-4.09-28.158-1.185 28.347-29.653-1.374s0-6.634 2.038-25.728c1.244-11.652 5.083-18.396 8.13-25.708 1.617-3.87-7.555-45.502-7.555-45.502a3.895 3.895 0 0 1 3.575-4.608l6.15-1.025 14.437 12.308-2.26-16.061 1.723 1.201a3.523 3.523 0 0 1 3.959 2.382c.536 1.611 1.269 3.717 2.14 5.793 1.294 3.108 1.905 5.36 5.07 9.123 2.327 3.861 2.194 6.403 1.285 8.971 0 0-2.788 16.422-.557 27.928z"/></g><g opacity=".7"><path fill="#d4f8ef" d="M200.516 108.658c-.34-1.719.492-8.303 1.376-15.253.64-4.813 1.005-9.658 1.094-14.512 0-3.63-1.743-5.974-3.23-8.453a24.477 24.477 0 0 1-1.762-3.916c.386 1.381 6.347 7.833 6.349 11.788.005 2.946-.79 9.175-1.552 15.206-.84 6.582-1.701 13.428-1.395 14.96.615 3.082 2.617 39.721 2.692 41.271 0 0-2.963-38.041-3.572-41.09z"/></g><g><path fill="#16346f" d="M227.515 93.933l38.95-4.979.309.364-5.126 19.62-1.176 1.324-38.937 4.976-.324-.688 5.125-19.627z"/></g><g><path fill="#fff" d="M259.085 108.293l-35.028 4.482a.284.284 0 0 1-.32-.244l-.001-.001a.295.295 0 0 1 .01-.122l3.969-15.851a1.41 1.41 0 0 1 1.177-.995l35.028-4.481a.285.285 0 0 1 .307.367l-3.97 15.85c-.16.534-.62.923-1.172.995z"/></g><g><path fill="#875b4b" d="M219.678 109.991l-2.05 5.125s3.97 2.248 5.823 3.318c1.352.782 5.74 1.008 7.624.49a22.713 22.713 0 0 0 5.004-2.783c1.64-1.279 2.445-2.105 2.05-3.075 0 0-7.175 1.025-8.2-1.025-1.025-2.05 4.708-3.983 3.075-5.126-1.23-.856-2.768.796-4.564 2.126-.6.443-3.61 1.988-4.662 1.975a11.697 11.697 0 0 1-4.1-1.025z"/></g><g><path fill="#f6f6f6" d="M184.827 102.815c-4.558-6.236-14.338-27.983-14.896-33.528-.253-2.474 3.314-11.629 8.339-11.418h.03c7.552 1.895 5.256 15.848 5.502 18.295.6 3.637 5.8 16.469 10.25 22.551 1.176 1.634 23.377 8.253 24.6 8.2 2.484-.138.839 12.096-1.185 10.931-2.637-1.468-28.083-8.795-32.64-15.031z"/></g><g><path fill="#f4f4f4" d="M260.293 95.678l-1.83 5.907a.101.101 0 0 0 .114.126l3.514-.457a.513.513 0 0 0 .429-.352l.4-1.305 2.024-.265a.269.269 0 0 0 .205-.172l.865-2.81a.046.046 0 0 0-.061-.022h-.001l-2.105.278.485-1.573a.11.11 0 0 0 0-.044.102.102 0 0 0-.117-.083l-3.515.458a.498.498 0 0 0-.407.314z"/></g><g><path fill="#f7f7f7" d="M207.378 67.964c-1.104-5.638-2.203-10.118-2.851-11.22a4.48 4.48 0 0 0-3.5-2.216 3.502 3.502 0 0 1 1.656 1.99c.536 1.611 1.269 4.742 2.14 6.818.42.997 2.555 4.682 2.555 4.628z"/></g><g><path fill="#875b4b" d="M237.162 92.528a27.109 27.109 0 0 1 7.018-2.099c4.195-.694 7.967 1.268 6.428 2.385-1.54 1.117-3.728-.48-7.192-.134a25.42 25.42 0 0 1-6.254-.152z"/></g><g><path fill="#d4f8ef" d="M188.927 56.69s3.626 3.616 6.15 3.074c2.525-.542 2.052-3.704 2.052-3.704l5.89 19.721-16.534-16.876z"/></g><g><path fill="#f6f6f6" d="M179.348 61.246l6.734-3.488 15.086 16.133-12.72-3.558-.13-4.508z"/></g><g><path fill="#f6f6f6" d="M202.916 74.382l-5.77-17.903-1.02-3.82 5.042.96-.53 7.627 2.381 1.388z"/></g><g><path fill="#2d2355" d="M205.68 25.519a28.26 28.26 0 0 1-4.965-3.079s.233 5.025-9.738 1.566c-2.824.399-1.11 4.075-1.453 7.27a4.432 4.432 0 0 0-2.33-2.212 2.506 2.506 0 0 0-3.466 2.004c-.88 4.485 5.717 5.826 5.617 6.845 0 0-4.653 9.513 1.632 15.698.847 7.327-18.712 15.882-23.046 5.073-3.38-7.719 7.206-12.53 6.615-20.113-.79-10.075-1.185-17.738 5.6-23.062 6.788-5.324 19.19-.601 19.19-.601 7.138.107 6.345 10.611 6.345 10.611z"/></g></g></svg>