<svg xmlns="http://www.w3.org/2000/svg" width="293" height="265" viewBox="0 0 293 265"><g><g><path fill="#f3c2aa" d="M11.058 92.28c1.014-.464 3.608 2.604 6.418 3.894 2.101 1.01 3.793 4.103 3.793 4.103l17.372 2.474-1.418 7.106-17.384-3.716s-5.083 1.38-9.409.33c-2.376-.601-6.786-1.506-8.346-2.742-.5-.394 1.141-.352.984-1.014-.123-.52-3.148-2.368-3.155-2.901a6.708 6.708 0 0 1 .186-1.701c.078-.323 3.746-.184 3.895-.41.203-.31-2.341-1.805-2.029-1.97 2.457-1.294 5.03 1.927 12.067 2.077-1.982-1.012-4.613-4.742-2.974-5.53z"/></g><g><path fill="#28b573" d="M52.294 85.377c4.67-15.84 13.719-34.382 21.277-30.994 9.01 4.038-4.634 27.798-10.654 40.98a80.394 80.394 0 0 1-9.304 14.899c-.63.823-7.745 3.743-18.562 1.415-12.027-2.593-15.744-4.379-15.744-4.379l3.566-8.353 21.757.365s6.787-11.001 7.664-13.933z"/></g><g><path fill="#030303" d="M26.738 255.83a34.915 34.915 0 0 0 7.631-2.777s2.343 3.335 7.356 1.75c.72 3.236.21 6.624-1.428 9.507l-6.796-1.387.29-1.418a52.748 52.748 0 0 1-11.407-.842c-5.553-1.13-6.243-2.87-5.44-3.61.804-.74 4.552-.097 9.794-1.224z"/></g><g><path fill="#002853" d="M59.198 121.2l28.812-3.802c1.411 29.686-18.746 49.142-29.756 74.236-5.597 18.889-8.265 46.232-12.165 65.664-3.807-.888-10.907-2.925-14.68-3.999.972-23.123 4.053-50.417 10.243-72.019 6.189-21.602 17.546-60.08 17.546-60.08z"/></g><g><path fill="#030303" d="M152.205 222.1s4.096-1.225 4.176-6.701a14.008 14.008 0 0 1 9.008 4.525l-3.63 6.271-1.314-.755a54.602 54.602 0 0 1-4.61 11.012c-2.963 5.133-4.94 5.246-5.412 4.219-.471-1.029 1.42-4.568 2.028-10.127.252-2.815.17-5.65-.246-8.444z"/></g><g><path fill="#16346f" d="M113.334 181.287c12.015 14.222 31.776 21.07 47.147 31.61-1.896 3.411-6.104 9.883-7.893 13.407-20.153-10.461-46.082-23.112-60.173-41.517-14.09-18.405-21.11-42.487-29.141-64.157l28.24-3.735c11.037 20.287 10.043 44.394 21.82 64.392z"/></g><g><path fill="#f3c2aa" d="M111.355 149.63c-1.884 1.203-2.327-7.893-3.838-11.043-.234 2.21-2.76 6.013-4.058 4.783-.823-.764 1.094-4.305 1.281-7.363.142-2.328 2.448-5.029 2.448-5.029l-2.928-16.303 7.182-.943 1.737 16.393s3.138 4.273 3.722 8.686c.43 3.33.6 6.25-.783 8.307-.232.343-.804-1.163-1.1-.89-.183.168.21 1.99-1.675 3.193-.628.402-1.122.096-1.988.209z"/></g><g><path fill="#16346f" d="M90.368 16.016l2.436-1.505s-1.211-.126-3.424-.056l.79-2.161s-.543.344-1.476 1.065c-4.125-7.434-33.322-3.044-26.767 8.004 7.617 12.836 5.375 23.754 18.525 22.15 10.907-1.318 20.227-20.046 9.916-27.497z"/></g><g><path fill="#f3c2aa" d="M81.653 37.778a17.695 17.695 0 0 0 4.36 11.33s-.413 4.183-5.942 6.168c-5.53 1.985-7.948-2.173-7.948-2.173l-2.82-9.275s6.796-6.106 12.35-6.05z"/></g><g><path fill="#f3c2aa" d="M78.204 32.724l2.755.609s3.536-5.839 6.174-2.871c2.395 2.692-1.56 10.204-5.352 9.448-11.775 9.021-17.247 7.986-18.685 5.259-.872-1.652-.15-6.89-.596-8.784-.344-1.469-2.75-.938-2.836-2.471-.259-4.666 4.252-12.76 4.252-12.76l14.918-1.568s3.437 6.942-.63 13.138z"/></g><g><path fill="#3bbc80" d="M60.768 67.738c2.22-5.898 6.69-10.162 10.95-14.808 0 0 5.9.87 13.326-5.603 8.843 7.433 11.468 5.782 8.974 33.026-1.466 15.89-7.554 11.833-2.475 36.58L59.222 121.2s-2.438-14.833-2.804-28.078c-.39-14.102 2.598-20.739 4.35-25.383z"/></g><g><path fill="#51c38e" d="M96.31 89.317c-8.952-14.179-17.074-33.505-9.57-37.084 8.943-4.271 18.42 16.726 22.957 30.754 6.255 19.328 4.043 45.31 4.043 45.31l-8.812 2.12s-1.671-30.097-8.618-41.1z"/></g><g opacity=".37"><path fill="#daecff" d="M223.012 62.128a26.556 26.556 0 0 1 4.4-8.866c5.156-6.79 13.42-9.631 24.208-24.2 10.79-14.57 8.261-22.892-.31-27.494-6.842-3.67-11.727-.29-15.6 3.88-3.875 4.169-10.5 14.609-14.268 32.146-2.99 13.894-.815 24.25.221 27.948.1 8.968-.1 25.786-2.7 34.15a96.66 96.66 0 0 0-4.832 11.44c1.15-11.751 1.614-34.126-4.773-47.9-2.538-8.3-6.58-18.95-12.264-26.275-10.63-13.612-25.33-12.234-28.316-5.507-1.948 4.38-4.206 5.339 2.031 13.293 6.238 7.954 18.57 7.97 30.363 14.5a23.792 23.792 0 0 1 7.895 6.784c6.944 17.922 3.841 47.533 2.727 51.927-1.022 3.377-2.185 7.588-3.393 11.955-2.494 9.009-5.073 18.33-6.676 21.41-.952 1.825-3.648 5.928-7.088 10.858 4.187-9.567 8.223-22.478 5.472-32.9l-.218.066a82.369 82.369 0 0 0-3.558-12.036c-6.068-16.42-18.893-31.163-29.7-32.007-10.809-.844-13.362 6.042-13.85 12.852-.126 1.736 2.155 6.017 9.1 11.03 6.945 5.013 20.742 5.387 32.171 13.682a13.337 13.337 0 0 1 4.763 6.769c3.422 12.962-4.094 30.12-8.874 39.2-5.564 7.642-11.717 15.692-15.725 20.054l-.337-.143c2.3-3.3 16.494-24.68 5.285-35.121-12.157-11.344-20.862-13.3-26.9-6.54-6.04 6.762.65 9.654 3.928 13.195 3.279 3.54 16.676 7.776 18.18 15.263.849 4.368.63 8.877-.636 13.143l-.634-.264a15.416 15.416 0 0 1-4.02 5.179c-7.078 5.955-17.344 13.643-17.462 13.726l.818 1.1c.124-.085 10.36-7.748 17.47-13.728l.079-.024c1.1-.93 2.131-1.813 3.03-2.624.668-.607 1.475-1.43 2.415-2.437.075-.07 3.541-3.072 4.5-3.746l-.211-.307c4.038-1.447 17.305-5.88 23.284-3.954 6.816 2.192 11.87 9.322 21.863 12.368 9.991 3.046 16 1.188 23.028-4.192 7.03-5.38-5.5-19.816-23.4-21.822-15.887-1.782-39.8 13.82-44.971 17.344l-.2-.287c7.186-8.824 17.023-22.583 21.565-29.588a108.82 108.82 0 0 0 11.044-14.435c1.028-1.238 2.51-2.956 4.613-5.25 5.26-5.747 9.593-6.33 18.932-9.845 9.34-3.516 18.114.382 23.659 2.963 5.544 2.58 13.443 2.134 16.615-2.51 3.172-4.642-.228-13.827-8.657-18.891-8.43-5.064-21.828-4.391-32.73 2.385 0 0-3.664 1.609-11.694 10.857a68.618 68.618 0 0 0-9.4 14.945c-1.946 4.592-6.1 10.183-9.27 14.082 1.62-4.264 3.755-11.963 5.825-19.461 1.9-6.9 3.714-13.39 4.985-16.78l.693-1.87a99.882 99.882 0 0 1 4.326-10.431l.142.05c.12-.328.244-.674.355-1.032a62.69 62.69 0 0 1 6.32-9.832 34.31 34.31 0 0 1 3.316-3.29c4.91-4.2 15.635-9.074 22.59-8.37 6.954.704 9.329 4.8 19.4 9.194 10.07 4.394 17.014 1.389 19.358-1.056 2.343-2.445 2.536-8.375-2.838-15.724-5.372-7.35-19.975-14.438-36.9-6.105-8.153 3.984-15.607 11.88-21.18 18.93a67.083 67.083 0 0 0-8.926 11.415c1.847-10.7 1.692-26.933 1.542-33.24z"/></g></g></svg>