<svg xmlns="http://www.w3.org/2000/svg" viewBox="0 0 111.6 51.82"><defs><style>.cls-1{fill:#92a3b4;}.cls-2{fill:#d3dbe1;}</style></defs><title>mphc-iconAsset 2</title><g id="Layer_2" data-name="Layer 2"><g id="Layer_1-2" data-name="Layer 1"><polygon class="cls-1" points="39.86 0 31.88 17.27 15.94 51.82 0 51.82 23.91 0 39.86 0"/><polygon class="cls-2" points="63.77 51.82 47.83 51.82 31.88 17.27 23.91 0 39.86 0 55.8 34.54 63.77 51.82"/><polygon class="cls-1" points="87.68 0 79.71 17.27 63.77 51.82 47.83 51.82 55.8 34.54 71.74 0 87.68 0"/><polygon class="cls-2" points="111.6 51.82 95.66 51.82 79.71 17.27 71.74 0 87.68 0 111.6 51.82"/><polygon class="cls-1" points="46.29 4.12 65.31 4.12 55.8 24.72 46.29 4.12"/><polygon class="cls-1" points="22.38 47.7 31.88 27.1 41.39 47.7 22.38 47.7"/><polygon class="cls-1" points="70.21 47.7 79.71 27.1 89.22 47.7 70.21 47.7"/></g></g></svg>