<svg xmlns="http://www.w3.org/2000/svg" viewBox="0 0 699.91 55.43"><defs><style>.cls-1{fill:#37434e;}.cls-2{fill:#6c6b6d;}.cls-3{fill:#92a3b4;}.cls-4{fill:#d3dbe1;}</style></defs><title>mphc-logo-horizontalAsset 1</title><g id="Layer_2" data-name="Layer 2"><g id="Layer_1-2" data-name="Layer 1"><path class="cls-1" d="M150.69,7.55l-7.17,18.3h-2.36L134,7.55v18.3h-5.42V.42h7.59l6.18,15.86L148.52.42h7.62V25.85h-5.45Z"/><path class="cls-1" d="M170.17,7c5.49,0,9.23,4.12,9.23,10.14v1.07H165.71a5,5,0,0,0,5.3,4.27,7.54,7.54,0,0,0,4.92-1.83l2.14,3.13a11.52,11.52,0,0,1-7.59,2.55c-5.61,0-9.84-3.77-9.84-9.68A9.38,9.38,0,0,1,170.17,7Zm-4.53,7.93h9.07a4.26,4.26,0,0,0-4.54-4.08A4.42,4.42,0,0,0,165.64,14.91Z"/><path class="cls-1" d="M194.69,24a7.64,7.64,0,0,1-5.83,2.36c-2.94,0-6.41-2-6.41-6.1,0-4.31,3.47-5.87,6.41-5.87a7.43,7.43,0,0,1,5.83,2.25V14c0-1.87-1.6-3.09-4-3.09a7.78,7.78,0,0,0-5.38,2.18l-1.83-3.24A12.05,12.05,0,0,1,191.49,7c4.19,0,8,1.68,8,7V25.85h-4.84Zm0-4.81a4.83,4.83,0,0,0-3.89-1.6c-1.9,0-3.47,1-3.47,2.78S188.9,23,190.8,23a4.83,4.83,0,0,0,3.89-1.6Z"/><path class="cls-1" d="M206.05,21.28V11.67H203V7.44h3.05v-5h4.88v5h3.74v4.23h-3.74V20c0,1.15.61,2,1.68,2a2.63,2.63,0,0,0,1.68-.53l1,3.66a6,6,0,0,1-4,1.18C207.88,26.31,206.05,24.56,206.05,21.28Z"/><path class="cls-1" d="M218.83.42h11.89c5.53,0,8.55,3.74,8.55,8.2s-3.06,8.12-8.55,8.12h-6.48v9.11h-5.41ZM230,5.07h-5.76v7H230a3.52,3.52,0,1,0,0-7Z"/><path class="cls-1" d="M243.27,7.44h4.84V10A7.89,7.89,0,0,1,254,7v4.73a5.82,5.82,0,0,0-1.33-.16,6.19,6.19,0,0,0-4.54,2.1V25.85h-4.84Z"/><path class="cls-1" d="M256.57,16.63a9.75,9.75,0,0,1,19.49,0,9.75,9.75,0,0,1-19.49,0Zm14.46,0c0-2.86-1.72-5.34-4.73-5.34s-4.69,2.48-4.69,5.34S263.29,22,266.3,22,271,19.52,271,16.63Z"/><path class="cls-1" d="M289,7a8.57,8.57,0,0,1,7.28,3.32l-3.17,3a4.45,4.45,0,0,0-3.89-2c-2.93,0-5,2.13-5,5.34s2.06,5.37,5,5.37a4.64,4.64,0,0,0,3.89-2L296.27,23A8.5,8.5,0,0,1,289,26.31a9.35,9.35,0,0,1-9.77-9.68A9.34,9.34,0,0,1,289,7Z"/><path class="cls-1" d="M308.55,7c5.49,0,9.22,4.12,9.22,10.14v1.07H304.08a5,5,0,0,0,5.3,4.27,7.54,7.54,0,0,0,4.92-1.83l2.14,3.13a11.52,11.52,0,0,1-7.59,2.55c-5.6,0-9.84-3.77-9.84-9.68A9.38,9.38,0,0,1,308.55,7ZM304,14.91h9.07a4.26,4.26,0,0,0-4.53-4.08A4.42,4.42,0,0,0,304,14.91Z"/><path class="cls-1" d="M322.5,20.06a10.52,10.52,0,0,0,6.37,2.51c2.1,0,3.09-.72,3.09-1.86,0-1.3-1.6-1.76-3.7-2.18-3.17-.61-7.25-1.37-7.25-5.76C321,9.69,323.72,7,328.56,7A11.77,11.77,0,0,1,336,9.5l-1.95,3.31a7.76,7.76,0,0,0-5.45-2.13c-1.75,0-2.9.65-2.9,1.71s1.45,1.57,3.51,2c3.17.61,7.4,1.45,7.4,6,0,3.36-2.86,5.91-8,5.91a12.43,12.43,0,0,1-8.24-2.86Z"/><path class="cls-1" d="M341.45,20.06a10.52,10.52,0,0,0,6.37,2.51c2.1,0,3.09-.72,3.09-1.86,0-1.3-1.6-1.76-3.7-2.18C344,17.92,340,17.16,340,12.77,340,9.69,342.67,7,347.51,7A11.77,11.77,0,0,1,355,9.5L353,12.81a7.76,7.76,0,0,0-5.45-2.13c-1.75,0-2.9.65-2.9,1.71s1.45,1.57,3.51,2c3.17.61,7.4,1.45,7.4,6,0,3.36-2.86,5.91-8,5.91a12.43,12.43,0,0,1-8.24-2.86Z"/><path class="cls-1" d="M358.72,16.63a9.75,9.75,0,0,1,19.49,0,9.75,9.75,0,0,1-19.49,0Zm14.45,0c0-2.86-1.71-5.34-4.72-5.34s-4.69,2.48-4.69,5.34S365.43,22,368.45,22,373.17,19.52,373.17,16.63Z"/><path class="cls-1" d="M382.55,7.44h4.85V10A7.85,7.85,0,0,1,393.27,7v4.73a5.84,5.84,0,0,0-1.34-.16,6.16,6.16,0,0,0-4.53,2.1V25.85h-4.85Z"/><path class="cls-1" d="M397.54,20.06a10.52,10.52,0,0,0,6.37,2.51c2.09,0,3.08-.72,3.08-1.86,0-1.3-1.6-1.76-3.69-2.18-3.17-.61-7.25-1.37-7.25-5.76,0-3.08,2.71-5.79,7.55-5.79A11.77,11.77,0,0,1,411,9.5l-2,3.31a7.76,7.76,0,0,0-5.45-2.13c-1.75,0-2.9.65-2.9,1.71s1.45,1.57,3.51,2c3.16.61,7.4,1.45,7.4,6,0,3.36-2.86,5.91-8,5.91a12.42,12.42,0,0,1-8.24-2.86Z"/><path class="cls-1" d="M433.53,15.18h-12V25.85h-5.41V.42h5.41v10h12V.42H439V25.85h-5.46Z"/><path class="cls-1" d="M453,7c5.49,0,9.23,4.12,9.23,10.14v1.07H448.52c.3,2.32,2.17,4.27,5.3,4.27a7.58,7.58,0,0,0,4.92-1.83l2.13,3.13a11.52,11.52,0,0,1-7.59,2.55c-5.6,0-9.83-3.77-9.83-9.68A9.37,9.37,0,0,1,453,7Zm-4.54,7.93h9.08A4.28,4.28,0,0,0,453,10.83,4.43,4.43,0,0,0,448.44,14.91Z"/><path class="cls-1" d="M477.5,24a7.66,7.66,0,0,1-5.84,2.36c-2.93,0-6.4-2-6.4-6.1,0-4.31,3.47-5.87,6.4-5.87a7.45,7.45,0,0,1,5.84,2.25V14c0-1.87-1.6-3.09-4.05-3.09a7.74,7.74,0,0,0-5.37,2.18l-1.83-3.24a12,12,0,0,1,8-2.9c4.2,0,8,1.68,8,7V25.85H477.5Zm0-4.81a4.84,4.84,0,0,0-3.89-1.6c-1.91,0-3.47,1-3.47,2.78S471.7,23,473.61,23a4.84,4.84,0,0,0,3.89-1.6Z"/><path class="cls-1" d="M487.91.42h4.84V25.85h-4.84Z"/><path class="cls-1" d="M499.27,21.28V11.67h-3V7.44h3v-5h4.88v5h3.74v4.23h-3.74V20c0,1.15.61,2,1.68,2a2.6,2.6,0,0,0,1.67-.53l1,3.66a6,6,0,0,1-4,1.18C501.1,26.31,499.27,24.56,499.27,21.28Z"/><path class="cls-1" d="M524.43,14.64c0-2.55-1.33-3.35-3.43-3.35a5.34,5.34,0,0,0-4.19,2.17V25.85H512V.42h4.85V9.84A8.52,8.52,0,0,1,523.29,7c4,0,6,2.21,6,5.79V25.85h-4.85Z"/><path class="cls-1" d="M533.74,13.16C533.74,5.34,539.65,0,547.08,0a11.72,11.72,0,0,1,10.83,6.22L553.26,8.5a7,7,0,0,0-6.18-3.7c-4.42,0-7.78,3.55-7.78,8.36s3.36,8.35,7.78,8.35a6.9,6.9,0,0,0,6.18-3.7l4.65,2.25a11.81,11.81,0,0,1-10.83,6.25C539.65,26.31,533.74,21,533.74,13.16Z"/><path class="cls-1" d="M572.86,24A7.65,7.65,0,0,1,567,26.31c-2.93,0-6.4-2-6.4-6.1,0-4.31,3.47-5.87,6.4-5.87a7.45,7.45,0,0,1,5.84,2.25V14c0-1.87-1.6-3.09-4-3.09a7.74,7.74,0,0,0-5.38,2.18l-1.83-3.24a12.05,12.05,0,0,1,8-2.9c4.19,0,8,1.68,8,7V25.85h-4.84Zm0-4.81a4.84,4.84,0,0,0-3.89-1.6c-1.91,0-3.47,1-3.47,2.78S567.06,23,569,23a4.84,4.84,0,0,0,3.89-1.6Z"/><path class="cls-1" d="M583.27,7.44h4.84V10A7.87,7.87,0,0,1,594,7v4.73a5.82,5.82,0,0,0-1.33-.16,6.19,6.19,0,0,0-4.54,2.1V25.85h-4.84Z"/><path class="cls-1" d="M606.11,7c5.49,0,9.22,4.12,9.22,10.14v1.07H601.65c.3,2.32,2.17,4.27,5.3,4.27a7.54,7.54,0,0,0,4.91-1.83L614,23.76a11.52,11.52,0,0,1-7.59,2.55c-5.6,0-9.84-3.77-9.84-9.68A9.38,9.38,0,0,1,606.11,7Zm-4.54,7.93h9.07a4.26,4.26,0,0,0-4.53-4.08A4.42,4.42,0,0,0,601.57,14.91Z"/><path class="cls-1" d="M621.89,20.1a3.09,3.09,0,1,1-3.09,3.08A3.12,3.12,0,0,1,621.89,20.1Z"/><path class="cls-1" d="M638.36,7a8.57,8.57,0,0,1,7.29,3.32l-3.17,3a4.46,4.46,0,0,0-3.89-2c-2.93,0-5,2.13-5,5.34s2.06,5.37,5,5.37a4.65,4.65,0,0,0,3.89-2L645.65,23c-1.22,1.71-3.51,3.35-7.29,3.35a9.35,9.35,0,0,1-9.76-9.68A9.34,9.34,0,0,1,638.36,7Z"/><path class="cls-1" d="M648.35,16.63a9.75,9.75,0,0,1,19.49,0,9.75,9.75,0,0,1-19.49,0Zm14.45,0c0-2.86-1.71-5.34-4.72-5.34s-4.69,2.48-4.69,5.34S655.06,22,658.08,22,662.8,19.52,662.8,16.63Z"/><path class="cls-1" d="M695,14.22c0-1.71-.77-2.93-2.75-2.93a4.87,4.87,0,0,0-3.81,2.13V25.85h-4.88V14.22c0-1.71-.77-2.93-2.75-2.93A4.92,4.92,0,0,0,677,13.46V25.85h-4.85V7.44H677v2.4a8,8,0,0,1,6-2.86c2.71,0,4.43,1.26,5.11,3.35A7.84,7.84,0,0,1,694.49,7c3.4,0,5.42,1.79,5.42,5.57v13.3H695Z"/><rect class="cls-2" x="128.57" y="41.27" width="1.35" height="10.92"/><path class="cls-2" d="M142.62,46.82c0-1-.44-1.66-1.45-1.66a2.79,2.79,0,0,0-2.1,1.21v5.8h-1.22V46.8c0-1-.43-1.65-1.46-1.65a2.73,2.73,0,0,0-2.08,1.22v5.78h-1.23V44.28h1.23v1.14a3.41,3.41,0,0,1,2.55-1.34A2,2,0,0,1,139,45.55a3.32,3.32,0,0,1,2.65-1.47c1.44,0,2.2.8,2.2,2.39v5.71h-1.23Z"/><path class="cls-2" d="M156.5,46.82c0-1-.44-1.66-1.46-1.66A2.77,2.77,0,0,0,153,46.37v5.8h-1.23V46.8c0-1-.42-1.65-1.45-1.65a2.72,2.72,0,0,0-2.08,1.22v5.78H147V44.28h1.23v1.14a3.41,3.41,0,0,1,2.55-1.34,2,2,0,0,1,2.13,1.47,3.32,3.32,0,0,1,2.65-1.47c1.44,0,2.2.8,2.2,2.39v5.71H156.5Z"/><path class="cls-2" d="M164.27,44.08c2.39,0,3.8,1.87,3.8,4.24v.31h-6.4a2.77,2.77,0,0,0,2.81,2.75h0a3.39,3.39,0,0,0,2.43-1l.59.8a4.31,4.31,0,0,1-3.14,1.21,4.17,4.17,0,0,1-.13-8.32m-2.6,3.65h5.19a2.56,2.56,0,0,0-2.48-2.63h-.13a2.62,2.62,0,0,0-2.58,2.63"/><path class="cls-2" d="M176.43,51a3.33,3.33,0,0,1-2.67,1.38c-2.06,0-3.52-1.57-3.52-4.14s1.44-4.16,3.52-4.16a3.34,3.34,0,0,1,2.67,1.39v-4.2h1.22V52.18h-1.22Zm0-4.55a3,3,0,0,0-2.37-1.27c-1.59,0-2.54,1.31-2.54,3.06s.95,3,2.54,3A3,3,0,0,0,176.43,50Z"/><path class="cls-2" d="M180.55,42.12a.83.83,0,1,1,.83.82.83.83,0,0,1-.83-.82m.21,2.16H182v7.9h-1.23Z"/><path class="cls-2" d="M190,51.28a3.42,3.42,0,0,1-2.62,1.1,2.63,2.63,0,0,1-2.75-2.5v-.12a2.59,2.59,0,0,1,2.75-2.6,3.32,3.32,0,0,1,2.62,1.1V46.84c0-1.06-.85-1.65-2-1.65a3.14,3.14,0,0,0-2.43,1.1l-.55-.85a4.15,4.15,0,0,1,3.16-1.31c1.65,0,3.06.75,3.06,2.67v5.43h-1.23ZM190,49a2.64,2.64,0,0,0-2.18-1,1.76,1.76,0,0,0-1.93,1.59.71.71,0,0,0,0,.14,1.77,1.77,0,0,0,1.94,1.72,2.63,2.63,0,0,0,2.18-1Z"/><path class="cls-2" d="M194.62,50.53V45.36h-1.31V44.25h1.31V42.12h1.23v2.16h1.6v1.1h-1.6v4.91c0,.59.26,1,.8,1a1.15,1.15,0,0,0,.83-.32l.36.91a2,2,0,0,1-1.47.51,1.64,1.64,0,0,1-1.75-1.87"/><path class="cls-2" d="M203.27,44.08c2.4,0,3.8,1.87,3.8,4.24v.31h-6.4a2.78,2.78,0,0,0,2.81,2.75h0a3.43,3.43,0,0,0,2.44-1l.59.8a4.33,4.33,0,0,1-3.14,1.21,4.17,4.17,0,0,1-.14-8.32m-2.6,3.65h5.19a2.56,2.56,0,0,0-2.48-2.63h-.12a2.62,2.62,0,0,0-2.59,2.63"/><path class="cls-2" d="M209.9,49.61a4.61,4.61,0,0,0,3.44,1.56c1.95,0,2.56-1.05,2.56-1.89,0-1.3-1.32-1.65-2.75-2.06-1.75-.45-3.7-.94-3.7-3.09,0-1.8,1.6-3,3.75-3a5.1,5.1,0,0,1,3.85,1.53l-.77,1a4.23,4.23,0,0,0-3.16-1.31c-1.31,0-2.24.71-2.24,1.74s1.26,1.42,2.65,1.8c1.78.47,3.81,1,3.81,3.31,0,1.58-1.1,3.2-4,3.2a5.37,5.37,0,0,1-4.18-1.73Z"/><path class="cls-2" d="M224.89,51.28a3.42,3.42,0,0,1-2.62,1.1,2.63,2.63,0,0,1-2.75-2.5v-.12a2.59,2.59,0,0,1,2.75-2.6,3.32,3.32,0,0,1,2.62,1.1V46.84c0-1.06-.86-1.65-2-1.65a3.12,3.12,0,0,0-2.42,1.1l-.55-.85a4.13,4.13,0,0,1,3.16-1.31c1.65,0,3,.75,3,2.67v5.43h-1.22Zm0-2.25a2.64,2.64,0,0,0-2.18-1,1.77,1.77,0,0,0-1.94,1.6s0,.09,0,.13a1.78,1.78,0,0,0,2,1.72,2.63,2.63,0,0,0,2.18-1Z"/><polygon class="cls-2" points="228.05 44.27 229.37 44.27 232 50.77 234.62 44.29 235.96 44.29 232.66 52.19 231.32 52.19 228.05 44.27"/><path class="cls-2" d="M237.68,42.12a.83.83,0,1,1,.83.82.82.82,0,0,1-.83-.82m.21,2.16h1.23v7.9h-1.23Z"/><path class="cls-2" d="M247.56,47c0-1.39-.7-1.83-1.76-1.83a3,3,0,0,0-2.34,1.22v5.78h-1.23v-7.9h1.23v1.14a3.94,3.94,0,0,1,2.81-1.34,2.24,2.24,0,0,1,2.52,2.55v5.55h-1.23Z"/><path class="cls-2" d="M252.5,53.3a3.06,3.06,0,0,0,2.57,1.1A2.27,2.27,0,0,0,257.61,52V50.9A3.29,3.29,0,0,1,255,52.3c-2.07,0-3.52-1.53-3.52-4.08s1.44-4.11,3.52-4.11a3.3,3.3,0,0,1,2.65,1.39V44.3h1.22V52c0,2.62-1.83,3.44-3.76,3.44a4.08,4.08,0,0,1-3.19-1.18Zm5.1-6.85a2.92,2.92,0,0,0-2.36-1.27c-1.58,0-2.53,1.26-2.53,3s.95,3,2.53,3a2.94,2.94,0,0,0,2.36-1.29Z"/><path class="cls-2" d="M261.9,50.25a3.55,3.55,0,0,0,2.6,1.13c1.2,0,1.86-.55,1.86-1.31s-1-1.14-2-1.41c-1.34-.31-2.86-.67-2.86-2.3,0-1.23,1.06-2.28,2.95-2.28a4,4,0,0,1,2.92,1.15l-.55.85a3.08,3.08,0,0,0-2.35-1c-1.11,0-1.75.49-1.75,1.2s.9,1,1.93,1.25c1.37.32,3,.71,3,2.46,0,1.32-1.07,2.39-3.11,2.39a4.26,4.26,0,0,1-3.19-1.24Z"/><path class="cls-2" d="M269.91,53.75A2.45,2.45,0,0,0,271,52.23a.88.88,0,0,1-.23,0,.77.77,0,0,1-.79-.76V51.4a.88.88,0,0,1,.87-.88,1.1,1.1,0,0,1,1,1.16.22.22,0,0,0,0,.08,3.17,3.17,0,0,1-1.34,2.47Z"/><path class="cls-2" d="M274.82,49.61a4.65,4.65,0,0,0,3.44,1.56c1.94,0,2.56-1.05,2.56-1.89,0-1.3-1.32-1.65-2.75-2.06-1.75-.45-3.7-.94-3.7-3.09,0-1.8,1.6-3,3.75-3A5.1,5.1,0,0,1,282,42.63l-.8,1A4.19,4.19,0,0,0,278,42.29c-1.31,0-2.24.71-2.24,1.74s1.26,1.42,2.65,1.8c1.78.47,3.81,1,3.81,3.31,0,1.58-1.1,3.2-4,3.2A5.38,5.38,0,0,1,274,50.61Z"/><path class="cls-2" d="M284.65,42.12a.83.83,0,1,1,.83.82.83.83,0,0,1-.83-.82m.22,2.16h1.22v7.9h-1.22Z"/><path class="cls-2" d="M298.74,46.82c0-1-.44-1.66-1.46-1.66a2.82,2.82,0,0,0-2.09,1.21v5.8H294V46.8c0-1-.43-1.65-1.46-1.65a2.7,2.7,0,0,0-2.07,1.22v5.78H289.2V44.28h1.23v1.14A3.41,3.41,0,0,1,293,44.08a2,2,0,0,1,2.13,1.47,3.32,3.32,0,0,1,2.65-1.47c1.44,0,2.2.8,2.2,2.39v5.71h-1.22Z"/><path class="cls-2" d="M303.08,55.17V44.28h1.22v1.18A3.33,3.33,0,0,1,307,44.08c2.08,0,3.52,1.57,3.52,4.14s-1.44,4.16-3.52,4.16A3.25,3.25,0,0,1,304.3,51v4.18Zm3.58-10a3,3,0,0,0-2.36,1.26V50a2.93,2.93,0,0,0,2.36,1.27c1.59,0,2.53-1.3,2.53-3.06s-.94-3-2.55-3Z"/><rect class="cls-2" x="313.12" y="41.27" width="1.23" height="10.92"/><path class="cls-2" d="M320.89,44.08c2.39,0,3.8,1.87,3.8,4.24v.31h-6.4a2.77,2.77,0,0,0,2.81,2.75h0a3.39,3.39,0,0,0,2.43-1l.59.8A4.31,4.31,0,0,1,321,52.4a4.17,4.17,0,0,1-.13-8.32m-2.6,3.65h5.19A2.56,2.56,0,0,0,321,45.1h-.12a2.64,2.64,0,0,0-2.58,2.63"/><polygon class="cls-2" points="327.37 41.27 334.53 41.27 334.53 42.5 328.73 42.5 328.73 46.02 334.4 46.02 334.4 47.23 328.73 47.23 328.73 50.99 334.52 50.99 334.52 52.2 327.36 52.2 327.37 41.27"/><path class="cls-2" d="M342.62,47c0-1.39-.7-1.83-1.77-1.83a3.07,3.07,0,0,0-2.34,1.22v5.78h-1.22v-7.9h1.22v1.14a4,4,0,0,1,2.82-1.34,2.24,2.24,0,0,1,2.51,2.55v5.55h-1.22Z"/><path class="cls-2" d="M347,44.28h1.22v1.27a3.37,3.37,0,0,1,2.63-1.43v1.25a2.63,2.63,0,0,0-.49,0,2.92,2.92,0,0,0-2.14,1.26v5.6H347Z"/><path class="cls-2" d="M352.55,48.22a3.92,3.92,0,1,1,7.82,0,3.92,3.92,0,1,1-7.82,0m6.53,0c0-1.6-.93-3-2.62-3a2.75,2.75,0,0,0-2.63,3c0,1.6.94,3.06,2.63,3.06s2.62-1.44,2.62-3.06"/><rect class="cls-2" x="363.02" y="41.27" width="1.22" height="10.92"/><rect class="cls-2" x="367.35" y="41.27" width="1.23" height="10.92"/><path class="cls-2" d="M381.23,46.82c0-1-.44-1.66-1.46-1.66a2.77,2.77,0,0,0-2.09,1.21v5.8h-1.23V46.8c0-1-.42-1.65-1.45-1.65a2.72,2.72,0,0,0-2.08,1.22v5.78h-1.23V44.28h1.23v1.14a3.41,3.41,0,0,1,2.55-1.34,2,2,0,0,1,2.13,1.47,3.32,3.32,0,0,1,2.65-1.47c1.44,0,2.2.8,2.2,2.39v5.71h-1.23Z"/><path class="cls-2" d="M389,44.08c2.39,0,3.8,1.87,3.8,4.24v.31h-6.4a2.77,2.77,0,0,0,2.81,2.75h0a3.39,3.39,0,0,0,2.43-1l.59.8a4.31,4.31,0,0,1-3.14,1.21,4.17,4.17,0,0,1-.13-8.32m-2.6,3.65h5.19a2.56,2.56,0,0,0-2.48-2.63H389a2.62,2.62,0,0,0-2.58,2.63"/><path class="cls-2" d="M400.76,47c0-1.39-.7-1.83-1.76-1.83a3,3,0,0,0-2.34,1.22v5.78h-1.23v-7.9h1.23v1.14a3.94,3.94,0,0,1,2.81-1.34A2.24,2.24,0,0,1,402,46.63v5.55h-1.23Z"/><path class="cls-2" d="M405.35,50.53V45.36H404V44.25h1.31V42.12h1.22v2.16h1.6v1.1h-1.6v4.91c0,.59.27,1,.81,1a1.17,1.17,0,0,0,.83-.32l.36.89a2.06,2.06,0,0,1-1.48.51c-1.16,0-1.74-.67-1.74-1.85"/><polygon class="cls-3" points="39.86 0.54 31.88 17.82 15.94 52.36 0 52.36 23.91 0.54 39.86 0.54"/><polygon class="cls-4" points="63.77 52.36 47.83 52.36 31.88 17.82 23.91 0.54 39.86 0.54 55.8 35.09 63.77 52.36"/><polygon class="cls-3" points="87.68 0.54 79.71 17.82 63.77 52.36 47.83 52.36 55.8 35.09 71.74 0.54 87.68 0.54"/><polygon class="cls-4" points="111.6 52.36 95.66 52.36 79.71 17.82 71.74 0.54 87.68 0.54 111.6 52.36"/><polygon class="cls-3" points="46.29 4.66 65.31 4.66 55.8 25.26 46.29 4.66"/><polygon class="cls-3" points="22.38 48.24 31.88 27.64 41.39 48.24 22.38 48.24"/><polygon class="cls-3" points="70.21 48.24 79.71 27.64 89.22 48.24 70.21 48.24"/></g></g></svg>