<svg xmlns="http://www.w3.org/2000/svg" viewBox="0 0 243.36 221.68"><defs><style>.cls-1{fill:#94c9ab;}.cls-2{fill:#e85642;}</style></defs><title>cwhc-iconAsset 2</title><g id="Layer_2" data-name="Layer 2"><g id="Layer_1-2" data-name="Layer 1"><path class="cls-1" d="M167.33,91.23a11.95,11.95,0,1,1,11.95-12A12,12,0,0,1,167.33,91.23Zm0-17.38a5.43,5.43,0,1,0,5.43,5.43A5.44,5.44,0,0,0,167.33,73.85Z"/><path class="cls-1" d="M153.34,160.88l-4.59-4.63,50.86-50.39a40.32,40.32,0,0,0,12.22-27.12c0-.55,0-1.09,0-1.63a43.43,43.43,0,0,0-43.44-43.44h-.08a43.44,43.44,0,0,0-26.25,78l-4,5.18a50.11,50.11,0,0,1-19.65-41.42c.88-26.57,23.23-48.22,49.83-48.27h.1a50,50,0,0,1,50,50c0,.63,0,1.25,0,1.88a46.8,46.8,0,0,1-14.14,31.5Z"/><path class="cls-1" d="M144.63,152.21l-4.54-4.67L190.4,98.65l.55-.57a27.22,27.22,0,0,0,6.1-9.6,30.42,30.42,0,1,0-45.63,14.93l-3.65,5.4a36.9,36.9,0,1,1,55.41-18.13,33.69,33.69,0,0,1-7.53,11.92c-.27.28-.52.53-.73.73Z"/><path class="cls-1" d="M155,99.75a23.89,23.89,0,1,1,36.22-20.47h-6.52a17.38,17.38,0,1,0-26.34,14.89Z"/><path class="cls-1" d="M133.77,144.61l-4.54-4.68L179.54,91a16.44,16.44,0,0,0,5.14-10.68q0-.54,0-1.08h6.52c0,.5,0,1,0,1.48a22.91,22.91,0,0,1-7.1,15Z"/><path class="cls-1" d="M157.65,101.13A24.46,24.46,0,0,1,155,99.75l3.37-5.58a15.72,15.72,0,0,0,1.91,1Z"/><rect class="cls-1" x="113.21" y="104.96" width="71.04" height="6.52" transform="translate(-33.8 130.89) rotate(-43.12)"/><path class="cls-1" d="M162,170.65,157.44,166l51.21-50.79a53.53,53.53,0,0,0,16.23-36.89c0-.73,0-1.45,0-2.18-.5-30.78-25.95-56.18-56.74-56.6h-.82a57.56,57.56,0,0,0-34.91,103.32l-4,5.18A64.07,64.07,0,0,1,168.24,13c34.28.48,62.61,28.74,63.16,63,0,.81,0,1.62,0,2.43a60,60,0,0,1-18.16,41.37Z"/><path class="cls-1" d="M169.64,178.24l-4.61-4.6,52.92-53a63.88,63.88,0,0,0,18.89-45.07c0-.74,0-1.47-.05-2.21a69.51,69.51,0,1,0-112.86,57l-4.07,5.09A76,76,0,1,1,243.3,73.08c0,.81,0,1.61,0,2.41a70.36,70.36,0,0,1-20.79,49.72Z"/><path class="cls-1" d="M76.11,91.23a11.95,11.95,0,1,1,12-12A12,12,0,0,1,76.11,91.23Zm0-17.38a5.43,5.43,0,1,0,5.43,5.43A5.44,5.44,0,0,0,76.11,73.85Z"/><path class="cls-1" d="M135.73,205.41,39.26,110.5A46.78,46.78,0,0,1,25.1,79c0-.62,0-1.24,0-1.87A49.95,49.95,0,0,1,75,27.15h.1a50,50,0,0,1,31.08,11l-4.08,5.08a43.44,43.44,0,0,0-27-9.59H75A43.43,43.43,0,0,0,31.58,77.11c0,.54,0,1.09,0,1.63a40.32,40.32,0,0,0,12.22,27.12l96.47,94.9Z"/><path class="cls-1" d="M145.51,197.82l-97-94.5c-.2-.2-.45-.45-.71-.73a33.71,33.71,0,0,1-7.53-11.91A37,37,0,0,1,49.83,51.2a36.84,36.84,0,0,1,49.84-.45L95.31,55.6A30.4,30.4,0,0,0,46.39,88.48a27.36,27.36,0,0,0,6.1,9.6c.21.22.4.42.56.57l97,94.5Z"/><path class="cls-1" d="M95.67,108.81,92,103.41a30,30,0,0,0,4.56-3.77l4.63,4.59A36.84,36.84,0,0,1,95.67,108.81Z"/><path class="cls-1" d="M58.73,79.28H52.22A23.89,23.89,0,0,1,97.64,68.92l-5.87,2.83a17.38,17.38,0,0,0-33,7.53Z"/><path class="cls-1" d="M88.44,99.75l-3.37-5.58a17.36,17.36,0,0,0,6.8-7.57l5.91,2.75A23.8,23.8,0,0,1,88.44,99.75Z"/><path class="cls-1" d="M156.39,189.14l-97-93.41a22.93,22.93,0,0,1-7.12-15c0-.49,0-1,0-1.47h6.51q0,.54,0,1.08A16.41,16.41,0,0,0,63.91,91l97,93.41Z"/><path class="cls-1" d="M85.8,101.13l-2.65-6a16.63,16.63,0,0,0,1.92-1l3.37,5.58A26.48,26.48,0,0,1,85.8,101.13Z"/><rect class="cls-1" x="115.34" y="62.64" width="6.52" height="137.85" transform="translate(-58.45 126.38) rotate(-46.29)"/><path class="cls-1" d="M126,214.1,30.22,119.86A60,60,0,0,1,12.05,78.48c0-.81,0-1.62,0-2.43.55-34.27,28.88-62.53,63.16-63a63.67,63.67,0,0,1,38.67,12.3L110,30.6a56.77,56.77,0,0,0-34.73-11C44.5,20,19.05,45.38,18.56,76.16c0,.73,0,1.46,0,2.18A53.5,53.5,0,0,0,34.8,115.23l95.72,94.22Z"/><path class="cls-1" d="M117.24,221.68,20.88,125.21A70.36,70.36,0,0,1,.09,75.49c0-.8,0-1.6.05-2.41A76,76,0,0,1,123.77,16.79l-4.09,5.08a69.51,69.51,0,0,0-113,51.46c0,.74,0,1.47-.05,2.21a63.88,63.88,0,0,0,18.89,45.07l96.36,96.47Z"/><path class="cls-2" d="M2.26,55.39A139.94,139.94,0,0,1,28.32,72.76C35.93,79.28,51.13,88,65.8,84.3S81.06,73.61,81.06,73.61s4.58-1.52,3,4.58-7.63,7.63-7.63,9.16.76,2.29,3.82,2.29,24.41-1.53,24.41,1.52-18.31,3-18.31,4.58,3,1.52,3,1.52,18.31,1.53,16.78,4.58-15.25,0-18.31,1.53,15.26,6.1,15.26,7.63-1.52,3-18.31-1.53c0,0-4.57-1.53-3.05,1.53s10.68,4.57,9.16,7.63S65,111,55.88,106.42,5,92.53,1.17,88c0,0-3.25-14.12,1.09-32.58"/><path class="cls-2" d="M226,121.64s-30.13-12.17-50-18.27-35.09-15.26-42.72-13.73c0,0-3.06,1.52,3.05,3s7.63,4.57,6.1,4.57-18.31-4.57-19.83-1.52,16.78,4.58,15.25,7.63S118,101.84,118,104.89s6.1,3,18.31,4.58c0,0,3,1.53,0,3s-16.79,1.53-16.79,4.58,16.79-1.53,25.94,1.53-9.15,3.05-4.57,15.25c0,0,1.52,1.53,3.05-1.52s19.83-16.79,35.09-7.63A62.61,62.61,0,0,1,201,146.61s17.38-15.2,25-25"/></g></g></svg>