<svg xmlns="http://www.w3.org/2000/svg" viewBox="0 0 624.01 80.07"><defs><style>.cls-1{fill:#e85642;}.cls-2{fill:#6c6a6c;}.cls-3{fill:#94c9ab;}</style></defs><title>npra-hcAsset 5</title><g id="Layer_2" data-name="Layer 2"><g id="Layer_1-2" data-name="Layer 1"><path class="cls-1" d="M127.26,22.45V44.13h-6.87V11.86h7.06l15,20.9V11.86h6.88V44.13h-6.63Z"/><path class="cls-1" d="M156.63,11.86h15.09c7,0,10.84,4.74,10.84,10.4s-3.87,10.31-10.84,10.31H163.5V44.13h-6.87Zm14.18,5.9H163.5v8.9h7.31a4.46,4.46,0,1,0,0-8.9Z"/><path class="cls-1" d="M199.69,32.57h-5V44.13h-6.87V11.86h15.09c6.73,0,10.84,4.4,10.84,10.4,0,5.71-3.58,8.76-7.06,9.58l7.26,12.29H206Zm2.18-14.81h-7.21v8.9h7.21c2.76,0,4.84-1.74,4.84-4.45S204.63,17.76,201.87,17.76Z"/><path class="cls-1" d="M240.43,38.57H226l-2,5.56h-7.55l12.48-32.27h8.62L250,44.13h-7.5Zm-12.58-6h10.69l-5.32-14.8Z"/><path class="cls-1" d="M287.8,30.58H272.56V44.13h-6.88V11.86h6.88V24.53H287.8V11.86h6.92V44.13H287.8Z"/><path class="cls-1" d="M312.47,20.18c7,0,11.71,5.22,11.71,12.87V34.4H306.81c.39,3,2.76,5.42,6.73,5.42a9.57,9.57,0,0,0,6.24-2.32l2.71,4c-2.32,2.13-6,3.24-9.63,3.24-7.11,0-12.48-4.79-12.48-12.29A11.89,11.89,0,0,1,312.47,20.18Zm-5.76,10.06h11.52a5.41,5.41,0,0,0-5.76-5.17A5.62,5.62,0,0,0,306.71,30.24Z"/><path class="cls-1" d="M343.63,41.71a9.66,9.66,0,0,1-7.4,3c-3.73,0-8.13-2.52-8.13-7.74,0-5.47,4.4-7.45,8.13-7.45,3.1,0,5.85,1,7.4,2.85V29.13c0-2.37-2-3.92-5.13-3.92A9.83,9.83,0,0,0,331.68,28l-2.32-4.11a15.3,15.3,0,0,1,10.21-3.68c5.32,0,10.21,2.13,10.21,8.85v15.1h-6.15Zm0-6.1a6.15,6.15,0,0,0-4.93-2c-2.42,0-4.41,1.26-4.41,3.53s2,3.44,4.41,3.44a6.15,6.15,0,0,0,4.93-2Z"/><path class="cls-1" d="M356.84,11.86H363V44.13h-6.14Z"/><path class="cls-1" d="M371.26,38.32V26.13h-3.87V20.76h3.87V14.37h6.19v6.39h4.74v5.37h-4.74V36.68c0,1.45.78,2.56,2.13,2.56a3.42,3.42,0,0,0,2.13-.67L383,43.21a7.61,7.61,0,0,1-5.13,1.5C373.58,44.71,371.26,42.48,371.26,38.32Z"/><path class="cls-1" d="M403.19,29.9c0-3.24-1.69-4.25-4.35-4.25a6.84,6.84,0,0,0-5.33,2.75V44.13h-6.14V11.86h6.14v12a10.83,10.83,0,0,1,8.23-3.63c5.13,0,7.6,2.81,7.6,7.35v16.6h-6.15Z"/><path class="cls-1" d="M415,28c0-9.92,7.5-16.7,16.93-16.7a14.89,14.89,0,0,1,13.74,7.89l-5.9,2.9a8.84,8.84,0,0,0-7.84-4.69c-5.61,0-9.87,4.5-9.87,10.6s4.26,10.59,9.87,10.59a8.75,8.75,0,0,0,7.84-4.69l5.9,2.86a15,15,0,0,1-13.74,7.93C422.5,44.71,415,37.94,415,28Z"/><path class="cls-1" d="M464.64,41.71a9.68,9.68,0,0,1-7.41,3c-3.72,0-8.12-2.52-8.12-7.74,0-5.47,4.4-7.45,8.12-7.45,3.1,0,5.86,1,7.41,2.85V29.13c0-2.37-2-3.92-5.13-3.92A9.81,9.81,0,0,0,452.69,28l-2.33-4.11a15.34,15.34,0,0,1,10.21-3.68c5.33,0,10.21,2.13,10.21,8.85v15.1h-6.14Zm0-6.1a6.17,6.17,0,0,0-4.94-2c-2.42,0-4.4,1.26-4.4,3.53s2,3.44,4.4,3.44a6.17,6.17,0,0,0,4.94-2Z"/><path class="cls-1" d="M477.85,20.76H484V24a10,10,0,0,1,7.45-3.72v6a7.44,7.44,0,0,0-1.69-.2c-2,0-4.74,1.16-5.76,2.66V44.13h-6.14Z"/><path class="cls-1" d="M506.83,20.18c7,0,11.71,5.22,11.71,12.87V34.4H501.17c.38,3,2.76,5.42,6.72,5.42a9.55,9.55,0,0,0,6.24-2.32l2.71,4c-2.32,2.13-6,3.24-9.62,3.24-7.12,0-12.49-4.79-12.49-12.29A11.9,11.9,0,0,1,506.83,20.18Zm-5.76,10.06h11.52a5.42,5.42,0,0,0-5.76-5.17A5.62,5.62,0,0,0,501.07,30.24Z"/><path class="cls-1" d="M526.91,36.82A3.92,3.92,0,1,1,523,40.74,4,4,0,0,1,526.91,36.82Z"/><path class="cls-1" d="M545.87,20.18c4.79,0,7.7,2.08,9.25,4.21l-4,3.77a5.68,5.68,0,0,0-4.94-2.51c-3.72,0-6.33,2.71-6.33,6.77s2.61,6.82,6.33,6.82a5.89,5.89,0,0,0,4.94-2.51l4,3.72c-1.55,2.18-4.46,4.26-9.25,4.26-7.21,0-12.38-5.08-12.38-12.29S538.66,20.18,545.87,20.18Z"/><path class="cls-1" d="M558.6,32.42c0-6.63,4.64-12.24,12.34-12.24s12.38,5.61,12.38,12.24-4.64,12.29-12.38,12.29S558.6,39.1,558.6,32.42Zm18.34,0c0-3.63-2.18-6.77-6-6.77s-6,3.14-6,6.77,2.13,6.82,6,6.82S576.94,36.1,576.94,32.42Z"/><path class="cls-1" d="M617.82,29.37c0-2.18-1-3.72-3.48-3.72a6.2,6.2,0,0,0-4.84,2.71V44.13h-6.19V29.37c0-2.18-1-3.72-3.49-3.72A6.29,6.29,0,0,0,595,28.4V44.13h-6.14V20.76H595v3a10.22,10.22,0,0,1,7.65-3.63c3.43,0,5.61,1.6,6.48,4.26a9.92,9.92,0,0,1,8-4.26c4.31,0,6.87,2.27,6.87,7.06V44.13h-6.19Z"/><path class="cls-2" d="M120.39,61h1.72V74.83h-1.72Z"/><path class="cls-2" d="M138.22,68c0-1.26-.56-2.09-1.85-2.09a3.49,3.49,0,0,0-2.66,1.53v7.35h-1.55V68c0-1.26-.54-2.1-1.85-2.1a3.52,3.52,0,0,0-2.64,1.56v7.33h-1.56v-10h1.56v1.45a4.34,4.34,0,0,1,3.23-1.7,2.57,2.57,0,0,1,2.7,1.87A4.24,4.24,0,0,1,137,64.55c1.83,0,2.79,1,2.79,3v7.25H138.2Z"/><path class="cls-2" d="M155.82,68c0-1.26-.56-2.09-1.84-2.09a3.45,3.45,0,0,0-2.66,1.53v7.35h-1.56V68c0-1.26-.54-2.1-1.85-2.1a3.49,3.49,0,0,0-2.63,1.56v7.33h-1.56v-10h1.56v1.45a4.34,4.34,0,0,1,3.24-1.7,2.57,2.57,0,0,1,2.69,1.87,4.24,4.24,0,0,1,3.37-1.87c1.83,0,2.79,1,2.79,3v7.25h-1.55Z"/><path class="cls-2" d="M165.69,64.55c3,0,4.81,2.37,4.81,5.38v.39h-8.11a3.53,3.53,0,0,0,3.56,3.5H166a4.36,4.36,0,0,0,3.09-1.27l.75,1a5.43,5.43,0,0,1-4,1.53,5,5,0,0,1-5.11-5.27A5,5,0,0,1,165.69,64.55Zm-3.3,4.63H169a3.26,3.26,0,0,0-3.15-3.34h-.15A3.34,3.34,0,0,0,162.39,69.18Z"/><path class="cls-2" d="M181.11,73.34a4.23,4.23,0,0,1-3.38,1.74c-2.62,0-4.46-2-4.46-5.25s1.82-5.28,4.46-5.28a4.22,4.22,0,0,1,3.38,1.77V61h1.56V74.83h-1.56Zm0-5.78a3.74,3.74,0,0,0-3-1.61c-2,0-3.22,1.65-3.22,3.88s1.21,3.86,3.22,3.86a3.75,3.75,0,0,0,3-1.58Z"/><path class="cls-2" d="M186.35,62.06a1,1,0,1,1,1,1A1,1,0,0,1,186.35,62.06Zm.26,2.74h1.56v10h-1.56Z"/><path class="cls-2" d="M198.39,73.69a4.37,4.37,0,0,1-3.33,1.39,3.33,3.33,0,0,1-3.49-3.17v-.15a3.28,3.28,0,0,1,3.49-3.3,4.23,4.23,0,0,1,3.33,1.4v-1.8c0-1.35-1.09-2.1-2.54-2.1a4,4,0,0,0-3.07,1.4l-.7-1.09a5.25,5.25,0,0,1,4-1.65c2.09,0,3.88.95,3.88,3.38v6.9h-1.56Zm0-2.86a3.37,3.37,0,0,0-2.77-1.26,2.25,2.25,0,0,0-2.45,2,1.09,1.09,0,0,0,0,.18A2.24,2.24,0,0,0,195.62,74a3.37,3.37,0,0,0,2.77-1.25Z"/><path class="cls-2" d="M204.2,72.73V66.17h-1.66v-1.4h1.66V62.06h1.55V64.8h2v1.4h-2v6.23c0,.75.34,1.28,1,1.28a1.46,1.46,0,0,0,1.05-.41l.46,1.16a2.52,2.52,0,0,1-1.87.64A2.07,2.07,0,0,1,204.2,72.73Z"/><path class="cls-2" d="M215.18,64.55c3,0,4.82,2.37,4.82,5.38v.39h-8.12a3.53,3.53,0,0,0,3.56,3.5h.05a4.36,4.36,0,0,0,3.09-1.27l.75,1a5.41,5.41,0,0,1-4,1.53,5,5,0,0,1-5.11-5.27A5,5,0,0,1,215.18,64.55Zm-3.3,4.63h6.58a3.26,3.26,0,0,0-3.15-3.34h-.15A3.35,3.35,0,0,0,211.88,69.18Z"/><path class="cls-2" d="M223.59,71.57a5.86,5.86,0,0,0,4.36,2c2.47,0,3.25-1.33,3.25-2.4,0-1.65-1.67-2.09-3.49-2.61-2.23-.58-4.69-1.2-4.69-3.92,0-2.29,2-3.85,4.75-3.85a6.49,6.49,0,0,1,4.89,1.94l-1,1.24a5.33,5.33,0,0,0-4-1.67c-1.66,0-2.84.9-2.84,2.2s1.6,1.81,3.36,2.29c2.27.6,4.84,1.31,4.84,4.2,0,2-1.4,4.06-5.11,4.06a6.86,6.86,0,0,1-5.32-2.19Z"/><path class="cls-2" d="M242.61,73.69a4.35,4.35,0,0,1-3.32,1.39,3.34,3.34,0,0,1-3.5-3.17v-.15a3.28,3.28,0,0,1,3.5-3.3,4.23,4.23,0,0,1,3.32,1.4v-1.8c0-1.35-1.09-2.1-2.54-2.1a4,4,0,0,0-3.07,1.4l-.7-1.09a5.25,5.25,0,0,1,4-1.65c2.09,0,3.88.95,3.88,3.38v6.9h-1.56Zm0-2.86a3.37,3.37,0,0,0-2.77-1.26,2.26,2.26,0,0,0-2.46,2,.91.91,0,0,0,0,.17A2.25,2.25,0,0,0,239.84,74a3.37,3.37,0,0,0,2.77-1.25Z"/><path class="cls-2" d="M246.61,64.8h1.68L251.63,73,255,64.81h1.7l-4.2,10h-1.69Z"/><path class="cls-2" d="M258.84,62.06a1,1,0,0,1,1-1h0a1.06,1.06,0,0,1,1.06,1h0a1,1,0,1,1-2.1,0Zm.27,2.74h1.56v10h-1.56Z"/><path class="cls-2" d="M271.38,68.27c0-1.76-.89-2.32-2.24-2.32a3.86,3.86,0,0,0-3,1.55v7.33h-1.56v-10h1.56v1.45a5,5,0,0,1,3.57-1.7c2.1,0,3.2,1.06,3.2,3.24v7h-1.56Z"/><path class="cls-2" d="M277.65,76.24a3.79,3.79,0,0,0,3.26,1.4c1.66,0,3.22-.8,3.22-3V73.2A4.21,4.21,0,0,1,280.77,75c-2.63,0-4.47-1.95-4.47-5.19s1.82-5.21,4.47-5.21a4.21,4.21,0,0,1,3.36,1.76V64.83h1.55v9.74c0,3.32-2.32,4.37-4.77,4.37a5.16,5.16,0,0,1-4.05-1.5Zm6.46-8.68a3.68,3.68,0,0,0-3-1.61c-2,0-3.21,1.59-3.21,3.81s1.2,3.83,3.21,3.83a3.71,3.71,0,0,0,3-1.65Z"/><path class="cls-2" d="M289.57,72.38a4.52,4.52,0,0,0,3.3,1.43c1.53,0,2.36-.7,2.36-1.66s-1.22-1.45-2.57-1.79C291,70,289,69.51,289,67.44c0-1.56,1.35-2.89,3.74-2.89A5.1,5.1,0,0,1,296.48,66l-.7,1.08a3.91,3.91,0,0,0-3-1.27c-1.4,0-2.22.62-2.22,1.52s1.14,1.28,2.45,1.59c1.74.4,3.76.9,3.76,3.12,0,1.68-1.35,3-3.95,3a5.35,5.35,0,0,1-4.05-1.58Z"/><path class="cls-2" d="M299.74,76.82a3.08,3.08,0,0,0,1.35-1.92h-.29a1,1,0,0,1-1-1,.28.28,0,0,1,0-.09,1.11,1.11,0,0,1,1.1-1.12h0a1.41,1.41,0,0,1,1.32,1.48s0,.06,0,.09a4,4,0,0,1-1.71,3.14Z"/><path class="cls-2" d="M306,71.57a5.89,5.89,0,0,0,4.37,2c2.46,0,3.25-1.33,3.25-2.4,0-1.65-1.67-2.09-3.49-2.61-2.22-.58-4.69-1.2-4.69-3.92,0-2.29,2-3.85,4.75-3.85A6.49,6.49,0,0,1,315,62.71L314,64a5.28,5.28,0,0,0-4-1.67c-1.66,0-2.84.9-2.84,2.2s1.6,1.81,3.37,2.29c2.25.6,4.83,1.31,4.83,4.2,0,2-1.4,4.06-5.11,4.06A6.84,6.84,0,0,1,305,72.84Z"/><path class="cls-2" d="M318.44,62.06a1.05,1.05,0,1,1,1.05,1A1,1,0,0,1,318.44,62.06Zm.28,2.74h1.55v10h-1.55Z"/><path class="cls-2" d="M336.32,68c0-1.26-.56-2.09-1.85-2.09a3.5,3.5,0,0,0-2.66,1.53v7.35h-1.55V68c0-1.26-.55-2.1-1.85-2.1a3.49,3.49,0,0,0-2.64,1.56v7.33h-1.55v-10h1.55v1.45a4.39,4.39,0,0,1,3.24-1.7,2.59,2.59,0,0,1,2.7,1.87,4.22,4.22,0,0,1,3.36-1.87c1.83,0,2.8,1,2.8,3v7.25h-1.55Z"/><path class="cls-2" d="M341.82,78.63V64.8h1.55v1.5a4.23,4.23,0,0,1,3.39-1.75c2.64,0,4.47,2,4.47,5.26s-1.83,5.27-4.47,5.27a4.14,4.14,0,0,1-3.39-1.76v5.31Zm4.55-12.7a3.74,3.74,0,0,0-3,1.59v4.53a3.73,3.73,0,0,0,3,1.61c2,0,3.21-1.65,3.21-3.88S348.38,66,346.34,66Z"/><path class="cls-2" d="M354.57,61h1.56V74.83h-1.56Z"/><path class="cls-2" d="M364.42,64.55c3,0,4.82,2.37,4.82,5.38v.39h-8.11a3.52,3.52,0,0,0,3.56,3.5h.05a4.36,4.36,0,0,0,3.09-1.27l.75,1a5.41,5.41,0,0,1-4,1.53,5,5,0,0,1-5.1-5.27A5,5,0,0,1,364.42,64.55Zm-3.29,4.63h6.58a3.25,3.25,0,0,0-3.16-3.34h-.15A3.34,3.34,0,0,0,361.13,69.18Z"/><path class="cls-2" d="M372.65,61h9.09v1.57h-7.37V67h7.2v1.54h-7.2v4.77h7.35v1.54h-9.09Z"/><path class="cls-2" d="M392,68.27c0-1.76-.9-2.32-2.25-2.32a3.89,3.89,0,0,0-3,1.55v7.33h-1.55v-10h1.55v1.45a5,5,0,0,1,3.58-1.7c2.09,0,3.19,1.06,3.19,3.24v7H392Z"/><path class="cls-2" d="M397.5,64.8h1.55v1.62a4.28,4.28,0,0,1,3.35-1.82v1.59a2.69,2.69,0,0,0-.63-.06,3.67,3.67,0,0,0-2.72,1.6v7.1H397.5Z"/><path class="cls-2" d="M404.6,69.81c0-2.91,1.91-5.26,5-5.26a5.27,5.27,0,0,1,0,10.53C406.51,75.08,404.6,72.71,404.6,69.81Zm8.28,0c0-2-1.18-3.86-3.32-3.86s-3.34,1.82-3.34,3.86,1.2,3.88,3.34,3.88S412.88,71.86,412.88,69.81Z"/><path class="cls-2" d="M417.89,61h1.55V74.83h-1.55Z"/><path class="cls-2" d="M423.38,61h1.56V74.83h-1.56Z"/><path class="cls-2" d="M441,68c0-1.26-.56-2.09-1.85-2.09a3.45,3.45,0,0,0-2.65,1.53v7.35h-1.56V68c0-1.26-.54-2.1-1.85-2.1a3.49,3.49,0,0,0-2.63,1.56v7.33h-1.56v-10h1.56v1.45a4.32,4.32,0,0,1,3.23-1.7,2.58,2.58,0,0,1,2.7,1.87,4.22,4.22,0,0,1,3.36-1.87c1.84,0,2.8,1,2.8,3v7.25H441Z"/><path class="cls-2" d="M450.85,64.55c3,0,4.82,2.37,4.82,5.38v.39h-8.12a3.54,3.54,0,0,0,3.57,3.5h.05a4.37,4.37,0,0,0,3.09-1.27l.75,1a5.45,5.45,0,0,1-4,1.53,5,5,0,0,1-5.11-5.27A5,5,0,0,1,450.85,64.55Zm-3.3,4.63h6.58A3.24,3.24,0,0,0,451,65.84h-.16A3.35,3.35,0,0,0,447.55,69.18Z"/><path class="cls-2" d="M465.78,68.27c0-1.76-.9-2.32-2.24-2.32a3.86,3.86,0,0,0-3,1.55v7.33H459v-10h1.56v1.45a5,5,0,0,1,3.57-1.7c2.1,0,3.2,1.06,3.2,3.24v7h-1.56Z"/><path class="cls-2" d="M471.6,72.73V66.17h-1.67v-1.4h1.67V62.06h1.55V64.8h2v1.4h-2v6.23c0,.75.33,1.28,1,1.28a1.5,1.5,0,0,0,1.06-.41l.45,1.13a2.57,2.57,0,0,1-1.87.65C472.34,75.08,471.6,74.23,471.6,72.73Z"/><path class="cls-3" d="M60.44,33a4.32,4.32,0,1,1,4.32-4.31A4.31,4.31,0,0,1,60.44,33Zm0-6.27a2,2,0,1,0,2,2A2,2,0,0,0,60.44,26.68Z"/><path class="cls-3" d="M55.39,58.11l-1.66-1.67L72.1,38.24a14.57,14.57,0,0,0,4.41-9.8c0-.2,0-.39,0-.59A15.69,15.69,0,0,0,60.83,12.16h0a15.69,15.69,0,0,0-9.48,28.17L49.89,42.2A18,18,0,0,1,60.8,9.81h0a18,18,0,0,1,18,18c0,.23,0,.45,0,.68a16.91,16.91,0,0,1-5.1,11.38Z"/><path class="cls-3" d="M52.24,55,50.6,53.29,68.77,35.63l.2-.2A9.89,9.89,0,0,0,71.17,32a11,11,0,1,0-16.48,5.39L53.38,39.3A13.34,13.34,0,1,1,69.93,18.49a13.36,13.36,0,0,1,3.46,14.26,12.26,12.26,0,0,1-2.72,4.31l-.26.26Z"/><path class="cls-3" d="M56,36a8.63,8.63,0,1,1,13.08-7.39H66.72a6.28,6.28,0,0,0-12.56,0,6.22,6.22,0,0,0,3,5.37Z"/><path class="cls-3" d="M48.32,52.23l-1.64-1.69L64.85,32.89A6,6,0,0,0,66.71,29c0-.13,0-.25,0-.38h2.35a4.7,4.7,0,0,1,0,.53,8.28,8.28,0,0,1-2.56,5.4Z"/><path class="cls-3" d="M56.94,36.53A9.49,9.49,0,0,1,56,36l1.22-2a6.39,6.39,0,0,0,.69.36Z"/><rect class="cls-3" x="40.89" y="37.91" width="25.66" height="2.35" transform="translate(-12.21 47.28) rotate(-43.12)"/><path class="cls-3" d="M58.52,61.64,56.87,60,75.36,41.62A19.36,19.36,0,0,0,81.23,28.3v-.79A20.94,20.94,0,0,0,60.74,7.06h-.3A20.79,20.79,0,0,0,47.83,44.38L46.4,46.25A23.14,23.14,0,0,1,60.77,4.71,23.3,23.3,0,0,1,83.58,27.47c0,.29,0,.59,0,.88A21.7,21.7,0,0,1,77,43.29Z"/><path class="cls-3" d="M61.27,64.38l-1.66-1.66L78.72,43.56a23,23,0,0,0,6.83-16.28c0-.26,0-.53,0-.79A25.1,25.1,0,1,0,44.76,47.07l-1.47,1.84A27.44,27.44,0,1,1,87.88,26.4c0,.29,0,.58,0,.87a25.41,25.41,0,0,1-7.51,18Z"/><path class="cls-3" d="M27.49,33a4.32,4.32,0,1,1,4.32-4.31A4.31,4.31,0,0,1,27.49,33Zm0-6.27a2,2,0,1,0,2,2A2,2,0,0,0,27.49,26.68Z"/><path class="cls-3" d="M49,74.19,14.18,39.91A16.87,16.87,0,0,1,9.07,28.53c0-.23,0-.45,0-.68a18,18,0,0,1,18.05-18h0a18,18,0,0,1,11.23,4l-1.48,1.84a15.68,15.68,0,0,0-9.75-3.47h0A15.69,15.69,0,0,0,11.41,27.85c0,.2,0,.39,0,.59a14.57,14.57,0,0,0,4.41,9.8L50.67,72.52Z"/><path class="cls-3" d="M52.56,71.45l-35-34.13-.26-.26a12.26,12.26,0,0,1-2.72-4.31,13.25,13.25,0,0,1-.78-4.51A13.41,13.41,0,0,1,18,18.49a13.31,13.31,0,0,1,18-.16l-1.57,1.75a11,11,0,0,0-14.82.13A11,11,0,0,0,16.76,32,9.89,9.89,0,0,0,19,35.43l.2.2,35,34.14Z"/><path class="cls-3" d="M34.56,39.3l-1.32-1.95A11.93,11.93,0,0,0,34.89,36l1.67,1.66A13.7,13.7,0,0,1,34.56,39.3Z"/><path class="cls-3" d="M21.21,28.64H18.86a8.63,8.63,0,0,1,16.41-3.75l-2.12,1a6.28,6.28,0,0,0-11.94,2.72Z"/><path class="cls-3" d="M31.94,36l-1.21-2a6.17,6.17,0,0,0,2.45-2.73l2.14,1A8.61,8.61,0,0,1,31.94,36Z"/><path class="cls-3" d="M56.49,68.32l-35-33.74a8.29,8.29,0,0,1-2.57-5.41c0-.18,0-.36,0-.53h2.35c0,.13,0,.26,0,.38a5.94,5.94,0,0,0,1.85,3.87l35,33.73Z"/><path class="cls-3" d="M31,36.53l-1-2.15a5.83,5.83,0,0,0,.7-.37l1.21,2A9.49,9.49,0,0,1,31,36.53Z"/><rect class="cls-3" x="41.66" y="22.63" width="2.35" height="49.79" transform="translate(-21.11 45.65) rotate(-46.29)"/><path class="cls-3" d="M45.49,77.33l-34.58-34A21.7,21.7,0,0,1,4.35,28.35c0-.3,0-.59,0-.88A23.3,23.3,0,0,1,27.16,4.71a23,23,0,0,1,14,4.44l-1.39,1.9a20.61,20.61,0,0,0-12.55-4A20.94,20.94,0,0,0,6.7,27.51v.79a19.36,19.36,0,0,0,5.87,13.32l34.57,34Z"/><path class="cls-3" d="M42.35,80.07,7.54,45.23A25.45,25.45,0,0,1,0,27.27c0-.29,0-.58,0-.87A27.45,27.45,0,0,1,44.7,6.07L43.23,7.9A25.11,25.11,0,0,0,2.4,26.49c0,.26,0,.53,0,.79A23,23,0,0,0,9.21,43.56L44,78.41Z"/><path class="cls-1" d="M.82,20a50.69,50.69,0,0,1,9.41,6.27c2.75,2.36,8.24,5.49,13.54,4.17s5.51-3.86,5.51-3.86,1.65-.55,1.1,1.65S27.63,31,27.63,31.55s.27.83,1.37.83,8.82-.55,8.82.55-6.61,1.1-6.61,1.65,1.1.55,1.1.55,6.61.55,6.06,1.66-5.51,0-6.61.55,5.51,2.2,5.51,2.75-.55,1.1-6.61-.55c0,0-1.66-.55-1.11.55s3.86,1.66,3.31,2.76-9.37-2.76-12.68-4.41S1.8,33.42.42,31.77A28.45,28.45,0,0,1,.82,20"/><path class="cls-1" d="M81.62,43.93s-10.88-4.39-18.05-6.59-12.67-5.51-15.43-5c0,0-1.1.55,1.1,1.1s2.76,1.65,2.21,1.65-6.61-1.65-7.16-.55,6.06,1.65,5.51,2.76-7.17-.55-7.17.55,2.21,1.1,6.61,1.65c0,0,1.11.55,0,1.1s-6.06.55-6.06,1.66,6.06-.55,9.37.55S49.24,44,50.9,48.36c0,0,.55.55,1.1-.55s7.17-6.06,12.68-2.76A22.63,22.63,0,0,1,72.6,53s6.28-5.5,9-9"/></g></g></svg>