<svg id="Layer_1" data-name="Layer 1" xmlns="http://www.w3.org/2000/svg" viewBox="0 0 87.4 98.68"><defs><style>.cls-1{fill:#194661;}.cls-2{fill:#ccdc29;}.cls-3{fill:#4188a1;}</style></defs><circle class="cls-1" cx="6.25" cy="70.66" r="6.25"/><path class="cls-1" d="M3.25,58.89c4.09.44,10.34,1.88,13.37,6.47,2.46,4.92.58,11.06-1.08,14.82a1.68,1.68,0,0,0,2.14,2.25c5.86-2.33,15.78-8.62,11.64-23.71l-.6-1C17.72,46.55,7.32,52,2.37,55.91A1.68,1.68,0,0,0,3.25,58.89Z"/><circle class="cls-2" cx="43.44" cy="92.43" r="6.25"/><path class="cls-2" d="M31.74,89.15c2.43-3.32,6.8-8,12.3-8.35,5.49.33,9.86,5,12.29,8.35a1.68,1.68,0,0,0,3-.73c.91-6.25.43-18-14.72-21.94H43.44c-15.14,4-15.63,15.69-14.72,21.94A1.68,1.68,0,0,0,31.74,89.15Z"/><circle class="cls-3" cx="80.88" cy="71.11" r="6.25"/><path class="cls-3" d="M72.2,79.6c-1.67-3.77-3.55-9.9-1.08-14.82,3-4.59,9.28-6,13.37-6.48a1.67,1.67,0,0,0,.88-3C80.42,51.42,70,46,59,57.1l-.59,1c-4.15,15.09,5.77,21.37,11.63,23.71A1.68,1.68,0,0,0,72.2,79.6Z"/><circle class="cls-1" cx="81.15" cy="28.02" r="6.25"/><path class="cls-1" d="M84.15,39.79c-4.09-.44-10.34-1.88-13.37-6.47-2.46-4.92-.58-11.06,1.08-14.82a1.68,1.68,0,0,0-2.14-2.25C63.86,18.58,53.93,24.87,58.08,40l.6,1c11,11.14,21.4,5.69,26.35,1.78A1.68,1.68,0,0,0,84.15,39.79Z"/><circle class="cls-2" cx="43.96" cy="6.25" r="6.25"/><path class="cls-2" d="M55.67,9.51c-2.42,3.32-6.8,8-12.31,8.37-5.5-.33-9.88-5-12.31-8.37a1.67,1.67,0,0,0-3,.75c-.91,6.24-.43,18,14.72,21.93H44C59.1,28.24,59.58,16.5,58.67,10.26A1.67,1.67,0,0,0,55.67,9.51Z"/><circle class="cls-3" cx="6.51" cy="27.57" r="6.25"/><path class="cls-3" d="M15.2,19.08c1.67,3.76,3.55,9.9,1.08,14.82-3,4.59-9.28,6-13.37,6.47a1.68,1.68,0,0,0-.88,3c5,3.91,15.36,9.36,26.35-1.78l.6-1c4.15-15.09-5.78-21.38-11.64-23.71A1.68,1.68,0,0,0,15.2,19.08Z"/></svg>