<svg id="Layer_1" data-name="Layer 1" xmlns="http://www.w3.org/2000/svg" viewBox="0 0 650.17 93.86"><defs><style>.cls-1{fill:#4188a1;}.cls-2{fill:#194661;}.cls-3{fill:#6c6a6c;}.cls-4{fill:#ccdc29;}</style></defs><path class="cls-1" d="M108.48,32.86v19.5h-8.33V20.08h8.57l13.06,18.58V20.08h8.37V52.36h-8Z"/><path class="cls-1" d="M157.59,47.47H144.18l-1.64,4.89h-9l12.14-32.28h10.46l12.19,32.28h-9.05Zm-11.23-7h9l-4.55-13.11Z"/><path class="cls-1" d="M171.62,20.08h16.16C195,20.08,199,25,199,30.82s-4,10.6-11.22,10.6h-7.84V52.36h-8.32Zm15,7h-6.72v7.26h6.72a3.57,3.57,0,0,0,3.88-3.58A3.61,3.61,0,0,0,186.66,27.1Z"/><path class="cls-1" d="M205.78,41.57a14.57,14.57,0,0,0,10.3,4.25c2.86,0,4.6-1.21,4.6-2.75,0-1.84-2.08-2.57-5.52-3.29-5.32-1.07-12.77-2.42-12.77-10.07,0-5.42,4.59-10.11,12.87-10.11a19.67,19.67,0,0,1,13.11,4.5l-4.55,5.95a15,15,0,0,0-9.09-3.34c-2.76,0-3.83,1.11-3.83,2.52,0,1.69,2,2.27,5.57,2.95,5.32,1.11,12.68,2.66,12.68,10,0,6.48-4.79,10.79-13.46,10.79-6.53,0-11.08-2-14.32-5.13Z"/><path class="cls-2" d="M238.37,41.64a14.45,14.45,0,0,0,9.46,3.75c3.85,0,5.83-1.56,5.83-3.59s-1.46-3.17-6.19-3.17c-1.51,0-4.16,0-4.68.1V31c.68.06,3.38.06,4.68.06,3.59,0,5.62-1,5.62-3,0-2.18-2.5-3.33-5.83-3.33a13.47,13.47,0,0,0-8.73,3.44l-4.22-5.46c2.92-3.28,7.49-5.62,13.89-5.62C257,17.15,262,21,262,26.67c0,4-3.48,7.12-7.59,7.8,3.69.36,8.16,3.22,8.16,8.21,0,6.09-5.72,10.3-14.35,10.3-6.66,0-11.65-2.34-14.35-5.46Z"/><path class="cls-2" d="M283.87,17.15a17.5,17.5,0,0,1,10.56,3.33L290.53,27a9.62,9.62,0,0,0-6.66-2.29,8,8,0,0,0-8.11,8.37v.42a10.89,10.89,0,0,1,8.53-4c6.24,0,12,3.9,12,11.28,0,7.13-5.77,12.17-13.83,12.17-11,0-15.76-8-15.76-17.89C266.71,24,273.37,17.15,283.87,17.15Zm-2.29,19.71a8.34,8.34,0,0,0-5.82,2.34c.26,2.86,1.92,6.19,6.29,6.19,3.38,0,5.2-2.13,5.2-4.21C287.25,38.11,284.44,36.86,281.58,36.86Z"/><path class="cls-2" d="M314.71,17.15c10.14,0,14.87,8.74,14.87,17.89S324.85,53,314.71,53,299.83,44.19,299.83,35,304.57,17.15,314.71,17.15Zm0,7.91c-4.16,0-5.83,3.84-5.83,10s1.67,10,5.83,10,5.82-3.9,5.82-10S318.87,25.06,314.71,25.06Z"/><path class="cls-1" d="M357.27,38.81H342V52.36h-6.87V20.08H342V32.76h15.24V20.08h6.92V52.36h-6.92Z"/><path class="cls-1" d="M382,28.4c7,0,11.71,5.23,11.71,12.88v1.35H376.29c.39,2.95,2.76,5.42,6.72,5.42a9.58,9.58,0,0,0,6.25-2.32l2.71,4c-2.33,2.13-6,3.25-9.63,3.25-7.12,0-12.49-4.79-12.49-12.29A11.9,11.9,0,0,1,382,28.4Zm-5.76,10.07h11.52A5.42,5.42,0,0,0,382,33.29,5.62,5.62,0,0,0,376.19,38.47Z"/><path class="cls-1" d="M413.11,49.94a9.71,9.71,0,0,1-7.4,3c-3.73,0-8.13-2.52-8.13-7.75,0-5.46,4.4-7.45,8.13-7.45,3.09,0,5.85,1,7.4,2.86V37.36c0-2.38-2-3.92-5.13-3.92a9.84,9.84,0,0,0-6.82,2.75l-2.33-4.11A15.39,15.39,0,0,1,409,28.4c5.33,0,10.21,2.13,10.21,8.86v15.1h-6.14Zm0-6.1a6.14,6.14,0,0,0-4.94-2c-2.42,0-4.4,1.26-4.4,3.53s2,3.44,4.4,3.44a6.14,6.14,0,0,0,4.94-2Z"/><path class="cls-1" d="M426.32,20.08h6.14V52.36h-6.14Z"/><path class="cls-1" d="M440.74,46.55V34.36h-3.88V29h3.88V22.6h6.19V29h4.74v5.37h-4.74V44.9c0,1.46.77,2.57,2.13,2.57a3.35,3.35,0,0,0,2.13-.68l1.3,4.65a7.59,7.59,0,0,1-5.13,1.5C443.06,52.94,440.74,50.71,440.74,46.55Z"/><path class="cls-1" d="M472.67,38.13c0-3.24-1.69-4.26-4.36-4.26A6.82,6.82,0,0,0,463,36.63V52.36h-6.14V20.08H463V32a10.81,10.81,0,0,1,8.23-3.63c5.13,0,7.59,2.81,7.59,7.36v16.6h-6.14Z"/><path class="cls-1" d="M484.47,36.24c0-9.92,7.5-16.69,16.94-16.69a14.89,14.89,0,0,1,13.74,7.89l-5.9,2.9a8.85,8.85,0,0,0-7.84-4.69c-5.61,0-9.87,4.5-9.87,10.59s4.26,10.6,9.87,10.6a8.76,8.76,0,0,0,7.84-4.69l5.9,2.85a15,15,0,0,1-13.74,7.94C492,52.94,484.47,46.16,484.47,36.24Z"/><path class="cls-1" d="M534.12,49.94a9.71,9.71,0,0,1-7.41,3c-3.72,0-8.13-2.52-8.13-7.75,0-5.46,4.41-7.45,8.13-7.45,3.1,0,5.86,1,7.41,2.86V37.36c0-2.38-2-3.92-5.13-3.92a9.84,9.84,0,0,0-6.82,2.75l-2.33-4.11a15.37,15.37,0,0,1,10.21-3.68c5.32,0,10.21,2.13,10.21,8.86v15.1h-6.14Zm0-6.1a6.15,6.15,0,0,0-4.94-2c-2.42,0-4.4,1.26-4.4,3.53s2,3.44,4.4,3.44a6.16,6.16,0,0,0,4.94-2Z"/><path class="cls-1" d="M547.32,29h6.15v3.19a10,10,0,0,1,7.45-3.73v6a8.23,8.23,0,0,0-1.69-.19c-2,0-4.74,1.16-5.76,2.66V52.36h-6.15Z"/><path class="cls-1" d="M576.31,28.4c7,0,11.71,5.23,11.71,12.88v1.35H570.64c.39,2.95,2.76,5.42,6.73,5.42a9.55,9.55,0,0,0,6.24-2.32l2.71,4c-2.32,2.13-6,3.25-9.63,3.25-7.11,0-12.48-4.79-12.48-12.29A11.9,11.9,0,0,1,576.31,28.4Zm-5.76,10.07h11.51a5.4,5.4,0,0,0-5.75-5.18A5.62,5.62,0,0,0,570.55,38.47Z"/><path class="cls-1" d="M594,48.13a2.27,2.27,0,1,1-2.27,2.27A2.29,2.29,0,0,1,594,48.13Z"/><path class="cls-1" d="M605,38.5a6.27,6.27,0,0,1,5.34,2.43L608,43.12a3.27,3.27,0,0,0-2.86-1.46,3.61,3.61,0,0,0-3.66,3.92,3.64,3.64,0,0,0,3.66,4A3.41,3.41,0,0,0,608,48.07l2.32,2.16A6.21,6.21,0,0,1,605,52.69a6.86,6.86,0,0,1-7.17-7.11A6.86,6.86,0,0,1,605,38.5Z"/><path class="cls-1" d="M612.31,45.58a7.16,7.16,0,0,1,14.31,0,7.16,7.16,0,0,1-14.31,0Zm10.61,0c0-2.1-1.26-3.92-3.47-3.92S616,43.48,616,45.58s1.24,4,3.45,4S622.92,47.71,622.92,45.58Z"/><path class="cls-1" d="M646.58,43.82c0-1.26-.56-2.16-2-2.16a3.6,3.6,0,0,0-2.8,1.57v9.13h-3.58V43.82c0-1.26-.56-2.16-2-2.16a3.64,3.64,0,0,0-2.81,1.6v9.1h-3.55V38.83h3.55V40.6a5.91,5.91,0,0,1,4.43-2.1A3.57,3.57,0,0,1,641.54,41a5.74,5.74,0,0,1,4.65-2.46c2.49,0,4,1.31,4,4.08v9.78h-3.59Z"/><path class="cls-3" d="M100.2,71.92h1.72V85.77H100.2Z"/><path class="cls-3" d="M118,79c0-1.27-.56-2.1-1.84-2.1a3.48,3.48,0,0,0-2.66,1.53v7.36H112V78.94c0-1.27-.54-2.1-1.84-2.1a3.49,3.49,0,0,0-2.64,1.55v7.33h-1.56v-10h1.55v1.46a4.33,4.33,0,0,1,3.24-1.7,2.57,2.57,0,0,1,2.7,1.87,4.19,4.19,0,0,1,3.36-1.87c1.83,0,2.8,1,2.8,3v7.25H118Z"/><path class="cls-3" d="M135.63,79c0-1.27-.56-2.1-1.85-2.1a3.48,3.48,0,0,0-2.65,1.53v7.36h-1.56V78.94c0-1.27-.54-2.1-1.85-2.1a3.48,3.48,0,0,0-2.63,1.55v7.33h-1.56v-10h1.56v1.46a4.31,4.31,0,0,1,3.23-1.7,2.57,2.57,0,0,1,2.7,1.87,4.19,4.19,0,0,1,3.36-1.87c1.84,0,2.8,1,2.8,3v7.25h-1.55Z"/><path class="cls-3" d="M145.49,75.49c3,0,4.82,2.36,4.82,5.38v.39h-8.12a3.53,3.53,0,0,0,3.57,3.49h.05a4.35,4.35,0,0,0,3.09-1.26l.75,1a5.49,5.49,0,0,1-4,1.53,5.28,5.28,0,0,1-.17-10.55Zm-3.3,4.63h6.58a3.23,3.23,0,0,0-3.14-3.34.43.43,0,0,0-.16,0A3.34,3.34,0,0,0,142.19,80.12Z"/><path class="cls-3" d="M160.92,84.27A4.22,4.22,0,0,1,157.53,86c-2.61,0-4.46-2-4.46-5.25s1.83-5.27,4.46-5.27a4.18,4.18,0,0,1,3.39,1.76V71.92h1.56V85.77h-1.56Zm0-5.77a3.79,3.79,0,0,0-3-1.62c-2,0-3.22,1.66-3.22,3.88s1.21,3.86,3.22,3.86a3.75,3.75,0,0,0,3-1.57Z"/><path class="cls-3" d="M166.15,73a1,1,0,1,1,1,1.05A1,1,0,0,1,166.15,73Zm.27,2.74H168v10h-1.56Z"/><path class="cls-3" d="M178.19,84.62a4.31,4.31,0,0,1-3.32,1.4,3.33,3.33,0,0,1-3.49-3.17V82.7a3.27,3.27,0,0,1,3.49-3.3,4.16,4.16,0,0,1,3.32,1.4V79c0-1.35-1.08-2.1-2.53-2.1a4,4,0,0,0-3.07,1.4l-.7-1.08a5.25,5.25,0,0,1,4-1.66c2.1,0,3.89,1,3.89,3.39v6.89h-1.56Zm0-2.86a3.35,3.35,0,0,0-2.76-1.25,2.25,2.25,0,0,0-2.46,2c0,.06,0,.12,0,.18a2.25,2.25,0,0,0,2.47,2.18,3.34,3.34,0,0,0,2.76-1.24Z"/><path class="cls-3" d="M184,83.67V77.1h-1.65V75.71H184V73h1.56v2.74h2v1.4h-2v6.23c0,.75.34,1.29,1,1.29a1.55,1.55,0,0,0,1.06-.41l.45,1.16a2.5,2.5,0,0,1-1.86.64A2.09,2.09,0,0,1,184,83.67Z"/><path class="cls-3" d="M195,75.49c3,0,4.81,2.36,4.81,5.38v.39h-8.11a3.51,3.51,0,0,0,3.56,3.49h.05a4.35,4.35,0,0,0,3.09-1.26l.75,1a5.49,5.49,0,0,1-4,1.53A5.28,5.28,0,0,1,195,75.49Zm-3.3,4.63h6.57a3.23,3.23,0,0,0-3.14-3.34.43.43,0,0,0-.16,0A3.33,3.33,0,0,0,191.69,80.12Z"/><path class="cls-3" d="M203.4,82.5a5.84,5.84,0,0,0,4.35,2c2.48,0,3.26-1.33,3.26-2.39,0-1.66-1.68-2.1-3.5-2.62-2.22-.58-4.69-1.2-4.69-3.92,0-2.28,2-3.84,4.76-3.84a6.48,6.48,0,0,1,4.89,1.93l-1,1.24a5.29,5.29,0,0,0-4-1.66c-1.66,0-2.85.89-2.85,2.2s1.61,1.8,3.37,2.29c2.26.6,4.84,1.3,4.84,4.19,0,2-1.4,4.07-5.12,4.07a6.86,6.86,0,0,1-5.31-2.2Z"/><path class="cls-3" d="M222.41,84.62a4.31,4.31,0,0,1-3.32,1.4,3.33,3.33,0,0,1-3.49-3.17V82.7a3.27,3.27,0,0,1,3.49-3.3,4.16,4.16,0,0,1,3.32,1.4V79c0-1.35-1.08-2.1-2.53-2.1a4,4,0,0,0-3.07,1.4l-.7-1.08a5.25,5.25,0,0,1,4-1.66c2.1,0,3.88,1,3.88,3.39v6.89h-1.55Zm0-2.86a3.35,3.35,0,0,0-2.76-1.25,2.25,2.25,0,0,0-2.46,2,1,1,0,0,0,0,.17,2.25,2.25,0,0,0,2.47,2.18,3.34,3.34,0,0,0,2.76-1.24Z"/><path class="cls-3" d="M226.42,75.73h1.68L231.44,84l3.33-8.22h1.7l-4.2,10h-1.7Z"/><path class="cls-3" d="M238.65,73a1,1,0,0,1,1-1h0a1,1,0,0,1,1.06,1h0a1,1,0,1,1-2.09,0Zm.26,2.74h1.56v10h-1.56Z"/><path class="cls-3" d="M251.18,79.2c0-1.76-.88-2.32-2.23-2.32a3.89,3.89,0,0,0-3,1.55v7.34h-1.55v-10H246v1.46a5,5,0,0,1,3.58-1.7c2.09,0,3.19,1.05,3.19,3.24v7h-1.56Z"/><path class="cls-3" d="M257.45,87.18a3.86,3.86,0,0,0,3.26,1.4c1.67,0,3.23-.81,3.23-3V84.14a4.21,4.21,0,0,1-3.37,1.78c-2.62,0-4.46-2-4.46-5.19s1.82-5.21,4.46-5.21a4.23,4.23,0,0,1,3.37,1.77V75.77h1.55v9.74c0,3.32-2.32,4.36-4.78,4.36a5.15,5.15,0,0,1-4-1.5Zm6.47-8.68a3.71,3.71,0,0,0-3-1.62c-2,0-3.22,1.59-3.22,3.82s1.21,3.82,3.22,3.82a3.71,3.71,0,0,0,3-1.64Z"/><path class="cls-3" d="M269.37,83.31a4.59,4.59,0,0,0,3.3,1.44c1.54,0,2.37-.7,2.37-1.66,0-1.11-1.23-1.46-2.57-1.79-1.7-.39-3.64-.85-3.64-2.92,0-1.56,1.35-2.89,3.74-2.89a5,5,0,0,1,3.71,1.45l-.7,1.08a3.88,3.88,0,0,0-3-1.27c-1.4,0-2.23.63-2.23,1.52s1.15,1.29,2.46,1.6c1.74.39,3.75.89,3.75,3.11,0,1.68-1.35,3-3.94,3a5.34,5.34,0,0,1-4.05-1.57Z"/><path class="cls-3" d="M279.55,87.76a3.14,3.14,0,0,0,1.35-1.93,1.5,1.5,0,0,1-.3,0,1,1,0,0,1-1-1v-.09a1.12,1.12,0,0,1,1.11-1.12h0A1.4,1.4,0,0,1,282,85.13v.1a4,4,0,0,1-1.71,3.14Z"/><path class="cls-3" d="M285.77,82.5a5.87,5.87,0,0,0,4.36,2c2.47,0,3.26-1.33,3.26-2.39,0-1.66-1.68-2.1-3.5-2.62-2.21-.58-4.69-1.2-4.69-3.92,0-2.28,2-3.84,4.76-3.84a6.48,6.48,0,0,1,4.89,1.93l-1,1.24a5.29,5.29,0,0,0-4-1.66c-1.66,0-2.84.89-2.84,2.2s1.59,1.8,3.36,2.29c2.26.6,4.84,1.3,4.84,4.19,0,2-1.4,4.07-5.11,4.07a6.83,6.83,0,0,1-5.31-2.2Z"/><path class="cls-3" d="M298.25,73A1.05,1.05,0,1,1,299.3,74,1,1,0,0,1,298.25,73Zm.27,2.74h1.55v10h-1.55Z"/><path class="cls-3" d="M316.13,79c0-1.27-.56-2.1-1.86-2.1a3.51,3.51,0,0,0-2.65,1.53v7.36h-1.56V78.94c0-1.27-.54-2.1-1.85-2.1a3.48,3.48,0,0,0-2.63,1.55v7.33H304v-10h1.56v1.46a4.31,4.31,0,0,1,3.23-1.7,2.58,2.58,0,0,1,2.71,1.87,4.19,4.19,0,0,1,3.36-1.87c1.83,0,2.8,1,2.8,3v7.25h-1.55Z"/><path class="cls-3" d="M321.63,89.56V75.73h1.55v1.5a4.17,4.17,0,0,1,3.38-1.74c2.65,0,4.47,2,4.47,5.25S329.21,86,326.56,86a4.11,4.11,0,0,1-3.38-1.76v5.31Zm4.54-12.7a3.73,3.73,0,0,0-3,1.59V83a3.74,3.74,0,0,0,3,1.62c2,0,3.22-1.66,3.22-3.88s-1.2-3.84-3.24-3.84Z"/><path class="cls-3" d="M334.37,71.92h1.56V85.77h-1.56Z"/><path class="cls-3" d="M344.23,75.49c3,0,4.82,2.36,4.82,5.38v.39h-8.12a3.53,3.53,0,0,0,3.57,3.49h.05a4.37,4.37,0,0,0,3.09-1.26l.75,1a5.49,5.49,0,0,1-4,1.53,5.28,5.28,0,0,1-.17-10.55Zm-3.3,4.63h6.59a3.25,3.25,0,0,0-3.16-3.34.38.38,0,0,0-.15,0A3.35,3.35,0,0,0,340.93,80.12Z"/><path class="cls-3" d="M352.45,71.92h9.09v1.56h-7.36v4.46h7.2v1.54h-7.2v4.78h7.35v1.53h-9.09Z"/><path class="cls-3" d="M371.81,79.2c0-1.76-.9-2.32-2.25-2.32a3.89,3.89,0,0,0-3,1.55v7.34H365v-10h1.55v1.46a5,5,0,0,1,3.57-1.7c2.1,0,3.2,1.05,3.2,3.24v7h-1.55Z"/><path class="cls-3" d="M377.31,75.73h1.55v1.63a4.27,4.27,0,0,1,3.34-1.83v1.59a3.18,3.18,0,0,0-.62-.06,3.7,3.7,0,0,0-2.72,1.6v7.11h-1.55Z"/><path class="cls-3" d="M384.4,80.74a5,5,0,1,1,9.93,0c0,2.91-1.91,5.27-5,5.27A4.94,4.94,0,0,1,384.4,80.74Zm8.29,0c0-2-1.18-3.86-3.32-3.86S386,78.7,386,80.74s1.2,3.88,3.34,3.88S392.69,82.79,392.69,80.74Z"/><path class="cls-3" d="M397.7,71.92h1.55V85.77H397.7Z"/><path class="cls-3" d="M403.19,71.92h1.56V85.77h-1.56Z"/><path class="cls-3" d="M420.8,79c0-1.27-.56-2.1-1.85-2.1a3.51,3.51,0,0,0-2.66,1.53v7.36h-1.56V78.94c0-1.27-.53-2.1-1.84-2.1a3.51,3.51,0,0,0-2.64,1.55v7.33h-1.56v-10h1.56v1.46a4.33,4.33,0,0,1,3.24-1.7,2.58,2.58,0,0,1,2.7,1.87,4.18,4.18,0,0,1,3.36-1.87c1.83,0,2.8,1,2.8,3v7.25h-1.56Z"/><path class="cls-3" d="M430.66,75.49c3,0,4.82,2.36,4.82,5.38v.39h-8.12a3.52,3.52,0,0,0,3.56,3.49H431a4.39,4.39,0,0,0,3.1-1.26l.74,1a5.45,5.45,0,0,1-4,1.53,5.28,5.28,0,0,1-.17-10.55Zm-3.3,4.63h6.58a3.24,3.24,0,0,0-3.14-3.34.43.43,0,0,0-.16,0A3.34,3.34,0,0,0,427.36,80.12Z"/><path class="cls-3" d="M445.59,79.2c0-1.76-.9-2.32-2.25-2.32a3.86,3.86,0,0,0-3,1.55v7.34h-1.56v-10h1.56v1.46a5,5,0,0,1,3.57-1.7c2.1,0,3.2,1.05,3.2,3.24v7h-1.56Z"/><path class="cls-3" d="M451.4,83.67V77.1h-1.66V75.71h1.66V73H453v2.74h2v1.4h-2v6.23c0,.75.33,1.29,1,1.29a1.46,1.46,0,0,0,1-.41l.46,1.13a2.55,2.55,0,0,1-1.88.64A2,2,0,0,1,451.4,83.67Z"/><circle class="cls-2" cx="5.95" cy="67.21" r="5.94"/><path class="cls-2" d="M3.09,56c3.89.42,9.84,1.79,12.72,6.16,2.34,4.68.55,10.52-1,14.1a1.6,1.6,0,0,0,2,2.14c5.57-2.22,15-8.2,11.07-22.56l-.57-1C16.86,44.28,7,49.46,2.25,53.18A1.59,1.59,0,0,0,3.09,56Z"/><circle class="cls-4" cx="41.32" cy="87.92" r="5.94"/><path class="cls-4" d="M30.19,84.8c2.31-3.16,6.47-7.63,11.7-7.94,5.22.31,9.38,4.78,11.69,7.94a1.6,1.6,0,0,0,2.87-.7c.87-5.93.41-17.1-14-20.86H41.32C26.91,67,26.46,78.17,27.32,84.1A1.6,1.6,0,0,0,30.19,84.8Z"/><circle class="cls-1" cx="76.94" cy="67.64" r="5.94"/><path class="cls-1" d="M68.67,75.71c-1.58-3.58-3.37-9.41-1-14.09,2.88-4.37,8.82-5.74,12.72-6.16a1.59,1.59,0,0,0,.83-2.83c-4.71-3.72-14.61-8.91-25.07,1.69l-.56,1c-4,14.36,5.49,20.33,11.07,22.55A1.59,1.59,0,0,0,68.67,75.71Z"/><circle class="cls-2" cx="77.19" cy="26.65" r="5.94"/><path class="cls-2" d="M80.05,37.85c-3.9-.42-9.84-1.79-12.73-6.16-2.34-4.68-.55-10.52,1-14.1a1.6,1.6,0,0,0-2-2.14c-5.58,2.22-15,8.2-11.07,22.56l.56,1c10.46,10.6,20.36,5.41,25.07,1.69A1.59,1.59,0,0,0,80.05,37.85Z"/><circle class="cls-4" cx="41.82" cy="5.94" r="5.94"/><path class="cls-4" d="M53,9.05c-2.3,3.16-6.47,7.64-11.7,8-5.24-.31-9.41-4.79-11.71-7.95a1.59,1.59,0,0,0-2.86.71c-.87,5.94-.41,17.1,14,20.86h1.13c14.41-3.76,14.87-14.92,14-20.86A1.59,1.59,0,0,0,53,9.05Z"/><circle class="cls-1" cx="6.2" cy="26.22" r="5.94"/><path class="cls-1" d="M14.46,18.15c1.58,3.58,3.37,9.41,1,14.09C12.61,36.61,6.66,38,2.77,38.4a1.6,1.6,0,0,0-.84,2.84C6.64,45,16.54,50.14,27,39.54l.57-1C31.51,24.21,22.07,18.23,16.5,16A1.6,1.6,0,0,0,14.46,18.15Z"/></svg>