<svg xmlns="http://www.w3.org/2000/svg" viewBox="0 0 164.65 164.65"><defs><style>.cls-1{fill:#aeaeae;}</style></defs><title>mh_placeholder_iconAsset 2</title><g id="Layer_2" data-name="Layer 2"><g id="Layer_1-2" data-name="Layer 1"><circle class="cls-1" cx="82.33" cy="82.32" r="44.27"/><path class="cls-1" d="M130.92,0h-3a2,2,0,0,0,0,4h3a2,2,0,0,0,0-4Zm-14,0h-3a2,2,0,0,0,0,4h3a2,2,0,0,0,0-4Zm-14,0h-3a2,2,0,0,0,0,4h3a2,2,0,0,0,0-4Zm-14,0h-3a2,2,0,0,0,0,4h3a2,2,0,0,0,0-4Zm-14,0h-3a2,2,0,0,0,0,4h3a2,2,0,0,0,0-4Zm-14,0h-3a2,2,0,0,0,0,4h3a2,2,0,0,0,0-4Zm-14,0h-3a2,2,0,0,0,0,4h3a2,2,0,0,0,0-4ZM33,0h0l-.51,0h-.12c-.65,0-1.29.07-1.93.14h-.25l-.18,0a2,2,0,0,0,.22,4h.23C31.25,4.09,32.14,4,33,4A2,2,0,0,0,33,0ZM20.24,3a1.94,1.94,0,0,0-.84.19c-.86.4-1.69.83-2.5,1.3h0v0h-.14a2,2,0,0,0,1,3.72,2.07,2.07,0,0,0,1-.27c.75-.44,1.54-.86,2.33-1.23A2,2,0,0,0,20.24,3ZM9.81,10.88a2,2,0,0,0-1.51.68,1.15,1.15,0,0,1-.14.17h0l0,0h0v0h0v0H8c-.56.66-1.1,1.34-1.61,2a2,2,0,0,0,3.24,2.36c.51-.71,1.07-1.41,1.65-2.07a2,2,0,0,0-.2-2.82,1.94,1.94,0,0,0-1.31-.5ZM3.43,22.29A2,2,0,0,0,1.52,23.7v0h0v0h0v0h0v0h0v0h0l0,.13h0v0h0v0h0c-.25.83-.47,1.68-.66,2.54A2,2,0,0,0,2.29,29a2,2,0,0,0,.42,0,2,2,0,0,0,2-1.58c.18-.86.41-1.72.67-2.55A2,2,0,0,0,4,22.38a2.06,2.06,0,0,0-.59-.09ZM2,35.55a2,2,0,0,0-2,2v3a2,2,0,0,0,4,0v-3a2,2,0,0,0-2-2Zm0,14a2,2,0,0,0-2,2v3a2,2,0,0,0,4,0v-3a2,2,0,0,0-2-2Zm0,14a2,2,0,0,0-2,2v3a2,2,0,0,0,4,0v-3a2,2,0,0,0-2-2Zm0,14a2,2,0,0,0-2,2v3a2,2,0,0,0,4,0v-3a2,2,0,0,0-2-2Zm0,14a2,2,0,0,0-2,2v3a2,2,0,0,0,4,0v-3a2,2,0,0,0-2-2Zm0,14a2,2,0,0,0-2,2v3a2,2,0,0,0,4,0v-3a2,2,0,0,0-2-2Zm0,14a2,2,0,0,0-2,2v3a2,2,0,0,0,4,0v-3a2,2,0,0,0-2-2Zm.3,13.71-.28,0a2,2,0,0,0-1.71,2.25c.08.59.18,1.17.29,1.75h0v0h0v0h0v0h0v0h0v.05h0v0h0v0h0v0h0v0h0v0h0v0h0v0h0v0h0l0,.11h0v0h0v0h0v0h0c0,.18.07.35.11.52A2,2,0,0,0,2.8,140a2.3,2.3,0,0,0,.45,0,2,2,0,0,0,1.5-2.4,25.28,25.28,0,0,1-.47-2.6,2,2,0,0,0-2-1.73Zm4.41,12.3A2,2,0,0,0,5,148.62l.41.65H5.5v0h0v0h0v0h0l.09.15h0l0,0h0c.34.51.69,1,1,1.49a2,2,0,0,0,3.2-2.4c-.53-.7-1-1.44-1.49-2.19a2,2,0,0,0-1.7-.95Zm9,9.49a2,2,0,0,0-1.14,3.64L15,159h.14l.05,0h.22l0,0h.17l.11.07h0l0,0h0v0h0l.15.09h0l0,0h.11l.13.07h.13l.15.09h.07l0,0h0l.13.08h.13l.11.07h.15a2,2,0,0,0,2.72-.76,2,2,0,0,0-.76-2.72c-.76-.44-1.51-.91-2.23-1.41a2,2,0,0,0-1.14-.35Zm12,5a2,2,0,0,0-.37,4l1.31.22h.46l1.21.14h.19a2,2,0,0,0,.2-4c-.88-.09-1.76-.22-2.62-.38a1.64,1.64,0,0,0-.38,0Zm16.6.56h-3a2,2,0,0,0,0,4h3a2,2,0,1,0,0-4Zm14,0h-3a2,2,0,0,0,0,4h3a2,2,0,1,0,0-4Zm14,0h-3a2,2,0,0,0,0,4h3a2,2,0,0,0,0-4Zm14,0h-3a2,2,0,0,0,0,4h3a2,2,0,0,0,0-4Zm14,0h-3a2,2,0,1,0,0,4h3a2,2,0,0,0,0-4Zm14,0h-3a2,2,0,1,0,0,4h3a2,2,0,0,0,0-4Zm14,0h-3a2,2,0,1,0,0,4h3a2,2,0,0,0,0-4Zm13.11-1.8a2.17,2.17,0,0,0-.66.11c-.83.3-1.68.55-2.53.77a2,2,0,0,0,.49,3.94,2.14,2.14,0,0,0,.5-.06c1-.25,1.93-.54,2.87-.87a2,2,0,0,0-.67-3.89ZM152.65,152a2,2,0,0,0-1.37.55c-.64.6-1.32,1.18-2,1.72a2,2,0,0,0,1.24,3.58,2,2,0,0,0,1.23-.43l.3-.23h.18l0,0h0l0,0h0l0,0h0l0,0h0c.55-.46,1.1-.94,1.62-1.43a2,2,0,0,0-1.37-3.46Zm7.49-10.72a2,2,0,0,0-1.84,1.22c-.35.81-.73,1.61-1.15,2.38a2,2,0,0,0,.82,2.71,2.06,2.06,0,0,0,.95.24,2,2,0,0,0,1.76-1.05l.21-.41h0v0h0v0h0v0h0v0h0v0h0v0h0v0h0v0h0a2,2,0,0,0,.1-.21h0c.28-.56.54-1.13.79-1.7a2,2,0,0,0-1.06-2.63,2,2,0,0,0-.78-.16Zm2.51-12.86a2,2,0,0,0-2,2v.46c0,.75,0,1.5-.08,2.25a2,2,0,0,0,1.84,2.14h.15a2,2,0,0,0,2-1.84c0-.14,0-.27,0-.41h0v0h0v0h0v0h0v0h0v0h0v0h0v0h0v0h0v-.08h0l0-.73h0v-.08h0v-.08h0v-.06h0v0h0v0h0v0h0v0h0v0h0v0h0v0h0v0h0v0h0v0h0v0h0v0h0v0h0v0h0v0h0v0h0v0h0v0h0v0h0v0h0v0h0v0h0v0h0v0h0v-.46a2,2,0,0,0-2-2Zm0-14a2,2,0,0,0-2,2v3a2,2,0,1,0,4,0v-3a2,2,0,0,0-2-2Zm0-14a2,2,0,0,0-2,2v3a2,2,0,1,0,4,0v-3a2,2,0,0,0-2-2Zm0-14a2,2,0,0,0-2,2v3a2,2,0,1,0,4,0v-3a2,2,0,0,0-2-2Zm0-14a2,2,0,0,0-2,2v3a2,2,0,1,0,4,0v-3a2,2,0,0,0-2-2Zm0-14a2,2,0,0,0-2,2v3a2,2,0,0,0,4,0v-3a2,2,0,0,0-2-2Zm0-14a2,2,0,0,0-2,2v3a2,2,0,1,0,4,0v-3a2,2,0,0,0-2-2Zm0-13.92h-.07a2,2,0,0,0-1.93,2.07c0,.37,0,.74,0,1.12v1.73a2,2,0,1,0,4,0V33.7h0v0h0v0h0v0h0v0h0v0h0v0h0v-.06h0c0-.34,0-.68,0-1a2,2,0,0,0-2-1.92Zm-3.17-12.69a2,2,0,0,0-.87.21,2,2,0,0,0-.92,2.67c.38.79.73,1.61,1.05,2.42a2,2,0,0,0,1.87,1.29,2,2,0,0,0,.71-.13,2,2,0,0,0,1.16-2.57c-.36-.94-.76-1.87-1.2-2.77a2,2,0,0,0-1.8-1.12Zm-8-10.32a2,2,0,0,0-1.29,3.52c.67.57,1.32,1.18,1.94,1.8a2,2,0,0,0,2.82,0,2,2,0,0,0,0-2.83c-.6-.61-1.24-1.21-1.89-1.78h-.16L152.73,8a2,2,0,0,0-1.29-.47ZM139.94,1.3a2,2,0,0,0-.56,3.92c.84.25,1.68.54,2.49.86a1.94,1.94,0,0,0,.74.14,2,2,0,0,0,.74-3.86c-.62-.24-1.24-.47-1.87-.68h-.12l-.07,0h-.19l-.1,0H141l-.44-.14a2.24,2.24,0,0,0-.57-.08Z"/></g></g></svg>