<svg xmlns="http://www.w3.org/2000/svg" viewBox="0 0 1000 164.65"><defs><style>.cls-1{fill:#aeaeae;}</style></defs><title>mh_placeholder_logoAsset 1</title><g id="Layer_2" data-name="Layer 2"><g id="Layer_1-2" data-name="Layer 1"><path class="cls-1" d="M966.55,164.65H965.3a2.51,2.51,0,1,1,0-5h1.25a2.51,2.51,0,1,1,0,5Zm-12.53,0h-1.25a2.51,2.51,0,1,1,0-5H954a2.51,2.51,0,1,1,0,5Zm-12.54,0h-1.25a2.51,2.51,0,1,1,0-5h1.25a2.51,2.51,0,1,1,0,5Zm-12.53,0h-1.26a2.51,2.51,0,0,1,0-5H929a2.51,2.51,0,1,1,0,5Zm-12.54,0h-1.25a2.51,2.51,0,1,1,0-5h1.25a2.51,2.51,0,1,1,0,5Zm-12.53,0h-1.26a2.51,2.51,0,0,1,0-5h1.26a2.51,2.51,0,0,1,0,5Zm-12.54,0h-1.25a2.51,2.51,0,1,1,0-5h1.25a2.51,2.51,0,1,1,0,5Zm-12.53,0h-1.26a2.51,2.51,0,0,1,0-5h1.26a2.51,2.51,0,0,1,0,5Zm-12.54,0H865a2.51,2.51,0,1,1,0-5h1.25a2.51,2.51,0,1,1,0,5Zm-12.53,0h-1.26a2.51,2.51,0,1,1,0-5h1.26a2.51,2.51,0,0,1,0,5Zm-12.54,0H840a2.51,2.51,0,1,1,0-5h1.25a2.51,2.51,0,1,1,0,5Zm-12.54,0h-1.25a2.51,2.51,0,1,1,0-5h1.25a2.51,2.51,0,1,1,0,5Zm-12.53,0h-1.25a2.51,2.51,0,1,1,0-5h1.25a2.51,2.51,0,1,1,0,5Zm-12.54,0h-1.25a2.51,2.51,0,1,1,0-5h1.25a2.51,2.51,0,1,1,0,5Zm-12.53,0H789.8a2.51,2.51,0,0,1,0-5h1.26a2.51,2.51,0,0,1,0,5Zm-12.54,0h-1.25a2.51,2.51,0,1,1,0-5h1.25a2.51,2.51,0,1,1,0,5Zm-12.53,0h-1.26a2.51,2.51,0,0,1,0-5H766a2.51,2.51,0,0,1,0,5Zm-12.54,0H752.2a2.51,2.51,0,1,1,0-5h1.25a2.51,2.51,0,1,1,0,5Zm-12.53,0h-1.26a2.51,2.51,0,0,1,0-5h1.26a2.51,2.51,0,0,1,0,5Zm-12.54,0h-1.25a2.51,2.51,0,1,1,0-5h1.25a2.51,2.51,0,1,1,0,5Zm-12.54,0h-1.25a2.51,2.51,0,1,1,0-5h1.25a2.51,2.51,0,1,1,0,5Zm-12.53,0h-1.25a2.51,2.51,0,1,1,0-5h1.25a2.51,2.51,0,1,1,0,5Zm-12.54,0h-1.25a2.51,2.51,0,1,1,0-5h1.25a2.51,2.51,0,1,1,0,5Zm-12.53,0H677a2.51,2.51,0,0,1,0-5h1.26a2.51,2.51,0,1,1,0,5Zm-12.54,0h-1.25a2.51,2.51,0,1,1,0-5h1.25a2.51,2.51,0,1,1,0,5Zm-12.53,0h-1.26a2.51,2.51,0,0,1,0-5h1.26a2.51,2.51,0,0,1,0,5Zm-12.54,0h-1.25a2.51,2.51,0,1,1,0-5h1.25a2.51,2.51,0,1,1,0,5Zm-12.53,0h-1.26a2.51,2.51,0,0,1,0-5h1.26a2.51,2.51,0,0,1,0,5Zm-12.54,0h-1.25a2.51,2.51,0,1,1,0-5h1.25a2.51,2.51,0,1,1,0,5Zm-12.53,0h-1.26a2.51,2.51,0,1,1,0-5H603a2.51,2.51,0,0,1,0,5Zm-12.54,0h-1.25a2.51,2.51,0,1,1,0-5h1.25a2.51,2.51,0,1,1,0,5Zm-12.54,0H576.7a2.51,2.51,0,1,1,0-5H578a2.51,2.51,0,1,1,0,5Zm-12.53,0h-1.25a2.51,2.51,0,1,1,0-5h1.25a2.51,2.51,0,1,1,0,5Zm-12.54,0h-1.25a2.51,2.51,0,1,1,0-5h1.25a2.51,2.51,0,1,1,0,5Zm-12.53,0h-1.26a2.51,2.51,0,0,1,0-5h1.26a2.51,2.51,0,1,1,0,5Zm-12.54,0h-1.25a2.51,2.51,0,1,1,0-5h1.25a2.51,2.51,0,1,1,0,5Zm-12.53,0H514a2.51,2.51,0,0,1,0-5h1.26a2.51,2.51,0,0,1,0,5Zm-12.54,0h-1.25a2.51,2.51,0,1,1,0-5h1.25a2.51,2.51,0,1,1,0,5Zm-12.53,0H489a2.51,2.51,0,0,1,0-5h1.26a2.51,2.51,0,0,1,0,5Zm-12.54,0h-1.25a2.51,2.51,0,1,1,0-5h1.25a2.51,2.51,0,1,1,0,5Zm-12.53,0h-1.26a2.51,2.51,0,1,1,0-5h1.26a2.51,2.51,0,0,1,0,5Zm-12.54,0h-1.25a2.51,2.51,0,1,1,0-5h1.25a2.51,2.51,0,1,1,0,5Zm-12.54,0h-1.25a2.51,2.51,0,1,1,0-5h1.25a2.51,2.51,0,1,1,0,5Zm-12.53,0h-1.25a2.51,2.51,0,1,1,0-5h1.25a2.51,2.51,0,1,1,0,5Zm-12.54,0h-1.25a2.51,2.51,0,1,1,0-5H415a2.51,2.51,0,1,1,0,5Zm-12.53,0H401.2a2.51,2.51,0,0,1,0-5h1.26a2.51,2.51,0,0,1,0,5Zm-12.54,0h-1.25a2.51,2.51,0,1,1,0-5h1.25a2.51,2.51,0,1,1,0,5Zm-12.53,0h-1.26a2.51,2.51,0,0,1,0-5h1.26a2.51,2.51,0,0,1,0,5Zm-12.54,0H363.6a2.51,2.51,0,1,1,0-5h1.25a2.51,2.51,0,1,1,0,5Zm-12.53,0h-1.26a2.51,2.51,0,0,1,0-5h1.26a2.51,2.51,0,0,1,0,5Zm-12.54,0h-1.25a2.51,2.51,0,1,1,0-5h1.25a2.51,2.51,0,1,1,0,5Zm-12.54,0H326a2.51,2.51,0,1,1,0-5h1.25a2.51,2.51,0,1,1,0,5Zm-12.53,0h-1.25a2.51,2.51,0,1,1,0-5h1.25a2.51,2.51,0,1,1,0,5Zm-12.54,0h-1.25a2.51,2.51,0,1,1,0-5h1.25a2.51,2.51,0,1,1,0,5Zm-12.53,0h-1.26a2.51,2.51,0,0,1,0-5h1.26a2.51,2.51,0,1,1,0,5Zm-12.54,0h-1.25a2.51,2.51,0,1,1,0-5h1.25a2.51,2.51,0,1,1,0,5Zm-12.53,0h-1.26a2.51,2.51,0,0,1,0-5h1.26a2.51,2.51,0,0,1,0,5Zm-12.54,0h-1.25a2.51,2.51,0,1,1,0-5H252a2.51,2.51,0,1,1,0,5Zm-12.53,0h-1.26a2.51,2.51,0,0,1,0-5h1.26a2.51,2.51,0,0,1,0,5Zm-12.54,0h-1.25a2.51,2.51,0,1,1,0-5H227a2.51,2.51,0,1,1,0,5Zm-12.53,0h-1.26a2.51,2.51,0,1,1,0-5h1.26a2.51,2.51,0,0,1,0,5Zm-12.54,0h-1.25a2.51,2.51,0,1,1,0-5h1.25a2.51,2.51,0,1,1,0,5Zm-12.54,0H188.1a2.51,2.51,0,1,1,0-5h1.25a2.51,2.51,0,1,1,0,5Zm-12.53,0h-1.25a2.51,2.51,0,1,1,0-5h1.25a2.51,2.51,0,1,1,0,5Zm-12.54,0H163a2.51,2.51,0,1,1,0-5h1.25a2.51,2.51,0,1,1,0,5Zm-12.53,0h-1.26a2.51,2.51,0,0,1,0-5h1.26a2.51,2.51,0,1,1,0,5Zm-12.54,0H138a2.51,2.51,0,1,1,0-5h1.25a2.51,2.51,0,1,1,0,5Zm-12.53,0h-1.26a2.51,2.51,0,0,1,0-5h1.26a2.51,2.51,0,0,1,0,5Zm-12.54,0h-1.25a2.51,2.51,0,1,1,0-5h1.25a2.51,2.51,0,1,1,0,5Zm-12.53,0h-1.26a2.51,2.51,0,0,1,0-5h1.26a2.51,2.51,0,0,1,0,5Zm-12.54,0H87.82a2.51,2.51,0,1,1,0-5h1.25a2.51,2.51,0,1,1,0,5Zm-12.53,0H75.28a2.51,2.51,0,1,1,0-5h1.26a2.51,2.51,0,0,1,0,5Zm-12.54,0H62.75a2.51,2.51,0,1,1,0-5H64a2.51,2.51,0,1,1,0,5Zm-12.54,0H50.21a2.51,2.51,0,1,1,0-5h1.25a2.51,2.51,0,1,1,0,5Zm-12.53,0H37.68a2.51,2.51,0,1,1,0-5h1.25a2.51,2.51,0,1,1,0,5Zm-12.47-.79a2.22,2.22,0,0,1-.57-.07q-.66-.15-1.32-.33a2.51,2.51,0,1,1,1.34-4.83l1.11.28a2.51,2.51,0,0,1-.56,5Zm951-1.17a2.5,2.5,0,0,1-.88-4.85l1.06-.43a2.51,2.51,0,1,1,1.95,4.62l-1.25.5A2.48,2.48,0,0,1,977.42,162.69Zm-962.28-4a2.5,2.5,0,0,1-1.48-.49l-1.08-.82a2.51,2.51,0,0,1,3.13-3.92l.92.7a2.51,2.51,0,0,1-1.49,4.53ZM988,156.06a2.5,2.5,0,0,1-1.74-4.31l.82-.82a2.51,2.51,0,0,1,3.61,3.48c-.31.32-.63.64-1,1A2.47,2.47,0,0,1,988,156.06ZM6.79,149.43a2.52,2.52,0,0,1-2.16-1.23c-.23-.39-.45-.78-.66-1.18a2.51,2.51,0,0,1,4.41-2.38l.57,1a2.51,2.51,0,0,1-.88,3.43A2.47,2.47,0,0,1,6.79,149.43ZM995,145.83a2.6,2.6,0,0,1-1-.2,2.51,2.51,0,0,1-1.33-3.29c.16-.36.3-.71.43-1.07a2.51,2.51,0,0,1,4.7,1.77c-.16.43-.34.85-.51,1.26A2.51,2.51,0,0,1,995,145.83ZM2.75,137.66a2.5,2.5,0,0,1-2.48-2.19q-.09-.67-.15-1.35a2.51,2.51,0,0,1,5-.43c0,.38.07.77.12,1.15a2.5,2.5,0,0,1-2.17,2.8Zm994.74-4a2.5,2.5,0,0,1-2.5-2.51v-1.25a2.51,2.51,0,1,1,5,0v1.25A2.51,2.51,0,0,1,997.49,133.62Zm-995-8.48A2.51,2.51,0,0,1,0,122.63v-1.25a2.51,2.51,0,1,1,5,0v1.25A2.51,2.51,0,0,1,2.51,125.14Zm995-4a2.51,2.51,0,0,1-2.5-2.51v-1.26a2.51,2.51,0,0,1,5,0v1.26A2.51,2.51,0,0,1,997.49,121.09Zm-995-8.49A2.51,2.51,0,0,1,0,110.09v-1.25a2.51,2.51,0,1,1,5,0v1.25A2.5,2.5,0,0,1,2.51,112.6Zm995-4A2.5,2.5,0,0,1,995,106v-1.25a2.51,2.51,0,1,1,5,0V106A2.51,2.51,0,0,1,997.49,108.55Zm-995-8.48A2.51,2.51,0,0,1,0,97.56V96.3a2.51,2.51,0,0,1,5,0v1.26A2.51,2.51,0,0,1,2.51,100.07Zm995-4.06a2.5,2.5,0,0,1-2.5-2.5V92.25a2.51,2.51,0,0,1,5,0v1.26A2.5,2.5,0,0,1,997.49,96Zm-995-8.48A2.51,2.51,0,0,1,0,85V83.77a2.51,2.51,0,1,1,5,0V85A2.5,2.5,0,0,1,2.51,87.53Zm995-4A2.5,2.5,0,0,1,995,81V79.72a2.51,2.51,0,1,1,5,0V81A2.51,2.51,0,0,1,997.49,83.48ZM2.51,75A2.5,2.5,0,0,1,0,72.49V71.23a2.51,2.51,0,0,1,5,0v1.26A2.5,2.5,0,0,1,2.51,75Zm995-4a2.5,2.5,0,0,1-2.5-2.5V67.18a2.51,2.51,0,0,1,5,0v1.26A2.5,2.5,0,0,1,997.49,70.94Zm-995-8.48A2.51,2.51,0,0,1,0,60V58.7a2.51,2.51,0,1,1,5,0V60A2.5,2.5,0,0,1,2.51,62.46Zm995-4.05A2.5,2.5,0,0,1,995,55.9V54.65a2.51,2.51,0,1,1,5,0V55.9A2.51,2.51,0,0,1,997.49,58.41Zm-995-8.49A2.5,2.5,0,0,1,0,47.42V46.16a2.51,2.51,0,0,1,5,0v1.26A2.5,2.5,0,0,1,2.51,49.92Zm995-4.05a2.5,2.5,0,0,1-2.5-2.5V42.11a2.51,2.51,0,1,1,5,0v1.26A2.5,2.5,0,0,1,997.49,45.87Zm-995-8.48A2.51,2.51,0,0,1,0,34.88V33.63a2.51,2.51,0,1,1,5,0v1.25A2.5,2.5,0,0,1,2.51,37.39Zm994.87-4a2.5,2.5,0,0,1-2.49-2.29l-.12-1.15a2.5,2.5,0,1,1,5-.62c.06.44.1.89.14,1.34a2.5,2.5,0,0,1-2.28,2.71ZM4.47,25.09A2.51,2.51,0,0,1,2.12,21.7c.16-.43.33-.85.5-1.26a2.51,2.51,0,0,1,4.62,1.95c-.15.35-.29.71-.42,1.07A2.52,2.52,0,0,1,4.47,25.09Zm989.4-3.69a2.53,2.53,0,0,1-2.22-1.32c-.18-.34-.37-.68-.56-1a2.51,2.51,0,1,1,4.33-2.53l.66,1.18a2.5,2.5,0,0,1-2.21,3.68ZM11.1,14.55a2.5,2.5,0,0,1-1.81-4.24q.46-.49,1-1A2.51,2.51,0,0,1,13.72,13q-.41.39-.81.81A2.51,2.51,0,0,1,11.1,14.55Zm974.82-2.73a2.5,2.5,0,0,1-1.57-.55l-.91-.7a2.51,2.51,0,1,1,3-4q.54.4,1.08.84a2.5,2.5,0,0,1,.37,3.52A2.47,2.47,0,0,1,985.92,11.82ZM21.34,7.47a2.5,2.5,0,0,1-1-4.81c.41-.18.83-.35,1.25-.51a2.51,2.51,0,0,1,1.78,4.69l-1.07.43A2.42,2.42,0,0,1,21.34,7.47ZM974.85,6.14a2.71,2.71,0,0,1-.68-.09c-.36-.11-.74-.2-1.11-.29A2.51,2.51,0,0,1,974.2.88c.45.1.89.22,1.32.34a2.51,2.51,0,0,1-.67,4.92ZM962.42,5h-1.26a2.51,2.51,0,1,1,0-5h1.26a2.51,2.51,0,0,1,0,5ZM949.88,5h-1.25a2.51,2.51,0,1,1,0-5h1.25a2.51,2.51,0,1,1,0,5ZM937.34,5h-1.25a2.51,2.51,0,1,1,0-5h1.25a2.51,2.51,0,1,1,0,5ZM924.81,5h-1.25a2.51,2.51,0,1,1,0-5h1.25a2.51,2.51,0,1,1,0,5ZM912.27,5H911a2.51,2.51,0,1,1,0-5h1.25a2.51,2.51,0,1,1,0,5ZM899.74,5h-1.26a2.51,2.51,0,0,1,0-5h1.26a2.51,2.51,0,1,1,0,5ZM887.2,5H886a2.51,2.51,0,1,1,0-5h1.25a2.51,2.51,0,1,1,0,5ZM874.67,5h-1.26a2.51,2.51,0,0,1,0-5h1.26a2.51,2.51,0,0,1,0,5ZM862.13,5h-1.25a2.51,2.51,0,1,1,0-5h1.25a2.51,2.51,0,1,1,0,5ZM849.6,5h-1.26a2.51,2.51,0,0,1,0-5h1.26a2.51,2.51,0,0,1,0,5ZM837.06,5h-1.25a2.51,2.51,0,1,1,0-5h1.25a2.51,2.51,0,1,1,0,5ZM824.53,5h-1.26a2.51,2.51,0,1,1,0-5h1.26a2.51,2.51,0,0,1,0,5ZM812,5h-1.25a2.51,2.51,0,1,1,0-5H812a2.51,2.51,0,1,1,0,5ZM799.45,5H798.2a2.51,2.51,0,1,1,0-5h1.25a2.51,2.51,0,1,1,0,5ZM786.92,5h-1.25a2.51,2.51,0,1,1,0-5h1.25a2.51,2.51,0,1,1,0,5ZM774.38,5h-1.25a2.51,2.51,0,1,1,0-5h1.25a2.51,2.51,0,1,1,0,5ZM761.85,5h-1.26a2.51,2.51,0,0,1,0-5h1.26a2.51,2.51,0,0,1,0,5ZM749.31,5h-1.25a2.51,2.51,0,1,1,0-5h1.25a2.51,2.51,0,1,1,0,5ZM736.78,5h-1.26a2.51,2.51,0,0,1,0-5h1.26a2.51,2.51,0,0,1,0,5ZM724.24,5H723a2.51,2.51,0,1,1,0-5h1.25a2.51,2.51,0,1,1,0,5ZM711.71,5h-1.26a2.51,2.51,0,0,1,0-5h1.26a2.51,2.51,0,0,1,0,5ZM699.17,5h-1.25a2.51,2.51,0,1,1,0-5h1.25a2.51,2.51,0,1,1,0,5ZM686.63,5h-1.25a2.51,2.51,0,1,1,0-5h1.25a2.51,2.51,0,1,1,0,5ZM674.1,5h-1.25a2.51,2.51,0,1,1,0-5h1.25a2.51,2.51,0,1,1,0,5ZM661.56,5h-1.25a2.51,2.51,0,1,1,0-5h1.25a2.51,2.51,0,1,1,0,5ZM649,5h-1.26a2.51,2.51,0,0,1,0-5H649a2.51,2.51,0,1,1,0,5ZM636.49,5h-1.25a2.51,2.51,0,1,1,0-5h1.25a2.51,2.51,0,1,1,0,5ZM624,5H622.7a2.51,2.51,0,0,1,0-5H624a2.51,2.51,0,0,1,0,5ZM611.42,5h-1.25a2.51,2.51,0,1,1,0-5h1.25a2.51,2.51,0,1,1,0,5ZM598.89,5h-1.26a2.51,2.51,0,0,1,0-5h1.26a2.51,2.51,0,0,1,0,5ZM586.35,5H585.1a2.51,2.51,0,1,1,0-5h1.25a2.51,2.51,0,1,1,0,5ZM573.82,5h-1.26a2.51,2.51,0,1,1,0-5h1.26a2.51,2.51,0,0,1,0,5ZM561.28,5H560a2.51,2.51,0,1,1,0-5h1.25a2.51,2.51,0,1,1,0,5ZM548.74,5h-1.25a2.51,2.51,0,1,1,0-5h1.25a2.51,2.51,0,1,1,0,5ZM536.21,5H535a2.51,2.51,0,0,1,0-5h1.26a2.51,2.51,0,1,1,0,5ZM523.67,5h-1.25a2.51,2.51,0,1,1,0-5h1.25a2.51,2.51,0,1,1,0,5ZM511.14,5h-1.26a2.51,2.51,0,0,1,0-5h1.26a2.51,2.51,0,0,1,0,5ZM498.6,5h-1.25a2.51,2.51,0,1,1,0-5h1.25a2.51,2.51,0,1,1,0,5ZM486.07,5h-1.26a2.51,2.51,0,0,1,0-5h1.26a2.51,2.51,0,0,1,0,5ZM473.53,5h-1.25a2.51,2.51,0,1,1,0-5h1.25a2.51,2.51,0,1,1,0,5ZM461,5h-1.26a2.51,2.51,0,1,1,0-5H461a2.51,2.51,0,0,1,0,5ZM448.46,5h-1.25a2.51,2.51,0,1,1,0-5h1.25a2.51,2.51,0,1,1,0,5ZM435.93,5h-1.26a2.51,2.51,0,1,1,0-5h1.26a2.51,2.51,0,0,1,0,5ZM423.39,5h-1.25a2.51,2.51,0,1,1,0-5h1.25a2.51,2.51,0,1,1,0,5ZM410.85,5H409.6a2.51,2.51,0,1,1,0-5h1.25a2.51,2.51,0,1,1,0,5ZM398.32,5h-1.25a2.51,2.51,0,1,1,0-5h1.25a2.51,2.51,0,1,1,0,5ZM385.78,5h-1.25a2.51,2.51,0,1,1,0-5h1.25a2.51,2.51,0,1,1,0,5ZM373.25,5H372a2.51,2.51,0,0,1,0-5h1.26a2.51,2.51,0,0,1,0,5ZM360.71,5h-1.25a2.51,2.51,0,1,1,0-5h1.25a2.51,2.51,0,1,1,0,5ZM348.18,5h-1.26a2.51,2.51,0,0,1,0-5h1.26a2.51,2.51,0,0,1,0,5ZM335.64,5h-1.25a2.51,2.51,0,1,1,0-5h1.25a2.51,2.51,0,1,1,0,5ZM323.11,5h-1.26a2.51,2.51,0,0,1,0-5h1.26a2.51,2.51,0,0,1,0,5ZM310.57,5h-1.25a2.51,2.51,0,1,1,0-5h1.25a2.51,2.51,0,1,1,0,5ZM298,5h-1.25a2.51,2.51,0,1,1,0-5H298a2.51,2.51,0,1,1,0,5ZM285.5,5h-1.25a2.51,2.51,0,1,1,0-5h1.25a2.51,2.51,0,1,1,0,5ZM273,5h-1.25a2.51,2.51,0,1,1,0-5H273a2.51,2.51,0,1,1,0,5ZM260.43,5h-1.26a2.51,2.51,0,0,1,0-5h1.26a2.51,2.51,0,1,1,0,5ZM247.89,5h-1.25a2.51,2.51,0,1,1,0-5h1.25a2.51,2.51,0,1,1,0,5ZM235.36,5H234.1a2.51,2.51,0,0,1,0-5h1.26a2.51,2.51,0,0,1,0,5ZM222.82,5h-1.25a2.51,2.51,0,1,1,0-5h1.25a2.51,2.51,0,1,1,0,5ZM210.29,5H209a2.51,2.51,0,0,1,0-5h1.26a2.51,2.51,0,0,1,0,5ZM197.75,5H196.5a2.51,2.51,0,1,1,0-5h1.25a2.51,2.51,0,1,1,0,5ZM185.22,5H184a2.51,2.51,0,1,1,0-5h1.26a2.51,2.51,0,0,1,0,5ZM172.68,5h-1.25a2.51,2.51,0,1,1,0-5h1.25a2.51,2.51,0,1,1,0,5ZM160.14,5h-1.25a2.51,2.51,0,1,1,0-5h1.25a2.51,2.51,0,1,1,0,5ZM147.61,5h-1.25a2.51,2.51,0,1,1,0-5h1.25a2.51,2.51,0,1,1,0,5ZM135.07,5h-1.25a2.51,2.51,0,1,1,0-5h1.25a2.51,2.51,0,1,1,0,5ZM122.54,5h-1.26a2.51,2.51,0,0,1,0-5h1.26a2.51,2.51,0,1,1,0,5ZM110,5h-1.25a2.51,2.51,0,1,1,0-5H110a2.51,2.51,0,1,1,0,5ZM97.47,5H96.21a2.51,2.51,0,0,1,0-5h1.26a2.51,2.51,0,0,1,0,5ZM84.93,5H83.68a2.51,2.51,0,1,1,0-5h1.25a2.51,2.51,0,1,1,0,5ZM72.4,5H71.14a2.51,2.51,0,0,1,0-5H72.4a2.51,2.51,0,0,1,0,5ZM59.86,5H58.61a2.51,2.51,0,1,1,0-5h1.25a2.51,2.51,0,1,1,0,5ZM47.33,5H46.07a2.51,2.51,0,1,1,0-5h1.26a2.51,2.51,0,0,1,0,5ZM34.79,5H33.54a2.51,2.51,0,1,1,0-5h1.25a2.51,2.51,0,1,1,0,5Z"/><path class="cls-1" d="M239.81,92.64v22.61H225V92.45l-24.7-41H216l17,28.35,17.05-28.35h14.49Z"/><path class="cls-1" d="M260.7,90.72c0-14.77,11.39-25.25,27-25.25s26.9,10.48,26.9,25.25S303.27,116,287.68,116,260.7,105.49,260.7,90.72Zm39.47,0c0-8.48-5.38-13.58-12.49-13.58s-12.58,5.1-12.58,13.58,5.47,13.59,12.58,13.59S300.17,99.2,300.17,90.72Z"/><path class="cls-1" d="M373.48,66.2v49.05H360v-5.84A19.84,19.84,0,0,1,344.76,116c-12.31,0-21-6.93-21-22.07V66.2H338V91.82c0,8.2,3.65,11.85,9.94,11.85,6.57,0,11.31-4.2,11.31-13.22V66.2Z"/><path class="cls-1" d="M417.15,65.47V78.6c-1.18-.1-2.09-.19-3.19-.19-7.84,0-13,4.29-13,13.68v23.16H386.7v-49h13.59v6.47C403.75,67.93,409.59,65.47,417.15,65.47Z"/><path class="cls-1" d="M452.81,51.43h14.77v51.78h32v12H452.81Z"/><path class="cls-1" d="M502.86,90.72c0-14.77,11.4-25.25,27-25.25S556.74,76,556.74,90.72,545.44,116,529.85,116,502.86,105.49,502.86,90.72Zm39.48,0c0-8.48-5.38-13.58-12.49-13.58s-12.58,5.1-12.58,13.58,5.47,13.59,12.58,13.59S542.34,99.2,542.34,90.72Z"/><path class="cls-1" d="M616.83,66.2V107c0,18.24-9.85,26.62-27.53,26.62-9.3,0-18.33-2.28-24.07-6.74l5.65-10.21c4.19,3.37,11,5.56,17.32,5.56,10,0,14.41-4.56,14.41-13.41v-2.09c-3.74,4.1-9.12,6.11-15.5,6.11-13.59,0-24.53-9.39-24.53-23.71s10.94-23.7,24.53-23.7c6.84,0,12.49,2.28,16.23,7V66.2Zm-14,23c0-7.2-5.38-12-12.86-12S577,82,577,89.17s5.47,12,12.94,12S602.79,96.37,602.79,89.17Z"/><path class="cls-1" d="M626.41,90.72c0-14.77,11.39-25.25,27-25.25s26.9,10.48,26.9,25.25S669,116,653.39,116,626.41,105.49,626.41,90.72Zm39.47,0c0-8.48-5.38-13.58-12.49-13.58s-12.58,5.1-12.58,13.58,5.47,13.59,12.58,13.59S665.88,99.2,665.88,90.72Z"/><path class="cls-1" d="M775.11,51.43v63.82H760.34V89.08h-29v26.17H716.58V51.43h14.77V76.59h29V51.43Z"/><path class="cls-1" d="M837,94.73h-37.1c1.36,6.11,6.56,9.85,14,9.85a16.62,16.62,0,0,0,12.3-4.74l7.57,8.2c-4.56,5.2-11.4,7.94-20.24,7.94-17,0-28-10.67-28-25.26s11.22-25.25,26.17-25.25c14.4,0,25.53,9.66,25.53,25.43C837.3,92,837.11,93.55,837,94.73Zm-37.29-8.29h24.16a11.65,11.65,0,0,0-12-10.21C805.38,76.23,800.74,80.15,799.73,86.44Z"/><path class="cls-1" d="M877.23,65.47V78.6c-1.18-.1-2.1-.19-3.19-.19-7.84,0-13,4.29-13,13.68v23.16H846.78v-49h13.59v6.47C863.83,67.93,869.66,65.47,877.23,65.47Z"/><path class="cls-1" d="M933,94.73h-37.1c1.36,6.11,6.56,9.85,14,9.85a16.62,16.62,0,0,0,12.3-4.74l7.57,8.2c-4.56,5.2-11.39,7.94-20.24,7.94-17,0-28-10.67-28-25.26s11.22-25.25,26.17-25.25c14.4,0,25.53,9.66,25.53,25.43C933.31,92,933.12,93.55,933,94.73Zm-37.29-8.29H919.9a11.65,11.65,0,0,0-12-10.21C901.4,76.23,896.75,80.15,895.74,86.44Z"/><circle class="cls-1" cx="113.8" cy="83.25" r="44.27"/></g></g></svg>