<svg xmlns="http://www.w3.org/2000/svg" viewBox="0 0 38 38"><defs><style>.cls-1{fill:none;}</style></defs><title>calender_icon_38</title><g id="Layer_2" data-name="Layer 2"><g id="Layer_1-2" data-name="Layer 1"><path d="M10,24.53a5.74,5.74,0,0,0,4,1.64c1.75,0,2.72-.75,2.72-1.86s-.88-1.7-2.89-1.7c-.61,0-1.58,0-1.8,0V20c.26,0,1.25,0,1.8,0,1.59,0,2.65-.52,2.65-1.6s-1.16-1.73-2.68-1.73a5.24,5.24,0,0,0-3.67,1.52L8.64,16.25A7.11,7.11,0,0,1,14.15,14c3.37,0,5.44,1.52,5.44,3.91a3.53,3.53,0,0,1-3.15,3.29,3.61,3.61,0,0,1,3.37,3.46c0,2.48-2.23,4.23-5.68,4.23a7.2,7.2,0,0,1-5.69-2.31Z"/><path d="M25.08,18.13l-2.4,2.45-1.75-1.84,4.54-4.56h2.68V28.59H25.08Z"/><path class="cls-1" d="M22,9V7H16V9H8V7H7a3,3,0,0,0-3,3V31a3,3,0,0,0,3,3H31a3,3,0,0,0,3-3V10a3,3,0,0,0-3-3H30V9Z"/><path d="M31,3H30V7h1a3,3,0,0,1,3,3V31a3,3,0,0,1-3,3H7a3,3,0,0,1-3-3V10A3,3,0,0,1,7,7H8V3H7a7,7,0,0,0-7,7V31a7,7,0,0,0,7,7H31a7,7,0,0,0,7-7V10A7,7,0,0,0,31,3Z"/><rect x="16" y="3" width="6" height="4"/><rect x="10" width="4" height="10" rx="2"/><rect x="24" width="4" height="10" rx="2"/></g></g></svg>