<svg width="500" height="373" viewBox="0 0 500 373" fill="none" xmlns="http://www.w3.org/2000/svg">
<path d="M500 327.4H0V327.65H500V327.4Z" fill="#EBEBEB"/>
<path d="M449.9 336.92H359V337.17H449.9V336.92Z" fill="#EBEBEB"/>
<path d="M331.22 334.21H306.33V334.46H331.22V334.21Z" fill="#EBEBEB"/>
<path d="M388.11 346.21H349.52V346.46H388.11V346.21Z" fill="#EBEBEB"/>
<path d="M75.1 344.53H52.46V344.78H75.1V344.53Z" fill="#EBEBEB"/>
<path d="M110.89 344.53H84V344.78H110.89V344.53Z" fill="#EBEBEB"/>
<path d="M225.15 340.31H178.31V340.56H225.15V340.31Z" fill="#EBEBEB"/>
<path d="M237 282.8H43.91C40.76 282.79 38.21 280.24 38.21 277.09V5.66C38.24 2.53 40.78 0.01 43.91 0H237C240.15 0 242.71 2.56 242.71 5.71V277.09C242.71 280.24 240.15 282.8 237 282.8ZM43.91 0.2C40.9 0.21 38.46 2.65 38.46 5.66V277.09C38.46 280.1 40.9 282.54 43.91 282.55H237C240.01 282.54 242.45 280.1 242.46 277.09V5.66C242.45 2.65 240.01 0.21 237 0.2H43.91V0.2Z" fill="#EBEBEB"/>
<path d="M453.31 282.8H260.21C257.06 282.79 254.51 280.24 254.5 277.09V5.66C254.53 2.53 257.08 0.01 260.21 0H453.31C456.44 0.01 458.97 2.53 459 5.66V277.09C459 280.24 456.46 282.79 453.31 282.8ZM260.21 0.2C257.2 0.21 254.76 2.65 254.75 5.66V277.09C254.76 280.1 257.2 282.54 260.21 282.55H453.31C456.32 282.54 458.76 280.1 458.77 277.09V5.66C458.76 2.65 456.32 0.21 453.31 0.2H260.21V0.2Z" fill="#EBEBEB"/>
<path d="M172.01 62.98H52.4502V327.39H172.01V62.98Z" fill="#F0F0F0"/>
<path d="M166.35 62.98H52.46V327.39H166.35V62.98Z" fill="#F5F5F5"/>
<path d="M160.35 68.9902H58.46V321.4H160.35V68.9902Z" fill="#F0F0F0"/>
<path d="M91.3804 188H70.6104C69.1404 187.99 67.9504 186.8 67.9404 185.33C67.9504 183.86 69.1404 182.67 70.6104 182.66H91.3804C92.8504 182.67 94.0404 183.86 94.0504 185.33C94.0404 186.8 92.8504 187.99 91.3804 188Z" fill="white"/>
<path d="M60.02 68.9902H58.46V321.4H60.02V68.9902Z" fill="#F0F0F0"/>
<path d="M245.83 245.18H228.03V322.38H245.83V245.18Z" fill="#F0F0F0"/>
<path d="M242.41 322.39H154.63V327.28H242.41V322.39Z" fill="#F0F0F0"/>
<path d="M228.03 245.19H151.21V322.39H228.03V245.19Z" fill="#F5F5F5"/>
<path d="M221.02 254.69H158.2V280.01H221.02V254.69Z" fill="#F0F0F0"/>
<path d="M221.02 287.56H158.2V312.88H221.02V287.56Z" fill="#F0F0F0"/>
<path d="M182.56 256.82H196.67C197.62 256.81 198.39 256.04 198.4 255.09C198.4 254.13 197.63 253.36 196.67 253.35H182.56C181.6 253.36 180.83 254.13 180.83 255.09C180.84 256.04 181.61 256.81 182.56 256.82Z" fill="#F5F5F5"/>
<path d="M182.56 289.7H196.67C197.61 289.69 198.38 288.94 198.4 288C198.39 287.05 197.62 286.28 196.67 286.27H182.56C181.61 286.28 180.84 287.05 180.83 288C180.85 288.94 181.62 289.69 182.56 289.7Z" fill="#F5F5F5"/>
<path d="M195.47 243.67C194.74 243.66 194.16 243.08 194.15 242.35V202.24C194.15 201.51 194.74 200.92 195.47 200.92C196.2 200.93 196.78 201.51 196.79 202.24V242.35C196.78 243.08 196.2 243.66 195.47 243.67Z" fill="#F5F5F5"/>
<path d="M207.82 242.11H183.12V245.22H207.82V242.11Z" fill="#F0F0F0"/>
<path d="M202.31 219.67C201.95 219.67 201.66 219.38 201.65 219.02V199C201.66 198.64 201.95 198.35 202.31 198.34C202.67 198.35 202.96 198.64 202.97 199V219C202.98 219.36 202.68 219.66 202.32 219.67H202.31Z" fill="#F0F0F0"/>
<path d="M176.26 205.9C176.26 205.9 176.75 187 195.47 187C214.19 187 214.67 205.88 214.67 205.88L176.26 205.9Z" fill="#F0F0F0"/>
<path d="M338.31 232.6C338.84 232.6 339.38 232.6 339.92 232.65C351.36 233.48 360.44 242.6 361.21 254.04C361.37 256.55 361.12 259.08 360.47 261.51C357.96 271.27 356.75 281.32 356.87 291.4V320.74C356.88 322.87 355.16 324.59 353.03 324.6C353.02 324.6 353.01 324.6 353 324.6H259.87V232.6H338.31V232.6Z" fill="#F0F0F0"/>
<path d="M236.92 255.55C236.96 242.88 247.26 232.64 259.93 232.68C272.6 232.72 282.84 243.02 282.8 255.69C282.79 257.67 282.53 259.64 282.02 261.55C279.52 271.31 278.31 281.36 278.43 291.44V320.78C278.43 322.91 276.71 324.63 274.58 324.63H274.57H245.16C243.03 324.63 241.31 322.91 241.31 320.78V289.68C241.39 280.23 240.2 270.81 237.75 261.68C237.2 259.68 236.92 257.62 236.92 255.55Z" fill="#F5F5F5"/>
<path d="M375.1 268.74H291.49V324.6H375.1V268.74Z" fill="#F0F0F0"/>
<path d="M444.2 281.38H332.29V195.71C332.29 186.12 340.06 178.35 349.65 178.35H426.84C436.43 178.35 444.2 186.12 444.2 195.71V281.38V281.38Z" fill="#E0E0E0"/>
<path d="M422.33 281.38H310.42V194.87C310.42 185.74 317.82 178.34 326.95 178.34H405.76C414.89 178.34 422.29 185.74 422.29 194.87V281.38H422.33Z" fill="#F5F5F5"/>
<path d="M369.64 286.39H292.57C289.81 286.39 287.57 284.15 287.57 281.39V268.72C287.57 265.96 289.81 263.72 292.57 263.72H369.64C370.47 263.72 371.15 264.4 371.15 265.23V284.89C371.14 285.72 370.47 286.39 369.64 286.39Z" fill="#E0E0E0"/>
<path d="M452.45 232.6C452.98 232.6 453.51 232.6 454.06 232.65C465.49 233.48 474.57 242.6 475.34 254.04C475.51 256.55 475.26 259.08 474.6 261.51C472.09 271.28 470.88 281.33 471 291.41V320.75C471 322.88 469.28 324.6 467.15 324.6H467.14H374V232.6H452.45V232.6Z" fill="#F0F0F0"/>
<path d="M351.06 255.55C350.97 242.88 361.18 232.54 373.84 232.46C386.05 232.38 396.18 241.87 396.9 254.05C397.06 256.56 396.81 259.09 396.16 261.52C393.65 271.28 392.44 281.33 392.56 291.41V320.75C392.56 322.88 390.84 324.6 388.71 324.6H359.29C357.16 324.6 355.44 322.88 355.44 320.75V289.68C355.52 280.23 354.33 270.81 351.89 261.68C351.34 259.68 351.06 257.62 351.06 255.55Z" fill="#F5F5F5"/>
<path d="M261.5 327.4H450.81C452.35 327.4 453.6 326.15 453.6 324.61V324.6H258.71C258.7 326.14 259.95 327.39 261.49 327.4C261.49 327.4 261.5 327.4 261.5 327.4Z" fill="#E0E0E0"/>
<path d="M434.51 46.46H373.62V112.87H434.51V46.46Z" fill="#E0E0E0"/>
<path d="M432.46 46.46H369.99V112.87H432.46V46.46Z" fill="#F5F5F5"/>
<path d="M427.22 51.6899H375.21V107.64H427.22V51.6899Z" fill="white"/>
<path d="M401.22 65.52L415.44 90.16H387L401.22 65.52Z" fill="#F5F5F5"/>
<path d="M349.09 85.23H288.2V151.64H349.09V85.23Z" fill="#E0E0E0"/>
<path d="M347.04 85.23H284.57V151.64H347.04V85.23Z" fill="#F5F5F5"/>
<path d="M341.8 90.46H289.79V146.41H341.8V90.46Z" fill="white"/>
<path d="M309.44 128.41L303.27 117.72C301.25 114.21 302.46 109.72 305.97 107.7C307.08 107.06 308.34 106.72 309.63 106.72H322C326.06 106.73 329.35 110.02 329.34 114.08C329.34 115.36 329 116.61 328.37 117.72L322.2 128.41C320.18 131.93 315.69 133.16 312.17 131.14C311.03 130.49 310.09 129.55 309.44 128.41Z" fill="#F5F5F5"/>
<path d="M250 372.56C357.083 372.56 443.89 367.492 443.89 361.24C443.89 354.988 357.083 349.92 250 349.92C142.918 349.92 56.1104 354.988 56.1104 361.24C56.1104 367.492 142.918 372.56 250 372.56Z" fill="#F5F5F5"/>
<path d="M316.5 44.2998H85.9805L101.15 358.24H331.67L316.5 44.2998Z" fill="#407BFF"/>
<path opacity="0.2" d="M316.5 44.2998H85.9805L101.15 358.24H331.67L316.5 44.2998Z" fill="black"/>
<path d="M318.63 44.2998H88.1104L103.29 358.24H333.81L318.63 44.2998Z" fill="#407BFF"/>
<path opacity="0.2" d="M306.46 54.8599H98.6504L113.17 344.05L293.87 343.81L323.9 317.19L306.46 54.8599Z" fill="black"/>
<path d="M308.05 54.8496C310.27 141.46 317.26 227.87 329 313.71C312.53 325.04 296.15 336.38 279.85 347.71H124.43C109.76 250.72 101.15 152.91 98.6504 54.8496H308.05V54.8496Z" fill="white"/>
<path d="M329.001 313.71C312.531 325.04 296.151 336.38 279.851 347.71C283.411 332.71 287.121 317.71 290.981 302.71L329.001 313.71Z" fill="#EBEBEB"/>
<path d="M155.001 81.31C155.391 91.9 155.851 102.49 156.381 113.09H124.611C124.081 102.49 123.621 91.9 123.231 81.31H155.001ZM158.241 77.96H119.761C120.211 90.78 120.761 103.61 121.431 116.44H159.921C159.251 103.61 158.701 90.79 158.241 77.96Z" fill="#407BFF"/>
<path d="M284.821 93.2396H176.001C175.901 90.8496 175.811 88.4496 175.721 86.0596H284.531C284.621 88.4496 284.721 90.8496 284.821 93.2396Z" fill="#E0E0E0"/>
<path d="M261.831 108.34H176.671C176.561 105.94 176.441 103.55 176.341 101.16H261.491C261.601 103.55 261.721 105.95 261.831 108.34Z" fill="#E0E0E0"/>
<path d="M158.12 143.55C158.79 154.15 159.53 164.75 160.35 175.35H128.57C127.75 164.75 127.01 154.15 126.34 143.55H158.12ZM161.26 140.2H122.78C123.57 153.03 124.46 165.87 125.47 178.7H164C163 165.87 162.1 153.04 161.3 140.2H161.26Z" fill="#407BFF"/>
<path d="M219.401 155.49H179.401C179.241 153.09 179.071 150.7 178.921 148.3H218.921C219.071 150.7 219.231 153.09 219.401 155.49Z" fill="#E0E0E0"/>
<path d="M257.271 155.49H227.861C227.701 153.09 227.531 150.7 227.381 148.3H256.791C256.941 150.7 257.101 153.09 257.271 155.49Z" fill="#E0E0E0"/>
<path d="M275.731 170.6H180.501C180.321 168.2 180.151 165.81 179.971 163.41H275.201C275.381 165.81 275.551 168.2 275.731 170.6Z" fill="#E0E0E0"/>
<path d="M162.891 205.82C163.841 216.42 164.871 227.02 165.971 237.62H134.191C133.091 227.02 132.061 216.42 131.111 205.82H162.891ZM165.951 202.47H127.461C128.591 215.31 129.831 228.15 131.181 240.98H169.671C168.341 228.14 167.101 215.3 165.951 202.47Z" fill="#407BFF"/>
<path d="M294.101 225.69H185.271L185.991 232.87H294.821L294.101 225.69Z" fill="#E0E0E0"/>
<path d="M269.001 210.58H183.841C184.061 212.97 184.281 215.37 184.511 217.76H269.661C269.441 215.37 269.211 213 269.001 210.58Z" fill="#E0E0E0"/>
<path d="M169.321 268.09C170.561 278.69 171.871 289.29 173.251 299.88H141.471C140.091 289.29 138.781 278.7 137.541 268.09H169.321ZM172.321 264.74H133.801C135.271 277.58 136.851 290.41 138.551 303.23H177.001C175.311 290.41 173.731 277.58 172.251 264.74H172.321Z" fill="#407BFF"/>
<path d="M300.09 280H191.26C190.97 277.6 190.68 275.21 190.4 272.81H299.22C299.51 275.24 299.79 277.63 300.09 280Z" fill="#E0E0E0"/>
<path d="M242.69 295.13H193.15C192.84 292.74 192.54 290.34 192.24 287.95H241.78C242.08 290.34 242.38 292.74 242.69 295.13Z" fill="#E0E0E0"/>
<path d="M272.271 295.13H250.881C250.571 292.74 250.271 290.34 249.971 287.95H271.361C271.661 290.34 272.001 292.74 272.271 295.13Z" fill="#E0E0E0"/>
<path d="M141.001 108.55L139.591 106.31C136.511 101.41 130.231 97.0398 128.061 95.7598L129.681 92.8898C133.941 95.4798 137.741 98.7398 140.941 102.56C145.781 95.9698 152.941 89.1598 162.741 81.8398L164.811 84.5398C154.351 92.3698 147.031 99.5398 142.411 106.44L141.001 108.55Z" fill="#407BFF"/>
<path d="M144.8 170.81L143.33 168.57C140.13 163.67 133.73 159.29 131.53 158.01L133.06 155.14C137.4 157.73 141.29 160.99 144.59 164.82C149.25 158.22 156.22 151.41 165.83 144.08C166.54 144.98 167.26 145.88 167.97 146.79C157.72 154.63 150.59 161.79 146.16 168.7C145.7 169.4 145.25 170.11 144.8 170.81Z" fill="#407BFF"/>
<path d="M150.32 233.24L148.79 231C145.45 226.1 138.93 221.72 136.7 220.45C137.18 219.45 137.7 218.53 138.16 217.58C142.57 220.17 146.54 223.43 149.94 227.25C154.43 220.65 161.22 213.85 170.62 206.51L172.84 209.22C162.84 217.06 155.84 224.22 151.61 231.13L150.32 233.24Z" fill="#407BFF"/>
<path d="M251.131 330.46C245.231 330.46 241.831 328.28 238.831 326.36C235.831 324.44 233.251 322.78 228.271 322.78C223.291 322.78 221.071 324.52 218.721 326.36C216.371 328.2 213.491 330.46 207.591 330.46C201.691 330.46 198.291 328.28 195.301 326.36C192.311 324.44 189.731 322.78 184.741 322.78C179.751 322.78 177.541 324.52 175.191 326.36C172.841 328.2 169.961 330.46 164.071 330.46C158.181 330.46 154.771 328.28 151.771 326.36C148.771 324.44 146.201 322.78 141.211 322.78C141.081 321.78 140.941 320.86 140.811 319.9C146.711 319.9 150.101 322.08 153.101 324C156.101 325.92 158.671 327.58 163.651 327.58C168.631 327.58 170.851 325.84 173.201 324C175.551 322.16 178.441 319.9 184.341 319.9C190.241 319.9 193.621 322.08 196.621 324C199.621 325.92 202.201 327.58 207.181 327.58C212.161 327.58 214.381 325.84 216.731 324C219.081 322.16 221.971 319.9 227.871 319.9C233.771 319.9 237.161 322.08 240.161 324C243.161 325.92 245.731 327.58 250.721 327.58C250.851 328.54 251.001 329.5 251.131 330.46Z" fill="#EBEBEB"/>
<path d="M259.59 52.0698C256.21 43.0698 248.4 37.1598 240 37.1598H222.88C220.27 37.1398 217.93 35.5598 216.93 33.1598C214.46 27.2898 208.73 23.4398 202.36 23.3698C196.17 23.3098 190.65 27.2698 188.74 33.1598C187.96 35.5698 185.7 37.1898 183.17 37.1598H166.06C157.65 37.1598 150.41 43.0998 147.91 52.0698L146.91 55.6398H260.91L259.59 52.0698Z" fill="#263238"/>
<path d="M260.201 59.1599H148.001C146.041 59.1399 144.431 57.5999 144.311 55.6399C144.211 53.7999 145.621 52.2299 147.461 52.1299C147.531 52.1299 147.601 52.1199 147.661 52.1299H259.861C261.821 52.1499 263.431 53.6799 263.551 55.6399C263.651 57.4799 262.251 59.0499 260.421 59.1499C260.341 59.1599 260.271 59.1599 260.201 59.1599Z" fill="#407BFF"/>
<path opacity="0.2" d="M260.201 59.1599H148.001C146.041 59.1399 144.431 57.5999 144.311 55.6399C144.211 53.7999 145.621 52.2299 147.461 52.1299C147.531 52.1299 147.601 52.1199 147.661 52.1299H259.861C261.821 52.1499 263.431 53.6799 263.551 55.6399C263.651 57.4799 262.251 59.0499 260.421 59.1499C260.341 59.1599 260.271 59.1599 260.201 59.1599Z" fill="black"/>
<path d="M360.92 355.23H353.59L352.86 338.26H360.19L360.92 355.23Z" fill="#FFC3BD"/>
<path d="M404.91 355.23H397.58L393.9 338.26H401.22L404.91 355.23Z" fill="#FFC3BD"/>
<path d="M397.06 354.38H405.29C405.59 354.38 405.85 354.59 405.91 354.88L407.36 361.4C407.48 361.98 407.11 362.56 406.52 362.68C406.44 362.7 406.37 362.7 406.29 362.7C403.42 362.65 402.02 362.48 398.4 362.48C396.17 362.48 391.58 362.71 388.51 362.71C385.44 362.71 385.03 359.71 386.29 359.4C391.94 358.16 394.06 356.46 395.87 354.83C396.2 354.54 396.62 354.38 397.06 354.38Z" fill="#263238"/>
<path d="M353.64 354.38H361.64C361.94 354.38 362.2 354.59 362.26 354.88L363.71 361.4C363.84 361.97 363.49 362.54 362.92 362.67C362.85 362.69 362.78 362.69 362.71 362.7C359.82 362.65 355.65 362.48 352.02 362.48C347.78 362.48 344.12 362.71 339.14 362.71C336.14 362.71 335.3 359.71 336.56 359.4C342.29 358.14 346.97 358.01 351.92 354.95C352.43 354.61 353.03 354.41 353.64 354.38Z" fill="#263238"/>
<path d="M368 87.9199C367 93.2799 366.42 99.9199 370.17 103.5C370.17 103.5 368.02 108.94 358.06 108.94C348.96 108.94 353.52 103.5 353.52 103.5C359.52 102.07 359.18 94.6799 358.14 90.4999L368 87.9199Z" fill="#FFC3BD"/>
<path d="M350.66 104.25C350.86 102.92 353.2 101.37 355.86 100.79C358.52 100.21 368.74 98.9202 371.86 100.21C374.98 101.5 371.32 105.32 371.32 105.32L350.66 104.25Z" fill="#407BFF"/>
<path opacity="0.4" d="M350.66 104.25C350.86 102.92 353.2 101.37 355.86 100.79C358.52 100.21 368.74 98.9202 371.86 100.21C374.98 101.5 371.32 105.32 371.32 105.32L350.66 104.25Z" fill="white"/>
<path opacity="0.2" d="M352.86 338.27L353.24 347.01H360.57L360.19 338.27H352.86Z" fill="black"/>
<path opacity="0.2" d="M401.23 338.27H393.9L395.8 347.01H403.13L401.23 338.27Z" fill="black"/>
<path d="M385.35 110.1L376.52 116C376.52 116 389.2 138.55 388.14 142.16C386.69 147.08 384.67 157.83 381.92 163.29C382.28 164.47 384.11 167.16 385.13 167.62C392.13 162.3 399.2 145.62 398.94 140.95C398.33 130.36 385.35 110.1 385.35 110.1Z" fill="#FFC3BD"/>
<path d="M381.92 163.31L374.92 162.77L378.59 170.48C378.59 170.48 384.7 170.75 385.72 166.08L381.92 163.31Z" fill="#B55B52"/>
<path d="M416.52 200.91L415.93 202.02L411.97 209.51L271.39 135.18L275.93 126.58L416.52 200.91Z" fill="#407BFF"/>
<path d="M425.61 183.74L422.71 189.22L421.07 192.32L280.48 117.99L285.02 109.39L425.61 183.74Z" fill="#407BFF"/>
<path d="M280.53 117.956L275.98 126.546L416.515 200.988L421.065 192.398L280.53 117.956Z" fill="#407BFF"/>
<path opacity="0.2" d="M280.53 117.956L275.98 126.546L416.515 200.988L421.065 192.398L280.53 117.956Z" fill="black"/>
<path d="M265.33 110.53L261.24 118.27L271.39 135.18L285.02 109.4L265.33 110.53Z" fill="#407BFF"/>
<path opacity="0.8" d="M265.33 110.53L261.24 118.27L271.39 135.18L285.02 109.4L265.33 110.53Z" fill="white"/>
<path d="M256.89 111.02L261.24 118.27L265.33 110.53L256.89 111.02Z" fill="#407BFF"/>
<path d="M369.29 166.28L372.95 173.1L378.62 170.48L374.95 162.77L369.29 166.28Z" fill="#B55B52"/>
<path d="M383.25 105.16C390.18 106.16 398.12 130.16 398.12 130.16L383.56 138.38C383.56 138.38 377.15 127 374 118.5C370.68 109.61 375.82 104.08 383.25 105.16Z" fill="#263238"/>
<path opacity="0.2" d="M379.22 113.39C376.07 110.51 378 122.84 379.5 130.73C380.27 132.27 381 133.67 381.62 134.84C385.13 128.64 383.56 117.36 379.22 113.39Z" fill="black"/>
<path d="M342.21 105.54C342.21 105.54 333.56 127.66 341.77 168.86H381C381.27 162.86 377.49 133.5 383.29 105.16C378.96 104.32 374.57 103.77 370.17 103.5C364.62 103.18 359.07 103.18 353.52 103.5C349.7 103.88 345.92 104.56 342.21 105.54Z" fill="#263238"/>
<path d="M348.24 115.82L338.36 111.91C338.36 111.91 326.98 135.14 323.36 136.31C318.49 137.91 308.49 142.31 302.43 143.17C301.67 144.17 300.49 147.17 300.68 148.27C309.03 151 326.8 147.38 330.48 144.52C338.92 138 348.24 115.82 348.24 115.82Z" fill="#FFC3BD"/>
<path opacity="0.2" d="M349.35 113.18C347.72 109.42 344.6 107.85 341.35 108.4C340.09 113.01 337.96 123.14 338.35 138.4L340.68 139.52C340.68 139.52 352.14 119.61 349.35 113.18Z" fill="black"/>
<path d="M350.91 110.55C353.37 117.11 340.91 136.41 340.91 136.41L326.25 128.41C328.45 122.41 331.29 116.66 334.72 111.26C339.87 103.57 348.2 103.36 350.91 110.55Z" fill="#263238"/>
<path d="M302.79 143.15L294.07 145L298.49 153.07C300.93 151.86 303.14 150.24 305.04 148.29L302.79 143.15Z" fill="#FFC3BD"/>
<path d="M289.95 146.83L293.43 151.65L298.49 153.11L294.07 145.04L289.95 146.83Z" fill="#FFC3BD"/>
<path d="M350.75 79.1001C351.14 79.1001 351.42 79.6201 351.38 80.2101C351.38 80.8001 351.01 81.2101 350.62 81.2101" fill="#263238"/>
<path d="M351.58 85.8298L351.9 80.2598Z" fill="#ED847E"/>
<path d="M353.09 75.9902C353.28 76.0002 353.43 76.1502 353.44 76.3402C353.44 76.5302 353.28 76.6902 353.09 76.6902C352.23 76.7702 351.45 77.2602 351 78.0002" fill="#263238"/>
<path d="M371.26 79.7C370.4 86.92 370.26 91.18 366.39 94.7C360.56 99.98 351.81 96.15 350.49 88.81C349.31 82.21 350.92 71.52 358.18 69.04C363.36 67.25 369.01 69.99 370.8 75.17C371.3 76.62 371.46 78.17 371.26 79.7Z" fill="#FFC3BD"/>
<path d="M356.71 81.1101C354.18 81.6101 350.14 75.9901 353.44 71.2201C351.77 70.3901 346.32 73.6701 344.27 70.6101C342.22 67.5501 347.91 65.9201 346.82 63.3301C350.68 64.1201 344.32 68.9401 347.99 68.4701C351.66 68.0001 355.89 61.2201 359.99 64.0001C367.24 68.8701 377.12 60.7501 373.09 70.9201C378.03 69.9201 381.41 75.7601 376.7 79.8101C367.31 87.8601 373.09 88.9201 367.14 89.3301C364.16 89.5501 357.23 86.0001 356.71 81.1101Z" fill="#263238"/>
<path d="M360.46 82.9998C359.76 84.4598 358.5 85.5698 356.97 86.0898C354.97 86.7798 353.82 84.9898 354.29 83.0198C354.71 81.2398 356.29 78.7398 358.36 78.9198C359.86 79.0698 360.96 80.3998 360.81 81.8998C360.77 82.2898 360.65 82.6598 360.46 82.9998Z" fill="#FFC3BD"/>
<path d="M355.67 168.86C355.67 168.86 363.99 224.86 368.55 245.86C373.55 268.86 392.38 345.35 392.38 345.35H405.8C405.8 345.35 393.39 270.69 390.53 247.94C387.44 223.26 380.96 168.89 380.96 168.89L355.67 168.86Z" fill="#407BFF"/>
<path opacity="0.2" d="M355.67 168.86C355.67 168.86 363.99 224.86 368.55 245.86C373.55 268.86 392.38 345.35 392.38 345.35H405.8C405.8 345.35 393.39 270.69 390.53 247.94C387.44 223.26 380.96 168.89 380.96 168.89L355.67 168.86Z" fill="white"/>
<path opacity="0.2" d="M365.55 188.44C364.93 187.56 364.37 187.26 363.85 187.44H363.74C363.62 187.49 363.51 187.56 363.41 187.64C363.3 187.73 363.21 187.82 363.12 187.93L362.96 188.13L362.75 188.46C362.58 188.75 362.43 189.06 362.3 189.37C362.22 189.56 362.14 189.76 362.07 189.96C362 190.16 361.89 190.47 361.81 190.75C361.73 191.03 361.58 191.51 361.47 191.92C361.47 192.03 361.42 192.13 361.39 192.24C361.36 192.35 361.28 192.7 361.23 192.93C361.18 193.16 361.14 193.33 361.1 193.53C361.01 193.92 360.93 194.33 360.85 194.75C360.77 195.17 360.68 195.66 360.6 196.13C360.6 196.29 360.55 196.45 360.52 196.62C360.42 197.22 360.33 197.83 360.24 198.46C362.46 212.4 365.1 228.38 367.24 239.53C367.34 239.17 367.45 238.79 367.54 238.38C367.98 236.52 368.31 234.64 368.54 232.74C370.43 218.37 369.56 194.17 365.55 188.44Z" fill="black"/>
<path d="M341.77 168.86C341.77 168.86 340.77 223.64 341.56 245.99C342.39 269.23 350.51 345.32 350.51 345.32H362.92C362.92 345.32 363.37 270.58 363.92 247.76C364.52 222.88 367.52 168.86 367.52 168.86H341.77Z" fill="#407BFF"/>
<path opacity="0.2" d="M341.77 168.86C341.77 168.86 340.77 223.64 341.56 245.99C342.39 269.23 350.51 345.32 350.51 345.32H362.92C362.92 345.32 363.37 270.58 363.92 247.76C364.52 222.88 367.52 168.86 367.52 168.86H341.77Z" fill="white"/>
<path d="M363.74 341.52C363.79 341.52 363.74 345.57 363.74 345.57H349.43L348.83 341.02L363.74 341.52Z" fill="#263238"/>
<path d="M405.8 341.82C405.86 341.82 406.47 345.57 406.47 345.57H391.72L390.42 341.27L405.8 341.82Z" fill="#263238"/>
<path d="M394.64 355.66C394.14 355.7 393.64 355.57 393.23 355.29C392.96 355.07 392.82 354.72 392.87 354.37C392.87 354.17 392.98 353.98 393.16 353.88C393.97 353.47 396.34 354.88 396.61 355.08C396.67 355.12 396.69 355.19 396.68 355.26C396.67 355.33 396.62 355.38 396.55 355.4C395.92 355.56 395.28 355.64 394.64 355.66ZM393.55 354.15C393.47 354.13 393.4 354.13 393.32 354.15C393.25 354.19 393.21 354.27 393.21 354.35C393.18 354.59 393.27 354.82 393.45 354.98C394.27 355.36 395.2 355.41 396.05 355.12C395.29 354.64 394.44 354.31 393.55 354.15Z" fill="#407BFF"/>
<path d="M396.51 355.41C396.48 355.42 396.46 355.42 396.43 355.41C395.67 355 394.21 353.41 394.36 352.58C394.41 352.32 394.64 352.13 394.91 352.13C395.18 352.09 395.45 352.17 395.65 352.35C396.5 353.04 396.65 355.16 396.65 355.25C396.65 355.31 396.62 355.37 396.57 355.41C396.55 355.41 396.53 355.41 396.51 355.41ZM395.03 352.41H395C394.77 352.41 394.75 352.54 394.74 352.59C394.65 353.07 395.58 354.28 396.34 354.85C396.29 354.02 395.98 353.22 395.47 352.56C395.34 352.45 395.17 352.4 395 352.43L395.03 352.41Z" fill="#407BFF"/>
<path d="M350.59 355.66C349.96 355.72 349.33 355.56 348.81 355.21C348.58 355 348.46 354.68 348.49 354.37C348.49 354.18 348.6 354 348.77 353.91C349.66 353.41 352.61 354.91 352.94 355.08C353.01 355.11 353.05 355.19 353.03 355.26C353.02 355.33 352.96 355.39 352.89 355.4C352.13 355.56 351.36 355.65 350.59 355.66ZM349.26 354.15C349.15 354.15 349.04 354.17 348.94 354.21C348.87 354.25 348.83 354.32 348.83 354.4C348.8 354.61 348.88 354.81 349.04 354.95C349.49 355.35 350.7 355.42 352.32 355.15C351.36 354.65 350.33 354.31 349.26 354.15Z" fill="#407BFF"/>
<path d="M352.86 355.41H352.79C351.9 355.01 350.15 353.41 350.29 352.6C350.29 352.41 350.46 352.16 350.93 352.12C351.29 352.07 351.65 352.17 351.93 352.41C352.86 353.18 353.05 355.15 353.06 355.24C353.07 355.3 353.04 355.36 352.99 355.39C352.95 355.41 352.9 355.42 352.86 355.41ZM351.07 352.41H351C350.69 352.41 350.67 352.56 350.66 352.61C350.58 353.1 351.77 354.35 352.66 354.89C352.57 354.05 352.22 353.26 351.66 352.63C351.49 352.5 351.28 352.43 351.07 352.43V352.41Z" fill="#407BFF"/>
</svg>
