<?xml version="1.0" encoding="utf-8"?>
<!-- Generator: Adobe Illustrator 25.3.1, SVG Export Plug-In . SVG Version: 6.00 Build 0)  -->
<svg version="1.1" id="Layer_1" xmlns="http://www.w3.org/2000/svg" xmlns:xlink="http://www.w3.org/1999/xlink" x="0px" y="0px"
	 viewBox="250 250 290 120" style="enable-background:new 0 0 792 612;" xml:space="preserve">
<style type="text/css">
	.st0{fill:#0033A1;}
</style>
<path class="st0" d="M528.25,315.57c-1.8,0-3.06-1.25-3.06-3.12c0-1.86,1.28-3.14,3.06-3.14c1.81,0,3.06,1.27,3.06,3.14
	C531.3,314.3,530.02,315.57,528.25,315.57z M528.25,309.67c-1.46,0-2.61,1-2.61,2.77c0,1.76,1.16,2.76,2.61,2.76
	c1.47,0,2.62-1,2.62-2.76C530.87,310.67,529.7,309.67,528.25,309.67z M529.15,314.11l-1.04-1.48h-0.34v1.43h-0.6v-3.46h1.05
	c0.73,0,1.21,0.36,1.21,1.01c0,0.5-0.27,0.82-0.7,0.96l1,1.41L529.15,314.11z M528.23,311.14h-0.45v1.02h0.43
	c0.39,0,0.63-0.16,0.63-0.51C528.84,311.31,528.62,311.14,528.23,311.14z"/>
<path class="st0" d="M366.42,277.68l-23.57,37.89h8.01c0,0,5.81-9.43,6.01-9.76h13.52l0.01,9.76l7.61,0v-37.89H366.42z
	 M370.39,299.1h-9.3c0.58-0.92,9.3-15.09,9.3-15.09V299.1z"/>
<rect x="383.4" y="277.68" class="st0" width="7.39" height="37.89"/>
<rect x="396.18" y="277.68" class="st0" width="7.38" height="37.9"/>
<path class="st0" d="M419.82,297.67c-4.02-1.05-4.86-1.64-4.75-3.31c0.09-1.52,1.32-2.39,3.39-2.39c2.55,0,5.68,0.9,8.36,2.41
	l0.42,0.24l1.02-6.32l-0.24-0.11c-2.76-1.26-6.05-1.93-9.56-1.93c-3.38,0-6.24,1.04-8.1,2.93c-1.47,1.51-2.22,3.45-2.18,5.62
	c0.13,5.84,2.91,7.49,9.51,9.19c4.36,1.08,5.25,1.71,5.22,3.79c-0.02,1.87-1.14,2.57-4.11,2.57c-3.1,0-6.6-1.14-9.63-3.13
	l-0.44-0.29l-1.02,6.35l0.22,0.12c2.36,1.3,6.4,2.66,10.66,2.66c4.13,0,7.17-0.98,9.06-2.88c1.47-1.49,2.19-3.51,2.16-6.02
	C429.69,300.89,426.52,299.4,419.82,297.67z"/>
<path class="st0" d="M447.73,309.18l-0.38,0.1c-0.51,0.14-1.15,0.21-2.03,0.21c-2.19,0-3.21-0.99-3.21-3.12c0,0,0-12.76,0-13.42
	c0.61,0,5.42,0,5.42,0l0.1-6.17c0,0-4.91,0-5.52,0c0-0.63,0-9.11,0-9.11h-7.27c0,0,0,8.48,0,9.11c-0.58,0-3.8,0-3.8,0v6.17
	c0,0,3.22,0,3.8,0c0,0.66,0,14.53,0,14.53c0,5.75,3,8.57,9.2,8.57c2,0,3.22-0.23,4.31-0.46l0.33-0.06L447.73,309.18z"/>
<path class="st0" d="M463.46,286.19c-4.6,0-8.07,1.12-10.83,2.2l-0.26,0.1l0.95,6.08l0.41-0.18c3.31-1.46,6.11-2.15,8.85-2.15
	c2.91,0,4.28,1.2,4.28,3.8c0,0,0,0.44,0,0.74c-10.92,1.12-16.23,4.85-16.23,11.39c0,4.83,3.13,7.95,7.99,7.95
	c3.36,0,6.15-1.23,8.72-3.73c0.14,0.84,0.51,3.17,0.51,3.17h6.38v-19.72C474.24,289.27,470.82,286.19,463.46,286.19z M460.91,310.36
	c-1.82,0-2.94-1.11-2.94-2.9c0-3.19,3.07-5.27,8.9-6.05v6.24C465.06,309.41,463,310.36,460.91,310.36z"/>
<path class="st0" d="M493.2,309.18l-0.38,0.1c-0.51,0.14-1.16,0.21-2.02,0.21c-2.2,0-3.23-0.99-3.23-3.12c0,0,0-12.76,0-13.42
	c0.61,0,5.43,0,5.43,0l0.1-6.17c0,0-4.91,0-5.53,0c0-0.63,0-9.11,0-9.11h-7.28c0,0,0,8.48,0,9.11c-0.56,0-3.78,0-3.78,0v6.17
	c0,0,3.22,0,3.78,0c0,0.66,0,14.53,0,14.53c0,5.75,3.02,8.57,9.22,8.57c1.99,0,3.28-0.24,4.31-0.46l0.32-0.06L493.2,309.18z"/>
<path class="st0" d="M518.54,306.97c-3.31,2.29-6.01,3.28-9.07,3.28c-3.97,0-6.43-2.69-6.85-7.36c0.75,0,17.22,0,17.22,0l0.08-1.97
	c0-9.75-4.05-14.71-12.06-14.73c-3.52-0.01-6.4,1.09-8.57,3.27c-2.64,2.63-4.04,6.72-4.04,11.79c0,9.18,5.19,14.87,13.51,14.87
	c4.06,0,7.75-1.13,10.96-3.34l0.18-0.12l-0.9-6.02L518.54,306.97z M502.73,298.02c0.33-4.13,2.13-6.5,4.97-6.5
	c3.82,0,4.83,3.45,4.98,6.5H502.73z"/>
<g>
	<g>
		<g>
			<path class="st0" d="M299.63,264.56c-21.46,0-38.93,13.26-38.93,29.55c0,16.29,17.47,30.59,38.93,30.59
				c21.47,0,38.93-14.29,38.93-30.59C338.56,277.81,321.1,264.56,299.63,264.56z M299.63,322.68c-18.58,0-33.7-13.33-33.7-28.53
				c0-15.2,15.12-27.57,33.7-27.57c18.59,0,33.71,12.37,33.71,27.57C333.34,309.35,318.22,322.68,299.63,322.68z"/>
		</g>
	</g>
	<g>
		<g>
			<g>
				<g>
					<g>
						<defs>
							<path id="SVGID_1_" d="M292.2,306.84l0.67,0.68c0,0.01,1.35,0.75,1.35,0.75l1.28,0.69l0.16,0.09l0.94,0.52l1.58,0.87
								c0.09,0.03,0.29,0.03,0.29,0.03l2.04-0.13c1.17-0.02,2.53,0,3.45,0.42c1,0.52,0.66,1.45,0.66,1.45s1.04-0.74,0.84-1.63
								c-0.1-0.75-1-1.73-3.97-1.91c-0.94-0.06-2.34,0.08-2.34,0.08s-0.12,0-0.13,0c0-0.02-1.33-0.88-1.33-0.88l-0.56-0.32
								c-0.08-0.04-1.84-0.97-1.84-0.97s-1.12-0.44-1.12-0.44l0,0c0-0.03-1-1.43-1-1.43l-0.37-0.52c0,0-1.07-1.54-1.07-1.54
								l-0.46-0.67c-0.03-0.04-0.61-0.94-0.61-0.94c0.05,0.01,0.61-0.84,0.54-1.75c-0.08,0.12-0.14,0.15-0.55,0.51
								c-0.42,0.34-1.67,0.9-2.51,1.12l-0.37,0.1l2.98,3.91L292.2,306.84z M297.09,304.62l0.2,0.26c0.08,0.07,1.34,0.57,1.34,0.57
								c0.84,0.34,1.99,0.87,2.53,1.2l1.42,0.84c0.11,0.05,1.58-0.06,2.54,0.01c1.21,0.1,2.14,0.55,2.63,1.26
								c0.66,0.93-0.14,1.93-0.14,1.93l0,0c0.17-0.09,1.54-0.95,1.44-2.34c-0.09-1.33-1.24-2.57-5.49-2.52
								c0-0.01-1.17-0.69-1.17-0.69l-0.34-0.2l-1.89-0.97c0,0-1.53-0.52-1.54-0.52v0c0-0.05-0.36-0.68-0.36-0.68
								c-0.5-0.9-1.19-1.79-1.79-2.57l-0.18-0.22c0,0-1.05-1.44-1.17-1.63c0.33-0.71,0.05-1.74,0.05-1.74s-0.18,0.34-0.47,0.71
								c-0.29,0.37-1.06,0.98-1.6,1.27l-0.29,0.18l3.86,5.27L297.09,304.62z M298.83,295.19c0.23-0.85-0.21-1.68-0.21-1.68
								l-0.23,0.54c-0.19,0.47-0.7,1-1.5,1.51l-0.24,0.13l3.12,4.46c0,0,0.19,0.29,0.19,0.29l0.6,0.81
								c0.08,0.08,1.31,0.77,1.31,0.77l0.46,0.26l1.41,0.84l1.29,0.86l0.1,0.03l1.92,0.12c1.16,0.1,1.83,0.53,2.18,0.77
								c1.21,0.87,0.56,2.19,0.56,2.19s1.62-1.53,0.56-3.19c-0.4-0.57-0.95-1.13-2.57-1.31c0,0-1.98-0.27-1.99-0.27l0,0
								c0-0.01-1.07-0.74-1.07-0.74l-1.4-0.87l-0.36-0.21l-1.15-0.5L298.83,295.19z M285.86,268.7c0.1,0.1,0.43,0.43,0.43,0.43
								l1.57,1.44c0,0.01,0.9,0.85,0.9,0.85c0.66,0.64,0.82,0.96,0.8,1.09c-0.03,0.12-0.15,0.18-0.27,0.25
								c-0.12,0.07-0.3,0.11-0.3,0.11l-0.07,0.6l0.37-0.02c2.07-0.05,4.03,1.35,5.29,2.55c2.19,2.09,3.85,5.48,4.22,8.65l1.71,8.92
								l0.64,1.37l0.12,0.28l0.28,0.58c0.24,0.58,0.62,1.09,0.65,1.13c0.04,0.04,0.89,0.71,0.89,0.71l1.24,1.27l0.37,0.39l0.59,0.59
								c0.05,0.03,1.79,0.26,1.79,0.26c3.04,0.51,2.91,2.2,2.91,2.2s1.81-2.77-2.51-3.75c0,0-1.36-0.26-1.39-0.26c0,0,0,0,0,0
								c0-0.03-0.49-0.69-0.49-0.69c-0.06-0.06-0.16-0.18-0.16-0.18c-0.03-0.03-1.32-1.3-1.32-1.3l-0.59-0.56
								c0-0.01-0.54-1.45-0.54-1.45l-0.76-1.85c-0.19-0.57-0.32-1.48-0.49-2.73c-0.01-0.05-0.13-0.9-0.13-0.9l-0.57-3.74
								c0.01-0.06,0.13-0.73,0.13-0.73c0.25-1.4,0.77-2.95,1.56-4.62c0.95-1.99,2.91-3.31,2.93-3.32c1.46-0.91,3.61-1.41,4.76-1.62
								c0.44-0.04,0.58-0.3,0.66-0.56l0.05-0.15l-0.15-0.02c-0.64-0.12-1.37-0.33-1.43-0.45c-0.01-0.02-0.02-0.07-0.02-0.11
								c0-0.11,0.08-0.29,0.24-0.52c0.01,0,0.94-0.9,0.94-0.9l0.54-0.54c0,0,2.28-2.21,2.58-2.5l-2.12-0.71
								c-0.28,0.29-2.34,2.43-2.34,2.43c-1.55,1.67-3.3,3.55-4.11,3.88c-1.97,0.8-3.99,2.73-4.78,4.57c0,0.01-0.35,0.91-0.54,1.41
								c-0.6-1.72-1.34-3.14-2.36-4.38c-1.11-1.33-2.48-2.33-4.17-3.02c-0.92-0.87-3.93-3.63-5.57-4.98L285.86,268.7z M293.92,313.7
								c-2.77,1.41-4.31,0.19-3.63-1.3C291.19,313.01,292.59,313.45,293.92,313.7z M289.16,311.59c-1.89,0.52-2.59-0.81-2.14-1.89
								C287.38,310.12,288.71,311.32,289.16,311.59z M272.18,277.8c0.14,0.1,0.52,0.37,0.52,0.37c0.05,0.04,2.4,1.98,2.74,2.27
								c-0.06,0.15-1.02,2.82-1.02,2.82c-0.88,2.23-1.77,4.47-1.82,6.24l0.02,0.29c0.01,0.04,0.77,4.01,0.77,4.01l0.06,0.3
								c0.43,2.08,0.91,4.46,1.11,6.16c0.05,0.48,0.16,0.77,0.35,0.89c1.16,1.2,3.05,3.65,5.33,8.32c0.07,0.12,0.1,0.2,0.14,0.25
								c0.22,0.64,0.49,1.07,0.82,1.28c0.42,0.26,1.21,0.27,1.73,0c1.17-0.76,2-1.84,2.5-3.14c0.18,0.22,0.66,0.85,0.74,0.94
								c-1.97,3.4,1.51,4.67,2.75,4.18c-0.71,2.06,1.92,3.72,4.4,2.62c0.32,1.34,1.38,1.73,2.4,1.92c1.01,0.2,2.37,0.31,4.61,0.11
								c3.36-0.28,6.41-1.3,7.64-1.94c2.59-1.32,4-3,4.84-4.18c0.01-0.03,0.16-0.21,0.26-0.35c0.27,0.49,0.56,0.94,0.89,1.29
								c0.83,0.81,1.6,1.17,2.24,1.05c0.45-0.08,0.8-0.36,1.04-0.88c1.15-2.77,3.67-6.19,5.64-8.48l0,0c0-0.01,0.19-0.37,0.19-0.37
								c0.43-1.63,1.96-5.65,2.78-7.83l0.58-1.57c0-0.01,0.11-0.38,0.11-0.38c0.04-0.62,0.06-1.25,0.06-1.86
								c0-2.8-0.41-5.47-1.17-7.74c-0.37-1.15-0.76-1.84-1.12-2.52l-0.41-0.76c0.56-0.83,2.19-1.93,3.5-2.82c0,0,0.07-0.04,0.1-0.06
								l-1.61-1.76c-0.1,0.07-1.12,0.78-1.12,0.78c-1.17,0.8-2.35,1.12-3.08,0.83c-0.11-0.04-1.08-0.59-1.08-0.59
								c-0.06-0.04-0.23-0.12-0.23-0.12c-0.03-0.01-0.33-0.05-0.33-0.05c-0.04,0-0.36,0.07-0.36,0.07l-0.21,0.05l0.33,0.38
								c0.68,0.81,1.04,1.51,1.54,2.46c0.01,0.02,0.3,0.56,0.3,0.56c0,0,0.28,0.66,0.28,0.66l0.06,0.14l0.37,0.95l0.07,0.2l0.2,0.55
								l0.77,2.72c0.66,2.77,0.99,5.05,1.01,7l0,0c0,0.03-0.03,0.22-0.03,0.22c0,0.01-0.91,2.56-0.91,2.56
								c-0.94,2.65-2.11,5.95-2.38,7.31l-0.06,0.16c-2.51,2.62-4.3,5.71-5.05,7.56c-0.12,0.24-0.2,0.28-0.23,0.28
								c-0.12,0.02-0.41-0.25-0.57-0.39c-0.63-0.57-1.01-1.75-0.96-3c0.06-1.53,0.72-2.9,1.82-3.76c0.18-0.13,0.11-0.39,0.07-0.53
								c-0.31-1.74,0.19-4.41,1.26-5.17l0.28-0.2l-0.27-0.21c-3.08-2.39-4.59-6.8-4.71-10.1l-0.02-0.43l-0.48,0.2
								c-0.06,0.05-0.24,0.32-0.24,0.32c-0.12,0.64-0.17,1.29-0.17,1.92c0,1.69,0.33,3.17,0.46,3.7c0.43,1.82,1.33,3.5,2.65,5.02
								c0,0,0.03,0.03,0.06,0.07c-0.57,0.72-0.83,2.47-0.83,3.82c0,0.41,0.02,0.77,0.07,1.06c-1.44,1.24-1.84,2.82-1.92,3.94
								c0,0,0.05,1.19,0.05,1.21c-0.02-0.03-0.7,0.89-0.7,0.89l-0.14,0.19c-1.37,1.89-2.33,3.2-4.62,4.37
								c-2.49,1.29-7.32,2.19-10.46,1.88c-1.15-0.13-1.03-1.16-1.03-1.21c0-0.14,0.05-0.29,0.16-0.43c0,0,0.23-0.25,0.3-0.32
								c2.97,0.34,5.79-0.03,6.97-0.65c0.05-0.05,0.41-0.58,0.41-0.58l0.14-0.25l-0.29,0.06c-2.52,0.63-7.53-0.2-10.18-1.32
								c-2.95-1.26-3.85-2.45-6.25-5.63l-0.67-0.88c-0.02-0.89-0.26-1.79-0.69-2.56c-0.4-0.72-0.94-1.17-1.09-1.29
								c0.18-0.53,0.29-1.28,0.29-2.06c0-1.07-0.19-2.15-0.57-2.75c1.79-1.4,2.7-2.84,2.67-4.49c-0.02-0.78-0.45-1.98-0.45-1.98
								l-0.69-0.32l0.05,0.45c0.27,2.79-2.33,4.61-4.05,5.81c0,0-0.5,0.35-0.5,0.35l0.33,0.21c1.35,0.84,1.37,3.68,1.06,5.28
								l-0.02,0.09l0.07,0.13l0.08,0.04c-0.01,0,0.65,0.52,0.65,0.52c1.36,1.83,1.25,4.66-0.25,6.32c-0.3,0.32-0.47,0.36-0.55,0.35
								c-0.22-0.05-0.4-0.57-0.45-0.74c-0.01-0.02-0.42-0.87-0.42-0.87c-1.18-2.45-2.16-4.51-4.45-7.24c0-0.01-0.06-0.22-0.06-0.22
								c-0.45-3.58-1-6.23-1.54-8.79l-0.3-1.39c0-0.01-0.04-0.36-0.04-0.36c0.16-2.72,1.01-4.86,1.99-7.33l0.6-1.55l0.49-1.18
								c0.01,0,0.09-0.17,0.09-0.17c0.58-0.83,1.36-1.61,2.3-2.34l0.42-0.32l-0.55-0.23c0,0-1.07,0.12-2.14,0.65l-0.19,0.09
								c-0.78,0.37-1.69,0.65-2.37,0.39c0,0-1.8-1.08-1.89-1.13L272.18,277.8z"/>
						</defs>
						<use xlink:href="#SVGID_1_"  style="overflow:visible;fill:#0033A1;"/>
						<clipPath id="SVGID_2_">
							<use xlink:href="#SVGID_1_"  style="overflow:visible;"/>
						</clipPath>
					</g>
				</g>
			</g>
		</g>
	</g>
</g>
<g>
	<path class="st0" d="M412.56,347.78h-5.44v-18.95h5.52c4.26,0,6.29,1.92,6.29,4.92c0,1.98-1.1,3.27-2.75,3.95
		c2.11,0.66,3.51,2.03,3.51,4.56C419.7,345.99,417.01,347.78,412.56,347.78z M412.45,331.6h-1.84v5.02h1.67
		c2.14,0,3.27-0.96,3.27-2.58C415.55,332.54,414.65,331.6,412.45,331.6z M412.51,339.21h-1.89V345h1.95c2.31,0,3.65-0.96,3.65-2.86
		C416.21,340.22,414.92,339.21,412.51,339.21z"/>
	<path class="st0" d="M422.75,347.78v-18.95h11.01v3.08h-7.41v4.53h5.71l0.49,3.05h-6.21v5.22h7.69v3.08H422.75z"/>
	<path class="st0" d="M449.35,347.78l-8.92-13.04v13.04h-3.38v-18.95h3.43l8.51,12.41v-12.41h3.38v18.95H449.35z"/>
	<path class="st0" d="M456.37,347.78v-18.95h11.01v3.08h-7.41v4.53h5.71l0.49,3.05h-6.21v5.22h7.69v3.08H456.37z"/>
	<path class="st0" d="M474.3,331.99v4.83h5.33l0.52,3.13h-5.85v7.82h-3.62v-18.95h10.6v3.16H474.3z"/>
	<path class="st0" d="M484.29,347.78v-18.95h3.65v18.95H484.29z"/>
	<path class="st0" d="M500.19,331.99v15.79h-3.62v-15.79h-5.71v-3.16h14.72l0.52,3.16H500.19z"/>
	<path class="st0" d="M513.48,348c-2.31,0-4.28-0.52-5.96-1.32l0.55-3.32c1.59,0.93,3.57,1.67,5.46,1.67c1.67,0,2.83-0.8,2.83-2.31
		c0-1.4-0.66-1.98-3.4-3.16c-3.68-1.51-5.16-2.72-5.16-5.66c0-3.35,2.58-5.3,6.12-5.3c2.14,0,3.62,0.44,5,1.15l-0.55,3.29
		c-1.37-0.91-2.99-1.48-4.48-1.48c-1.81,0-2.61,0.88-2.61,2.03c0,1.21,0.6,1.78,3.24,2.88c3.9,1.59,5.33,2.94,5.33,5.88
		C519.85,346.07,517.13,348,513.48,348z"/>
</g>
</svg>
