<?xml version="1.0" encoding="utf-8"?>
<!-- Generator: Adobe Illustrator 22.1.0, SVG Export Plug-In . SVG Version: 6.00 Build 0)  -->
<svg version="1.1" id="Layer_1" xmlns="http://www.w3.org/2000/svg" xmlns:xlink="http://www.w3.org/1999/xlink" x="0px" y="0px"
	 viewBox="0 0 367.5 122.5" style="enable-background:new 0 0 367.5 122.5;" xml:space="preserve">
<style type="text/css">
	.st0{fill:#2CAEE4;}
	.st1{fill:#FAAF40;}
	.st2{fill:#404041;}
</style>
<g>
	<path class="st0" d="M110.9,54.8l-11.2-19c0,0-29,13.6-52.8,33l-23.3,39.6h118.8l-25.5-43.4c0,0-39,31.4-78.7,40.9
		C38.2,105.8,92.7,80.6,110.9,54.8"/>
	<path class="st1" d="M56.8,50.6L83,6L98,31.4C98,31.4,82.8,36,56.8,50.6"/>
	<path class="st1" d="M33.1,116.6c-9.4,0.4-16.1-1.6-18.6-6.4C7.5,96.9,34,65.4,74.4,42.8C91.8,33,109,26.5,123.5,23.3l-1.3,0.1
		c-16.3,1.6-38.2,8.8-60.6,21.3C21.3,67.4-5.2,98.9,1.7,112.1c3.6,6.9,15.6,8.1,32,4.6L33.1,116.6z"/>
	<path class="st2" d="M34.3,107.5c17.6-4.5,28.1-5.4,53.8-19.7c40.3-22.6,66.3-52.7,59.4-66c-3.9-7.5-18.1-9.1-37-5l-1.3,0.1
		c13.1-1.3,22.5,0.9,25.5,6.8c6.9,13.2-18.1,40.3-57.4,64.7C69.6,93.4,49.6,102.5,34.3,107.5"/>
	<path class="st2" d="M200.3,53.8l-2-10.9c-1.4-7.4-2.5-15.3-3.3-23.6c-0.4,4.1-0.9,8.2-1.6,12.4c-0.6,4.2-1.4,8.6-2.3,13.3
		l-1.7,8.7H200.3z M191.5,6h7.1l14.6,68.1h-9.1l-2.6-13.3h-13.5l-2.6,13.3h-8.8L191.5,6z"/>
	<path class="st2" d="M244.1,36.1c3.8,0,6.4-0.8,7.9-2.3c1.5-1.6,2.2-4.3,2.2-8.3c0-4.1-0.7-7-2.1-8.9c-1.4-1.9-3.6-2.8-6.7-2.8
		h-1.3V36.1z M234.9,6H247c5.8,0,10.1,1.5,12.7,4.4c2.6,3,4,7.7,4,14.1c0,9.1-2.7,14.9-8,17.6c-2.7,1.2-6.5,1.8-11.6,1.8v30.2h-9.2
		V6z"/>
	<polygon class="st2" points="287,6 287,74.2 311.4,74.2 311.4,66.4 296.2,66.4 296.2,43.1 309.7,43.1 309.7,35.4 296.2,35.4 
		296.2,13.8 311.4,13.8 311.4,6 	"/>
	<path class="st2" d="M331.4,6h8.9l4.7,13.2c1.9,5.2,3,9,3.3,11.4c0.3-1.5,0.7-3,1.1-4.4c0.4-1.4,0.8-2.8,1.3-4.2l0.6-2l4.4-14h9.3
		l-12.6,33.5L365,74.2h-9.3l-4.5-13c-0.9-2.6-1.6-4.9-2.2-7c-0.6-2.1-1-3.9-1.2-5.5c-0.2,2-0.6,3.9-1.2,5.6l-1.5,4.9l-0.8,2.6
		l-3.9,12.4h-9.7l12.9-34.6L331.4,6z"/>
	<path class="st2" d="M175,86.8h2.5l1.9,8.7c0.2,1.1,0.4,2.2,0.6,3.3c0.2,1.1,0.4,2.2,0.5,3.4c0-0.2,0-0.3,0-0.4c0-0.1,0-0.2,0-0.2
		l0.4-2.5l0.4-2.3l0.3-1.5l1.7-8.6h2.5l2,21.4h-2.8l-0.5-7.3c0-0.4,0-0.7,0-1c0-0.3,0-0.5,0-0.7l-0.1-2.9l-0.1-2.6c0,0,0-0.1,0-0.1
		c0-0.1,0-0.1,0-0.2l-0.1,0.4c-0.1,0.5-0.1,1-0.2,1.3c-0.1,0.4-0.1,0.7-0.2,1l-0.4,2l-0.1,0.7l-1.8,9.3h-1.9l-1.7-8.1
		c-0.2-1.1-0.4-2.1-0.6-3.2c-0.2-1.1-0.3-2.2-0.5-3.4l-0.8,14.8h-2.7L175,86.8z"/>
	<path class="st2" d="M196,101.8l-0.6-3.4c-0.4-2.3-0.8-4.8-1-7.4c-0.1,1.3-0.3,2.6-0.5,3.9c-0.2,1.3-0.4,2.7-0.7,4.2l-0.5,2.7H196z
		 M193.3,86.8h2.2l4.6,21.4h-2.9l-0.8-4.2h-4.2l-0.8,4.2h-2.8L193.3,86.8z"/>
	<path class="st2" d="M201.8,86.8h2.7l2.9,8.5c0.8,2.4,1.6,5,2.2,7.7c-0.2-1.7-0.4-3.2-0.5-4.5c-0.1-1.3-0.2-2.6-0.2-3.8v-8h2.9
		v21.4h-2.7l-3.2-9.6c-0.3-0.9-0.6-1.8-0.8-2.8c-0.3-0.9-0.5-1.9-0.7-3c0-0.1,0-0.3-0.1-0.5c0-0.2-0.1-0.4-0.1-0.6
		c0,0.2,0.1,0.4,0.1,0.6c0,0.2,0,0.3,0,0.4l0.2,2.2l0.2,2.6c0,0.1,0,0.3,0,0.5c0,0.2,0,0.5,0,0.7l0.2,9.3h-2.8V86.8z"/>
	<path class="st2" d="M221.3,101.8l-0.6-3.4c-0.4-2.3-0.8-4.8-1-7.4c-0.1,1.3-0.3,2.6-0.5,3.9c-0.2,1.3-0.4,2.7-0.7,4.2l-0.5,2.7
		H221.3z M218.5,86.8h2.2l4.6,21.4h-2.9l-0.8-4.2h-4.2l-0.8,4.2h-2.8L218.5,86.8z"/>
	<path class="st2" d="M232.1,97h5.2v0.8c0,4.2-0.4,7-1.1,8.4c-0.7,1.5-2.1,2.2-4,2.2c-2,0-3.5-0.8-4.4-2.5c-0.9-1.7-1.3-4.5-1.3-8.4
		c0-4.5,0.5-7.5,1.4-9c0.9-1.4,2.3-2.1,4.1-2.1c1.4,0,2.5,0.3,3.3,1c0.8,0.7,1.4,1.8,1.9,3.4l-2.7,1.1c-0.1-0.6-0.3-1-0.4-1.4
		c-0.1-0.4-0.3-0.7-0.5-0.9c-0.4-0.4-0.9-0.7-1.6-0.7c-1,0-1.6,0.6-2,1.8c-0.4,1.2-0.5,3.5-0.5,6.7c0,3.2,0.2,5.4,0.5,6.6
		c0.4,1.1,1,1.7,2,1.7c0.9,0,1.6-0.4,1.9-1.2c0.4-0.9,0.6-2.3,0.6-4.2v-0.6v-0.4h-2.5V97z"/>
	<polygon class="st2" points="240.2,86.8 247.9,86.8 247.9,89.3 243.1,89.3 243.1,96.1 247.4,96.1 247.4,98.5 243.1,98.5 
		243.1,105.8 247.9,105.8 247.9,108.2 240.2,108.2 	"/>
	<path class="st2" d="M251.6,86.8h2.5l1.9,8.7c0.2,1.1,0.4,2.2,0.6,3.3c0.2,1.1,0.4,2.2,0.5,3.4c0-0.2,0-0.3,0-0.4
		c0-0.1,0-0.2,0-0.2l0.4-2.5l0.4-2.3l0.3-1.5l1.7-8.6h2.5l2,21.4h-2.8l-0.5-7.3c0-0.4,0-0.7,0-1c0-0.3,0-0.5,0-0.7l-0.1-2.9
		l-0.1-2.6c0,0,0-0.1,0-0.1c0-0.1,0-0.1,0-0.2l-0.1,0.4c-0.1,0.5-0.1,1-0.2,1.3c-0.1,0.4-0.1,0.7-0.2,1l-0.4,2l-0.1,0.7l-1.8,9.3
		h-1.9l-1.7-8.1c-0.2-1.1-0.4-2.1-0.6-3.2c-0.2-1.1-0.3-2.2-0.5-3.4l-0.8,14.8h-2.7L251.6,86.8z"/>
	<polygon class="st2" points="266.7,86.8 274.4,86.8 274.4,89.3 269.6,89.3 269.6,96.1 273.9,96.1 273.9,98.5 269.6,98.5 
		269.6,105.8 274.4,105.8 274.4,108.2 266.7,108.2 	"/>
	<path class="st2" d="M277.1,86.8h2.7l2.9,8.5c0.8,2.4,1.6,5,2.2,7.7c-0.2-1.7-0.4-3.2-0.5-4.5c-0.1-1.3-0.2-2.6-0.2-3.8v-8h2.9
		v21.4h-2.7l-3.2-9.6c-0.3-0.9-0.6-1.8-0.8-2.8c-0.3-0.9-0.5-1.9-0.7-3c0-0.1,0-0.3-0.1-0.5c0-0.2-0.1-0.4-0.1-0.6
		c0,0.2,0.1,0.4,0.1,0.6c0,0.2,0,0.3,0,0.4l0.2,2.2l0.2,2.6c0,0.1,0,0.3,0,0.5c0,0.2,0,0.5,0,0.7l0.2,9.3h-2.8V86.8z"/>
	<polygon class="st2" points="288.6,86.8 298,86.8 298,89.4 294.8,89.4 294.8,108.2 292,108.2 292,89.4 288.6,89.4 	"/>
	<path class="st2" d="M310.6,97h5.2v0.8c0,4.2-0.4,7-1.1,8.4c-0.7,1.5-2.1,2.2-4,2.2c-2,0-3.5-0.8-4.4-2.5c-0.9-1.7-1.3-4.5-1.3-8.4
		c0-4.5,0.5-7.5,1.4-9c0.9-1.4,2.3-2.1,4.1-2.1c1.4,0,2.5,0.3,3.3,1c0.8,0.7,1.4,1.8,1.9,3.4l-2.7,1.1c-0.1-0.6-0.3-1-0.4-1.4
		c-0.1-0.4-0.3-0.7-0.5-0.9c-0.4-0.4-0.9-0.7-1.6-0.7c-1,0-1.6,0.6-2,1.8c-0.4,1.2-0.5,3.5-0.5,6.7c0,3.2,0.2,5.4,0.5,6.6
		c0.4,1.1,1,1.7,2,1.7c0.9,0,1.6-0.4,1.9-1.2c0.4-0.9,0.6-2.3,0.6-4.2v-0.6v-0.4h-2.5V97z"/>
	<path class="st2" d="M321.6,96.3c1.1,0,1.9-0.3,2.4-0.8c0.5-0.5,0.7-1.4,0.7-2.6c0-0.7,0-1.2-0.1-1.7c-0.1-0.5-0.3-0.9-0.5-1.2
		s-0.5-0.5-0.8-0.7c-0.3-0.1-0.7-0.2-1.2-0.2h-0.5V96.3z M318.7,86.8h3.8c1.6,0,2.7,0.4,3.5,1.1c1,1,1.5,2.5,1.5,4.5
		c0,1.5-0.3,2.8-0.8,3.7c-0.5,0.9-1.2,1.5-2.2,1.7l3.9,10.4h-2.9l-3.9-10.5v10.5h-2.9V86.8z"/>
	<path class="st2" d="M338.2,98.4c0-3.7-0.2-6.2-0.5-7.4c-0.3-1.2-1-1.8-2-1.8c-1,0-1.7,0.6-2.1,1.7c-0.3,1.1-0.5,3.4-0.5,6.8
		c0,3.1,0.2,5.3,0.5,6.5c0.4,1.1,1,1.7,2,1.7c1,0,1.6-0.5,2-1.6C338,103.2,338.2,101.2,338.2,98.4 M341.2,98.1
		c0,3.8-0.4,6.5-1.3,8.1c-0.8,1.6-2.3,2.4-4.2,2.4c-2.1,0-3.5-0.9-4.4-2.6c-0.8-1.7-1.3-4.6-1.3-8.9c0-3.8,0.4-6.5,1.2-8.1
		c0.8-1.6,2.3-2.4,4.3-2.4c1.8,0,3.1,0.6,4,1.8c0.6,0.8,1,2,1.2,3.5C341.1,93.3,341.2,95.4,341.2,98.1"/>
	<path class="st2" d="M344,86.8h2.8V102c0,1.5,0.1,2.6,0.4,3.1c0.3,0.5,0.9,0.8,1.7,0.8c0.8,0,1.4-0.2,1.7-0.7
		c0.3-0.5,0.4-1.4,0.4-2.8V86.8h2.8v15.5c0,2.3-0.4,3.9-1.1,4.7c-0.9,0.9-2.2,1.4-3.9,1.4c-1.9,0-3.3-0.6-4.1-1.8
		c-0.5-0.8-0.8-2.4-0.8-4.7V86.8z"/>
	<path class="st2" d="M360.1,96.3c1.2,0,2-0.2,2.5-0.7c0.5-0.5,0.7-1.4,0.7-2.6c0-1.3-0.2-2.2-0.7-2.8c-0.4-0.6-1.1-0.9-2.1-0.9
		h-0.4V96.3z M357.2,86.8h3.8c1.8,0,3.2,0.5,4,1.4c0.8,0.9,1.2,2.4,1.2,4.4c0,2.8-0.8,4.7-2.5,5.5c-0.8,0.4-2.1,0.6-3.6,0.6v9.5
		h-2.9V86.8z"/>
</g>
</svg>
