<?xml version="1.0" encoding="utf-8"?>
<!-- Generator: Adobe Illustrator 24.0.1, SVG Export Plug-In . SVG Version: 6.00 Build 0)  -->
<svg version="1.1" id="layer" xmlns="http://www.w3.org/2000/svg" xmlns:xlink="http://www.w3.org/1999/xlink" x="0px" y="0px"
	 viewBox="0 0 623.8 204.2" style="enable-background:new 0 0 623.8 204.2;" xml:space="preserve">
<style type="text/css">
	.st0{fill:#007CC6;}
	.st1{fill:#EF8200;}
	.st2{fill:#31AC28;}
</style>
<g>
	<path class="st0" d="M66.2,86.1c5.3,0,39.9,15.2,39.9,70c0,26.2-8.8,48-14,48c-2.3,0-3.2-2.3-3.2-6.7c0-9.7,3.4-18.3,3.4-39
		c0-39.9-16.4-56.1-23.8-65.1c-2.2-2.7-3.8-4.4-3.8-6C64.7,86.7,65.1,86.1,66.2,86.1 M153.3,87.4c0,1.6-1.6,3.3-3.8,6
		c-7.4,9.1-23.8,25.2-23.8,65.1c0,20.7,3.4,29.3,3.4,39c0,4.4-0.9,6.7-3.2,6.7c-5.2,0-14-21.8-14-48c0-54.8,34.6-70,39.9-70
		C152.8,86.1,153.3,86.7,153.3,87.4"/>
	<path class="st1" d="M96.4,97.1c0,7.1,5.7,12.9,12.6,12.9c7,0,12.6-5.8,12.6-12.9c0-7.2-5.7-12.9-12.6-12.9
		C102,84.1,96.4,89.9,96.4,97.1"/>
	<path class="st2" d="M43.4,76.6c-6.6-3-11.5-9-12.3-14.8c4.9-3.2,12.6-3.5,19.2-0.5c6.9,3.1,8.5,8.4,8.6,13.1
		C55.4,77.5,50.3,79.7,43.4,76.6 M62.3,41.8c-4.2-6.5-5.2-14.8-2.6-20.5C66,21.2,73.1,25.5,77.4,32c4.4,6.8,2.8,12.5,0.2,16.8
		C72.6,49.4,66.8,48.6,62.3,41.8 M72.2,76.3C67,71.9,64,65.1,64.8,59.6c5.3-1.7,12.4,0.1,17.6,4.6c5.5,4.7,5.6,9.9,4.4,14.1
		C82.8,80.2,77.7,80.9,72.2,76.3 M88.2,59.6c-2.3-7.3-1-15.3,3-20c6,1.6,11.5,7.6,13.8,14.8c2.4,7.6-0.7,12.6-4.3,15.8
		C95.8,69.6,90.5,67.2,88.2,59.6 M60.6,112.8c-5.2,1-10.7-0.5-13.7-3.6c1.6-4,6.1-7.5,11.3-8.5c5.5-1.1,8.7,1.4,10.7,4.2
		C68.1,108.2,66.1,111.7,60.6,112.8 M46.8,97.3c-5.9-0.6-11.3-4.1-13.5-8.4c3-3.8,9-6,15-5.3c6.2,0.7,8.9,4.4,10.1,8
		C56.4,94.9,53.1,98,46.8,97.3 M46.3,53.2c-4.7-4-7.3-9.9-6.6-14.8c4.7-1.5,11,0.1,15.7,4.1c4.9,4.1,5,8.8,3.9,12.6
		C55.8,56.7,51.2,57.4,46.3,53.2 M78.1,21.9c-1.9-6.1-0.8-12.8,2.5-16.7c5,1.3,9.6,6.3,11.5,12.4c2,6.4-0.6,10.5-3.6,13.2
		C84.4,30.2,80,28.2,78.1,21.9 M0,179.3c0,0.2,0.1,0.3,0.3,0.3c0.2,0,0.5-0.2,0.9-0.3c18.6-6.7,46.2-14.9,84.8-17.4
		c0-0.3,0.3-2.1,0.3-3.4c0-2.8-0.3-5.7-0.4-6.2C46.3,155.9,19,167.4,1,178.4C0.4,178.9,0,179,0,179.3 M159.1,74.4
		c0-4.6,1.7-9.9,8.6-13.1c6.6-3,14.3-2.7,19.2,0.5c-0.8,5.8-5.7,11.8-12.3,14.8C167.6,79.7,162.6,77.5,159.1,74.4 M140.4,48.7
		c-2.7-4.2-4.3-9.9,0.2-16.8c4.2-6.5,11.4-10.8,17.7-10.7c2.6,5.7,1.6,14-2.6,20.5C151.2,48.6,145.3,49.4,140.4,48.7 M131.1,78.3
		c-1.2-4.2-1.1-9.5,4.4-14.1c5.2-4.4,12.3-6.2,17.6-4.6c0.8,5.5-2.2,12.2-7.4,16.7C140.3,80.9,135.1,80.2,131.1,78.3 M117.3,70.3
		c-3.6-3.3-6.7-8.2-4.3-15.8c2.3-7.3,7.8-13.2,13.8-14.8c4,4.7,5.3,12.7,3,20C127.4,67.2,122.1,69.6,117.3,70.3 M149,104.9
		c2-2.8,5.2-5.2,10.7-4.2c5.2,1,9.8,4.5,11.3,8.5c-2.9,3.1-8.4,4.6-13.7,3.6C151.9,111.7,149.8,108.2,149,104.9 M159.6,91.6
		c1.2-3.6,3.9-7.4,10.1-8c5.9-0.6,12,1.5,15,5.3c-2.1,4.3-7.5,7.8-13.5,8.4C164.9,98,161.5,94.9,159.6,91.6 M158.6,55
		c-1-3.8-1-8.4,3.9-12.6c4.7-3.9,11-5.5,15.7-4.1c0.7,4.9-1.9,10.9-6.6,14.8C166.8,57.4,162.2,56.7,158.6,55 M129.5,30.8
		c-3-2.7-5.6-6.9-3.6-13.2c1.9-6.1,6.5-11,11.5-12.4c3.3,3.9,4.4,10.6,2.5,16.7C137.9,28.2,133.5,30.2,129.5,30.8 M216.9,178.4
		c-18-11-45.3-22.5-84.9-26.1c-0.1,0.5-0.4,3.4-0.4,6.2c0,1.3,0.2,3,0.3,3.4c38.6,2.5,66.2,10.7,84.8,17.4c0.4,0.1,0.7,0.3,0.9,0.3
		s0.3-0.1,0.3-0.3C217.9,179,217.6,178.9,216.9,178.4 M109,37.1c-5.1-2.4-10.2-6.8-10.2-16C98.8,12.3,103,3.8,109,0
		c6,3.8,10.2,12.3,10.2,21.1C119.2,30.3,114.1,34.8,109,37.1"/>
	<path class="st0" d="M319,59.9c0,5.9,4.9,10.6,10.9,10.6s10.8-4.8,10.8-10.6c0-5.9-4.9-10.6-10.8-10.6
		C323.9,49.3,319,54.1,319,59.9 M403.7,116c0,16.8-6.6,23.8-16.1,23.8c-9.6,0-15-8.1-15-22.4c0-14.6,8.3-26.6,23.8-26.6
		c3.2,0,5.4,0.3,7.3,0.8L403.7,116L403.7,116z M404.6,143.6v5.5c0,15-9.2,20.8-20.7,20.8c-10.3,0-17.9-3.1-20.3-3.9v14.8
		c2,0.5,10.3,3.2,22.2,3.2c21.2,0,35.3-8.7,35.3-38.7V80.7c-2.7-0.7-12.7-3.3-24.1-3.3c-29.7,0-42.5,19.9-42.5,41.4
		c0,19.8,10,35.3,29,35.3c12.6,0,18.6-7.6,20.6-10.4L404.6,143.6L404.6,143.6z M303.6,134.4c-4.8,2.2-12.4,3.7-19.8,3.7
		c-20.1,0-35-14.4-35-36.4c0-21.8,14.7-36.4,35-36.4c10,0,17.2,2.4,19.8,3.7V53.3c-4.4-1.6-11.5-3.3-21.6-3.3
		c-31.3,0-52.3,21.6-52.3,51.6c0,28.4,19.3,51.6,52.3,51.6c9.6,0,16.9-1.5,21.6-3.3V134.4z M568.8,116c0,16.8-6.6,23.8-16.1,23.8
		c-9.6,0-15-8.1-15-22.4c0-14.6,8.4-26.6,23.8-26.6c3.1,0,5.4,0.3,7.3,0.8V116z M588.5,152.3c-0.6-4.1-2.2-14.9-2.2-24.2V80.5
		c-2.7-0.7-12.7-3.3-24.1-3.3c-29.7,0-42.5,19.9-42.5,41.4c0,19.8,9.9,35.3,29,35.3c13.9,0,20.2-9,22.6-13.8h0.4
		c0.2,2.3,0.8,10,1,12.2H588.5z M338.6,79.1h-17.5v73.2h17.5V79.1z M441,152.3v-50.7c0-6.8-0.6-19.8-0.8-22.8h15.7l0.8,10.3h0.3
		c1.8-2.9,7.7-12,21.5-12c16.6,0,25.8,12.2,25.8,27.4v47.8h-17.5V108c0-9.3-5.2-16.4-14.1-16.4c-9.2,0-14.1,7.4-14.1,16.4v44.3H441z
		"/>
	<path class="st0" d="M615.8,138.9c-0.5-0.3-1.2-0.4-2.3-0.4h-1.6v3.9h1.7c0.8,0,1.4-0.1,1.8-0.2c0.7-0.3,1.1-0.8,1.1-1.7
		C616.5,139.7,616.2,139.2,615.8,138.9 M613.7,137.2c1.3,0,2.3,0.1,2.9,0.4c1.1,0.5,1.7,1.4,1.7,2.7c0,1-0.4,1.7-1,2.1
		c-0.4,0.2-0.9,0.4-1.5,0.5c0.8,0.1,1.5,0.5,1.8,1c0.4,0.6,0.6,1.1,0.6,1.7v0.8c0,0.2,0,0.5,0,0.8s0,0.5,0.1,0.6l0.1,0.1h-1.8v-0.1
		v-0.1v-0.3v-0.8c0-1.2-0.3-2.1-1-2.4c-0.4-0.2-1.1-0.3-2.1-0.3H612v4.2h-1.9v-10.7h3.6V137.2z M608,136.7c-1.6,1.6-2.4,3.6-2.4,5.9
		s0.8,4.3,2.4,6c1.6,1.6,3.6,2.5,5.9,2.5c2.3,0,4.3-0.8,5.9-2.5c1.6-1.6,2.4-3.6,2.4-6c0-2.3-0.8-4.3-2.4-5.9
		c-1.6-1.6-3.6-2.5-5.9-2.5S609.6,135,608,136.7 M620.8,149.5c-1.9,1.9-4.2,2.9-6.9,2.9s-5-1-6.9-2.9s-2.8-4.2-2.8-6.9
		c0-2.7,1-5,2.9-6.9s4.2-2.8,6.9-2.8s5,1,6.9,2.8c1.9,1.9,2.9,4.2,2.9,6.9C623.7,145.3,622.7,147.6,620.8,149.5"/>
</g>
</svg>
