<svg id="Layer_1" data-name="Layer 1" xmlns="http://www.w3.org/2000/svg" viewBox="0 0 119.58806 25.72555"><defs><style>.cls-1{fill:#eb0029;}.cls-2{fill:#fff;}.cls-3{fill:#231f20;}</style></defs><title>HPHC_logo</title><path class="cls-1" d="M25.27422,1.67642A50.531,50.531,0,0,0,.13254,1.75119a50.44457,50.44457,0,0,0,.22382,9.74353c1.532,7.84933,6.30051,11.83984,12.34727,14.35577,6.06462-2.516,10.8568-6.54938,12.34679-14.35577a47.987,47.987,0,0,0,.22382-9.8183" transform="translate(0.00472 -0.12495)"/><path class="cls-2" d="M20.68945,7.93686H18.4581v2.36691L20.662,10.23v.01352l.0275-.001v4.38843H18.45811v-.01205h-.0275V12.40005H16.152v2.23087H13.84634v2.36786H16.125v.01254h.027v2.15717H15.03629l-.01785-.01205h-.00916l-2.20869-1.47263-2.3013,1.48468H9.38361v-.01205h-.0275V16.99887h2.30565V14.631H9.38361V14.619h-.0275V12.40015H7.00272V14.631H4.84612V14.619H4.8186V10.23H7.05046V7.937H4.84612V7.92441H4.8186V5.69305H5.86049l.01785.01254H5.887l2.284,1.6207,2.30083-1.63324h1.11568v.01245h.0275V7.93686H9.3093v2.29309h2.27815v.01254h.0275v2.29407h2.27863V10.22995h2.30565V7.93686H13.92059V7.92432h-.027V5.693h1.11568l.01736.01254h.00964l2.28346,1.6207L19.621,5.693h1.041v.01254h.0275Zm-7.88454,13.612a1.38779,1.38779,0,0,1-.52432-.12012,1.26114,1.26114,0,0,1,.49683-2.42142,1.14,1.14,0,0,1,.48573.10419,1.20256,1.20256,0,0,1,.73174,1.17261,1.23,1.23,0,0,1-1.19,1.26474M8.16609,3.46207a1.38893,1.38893,0,0,1,.51225.12643,1.25284,1.25284,0,0,1,.779,1.14987,1.22259,1.22259,0,0,1-1.179,1.26471q-.04239.00146-.08479,0a1.155,1.155,0,0,1-.49875-.09689,1.30436,1.30436,0,0,1-.79347-1.18036A1.34531,1.34531,0,0,1,8.16609,3.4621m9.14877.07385a1.14689,1.14689,0,0,1,.50165.09021,1.22921,1.22921,0,0,1-.47464,2.377,1.21663,1.21663,0,0,1-.519-.095,1.233,1.233,0,0,1-.77225-1.18225A1.195,1.195,0,0,1,17.2487,3.534q.03312.00009.06618.002" transform="translate(0.00472 -0.12495)"/><path class="cls-3" d="M91.973,19.42694c0-1.45862.60776-2.20145,1.64771-2.20145.95892,0,1.52615.63477,1.52615,1.98535v.2431a8.58275,8.58275,0,0,1-1.121.04053c-.71582,0-1.64771-.027-2.05289-.06754m4.07877,2.5256a3.17842,3.17842,0,0,1-1.76926.58075c-1.28305,0-2.30951-.76984-2.30951-2.57962h2.0799a10.5237,10.5237,0,0,0,2.20145-.17557l.06754-.06754a4.20576,4.20576,0,0,0,.027-.4592,2.22894,2.22894,0,0,0-2.45807-2.47159,3.40259,3.40259,0,0,0-2.02588.72931,2.26038,2.26038,0,0,0-.63477.58075,3.91525,3.91525,0,0,0-.51321,2.06641,2.86329,2.86329,0,0,0,3.06583,3.07935,3.62114,3.62114,0,0,0,2.16095-.71582l.21609-.4592Zm-6.91452,1.067V22.7359l-.054-.054c-.17557,0-.64828-.04053-.71582-.054-.14856-.027-.20258-.09454-.22961-.27011a17.42508,17.42508,0,0,1-.081-1.93134v-.851a2.50171,2.50171,0,0,1,.09454-.83737c.14856-.36465.58075-.97241,1.05347-.97241a.65043.65043,0,0,1,.68881.56726l.04053.027h.21609l.04053-.04053a7.74672,7.74672,0,0,1,.108-1.36411l-.04053-.09454a.818.818,0,0,0-.39166-.081,1.71528,1.71528,0,0,0-1.39111.82385l-.48621.62128a13.20932,13.20932,0,0,1,.081-1.35059l-.12155-.081a6.17443,6.17443,0,0,1-1.90433.40518l-.054.054v.28363l.054.054h.43219c.28363,0,.41867.06754.43219.20258.027.16208.054.9184.054,1.59369v1.05347c0,.48621-.04053,1.52615-.081,1.91782a.28579.28579,0,0,1-.22961.27011,3.09009,3.09009,0,0,1-.56726.054l-.06754.054v.28363l.06754.054c.54022-.04053.93192-.054,1.43161-.054.4592,0,1.067.01352,1.5802.054Zm-5.69949-1.63422a2.32594,2.32594,0,0,1-1.71524.99942q-1.01294,0-1.01294-1.13449a1.09039,1.09039,0,0,1,.59427-1.02646,8.27234,8.27234,0,0,1,2.13394-.60776Zm1.08047-.49973c0-.85086.027-1.60721.027-2.13394a1.89192,1.89192,0,0,0-2.17444-1.97186,3.79936,3.79936,0,0,0-2.14743.76984.27591.27591,0,0,0-.12155.13507v.76984l.04053.06754.29712.06754.04053-.027a2.52337,2.52337,0,0,1,.35114-.79684,1.34056,1.34056,0,0,1,1.01294-.29712c.98593,0,1.59369.4592,1.59369,1.74225a8.25949,8.25949,0,0,0-3.28192.9454,1.768,1.768,0,0,0-.59427,1.37759,1.56867,1.56867,0,0,0,1.67474,1.64771,2.23924,2.23924,0,0,0,.78333-.14856l1.41812-1.10748-.027,1.05347.09454.081c.36465-.027.67529-.04053.9454-.04053a8.9641,8.9641,0,0,1,.97241.04053l.054-.04053v-.27011l-.054-.054-.33765-.04053c-.48621-.054-.56726-.41867-.56726-1.28305Zm-5.848,1.70175.2431-.60776-.108-.13507a3.8,3.8,0,0,1-2.404.72931c-2.51208,0-4.06528-1.71524-4.06528-4.3624s1.52615-4.07877,3.64658-4.07877c1.36407,0,2.09341.60776,2.215.97241a3.18933,3.18933,0,0,1,.06754.79684l.054.054h.32413l.06754-.054a9.59891,9.59891,0,0,1,.17557-1.71524l-.04053-.081a7.10112,7.10112,0,0,0-2.80923-.51321c-2.79572,0-5.13223,1.80978-5.13223,4.83511A4.63229,4.63229,0,0,0,75.861,23.2627a5.63776,5.63776,0,0,0,2.80923-.67529m-10.62189-3.525a2.03889,2.03889,0,0,0-2.25549-2.2825,1.53659,1.53659,0,0,0-.87787.2431c-.41867.36465-.81036.71582-1.175.99942,0-2.22849.01352-4.26785.054-4.565l-.12155-.081a6.30644,6.30644,0,0,1-1.95834.44568l-.054.054v.28363l.054.054h.43219c.28363,0,.41867.06754.43219.21609.04053.14856.054,1.21552.054,3.22791v2.7822c0,.48621-.04053,1.52615-.081,1.91782a.28579.28579,0,0,1-.22961.27011,3.09009,3.09009,0,0,1-.56726.054l-.06754.054v.28363l.06754.054c.54025-.04053.93192-.054,1.43161-.054s.89139.01352,1.44513.054l.04053-.054v-.28363l-.054-.054a4.7475,4.7475,0,0,1-.58075-.054c-.14856-.04053-.18909-.09454-.22961-.27011a17.42509,17.42509,0,0,1-.081-1.93134v-1.04a6.28274,6.28274,0,0,1,.027-.67529,1.69129,1.69129,0,0,1,1.5802-1.10748c1.36407,0,1.6207,1.094,1.6207,2.323v.22961c0,.81036-.027,1.63422-.09454,2.269-.04053.16208-.09454.32413-.14856.48621,0,.04053.04053.14856.081.14856a4.57207,4.57207,0,0,1,.71582-.04053c.41867,0,.9454.01352,1.37759.054l.04053-.054v-.28363l-.054-.054c-.31064,0-.60776-.04053-.7023-.20258a4.4515,4.4515,0,0,1-.12155-1.33707Zm-9.72424,2.377c0,.9454.22961,1.68823,1.52615,1.68823a1.97842,1.97842,0,0,0,.7023-.09454c.33765-.22961.58075-.41867.78333-.54025l-.027-.16208a2.7048,2.7048,0,0,1-.72931.09454c-.82385,0-1.175-.49973-1.175-2.02588l.04053-2.80923h1.63422l.054-.06754.20258-.40518-.06754-.081c-.32413.01352-.67529.027-1.094.027H59.445c0-.75632.09454-2.25549.13507-2.51208l-.13507-.13507a9.0857,9.0857,0,0,1-1.121.49973c.027.18909.04053.89139.04053,2.12042l-1.094.17557-.054.06754v.25662l.06754.054h1.08047Zm-2.323-3.78165c0-1.87732.027-3.9032.06754-4.20032l-.12155-.081a6.30644,6.30644,0,0,1-1.95834.44568l-.054.054v.28363l.054.054H54.421c.28363,0,.41867.06754.43219.21609.04053.14856.054,1.32358.054,3.22791v2.7822c0,.48621-.04053,1.52615-.081,1.91782a.28579.28579,0,0,1-.22961.27011,3.09009,3.09009,0,0,1-.56726.054l-.06754.054v.28363l.06754.054c.54025-.04053.93192-.054,1.43161-.054s.89139.01352,1.44513.054l.04053-.054v-.28363l-.054-.054a4.7475,4.7475,0,0,1-.58075-.054c-.14856-.04053-.18909-.09454-.22961-.27011a17.42508,17.42508,0,0,1-.081-1.93134Zm-3.53806,3.22791c0-.85086.027-1.60721.027-2.13394a1.89192,1.89192,0,0,0-2.17444-1.97186,3.79936,3.79936,0,0,0-2.14743.76984.27591.27591,0,0,0-.12155.13507v.76984l.04053.06754.29712.06754.04053-.027a2.52337,2.52337,0,0,1,.35114-.79684,1.34056,1.34056,0,0,1,1.01294-.29712c.98593,0,1.59369.4592,1.59369,1.74225a8.25949,8.25949,0,0,0-3.28192.9454,1.768,1.768,0,0,0-.59427,1.37759,1.56867,1.56867,0,0,0,1.67474,1.64771,2.23924,2.23924,0,0,0,.78333-.14856l1.41812-1.10748-.027,1.05347.09454.081c.36465-.027.67529-.04053.9454-.04053a8.9641,8.9641,0,0,1,.97241.04053l.054-.04053v-.27011l-.054-.054-.33765-.04053c-.48621-.054-.56726-.41867-.56726-1.28305Zm-1.08047.49973a2.32594,2.32594,0,0,1-1.71524.99942q-1.01294,0-1.01294-1.13449a1.09039,1.09039,0,0,1,.59427-1.02646,8.27234,8.27234,0,0,1,2.13394-.60776Zm-9.103-1.95834c0-1.45862.60776-2.20145,1.64771-2.20145.95892,0,1.52615.63477,1.52615,1.98535v.2431a8.58275,8.58275,0,0,1-1.121.04053c-.71582,0-1.64771-.027-2.05289-.06754m4.07877,2.5256a3.17842,3.17842,0,0,1-1.76926.58075c-1.28305,0-2.30951-.76984-2.30951-2.57962h2.0799a10.5237,10.5237,0,0,0,2.20145-.17557l.06754-.06754a4.20576,4.20576,0,0,0,.027-.4592,2.22894,2.22894,0,0,0-2.45807-2.47159,3.40259,3.40259,0,0,0-2.02588.72931,2.26038,2.26038,0,0,0-.63477.58075,3.91525,3.91525,0,0,0-.51321,2.06641,2.86329,2.86329,0,0,0,3.06583,3.07935,3.62114,3.62114,0,0,0,2.16095-.71582l.21609-.4592ZM37.9982,19.94028c0,2.01239,0,2.2825-.14856,2.51208-.09454.09454-.25662.16208-.83737.20258l-.054.04053v.33765l.054.04053c.68881-.04053,1.44513-.054,1.59369-.054.17557,0,.93192.01352,1.60721.054l.054-.04053v-.33765l-.054-.04053c-.58075-.04053-.72931-.108-.82385-.20258-.14856-.22961-.14856-.49973-.14856-2.5256V16.91495c0-1.99887,0-2.323.14856-2.51208.09454-.09454.2431-.16208.82385-.20258l.054-.04053v-.33765l-.054-.04053c-.67529.04053-1.44513.054-1.59369.054-.16208,0-.90488-.01352-1.60721-.054l-.054.04053v.33765l.054.04053c.58075.04053.74283.108.83737.20258.14856.18909.14856.51321.14856,2.51208v.90488c-.60776.04053-1.52615.04053-2.66068.04053-.85086,0-1.74225-.01352-2.68768-.04053v-.90488c0-1.99887,0-2.323.14856-2.51208.09454-.09454.25662-.16208.83737-.20258l.054-.04053v-.33765l-.054-.04053c-.67529.04053-1.44513.054-1.59369.054-.17557,0-.93192-.01352-1.60721-.054l-.054.04053v.33765l.054.04053c.58075.04053.72931.108.82385.20258.14856.18909.14856.51321.14856,2.51208v3.02533c0,2.01239,0,2.2825-.14856,2.51208-.09454.09454-.2431.16208-.82385.20258l-.054.04053v.33765l.054.04053c.68881-.04053,1.43161-.054,1.59369-.054.17557,0,.93192.01352,1.60721.054l.054-.04053v-.33765l-.054-.04053c-.58075-.04053-.74283-.108-.83737-.20258-.14856-.22961-.14856-.49973-.14856-2.5256V18.4545c.89139-.04053,2.10693-.04053,2.64716-.04053.49973,0,1.98535-.01352,2.70117.027Z" transform="translate(0.00472 -0.12495)"/><path class="cls-3" d="M117.4494,10.94583a4.57207,4.57207,0,0,1,.71582-.04053c.41867,0,.9454.01352,1.37759.054l.04053-.054v-.28363l-.054-.054c-.31064,0-.60776-.04053-.7023-.20258a4.45149,4.45149,0,0,1-.12155-1.33707V6.94815a2.00015,2.00015,0,0,0-2.20145-2.28244,1.72855,1.72855,0,0,0-.93192.24307c-.41867.36465-.6618.58075-.99942.83737a2.0667,2.0667,0,0,0-1.85031-1.08041,1.6667,1.6667,0,0,0-1.04.29709c-.27011.27011-.78333.68881-1.094.9454a9.06135,9.06135,0,0,1,.054-1.148l-.12155-.081a6.06461,6.06461,0,0,1-1.95834.40518l-.054.054v.28366l.054.054h.43219c.25662,0,.39166.06754.43219.20258a13.80769,13.80769,0,0,1,.054,1.59369v1.04c0,.47272-.04053,1.53967-.081,1.93134a.28579.28579,0,0,1-.22961.27011,3.09009,3.09009,0,0,1-.56726.054l-.06754.054v.28363l.06754.054c.54022-.04053.93192-.054,1.43161-.054s.89139.01352,1.44513.054l.04053-.054v-.28363l-.054-.054a4.7475,4.7475,0,0,1-.58075-.054c-.14856-.04053-.18909-.09454-.22961-.27011a17.42508,17.42508,0,0,1-.081-1.93134v-1.04a6.28272,6.28272,0,0,1,.027-.67529,1.687,1.687,0,0,1,1.60721-1.10748c1.24255,0,1.256,1.121,1.256,2.0799v.75632c0,.48621-.04053,1.52615-.081,1.91782a.28579.28579,0,0,1-.22961.27011,2.026,2.026,0,0,1-.48621.054l-.06754.054v.28363l.06754.054c.55374-.04053.85086-.054,1.33707-.054.52673,0,.85086.01352,1.39111.054l.04053-.054v-.28363l-.054-.054a3.73779,3.73779,0,0,1-.52673-.054c-.14856-.04053-.18909-.09454-.22961-.27011a17.4251,17.4251,0,0,1-.081-1.93134V7.43436c0-.85086.054-1.175.22961-1.4046a1.8,1.8,0,0,1,1.21552-.54022c1.43161,0,1.6207,1.094,1.6207,2.323v.22961c0,.81036-.027,1.63422-.09454,2.269-.04053.16208-.09454.32413-.14856.48621,0,.04053.04053.14856.081.14856M106.91534,7.27231c0-.4592.027-2.215.06754-2.51208l-.12155-.081a6.06461,6.06461,0,0,1-1.95834.40518l-.054.054v.28366l.054.054h.43219c.28363,0,.41867.06754.43219.20258.027.16208.054.9184.054,1.59369v1.04c0,.47272-.04053,1.53967-.081,1.93134a.28579.28579,0,0,1-.22961.27011,3.09009,3.09009,0,0,1-.56726.054l-.06754.054v.28363l.06754.054c.54025-.04053.93192-.054,1.43161-.054s.89139.01352,1.44513.054l.04053-.054v-.28363l-.054-.054a4.7475,4.7475,0,0,1-.58075-.054c-.14856-.04053-.18909-.09454-.22961-.27011a17.42508,17.42508,0,0,1-.081-1.93134Zm-.52673-5.5239a.74374.74374,0,0,0-.75623.731l-.00009.01184a.743.743,0,0,0,1.48566,0,.72111.72111,0,0,0-.699-.74255q-.01515-.00046-.0303-.00027m-2.99829,9.157V10.6218l-.054-.054c-.17557,0-.64828-.04053-.71582-.054-.14856-.027-.20258-.09454-.22961-.27011a17.4251,17.4251,0,0,1-.081-1.93134V7.46152a2.50171,2.50171,0,0,1,.09454-.83737c.14856-.36465.58075-.97241,1.05347-.97241a.65043.65043,0,0,1,.68881.56726l.04053.027h.21609l.04053-.04053a7.74928,7.74928,0,0,1,.108-1.36407l-.04053-.09454a.818.818,0,0,0-.39166-.081,1.71524,1.71524,0,0,0-1.39111.82382l-.48621.62128a13.20931,13.20931,0,0,1,.081-1.35059l-.12155-.081a6.17355,6.17355,0,0,1-1.90433.40518l-.054.054v.28366l.054.054h.43219c.28363,0,.41867.06754.43219.20258.027.16208.054.9184.054,1.59369V8.32593c0,.48621-.04053,1.52615-.081,1.91782a.28579.28579,0,0,1-.22961.27011,3.09009,3.09009,0,0,1-.56726.054l-.06754.054v.28363l.06754.054c.54025-.04053.93192-.054,1.43161-.054.4592,0,1.067.01352,1.5802.054ZM96.3287,13.93076c-1.1615,0-1.91782-.56726-1.91782-1.60721a1.407,1.407,0,0,1,.6618-1.24255c.17557-.13507.22961-.16208.59427-.16208h.98593c1.121,0,2.02588.108,2.02588,1.256,0,.93192-.95892,1.75577-2.35,1.75577m-.054-8.79233c.99942,0,1.43161.87787,1.43161,1.71524A1.35748,1.35748,0,0,1,96.3288,8.36627c-1.01294,0-1.4046-.86438-1.4046-1.72876a1.30864,1.30864,0,0,1,1.35059-1.49915m3.444,6.36127a1.49028,1.49028,0,0,0-.76984-1.33707A2.39856,2.39856,0,0,0,97.963,10.014h-1.5802c-.67529,0-1.26956-.09454-1.26956-.6618,0-.16208.16208-.29712.62128-.58075a1.46846,1.46846,0,0,0,.2431.01352c1.80978,0,2.84973-1.01294,2.84973-2.269a2.03283,2.03283,0,0,0-.28363-.99942h.93384l.14856-.40518-.054-.12149c-.40518.027-.74475.04047-1.366.054a2.96909,2.96909,0,0,0-1.45862-.37817,4.27277,4.27277,0,0,0-2.0394.63474,1.84717,1.84717,0,0,0-.93192,1.68823,1.67874,1.67874,0,0,0,1.48566,1.72876l-.98593.58075a1.00494,1.00494,0,0,0-.18909.59427c0,.40518.18909.76984.83737.9184l-1.18851.62128a2.07689,2.07689,0,0,0-.31064,1.121c0,1.256,1.256,1.7963,2.64716,1.7963,2.02588,0,3.64658-1.1615,3.64658-2.84973M92.03445,5.54358c0-1.87732.027-3.9032.06754-4.20029l-.12155-.08109a6.30557,6.30557,0,0,1-1.95834.44568l-.054.054V2.0455l.054.054h.43219c.28363,0,.41867.06754.43219.21609.04053.14856.054,1.32358.054,3.22791v2.7822c0,.48621-.04053,1.52615-.081,1.91782a.28579.28579,0,0,1-.22961.27011,3.09009,3.09009,0,0,1-.56726.054l-.06754.054v.28363l.06754.054c.54022-.04053.93192-.054,1.43161-.054s.89139.01352,1.44513.054l.04053-.054v-.28363l-.054-.054a4.7475,4.7475,0,0,1-.58075-.054c-.14856-.04053-.18909-.09454-.22961-.27011a17.42509,17.42509,0,0,1-.081-1.93134ZM88.40137,7.27234c0-.4592.027-2.215.06754-2.51208l-.12155-.081a6.06461,6.06461,0,0,1-1.95834.40518l-.054.054v.28366l.054.054h.43219c.28363,0,.41867.06754.43219.20258.027.16208.054.9184.054,1.59369v1.04c0,.47272-.04053,1.53967-.081,1.93134a.28579.28579,0,0,1-.22961.27011,3.09009,3.09009,0,0,1-.56726.054l-.06754.054v.28363l.06754.054c.54025-.04053.93192-.054,1.43161-.054s.89139.01352,1.44513.054l.04053-.054v-.28363l-.054-.054a4.7475,4.7475,0,0,1-.58075-.054c-.14856-.04053-.18909-.09454-.22961-.27011a17.42508,17.42508,0,0,1-.081-1.93134Zm-.52673-5.5239a.74374.74374,0,0,0-.75623.731l-.00009.01184a.743.743,0,0,0,1.48566,0,.72111.72111,0,0,0-.699-.74255q-.01515-.00046-.0303-.00027m-7.46875-.027c-.17557,0-.93192-.01355-1.60721-.054l-.054.04047v.33771l.054.04047c.58075.04053.72931.108.82385.20258.14856.18909.14856.51321.14856,2.51208V7.82608c0,2.01239,0,2.2825-.14856,2.51208-.09454.09454-.2431.16208-.82385.20258l-.054.04053v.33765l.054.04053c.68881-.04053,1.43161-.054,1.59369-.054.17557,0,.93192.01352,1.60721.054l.054-.04053v-.33765l-.054-.04053c-.58075-.04053-.74283-.108-.83737-.20258-.14856-.21609-.14856-.47272-.14856-2.51208V4.80075c0-1.29657.027-2.14743.06754-2.57962.47272-.04053.87787-.06754,1.29657-.06754A1.99195,1.99195,0,0,1,84.55222,4.355a2.01407,2.01407,0,0,1-1.94339,2.08234q-.09526.0033-.19055-.00244a2.73764,2.73764,0,0,1-.55374-.027l-.06754.054.12155.36465c.22961.01352.47272.027.74283.027a3.01,3.01,0,0,0,3.23737-2.764l.00406-.05875c0-1.8233-1.35059-2.36349-2.90375-2.36349-.108,0-.82385.027-1.256.027-.52673.01352-.9454.02707-1.33707.02707M75.55783,4.31451c0-1.52615.027-2.51208.06754-3.01181l-.12155-.081a7.642,7.642,0,0,1-2.05289.48621l-.054.054v.2836l.054.054h.52673c.28363,0,.41867.06754.43219.21609a14.75688,14.75688,0,0,1,.054,2.377v.28363a3.04152,3.04152,0,0,0-1.37759-.31058,5.14356,5.14356,0,0,0-2.377.97238,2.86688,2.86688,0,0,0-1.05347,2.48508,2.76866,2.76866,0,0,0,2.52884,2.98932q.086.00714.17233.009a2.02337,2.02337,0,0,0,.85086-.16208,9.83331,9.83331,0,0,0,1.256-1.21552c0,.41867-.01352.78333-.027,1.148l.06754.06754a7.44808,7.44808,0,0,1,.79684-.054c.31064,0,.6618.01352,1.08047.054l.04053-.054v-.28363l-.054-.054a1.01344,1.01344,0,0,1-.68881-.16208c-.09454-.09454-.12155-.28363-.12155-.6618Zm-1.094,4.13281a1.69759,1.69759,0,0,1-1.55038,1.833l-.05682.00378c-1.36407,0-2.0394-1.229-2.0394-2.5256,0-1.43161.59427-2.53909,1.91782-2.53909a1.74133,1.74133,0,0,1,1.72876,1.067ZM68.22412,10.9054v-.28363l-.054-.054c-.17557,0-.64828-.04053-.71582-.054-.14856-.027-.20258-.09454-.22961-.27011a17.42508,17.42508,0,0,1-.081-1.93134V7.46149a2.50171,2.50171,0,0,1,.09454-.83737c.14856-.36465.58075-.97241,1.05347-.97241a.65043.65043,0,0,1,.68881.56726l.04053.027h.21609l.04053-.04053a7.74963,7.74963,0,0,1,.108-1.36411l-.04053-.09454a.818.818,0,0,0-.39166-.081,1.71524,1.71524,0,0,0-1.39111.82382l-.48621.62128a13.20931,13.20931,0,0,1,.081-1.35059l-.12155-.081a6.17355,6.17355,0,0,1-1.90433.40518l-.054.054v.28366l.054.054h.43219c.28363,0,.41867.06754.43219.20258.027.16208.054.9184.054,1.59369V8.32587c0,.48621-.04053,1.52615-.081,1.91782a.28579.28579,0,0,1-.22961.27011,3.09009,3.09009,0,0,1-.56726.054l-.06754.054v.28363l.06754.054c.54022-.04053.93192-.054,1.43161-.054.4592,0,1.067.01352,1.5802.054ZM63.59161,8.77145c0-.85086.027-1.60721.027-2.13394a1.89179,1.89179,0,0,0-2.17444-1.9718,3.79907,3.79907,0,0,0-2.14743.76978.27591.27591,0,0,0-.12155.13507v.76984l.04053.06754.29712.06754.04053-.027a2.52337,2.52337,0,0,1,.35114-.79684,1.34056,1.34056,0,0,1,1.01294-.29712c.98593,0,1.59369.4592,1.59369,1.74225a8.25949,8.25949,0,0,0-3.28192.9454,1.768,1.768,0,0,0-.59427,1.37759,1.56867,1.56867,0,0,0,1.67474,1.64771,2.23924,2.23924,0,0,0,.78333-.14856L62.51114,9.8114l-.027,1.05347.09454.081c.36465-.027.67529-.04053.9454-.04053a8.9641,8.9641,0,0,1,.97241.04053l.054-.04053v-.27011l-.054-.054-.33765-.04053c-.48621-.054-.56726-.41867-.56726-1.28305Zm-1.08047.49973a2.32594,2.32594,0,0,1-1.71524.99942q-1.01294,0-1.01294-1.13449a1.09039,1.09039,0,0,1,.59427-1.02646,8.27234,8.27234,0,0,1,2.13394-.60776ZM57.47394,6.624c.51273-1.148.60727-1.26956,1.053-1.32358l.054-.054V4.96283l-.054-.06754c-.29712.027-.6748.054-1.03946.054-.31064,0-.49973-.01346-1.081-.054l-.06754.06754v.28363l.054.054c.70279.04053.75681.12161.75681.31064a3.83877,3.83877,0,0,1-.4592,1.44513L55.502,9.90594l-1.4046-3.48453a2.82518,2.82518,0,0,1-.22961-.85086c0-.22961.17557-.27011.80988-.27011l.054-.054V4.94934l-.054-.054c-.3912.027-.86438.054-1.29657.054-.39166,0-.8504-.01346-1.3501-.054l-.068.06754v.28363l.054.054a.66172.66172,0,0,1,.58124.47272L53.97586,8.9606c.31064.68881.63428,1.52615.86389,2.12042H55.529a28.061,28.061,0,0,1,1.12051-2.63364ZM50.5184,10.9054v-.28363l-.054-.054c-.17557,0-.64828-.04053-.71582-.054-.14856-.027-.20258-.09454-.22961-.27011a17.42509,17.42509,0,0,1-.081-1.93134V7.46149a2.50171,2.50171,0,0,1,.09454-.83737c.14856-.36465.58075-.97241,1.05347-.97241a.65043.65043,0,0,1,.68881.56726l.04053.027h.21609l.04053-.04053a7.74963,7.74963,0,0,1,.108-1.36411l-.04053-.09454a.818.818,0,0,0-.39166-.081,1.71524,1.71524,0,0,0-1.39111.82382l-.48621.62128a13.20932,13.20932,0,0,1,.081-1.35059l-.12155-.081a6.17355,6.17355,0,0,1-1.90433.40518l-.054.054v.28366l.054.054h.43219c.28363,0,.41867.06754.43219.20258.027.16208.054.9184.054,1.59369V8.32587c0,.48621-.04053,1.52615-.081,1.91782a.28579.28579,0,0,1-.22961.27011,3.09009,3.09009,0,0,1-.56726.054l-.06754.054v.28363l.06754.054c.54025-.04053.93192-.054,1.43161-.054.4592,0,1.067.01352,1.5802.054Zm-4.565-2.13394c0-.85086.027-1.60721.027-2.13394A1.89179,1.89179,0,0,0,43.806,4.66571a3.79907,3.79907,0,0,0-2.14743.76978.27591.27591,0,0,0-.12155.13507v.76984l.04053.06754.29712.06754.04053-.027a2.52337,2.52337,0,0,1,.35114-.79684,1.34056,1.34056,0,0,1,1.01294-.29712c.98593,0,1.59369.4592,1.59369,1.74225a8.25949,8.25949,0,0,0-3.28192.9454,1.768,1.768,0,0,0-.59427,1.37759,1.56867,1.56867,0,0,0,1.67474,1.64771,2.23924,2.23924,0,0,0,.78333-.14856L44.87292,9.8114l-.027,1.05347.09454.081c.36465-.027.67529-.04053.9454-.04053a8.9641,8.9641,0,0,1,.97241.04053l.054-.04053v-.27011l-.054-.054-.33765-.04053c-.48621-.054-.56726-.41867-.56726-1.28305Zm-1.08047.49973a2.32594,2.32594,0,0,1-1.71524.99942q-1.01294,0-1.01294-1.13449A1.09039,1.09039,0,0,1,42.739,8.10965,8.27234,8.27234,0,0,1,44.873,7.50189ZM37.99844,7.826c0,2.01239,0,2.2825-.14856,2.51208-.09454.09454-.25662.16208-.83737.20258l-.054.04053v.33765l.054.04053c.68881-.04053,1.44513-.054,1.59369-.054.17557,0,.93192.01352,1.60721.054l.054-.04053v-.33765l-.054-.04053c-.58075-.04053-.72931-.108-.82385-.20258-.14856-.22961-.14856-.49973-.14856-2.5256V4.80072c0-1.99887,0-2.323.14856-2.51208.09454-.09454.2431-.16208.82385-.20258l.054-.04047V1.70789l-.054-.04047c-.67529.04047-1.44513.054-1.59369.054-.16208,0-.90488-.01355-1.60721-.054l-.054.04047v.33771l.054.04047c.58075.04053.74283.108.83737.20258.14856.18909.14856.51321.14856,2.51208V5.7056c-.60776.04053-1.52615.04053-2.66068.04053-.85086,0-1.74225-.01352-2.68768-.04053V4.80072c0-1.99887,0-2.323.14856-2.51208.09454-.09454.25662-.16208.83737-.20258l.054-.04047V1.70789l-.054-.04047c-.67529.04047-1.44513.054-1.59369.054-.17557,0-.93192-.01355-1.60721-.054l-.054.04047v.33771l.054.04047c.58075.04053.72931.108.82385.20258.14856.18909.14856.51321.14856,2.51208V7.826c0,2.01239,0,2.2825-.14856,2.51208-.09454.09454-.2431.16208-.82385.20258l-.054.04053v.33765l.054.04053c.68881-.04053,1.43161-.054,1.59369-.054.17557,0,.93192.01352,1.60721.054l.054-.04053v-.33765l-.054-.04053c-.58075-.04053-.74283-.108-.83737-.20258-.14856-.22961-.14856-.49973-.14856-2.5256V6.34039c.89139-.04053,2.10693-.04053,2.64716-.04053.49973,0,1.98535-.01352,2.70117.027Z" transform="translate(0.00472 -0.12495)"/></svg>