<?xml version="1.0" encoding="utf-8"?>
<!-- Generator: Adobe Illustrator 24.0.1, SVG Export Plug-In . SVG Version: 6.00 Build 0)  -->
<svg version="1.1" id="Layer_1" xmlns="http://www.w3.org/2000/svg" xmlns:xlink="http://www.w3.org/1999/xlink" x="0px" y="0px"
	 viewBox="0 0 181.3 43.6" style="enable-background:new 0 0 181.3 43.6;" xml:space="preserve">
<style type="text/css">
	.st0{fill:#80C242;}
</style>
<title>HF_Logo</title>
<path d="M131.6,34.7h4.9V16.4h-4.9V34.7z M131.6,11h5V7.3h-5V11z"/>
<path d="M150.5,22c0,3.4,2.2,4.8,5.7,5.1l3.1,0.3c1.5,0.1,2.1,0.8,2.1,1.7c0,1.4-1.8,1.9-3.4,1.9c-1.5,0-4.4-0.2-6-1.7l-1.7,3.9
	c2.5,1.7,4.5,1.7,7.6,1.7c4.6,0,8.2-1.9,8.2-6c0-3.1-1.9-5-5.8-5.4l-3.1-0.2c-1.7-0.1-2-0.9-2-1.6c0-0.9,0.8-1.8,2.8-1.8
	c1.7,0,3.9,0.3,5,1.2l1.8-3.4c-2-1.2-4.3-1.7-6.7-1.6C154,16.2,150.5,18.2,150.5,22"/>
<path d="M168.7,10.1v6.8h-2.1v3.5h2.1v9c0,2.6,1.7,5.2,5.6,5.2h2.6v-3.8h-1.8c-0.8,0.1-1.6-0.4-1.7-1.2c0-0.1,0-0.3,0-0.4v-8.8h3.4
	v-3.5h-3.4v-6.8H168.7z"/>
<path d="M149.7,16.2c-1.8,0-3.6,0.7-4.9,2v-1.8H140v18.3h4.9v-11c-0.1-1.7,1.1-3.3,2.9-3.4c0.1,0,0.2,0,0.2,0c0.5,0,1,0.1,1.6,0.1
	l1.1-4.2h-0.5L149.7,16.2"/>
<path d="M126.6,7.2c-4,0-5.7,2.6-5.7,5.2v4.5H119c0,1.3,0,2.5,0,3.3v0.2h1.9v14.3h4.9V20.4h3.6v-3.5h-3.6v-4.2
	c-0.1-0.8,0.5-1.6,1.3-1.7c0.1,0,0.3,0,0.4,0h1.9V7.1h-2.8V7.2z"/>
<path d="M35.3,34.7V23c0-3.2,1.7-4.9,5-5s4.8,1.7,4.8,5v11.6h2.3v-12c0.1-1.8-0.6-3.6-1.9-4.9c-1.4-1.2-3.2-1.9-5.1-1.8
	c-1.9-0.1-3.8,0.7-5.2,2v-11h-2.4v27.7L35.3,34.7L35.3,34.7z"/>
<path d="M79.7,34.7H82V22c0.1-1.7-0.6-3.3-1.8-4.4c-1.6-1.1-3.5-1.7-5.5-1.5c-3,0-5,0.6-6.6,2.8L68,19.1l1.7,1.4l0.1-0.2
	c1.2-1.5,2.3-2.1,4.9-2.1c3.7,0,4.9,1.4,4.9,4.1v1.9h-5.7c-1.7-0.1-3.4,0.4-4.8,1.4c-1.2,0.9-1.8,2.4-1.8,3.9c0,1.4,0.5,2.8,1.4,3.8
	c1.2,1.2,2.8,1.7,5.5,1.7c1.9,0.2,3.9-0.4,5.4-1.7L79.7,34.7z M78.7,31.4c-1.2,1-2.8,1.5-4.4,1.3c-3.3,0-4.6-1.2-4.6-3.4
	s1.4-3.3,4.5-3.3h5.5v2C79.8,29.2,79.4,30.4,78.7,31.4"/>
<path d="M104.7,34.7V23c0-3.2,1.7-4.9,4.9-5s4.8,1.7,4.8,5v11.7h2.4v-12c0.1-1.8-0.6-3.6-1.9-4.9c-3-2.4-7.3-2.4-10.3,0.2V7h-2.3
	v27.7H104.7z"/>
<path d="M99.3,32.7h-0.9c-1.8,0-2.6-0.9-2.6-2.7V18.5h4.1v-1.8h-4.1v-8h-2.3v8h-2.6v1.8h2.5v11.4c-0.1,1.2,0.4,2.4,1.2,3.4
	c0.9,0.9,2.1,1.4,3.4,1.3h1.3V32.7z"/>
<path d="M63,30.7L63,30.7L63,30.7L63,30.7L63,30.7c-1.2,1.3-2.9,2-4.7,1.9c-3.8,0-5.7-2.2-5.7-6.6h12.6v-1c0.1-2.4-0.6-4.7-2-6.5
	c-1.4-1.6-3.4-2.5-5.5-2.4c-2.1-0.1-4.2,0.8-5.5,2.5c-1.4,2-2.1,4.4-2,6.9c0,3,0.7,5.3,2,7c1.5,1.7,3.7,2.5,5.9,2.4l0,0
	c2.3,0.1,4.6-0.7,6.2-2.3L63,30.7z M53.1,21c1.2-2.5,4.1-3.6,6.6-2.5c1.1,0.5,2,1.4,2.5,2.5c0.4,1,0.6,2,0.6,3.1H52.5
	C52.5,23,52.7,22,53.1,21"/>
<path class="st0" d="M26.4,30.8c1.9-6.8,1.7-11-1.5-16.6C20.7,7,9,4.7,3.3,1.7C1.3,0.6,0.6-0.2,0.1,0c1.6,2,3.5,3.8,5.6,5.3
	C8.3,7.1,20.7,16.1,26.4,30.8"/>
<path class="st0" d="M26.8,43.6c1.2-3.6-0.2-7.5-0.9-9.5C21.5,23,14.6,13.1,5.6,5.3l0.1,0.1C3.6,3.8,1.8,2,0.1,0l0,0
	c-0.4,0.9,1.3,2,2.4,6.2c2.1,8-0.5,16.1,15.8,23.5c6.8,3.1,7.8,7.8,6.7,11.4c0.4,0.4,0.8,0.8,1.2,1.3C26.5,42.9,26.7,43.2,26.8,43.6
	"/>
<rect x="86.1" y="7" width="2.3" height="27.7"/>
<path d="M179.5,9.2c0.3,0,0.6,0.1,0.9,0.2c0.3,0.2,0.5,0.4,0.7,0.7c0.3,0.6,0.3,1.3,0,1.8c-0.2,0.3-0.4,0.5-0.7,0.7
	c-0.6,0.3-1.3,0.3-1.8,0c-0.3-0.2-0.5-0.4-0.7-0.7c-0.3-0.6-0.3-1.3,0-1.8c0.2-0.3,0.4-0.5,0.7-0.7C178.9,9.3,179.2,9.2,179.5,9.2
	 M179.5,9.5c-0.3,0-0.5,0.1-0.8,0.2c-0.2,0.1-0.4,0.3-0.6,0.6c-0.1,0.2-0.2,0.5-0.2,0.8s0.1,0.5,0.2,0.8c0.1,0.2,0.3,0.4,0.6,0.6
	c0.5,0.3,1,0.3,1.5,0c0.2-0.1,0.4-0.3,0.6-0.6c0.3-0.5,0.3-1.1,0-1.5c-0.1-0.2-0.3-0.4-0.6-0.6C180,9.6,179.7,9.5,179.5,9.5
	 M178.7,12.1v-2h0.7c0.2,0,0.3,0,0.5,0c0.1,0,0.2,0.1,0.2,0.2c0.1,0.1,0.1,0.2,0.1,0.3s-0.1,0.3-0.2,0.4c-0.1,0.1-0.3,0.2-0.4,0.2
	c0.1,0,0.1,0.1,0.2,0.1c0.1,0.1,0.2,0.3,0.3,0.4l0.2,0.4h-0.4l-0.2-0.3c-0.1-0.2-0.2-0.3-0.3-0.5c-0.1-0.1-0.2-0.1-0.2-0.1H179V12
	L178.7,12.1z M179,11h0.4c0.1,0,0.3,0,0.4-0.1c0.1-0.1,0.1-0.1,0.1-0.2c0-0.1,0-0.1,0-0.2l-0.1-0.1c-0.1,0-0.2,0-0.3,0h-0.4L179,11z
	"/>
</svg>
