<?xml version="1.0" encoding="utf-8"?>
<!-- Generator: Adobe Illustrator 23.0.3, SVG Export Plug-In . SVG Version: 6.00 Build 0)  -->
<svg version="1.1" id="Logo" xmlns="http://www.w3.org/2000/svg" xmlns:xlink="http://www.w3.org/1999/xlink" x="0px" y="0px"
	 width="589.1px" height="108px" viewBox="0 0 589.1 108" style="enable-background:new 0 0 589.1 108;" xml:space="preserve">
<style type="text/css">
	.st0{fill:#3D85C6;}
	.st1{fill:#60489D;}
	.st2{fill:#00A651;}
	.st3{fill:#231F20;}
</style>
<polygon class="st0" points="108.4,0 84.9,23.5 115.4,54 84.9,84.5 108.4,108 162.4,54 "/>
<rect x="62" y="34.8" transform="matrix(0.7072 -0.7071 0.7071 0.7072 -14.3957 73.2365)" class="st1" width="38.4" height="38.4"/>
<polygon class="st2" points="47,54 77.5,23.5 54,0 0,54 54,108 77.5,84.5 "/>
<path class="st3" d="M414,55.3c0-3.6-2.1-5-4.9-5c-3.6,0-4.5,0.9-4.8,4.4c-0.1,1.7-3.5,2.5-4.4,2.5c-0.7,0-1.2-0.5-1.2-1.4
	c0-2.4,1.5-4.2,3.4-5.2c2-1,4.3-2.2,6.7-3.6c1.4-0.8,2.5-0.9,3.7-0.9c5.4,0,8.4,2.8,8.4,8.2v12.6c0,2.7,0.2,4.6,1.9,4.6
	c0.6,0,1.4-0.4,1.7-0.8l0.8,1.1c-1.9,2.3-3.5,3.9-6.5,3.9s-4.5-2-4.7-4.9c-2.7,2.7-5.5,4.9-9.5,4.9c-3.7,0-6.7-2.3-6.7-6.4
	c0-4.8,4-6.3,8.4-7.9l7.7-2.7L414,55.3L414,55.3z M414,60.8c-3.4,1.1-9.1,2.3-9.1,6.6c0,2.7,1.4,4,3.8,4c2.8,0,4.6-2.3,5.3-3.3V60.8
	z"/>
<path class="st3" d="M437.9,71.5c0,1.4,1.7,1.4,4.6,1.4h0.9v1.8c-2.9-0.1-5.8-0.2-8.7-0.2c-2.6,0-5.1,0.2-7.7,0.2v-1.9h0.6
	c2.1,0,3.4-0.2,3.4-1.6V54.5c0-2-0.4-2.7-1.9-2.9c-0.7-0.1-1.3-0.2-2-0.4v-1.5c3.3-0.6,6.6-2,10.1-3.7l0.7,0.4v4.3h0.1
	c1.1-1.8,3.9-4.6,7.1-4.6c2.1,0,4,1,4,3.7c0,2.3-1.5,3.7-3.5,3.7c-2.4,0-2.4-2.4-4.3-2.4c-1.5,0-3.4,1.2-3.4,4.2L437.9,71.5
	L437.9,71.5z"/>
<path class="st3" d="M469.3,50.5h-7.4v16.9c0,2.6,1.5,3.3,3.3,3.3c1.5,0,2.5-0.4,3.6-1.1l0.8,1.1c-2.3,3-4.9,5-8.4,5
	c-4.7,0-6.2-3-6.2-6.4V50.5h-3.7V49c3.3-1.8,7.1-5.3,9.9-8.8l0.7,0.4V47h7.4V50.5z"/>
<path class="st3" d="M471.9,72.9h0.4c1.8,0,3.2,0,3.2-1.8V53.6c0-1-0.1-1.4-1.5-1.7c-0.7-0.2-1.4-0.4-2.1-0.6v-1.5
	c1.9-0.5,4-1.2,5.6-1.8c1.4-0.5,2.9-1.3,4.3-1.8l0.7,0.5v4c2.7-1.8,5.9-4.5,9.6-4.5c4.4,0,7.7,2.2,7.7,8v17.1c0,1.7,1.5,1.7,3,1.7
	h0.7v1.8c-2.4-0.1-4.6-0.2-7-0.2c-2.5,0-4.9,0.1-7.4,0.2v-1.9h0.6c1.2,0,3,0,3-1.6V55.8c0-3.8-1.9-5.2-4.7-5.2c-2,0-4.3,1.2-5.7,2.1
	v18.7c0,1.5,1.4,1.5,3,1.5h0.9v1.8c-2.4-0.1-4.7-0.2-7-0.2c-2.5,0-5,0.1-7.4,0.2L471.9,72.9L471.9,72.9z"/>
<path class="st3" d="M529.4,67.9c-2.5,4.3-6.7,7.7-11.9,7.7c-7.8,0-12-7.2-12-14.2c0-7.8,5.2-15.4,13.7-15.4c6.4,0,9.8,4.7,9.7,10.8
	l-0.7,0.7h-16.7c0,6.3,2.9,12.6,9.6,12.6c3,0,5.4-1.1,7.4-3.3L529.4,67.9z M518.6,55.7c3.3,0,3.8-0.1,3.8-2.3c0-2.3-1.5-5.1-4.3-5.1
	c-3.8,0-5.9,3.6-6.5,7.4H518.6z"/>
<path class="st3" d="M542.5,71.5c0,1.4,1.7,1.4,4.6,1.4h0.9v1.8c-2.9-0.1-5.8-0.2-8.7-0.2c-2.6,0-5.1,0.2-7.7,0.2v-1.9h0.6
	c2.1,0,3.4-0.2,3.4-1.6V54.5c0-2-0.4-2.7-1.9-2.9c-0.7-0.1-1.3-0.2-2-0.4v-1.5c3.3-0.6,6.6-2,10.1-3.7l0.7,0.4v4.3h0.1
	c1.1-1.8,3.9-4.6,7.1-4.6c2.1,0,4,1,4,3.7c0,2.3-1.5,3.7-3.5,3.7c-2.4,0-2.4-2.4-4.3-2.4c-1.5,0-3.4,1.2-3.4,4.2L542.5,71.5
	L542.5,71.5z"/>
<path class="st3" d="M572.4,54.4c-0.3-3.5-1.6-6.1-5.6-6.1c-2.1,0-4.2,1.3-4.2,3.7c0,6.7,12.8,5.2,12.8,14.6c0,6.7-5.4,9.1-10.5,9.1
	c-3,0-5.2-0.9-7.3-1.6l-0.6-6.9l1.7-0.4c0.4,3.4,2.4,6.6,6.1,6.6c2.4,0,4.6-1.4,4.6-4.1c0-5.9-12.4-4.9-12.4-14.5
	c0-5.4,4.2-8.8,9.9-8.8c2.8,0,5,0.6,7.3,1.5c-0.2,2.2-0.3,4.4-0.1,6.5L572.4,54.4z"/>
<path class="st3" d="M384.2,31.8c-0.7,0-1.5,0-2.2,0c0,0-8.1,0-9.4,0c-3.1,0-6.4-0.2-8.7-0.2v1.9h0.7c3,0,4.1,0.7,4.1,4.9v29.6
	c0,4.9-2,5-3.9,5h-1v1.8c3.5,0,6.9-0.2,10.3-0.2c3.2,0,6.2,0.2,9.4,0.2v-1.8h-1c-3.2,0-5.9-0.1-5.9-5.1V34l5.2,0.1
	c5.8,0.3,8.6,4.1,8.6,9.8c0,6.1-2.2,10.5-7.2,10.6h-3.2v1.8h3.2c0,0,2.5,0,3.5-0.1c6.8-0.7,11.9-5.3,11.9-12.5
	C398.8,34.5,392.6,31.8,384.2,31.8z"/>
<path class="st3" d="M228.8,33.5h0.9v-1.9c-2.5,0-6.2,0.2-9.3,0.2c-3.3,0-7.3-0.2-10-0.2v1.9h1.2c2.2,0,4.8,0.2,4.8,3.5v13.5h-22.4
	V37c0-3.3,2.6-3.5,4.8-3.5h1.2v-1.9c-2.7,0-6.7,0.2-10,0.2c-3.1,0-6.9-0.2-9.3-0.2v1.9h0.9c2.2,0,4.6,0.3,4.6,3.5v32.4
	c0,3.2-2.4,3.5-4.6,3.5h-0.9v1.8c2.5,0,6.2-0.2,9.3-0.2c3.3,0,7.3,0.2,10,0.2v-1.8h-1.2c-2.2,0-4.8-0.2-4.8-3.5V54h22.4v15.4
	c0,3.3-2.6,3.5-4.8,3.5h-1.2v1.8c2.7,0,6.7-0.2,10-0.2c3.1,0,6.9,0.2,9.3,0.2v-1.8h-0.9c-2.2,0-4.6-0.3-4.6-3.5V37
	C224.2,33.8,226.5,33.5,228.8,33.5z"/>
<path class="st3" d="M255.4,68c-2.5,4.3-6.7,7.7-11.9,7.7c-7.8,0-12-7.2-12-14.2c0-7.8,5.2-15.4,13.7-15.4c6.4,0,9.8,4.7,9.7,10.8
	l-0.7,0.7h-16.7c0,6.3,2.9,12.6,9.6,12.6c3,0,5.4-1.1,7.4-3.3L255.4,68z M244.7,55.7c3.3,0,3.8-0.1,3.8-2.3c0-2.3-1.6-5.1-4.3-5.1
	c-3.8,0-5.9,3.6-6.6,7.4C237.6,55.7,244.7,55.7,244.7,55.7z"/>
<path class="st3" d="M276,55.3c0-3.6-2.1-5-4.9-5c-3.6,0-4.5,0.9-4.8,4.4c-0.1,1.7-3.5,2.5-4.4,2.5c-0.7,0-1.2-0.5-1.2-1.4
	c0-2.4,1.5-4.2,3.4-5.2c2-1,4.3-2.2,6.7-3.6c1.4-0.8,2.5-0.9,3.7-0.9c5.4,0,8.4,2.8,8.4,8.2v12.6c0,2.7,0.2,4.6,1.9,4.6
	c0.5,0,1.4-0.4,1.7-0.8l0.8,1.1c-1.9,2.3-3.5,3.9-6.5,3.9s-4.5-2-4.7-4.9c-2.7,2.7-5.5,4.9-9.5,4.9c-3.7,0-6.7-2.3-6.7-6.4
	c0-4.8,4-6.3,8.4-7.9l7.7-2.7L276,55.3L276,55.3z M276,60.9c-3.4,1.1-9.1,2.3-9.1,6.6c0,2.7,1.4,4,3.8,4c2.8,0,4.6-2.3,5.3-3.3V60.9
	z"/>
<path class="st3" d="M299.3,27.5l0.7,0.5V71c0,1.8,1.5,1.9,3.2,1.9h0.7v1.8c-2.4-0.1-4.7-0.2-7.1-0.2c-2.5,0-5.1,0.1-7.4,0.2v-1.8
	c2,0,3.6,0,3.6-1.9V36c0-1.3-0.2-1.9-1.6-2.5c-0.7-0.2-1.4-0.6-2-0.8v-1.5C292.2,30.5,296.3,29,299.3,27.5"/>
<path class="st3" d="M324.5,50.5h-7.4v16.9c0,2.6,1.5,3.3,3.3,3.3c1.5,0,2.5-0.4,3.6-1.1l0.8,1.1c-2.3,3-4.9,5-8.4,5
	c-4.7,0-6.2-3-6.2-6.4V50.5h-3.7V49c3.3-1.8,7.1-5.3,9.9-8.8l0.7,0.4V47h7.4V50.5z"/>
<path class="st3" d="M337.1,27.5l0.7,0.5v22.5c2.7-1.9,5.9-4.5,9.6-4.5c4.5,0,7.7,2.2,7.7,8v17.1c0,1.7,1.5,1.7,3,1.7h0.7v1.8
	c-2.4-0.1-4.6-0.2-7-0.2c-2.5,0-4.9,0.1-7.4,0.2v-1.8h0.6c1.2,0,3,0,3-1.6V55.9c0-3.8-1.9-5.2-4.7-5.2c-2,0-4.3,1.2-5.7,2.1v18.7
	c0,1.5,1.4,1.5,3,1.5h0.9v1.8c-2.4-0.1-4.7-0.2-7-0.2c-2.5,0-5,0.1-7.4,0.2v-1.8c2,0,3.6,0,3.6-1.9V36c0-1.3-0.2-1.9-1.6-2.5l-2-0.8
	v-1.5C330,30.5,334.1,29,337.1,27.5"/>
<g>
	<path class="st3" d="M584.6,46.1c2.5,0,4.5,2,4.5,4.5c0,2.5-2,4.5-4.5,4.5s-4.6-2-4.6-4.5C580,48,582.1,46.1,584.6,46.1L584.6,46.1
		z M584.6,46.9c-2,0-3.6,1.7-3.6,3.7c0,2.1,1.5,3.7,3.6,3.7c2,0,3.5-1.6,3.5-3.7S586.6,46.9,584.6,46.9L584.6,46.9z M583.8,53h-0.9
		v-4.7c0.5-0.1,1-0.1,1.6-0.1c0.8,0,1.2,0.1,1.5,0.4c0.3,0.2,0.5,0.6,0.5,1c0,0.6-0.4,1-0.9,1.1v0.1c0.4,0.2,0.6,0.5,0.8,1.1
		c0.1,0.7,0.2,1,0.3,1.2h-0.9c-0.1-0.2-0.2-0.6-0.4-1.2c-0.1-0.5-0.4-0.7-1.1-0.7h-0.6L583.8,53L583.8,53z M583.8,50.4h0.6
		c0.6,0,1.2-0.2,1.2-0.8c0-0.5-0.3-0.8-1.1-0.8c-0.3,0-0.5,0-0.7,0L583.8,50.4L583.8,50.4z"/>
</g>
<g>
	<path class="st0" d="M154.7,66.9c2.5,0,4.5,2,4.5,4.4c0,2.6-2,4.5-4.5,4.5c-2.6,0-4.6-2-4.6-4.5C150.1,68.9,152.1,66.9,154.7,66.9
		L154.7,66.9z M154.6,67.7c-2,0-3.6,1.7-3.6,3.7c0,2.1,1.5,3.7,3.6,3.7c2,0,3.5-1.6,3.5-3.7S156.7,67.7,154.6,67.7L154.6,67.7z
		 M153.8,73.9H153v-4.7c0.5-0.1,1-0.1,1.6-0.1c0.8,0,1.2,0.1,1.5,0.4c0.3,0.2,0.5,0.6,0.5,1c0,0.6-0.4,0.9-0.9,1.1v0.1
		c0.4,0.2,0.6,0.5,0.8,1.1c0.1,0.7,0.2,1,0.3,1.2h-0.9c-0.1-0.2-0.2-0.6-0.4-1.2c-0.1-0.5-0.4-0.7-1.1-0.7h-0.6L153.8,73.9
		L153.8,73.9z M153.8,71.2h0.6c0.6,0,1.2-0.2,1.2-0.8c0-0.4-0.3-0.8-1.1-0.8c-0.3,0-0.5,0-0.7,0.1V71.2z"/>
</g>
</svg>
