<svg xmlns="http://www.w3.org/2000/svg" xmlns:xlink="http://www.w3.org/1999/xlink" viewBox="0 0 430.02 57.14"><defs><style>.a{fill:#52b9e9;}.b{fill:url(#a);}.c{fill:url(#b);}.d{fill:#525459;}</style><linearGradient id="a" x1="31.53" y1="8.11" x2="9.97" y2="22.25" gradientUnits="userSpaceOnUse"><stop offset="0.03" stop-color="#62b4e4"/><stop offset="0.04" stop-color="#61b2e3"/><stop offset="0.27" stop-color="#478ecb"/><stop offset="0.49" stop-color="#3573ba"/><stop offset="0.69" stop-color="#2a64b0"/><stop offset="0.85" stop-color="#265eac"/></linearGradient><linearGradient id="b" x1="38.57" y1="31.86" x2="77.14" y2="31.86" xlink:href="#a"/></defs><path class="a" d="M38.57,50.66A46,46,0,0,1,24.93,56.3S14.36,59,9.13,54.68c0,0-19.17-14.34-2-48.08C7.18,6.6,1.89,27.46,38.57,50.66Z"/><path class="b" d="M19.43,35.33c3.53-10,19.14-24.8,19.14-24.8s-18.26-18.91-30-6a13.09,13.09,0,0,0-1.3,1.95A4.29,4.29,0,0,0,7,7.74C6.65,11.15,6.78,21.92,19.43,35.33Z"/><path class="c" d="M38.57,50.66A46,46,0,0,0,52.21,56.3S62.94,59,68,54.68c0,0,19.17-14.34,1.95-48.08C70,6.6,75.25,27.46,38.57,50.66Z"/><path class="a" d="M57.71,35.33c-3.53-10-19.14-24.8-19.14-24.8s18.26-18.91,30-6a12.32,12.32,0,0,1,1.3,1.95,4,4,0,0,1,.25,1.31C70.49,11.15,70.36,21.92,57.71,35.33Z"/><path class="d" d="M91.84,16.22h3.85v12H109.9v-12h3.84V43.63H109.9v-12H95.69v12H91.84Z"/><path class="d" d="M127,23.52c5.55,0,8.5,4.11,8.5,9.2,0,.51-.12,1.63-.12,1.63H121a6.43,6.43,0,0,0,6.76,6.49,9.39,9.39,0,0,0,5.83-2.29l1.55,2.75a11.68,11.68,0,0,1-7.61,2.8,10,10,0,0,1-10.41-10.29C117.12,27.56,121.35,23.52,127,23.52Zm4.66,8c-.12-3.38-2.22-5-4.74-5a5.62,5.62,0,0,0-5.75,5Z"/><path class="d" d="M149.31,31.36h.86V31c0-3.22-1.83-4.31-4.31-4.31a10,10,0,0,0-5.48,1.9l-1.55-2.75a12.31,12.31,0,0,1,7.34-2.33c5,0,7.76,2.72,7.76,7.69V43.63h-3.49V41.77a14.29,14.29,0,0,1,.08-1.55h-.08a6.79,6.79,0,0,1-6.29,3.88c-3.38,0-6.68-2.06-6.68-6C137.47,31.63,146,31.36,149.31,31.36ZM145,41.07c3.19,0,5.24-3.34,5.24-6.25V34.2h-1c-2.83,0-8,.19-8,3.72C141.27,39.52,142.52,41.07,145,41.07Z"/><path class="d" d="M158.36,16.22h3.77V37.61c0,2.37.93,2.8,2.09,2.8a5.81,5.81,0,0,0,.66,0v3.34a10.21,10.21,0,0,1-1.24.08c-2.14,0-5.28-.58-5.28-5.52Z"/><path class="d" d="M168.73,27.28h-2.57v-3h2.68V18.59h3.65v5.67h4.74v3h-4.74V36c0,3.92,2.76,4.43,4.2,4.43a4.4,4.4,0,0,0,.89-.08v3.34a10,10,0,0,1-1.32.08c-2.52,0-7.53-.78-7.53-7.34Z"/><path class="d" d="M180.84,16.22h3.77V26.27a16,16,0,0,1-.08,1.64h.08a7.92,7.92,0,0,1,7.26-4.39c4.62,0,6.76,2.52,6.76,7.53V43.63h-3.77V31.91c0-2.76-.58-4.94-3.73-4.94a6.5,6.5,0,0,0-6.21,4.86,9.27,9.27,0,0,0-.31,2.6v9.2h-3.77Z"/><path class="d" d="M211.13,16.22h3.8L227.13,34c1,1.48,2.29,4,2.29,4h.08s-.27-2.44-.27-4V16.22h3.84V43.63H229.3L217.07,25.85c-1-1.52-2.29-4-2.29-4h-.08s.27,2.44.27,4V43.63h-3.84Z"/><path class="d" d="M246.08,23.52c5.55,0,8.5,4.11,8.5,9.2,0,.51-.12,1.63-.12,1.63H240.13a6.43,6.43,0,0,0,6.76,6.49,9.39,9.39,0,0,0,5.83-2.29l1.55,2.75a11.68,11.68,0,0,1-7.61,2.8,10,10,0,0,1-10.41-10.29C236.25,27.56,240.48,23.52,246.08,23.52Zm4.66,8c-.12-3.38-2.22-5-4.74-5a5.62,5.62,0,0,0-5.75,5Z"/><path class="d" d="M255.9,24h4L264,37.77c.31,1,.46,2.1.5,2.1h.08a19.9,19.9,0,0,1,.5-2.1L269.34,24h3.45L277,37.77c.31,1,.55,2.1.55,2.1h.08a15.39,15.39,0,0,1,.46-2.1L282.23,24h4l-6.33,19.65H275.7L271.63,31c-.31-1-.55-2.13-.55-2.13H271s-.24,1.12-.55,2.13l-4,12.62h-4.19Z"/><path class="d" d="M296.67,16.22h15.92v3.34H300.52v8.58h9.82v3.34h-9.82v8.81h12.73v3.34H296.67Z"/><path class="d" d="M316.4,24h3.65v2.61A13.33,13.33,0,0,1,320,28h.08a8,8,0,0,1,7.38-4.5c4.62,0,6.75,2.52,6.75,7.53V43.63h-3.76V31.91c0-2.76-.59-4.94-3.73-4.94a6.45,6.45,0,0,0-6.22,4.82,9.43,9.43,0,0,0-.31,2.64v9.2H316.4Z"/><path class="d" d="M346,48.53c3.41,0,6.21-1.52,6.21-5.52V41.57c0-.62,0-1.24,0-1.24h-.08a6.23,6.23,0,0,1-5.82,3.07c-5.48,0-8.78-4.39-8.78-10.06s3.14-9.82,8.58-9.82c4.74,0,6.18,2.91,6.18,2.91h.07s0-.27,0-.62V24H356V42.82c0,6.48-4.94,9-9.91,9a15.31,15.31,0,0,1-6.71-1.63l1.24-2.95A12.63,12.63,0,0,0,346,48.53Zm6.29-15.15c0-5.12-2.49-6.6-5.56-6.6-3.41,0-5.35,2.48-5.35,6.48s2.17,6.88,5.7,6.88C349.79,40.14,352.28,38.51,352.28,33.38Z"/><path class="d" d="M360.66,16.22h3.77V37.61c0,2.37.93,2.8,2.1,2.8a5.81,5.81,0,0,0,.66,0v3.34a10.21,10.21,0,0,1-1.24.08c-2.14,0-5.29-.58-5.29-5.52Z"/><path class="d" d="M380.86,31.36h.85V31c0-3.22-1.83-4.31-4.31-4.31a10,10,0,0,0-5.48,1.9l-1.55-2.75a12.31,12.31,0,0,1,7.34-2.33c5,0,7.77,2.72,7.77,7.69V43.63H382V41.77a14.29,14.29,0,0,1,.08-1.55H382a6.79,6.79,0,0,1-6.29,3.88c-3.38,0-6.68-2.06-6.68-6C369,31.63,377.55,31.36,380.86,31.36Zm-4.35,9.71c3.18,0,5.24-3.34,5.24-6.25V34.2h-1c-2.84,0-8,.19-8,3.72C372.82,39.52,374.06,41.07,376.51,41.07Z"/><path class="d" d="M390.14,24h3.65v2.61a13.33,13.33,0,0,1-.08,1.43h.08a8,8,0,0,1,7.37-4.5c4.63,0,6.76,2.52,6.76,7.53V43.63h-3.76V31.91c0-2.76-.59-4.94-3.73-4.94a6.45,6.45,0,0,0-6.22,4.82,9.43,9.43,0,0,0-.31,2.64v9.2h-3.76Z"/><path class="d" d="M420.19,23.52c4.55,0,6.06,3.1,6.06,3.1h.08a10.75,10.75,0,0,1-.08-1.32V16.22H430V43.63h-3.58V41.77c0-.78,0-1.32,0-1.32h-.07A6.9,6.9,0,0,1,420,44.1c-5.32,0-8.66-4.2-8.66-10.29C411.3,27.56,415,23.52,420.19,23.52Zm.51,17.32c2.91,0,5.67-2.06,5.67-7.07,0-3.5-1.83-7-5.56-7-3.1,0-5.67,2.56-5.67,7C415.14,38.08,417.43,40.84,420.7,40.84Z"/></svg>