<?xml version="1.0" encoding="utf-8"?>
<!-- Generator: Adobe Illustrator 24.0.1, SVG Export Plug-In . SVG Version: 6.00 Build 0)  -->
<svg version="1.1" id="layer" xmlns="http://www.w3.org/2000/svg" xmlns:xlink="http://www.w3.org/1999/xlink" x="0px" y="0px"
	 viewBox="0 0 600 66.8" style="enable-background:new 0 0 600 66.8;" xml:space="preserve">
<style type="text/css">
	.st0{fill:#006BA6;}
</style>
<g id="Home">
	<g id="Home-Copy" transform="translate(-75.000000, -58.000000)">
		<g id="_x31_400-expanded" transform="translate(-1.500000, 0.000000)">
			<g id="top-bar">
				<g id="logo" transform="translate(76.000000, 58.000000)">
					<path id="Fill-1" class="st0" d="M45.2,20.2c-0.7-0.6-1.7-1.4-2.7-1.6L40.9,50l7.9-21.8C49.5,24.9,47.7,22.1,45.2,20.2"/>
					<path id="Fill-2" class="st0" d="M32.2,18.2l4.6,31.3l4.5-31.3C38.7,17.2,35.2,17.1,32.2,18.2"/>
					<path id="Fill-3" class="st0" d="M28.4,20.2c-2.5,2.1-4.3,4.8-3.6,8L32.7,50l-1.6-31.4C30.1,18.8,29.1,19.4,28.4,20.2"/>
					<path id="Fill-4" class="st0" d="M12.6,23.1c5.2,9.1,10.6,18.9,15.8,27.7c-1.9-7.7-3.7-20.4-6.4-24
						C18.9,22.5,12.6,23.1,12.6,23.1"/>
					<path id="Fill-5" class="st0" d="M3.3,27.7l21.5,24.7L11.4,23.2C8,23.4,5,25.1,3.3,27.7"/>
					<path id="Fill-6" class="st0" d="M48.2,34.4l-3.6,16.9c4.6-7.9,9.1-15.7,13.6-23.6C54,28,49.7,29.6,48.2,34.4"/>
					<path id="Fill-7" class="st0" d="M59.4,27.7L48,52.8l19.9-21.6C65.7,28.8,62.8,27.7,59.4,27.7"/>
					<path id="Fill-8" class="st0" d="M0.5,38.8c7,5.3,14,10.9,21,16.2L2.6,28.4C0.8,31.5,0.3,35,0.5,38.8"/>
					<path id="Fill-9" class="st0" d="M70.4,34.3c-0.4-0.9-0.9-1.6-1.6-2.2L51.6,55.5c6.8-5.1,13.4-10.3,19.9-15.3
						C71.7,38,71.4,36,70.4,34.3"/>
					<path id="Fill-10" class="st0" d="M0.5,49.7l18.3,8.4C12.7,52,6.6,46.2,0.5,40.3L0.5,49.7"/>
					<path id="Fill-11" class="st0" d="M71.7,50.3v-8.5L54.4,58.5C60.3,55.7,65.7,53.1,71.7,50.3"/>
					<path id="Fill-12" class="st0" d="M0.5,58c5.6,1.2,11.5,2.7,16.4,3.8L0.5,50.9V58"/>
					<path id="Fill-13" class="st0" d="M71.7,58.5v-6.6c-5.2,3.2-10.5,6.7-15.3,10L71.7,58.5"/>
					<path id="Fill-14" class="st0" d="M0.5,66.2h16.1L0.5,59.4V66.2"/>
					<path id="Fill-15" class="st0" d="M71.7,66.2V60c-5.3,2.2-9.9,4.1-14.8,6.2H71.7"/>
					<path id="Fill-16" class="st0" d="M66.1,19.3c0.1-9.6-14-9.6-13.7-0.1C52.3,28.1,66.5,28.6,66.1,19.3"/>
					<path id="Fill-17" class="st0" d="M66.1,19.3L66.1,19.3L66.1,19.3L66.1,19.3"/>
					<path id="Fill-18" class="st0" d="M20.1,14.4c0.5-9.6-14.6-9.3-14,0C5.7,24,21,24.1,20.1,14.4"/>
					<path id="Fill-19" class="st0" d="M36.8,16.2c5.6,0.1,7.8-4,7.9-7.8C44.9,2.5,41.2,0,36.8,0c-4.5,0-8,2.6-7.8,8.4
						C29.1,11.8,30.5,16.1,36.8,16.2"/>
					<path id="Fill-20" class="st0" d="M155.2,28.2h6.6v37.6h-6.6V28.2z"/>
					<path id="Fill-21" class="st0" d="M132.1,28.2L121,60.1l-10.9-13.6l14.5-18.3h-7.5L103.7,46V28.2h-6.6v37.6h6.6V47.3l13.8,18.5
						h1.5l0,0h6.4l3.5-10.9h13.8l3.6,10.9h6.8L140,28.2H132.1L132.1,28.2z M130.5,49.7l5.1-15.6h0.1l5.2,15.6H130.5L130.5,49.7z"/>
					<path id="Fill-22" class="st0" d="M374.2,55.4l-6.6-27.2h-11.5v37.6h6.4v-32l8.3,32h6.6c0.1,0,8.3-32,8.3-32v32h6.4V28.2h-11.2
						L374.2,55.4"/>
					<path id="Fill-23" class="st0" d="M408.6,28.2l-13.1,37.7h6.4l3.5-10.9h14l3.7,10.9h6.8l-13.1-37.7H408.6L408.6,28.2z
						 M407.1,49.7l5.1-15.6h0.1l5.3,15.6H407.1L407.1,49.7z"/>
					<path id="Fill-24" class="st0" d="M456.4,57.3l-15.1-29.1h-8.7v37.6h6.2V37.5l14.8,28.3h8.9V28.2h-6.3v29.1"/>
					<path id="Fill-25" class="st0" d="M580.4,60.4h-15.6V49.8h11.5v-5.4h-11.5V33.8c1.5,0,14.2,0,14.2,0v-5.4c-3.8,0-20.8,0-20.8,0
						v37.5h22L580.4,60.4"/>
					<path id="Fill-26" class="st0" d="M520.7,28.1L520.7,28.1h-1.2v29.4l-15.1-29.3h-8.7v32.1h-19.9V49.7h11.5v-5.4h-11.5V33.7
						c1.5,0,14.2,0,14.2,0v-5.4c-3.8,0-20.6,0-20.6,0v37.6h32h0.5V37.1l14.8,28.7h8.9V33.9h11.5v32h6.6v-32h11.2v-5.7L520.7,28.1"/>
					<path id="Fill-27" class="st0" d="M346.8,46.9c2.1-1.7,3.6-4.6,3.6-8c0-3.5-1.5-6.2-3.6-7.9c-2.3-2-5.6-2.7-11-2.7h-11v15.9
						l0,0v16.3h-20V49.9h11.5v-5.4h-11.5V33.9c1.5,0,14.2,0,14.2,0v-5.4c-3.8,0-20.8,0-20.8,0v37.7h33.1V50h3.2
						c3,4.7,9.4,16.1,9.4,16.1h7.8l-10.1-16.6C343.8,48.9,345.4,48,346.8,46.9L346.8,46.9z M331.4,44.3V33.7h5.6
						c4.9,0,6.9,2,6.9,5.2c0,3.6-2,5.3-6.9,5.3h-5.6V44.3z"/>
					<path id="Fill-28" class="st0" d="M243.4,46.9c2.1-1.7,3.6-4.6,3.6-8c0-3.5-1.5-6.2-3.6-7.9c-2.2-2-5.6-2.7-11-2.7h-11v15.9
						l0,0v16.3h-20V49.9h11.5v-5.4h-11.5V33.9c1.5,0,14.2,0,14.2,0v-5.4c-3.8,0-20.8,0-20.8,0v37.7h33.1V50h3.2
						c3,4.7,9.4,16.1,9.4,16.1h7.8l-10.1-16.6C240.6,48.9,242.2,48,243.4,46.9L243.4,46.9z M228.1,44.3V33.7h5.6
						c4.9,0,6.9,2,6.9,5.2c0,3.6-2,5.3-6.9,5.3h-5.6L228.1,44.3L228.1,44.3z"/>
					<path id="Fill-29" class="st0" d="M290.7,31.1c-2.3-2-5.6-2.8-11-2.8h-11v37.6h6.6V50.3h4.5c5.4,0,8.7-1,10.9-3
						c2.1-1.7,3.6-4.7,3.6-8.2S292.7,32.8,290.7,31.1L290.7,31.1z M280.9,44.8h-5.6V33.7h5.6c4.9,0,6.9,2.2,6.9,5.4
						C287.8,42.5,285.6,44.8,280.9,44.8L280.9,44.8z"/>
					<path id="Fill-30" class="st0" d="M181,43.9c-5.2-1.9-7.5-3.3-7.5-6.3c0-2.2,2.3-4.8,6.8-4.8c3.3,0,6.6,1.1,8.2,2v-5.4
						c-1.7-0.9-4.8-1.7-8-1.7c-8.2,0-13.7,4.6-13.7,10.6c0,5.4,4.2,8.8,10.5,10.9c4.9,1.7,7,3.5,7,6.4c0,3.2-2.7,5.4-7.3,5.4
						c-3.6,0-8-1.2-10.4-2.7v5.8c2.2,1.2,6.2,2.2,9.9,2.2c9.8,0,14.5-5.2,14.5-11.3C191,49.5,187.5,46.3,181,43.9"/>
					<path id="Fill-31" class="st0" d="M586.3,59.1c0-3.6,2.7-6.3,6.3-6.3c3.5,0,6.2,2.7,6.2,6.3c0,3.7-2.7,6.3-6.2,6.3
						C589.2,65.5,586.3,62.8,586.3,59.1L586.3,59.1z M592.7,66.8c4.2,0,7.8-3.2,7.8-7.7c0-4.3-3.6-7.7-7.8-7.7s-7.8,3.2-7.8,7.7
						C584.9,63.6,588.5,66.8,592.7,66.8L592.7,66.8z M591,59.7h1.5l2.3,3.8h1.5l-2.5-3.8c1.4-0.1,2.3-0.9,2.3-2.5
						c0-1.7-1-2.5-3.1-2.5h-3.3v8.8h1.4v-3.8H591z M591,58.6v-2.7h1.9c1,0,2,0.2,2,1.2c0,1.4-1,1.5-2.1,1.5H591L591,58.6z"/>
				</g>
			</g>
		</g>
	</g>
</g>
</svg>
