<svg xmlns="http://www.w3.org/2000/svg" width="116.048" height="25.158" viewBox="0 0 116.048 25.158"><path d="M643.171,516.848a3.394,3.394,0,0,0-6.491,0Zm-1.783,10.244h-2.635c-4.526-.461-7.765-3.247-7.765-8.023,0-5.067,3.6-8.119,8.737-8.119,5.476,0,8.645,3.26,8.645,8.445v.563H636.587c0,2.193,1.2,3.379,3.507,3.379a2.826,2.826,0,0,0,2.676-1.393h5.383c-.787,3.164-3.634,4.8-6.766,5.147Z" transform="translate(-601.926 -501.935)" fill="#006bb7"/><path d="M667.917,524.9h-5.6V514.138h-2.8v-4.445h2.8v-4.564h5.6v4.564h2.761v4.445h-2.761V524.9Z" transform="translate(-611.617 -499.935)" fill="#006bb7"/><path d="M708.211,526.739h-5.6V510.5h5.6v16.242Z" transform="translate(-626.256 -501.779)" fill="#006bb7"/><path d="M723.787,522.98h-5.6V512.748H715.4V508.3h2.788v-.794c0-2.1.062-3.645,1.6-5.335a7.285,7.285,0,0,1,5.507-2.43,5.155,5.155,0,0,1,2.4.534v4.652a4.946,4.946,0,0,0-1.969-.5c-1.446,0-1.938.83-1.938,2.549V508.3h3.344v4.445h-3.344V522.98Z" transform="translate(-630.6 -498.086)" fill="#006bb7"/><path d="M747.215,516.864a3.394,3.394,0,0,0-6.491,0Zm-1.7,10.234H742.7c-4.478-.488-7.672-3.268-7.672-8.011,0-5.067,3.6-8.12,8.736-8.12,5.477,0,8.644,3.26,8.644,8.446v.563H740.631c0,2.193,1.2,3.379,3.507,3.379a2.827,2.827,0,0,0,2.676-1.393H752.2c-.781,3.135-3.583,4.775-6.681,5.137Z" transform="translate(-637.268 -501.94)" fill="#006bb7"/><path d="M705.057,497.219a3.332,3.332,0,1,0,3.456,3.33,3.4,3.4,0,0,0-3.456-3.33Z" transform="translate(-625.912 -497.219)" fill="#006bb7"/><path d="M590.729,502.8h5.663l4.488,11.389,4.753-11.389h5.721l3.344,21.309h-5.75l-1.614-12.265h-.059l-5.31,12.265h-2.289L594.6,511.848h-.059L592.7,524.113h-5.721l3.754-21.309Z" transform="translate(-586.975 -499.137)" fill="#006bb7"/><path d="M685.843,519.118h7v4.766H680V502.232h5.843v16.886Z" transform="translate(-618.575 -498.941)" fill="#006bb7"/><path d="M758.684,506.668h.286c.238,0,.525,0,.525-.276,0-.23-.239-.276-.429-.276h-.382v.552Zm-.335-.827h.763c.478,0,.669.23.669.552a.47.47,0,0,1-.526.506l.574.827h-.335l-.525-.782h-.286v.782h-.335v-1.885Zm.668,2.483a1.529,1.529,0,0,0,0-3.058,1.529,1.529,0,1,0,0,3.058Zm0-3.31a1.773,1.773,0,1,1-1.862,1.793,1.806,1.806,0,0,1,1.862-1.793Z" transform="translate(-644.783 -499.896)" fill="#006bb7"/></svg>