<?xml version="1.0" encoding="utf-8"?>
<!-- Generator: Adobe Illustrator 24.0.1, SVG Export Plug-In . SVG Version: 6.00 Build 0)  -->
<svg version="1.1" id="layer" xmlns="http://www.w3.org/2000/svg" xmlns:xlink="http://www.w3.org/1999/xlink" x="0px" y="0px"
	 viewBox="0 0 623.6 110.1" style="enable-background:new 0 0 623.6 110.1;" xml:space="preserve">
<style type="text/css">
	.st0{fill:#0050A2;}
	.st1{fill:#F39B00;}
	.st2{fill:#888888;}
</style>
<g>
	<g>
		<g>
			<path class="st0" d="M620.5,54.3l-33.2,33.2c-5.6,5.6-14.8,5.6-20.4,0l-5-5l25.6-25.6c5.6-5.7,5.6-14.8,0-20.4L560.2,9.2l5-5
				c5.6-5.6,14.8-5.6,20.4,0l34.9,34.9C624.7,43.3,624.7,50.1,620.5,54.3"/>
			<path class="st1" d="M575.2,51.4l-21.9,21.9c-3.7,3.7-9.8,3.7-13.5,0l-3.3-3.3l16.9-16.9c3.7-3.7,3.7-9.8,0-13.5l-18-18l3.3-3.3
				c3.7-3.7,9.8-3.7,13.5,0l23,23C578,44.1,578,48.6,575.2,51.4"/>
			<path class="st1" d="M28,73.2L16.1,51.4c-2.2-3.9-3.9-7.8-5.2-11.1c0.2,3.7,0.4,8.8,0.4,13.6v19.3H0V22.6h15l11.1,20
				c2.2,4.2,4.3,8.5,6.1,12.4c-0.4-4.3-0.5-11-0.5-15.8V22.6h11.2v50.6H28z"/>
			<path class="st1" d="M69.9,57.2c-8.2,0-10.2,2.2-10.2,4.9c0,1.9,1.3,3.2,3.7,3.2c3.8,0,6.4-3.4,6.4-7.1L69.9,57.2L69.9,57.2z
				 M71,73.2c0-1.8,0-3.7,0.3-5.6h-0.1C69.4,71.5,65,74,59.8,74c-7.1,0-10.9-4.2-10.9-10.2c0-9.4,9.1-13.9,21-13.9v-1.4
				c0-3.1-1.7-4.6-6.7-4.6c-3.3,0-7.8,1-10.9,2.7l-0.9-9.4C55.2,36,60.2,35,64.9,35c12.8,0,16.4,4.8,16.4,13.3v16
				c0,2.7,0.1,5.9,0.3,8.8H71V73.2z"/>
			<path class="st1" d="M102.2,74c-8.6,0-11.4-2.8-11.4-12V44.7h-5.6v-8.8h5.6v-11l11.4-3.1v14.1h8.1v8.8h-8v14.7
				c0,3.8,1,5.1,3.8,5.1c1.3,0,3-0.3,4.2-0.6V73C107.8,73.6,104.9,74,102.2,74"/>
			<path class="st1" d="M116.3,35.9h11.4v37.2h-11.4V35.9z M122,32.1c-3.8,0-7-3-7-6.7s3.1-6.7,7-6.7s7,3,7,6.7
				C129,29,125.9,32.1,122,32.1"/>
			<path class="st1" d="M152,44.9c-3.6,0-7.1,2.8-7.1,9.3c0,6.8,2.2,10,6.9,10c4.1,0,7-3.4,7-9.7C158.7,48.1,156.7,44.9,152,44.9
				 M150.9,74c-10.8,0-17.9-5.3-17.9-18.6c0-12.1,8.3-20.3,19.7-20.3c11.3,0,17.8,6.3,17.8,18.7C170.5,65.8,162.1,74,150.9,74"/>
			<path class="st1" d="M198.4,73.2V49.5c0-3-0.8-4.8-3.4-4.8c-4,0-7.4,4.9-7.4,10.4v18.1h-11.4V35.9h10.6c0,1.3-0.1,4-0.4,5.8h0.1
				c2.3-3.8,6.4-6.7,12.4-6.7c8.3,0,11,5.3,11,11.8v26.3h-11.5V73.2z"/>
			<path class="st1" d="M236.4,57.2c-8.2,0-10.2,2.2-10.2,4.9c0,1.9,1.3,3.2,3.7,3.2c3.8,0,6.4-3.4,6.4-7.1v-1H236.4z M237.4,73.2
				c0-1.8,0-3.7,0.3-5.6h-0.1c-1.8,3.9-6.2,6.4-11.4,6.4c-7.1,0-10.9-4.2-10.9-10.2c0-9.4,9.1-13.9,21-13.9v-1.4
				c0-3.1-1.7-4.6-6.7-4.6c-3.3,0-7.8,1-10.9,2.7l-0.9-9.4c3.8-1.2,8.8-2.2,13.5-2.2c12.8,0,16.4,4.8,16.4,13.3v16
				c0,2.7,0.1,5.9,0.3,8.8h-10.6V73.2z"/>
			<rect x="255.5" y="18.5" class="st1" width="11.4" height="54.7"/>
			<path class="st0" d="M322.8,30.6c-4.2-1.7-8.8-2.7-13.5-2.7c-10.4,0-19.3,6.7-19.3,20.2c0,12.6,7.3,19.8,18.7,19.8
				c3.4,0,6.2-0.5,8.9-1.3V47.5h6.8v23.4c-5,1.9-11.2,2.9-16.7,2.9c-15.3,0-25.1-9.3-25.1-24.9c0-15.5,10.3-27,27.3-27
				c4.8,0,9.4,0.7,13.9,2.2L322.8,30.6z"/>
			<path class="st0" d="M347.5,40.2c-4.9,0-8.3,3.7-9.1,9.1h17.4C356,43.9,352.8,40.2,347.5,40.2 M362.5,54.2h-24.3
				c-0.3,10,3.8,14.2,11.8,14.2c3.8,0,7.9-0.9,10.9-2.3l0.6,5.5c-3.6,1.5-7.9,2.3-12.6,2.3c-11.5,0-17.6-6-17.6-19.1
				c0-11.2,6.1-19.5,16.6-19.5s14.9,7.1,14.9,15.7C362.7,51.8,362.6,52.9,362.5,54.2"/>
			<path class="st0" d="M393.3,73.2v-24c0-5.2-1.4-8.3-6.4-8.3c-6.1,0-10.6,6.2-10.6,14.5v17.9h-6.7V35.9h6.5c0,2.2-0.1,5.6-0.6,7.8
				l0.1,0.1c2.2-5.2,6.7-8.6,13.1-8.6c8.5,0,11.2,5.3,11.2,11.9v26.1H393.3z"/>
			<path class="st0" d="M423.1,40.2c-4.9,0-8.3,3.7-9.1,9.1h17.4C431.6,43.9,428.3,40.2,423.1,40.2 M438.1,54.2h-24.3
				c-0.3,10,3.8,14.2,11.8,14.2c3.8,0,7.9-0.9,10.9-2.3l0.6,5.5c-3.6,1.5-7.9,2.3-12.6,2.3c-11.5,0-17.6-6-17.6-19.1
				c0-11.2,6.1-19.5,16.6-19.5s14.9,7.1,14.9,15.7C438.3,51.8,438.2,52.9,438.1,54.2"/>
			<path class="st0" d="M463.6,41.9c-7.9-1.3-11.6,4.4-11.6,16.3v15h-6.7V35.9h6.5c0,2.3-0.2,5.8-0.8,8.8h0.2
				c1.6-5.2,5.4-10.3,12.8-9.5L463.6,41.9z"/>
			<path class="st0" d="M488.7,56c-13,0-15.8,4-15.8,7.3c0,3.1,2.2,5.2,5.7,5.2c6.1,0,10.1-6,10.1-11.8L488.7,56L488.7,56z
				 M489.1,73.2c0-2.6,0-5.3,0.4-7.4h-0.2c-1.8,4.6-6.5,8.1-12.7,8.1c-6.1,0-10.3-3.3-10.3-9.2c0-8.2,8.3-13.3,22.4-13.3v-2.8
				c0-5.2-2-7.9-8.2-7.9c-3.5,0-8,1.1-11.2,3.1l-0.7-5.8c3.6-1.5,8.1-2.7,13-2.7c10.7,0,13.8,5,13.8,12.4v14.8
				c0,3.5,0.1,7.5,0.1,10.7L489.1,73.2L489.1,73.2z"/>
			<rect x="504.7" y="18.5" class="st0" width="6.7" height="54.7"/>
			<rect x="393.3" y="89.9" class="st2" width="3.2" height="19.8"/>
			<path class="st2" d="M410.2,109.7v-9.4c0-1.8-0.5-2.9-2.2-2.9c-2.2,0-3.8,2.3-3.8,5.2v7h-3.1V95h3c0,0.8-0.1,2-0.2,2.8l0,0
				c0.9-1.9,2.6-3.2,5.1-3.2c3.3,0,4.3,2.1,4.3,4.7v10.2h-3.1V109.7z"/>
			<path class="st2" d="M420.3,110c-1.1,0-2.2-0.1-3.1-0.3l0.1-2.7c0.9,0.3,2.1,0.5,3.2,0.5c1.7,0,2.9-0.7,2.9-1.9
				c0-2.9-6.4-1.2-6.4-6.2c0-2.5,2.1-4.5,6-4.5c0.9,0,1.9,0.1,2.7,0.3l-0.1,2.6c-0.9-0.3-1.9-0.4-2.8-0.4c-1.7,0-2.6,0.7-2.6,1.8
				c0,2.8,6.5,1.4,6.5,6.2C426.6,108,424.2,110,420.3,110"/>
			<path class="st2" d="M439.5,109.7c0-0.8,0.1-2,0.2-2.8l0,0c-0.9,1.9-2.6,3.2-5.1,3.2c-3.3,0-4.3-2.1-4.3-4.7V95.2h3.1v9.4
				c0,1.8,0.5,2.9,2.2,2.9c2.2,0,3.8-2.3,3.8-5.2v-7h3.1v14.6h-3V109.7z"/>
			<path class="st2" d="M454.5,97.9c-2.9-0.5-4.3,1.5-4.3,5.9v5.9h-3.1V95.1h3c0,0.8-0.1,2.1-0.3,3.2h0.1c0.6-2,2.1-3.8,4.8-3.5
				L454.5,97.9z"/>
			<path class="st2" d="M464.5,103.1c-4.6,0-5.6,1.4-5.6,2.6c0,1.1,0.8,1.8,2,1.8c2.1,0,3.6-2.1,3.6-4.1V103.1z M464.7,109.7
				c0-0.9,0-1.9,0.1-2.7l0,0c-0.7,1.7-2.5,3-4.8,3c-2.5,0-4.1-1.4-4.1-3.7c0-3.3,3.3-5.3,8.6-5.3v-0.9c0-1.8-0.8-2.8-3.1-2.8
				c-1.4,0-3.1,0.4-4.3,1.2l-0.3-2.7c1.4-0.6,3.3-1,5.1-1c4.5,0,5.7,1.9,5.7,4.9v6c0,1.3,0,2.8,0.1,4H464.7z"/>
			<path class="st2" d="M481.4,109.7v-9.4c0-1.8-0.5-2.9-2.2-2.9c-2.2,0-3.8,2.3-3.8,5.2v7h-3.1V95h3c0,0.8-0.1,2-0.2,2.8l0,0
				c0.9-1.9,2.6-3.2,5.1-3.2c3.3,0,4.3,2.1,4.3,4.7v10.2h-3.1V109.7z"/>
			<path class="st2" d="M494.4,109.9c-3.8,0-6.5-1.8-6.5-7c0-4.6,2.4-8,7.4-8c1.1,0,2.2,0.1,3.2,0.4l-0.3,2.7
				c-0.9-0.3-1.9-0.6-2.9-0.6c-2.7,0-4,2-4,5c0,2.7,1,4.7,3.9,4.7c1.1,0,2.3-0.3,3.2-0.7l0.3,2.7C497.5,109.6,496,109.9,494.4,109.9
				"/>
			<path class="st2" d="M507,97.2c-1.8,0-3,1.3-3.3,3.3h6.2C510,98.4,508.9,97.2,507,97.2 M513,102.6h-9.3c-0.1,3.4,1.4,4.9,4.3,4.9
				c1.5,0,3.1-0.4,4.3-0.9l0.3,2.5c-1.5,0.6-3.3,0.9-5,0.9c-4.5,0-7-2.3-7-7.5c0-4.4,2.4-7.7,6.7-7.7c4.2,0,6,2.8,6,6.3
				C513.1,101.6,513.1,102.1,513,102.6"/>
		</g>
	</g>
</g>
</svg>
