<?xml version="1.0" encoding="utf-8"?>
<!-- Generator: Adobe Illustrator 24.0.1, SVG Export Plug-In . SVG Version: 6.00 Build 0)  -->
<svg version="1.1" id="layer" xmlns="http://www.w3.org/2000/svg" xmlns:xlink="http://www.w3.org/1999/xlink" x="0px" y="0px"
	 viewBox="0 0 623.6 134.9" style="enable-background:new 0 0 623.6 134.9;" xml:space="preserve">
<style type="text/css">
	.st0{fill:#2E1E82;}
	.st1{fill:#009591;}
</style>
<path class="st0" d="M27.5,62.2c18.2,0,27.5,13.1,27.5,28c0,15.2-8.3,29.3-27.5,29.3S0,105.5,0,90.2C0,75.3,9.3,62.2,27.5,62.2
	 M27.5,117.2c11.7,0,12.9-12.6,12.9-26.6c0-16.8-2.4-26.2-12.9-26.2s-12.9,9.4-12.9,26.2C14.6,104.6,15.8,117.2,27.5,117.2"/>
<path class="st0" d="M57.2,132.7h3c2.8,0,3.3-2.5,3.3-6.3V92.8c0-8.2,0.3-10.9-3.9-10.9h-2.2v-2.2H65c3.7,0,7.5-0.5,10.5-1.2v7.2
	h0.2c2.4-5.1,7.4-7.2,12.8-7.2c12.7,0,16.8,10.8,16.8,20.6c0,9.3-4.5,20.4-16.7,20.4c-5.4,0-10.5-2.2-12.5-6.2h-0.2v11
	c0,6.5,0,8.4,3.6,8.4h2.8v2.2H57.2V132.7z M85.1,115.6c6.7,0,6.7-14,6.7-17.8c0-3.7,0-15.6-6.6-15.6c-8.2,0-8.9,10.6-8.9,15.9
	C76.2,103.2,76.3,115.6,85.1,115.6"/>
<path class="st0" d="M138.9,116h3c2.6,0,3.5-1,3.5-5.2V87.2c0-4.2-0.9-5.2-3.5-5.2h-3v-2.2h9.1c3.5,0,7.6-0.4,10.2-1.2
	c-0.6,6.1-0.4,12-0.4,17.9v14.3c0,4.2,0.9,5.2,3.5,5.2h2.9v2.2h-25.3V116z M151.6,60.9c4,0,7.3,2.9,7.3,6.5c0,3.5-3.3,6.5-7.3,6.5
	s-7.3-2.9-7.3-6.5S147.6,60.9,151.6,60.9"/>
<path class="st0" d="M199.7,118.2V91.3c0-3.8,0-8.2-5.6-8.2c-8.3,0-8.3,8.5-8.3,13.2v14.5c0,4.2,0.9,5.2,3.5,5.2h1.9v2.2h-24.3V116
	h3c2.6,0,3.5-1,3.5-5.2V87.2c0-4.2-0.9-5.2-3.5-5.2h-3v-2.2h9.1c3.2,0,6.3-0.5,9.3-1.2v6.9h0.2c3.5-4.4,7.6-6.9,14.1-6.9
	c5.9,0,10.2,1.9,11.9,6.9c3.7-4.8,7.3-6.9,14.5-6.9c8.5,0,12.7,4.5,12.7,10.9v21.3c0,4.2,0.9,5.2,3.5,5.2h1.9v2.2h-17.9V91.3
	c0-3.8,0-8.2-5.6-8.2c-8.3,0-8.3,8.5-8.3,13.2v14.5c0,4.2,0.9,5.2,3.5,5.2h1.9v2.2L199.7,118.2L199.7,118.2z"/>
<path class="st0" d="M136.5,110.8c-0.3,2.6-1.4,4.8-4.6,4.8c-4.8,0-4.8-4.4-4.8-9V81.8h9.1v-2.2h-9.1V64.8h-2.6
	c-1.9,6.9-7.4,14.3-16,14.8v2.2h6.1v27.5c0,5.2,3.4,10.1,12.3,10.1c7.1,0,10.6-2.7,11.2-8.8L136.5,110.8z"/>
<path class="st0" d="M290.4,110.6c-0.2,2.9-0.9,5.4-3.3,5.4c-1.7,0-2.6-1.7-2.6-3.8V89.3c0-8.9-9.5-10.9-17.8-10.9
	c-6.2,0-17.5,1.6-17.5,8.9c0,3.5,2.6,5.7,6.5,5.7c3.4,0,6.5-1.9,6.5-5.2c0-2.1-1.9-3.5-1.9-4.4c0-2,4-2.3,5.9-2.3
	c4.6,0,5.8,2.8,5.8,6.2v8.1c-1.3-0.1-2.5-0.1-3.8-0.1c-9.5,0-22,3.4-22,13.3c0,7.1,6.2,10.8,13.6,10.8c4.8,0,10.2-1.3,12.7-5.2
	c1.5,3.5,6,5.2,9.5,5.2c8.6,0,10.3-4.4,10.7-8.8L290.4,110.6z M272,107.7c0,6.6-4.5,7.9-6.8,7.9c-4.4,0-6-3.5-6-7
	c0-6.9,3.1-11,10.2-11c0.8,0,1.5,0.1,2.6,0.3L272,107.7L272,107.7z"/>
<path class="st1" d="M299.6,116h3.4c3.1,0,3.8-1.3,3.8-5.7V73.5c0-7.6-0.1-8.4-5-8.4h-2.1v-2.2h22.1v2.2h-2.9
	c-4.1,0-4.2,1.6-4.2,7.4v15.9h27.8V72.5c0-5.8-0.1-7.4-4.2-7.4h-2.9v-2.2h22.1v2.2h-2.1c-4.9,0-5,0.8-5,8.4v36.8
	c0,4.4,0.7,5.7,3.8,5.7h3.4v2.3h-22.1V116h2.7c4.2,0,4.5-1.2,4.5-6.8V90.6h-28.2v18.6c0,5.6,0.3,6.8,4.5,6.8h2.7v2.3h-22.1V116z"/>
<path class="st1" d="M367.2,99.1c0,6.8,0.4,18.1,11,18.1c7.7,0,12.6-5.6,13-12.3h3.6c-0.6,9.1-7.1,14.5-17.5,14.5
	c-13.2,0-18.8-8.8-18.8-19.6c0-10.7,4.9-21.4,18.8-21.4c12.6,0,18.1,11,18.1,20.6L367.2,99.1L367.2,99.1z M386.9,96.8
	c0-5.7-0.5-16.1-9.6-16.1s-10.1,10.2-10.1,16.1H386.9z"/>
<path class="st1" d="M442.6,111.2c-0.8,5.5-3.3,7.9-7.4,8.3c-3.8,0.4-7.4-1.5-7.8-5.1h-0.2c-2.5,3.5-6.7,5.1-11.4,5.1
	c-7.9,0-14.6-3.2-14.6-10.3c0-12,13.7-13.9,25.8-13.9v-7.5c0-3.9-2.9-7.1-7-7.1c-3,0-6.4,0.4-7.1,3.3c1.1,1.2,1.5,2.1,1.5,3.3
	c0,2.2-2.3,3.8-4.7,3.8c-3.4,0-5.2-2.3-5.2-5.1c0-5.9,9.6-7.6,15.4-7.6c9,0,14.4,3.4,14.4,9.9v22.5c0,2.2,0,5.7,2.6,5.7
	s3.1-2.5,3.6-5.5L442.6,111.2z M418.2,116.7c6,0,8.9-4.8,8.9-9.6v-9.7c-10.1,0-17.2,2.2-17.2,11.4
	C409.8,113.5,412.8,116.7,418.2,116.7"/>
<path class="st1" d="M458.7,109.9c0,6.1,0.8,6.1,4.2,6.1h3.1v2.3h-21.7V116h3c3.4,0,4.2,0,4.2-6.1V68.7c0-4-0.1-6.1-4.6-6.1h-2.6
	v-2.3h14.5v49.6H458.7z"/>
<path class="st1" d="M478.9,67.4v12.3h10.8v2.7h-10.8l0.2,29.7c0,2.6,0.7,4.3,2.7,4.5c3.6,0.2,5.5-2.7,5.8-5.6h1.9
	c-1.1,7-7.1,8.4-9.1,8.4c-8.1,0.2-8.7-4.2-8.7-9.8V82.4h-7.8v-2.7c7.6-0.2,11.2-5.6,12.2-12.3H478.9z"/>
<path class="st1" d="M489.6,116h3c3.4,0,4.2,0,4.2-6.1V68.7c0-4-0.1-6.1-4.6-6.1h-2.6v-2.3h14.5v24.8h0.2c3.1-4.2,8.1-6.6,13.1-6.6
	c12.6,0,14.5,5.5,14.5,11.7v19.7c0,6.1,0.8,6.1,4.2,6.1h3v2.3h-21.6V116h3c3.4,0,4.2,0,4.2-6.1V92.4c0-6.4-1.8-10.7-8.5-10.7
	c-8,0-12,5.9-12,12.4v15.8c0,6.1,0.8,6.1,4.2,6.1h3v2.3h-21.6V116H489.6z"/>
<path class="st1" d="M571.5,21.4c-18,0-32.5,7.7-32.5,17.3c0,4.3,3.8,8.3,10,11.1c-6.2,3.1-10,7.6-10,12.5
	c0,8.4,14.3,15.4,32.3,15.4c1.2,0,2.3,0,3.4,0l0.4,8.3h0.2l0,0c2.4,0,3,0,3.9,0c18,0,32.5-7.7,32.5-17.2c0-4.3-3.8-8.3-10-11.1
	c6.2-3.1,10-7.6,10-12.5c0-8.4-14.3-15.4-32.3-15.4h-0.5l0.5-8.1C577.8,21.4,573.1,21.4,571.5,21.4 M572.2,30.6l0.7,12.4l0.1,2
	c-0.7,0-1.1,0-1.5,0c-6.4,0-12.4,1-17.4,2.7c-2.2-1.7-3.5-3.7-3.5-5.8C550.6,36.3,559.6,31.4,572.2,30.6 M550.6,65.4
	c0-5.7,9.6-10.8,22.9-11.3l1.2,22.6C561.6,76.5,550.6,71.6,550.6,65.4 M576.1,76.7l0.9-14.4c1.2,0,1.7,0,2.3,0
	c6.4,0,12.4-1,17.4-2.7c2.2,1.7,3.5,3.6,3.5,5.8C600.2,71.3,590,76.6,576.1,76.7 M577.6,53.1l1.4-22.5c11.9,0.8,21.3,5.5,21.3,11.2
	C600.2,47.5,590.7,52.6,577.6,53.1"/>
<path class="st1" d="M575.5,15.8c4.5,0,8.1-3.6,8.1-7.9c0-4.4-3.6-7.9-8.1-7.9s-8.1,3.5-8.1,7.9C567.4,12.2,571.1,15.8,575.5,15.8"
	/>
<path class="st1" d="M623.6,80.2c0,3.1-2.6,5.7-5.8,5.7s-5.8-2.5-5.8-5.7c0-3.1,2.6-5.7,5.8-5.7C621,74.5,623.6,77.1,623.6,80.2
	 M612.7,80.2c0,2.7,2.3,5,5.1,5s5.1-2.2,5.1-5c0-2.7-2.3-5-5.1-5S612.7,77.5,612.7,80.2 M618,77.3c1.3,0,2.1,0.6,2.1,1.6
	c0,0.7-0.4,1.4-1.7,1.7c0.8,0.5,1,0.6,1.9,2.7h-0.9c-1.1-2.3-1.4-2.6-2.8-2.6h-0.4v2.6h-0.7v-6L618,77.3L618,77.3z M617.2,80.1
	c1.4,0,2-0.3,2-1.1c0-0.8-0.5-1.1-1.8-1.1h-1.1v2.2H617.2z"/>
</svg>
