<svg xmlns="http://www.w3.org/2000/svg" viewBox="0 0 906.59 260.54"><defs><style>.cls-1{fill:#2552a2;}.cls-2{fill:#5378ae;}</style></defs><title>pb_colorAsset 1</title><g id="Layer_2" data-name="Layer 2"><g id="Layer_2-2" data-name="Layer 2"><path class="cls-1" d="M303.25,56.61c-7.08-16.49-18.3-31-33.19-41C224.45-15,166.9,6.35,155.94,21.27,145,6.35,87.43-15,41.82,15.62c-14.89,10-26.11,24.5-33.19,41C1.2,73.91-.71,89.58.22,103a89.21,89.21,0,0,0,26.24,56.73l78.79,78.79A75,75,0,0,0,148.71,260a49.58,49.58,0,0,0,14.46,0,75,75,0,0,0,43.46-21.49l78.79-78.79A89.21,89.21,0,0,0,311.66,103C312.59,89.58,310.68,73.91,303.25,56.61Zm-109.82,168a55.82,55.82,0,0,1-23.6,14.3,57.3,57.3,0,0,1-13.89,2.31h0a57.3,57.3,0,0,1-13.89-2.31,55.82,55.82,0,0,1-23.6-14.3L72.24,178.17c37.13-33.56,83.7-32.48,83.7-32.48h0s46.57-1.08,83.7,32.48Zm59.85-60.85a127.11,127.11,0,0,0-16.37-12.52l25.81-44.71a9.79,9.79,0,0,0-17-9.79l-25.82,44.72a158.51,158.51,0,0,0-16.52-7.14l19.63-75.37a9.79,9.79,0,0,0-19-4.93l-19.49,74.81A135.89,135.89,0,0,0,165.49,126V79.06a9.79,9.79,0,0,0-9.79-9.79h0a9.79,9.79,0,0,0-9.79,9.79v47.17A154.42,154.42,0,0,0,127.24,129L107.72,54a9.79,9.79,0,1,0-19,4.93l19.62,75.33a155.86,155.86,0,0,0-16.65,6.95L66.05,96.73a9.79,9.79,0,0,0-17,9.79l25.63,44.4a108.62,108.62,0,0,0-16.57,13s-31.88-24.24-36.9-53.38,2.63-64.35,45.14-85.49c44.54-20.66,85.25,16,89.55,23.4,0,0,17.37-25.34,55.61-28.83s65.73,23.28,75.14,47.73S296.18,128.11,253.28,163.75Z"/><path class="cls-1" d="M344,43.13a2.42,2.42,0,0,1,2.42-2.42h30c15.68,0,28.56,12.75,28.56,28.18a28.68,28.68,0,0,1-28.43,28.69H360.62v30a2.51,2.51,0,0,1-2.43,2.42H346.46a2.42,2.42,0,0,1-2.42-2.42ZM375.41,82a13.13,13.13,0,0,0,13.13-13.26c0-7-6-12.37-13.13-12.37H360.62V82Z"/><path class="cls-1" d="M421.06,43.13a2.42,2.42,0,0,1,2.42-2.42H460a27.62,27.62,0,0,1,27.8,27.42c0,11.73-7.78,21.29-18.88,25.75l17.47,32.39a2.41,2.41,0,0,1-2.16,3.7H470.79a2.18,2.18,0,0,1-2-1.15L451.79,95H437.63v32.52a2.51,2.51,0,0,1-2.42,2.42H423.48a2.42,2.42,0,0,1-2.42-2.42Zm37.49,38.26a13,13,0,0,0,12.62-13A12.69,12.69,0,0,0,458.55,56H437.76V81.39Z"/><path class="cls-1" d="M546.91,39.43a45.91,45.91,0,1,1-45.78,46A45.82,45.82,0,0,1,546.91,39.43Zm0,75.24a29.33,29.33,0,1,0-29.2-29.2A29.39,29.39,0,0,0,546.91,114.67Z"/><path class="cls-1" d="M605.82,117.47l4.59-7.9a2.94,2.94,0,0,1,4.33-.89c.64.38,11,7.9,19.26,7.9,6.63,0,11.6-4.33,11.6-9.82,0-6.5-5.48-11-16.19-15.3-12-4.84-24-12.5-24-27.54,0-11.35,8.42-24.49,28.69-24.49,13,0,23,6.63,25.51,8.55a3.16,3.16,0,0,1,.76,4.21l-4.84,7.26c-1,1.53-2.94,2.55-4.47,1.53-1-.63-10.71-7-17.72-7-7.27,0-11.22,4.85-11.22,8.93,0,6,4.72,10.07,15,14.28,12.37,5,26.66,12.37,26.66,28.82,0,13.13-11.35,25.25-29.33,25.25-16.07,0-25.51-7.53-28.06-10C605.31,120.15,604.67,119.51,605.82,117.47Z"/><path class="cls-1" d="M681.68,43.13a2.42,2.42,0,0,1,2.43-2.42h30c15.69,0,28.57,12.75,28.57,28.18A28.68,28.68,0,0,1,714.2,97.58H698.26v30a2.51,2.51,0,0,1-2.42,2.42H684.11a2.42,2.42,0,0,1-2.43-2.42ZM713.05,82a13.14,13.14,0,0,0,13.14-13.26c0-7-6-12.37-13.14-12.37H698.26V82Z"/><path class="cls-1" d="M758.7,43.13a2.42,2.42,0,0,1,2.42-2.42H813a2.42,2.42,0,0,1,2.42,2.42V53.59A2.42,2.42,0,0,1,813,56H775.28V76.92h31.49a2.51,2.51,0,0,1,2.43,2.43V89.93a2.42,2.42,0,0,1-2.43,2.42H775.28v22.32H813a2.42,2.42,0,0,1,2.42,2.42v10.46A2.42,2.42,0,0,1,813,130h-51.9a2.42,2.42,0,0,1-2.42-2.42Z"/><path class="cls-1" d="M835.21,43.13a2.42,2.42,0,0,1,2.42-2.42H874.1a27.62,27.62,0,0,1,27.8,27.42c0,11.73-7.78,21.29-18.88,25.75l17.47,32.39a2.41,2.41,0,0,1-2.16,3.7H884.94a2.18,2.18,0,0,1-2-1.15L865.94,95H851.78v32.52a2.5,2.5,0,0,1-2.42,2.42H837.63a2.42,2.42,0,0,1-2.42-2.42ZM872.7,81.39a13,13,0,0,0,12.62-13A12.69,12.69,0,0,0,872.7,56H851.91V81.39Z"/><path class="cls-2" d="M341,150.1a1.78,1.78,0,0,1,1.78-1.78h21.45c11.15,0,19.76,7.49,19.76,17.33,0,7.21-5.9,12.83-10.3,14.89,5,1.59,12.18,6.65,12.18,15.27,0,10.49-9,18.08-20.42,18.08H342.74a1.78,1.78,0,0,1-1.78-1.78Zm22.11,25.76c4.77,0,8.05-3.75,8.05-8.43a7.65,7.65,0,0,0-8.05-8H353v16.4Zm1.31,27a8.36,8.36,0,0,0,8.43-8.52c0-4.68-4.69-8.15-9.56-8.15H353v16.67Z"/><path class="cls-2" d="M421.24,150.1a1.78,1.78,0,0,1,1.78-1.78h38.13a1.78,1.78,0,0,1,1.78,1.78v7.68a1.78,1.78,0,0,1-1.78,1.78H433.42v15.36h23.14a1.85,1.85,0,0,1,1.78,1.78v7.77a1.78,1.78,0,0,1-1.78,1.78H433.42v16.4h27.73a1.78,1.78,0,0,1,1.78,1.78v7.68a1.78,1.78,0,0,1-1.78,1.78H423a1.78,1.78,0,0,1-1.78-1.78Z"/><path class="cls-2" d="M498.81,149.07a1.76,1.76,0,0,1,1.78-1.69h2.34l39,41.4H542V150.1a1.78,1.78,0,0,1,1.78-1.78h8.62a1.84,1.84,0,0,1,1.78,1.78v63a1.75,1.75,0,0,1-1.78,1.68h-2.25l-39.15-43h-.1v40.28a1.78,1.78,0,0,1-1.78,1.78h-8.52a1.85,1.85,0,0,1-1.78-1.78Z"/><path class="cls-2" d="M593.71,150.1a1.77,1.77,0,0,1,1.78-1.78h38.12a1.78,1.78,0,0,1,1.78,1.78v7.68a1.78,1.78,0,0,1-1.78,1.78H605.88v15.36H629a1.84,1.84,0,0,1,1.78,1.78v7.77a1.78,1.78,0,0,1-1.78,1.78H605.88v16.4h27.73a1.78,1.78,0,0,1,1.78,1.78v7.68a1.78,1.78,0,0,1-1.78,1.78H595.49a1.78,1.78,0,0,1-1.78-1.78Z"/><path class="cls-2" d="M671.27,150.1a1.78,1.78,0,0,1,1.78-1.78h38.13A1.78,1.78,0,0,1,713,150.1v7.68a1.78,1.78,0,0,1-1.78,1.78H683.45v17.61h23.14a1.84,1.84,0,0,1,1.78,1.78v7.68a1.84,1.84,0,0,1-1.78,1.78H683.45v23.7a1.85,1.85,0,0,1-1.78,1.78h-8.62a1.78,1.78,0,0,1-1.78-1.78Z"/><path class="cls-2" d="M746.59,150.1a1.84,1.84,0,0,1,1.78-1.78h8.71a1.84,1.84,0,0,1,1.78,1.78v62a1.85,1.85,0,0,1-1.78,1.78h-8.71a1.85,1.85,0,0,1-1.78-1.78Z"/><path class="cls-2" d="M807.2,159.56H792.87a1.78,1.78,0,0,1-1.78-1.78V150.1a1.78,1.78,0,0,1,1.78-1.78H833.8a1.78,1.78,0,0,1,1.78,1.78v7.68a1.78,1.78,0,0,1-1.78,1.78H819.47v52.55a1.85,1.85,0,0,1-1.78,1.78H809a1.85,1.85,0,0,1-1.78-1.78Z"/><path class="cls-2" d="M864,204.71l3.37-5.81a2.18,2.18,0,0,1,3.19-.66c.47.29,8.05,5.81,14.14,5.81,4.87,0,8.53-3.18,8.53-7.21,0-4.78-4-8.06-11.9-11.24-8.81-3.56-17.61-9.18-17.61-20.23,0-8.34,6.18-18,21.08-18a32.92,32.92,0,0,1,18.73,6.28,2.31,2.31,0,0,1,.56,3.09l-3.56,5.34c-.75,1.12-2.15,1.87-3.28,1.12-.74-.47-7.86-5.15-13-5.15-5.33,0-8.24,3.56-8.24,6.56,0,4.4,3.47,7.4,11,10.49,9.09,3.65,19.58,9.08,19.58,21.17,0,9.65-8.33,18.54-21.54,18.54-11.81,0-18.74-5.52-20.61-7.3C863.6,206.68,863.13,206.21,864,204.71Z"/></g></g></svg>