<svg width="32" height="26" viewBox="0 0 32 26" fill="none" xmlns="http://www.w3.org/2000/svg">
  <path d="M11.0583 13.9621C9.91729 13.9621 8.80192 14.3004 7.85322 14.9343C6.90451 15.5682 6.16509 16.4692 5.72845 17.5233C5.29181 18.5775 5.17756 19.7374 5.40016 20.8565C5.62276 21.9756 6.1722 23.0035 6.979 23.8103C7.78581 24.6171 8.81375 25.1666 9.93282 25.3892C11.0519 25.6118 12.2118 25.4975 13.266 25.0609C14.3201 24.6242 15.2211 23.8848 15.855 22.9361C16.4889 21.9874 16.8273 20.872 16.8273 19.731C16.8273 18.201 16.2195 16.7337 15.1376 15.6518C14.0557 14.5699 12.5883 13.9621 11.0583 13.9621ZM11.0583 22.1348C10.5829 22.1348 10.1181 21.9938 9.72284 21.7297C9.32755 21.4655 9.01946 21.0901 8.83752 20.6509C8.65559 20.2117 8.60799 19.7284 8.70074 19.2621C8.79348 18.7958 9.02242 18.3675 9.35859 18.0313C9.69476 17.6952 10.1231 17.4662 10.5893 17.3735C11.0556 17.2807 11.5389 17.3283 11.9782 17.5103C12.4174 17.6922 12.7928 18.0003 13.0569 18.3956C13.3211 18.7909 13.462 19.2556 13.462 19.731C13.462 20.3685 13.2088 20.9799 12.758 21.4307C12.3072 21.8815 11.6958 22.1348 11.0583 22.1348Z" fill="#211C54"/>
  <path d="M0 17.808C0 18.318 0.202601 18.8072 0.563232 19.1678C0.923863 19.5284 1.41298 19.731 1.92299 19.731H3.84599C3.86926 17.8337 4.63932 16.0219 5.98926 14.6884C7.3392 13.355 9.16026 12.6072 11.0578 12.6072C12.9553 12.6072 14.7763 13.355 16.1263 14.6884C17.4762 16.0219 18.2463 17.8337 18.2695 19.731H29.3278C29.5806 19.7315 29.831 19.682 30.0647 19.5856C30.2984 19.4891 30.5108 19.3476 30.6897 19.1689C30.8686 18.9903 31.0105 18.7782 31.1074 18.5447C31.2042 18.3112 31.2541 18.0608 31.2541 17.808V6.4144H0V17.808ZM20.1925 11.5583H22.5963V9.15456H25V11.5583H27.4048V13.962H25V16.3658H22.5963V13.962H20.1925V11.5583Z" fill="#211C54"/>
  <path d="M29.3278 0.499972H1.92299C1.41298 0.499972 0.923863 0.702573 0.563232 1.0632C0.202601 1.42384 0 1.91296 0 2.42297L0 3.52988H31.2541V2.42297C31.2541 2.17016 31.2042 1.91984 31.1074 1.68632C31.0105 1.45279 30.8686 1.24066 30.6897 1.06205C30.5108 0.883443 30.2984 0.741864 30.0647 0.645416C29.831 0.548968 29.5806 0.499544 29.3278 0.499972Z" fill="#211C54"/>
  </svg>