<?xml version="1.0" encoding="utf-8"?>
<!-- Generator: Adobe Illustrator 24.0.0, SVG Export Plug-In . SVG Version: 6.00 Build 0)  -->
<svg version="1.1" id="Layer_2" xmlns="http://www.w3.org/2000/svg" xmlns:xlink="http://www.w3.org/1999/xlink" x="0px" y="0px"
	 viewBox="0 0 231 44" style="enable-background:new 0 0 231 44;" xml:space="preserve">
<style type="text/css">
	.st0{fill:#626366;}
	.st1{fill:#00A9A0;}
	.st2{fill:#F58025;}
</style>
<g>
	<g>
		<path class="st0" d="M10.2,31.8c0,0.9-0.7,1.6-1.6,1.6c-0.9,0-1.6-0.7-1.6-1.6c0-0.9,0.7-1.6,1.6-1.6
			C9.5,30.3,10.2,30.9,10.2,31.8z M7.3,31.8c0,0.8,0.6,1.4,1.3,1.4c0.8,0,1.3-0.6,1.3-1.4c0-0.8-0.6-1.4-1.3-1.4
			C7.9,30.5,7.3,31.1,7.3,31.8z M8.3,32.7H8.1v-1.8h0.7c0.4,0,0.6,0.2,0.6,0.5c0,0.3-0.2,0.5-0.5,0.5l0.5,0.8H9.2l-0.5-0.8H8.3V32.7
			z M8.6,31.7c0.3,0,0.5,0,0.5-0.3c0-0.3-0.2-0.3-0.4-0.3H8.3v0.6H8.6z"/>
	</g>
	<path class="st1" d="M22.6,11.8H33v10.8h-3.9c0-0.1,0-0.3,0-0.5c0-2.6-2.1-4.8-4.3-5.9c-1.6-0.8-2.9-1.4-4.5-2
		c-1.6-0.7-2.9-1.2-4.5-2c-2.2-1.1-4.3-3.3-4.3-5.9c0-2.2,1.5-4,3.5-4.7C16.6,1.1,18,1,19.5,1h3.1V11.8z"/>
	<path class="st0" d="M11.8,22.6H1V11.8h4.3c0,0.1,0,0.3,0,0.5c0,2.6,2.1,4.8,4.3,5.9c1.6,0.8,2.9,1.4,4.5,2c1.6,0.7,2.9,1.2,4.5,2
		c2.2,1.1,4.3,3.3,4.3,5.9c0,2.2-1.5,3.6-3.5,4.3c-1.4,0.5-2.9,0.6-4.3,0.6h-3.1V22.6z"/>
	<path class="st0" d="M10.6,17.2c1.6,0.8,2.9,1.4,4.5,2c1.6,0.7,2.9,1.2,4.5,2c2.2,1.1,4.3,3.3,4.3,5.9c0,0.8-0.2,1.5-0.5,2.1l0.8-1
		c0.2-0.6,0.3-1.2,0.3-1.8c0-2.6-2.1-4.8-4.3-5.9c-1.6-0.8-2.9-1.4-4.5-2c-1.6-0.7-2.9-1.2-4.5-2C9.1,15.5,7,13.2,7,10.7
		c0-0.3,0-0.6,0.1-0.9l0,0l-0.7,0.8c0,0.2,0,0.4,0,0.7C6.3,13.9,8.4,16.1,10.6,17.2z"/>
	<path class="st0" d="M12.4,15.5c1.6,0.8,2.9,1.4,4.5,2c1.6,0.7,2.9,1.2,4.5,2c2.2,1.1,4.3,3.3,4.3,5.9c0,0.5-0.1,1-0.2,1.4l0.8-0.9
		c0.1-0.4,0.1-0.8,0.1-1.2c0-2.6-2.1-4.8-4.3-5.9c-1.6-0.8-2.9-1.4-4.5-2c-1.6-0.7-2.9-1.2-4.5-2c-2.2-1.1-4.3-3.3-4.3-5.9
		C8.8,8.5,8.8,8,9,7.6L8.2,8.5l0,0C8.1,8.8,8.1,9.2,8.1,9.6C8.1,12.2,10.2,14.4,12.4,15.5z"/>
	<path class="st0" d="M14.2,13.8c1.6,0.8,2.9,1.4,4.5,2c1.6,0.7,2.9,1.2,4.5,2c2.2,1.1,4.3,3.3,4.3,5.9c0,0.3,0,0.6-0.1,0.9l0.7-0.8
		c0-0.2,0-0.5,0-0.7c0-2.6-2.1-4.8-4.3-5.9c-1.6-0.8-2.9-1.4-4.5-2c-1.6-0.7-2.9-1.2-4.5-2c-2.2-1.1-4.3-3.3-4.3-5.9
		c0-0.7,0.2-1.4,0.4-2l-0.8,0.9l0,0l0,0C10,6.7,9.9,7.3,9.9,7.9C9.9,10.5,12,12.8,14.2,13.8z"/>
</g>
<g>
	<path class="st1" d="M45.4,17.1c0,2.3,1.8,3.1,3.8,3.1c1.3,0,3.3-0.4,3.3-2.1c0-1.8-2.5-2.1-5-2.8c-2.5-0.7-5.1-1.6-5.1-4.8
		c0-3.5,3.3-5.1,6.3-5.1c3.5,0,6.8,1.5,6.8,5.5h-3.6c-0.1-2-1.6-2.6-3.3-2.6c-1.2,0-2.6,0.5-2.6,1.9c0,1.3,0.8,1.5,5.1,2.6
		c1.2,0.3,5,1.1,5,4.9c0,3.1-2.4,5.4-7.1,5.4c-3.8,0-7.3-1.9-7.2-6H45.4z"/>
	<path class="st1" d="M68.9,22.7h-3.2V21h-0.1c-0.9,1.4-2.3,2-3.8,2c-3.6,0-4.5-2-4.5-5.1v-8h3.4v7.4c0,2,0.6,3,2.2,3
		c1.8,0,2.6-1,2.6-3.5V10h3.4V22.7z"/>
	<path class="st1" d="M75.3,10.5h2.5v2.3h-2.5v6.1c0,1.1,0.3,1.4,1.4,1.4c0.4,0,0.7,0,1-0.1v2.6c-0.6,0.1-1.3,0.1-2,0.1
		c-2.1,0-3.9-0.5-3.9-2.9v-7.2h-2v-2.3h2V7h3.4V10.5z"/>
	<path class="st1" d="M83.2,10.5h2.5v2.3h-2.5v6.1c0,1.1,0.3,1.4,1.4,1.4c0.4,0,0.7,0,1-0.1v2.6c-0.6,0.1-1.3,0.1-2,0.1
		c-2.1,0-3.9-0.5-3.9-2.9v-7.2h-2v-2.3h2V7h3.4V10.5z"/>
	<path class="st1" d="M89.6,17.4c0.1,2.1,1.1,3.1,3,3.1c1.4,0,2.4-0.8,2.7-1.6h3c-0.9,2.9-3,4.1-5.7,4.1c-3.9,0-6.3-2.7-6.3-6.5
		c0-3.7,2.5-6.5,6.3-6.5c4.2,0,6.2,3.5,6,7.3H89.6z M95.1,15.3c-0.3-1.7-1-2.6-2.7-2.6c-2.1,0-2.8,1.7-2.8,2.6H95.1z"/>
	<path class="st1" d="M99.9,10.5h3.2v2.3h0c0.6-1.5,2.3-2.6,3.9-2.6c0.2,0,0.5,0,0.7,0.1v3.1c-0.3-0.1-0.8-0.1-1.2-0.1
		c-2.5,0-3.3,1.8-3.3,3.9v5.5h-3.4V10.5z"/>
	<path class="st1" d="M112.4,6h3.7v6.3h6.9V6h3.7v16.7H123v-7.3h-6.9v7.3h-3.7V6z"/>
	<path class="st1" d="M131.6,17.4c0.1,2.1,1.1,3.1,3,3.1c1.4,0,2.4-0.8,2.7-1.6h3c-0.9,2.9-3,4.1-5.7,4.1c-3.9,0-6.3-2.7-6.3-6.5
		c0-3.7,2.5-6.5,6.3-6.5c4.2,0,6.2,3.5,6,7.3H131.6z M137,15.3c-0.3-1.7-1-2.6-2.7-2.6c-2.1,0-2.8,1.7-2.8,2.6H137z"/>
	<path class="st1" d="M141.6,14.2c0.2-3.2,3-4.1,5.8-4.1c2.4,0,5.4,0.5,5.4,3.5V20c0,1.1,0.1,2.2,0.4,2.7h-3.4
		c-0.1-0.4-0.2-0.8-0.2-1.2c-1.1,1.1-2.6,1.5-4.1,1.5c-2.3,0-4.2-1.2-4.2-3.7c0-2.8,2.1-3.4,4.2-3.7c2.1-0.3,4-0.2,4-1.6
		c0-1.4-1-1.7-2.2-1.7c-1.3,0-2.1,0.5-2.2,1.9H141.6z M149.4,16.7c-0.6,0.5-1.8,0.5-2.8,0.7c-1,0.2-2,0.6-2,1.8c0,1.3,1,1.6,2.1,1.6
		c2.6,0,2.7-2.1,2.7-2.8V16.7z"/>
	<path class="st1" d="M154.9,6h3.4v16.7h-3.4V6z"/>
	<path class="st1" d="M164.6,10.5h2.5v2.3h-2.5v6.1c0,1.1,0.3,1.4,1.4,1.4c0.4,0,0.7,0,1-0.1v2.6c-0.6,0.1-1.3,0.1-2,0.1
		c-2.1,0-3.9-0.5-3.9-2.9v-7.2h-2v-2.3h2V7h3.4V10.5z"/>
	<path class="st1" d="M168.1,6h3.4v6.2h0.1c0.9-1.4,2.3-2,3.6-2c3.6,0,4.5,2,4.5,5.1v7.6h-3.4v-6.9c0-2-0.6-3-2.2-3
		c-1.8,0-2.6,1-2.6,3.5v6.4h-3.4V6z"/>
	<path class="st2" d="M185.4,6h7.6c4.2,0,5.9,2.5,5.9,5.2c0,2.8-1.6,5.4-5.9,5.4h-3.9V23h-3.7V6z M189.1,13.8h2.9
		c1.7,0,3.3-0.4,3.3-2.5s-1.5-2.5-3.3-2.5h-2.9V13.8z"/>
	<path class="st2" d="M200.3,6h3.4v17h-3.4V6z"/>
	<path class="st2" d="M217.3,22.7h-3.2V21H214c-0.9,1.4-2.3,2-3.8,2c-3.6,0-4.5-2-4.5-5.1v-8h3.4v7.4c0,2,0.6,3,2.2,3
		c1.8,0,2.6-1,2.6-3.5V10h3.4V22.7z"/>
	<path class="st2" d="M221.8,18.7c0,1.5,1.3,2.1,2.6,2.1c1,0,2.2-0.4,2.2-1.6c0-1-1.4-1.4-3.8-1.9c-1.9-0.4-3.9-1.1-3.9-3.3
		c0-3.1,2.7-3.9,5.3-3.9c2.7,0,5.2,0.9,5.4,3.9h-3.2c-0.1-1.3-1.1-1.7-2.3-1.7c-0.8,0-1.9,0.1-1.9,1.1c0,1.2,1.9,1.4,3.8,1.8
		c2,0.5,3.9,1.2,3.9,3.4c0,3.2-2.8,4.3-5.6,4.3c-2.8,0-5.6-1.1-5.8-4.3H221.8z"/>
</g>
<g>
	<path class="st2" d="M126.7,38.1l-3.6-6h2.4l2.3,3.9l2.3-3.9h2.4l-3.7,6.1V42h-2.2V38.1z"/>
	<path class="st2" d="M135,34.7c2.3,0,3.7,1.5,3.7,3.8c0,2.3-1.5,3.8-3.7,3.8c-2.2,0-3.7-1.5-3.7-3.8
		C131.3,36.1,132.7,34.7,135,34.7z M135,40.7c1.3,0,1.7-1.1,1.7-2.3c0-1.1-0.4-2.3-1.7-2.3c-1.3,0-1.7,1.1-1.7,2.3
		C133.3,39.6,133.7,40.7,135,40.7z"/>
	<path class="st2" d="M146.3,42h-1.9v-1h0c-0.5,0.8-1.4,1.2-2.2,1.2c-2.1,0-2.6-1.2-2.6-2.9v-4.4h2v4c0,1.2,0.3,1.8,1.3,1.8
		c1.1,0,1.5-0.6,1.5-2v-3.7h2V42z"/>
	<path class="st2" d="M147.8,34.8h1.9v1.3h0c0.4-0.9,1.3-1.5,2.3-1.5c0.1,0,0.3,0,0.4,0.1v1.8c-0.2,0-0.5-0.1-0.7-0.1
		c-1.4,0-1.9,1-1.9,2.3V42h-2V34.8z"/>
	<path class="st2" d="M157.1,32.1h2.2v3.8h4v-3.8h2.2V42h-2.2v-4.3h-4V42h-2.2V32.1z"/>
	<path class="st2" d="M168.7,38.9c0.1,1.2,0.7,1.8,1.8,1.8c0.8,0,1.4-0.5,1.5-0.9h1.7c-0.6,1.7-1.7,2.4-3.3,2.4
		c-2.3,0-3.6-1.5-3.6-3.8c0-2.1,1.5-3.8,3.6-3.8c2.4,0,3.6,2,3.5,4.2H168.7z M171.9,37.6c-0.2-1-0.6-1.5-1.6-1.5
		c-1.2,0-1.6,1-1.6,1.5H171.9z"/>
	<path class="st2" d="M174.9,37c0.1-1.8,1.8-2.4,3.4-2.4c1.4,0,3.1,0.3,3.1,2v3.7c0,0.6,0.1,1.3,0.2,1.6h-2
		c-0.1-0.2-0.1-0.5-0.1-0.7c-0.6,0.6-1.5,0.9-2.4,0.9c-1.4,0-2.4-0.7-2.4-2.1c0-1.6,1.2-2,2.4-2.2c1.2-0.2,2.3-0.1,2.3-0.9
		c0-0.8-0.6-1-1.3-1c-0.7,0-1.2,0.3-1.3,1.1H174.9z M179.4,38.5c-0.3,0.3-1,0.3-1.6,0.4c-0.6,0.1-1.2,0.3-1.2,1.1
		c0,0.7,0.6,0.9,1.2,0.9c1.5,0,1.6-1.2,1.6-1.6V38.5z"/>
	<path class="st2" d="M182.9,32.1h2V42h-2V32.1z"/>
	<path class="st2" d="M188.9,34.8h1.4v1.3h-1.4v3.5c0,0.7,0.2,0.8,0.8,0.8c0.2,0,0.4,0,0.6-0.1V42c-0.3,0.1-0.8,0.1-1.1,0.1
		c-1.2,0-2.3-0.3-2.3-1.7v-4.2h-1.2v-1.3h1.2v-2.1h2V34.8z"/>
	<path class="st2" d="M191.2,32.1h2v3.7h0c0.5-0.8,1.4-1.2,2.1-1.2c2.1,0,2.6,1.2,2.6,2.9V42h-2v-4c0-1.2-0.3-1.8-1.3-1.8
		c-1.1,0-1.5,0.6-1.5,2V42h-2V32.1z"/>
	<path class="st2" d="M203.4,32.1h4.4c2.5,0,3.4,1.6,3.4,3.2c0,1.6-1,3.2-3.4,3.2h-2.3V42h-2.2V32.1z M205.6,36.8h1.7
		c1,0,1.9-0.2,1.9-1.5c0-1.3-0.9-1.5-1.9-1.5h-1.7V36.8z"/>
	<path class="st2" d="M212.2,32.1h2V42h-2V32.1z"/>
	<path class="st2" d="M215.3,37c0.1-1.8,1.8-2.4,3.4-2.4c1.4,0,3.1,0.3,3.1,2v3.7c0,0.6,0.1,1.3,0.2,1.6h-2
		c-0.1-0.2-0.1-0.5-0.1-0.7c-0.6,0.6-1.5,0.9-2.4,0.9c-1.4,0-2.4-0.7-2.4-2.1c0-1.6,1.2-2,2.4-2.2c1.2-0.2,2.3-0.1,2.3-0.9
		c0-0.8-0.6-1-1.3-1c-0.7,0-1.2,0.3-1.3,1.1H215.3z M219.9,38.5c-0.3,0.3-1,0.3-1.6,0.4c-0.6,0.1-1.2,0.3-1.2,1.1
		c0,0.7,0.6,0.9,1.2,0.9c1.5,0,1.6-1.2,1.6-1.6V38.5z"/>
	<path class="st2" d="M223.3,34.8h1.9v1h0c0.5-0.8,1.4-1.2,2.2-1.2c2.1,0,2.6,1.2,2.6,2.9V42h-2v-4c0-1.2-0.3-1.8-1.3-1.8
		c-1.1,0-1.5,0.6-1.5,2V42h-2V34.8z"/>
</g>
</svg>
