<svg xmlns="http://www.w3.org/2000/svg" viewBox="0 0 338.51 98.38"><defs><style>.a{fill:#231f20;}.b{fill:#6d6e71;}.c{fill:#0367a5;}.d{fill:#fff;fill-rule:evenodd;}</style></defs><path class="a" d="M127.86,9.44H112.14V1.38h40.21V9.44H136.64V50.92h-8.78Z"/><path class="a" d="M160.06,29.9V1.38h8.71V29.55c0,9.2,4.74,14.08,12.53,14.08S193.76,39,193.76,29.9V1.38h8.7v28.1c0,14.79-8.35,22.22-21.3,22.22S160.06,44.27,160.06,29.9Z"/><path class="a" d="M212.59,1.38h36.88V9.3H221.29V22.82h25v7.93h-25V50.92h-8.7Z"/><path class="a" d="M271.55,9.44H255.83V1.38H296V9.44H280.33V50.92h-8.78Z"/><path class="a" d="M300.15,43.7l5.23-6.22c4.75,4.1,9.56,6.44,15.65,6.44,5.38,0,8.78-2.55,8.78-6.23v-.14c0-3.54-2-5.45-11.19-7.58-10.55-2.55-16.49-5.66-16.49-14.79V15c0-8.5,7.08-14.37,16.92-14.37A27.45,27.45,0,0,1,337,6.9l-4.68,6.58c-4.46-3.33-8.92-5.1-13.45-5.1-5.09,0-8.07,2.62-8.07,5.88v.14c0,3.82,2.27,5.52,11.83,7.79,10.47,2.54,15.85,6.3,15.85,14.51v.14c0,9.27-7.29,14.79-17.69,14.79A30.5,30.5,0,0,1,300.15,43.7Z"/><path class="b" d="M115.6,67.43h5.07v12h13.78v-12h5.07V96.3h-5.07V84.13H120.67V96.3H115.6Z"/><path class="b" d="M143.73,85.49v-.08c0-6.23,4.41-11.34,10.64-11.34,6.93,0,10.44,5.44,10.44,11.71a14.05,14.05,0,0,1-.09,1.41h-16A6.08,6.08,0,0,0,155,92.71a7.92,7.92,0,0,0,5.9-2.6l2.93,2.6a11,11,0,0,1-8.91,4.08A10.86,10.86,0,0,1,143.73,85.49Zm16.13-1.6c-.33-3.22-2.23-5.74-5.53-5.74-3.05,0-5.2,2.35-5.65,5.74Z"/><path class="b" d="M167.16,90V90c0-4.7,3.67-7,9-7a18.41,18.41,0,0,1,5.86.9v-.53c0-3.1-1.9-4.75-5.41-4.75a15.06,15.06,0,0,0-6.22,1.37L169.06,76a18.58,18.58,0,0,1,8.2-1.78c3.26,0,5.7.87,7.22,2.44s2.35,3.87,2.35,6.72V96.3H182V93.58a8.88,8.88,0,0,1-7.1,3.17C170.79,96.75,167.16,94.4,167.16,90Zm14.93-1.57V87a13.73,13.73,0,0,0-5-.87c-3.22,0-5.11,1.36-5.11,3.63v.08c0,2.11,1.85,3.3,4.24,3.3C179.57,93.12,182.09,91.23,182.09,88.46Z"/><path class="b" d="M192.69,66.19h5V96.3h-5Z"/><path class="b" d="M204.82,90.28V78.81h-2.76V74.52h2.76v-6h5v6h5.86v4.29h-5.86V89.49c0,1.94,1,2.73,2.68,2.73a6.62,6.62,0,0,0,3.09-.75v4.09a8.59,8.59,0,0,1-4.49,1.11C207.42,96.67,204.82,95.06,204.82,90.28Z"/><path class="b" d="M220.33,66.19h5V77.86a7.88,7.88,0,0,1,6.8-3.79c4.91,0,7.76,3.3,7.76,8.33V96.3h-5V83.93c0-3.39-1.69-5.32-4.66-5.32s-4.91,2-4.91,5.4V96.3h-5Z"/><path class="b" d="M258,67.43h11.38c6.77,0,11,3.83,11,9.65v.08c0,6.48-5.19,9.86-11.54,9.86H263.1V96.3H258Zm11,15c3.84,0,6.23-2.14,6.23-5.15V77.2c0-3.38-2.43-5.15-6.23-5.15h-5.9V82.44Z"/><path class="b" d="M283.85,66.19h5V96.3h-5Z"/><path class="b" d="M292.56,90V90c0-4.7,3.67-7,9-7a18.35,18.35,0,0,1,5.85.9v-.53c0-3.1-1.89-4.75-5.4-4.75a15.11,15.11,0,0,0-6.23,1.37L294.45,76a18.66,18.66,0,0,1,8.21-1.78c3.26,0,5.69.87,7.22,2.44s2.35,3.87,2.35,6.72V96.3h-4.87V93.58a8.84,8.84,0,0,1-7.09,3.17C296.19,96.75,292.56,94.4,292.56,90Zm14.93-1.57V87a13.73,13.73,0,0,0-4.95-.87c-3.22,0-5.12,1.36-5.12,3.63v.08c0,2.11,1.86,3.3,4.25,3.3C305,93.12,307.49,91.23,307.49,88.46Z"/><path class="b" d="M317.39,74.52h5v3.34a7.88,7.88,0,0,1,6.8-3.79c4.91,0,7.76,3.3,7.76,8.33V96.3h-5V83.93c0-3.39-1.69-5.32-4.66-5.32s-4.91,2-4.91,5.4V96.3h-5Z"/><rect class="c" width="99.44" height="98.38" rx="19.77"/><path class="d" d="M52.3,61.25c0,5.84,0,11.69,0,17.54,0,4.93.46,8.46,5,8.43s5.18-3.61,5.17-8.52q0-14.08-.05-28.17C62.66,47,63.82,40.43,71.6,40c4.63-.26,3.62-.16,5.74-.23,4.84-.15,7.34.23,7.64-4.16,0-4.38-3.26-4.8-7.71-4.91a34.78,34.78,0,0,0-12.55,2.24c-6.39,2.18-11.78,6.61-11.92,13.37-.12,6-.48,8.94-.48,15Z"/><path class="d" d="M61.58,28.71c4.36,0,8-4.06,7.84-8.76-.12-4.91-3.62-8.78-7.91-8.76S53.66,15,53.64,19.9C53.63,25.07,56.93,28.73,61.58,28.71Z"/><path class="d" d="M47.11,61.25c0,5.84,0,11.69,0,17.54,0,4.93-.46,8.46-5,8.43s-5.17-3.61-5.16-8.52q0-14.08,0-28.17C36.75,47,35.58,40.43,27.8,40c-4.63-.26-3.61-.16-5.73-.23-4.84-.15-7.35.23-7.65-4.16,0-4.38,3.27-4.8,7.72-4.91a34.76,34.76,0,0,1,12.54,2.24c6.39,2.18,11.78,6.61,11.92,13.37.12,6,.48,8.94.48,15Z"/><path class="d" d="M37.82,28.71c-4.36,0-8-4.06-7.84-8.76.13-4.91,3.62-8.78,7.92-8.76S45.74,15,45.76,19.9C45.78,25.07,42.47,28.73,37.82,28.71Z"/></svg>