<svg width="25" height="21" viewBox="0 0 25 21" fill="none" xmlns="http://www.w3.org/2000/svg">
<path d="M24.3084 4.56212C23.7409 3.23287 22.8415 2.06323 21.6479 1.25713C17.9918 -1.21032 13.3786 0.510688 12.5 1.71338C11.623 0.510688 7.00823 -1.21032 3.35212 1.25794C2.15854 2.06403 1.25914 3.23287 0.691608 4.56293C0.0960181 5.95666 -0.0570879 7.21981 0.0174611 8.30159C0.147246 10.0311 0.894266 11.6552 2.12086 12.8746L8.43668 19.2258C9.37531 20.1749 10.6006 20.7838 11.9204 20.9573C12.3047 21.0142 12.6953 21.0142 13.0796 20.9573C14.3995 20.7836 15.6248 20.1743 16.5633 19.225L22.8791 12.8738C24.1056 11.6546 24.8526 10.0308 24.9825 8.30159C25.0571 7.21981 24.904 5.95666 24.3084 4.56212ZM15.5052 18.1045C14.9805 18.6419 14.33 19.0383 13.6134 19.2572C13.2513 19.3651 12.8773 19.4276 12.5 19.4434V19.4434C12.1227 19.4276 11.7487 19.3651 11.3866 19.2572C10.67 19.0383 10.0195 18.6419 9.4948 18.1045L5.79059 14.361C8.76694 11.6558 12.5 11.7428 12.5 11.7428C12.5 11.7428 16.2331 11.6558 19.2094 14.361L15.5052 18.1045ZM20.3028 13.1994C19.8933 12.8279 19.4544 12.4903 18.9906 12.1902L21.0595 8.58614C21.1636 8.40442 21.1916 8.18857 21.1374 7.98608C21.0832 7.78358 20.9512 7.61103 20.7705 7.50638C20.5898 7.40173 20.3752 7.37356 20.1738 7.42805C19.9724 7.48255 19.8008 7.61526 19.6968 7.79698L17.627 11.4018C17.1968 11.1849 16.7547 10.9928 16.3028 10.8263L17.8763 4.75075C17.9023 4.65018 17.9083 4.54546 17.894 4.44257C17.8797 4.33967 17.8454 4.24061 17.793 4.15105C17.7407 4.06149 17.6713 3.98318 17.5888 3.92059C17.5063 3.85799 17.4124 3.81235 17.3124 3.78625C17.1104 3.73355 16.8959 3.76369 16.7161 3.87004C16.627 3.9227 16.5491 3.99249 16.4869 4.07541C16.4246 4.15834 16.3792 4.25278 16.3533 4.35334L14.791 10.3837C14.2885 10.2715 13.7787 10.1953 13.2655 10.1556V6.3718C13.2655 6.1625 13.1828 5.96177 13.0357 5.81378C12.8885 5.66578 12.6889 5.58264 12.4808 5.58264V5.58264C12.2726 5.58264 12.073 5.66578 11.9258 5.81378C11.7787 5.96177 11.696 6.1625 11.696 6.3718V10.1742C11.1931 10.2178 10.6933 10.2924 10.1994 10.3974L8.63468 4.35173C8.58227 4.14863 8.45178 3.97478 8.27191 3.86843C8.09204 3.76208 7.87753 3.73194 7.67556 3.78464C7.47359 3.83734 7.30071 3.96856 7.19496 4.14944C7.0892 4.33032 7.05923 4.54603 7.11163 4.74913L8.68438 10.8214C8.2291 10.9821 7.78347 11.1692 7.34971 11.3817L5.2944 7.79617C5.24288 7.70619 5.17423 7.6273 5.09238 7.564C5.01053 7.5007 4.91709 7.45423 4.81738 7.42725C4.71767 7.40026 4.61366 7.39329 4.51127 7.40673C4.40889 7.42017 4.31014 7.45376 4.22066 7.50557C4.03995 7.61022 3.90798 7.78278 3.85379 7.98527C3.7996 8.18777 3.82761 8.40362 3.93168 8.58534L5.98619 12.1644C5.51072 12.4696 5.06588 12.8206 4.65793 13.2123C4.65793 13.2123 2.10243 11.2583 1.70002 8.90939C1.29762 6.56043 1.91084 3.72217 5.31845 2.01809C8.88878 0.352694 12.1521 3.30784 12.4968 3.90435C12.4968 3.90435 13.8892 1.8617 16.9545 1.58038C20.0198 1.29905 22.2234 3.45696 22.9777 5.42787C23.732 7.39877 23.7417 10.3257 20.3028 13.1986V13.1994Z" fill="#2552A2"/>
</svg>
