<svg xmlns="http://www.w3.org/2000/svg" xmlns:xlink="http://www.w3.org/1999/xlink" viewBox="0 0 132.67 132.67"><defs><style>.cls-1{fill:none;}.cls-2{fill:#ffca66;}.cls-3{clip-path:url(#clip-path);}.cls-4{fill:#2484c6;}.cls-4,.cls-5{fill-rule:evenodd;}.cls-5{fill:#565656;}.cls-6{fill:#fff;}</style><clipPath id="clip-path"><polygon class="cls-1" points="132.67 32.09 100.58 32.09 100.58 0 32.09 0 32.09 32.09 0 32.09 0 100.58 32.09 100.58 32.09 132.67 100.58 132.67 100.58 100.58 132.67 100.58 132.67 32.09"/></clipPath></defs><title>njcc-icon-Asset 1</title><g id="Layer_2" data-name="Layer 2"><g id="Layer_1-2" data-name="Layer 1"><polygon class="cls-2" points="132.67 32.09 100.58 32.09 100.58 0 32.09 0 32.09 32.09 0 32.09 0 100.58 32.09 100.58 32.09 132.67 100.58 132.67 100.58 100.58 132.67 100.58 132.67 32.09"/><g class="cls-3"><path class="cls-4" d="M66.81,7.73q5.1,3.06,10.18,6.14a10.29,10.29,0,0,0,3,2l3.31,2.07h.26A25.44,25.44,0,0,0,89,21.15l1.92,1.21,5.31,2.94a5.39,5.39,0,0,1-.79,2.95c.24,1.09-2.22,6.66-2.52,7.19-.64,1.11-1.58,2.23-1.48,4.15-.56,0-.46.51-1,.69-.09-.34,0,0-.27-.26a3.91,3.91,0,0,1-.26,1.22.47.47,0,0,1,.44.17h-.18c0,.21,0,.11-.17.35l-.7-.26.18.34c-.27.58-1.16.73-2.09.7l-.09-.26c1.21-.56,1.11-2.42,1.74-3.38-.42.05-.65.06-.78.17-.48.92.13,1.17-.61,1.21-.09.21-.17.41-.26.61s0,0,.17.26a.85.85,0,0,0-.26.69c-.63-.09-1.59.6-2.17,1.3.36,1.3-.16,3.25-.79,3.55-.09-.13-1,0-1,.44-.45.31.29,1,.08,1.38a10.55,10.55,0,0,0-.61,1.13H82.3A1.57,1.57,0,0,1,82,49c-.39,0-.75-.09-1,.17-.37.06-1.09.89-1.3,1.3.23,0,.76,0,.61-.17.54-.13.74-1,1-.87.08-.18.46-.18.34-.08.31.21.8.63.79.86.45.22.24.87.43,1a3.88,3.88,0,0,1,2.35,1.3l.78-1,.53.43c.59.13,1,0,1-.34,1.64.49,4.37,2.75,5.83,2.51,0-.29-.08-.2.09-.43h.09c.09,4.66-.46,10.95-1.83,12.9a5.73,5.73,0,0,1-.52,2.94c.06.4-1,7.34-1.13,7.71-.6,1.26-.89,5.68-.87,7.79-.65-.42-1.22-1.15-.87-1.56.11.22.39.31.61.44a2,2,0,0,1,.08-.26c-.24,0-.06,0-.17-.18.64-3,.27-7.56,1.22-9.26-.34-.13-.19-.07-.35-.43.28,0,.68-.22.61-.61A9.22,9.22,0,0,0,90.57,72l-.17-.18c-.11.45-1.07.58-.87,1.3L88.65,73c0,.46,0,.48-.26.69a1.2,1.2,0,0,0-1,.44l.7.34c0-.11.11-.23.17-.34l.17.08c0,.4.36,2.21-.08,2-.07.3-.8.38-.7.61-.91-.18-.78-.41-1.65-.52l-.09.35c1.11-.18,1.42.45,3,.43v.26c-.8,1.15-1.64,2.06-1,3.29-1.61.79-1.85,3.94-2.43,5.46l.34-.09c.13.29.44.11.7.52l.09.52a1,1,0,0,0-.44.17l.09.26.35-.08a4.11,4.11,0,0,0,.08.6c-.83,0-.81.64-1.39.87l.09.26.26-.09-.17.17-.87.52c.11.34.37.8.08,1.13a2.3,2.3,0,0,0-1.22,0,3.45,3.45,0,0,1-.69,1.82l-.52-.35-.44.52c-.19-.22-.1-.06-.35-.17,0,.42-.64.69-1,1.47l-.27-.17a2.59,2.59,0,0,1-.08.78c.45.09.46.74,1.22,1a1.14,1.14,0,0,1-.09-1l.87-.18.09.52c-1.18.28-.15,1.51-1,2.25l-.69.09c-.12-.2-.24-.4-.35-.61V97L80,96.83v.26l-.26-.17V96.4H80c.09.34,0,0,.26.26l.27-.26-.27-.7a4.48,4.48,0,0,1-1.3-.26c-.53.18-.45.35-1,.26l.09-.43c-.67,0-.43-.17-.87-.34l.09.34c.17,1.66.44,2.55,1.65,3.47l-.09-.18c.33.17.31.27.61.44,0-.25-.16-.6,0-.7.54-.18.7.16,1-.08s.18-.43.17-.61c.35.18.2.1.26.35.29.05,0,.2.35.34a7.47,7.47,0,0,1-2,4.16l-1.39,1.21-.44-.17c.09-.2.18-.41.26-.61l-.17.09H77c.17.59.06.47.61.86l-.09.44a7.33,7.33,0,0,0-4.4,2.72c-.16-.25-.12-.14-.09-.43l-.26.09-.78.26c-.07-.31.11-.13-.18-.26,0,.23.08.07-.17.26l-.78-.35c-.25.42-.94.56-1.22.69,0-.39.07-.35-.18-.6-.29.35-.59.08-1-.09l-.09.26c.2.34.34,0,.35.69h-.09l-.26-.17.09.52h.26c.33-.42.81-.21,1.13-.09l.18.43-.44.09c.11.56,0,.78.26,1,0-.2,0-.45.35-.35-.07-.81,1.54-1.5,2.26-1.81a.89.89,0,0,0-.08.17,6.74,6.74,0,0,1-1.92,2.16h-.26c-.88,1.14-4.06,5.79-3.83,6.67.3.08.12.07.35.09A24.76,24.76,0,0,1,63.77,120l-.18-.18c.12-.23.24-.46.35-.69-.44.09-.29.12-.35.35a5,5,0,0,0-.43.6c0,.24.56,1,.52,1.13,0,0-2.9,2.89-3.13,2.94,0-.59-2.44,1.52-3.57.44l-.35-.35c.21-1.34.51-3.58,1-4.33s1.64-2.15,1.74-3.2c-.23-.41.91-2.6.17-3.12-.14-.72-.76-.47-1.3-.87v-.86L58,112a.72.72,0,0,1-.08.78c-.52-.34-1.91,0-3.4-.6a6.66,6.66,0,0,1,.7-1.65l-.26-.08c-.71.4-.89.78-1.83.77.22-.11.13-.1.35-.08l.78-.69c-.24-.35-1.2-.33-1.48-.09s-.24.22-.43.6c.2.12.4.24.61.35l-.26-.09c-.18.34-1,.14-1.57.18a2.78,2.78,0,0,1-.52,1.47l-.44-.35c-.33-.75-.66-.42-.78-1,.22,0,0,.06.26-.08-.21-.39-.22-.94-.52-1.47-.06,0-2.52-1.7-2.52-1.74.34-.17.1-.09.26-.34-.61-.11-.17-.43-.79-.61-.07-.15-.53-.18-.69-.17H45c.06.3.08.29-.09.52l-.09-.18c-1.06-.45-.83-1.51-1.39-2.07,0,0-.23-.33-.08-.35l-1.48-.09s-.51-.62-.87-.52v-1c-1.43.06-2.35-2-2.61-2.86-1.39,0-1.69-1.44-2.88-1.12,0-.53-.17-1.42.18-1.73v.43h.35a5.69,5.69,0,0,1,.08-2.25c-.25-.07-.23.12-.35-.26.59,0,.57-1,1.14-1.21-.12-.26-.24-.52-.35-.78l-.44.08c0-.11-.09-.62.18-.43-.2-.29-.11-.11-.35-.26-.12.13-.22.32-.35.09-.68-.09-1.11-.85-1.22-1.56,2-.14,3.66-6,4.53-6.84s2.14-1,2.43-1.73c.23-.16,0-.15.27-.35.24-1,6-1.86,6-2.08,0,0,1.53-.79,1.13-1a4.91,4.91,0,0,1,2.09,0l.09-.17a23.6,23.6,0,0,1-.26-3.56c.94-.23.8-.47,1.74-1,.19.42.16.22.52.35v-.27a5.69,5.69,0,0,1,1.13-1.73l1-.09c1.49-1.16,1.75-2,3.13-2.68.78-.39,1.91,0,2.61-.61s1-2.17,1.57-2.16c.21-.19.58.21,1.47.26.47-.83,1.13-.67,2-1.21-.26-1-.08-1.11-.61-1.82-.28,0-.09.12-.26-.09-.31-.36-.52-1.42-1-1.73-1.26-.76-2.62-1-2.7-2.25l-.87-1.73a15.78,15.78,0,0,0-2.69-1.65c-.49-.76-.23-3.29-.79-2.86-.85-1.33-1.81-.07-2.43-.52a2.41,2.41,0,0,1-1.13-.69c-.06-.74-.54-2.61,0-3.72a4.3,4.3,0,0,1-.09-2.25c-1.11-.63-1.28-1.78-2.7-1.56h-.26c-.49.37-.24.54-1,.6-.2-.4-.77-.31-.87-1,.46,0-.1-1.53-.09-1.56.08-.21,0-.12.43-.17-.14-.55-.29-1.1-.43-1.65,0,0,.8-.49.69-.86.16-.44-.32-.41-.69-.52-.13-.25,0-.31-.26-.44.21-.63,1-1.5.78-2.25-.17-.09-.43-.13-.35-.52l-.08-.17a7.89,7.89,0,0,0,1-1.3l1.48.26v-.17l.09-.26.26-.26.52-.09c.3-.44.33-.8.61-1.3.11-.21,0-.29.17-.17-.17-.48-.52-1-.26-1.3s.76,0,1.13-.17l.35-.44c-.15-.48-1.13-2.23-.78-2.51-.84-.89-2.32-2.62-2.35-3.29h.17c-.47-1.58,4-2,4-3.29,0-.06.26-.06.09-.26l.44-.86c.48-.46,1.46-.42,1.56-1.39h-.26A.87.87,0,0,1,56,21l.09-.17c-.06-1.38,2-1.49,2.78-2.51s1.12-2.6,2-3.72c-.12-.15-.24-.29-.35-.44,0-.6.62-.93.78-1.3.43-.95.2-1.48.78-1.9l1-.52.26-1c.21-.14.61.09.79-.09s.43-1,.78-.86C65.4,7.85,66.48,8.56,66.81,7.73Z"/><path class="cls-4" d="M92,50.5l.78.26s1.23,2.23.53,3c-.16-.47,0-.29-.44-.44a2.68,2.68,0,0,0-1-2.42Z"/><path class="cls-5" d="M89.79,72.5l.08.17Z"/><path class="cls-5" d="M43,81.24l.44.09-.27.26H42.8A1.56,1.56,0,0,1,43,81.24Z"/><path class="cls-4" d="M87.61,84.71l.17.34c-.21,0-.2.1-.26.26-.19-.2-.1-.24-.17-.52l.26.09Z"/><path class="cls-4" d="M88.65,85l.53.34a5.43,5.43,0,0,0-1.31,2.17l-.17-.09V86.7c.36-.5.27-.2.52-.87l-.7-.26v-.08l.79-.35c.07.39,0,.26.26.43C88.45,85.07,88.65,85.3,88.65,85Z"/><path class="cls-4" d="M86.48,86.18l.09.17Z"/><path class="cls-4" d="M87.7,87.48c.06.11.11.23.17.34l-.43.87-.26-.09V88C87.43,87.94,87.5,87.81,87.7,87.48Z"/><path class="cls-5" d="M87.09,88.6l.17.18Z"/><path class="cls-4" d="M87,88.78a3.19,3.19,0,0,1,.26.26h-.35Z"/><path class="cls-4" d="M86.74,89.12c.27.24.15.11.09.35l-2.79,5s-.2.2-.08.35a17,17,0,0,0-2,2.77c-.36-.07-.35,0-.6-.26,1.31-.37,2-2.49,2.61-3.46l-.27-.26.44.17c.26-1.57,1.21-1.54,1.57-3.29h-.26a.89.89,0,0,0,.08.17l-.35-.08.09-.7a2.39,2.39,0,0,0,.78.26C86.06,89.67,86.55,89.37,86.74,89.12Z"/><path class="cls-5" d="M79.69,97l.09.18Z"/><path class="cls-5" d="M77.26,103.15h.17C77.28,103.24,77.41,103.23,77.26,103.15Z"/><path class="cls-5" d="M77.52,103.93a.17.17,0,0,0,.08.17C77.68,104.15,77.55,104,77.52,103.93Z"/><path class="cls-5" d="M70.73,106.88l.61.43-.09.17h-.09C70.83,107.26,70.54,107.26,70.73,106.88Z"/><path class="cls-5" d="M72.73,106.88h.17l-.17.17Z"/><path class="cls-5" d="M53,111l.08.17Z"/></g><path class="cls-6" d="M64.09,87,39.5,51.73V74.45c0,5,.64,7.64,1.86,8.8,1,.9,4.69,1.93,5.65,2v1.42H30.06V85.3c.9-.12,4.37-1,5.27-1.73,1.34-1.09,1.86-3.85,1.86-8.79V52.24a7.48,7.48,0,0,0-1.8-5.07,13,13,0,0,0-5.78-2.89V42.87h13.1L65,74.84V55c0-4.75-.71-7.7-1.93-8.73a17.18,17.18,0,0,0-5.65-2v-1.4h17v1.41c-1,.13-4.17.77-5.26,1.67-1.41,1-1.86,4.17-1.86,8.67V87Z"/><path class="cls-6" d="M74.42,80.55c0-3.08,1.87-5.33,4.75-5.33a4.3,4.3,0,0,1,4.44,4.15,3.85,3.85,0,0,1,0,.48,5.94,5.94,0,0,1-3.08,5.07v.32a5.31,5.31,0,0,0,1.42.26c6.16,0,7.25-5.4,7.25-12.27v-25a3.09,3.09,0,0,0-1.73-3.15,18.41,18.41,0,0,0-4.56-1.22V42.48h20.16v1.41a28.82,28.82,0,0,0-4.3.9c-1.42.52-1.74,1.74-1.74,3.15V73.81A13.48,13.48,0,0,1,83.67,87.42H83.6C77.06,87.42,74.42,84,74.42,80.55Z"/></g></g></svg>