<svg xmlns="http://www.w3.org/2000/svg" xmlns:xlink="http://www.w3.org/1999/xlink" viewBox="0 0 518.08 95.24"><defs><style>.cls-1{fill:none;}.cls-2{fill:#ffca66;}.cls-3{clip-path:url(#clip-path);}.cls-4{fill:#2484c6;}.cls-4,.cls-5{fill-rule:evenodd;}.cls-5{fill:#565656;}.cls-6{fill:#383838;}.cls-7{fill:#fff;}.cls-8{fill:url(#linear-gradient);}.cls-9{fill:#808285;}</style><clipPath id="clip-path"><polygon class="cls-1" points="290.15 23.04 267.12 23.04 267.12 0 217.95 0 217.95 23.04 194.91 23.04 194.91 72.21 217.95 72.21 217.95 95.25 267.12 95.25 267.12 72.21 290.15 72.21 290.15 23.04"/></clipPath><linearGradient id="linear-gradient" x1="242.53" y1="65.95" x2="242.53" y2="30.38" gradientUnits="userSpaceOnUse"><stop offset="0" stop-color="#d1d3d4"/><stop offset="1" stop-color="#fff"/></linearGradient></defs><title>cnjhc-logo-new-colorAsset 3</title><g id="Layer_2" data-name="Layer 2"><g id="Layer_1-2" data-name="Layer 1"><polygon class="cls-2" points="290.15 23.04 267.12 23.04 267.12 0 217.95 0 217.95 23.04 194.91 23.04 194.91 72.21 217.95 72.21 217.95 95.25 267.12 95.25 267.12 72.21 290.15 72.21 290.15 23.04"/><g class="cls-3"><path class="cls-4" d="M242.87,5.55q3.66,2.19,7.31,4.41a7.46,7.46,0,0,0,2.16,1.43l2.37,1.49h.19a18,18,0,0,0,3.9,2.3l1.38.87L264,18.16a3.86,3.86,0,0,1-.56,2.12c.17.78-1.6,4.78-1.81,5.16a4.84,4.84,0,0,0-1.06,3c-.41,0-.33.37-.72.5-.07-.25,0,0-.2-.19a2.93,2.93,0,0,1-.18.88.33.33,0,0,1,.31.12h-.13c0,.15,0,.08-.12.25l-.5-.19.13.25c-.2.41-.83.52-1.5.5l-.07-.19c.87-.4.8-1.73,1.25-2.42a1.15,1.15,0,0,0-.56.12c-.34.66.1.84-.44.87l-.18.44c-.07.14,0,0,.12.18a.66.66,0,0,0-.19.5c-.45-.07-1.14.43-1.55.93.25.93-.12,2.33-.57,2.55-.07-.09-.72,0-.72.31-.32.23.21.72.06,1a7.23,7.23,0,0,0-.44.81H254a1.13,1.13,0,0,1-.21-.46c-.28,0-.54-.07-.72.12s-.78.64-.93.93c.16,0,.54,0,.44-.12.38-.09.53-.72.71-.62.06-.13.33-.13.25-.06.22.15.57.45.56.62.33.15.18.62.31.71a2.74,2.74,0,0,1,1.69.94l.56-.72.38.31c.42.09.72,0,.72-.25,1.18.36,3.14,2,4.18,1.81,0-.21-.05-.15.07-.31h.06c.07,3.34-.33,7.86-1.31,9.26a4.15,4.15,0,0,1-.37,2.11c0,.29-.72,5.27-.82,5.53a21,21,0,0,0-.62,5.6c-.47-.31-.88-.83-.62-1.12.07.15.28.22.43.31l.06-.18c-.17,0,0,0-.12-.13.46-2.16.19-5.43.87-6.65-.24-.09-.13-.05-.25-.31.2,0,.49-.16.44-.44a5.84,5.84,0,0,0,.18-.83l-.12-.13c-.08.32-.77.42-.63.93l-.63-.12c0,.33,0,.35-.18.5a.85.85,0,0,0-.72.31l.5.25c0-.08.08-.17.12-.25l.12.06c0,.29.26,1.59-.05,1.44,0,.21-.58.27-.51.43-.65-.13-.56-.29-1.18-.37l-.06.25c.79-.13,1,.32,2.15.31v.19c-.58.82-1.18,1.48-.72,2.36-1.15.57-1.33,2.83-1.74,3.92l.24-.07c.09.21.32.08.5.38l.07.37a.88.88,0,0,0-.32.12l.07.19.25-.06a2,2,0,0,0,.06.43c-.6,0-.59.46-1,.63l.06.18.19-.06-.12.12-.63.37c.08.25.27.58.06.82a1.64,1.64,0,0,0-.88,0,2.39,2.39,0,0,1-.49,1.3l-.37-.25-.32.37c-.14-.15-.07,0-.25-.12,0,.3-.46.5-.72,1.06l-.19-.12a1.81,1.81,0,0,1-.06.56c.32.06.33.53.87.71a.81.81,0,0,1-.06-.71l.62-.13.07.37c-.85.2-.11,1.08-.72,1.62l-.49.06c-.09-.14-.18-.29-.26-.44v.13l-.12-.09v.19l-.18-.12v-.37h.18c.07.24,0,0,.19.18l.19-.18-.19-.51a3.26,3.26,0,0,1-.93-.18c-.38.13-.33.25-.72.18l.06-.31c-.48,0-.31-.12-.62-.24l.06.24a3,3,0,0,0,1.19,2.5l-.07-.13c.24.12.23.19.44.31,0-.18-.11-.43,0-.5.39-.13.5.12.72-.06s.13-.31.12-.44c.25.13.14.08.19.26.21,0,0,.14.25.24a5.33,5.33,0,0,1-1.44,3l-1,.87-.31-.13.19-.43-.13.06h-.37c.12.42,0,.34.44.62l-.07.31a5.28,5.28,0,0,0-3.16,2c-.11-.18-.08-.1-.06-.31l-.19.06-.56.19c-.05-.22.08-.09-.13-.19,0,.17.06.05-.12.19l-.56-.25c-.18.3-.67.4-.87.49,0-.28.05-.25-.13-.43-.21.25-.43.06-.72-.06l-.07.18c.15.25.25,0,.26.5h-.07l-.19-.12.07.37h.19c.23-.3.58-.15.81-.06l.13.3-.32.07c.08.4,0,.56.19.72,0-.15,0-.33.25-.25-.05-.59,1.1-1.08,1.62-1.3l-.06.12a4.85,4.85,0,0,1-1.37,1.55h-.19c-.63.82-2.92,4.16-2.75,4.79.21.06.09.05.25.06a18.28,18.28,0,0,1-2.09,2.71l-.13-.13c.09-.17.17-.33.25-.5-.31.07-.21.09-.25.26a4.73,4.73,0,0,0-.31.43c0,.17.41.68.38.81s-2.09,2.07-2.25,2.11c0-.43-1.75,1.09-2.56.31l-.25-.25a11.73,11.73,0,0,1,.71-3.11,6.52,6.52,0,0,0,1.25-2.29c-.16-.3.66-1.87.12-2.24-.1-.52-.54-.34-.93-.63V80.3l-.17.11a.52.52,0,0,1-.06.56c-.37-.25-1.37,0-2.44-.44a4.71,4.71,0,0,1,.5-1.18l-.18-.06c-.51.29-.64.56-1.32.56.16-.08.1-.08.25-.06l.56-.5c-.17-.25-.86-.23-1.06-.06s-.17.16-.31.43l.44.25-.19-.06c-.13.24-.71.1-1.12.12a2,2,0,0,1-.38,1.06l-.31-.25c-.24-.54-.48-.3-.56-.72.16,0,0,0,.18-.06-.15-.28-.15-.67-.37-1,0,0-1.81-1.22-1.81-1.25.25-.12.07-.07.19-.25-.44-.07-.12-.3-.57-.43-.05-.11-.38-.13-.49-.13h-.26c0,.22.06.21-.06.38l-.06-.13c-.77-.32-.6-1.09-1-1.49,0,0-.17-.23-.06-.25L225,75.34s-.37-.45-.63-.38v-.71c-1,0-1.68-1.44-1.87-2.06-1,0-1.21-1-2.07-.8,0-.38-.12-1,.13-1.24v.31h.25a4,4,0,0,1,.06-1.62c-.18,0-.17.09-.25-.19.42,0,.41-.71.82-.87a5.62,5.62,0,0,1-.25-.56l-.32.06c0-.08-.06-.44.13-.31-.14-.2-.08-.08-.25-.18-.09.09-.16.23-.25.06-.49-.06-.8-.61-.88-1.12,1.44-.1,2.63-4.31,3.25-4.91s1.54-.72,1.75-1.24c.16-.12,0-.11.19-.25.17-.72,4.31-1.34,4.31-1.5,0,0,1.1-.56.81-.71a3.45,3.45,0,0,1,1.5,0l.06-.13a18.11,18.11,0,0,1-.18-2.55c.67-.17.57-.34,1.25-.72.13.3.11.16.37.25v-.19a4.09,4.09,0,0,1,.81-1.24l.72-.07c1.07-.83,1.26-1.43,2.25-1.92.56-.28,1.37,0,1.87-.44s.72-1.56,1.13-1.55c.15-.14.41.15,1,.19.34-.6.81-.49,1.44-.87-.19-.72-.06-.8-.44-1.31-.2,0-.06.09-.19-.06s-.37-1-.71-1.25c-.91-.54-1.88-.71-1.94-1.61l-.63-1.24a11.26,11.26,0,0,0-1.93-1.19c-.35-.54-.16-2.36-.57-2-.61-1-1.29-.05-1.74-.37a1.76,1.76,0,0,1-.81-.5,5.58,5.58,0,0,1,0-2.67,3.18,3.18,0,0,1-.07-1.62c-.79-.45-.91-1.27-1.93-1.12h-.19c-.35.27-.17.39-.72.44-.14-.29-.55-.23-.62-.72.33,0-.07-1.1-.07-1.12s0-.09.31-.12c-.1-.4-.21-.79-.31-1.19,0,0,.58-.35.5-.62.11-.31-.23-.29-.5-.37-.09-.18,0-.22-.18-.32.15-.45.71-1.07.56-1.61-.13-.07-.31-.09-.26-.37l0-.13a5.32,5.32,0,0,0,.71-.93l1.07.19v-.13l.06-.18.19-.19.37-.06a10.24,10.24,0,0,0,.44-.94c.08-.15,0-.2.12-.12-.12-.34-.37-.72-.18-.93s.54,0,.81-.12l.25-.32c-.11-.34-.81-1.6-.56-1.8a7.23,7.23,0,0,1-1.69-2.36h.12c-.33-1.14,2.87-1.4,2.87-2.37,0,0,.19,0,.07-.18l.31-.62c.35-.33,1.05-.3,1.12-1h-.18a.63.63,0,0,1-.5.38l.07-.13c-.05-1,1.43-1.07,2-1.8s.81-1.86,1.44-2.67l-.25-.31c0-.44.44-.67.56-.94.31-.68.14-1.06.56-1.36l.72-.38c.06-.25.12-.49.18-.71s.44.06.57-.07.31-.72.56-.61C241.86,5.64,242.64,6.15,242.87,5.55Z"/><path class="cls-4" d="M261,36.25l.56.19s.88,1.6.38,2.15c-.12-.33,0-.2-.32-.31a1.91,1.91,0,0,0-.72-1.74Z"/><path class="cls-5" d="M259.37,52.05l.06.12Z"/><path class="cls-5" d="M225.78,58.32l.32.07-.2.18h-.26A1.28,1.28,0,0,1,225.78,58.32Z"/><path class="cls-4" d="M257.81,60.81l.12.25c-.15,0-.15.07-.19.18-.14-.14-.07-.17-.12-.37l.19.07Z"/><path class="cls-4" d="M258.55,61l.38.25a3.92,3.92,0,0,0-.94,1.55l-.12-.06v-.52c.26-.36.19-.14.37-.62l-.5-.19v-.06l.57-.25c.05.28,0,.19.19.31C258.41,61.07,258.55,61.24,258.55,61Z"/><path class="cls-4" d="M257,61.87l.07.12Z"/><path class="cls-4" d="M257.87,62.8l.12.25-.31.62-.18-.06v-.43C257.68,63.13,257.73,63,257.87,62.8Z"/><path class="cls-5" d="M257.43,63.61l.12.13Z"/><path class="cls-4" d="M257.37,63.74a1.53,1.53,0,0,1,.18.18h-.25Z"/><path class="cls-4" d="M257.18,64c.2.17.11.08.07.25l-2,3.59s-.14.14-.05.25a12.13,12.13,0,0,0-1.44,2c-.26,0-.25,0-.43-.19.94-.26,1.43-1.78,1.87-2.48L255,67.2l.31.13c.19-1.13.87-1.11,1.13-2.37h-.18a.5.5,0,0,0,.05.13l-.25-.06.07-.5a1.54,1.54,0,0,0,.56.18C256.69,64.37,257,64.16,257.18,64Z"/><path class="cls-5" d="M252.12,69.64l.06.13Z"/><path class="cls-5" d="M250.38,74.05h.12C250.39,74.12,250.48,74.11,250.38,74.05Z"/><path class="cls-5" d="M250.56,74.61s0,.09.06.12S250.58,74.66,250.56,74.61Z"/><path class="cls-5" d="M245.69,76.73l.44.31-.07.12H246C245.76,77,245.55,77,245.69,76.73Z"/><path class="cls-5" d="M247.12,76.73h.13l-.13.12Z"/><path class="cls-5" d="M233,79.69l.06.12Z"/></g><path class="cls-6" d="M257.86,67.39c-4.47,0-7.71-2.27-7.71-5.4a4,4,0,0,1,4.19-4,5.28,5.28,0,0,1,3.78,1.64A7.85,7.85,0,0,1,260,63.07c1.41-1.55,1.89-4.27,1.89-10V33.18a4,4,0,0,0-1.43-.26l-3.71-.28-.28-3.7h19l-.27,3.69-2.91.29c-1.18.14-1.36.33-1.38.36V49.52C270.93,61.38,266.54,67.39,257.86,67.39Z"/><path class="cls-6" d="M239.25,66.92l-20-27.74V51.37c0,10.49.64,10.61,1.6,10.78l3.67.68.27,3.63H209.57l.28-3.62,3.24-.69c1-.22,1.79-.38,1.79-10.78V36.53a3,3,0,0,0-1.71-3l-3-1-.27-3.56h13l18.36,25.62V44.1c0-10.56-.65-10.67-1.65-10.84l-3.61-.68-.28-3.64H251l-.27,3.62-3.24.69c-1,.22-1.8.39-1.8,10.85V66.92Z"/><path class="cls-7" d="M250,32l-2.71.58c-1.62.35-2.37,1-2.37,11.55V66.21h-5.31l-20.73-28.7h-.4V51.37c0,10.51.58,11.2,2.19,11.49l3.12.57.17,2.31H210.35l.17-2.31,2.72-.57c1.61-.35,2.36-.93,2.36-11.49V36.53a3.63,3.63,0,0,0-2.13-3.69l-2.6-.87-.17-2.31h11.89l19,26.5H242V44.1c0-10.51-.57-11.26-2.25-11.55L236.73,32l-.17-2.31h13.62Z"/><path class="cls-7" d="M274.54,32l-2.31.23c-1.44.18-2,.46-2,1.1V49.52c0,12.24-4.61,17.15-12.35,17.15-4,0-7-2-7-4.68a3.24,3.24,0,0,1,3.47-3.29,4.58,4.58,0,0,1,3.29,1.44,8,8,0,0,1,1.9,4.22h.06c2.25-1.56,3-4.22,3-11.26V33.18c0-.57-.34-.8-2.07-1L257.4,32l-.18-2.31h17.5Z"/><path class="cls-8" d="M257.86,66c-3.57,0-6.26-1.7-6.26-4a2.52,2.52,0,0,1,2.74-2.57,3.88,3.88,0,0,1,2.79,1.25,7.39,7.39,0,0,1,1.7,3.82l.1.59h.83L260,65c2.51-1.74,3.31-4.61,3.31-11.85V33.18c0-1.42-1.44-1.57-2.72-1.69l-2.52-.19-.07-.92h15.94l-.07.94-1.71.17c-.94.11-2.67.32-2.67,1.81V49.52C269.49,60.57,265.69,66,257.86,66ZM240,65.48,219.26,36.79h-1.49V51.37c0,10.62.53,11.79,2.79,12.2l2.56.47.08,1H211.13l.07-1,2.19-.47c2.22-.47,2.93-1.53,2.93-12.19V36.53a4.36,4.36,0,0,0-2.55-4.35l-2.22-.74-.08-1.06h10.75l19,26.5h1.55V44.1c0-10.68-.54-11.86-2.85-12.26l-2.5-.47-.08-1h12.08l-.08,1-2.18.47c-2.32.49-2.94,2.07-2.94,12.25V65.48Z"/><path class="cls-9" d="M332.9,67.56h1.15v7.67H332.9Z"/><path class="cls-9" d="M342.49,71.54c0-.64-.29-1.07-1-1.07a1.82,1.82,0,0,0-1.38.79v4h-1v-3.7c0-.64-.28-1.07-1-1.07a1.8,1.8,0,0,0-1.36.8v4h-1V69.69h1v.78a2.39,2.39,0,0,1,1.79-.94,1.41,1.41,0,0,1,1.51,1,2.32,2.32,0,0,1,1.89-1c1,0,1.57.56,1.57,1.67v4h-1Z"/><path class="cls-9" d="M351.92,71.54c0-.64-.29-1.07-1-1.07a1.79,1.79,0,0,0-1.38.79v4h-1v-3.7c0-.64-.28-1.07-1-1.07a1.84,1.84,0,0,0-1.36.8v4h-1V69.69h1v.78a2.4,2.4,0,0,1,1.79-.94,1.41,1.41,0,0,1,1.51,1,2.33,2.33,0,0,1,1.89-1c1,0,1.58.56,1.58,1.67v4h-1Z"/><path class="cls-9" d="M357,69.55a2.73,2.73,0,0,1,2.7,3v.25h-4.39a1.82,1.82,0,0,0,1.89,1.73,2.34,2.34,0,0,0,1.64-.66l.48.68a3.13,3.13,0,0,1-2.23.83,2.92,2.92,0,0,1-.09-5.83Zm-1.7,2.5h3.39a1.64,1.64,0,0,0-1.63-1.65H357a1.7,1.7,0,0,0-1.7,1.65Z"/><path class="cls-9" d="M365,74.45a2.27,2.27,0,0,1-1.81.94c-1.45,0-2.49-1.09-2.49-2.91s1-2.92,2.49-2.92a2.26,2.26,0,0,1,1.81,1v-3h1v7.67h-1Zm0-3.17a1.92,1.92,0,0,0-1.54-.81c-1,0-1.68.84-1.68,2s.65,2,1.68,2a1.87,1.87,0,0,0,1.54-.81Z"/><path class="cls-9" d="M367.51,68.1a.67.67,0,0,1,.67-.66.66.66,0,0,1,.66.66h0a.66.66,0,0,1-.66.66h0A.67.67,0,0,1,367.51,68.1Zm.16,1.59h1v5.55h-1Z"/><path class="cls-9" d="M373.77,74.65a2.39,2.39,0,0,1-1.81.75A1.85,1.85,0,0,1,370,73.64v-.08a1.78,1.78,0,0,1,1.76-1.82H372a2.32,2.32,0,0,1,1.81.73v-.91c0-.69-.56-1.11-1.35-1.11a2.26,2.26,0,0,0-1.67.74l-.47-.71a3.09,3.09,0,0,1,2.28-.91c1.2,0,2.22.53,2.22,1.94v3.75h-1Zm0-1.55a1.71,1.71,0,0,0-1.42-.63,1.11,1.11,0,1,0-.32,2.2.86.86,0,0,0,.32,0,1.71,1.71,0,0,0,1.42-.63Z"/><path class="cls-9" d="M376.67,74V70.59h-.89v-.9h.91V68.17h1v1.52h1.13v.9h-1.13v3.19c0,.39.18.68.54.68a.74.74,0,0,0,.56-.22l.27.78a1.48,1.48,0,0,1-1.08.36,1.21,1.21,0,0,1-1.35-1A.91.91,0,0,1,376.67,74Z"/><path class="cls-9" d="M382.42,69.55a2.73,2.73,0,0,1,2.7,3v.25h-4.39a1.82,1.82,0,0,0,1.89,1.73,2.38,2.38,0,0,0,1.64-.66l.47.68a3.09,3.09,0,0,1-2.22.83,2.92,2.92,0,0,1-.1-5.83Zm-1.7,2.5h3.39a1.65,1.65,0,0,0-1.64-1.65h-.05A1.69,1.69,0,0,0,380.72,72.05Z"/><path class="cls-9" d="M386.65,73.27a3.22,3.22,0,0,0,2.41,1.09c1.25,0,1.68-.64,1.68-1.19,0-.8-.87-1-1.85-1.29-1.23-.32-2.65-.68-2.65-2.24,0-1.26,1.11-2.18,2.71-2.18a3.72,3.72,0,0,1,2.79,1.07l-.67.85a3,3,0,0,0-2.22-.9c-.85,0-1.41.44-1.41,1.08s.82.91,1.78,1.15c1.25.33,2.71.72,2.71,2.36,0,1.2-.83,2.32-2.9,2.32a4,4,0,0,1-3-1.22Z"/><path class="cls-9" d="M396.62,74.65a2.39,2.39,0,0,1-1.82.75,1.85,1.85,0,0,1-1.92-1.76v-.08a1.78,1.78,0,0,1,1.76-1.82h.16a2.33,2.33,0,0,1,1.82.73v-.91c0-.69-.56-1.11-1.35-1.11a2.26,2.26,0,0,0-1.67.74l-.47-.71a3.11,3.11,0,0,1,2.28-.91c1.2,0,2.23.53,2.23,1.94v3.75h-1Zm0-1.55a1.71,1.71,0,0,0-1.41-.63,1.11,1.11,0,1,0-.33,2.2.92.92,0,0,0,.33,0,1.74,1.74,0,0,0,1.41-.63Z"/><path class="cls-9" d="M398.5,69.69h1.1L401.34,74l1.73-4.35h1.12l-2.29,5.55h-1.12Z"/><path class="cls-9" d="M404.86,68.1a.67.67,0,0,1,.69-.66h0a.66.66,0,0,1,.67.66h0a.66.66,0,0,1-.66.66h0a.68.68,0,0,1-.69-.65Zm.16,1.59h1v5.55h-1Z"/><path class="cls-9" d="M411.45,71.69c0-.92-.47-1.22-1.19-1.22a2,2,0,0,0-1.52.8v4h-1V69.69h1v.78a2.62,2.62,0,0,1,2-.94,1.59,1.59,0,0,1,1.79,1.79v3.9h-1Z"/><path class="cls-9" d="M414.58,75.91a2.14,2.14,0,0,0,1.78.73,1.53,1.53,0,0,0,1.72-1.58v-.73a2.35,2.35,0,0,1-1.83,1c-1.41,0-2.47-1.06-2.47-2.88s1-2.86,2.47-2.86a2.27,2.27,0,0,1,1.83.94v-.79h1V75c0,1.89-1.4,2.47-2.76,2.47a3,3,0,0,1-2.28-.82Zm3.5-4.63a2,2,0,0,0-1.54-.81,1.72,1.72,0,0,0-1.68,1.94,1.74,1.74,0,0,0,1.68,2,2,2,0,0,0,1.54-.83Z"/><path class="cls-9" d="M420.77,73.76a2.7,2.7,0,0,0,1.86.79c.78,0,1.2-.32,1.2-.79s-.63-.74-1.35-.9c-.94-.22-2-.47-2-1.67,0-.88.76-1.64,2.11-1.64a3,3,0,0,1,2.12.79l-.48.73a2.12,2.12,0,0,0-1.62-.67c-.7,0-1.14.27-1.14.72s.6.64,1.29.8c.94.22,2.11.47,2.11,1.76,0,.95-.78,1.7-2.24,1.7a3.15,3.15,0,0,1-2.31-.86Z"/><path class="cls-9" d="M426,76.33a1.81,1.81,0,0,0,.78-1.07h-.17a.63.63,0,0,1-.63-.62v0a.69.69,0,0,1,.69-.7h0a.84.84,0,0,1,.8.89v0a2.33,2.33,0,0,1-1,1.85Z"/><path class="cls-9" d="M429.08,73.27a3.23,3.23,0,0,0,2.42,1.09c1.23,0,1.67-.64,1.67-1.19,0-.8-.87-1-1.85-1.29-1.23-.32-2.66-.68-2.66-2.24,0-1.26,1.12-2.18,2.72-2.18a3.72,3.72,0,0,1,2.79,1.07l-.67.85a3,3,0,0,0-2.21-.9c-.85,0-1.42.44-1.42,1.08s.83.91,1.78,1.15c1.25.33,2.71.72,2.71,2.36,0,1.2-.82,2.32-2.89,2.32a4,4,0,0,1-3-1.22Z"/><path class="cls-9" d="M435.49,68.1a.67.67,0,0,1,1.34,0h0a.67.67,0,1,1-1.34,0Zm.17,1.59h1v5.55h-1Z"/><path class="cls-9" d="M445.08,71.54c0-.64-.29-1.07-.95-1.07a1.82,1.82,0,0,0-1.38.79v4h-1v-3.7c0-.64-.27-1.07-1-1.07a1.84,1.84,0,0,0-1.36.8v4h-1V69.69h1v.78a2.42,2.42,0,0,1,1.8-.94,1.41,1.41,0,0,1,1.5,1,2.33,2.33,0,0,1,1.89-1,1.45,1.45,0,0,1,1.58,1.67v4h-1Z"/><path class="cls-9" d="M447.75,77.36V69.69h1v.79a2.27,2.27,0,0,1,1.82-1c1.45,0,2.47,1.1,2.47,2.91s-1,2.92-2.47,2.92a2.21,2.21,0,0,1-1.82-.94v2.92Zm2.58-6.89a1.9,1.9,0,0,0-1.54.81v2.37a1.94,1.94,0,0,0,1.54.81c1,0,1.67-.84,1.67-2s-.63-2-1.67-2Z"/><path class="cls-9" d="M454.39,67.56h1v7.67h-1Z"/><path class="cls-9" d="M459.5,69.55a2.73,2.73,0,0,1,2.7,3v.25h-4.39a1.82,1.82,0,0,0,1.89,1.73,2.36,2.36,0,0,0,1.65-.66l.47.68a3.13,3.13,0,0,1-2.23.83,2.92,2.92,0,0,1-.09-5.83Zm-1.7,2.5h3.39a1.64,1.64,0,0,0-1.62-1.65h-.07A1.7,1.7,0,0,0,457.8,72.05Z"/><path class="cls-9" d="M463.53,67.56h5.14v1h-4v2.24h3.91v1h-3.91v2.39h4v1h-5.14Z"/><path class="cls-9" d="M473.84,71.69c0-.92-.48-1.22-1.19-1.22a2,2,0,0,0-1.53.8v4h-1V69.69h1v.78a2.64,2.64,0,0,1,2-.94,1.59,1.59,0,0,1,1.78,1.79v3.9h-1Z"/><path class="cls-9" d="M476.51,69.69h1v.85a2.34,2.34,0,0,1,1.81-1v1a1.34,1.34,0,0,0-.35,0,2,2,0,0,0-1.46.81v3.86h-1Z"/><path class="cls-9" d="M480.05,72.46a2.81,2.81,0,0,1,5.61-.23v.23a2.81,2.81,0,1,1-5.61.21A1.47,1.47,0,0,1,480.05,72.46Zm4.53,0a1.74,1.74,0,1,0-3.45,0,1.74,1.74,0,1,0,3.45,0Z"/><path class="cls-9" d="M487,67.56h1v7.67h-1Z"/><path class="cls-9" d="M489.65,67.56h1v7.67h-1Z"/><path class="cls-9" d="M499.07,71.54c0-.64-.28-1.07-.94-1.07a1.79,1.79,0,0,0-1.38.79v4h-1v-3.7c0-.64-.27-1.07-1-1.07a1.82,1.82,0,0,0-1.36.8v4h-1V69.69h1v.78a2.4,2.4,0,0,1,1.79-.94,1.42,1.42,0,0,1,1.51,1,2.32,2.32,0,0,1,1.89-1c1,0,1.57.56,1.57,1.67v4h-1Z"/><path class="cls-9" d="M504.19,69.55a2.73,2.73,0,0,1,2.7,3v.25H502.5a1.82,1.82,0,0,0,1.89,1.73,2.38,2.38,0,0,0,1.65-.66l.47.68a3.13,3.13,0,0,1-2.23.83,2.92,2.92,0,0,1-.09-5.83Zm-1.7,2.5h3.39a1.64,1.64,0,0,0-1.63-1.65h-.06A1.69,1.69,0,0,0,502.49,72.05Z"/><path class="cls-9" d="M511.93,71.69c0-.92-.47-1.22-1.18-1.22a2,2,0,0,0-1.53.8v4h-1V69.69h1v.78a2.64,2.64,0,0,1,2-.94A1.59,1.59,0,0,1,513,71.32v3.9h-1Z"/><path class="cls-9" d="M514.82,74V70.59h-.92v-.9h.92V68.17h1v1.52H517v.9h-1.13v3.19c0,.39.19.68.55.68a.82.82,0,0,0,.56-.22l.26.78a1.48,1.48,0,0,1-1.08.36,1.21,1.21,0,0,1-1.33-1.07A1,1,0,0,1,514.82,74Z"/><path class="cls-6" d="M21.47,61.71l-2.19-.41a19.53,19.53,0,0,1-6,1C5.75,62.28,0,58,0,50.18S5.86,37.56,13.42,37.56a18.42,18.42,0,0,1,5.44.83l3.25-.68v8H19.92l-1.28-5.14a9.66,9.66,0,0,0-5.18-1.36c-5.37,0-8.7,4.35-8.7,10.39,0,6.58,3.22,11,9,11a9.67,9.67,0,0,0,4.42-1L20,54.19h2.3Z"/><path class="cls-6" d="M36.36,61.71l.12-1.4.83-.11c1.09-.08,1.28-.34,1.28-.72V51.85c0-3.75-1.17-4.77-3.36-4.77a6.62,6.62,0,0,0-3.78,1.4v11c0,.38.22.6,1.43.68l1.18.11.11,1.4H25.32l.12-1.4,1-.11c.91-.08,1.29-.26,1.29-.72V40.32a1.13,1.13,0,0,0-.53-1.1l-2.27-1,.11-1,6.43-1.85V46.86h.19c2-1.63,4.08-2.76,6.12-2.76a4.58,4.58,0,0,1,3.18,1.24,5.91,5.91,0,0,1,1.43,4.31v9.83c0,.34.19.57,1.55.72l.87.11.11,1.4Z"/><path class="cls-6" d="M59,62.35c-1.47,0-2.64-.9-2.75-3H56c-1.36,1.62-2.84,2.91-4.8,2.91a4.48,4.48,0,0,1-4.62-4.42c0-3.14,3.07-5,9.61-6.54V51c0-3.71-1.4-4.88-3.71-4.88-1.25,0-2.68.49-2.68.79s.9.87.9,2a2,2,0,0,1-2.11,1.89,2,2,0,0,1-2.12-1.89c0-2,4.31-4.8,7.79-4.8,4.27,0,5.93,1.77,5.71,7.63l-.27,6.32c-.07,1.05.23,1.55.87,1.55a3.45,3.45,0,0,0,1.81-.91l.65.91C61.88,61.15,60.4,62.35,59,62.35Zm-2.83-9.71c-4.73,1.21-5.82,2.68-5.82,4.27a2.56,2.56,0,0,0,2.61,2.65A4.68,4.68,0,0,0,56,58.05Z"/><path class="cls-6" d="M85.39,61.71l.11-1.4.87-.11c1.09-.08,1.28-.34,1.28-.72V51.85c0-3.75-1.43-4.77-3.36-4.77a5.69,5.69,0,0,0-3.48,1.52,8.21,8.21,0,0,1,0,1v9.83c0,.34.19.57,1.55.72l.83.11.11,1.4H74.8l.15-1.4.83-.11c1.1-.08,1.29-.34,1.29-.72V51.85c0-3.75-1.44-4.77-3.36-4.77a6.09,6.09,0,0,0-3.44,1.4v11c0,.38.22.6,1.43.68l1.06.11.11,1.4H64.1l.12-1.4,1-.11c.91-.08,1.29-.26,1.29-.72v-9.3c0-2.38-.31-2.72-1.63-3.1L64,46.89l0-1.09,6.2-1.7v2.76h.11c2-1.67,3.89-2.76,5.86-2.76a4.54,4.54,0,0,1,3.17,1.24,4.69,4.69,0,0,1,1.06,1.74h.15c2-1.89,4.16-3,6.2-3A4.55,4.55,0,0,1,90,45.34a5.91,5.91,0,0,1,1.43,4.31v9.83c0,.34.19.57,1.55.72l.87.11.12,1.4Z"/><path class="cls-6" d="M104.28,62.28a16,16,0,0,1-4.46-.91h0l-2.05,1.14h-.49V40.32c0-.57-.15-.91-.53-1.1l-2.19-1,.11-1L101,35.37V47.2h.19a7.4,7.4,0,0,1,5.41-2.84c4.15,0,6.8,3.63,6.8,8.17C113.43,57.55,110.07,62.28,104.28,62.28Zm.49-15A5,5,0,0,0,101,49.12v9.23c1.17,1.32,2.46,2.3,4.08,2.3,2.23,0,4.24-2.53,4.24-6.61S107.46,47.31,104.77,47.31Z"/><path class="cls-6" d="M123.67,62.28c-4.46,0-7.75-3.59-7.75-8.51,0-5.59,3.94-9.67,9-9.67,3.63,0,6.16,2.23,6.16,5.78a10,10,0,0,1-.22,2.08l-11-.15v.41c0,4.24,2.34,7.07,5.59,7.07a6.13,6.13,0,0,0,4.69-2.19l.79.45A7.56,7.56,0,0,1,123.67,62.28Zm.49-16.63c-2,0-3.85,1.7-4.23,4.91l7.18,0C127.26,47.46,126.05,45.65,124.16,45.65Z"/><path class="cls-6" d="M145.41,48.78a2.52,2.52,0,0,1-2.16-1.36,10.28,10.28,0,0,0-3.51,3.75v8.35c0,.38.22.6,1.43.68l1.36.11.12,1.4h-9.07l.11-1.4,1-.11c.91-.08,1.29-.26,1.29-.72v-9.3c0-2.38-.31-2.72-1.63-3.1l-.83-.19,0-1.09,6.2-1.7v4.8h.19c1.89-3.14,3.21-4.8,5.1-4.8a2.27,2.27,0,0,1,2.46,2.42A2.05,2.05,0,0,1,145.41,48.78Z"/><path class="cls-6" d="M155,62.28a16.07,16.07,0,0,1-5.48-.87l-.19-5h2.23l.91,3.36a5.42,5.42,0,0,0,2.91.95c1.66,0,3.4-1.1,3.4-2.84s-2-2.41-4.2-3.21c-2.64-1-5.14-2.11-5.14-5.44,0-2.72,2.31-5.18,6.39-5.18a11.44,11.44,0,0,1,3.93.64l1.4-.49.23,5.52h-2.12l-.91-3.25a5,5,0,0,0-2.76-.83c-1.66,0-2.91,1-2.91,2.38,0,1.7,1.44,2.27,4,3.25S162,53.43,162,56.72C162,59.71,159.47,62.28,155,62.28Z"/><path class="cls-6" d="M177.61,62.32c-7.3,0-12.51-5-12.51-12.17A12.52,12.52,0,0,1,177.76,37.6c7.26,0,12.44,4.95,12.44,12.17A12.47,12.47,0,0,1,177.61,62.32Zm0-23.14c-4.23,0-7.71,3.71-7.71,10.51,0,7,3.63,11,7.9,11s7.71-3.67,7.71-10.51S181.84,39.18,177.57,39.18Z"/><path class="cls-6" d="M205.35,40.09c-1.21,0-2.27-.87-2.72-2.8l0-.15-1.09-.07C200,38,199,40,199,43.38v1.4h5.18L204,46.86H199V59.52c0,.38.23.6,1.44.68l1.81.11.11,1.4h-9.48l.11-1.4,1-.11c.91-.08,1.29-.26,1.29-.72V47l-3.06-.23.22-2h2.65l0-.83c.3-5.18,4.15-8.58,8.39-8.58,2.08,0,3.85,1.13,3.85,2.68A1.92,1.92,0,0,1,205.35,40.09Z"/><path class="cls-6" d="M293.76,61.71l.12-1.4,1.43-.19c1-.07,1.33-.3,1.33-.68V50.49h-11v9c0,.38.27.53,1.36.64l1.44.19.11,1.4H278.49l.12-1.4,1.47-.19c.94-.11,1.32-.34,1.32-.68V40.32c0-.34-.22-.49-1.4-.64l-1.39-.19-.12-1.4h10.09l-.11,1.4-1.47.19c-1,.11-1.33.34-1.33.68v8.42h11V40.32c0-.38-.27-.53-1.36-.64l-1.4-.19-.12-1.4h10.06l-.12,1.4-1.47.19c-.94.11-1.32.34-1.32.68V59.48c0,.34.22.49,1.4.64l1.39.19.12,1.4Z"/><path class="cls-6" d="M314.25,62.28c-4.46,0-7.75-3.59-7.75-8.51,0-5.59,3.93-9.67,9-9.67,3.62,0,6.16,2.23,6.16,5.78a10,10,0,0,1-.23,2.08l-11-.15v.41c0,4.24,2.34,7.07,5.6,7.07a6.1,6.1,0,0,0,4.68-2.19l.8.45A7.58,7.58,0,0,1,314.25,62.28Zm.49-16.63c-2,0-3.86,1.7-4.23,4.91l7.18,0C317.84,47.46,316.63,45.65,314.74,45.65Z"/><path class="cls-6" d="M336.74,62.35c-1.48,0-2.65-.9-2.76-3h-.19C332.43,61,331,62.28,329,62.28a4.47,4.47,0,0,1-4.61-4.42c0-3.14,3.06-5,9.6-6.54V51c0-3.71-1.4-4.88-3.71-4.88-1.24,0-2.68.49-2.68.79s.91.87.91,2a2,2,0,0,1-2.12,1.89,2,2,0,0,1-2.12-1.89c0-2,4.31-4.8,7.79-4.8,4.27,0,5.94,1.77,5.71,7.63l-.27,6.32c-.07,1.05.23,1.55.87,1.55a3.51,3.51,0,0,0,1.82-.91l.64.91C339.65,61.15,338.17,62.35,336.74,62.35Zm-2.84-9.71c-4.72,1.21-5.82,2.68-5.82,4.27a2.56,2.56,0,0,0,2.61,2.65,4.66,4.66,0,0,0,3.06-1.51Z"/><path class="cls-6" d="M341.88,61.71l.11-1.4,1-.11c.91-.08,1.29-.26,1.29-.72V40.32c0-.57-.15-.91-.53-1.1l-2.23-1,.11-1L348,35.37V59.52c0,.38.23.6,1.44.68l.94.11.11,1.4Z"/><path class="cls-6" d="M359.15,62.28c-2.72,0-4.72-1.63-4.65-5.44l.23-9.83-3-.23,0-1.25,5.14-4.46,1.51.23,0,3.48h6.16l-.27,2.08H358.4l-.23,8.92c-.08,2.83,1.25,3.74,3.17,3.74a7.14,7.14,0,0,0,3.18-.87l.15,1A7.66,7.66,0,0,1,359.15,62.28Z"/><path class="cls-6" d="M377,61.71l.11-1.4.84-.11c1.09-.08,1.28-.34,1.28-.72V51.85c0-3.75-1.17-4.77-3.36-4.77a6.62,6.62,0,0,0-3.78,1.4v11c0,.38.22.6,1.43.68l1.18.11.11,1.4H366l.12-1.4,1-.11c.91-.08,1.29-.26,1.29-.72V40.32a1.13,1.13,0,0,0-.53-1.1l-2.27-1,.11-1,6.43-1.85V46.86h.19c2-1.63,4.08-2.76,6.12-2.76a4.58,4.58,0,0,1,3.18,1.24A5.91,5.91,0,0,1,383,49.65v9.83c0,.34.19.57,1.55.72l.87.11.11,1.4Z"/><path class="cls-6" d="M409.08,61.71l-2.19-.41a19.53,19.53,0,0,1-6,1c-7.56,0-13.31-4.27-13.31-12.1S393.47,37.56,401,37.56a18.36,18.36,0,0,1,5.44.83l3.25-.68v8h-2.19l-1.28-5.14a9.66,9.66,0,0,0-5.18-1.36c-5.37,0-8.7,4.35-8.7,10.39,0,6.58,3.22,11,9,11a9.64,9.64,0,0,0,4.42-1l1.78-5.41h2.31Z"/><path class="cls-6" d="M425.9,62.35c-1.47,0-2.64-.9-2.76-3H423c-1.36,1.62-2.83,2.91-4.8,2.91a4.47,4.47,0,0,1-4.61-4.42c0-3.14,3.06-5,9.6-6.54V51c0-3.71-1.4-4.88-3.7-4.88-1.25,0-2.69.49-2.69.79s.91.87.91,2a2,2,0,0,1-2.12,1.89,2,2,0,0,1-2.11-1.89c0-2,4.31-4.8,7.78-4.8,4.28,0,5.94,1.77,5.71,7.63l-.26,6.32c-.08,1.05.22,1.55.87,1.55a3.45,3.45,0,0,0,1.81-.91l.64.91C428.81,61.15,427.34,62.35,425.9,62.35Zm-2.83-9.71c-4.73,1.21-5.82,2.68-5.82,4.27a2.55,2.55,0,0,0,2.6,2.65,4.7,4.7,0,0,0,3.07-1.51Z"/><path class="cls-6" d="M442.87,48.78a2.5,2.5,0,0,1-2.15-1.36,10.37,10.37,0,0,0-3.52,3.75v8.35c0,.38.23.6,1.44.68l1.36.11.11,1.4H431l.11-1.4,1-.11c.9-.08,1.28-.26,1.28-.72v-9.3c0-2.38-.3-2.72-1.62-3.1l-.83-.19,0-1.09,6.2-1.7v4.8h.19c1.89-3.14,3.21-4.8,5.1-4.8A2.27,2.27,0,0,1,445,46.52,2.05,2.05,0,0,1,442.87,48.78Z"/><path class="cls-6" d="M454.06,62.28c-4.46,0-7.75-3.59-7.75-8.51,0-5.59,3.93-9.67,9-9.67,3.63,0,6.16,2.23,6.16,5.78a10,10,0,0,1-.23,2.08l-11-.15v.41c0,4.24,2.35,7.07,5.6,7.07a6.1,6.1,0,0,0,4.68-2.19l.8.45A7.57,7.57,0,0,1,454.06,62.28Zm.49-16.63c-2,0-3.85,1.7-4.23,4.91l7.18,0C457.65,47.46,456.44,45.65,454.55,45.65Z"/><path class="cls-6" d="M466.07,62.12a2,2,0,0,1-2-1.95,1.94,1.94,0,0,1,2-1.92A1.91,1.91,0,0,1,468,60.17,1.94,1.94,0,0,1,466.07,62.12Z"/><path class="cls-6" d="M475.67,62.12c-3.22,0-5.57-2.57-5.57-6.09a6.64,6.64,0,0,1,6.58-6.93c2.59,0,4,1.28,4,2.71a1.47,1.47,0,0,1-1.65,1.54c-1.14,0-1.84-1.3-1.55-2.68v-.05a2.31,2.31,0,0,0-1.29-.35c-1.82,0-3.28,1.59-3.28,4.49s1.65,5.22,4,5.22a4.37,4.37,0,0,0,3.35-1.57l.57.33A5.4,5.4,0,0,1,475.67,62.12Z"/><path class="cls-6" d="M488.45,62.12c-3.76,0-6.06-2.87-6.06-6.44A6.54,6.54,0,0,1,489,49.1a5.93,5.93,0,0,1,6.06,6.23A6.62,6.62,0,0,1,488.45,62.12Zm2.24-10.91a2.81,2.81,0,0,0-2.08-.92c-1.84,0-3.25,1.74-3.25,4.63,0,2.19.38,4.11,1.35,5.14a3,3,0,0,0,2.12.89c1.78,0,3.22-1.75,3.22-4.62C492.05,54.16,491.64,52.19,490.69,51.21Z"/><path class="cls-6" d="M511.93,61.71l.08-1,.63-.08c.78-.05.92-.24.92-.51V54.65c0-2.68-1-3.41-2.41-3.41a4.14,4.14,0,0,0-2.49,1.08,5.87,5.87,0,0,1,0,.76v7c0,.24.13.4,1.11.51l.59.08.08,1h-6.11l.11-1,.59-.08c.78-.05.92-.24.92-.51V54.65c0-2.68-1-3.41-2.41-3.41a4.4,4.4,0,0,0-2.46,1v7.9c0,.27.16.44,1,.49l.76.08.08,1H496.7l.08-1,.7-.08c.65-.05.92-.19.92-.51V53.46c0-1.7-.21-2-1.16-2.22l-.59-.13,0-.79,4.44-1.22v2h.08a6.84,6.84,0,0,1,4.2-2,3.25,3.25,0,0,1,2.27.9,3.54,3.54,0,0,1,.76,1.24h.1A6.84,6.84,0,0,1,513,49.1a3.23,3.23,0,0,1,2.27.9,4.18,4.18,0,0,1,1,3.08v7c0,.24.14.4,1.11.51l.62.08.09,1Z"/></g></g></svg>