<svg width="218" height="113" viewBox="0 0 218 113" fill="none" xmlns="http://www.w3.org/2000/svg">
<path d="M218 93.2422H0V93.3516H218V93.2422Z" fill="#EBEBEB"/>
<path d="M196.156 100.282H181.716V100.391H196.156V100.282Z" fill="#EBEBEB"/>
<path d="M144.412 101.472H140.623V101.581H144.412V101.472Z" fill="#EBEBEB"/>
<path d="M181.28 96.2217H172.913V96.3311H181.28V96.2217Z" fill="#EBEBEB"/>
<path d="M41.7039 96.9565H22.873V97.0659H41.7039V96.9565Z" fill="#EBEBEB"/>
<path d="M48.3487 96.9565H45.5889V97.0659H48.3487V96.9565Z" fill="#EBEBEB"/>
<path d="M98.1658 98.8032H57.3213V98.9126H98.1658V98.8032Z" fill="#EBEBEB"/>
<path d="M173.929 23.332H87.4004V27.1384H173.929V23.332Z" fill="#F5F5F5"/>
<path d="M32.1988 39.2051H35.0023C37.893 39.2051 40.2343 41.5545 40.2343 44.4552V80.5238C40.2343 83.4246 37.893 85.774 35.0023 85.774H32.1988C29.3081 85.774 26.9668 83.4246 26.9668 80.5238V44.4552C26.9668 41.5545 29.3081 39.2051 32.1988 39.2051Z" fill="#F5F5F5"/>
<path d="M36.9684 40.7583H37.836C40.0727 40.7583 41.8865 42.5784 41.8865 44.8228V80.152C41.8865 82.3965 40.0727 84.2165 37.836 84.2165H36.9684C34.7317 84.2165 32.918 82.3965 32.918 80.152V44.8228C32.918 42.5784 34.7317 40.7583 36.9684 40.7583Z" fill="#EBEBEB"/>
<path d="M41.8384 39.2051H44.6419C47.5326 39.2051 49.8739 41.5545 49.8739 44.4552V80.5238C49.8739 83.4246 47.5326 85.774 44.6419 85.774H41.8384C38.9478 85.774 36.6064 83.4246 36.6064 80.5238V44.4552C36.6064 41.5545 38.9478 39.2051 41.8384 39.2051Z" fill="#F5F5F5"/>
<path d="M46.6042 40.7583H47.4718C49.7085 40.7583 51.5222 42.5784 51.5222 44.8228V80.152C51.5222 82.3965 49.7085 84.2165 47.4718 84.2165H46.6042C44.3675 84.2165 42.5537 82.3965 42.5537 80.152V44.8228C42.5537 42.5784 44.3675 40.7583 46.6042 40.7583Z" fill="#EBEBEB"/>
<path d="M51.4742 39.2051H54.2777C57.1684 39.2051 59.5097 41.5545 59.5097 44.4552V80.5238C59.5097 83.4246 57.1684 85.774 54.2777 85.774H51.4742C48.5835 85.774 46.2422 83.4246 46.2422 80.5238V44.4552C46.2422 41.5545 48.5835 39.2051 51.4742 39.2051Z" fill="#F5F5F5"/>
<path d="M56.2399 40.7583H57.1075C59.3442 40.7583 61.158 42.5784 61.158 44.8228V80.152C61.158 82.3965 59.3442 84.2165 57.1075 84.2165H56.2399C54.0032 84.2165 52.1895 82.3965 52.1895 80.152V44.8228C52.1895 42.5784 54.0032 40.7583 56.2399 40.7583Z" fill="#EBEBEB"/>
<path d="M61.1099 39.2051H63.9134C66.8041 39.2051 69.1454 41.5545 69.1454 44.4552V80.5238C69.1454 83.4246 66.8041 85.774 63.9134 85.774H61.1099C58.2193 85.774 55.8779 83.4246 55.8779 80.5238V44.4552C55.8779 41.5545 58.2193 39.2051 61.1099 39.2051Z" fill="#F5F5F5"/>
<path d="M65.8756 40.7583H66.7433C68.98 40.7583 70.7937 42.5784 70.7937 44.8228V80.152C70.7937 82.3965 68.98 84.2165 66.7433 84.2165H65.8756C63.639 84.2165 61.8252 82.3965 61.8252 80.152V44.8228C61.8252 42.5784 63.639 40.7583 65.8756 40.7583Z" fill="#EBEBEB"/>
<path d="M70.7457 39.2051H73.5492C76.4398 39.2051 78.7812 41.5545 78.7812 44.4552V80.5238C78.7812 83.4246 76.4398 85.774 73.5492 85.774H70.7457C67.855 85.774 65.5137 83.4246 65.5137 80.5238V44.4552C65.5137 41.5545 67.855 39.2051 70.7457 39.2051Z" fill="#F5F5F5"/>
<path d="M75.5153 40.7583H76.3786C78.6152 40.7583 80.429 42.5784 80.429 44.8228V80.152C80.429 82.3965 78.6152 84.2165 76.3786 84.2165H75.5153C73.2786 84.2165 71.4648 82.3965 71.4648 80.152V44.8228C71.4648 42.5784 73.2786 40.7583 75.5153 40.7583Z" fill="#EBEBEB"/>
<path d="M80.3853 39.2051H83.1888C86.0795 39.2051 88.4208 41.5545 88.4208 44.4552V80.5238C88.4208 83.4246 86.0795 85.774 83.1888 85.774H80.3853C77.4946 85.774 75.1533 83.4246 75.1533 80.5238V44.4552C75.1533 41.5545 77.4946 39.2051 80.3853 39.2051Z" fill="#F5F5F5"/>
<path d="M85.151 40.7583H86.0143C88.251 40.7583 90.0648 42.5784 90.0648 44.8228V80.152C90.0648 82.3965 88.251 84.2165 86.0143 84.2165H85.151C82.9143 84.2165 81.1006 82.3965 81.1006 80.152V44.8228C81.1006 42.5784 82.9143 40.7583 85.151 40.7583Z" fill="#EBEBEB"/>
<path d="M90.0211 39.2051H92.8245C95.7152 39.2051 98.0565 41.5545 98.0565 44.4552V80.5238C98.0565 83.4246 95.7152 85.774 92.8245 85.774H90.0211C87.1304 85.774 84.7891 83.4246 84.7891 80.5238V44.4552C84.7891 41.5545 87.1304 39.2051 90.0211 39.2051Z" fill="#F5F5F5"/>
<path d="M98.9456 80.5982H87.4003C86.9207 80.5982 86.5283 80.2044 86.5283 79.7232C86.5283 79.2419 86.9207 78.8481 87.4003 78.8481H98.9456C99.4252 78.8481 99.8176 79.2419 99.8176 79.7232C99.8176 80.2044 99.4252 80.5982 98.9456 80.5982Z" fill="#F5F5F5"/>
<path d="M98.9456 47.2725H87.4003C86.9207 47.2725 86.5283 46.8788 86.5283 46.3975C86.5283 45.9162 86.9207 45.5225 87.4003 45.5225H98.9456C99.4252 45.5225 99.8176 45.9162 99.8176 46.3975C99.8176 46.8788 99.4252 47.2725 98.9456 47.2725Z" fill="#F5F5F5"/>
<path d="M130.503 55.9046H162.815C164.555 55.9046 165.963 54.4914 165.968 52.7458C165.963 51.0001 164.555 49.5869 162.815 49.5869H130.503C128.764 49.5869 127.355 51.0001 127.355 52.7458C127.355 54.4914 128.764 55.9046 130.503 55.9046Z" fill="#EBEBEB"/>
<path d="M155.198 49.5872H138.125L134.562 32.6904H158.76L155.198 49.5872Z" fill="#E6E6E6"/>
<path d="M157.156 35.6041H136.166C134.562 35.6041 133.263 34.3003 133.263 32.6902C133.267 31.0845 134.566 29.7808 136.166 29.7808H157.156C158.756 29.7808 160.055 31.0845 160.059 32.6902C160.059 34.3003 158.76 35.6041 157.156 35.6041Z" fill="#F5F5F5"/>
<path d="M126.662 93.2422L133.76 55.9048H139.703L128.916 93.2422H126.662Z" fill="#E0E0E0"/>
<path d="M166.661 93.2422L159.567 55.9048H153.62L164.407 93.2422H166.661Z" fill="#E0E0E0"/>
<path d="M153.62 93.2422L148.462 55.9048H142.52L151.366 93.2422H153.62Z" fill="#E0E0E0"/>
<path d="M109 113C155.688 113 193.536 110.783 193.536 108.047C193.536 105.312 155.688 103.095 109 103.095C62.3119 103.095 24.4639 105.312 24.4639 108.047C24.4639 110.783 62.3119 113 109 113Z" fill="#F5F5F5"/>
<path d="M60.3376 70.4605H40.3949C39.6712 70.4605 39.0869 69.8743 39.0869 69.148C39.0869 68.4217 39.6712 67.8354 40.3949 67.8354H60.3376C61.0613 67.8354 61.6456 68.4217 61.6456 69.148C61.6456 69.8743 61.0613 70.4605 60.3376 70.4605Z" fill="#407BFF"/>
<path opacity="0.8" d="M60.3376 70.4605H40.3949C39.6712 70.4605 39.0869 69.8743 39.0869 69.148C39.0869 68.4217 39.6712 67.8354 40.3949 67.8354H60.3376C61.0613 67.8354 61.6456 68.4217 61.6456 69.148C61.6456 69.8743 61.0613 70.4605 60.3376 70.4605Z" fill="white"/>
<path d="M78.2964 104.232L81.2351 102.88L79.8181 95.2676L76.8838 96.6239L78.2964 104.232Z" fill="#7F3E3B"/>
<path d="M81.0954 102.071L77.7949 103.589C77.6771 103.637 77.6205 103.773 77.6684 103.891L78.7061 106.586C78.8369 106.875 79.1726 107.002 79.4604 106.875C80.6027 106.323 81.1172 106 82.5691 105.335C83.4629 104.923 87.304 103.27 88.5335 102.71C89.7631 102.15 89.1745 100.933 88.599 101.065C86.0309 101.646 82.8132 102.298 81.684 102.027C81.4878 101.975 81.2829 101.992 81.0954 102.071Z" fill="#263238"/>
<path opacity="0.2" d="M76.8799 96.6239L79.8185 95.272L80.551 99.1965L77.608 100.548L76.8799 96.6239Z" fill="black"/>
<path d="M57.5776 55.2788C57.5776 55.2788 82.7261 57.0857 81.7102 66.3304C80.254 79.6177 81.453 96.4269 81.453 96.4269L75.9768 98.6933C75.9768 98.6933 71.1808 79.9633 72.4583 69.6074C66.1842 66.9823 49.1715 69.498 47.1703 64.0597C46.1936 61.2421 45.932 58.2233 46.4204 55.2788H57.5776Z" fill="#263238"/>
<path opacity="0.3" d="M69.8297 62.9746C69.8297 62.9746 69.2193 65.7222 68.8008 68.706H68.8575L69.5027 68.8067L69.8297 68.8679L70.2003 68.9379C70.7061 69.0385 71.2031 69.1654 71.6958 69.3229C71.8135 69.3579 71.9225 69.3973 72.0315 69.4367C72.1405 69.4761 72.3237 69.5417 72.4675 69.5986C72.3149 70.8761 72.2408 72.158 72.2452 73.4443C76.0602 67.8223 72.7815 62.9746 69.8297 62.9746Z" fill="black"/>
<path d="M75.4845 100.5L82.5695 97.2364L82.1117 94.6201L74.8262 97.2933L75.4845 100.5Z" fill="#407BFF"/>
<path d="M82.4034 102.106C82.133 102.219 81.854 102.303 81.5706 102.359C81.5401 102.364 81.5139 102.355 81.4965 102.329C81.479 102.303 81.479 102.272 81.4965 102.246C81.5575 102.136 82.1287 101.187 82.5516 101.161C82.6519 101.152 82.7434 101.2 82.8001 101.283C82.9004 101.393 82.9353 101.55 82.8873 101.694C82.7827 101.887 82.6083 102.036 82.4034 102.106ZM81.7145 102.171C82.2856 102.036 82.665 101.843 82.7391 101.642C82.7696 101.55 82.7478 101.445 82.678 101.375C82.6519 101.331 82.6039 101.309 82.556 101.314C82.3162 101.327 81.9412 101.817 81.7014 102.171H81.7145Z" fill="#407BFF"/>
<path d="M81.5752 102.355H81.5316C81.5055 102.355 81.4793 102.342 81.4706 102.316C81.4706 102.285 80.9954 101.467 81.161 101.043C81.2003 100.933 81.2918 100.846 81.4052 100.815C81.5273 100.763 81.6712 100.802 81.7496 100.907C81.9633 101.196 81.8107 102.014 81.597 102.325L81.5752 102.355ZM81.427 100.973C81.3703 100.999 81.3267 101.047 81.3093 101.104C81.2744 101.463 81.3572 101.821 81.5447 102.128C81.7191 101.778 81.754 101.375 81.6363 101.003C81.6101 100.964 81.5665 100.929 81.4619 100.96L81.427 100.973Z" fill="#407BFF"/>
<path d="M58.8032 28.9756L61.8552 37.8571C62.3741 39.3359 62.8886 40.8103 63.4205 42.2672C63.9524 43.7242 64.4974 45.1767 65.0816 46.5592L64.9378 46.2967C64.7895 46.0824 64.5933 45.9117 64.3666 45.7936C64.1006 45.6536 63.7954 45.588 63.4946 45.6142C63.0978 45.6667 63.1109 45.7498 63.1545 45.7192C63.4074 45.5967 63.6385 45.4348 63.8434 45.2423C64.4494 44.6998 65.025 44.1223 65.5656 43.5142C66.1455 42.8798 66.7166 42.2016 67.3096 41.541L69.0274 39.5109L71.1115 40.7622C70.7497 41.6372 70.3398 42.4597 69.9212 43.2954C69.5027 44.1311 69.0492 44.9361 68.5304 45.7455C68.0116 46.5899 67.4273 47.3905 66.7864 48.1474C66.3809 48.6199 65.9144 49.0399 65.3999 49.3943C64.929 49.7225 64.3797 49.9193 63.8085 49.9718C63.2853 50.0156 62.7578 49.9062 62.2956 49.6568C61.8683 49.4293 61.5064 49.0924 61.2405 48.6856L61.1882 48.6068L61.0966 48.4274C60.3641 46.9399 59.7188 45.4698 59.0997 43.9823C58.4806 42.4947 57.892 41.0203 57.3296 39.5284C56.7671 38.0365 56.2178 36.5446 55.6946 35.0439C55.1714 33.5432 54.6569 32.0426 54.1816 30.5113L58.8032 28.9756Z" fill="#803E3C"/>
<path d="M59.3531 29.457C61.9691 32.4846 63.7131 36.7197 63.7131 36.7197L56.8418 40.8717C54.858 38.4479 52.3859 32.0252 52.2812 29.8595C52.1286 26.53 56.5191 26.1975 59.3531 29.457Z" fill="#407BFF"/>
<path opacity="0.3" d="M56.9287 32.5457C58.4285 33.8101 59.4924 36.4396 59.9807 38.9903L56.8677 40.8716C55.8867 39.6728 54.7836 37.4983 53.9072 35.337C54.5874 33.1932 55.6033 31.4256 56.9287 32.5457Z" fill="black"/>
<path d="M57.9004 103.978H61.1355L62.6135 96.4707H59.3828L57.9004 103.978Z" fill="#7F3E3B"/>
<path d="M61.236 103.191H57.6041C57.4777 103.187 57.3687 103.287 57.3643 103.414L57.1855 106.297C57.1855 106.612 57.4384 106.871 57.7523 106.875C59.0167 106.853 59.6228 106.779 61.2185 106.779C62.1995 106.779 65.5349 106.879 66.8865 106.879C68.2381 106.879 68.1945 105.532 67.6277 105.409C65.051 104.862 62.7009 104.097 61.7853 103.392C61.6327 103.265 61.4365 103.191 61.236 103.191Z" fill="#263238"/>
<path opacity="0.2" d="M59.3836 96.4707H62.6143L61.8513 100.343H58.6162L59.3836 96.4707Z" fill="black"/>
<path d="M51.2426 55.2788C51.2426 55.2788 72.5543 57.0857 72.0311 66.3698C71.4555 76.5376 63.2544 99.4064 63.2544 99.4064H57.3335C57.3335 99.4064 60.0105 78.7164 61.3055 68.3648C55.3017 68.3648 42.8365 69.498 40.8396 64.0597C39.8673 61.2421 39.6188 58.2189 40.1115 55.2788H51.2426Z" fill="#263238"/>
<path d="M56.6973 99.4062H64.4929L64.9377 96.3218L56.8019 96.6893L56.6973 99.4062Z" fill="#407BFF"/>
<path d="M62.3779 103.755C62.0857 103.747 61.7936 103.712 61.5059 103.642C61.4666 103.633 61.4404 103.594 61.4448 103.554C61.4492 103.532 61.4623 103.515 61.4797 103.506C61.5843 103.432 62.4956 102.806 62.8923 102.959C62.9839 102.998 63.0493 103.077 63.0667 103.173C63.1103 103.318 63.0755 103.471 62.9752 103.585C62.8051 103.712 62.5915 103.773 62.3779 103.755ZM61.7239 103.532C62.3037 103.646 62.731 103.629 62.8793 103.48C62.9447 103.405 62.9665 103.3 62.9359 103.208C62.9272 103.16 62.8967 103.121 62.8487 103.103C62.6395 103.02 62.0988 103.292 61.7239 103.532Z" fill="#407BFF"/>
<path d="M61.5371 103.641C61.524 103.646 61.5153 103.646 61.5022 103.641C61.4804 103.624 61.4673 103.593 61.476 103.567C61.476 103.527 61.3976 102.596 61.7245 102.281C61.8074 102.197 61.9251 102.162 62.0428 102.176C62.1736 102.18 62.287 102.272 62.3175 102.403C62.3916 102.757 61.9077 103.436 61.5894 103.628L61.5371 103.641ZM61.9731 102.329C61.912 102.329 61.8553 102.351 61.8117 102.394C61.633 102.705 61.5589 103.064 61.5981 103.422C61.8815 103.186 62.1998 102.67 62.1518 102.438C62.1518 102.394 62.1169 102.342 62.0079 102.329H61.9731Z" fill="#407BFF"/>
<path d="M68.5439 40.6135L69.5467 37.0171L72.7775 39.1565C72.7775 39.1565 71.0335 42.2716 69.9391 42.0179L68.5439 40.6135Z" fill="#7F3E3B"/>
<path d="M72.5412 35.5557L74.2285 37.5026L72.7767 39.1564L69.5459 37.0126L72.5412 35.5557Z" fill="#7F3E3B"/>
<path d="M57.5515 55.4406H40.2684C40.1464 53.8918 40.5039 48.8516 40.2379 42.4333C40.0722 37.6775 39.4967 32.9436 38.5201 28.2841C38.4416 27.9341 38.3631 27.5885 38.2803 27.2385C38.2803 27.2385 39.1523 27.0591 40.4123 26.8753C41.4544 26.7222 42.7624 26.5647 44.0442 26.5034C46.4901 26.3634 48.9448 26.3634 51.3908 26.5034C52.52 26.6084 53.6231 26.7966 54.5038 26.9672C55.6287 27.1947 56.2914 27.4047 56.2914 27.4047C56.2914 27.4047 60.5511 37.205 57.5515 55.4406Z" fill="#407BFF"/>
<path opacity="0.3" d="M40.2383 42.4378C40.0727 37.682 39.4971 32.9481 38.5205 28.2886C39.6759 28.188 41.651 28.2886 41.978 30.1743C42.3311 32.1868 41.8864 36.9207 40.2383 42.4378Z" fill="black"/>
<path d="M41.6333 31.5219C41.2539 32.6026 40.8441 33.7664 40.4822 34.8995C40.1203 36.0327 39.7628 37.1877 39.4402 38.334C38.7687 40.5478 38.2979 42.8185 38.0275 45.1198L37.997 45.5223V45.7236C37.997 45.7673 37.997 45.9249 37.997 45.8023C37.9665 45.553 37.8706 45.3123 37.718 45.1111C37.5392 44.8573 37.282 44.6648 36.9855 44.5686C36.8198 44.5248 36.7762 44.5379 36.7719 44.5423C36.8155 44.5554 36.8678 44.5554 36.9114 44.5423C37.1163 44.5292 37.3169 44.4986 37.5174 44.4461C38.5944 44.1529 39.6451 43.7767 40.6653 43.3173C42.8453 42.381 45.0559 41.296 47.2359 40.2197L48.57 42.2497C46.608 43.886 44.5239 45.3736 42.3352 46.6905C41.1798 47.4036 39.9547 48.003 38.6859 48.4799C38.2935 48.6156 37.8924 48.7249 37.4869 48.7993C37.2297 48.8474 36.9681 48.8737 36.7065 48.8824C36.3228 48.8912 35.9435 48.8343 35.5772 48.7206C34.9843 48.5368 34.4654 48.1605 34.1035 47.653C33.7809 47.1849 33.5978 46.638 33.5716 46.0692C33.5673 45.9424 33.5673 45.8155 33.5716 45.6886V44.8967C33.6065 43.5535 33.7373 42.2147 33.9684 40.8891C34.1777 39.5765 34.448 38.3252 34.7619 37.0783C35.0758 35.8314 35.4159 34.5976 35.8083 33.3813C36.2007 32.1651 36.5931 30.9794 37.0901 29.7456L41.6333 31.5219Z" fill="#803E3C"/>
<path d="M38.2807 27.2428C41.4286 26.2452 43.443 28.7697 42.571 33.1492C41.978 35.9493 40.9708 38.64 39.58 41.1382L33.2188 38.1106C33.8248 33.8186 35.0587 28.2622 38.2807 27.2428Z" fill="#407BFF"/>
<path d="M44.2021 18.252L46.1684 19.8883L48.8455 22.1196C48.767 22.4783 48.7103 22.8415 48.6754 23.2046C48.5316 24.6615 48.9065 25.9872 51.0429 26.4947C51.0429 26.4947 53.1444 28.4635 48.9414 28.5248C44.7384 28.586 43.7617 26.5385 43.7617 26.5385C45.3444 24.9415 44.7471 20.6145 44.2021 18.252Z" fill="#7F3E3B"/>
<path opacity="0.2" d="M48.8319 22.1063C48.7534 22.4651 48.6967 22.8282 48.6618 23.1913C47.6634 22.9901 46.3292 21.9226 46.1897 20.8988C46.1418 20.5619 46.1287 20.2163 46.1548 19.875L48.8319 22.1063Z" fill="black"/>
<path d="M51.962 15.7802C52.7337 14.0302 52.2498 11.497 50.9418 10.5563C50.0959 9.92192 48.9013 10.0969 48.2691 10.9457C48.0162 11.287 47.8811 11.6982 47.8898 12.1226C47.82 14.2752 51.0813 17.7709 51.962 15.7802Z" fill="#263238"/>
<path d="M43.3908 14.8217C44.0753 17.9761 44.3151 19.8487 46.1724 21.2881C47.9862 22.7232 50.6153 22.4125 52.0454 20.5925C52.5686 19.9275 52.8781 19.1137 52.9348 18.2693C53.179 15.3336 52.0236 10.6653 48.7143 9.77276C46.4733 9.10774 44.1145 10.3897 43.4518 12.6385C43.2425 13.3472 43.2207 14.0998 43.3908 14.8217Z" fill="#7F3E3B"/>
<path d="M44.7249 17.2809C45.7233 15.6446 45.5664 13.0721 44.3979 11.9695C43.648 11.2214 42.4359 11.2257 41.6903 11.9783C41.3851 12.2845 41.1933 12.6914 41.1453 13.1202C40.814 15.2509 43.6 19.1272 44.7249 17.2809Z" fill="#263238"/>
<path d="M45.2247 13.3829C45.9404 13.0094 46.2189 12.1245 45.8467 11.4063C45.4745 10.6882 44.5926 10.4087 43.8769 10.7822C43.1612 11.1557 42.8828 12.0407 43.255 12.7588C43.6272 13.477 44.5091 13.7564 45.2247 13.3829Z" fill="#263238"/>
<path d="M44.7068 11.4793C44.4975 12.175 43.765 12.5643 43.0761 12.3543C42.3829 12.1443 41.9949 11.4093 42.2041 10.718C42.4134 10.0224 43.1459 9.633 43.8348 9.843C43.8435 9.84738 43.8566 9.84738 43.8653 9.85176C44.5411 10.0749 44.9117 10.7968 44.7068 11.4793Z" fill="#263238"/>
<path d="M46.9002 11.2516C46.6865 11.9429 45.954 12.3279 45.2608 12.1135C44.5719 11.8991 44.1882 11.1641 44.4019 10.4685C44.6155 9.77281 45.348 9.39217 46.0412 9.60656C46.0456 9.60656 46.0456 9.60655 46.05 9.61093C46.7345 9.82969 47.1138 10.5647 46.9002 11.2516Z" fill="#263238"/>
<path d="M44.311 9.81251C44.0276 10.7182 43.0684 11.2213 42.1659 10.9413C41.2634 10.6569 40.762 9.69437 41.041 8.78872C41.3244 7.88307 42.2836 7.37993 43.1861 7.65994C43.1905 7.65994 43.1905 7.65994 43.1949 7.65994C44.093 7.93994 44.5944 8.90248 44.3154 9.80375C44.311 9.80813 44.311 9.80813 44.311 9.81251Z" fill="#263238"/>
<path d="M46.8787 8.91124C46.5909 9.8344 45.6143 10.3507 44.6943 10.0619C43.7744 9.77315 43.2599 8.79312 43.5476 7.86997C43.8354 6.94682 44.812 6.43055 45.732 6.71931C45.7364 6.71931 45.7364 6.7193 45.7407 6.72368C46.6563 7.01681 47.1621 7.99247 46.8787 8.91124Z" fill="#263238"/>
<path d="M49.146 8.30718C48.8626 9.23034 47.886 9.7466 46.9617 9.46222C46.0374 9.17783 45.5272 8.1978 45.8106 7.27027C46.094 6.34711 47.0707 5.83085 47.995 6.11523C47.9994 6.11523 47.9994 6.11524 48.0037 6.11961C48.9193 6.40837 49.4294 7.3884 49.146 8.30718Z" fill="#263238"/>
<path d="M51.7787 8.31611C51.4778 9.23489 50.4925 9.73366 49.5769 9.43615C48.6613 9.13864 48.1642 8.14549 48.4607 7.22671C48.7572 6.32106 49.7207 5.81792 50.6276 6.09792C51.5476 6.38231 52.0664 7.35796 51.783 8.28549C51.7874 8.29424 51.783 8.30736 51.7787 8.31611Z" fill="#263238"/>
<path d="M43.0635 11.6588C42.8019 12.4901 41.9168 12.9495 41.0884 12.687C40.26 12.4245 39.8022 11.5363 40.0638 10.705C40.3254 9.87376 41.2105 9.41437 42.0389 9.67688C42.8673 9.93938 43.3251 10.8275 43.0635 11.6588Z" fill="#263238"/>
<path d="M48.3961 10.2238C48.1606 10.9763 47.3628 11.392 46.6128 11.1557C45.8629 10.9195 45.4487 10.1188 45.6842 9.3663C45.9196 8.61377 46.7175 8.19813 47.4674 8.43439C48.2173 8.67065 48.6315 9.4713 48.3961 10.2238Z" fill="#263238"/>
<path d="M50.1395 10.0926C49.939 10.7314 49.2632 11.0858 48.6266 10.8845C47.9901 10.6833 47.6369 10.0051 47.8375 9.36636C48.038 8.7276 48.7138 8.37321 49.3504 8.57447C49.9869 8.77572 50.3401 9.45387 50.1395 10.0926Z" fill="#263238"/>
<path d="M52.7992 9.15168C52.5987 9.78608 51.9185 10.1361 51.2863 9.93484C50.6541 9.73358 50.3053 9.05106 50.5059 8.41666C50.7064 7.78227 51.3822 7.43225 52.0144 7.63351C52.6466 7.83476 52.9998 8.51291 52.7992 9.15168C52.7992 9.14731 52.7992 9.15168 52.7992 9.15168Z" fill="#263238"/>
<path d="M51.7229 10.1404C51.5311 10.7529 50.8814 11.0898 50.2754 10.9016C49.665 10.7091 49.3293 10.0573 49.5168 9.44911C49.7086 8.83659 50.3582 8.49971 50.9643 8.68784C50.9643 8.68784 50.9643 8.68784 50.9686 8.68784C51.5747 8.87597 51.9148 9.52348 51.7229 10.136V10.1404Z" fill="#263238"/>
<path d="M53.8721 8.58741C53.7152 9.09055 53.1832 9.37055 52.6818 9.21305C52.1804 9.05554 51.9014 8.52178 52.0584 8.01864C52.2153 7.5155 52.7472 7.23548 53.2486 7.39299H53.253C53.75 7.55049 54.0291 8.07989 53.8721 8.58303V8.58741Z" fill="#263238"/>
<path d="M54.3471 9.46693C54.2556 9.76881 53.9373 9.93507 53.6365 9.84319C53.3356 9.75131 53.1699 9.43193 53.2615 9.13004C53.3531 8.82816 53.6713 8.6619 53.9722 8.75378C53.9765 8.75378 53.9765 8.75378 53.9809 8.75816C54.2774 8.85441 54.4431 9.16942 54.3471 9.46693Z" fill="#263238"/>
<path d="M44.9382 10.1712C44.8423 10.4687 44.524 10.6394 44.2275 10.5431C43.931 10.4469 43.761 10.1275 43.8569 9.82996C43.9528 9.53245 44.2711 9.36182 44.5676 9.45807C44.8641 9.55433 45.0298 9.87371 44.9382 10.1712Z" fill="#263238"/>
<path d="M42.8811 17.7444C43.3128 18.3044 43.9319 18.6851 44.6251 18.8163C45.4971 18.9738 45.7849 18.1557 45.3925 17.3594C45.035 16.6419 44.1499 15.6969 43.3259 15.8981C42.5018 16.0994 42.3536 17.0488 42.8811 17.7444Z" fill="#7F3E3B"/>
<path d="M48.7748 15.1106C48.8141 15.3687 48.9841 15.5481 49.1542 15.5481C49.3242 15.5481 49.4288 15.3031 49.3896 15.0449C49.3504 14.7868 49.1803 14.6074 49.0103 14.6074C48.8402 14.6074 48.7356 14.8524 48.7748 15.1106Z" fill="#263238"/>
<path d="M51.7006 14.7521C51.7399 15.0103 51.9099 15.1897 52.0799 15.1897C52.25 15.1897 52.3546 14.9403 52.3154 14.6821C52.2761 14.424 52.1061 14.2446 51.9361 14.2446C51.766 14.2446 51.6614 14.5028 51.7006 14.7521Z" fill="#263238"/>
<path d="M50.8115 14.8657C51.1342 15.5307 51.544 16.152 52.0323 16.7077C51.7402 16.9439 51.3565 17.0402 50.9903 16.9614L50.8115 14.8657Z" fill="#630F0F"/>
<path d="M49.7914 18.2916C49.181 18.3003 48.5924 18.0553 48.1651 17.6178C48.139 17.5872 48.139 17.5391 48.1739 17.5128C48.2044 17.4866 48.2523 17.4866 48.2785 17.5172C48.7537 17.9853 49.4165 18.2085 50.0792 18.121C50.1184 18.1166 50.1533 18.1472 50.162 18.1866C50.1664 18.2303 50.1402 18.2653 50.0966 18.2741C49.9963 18.2872 49.8917 18.2916 49.7914 18.2916Z" fill="#263238"/>
<path d="M47.5981 13.6189C47.5763 13.6101 47.5501 13.6014 47.5327 13.5839C47.4716 13.5226 47.4716 13.4264 47.5283 13.3695C47.5283 13.3695 47.5283 13.3695 47.5327 13.3651C47.8553 12.9845 48.348 12.7963 48.8407 12.8576C48.9235 12.8707 48.9758 12.9451 48.9628 13.0282C48.9628 13.0326 48.9628 13.0326 48.9628 13.037C48.9497 13.1201 48.8756 13.1726 48.7927 13.1595H48.7884C48.4047 13.1201 48.0297 13.2732 47.7812 13.5707C47.7376 13.6232 47.6635 13.6451 47.5981 13.6189Z" fill="#263238"/>
<path d="M52.7557 13.4394C52.7078 13.4526 52.6555 13.4438 52.6162 13.4088C52.3154 13.1463 51.9143 13.0369 51.5219 13.1113C51.4434 13.1375 51.3605 13.0938 51.3344 13.015C51.3344 13.0107 51.3344 13.0107 51.3344 13.0063C51.3126 12.9275 51.3605 12.84 51.439 12.8182C51.9273 12.7132 52.4331 12.8444 52.8081 13.1725C52.8735 13.2294 52.8822 13.3257 52.8299 13.3913C52.8081 13.4132 52.7819 13.4307 52.7557 13.4394Z" fill="#263238"/>
<path d="M46.5605 40.5869L47.6941 37.8218L50.0834 40.3725C50.0834 40.3725 48.928 43.0851 47.5851 42.3675L46.5605 40.5869Z" fill="#7F3E3B"/>
<path d="M50.6712 35.9624L52.001 38.1675L50.0826 40.3726L47.6934 37.8175L50.6712 35.9624Z" fill="#7F3E3B"/>
<path d="M121.313 12.2537C123.417 12.2537 125.123 10.5417 125.123 8.42983C125.123 6.31796 123.417 4.60596 121.313 4.60596C119.208 4.60596 117.502 6.31796 117.502 8.42983C117.502 10.5417 119.208 12.2537 121.313 12.2537Z" fill="#263238"/>
<path d="M122.198 12.3635C120.031 12.3635 118.274 10.6003 118.274 8.4259C118.274 6.25146 120.031 4.48828 122.198 4.48828C124.365 4.48828 126.122 6.25146 126.122 8.4259C126.122 10.6003 124.365 12.3635 122.198 12.3635ZM122.198 4.72016C120.154 4.72016 118.497 6.38271 118.497 8.43465C118.497 10.4866 120.154 12.1491 122.198 12.1491C124.243 12.1491 125.9 10.4866 125.9 8.43465V8.43028C125.896 6.38272 124.239 4.72016 122.198 4.72016Z" fill="#263238"/>
<path d="M113.752 14.573C111.585 14.573 109.828 12.8098 109.828 10.6354C109.828 8.46093 111.585 6.69775 113.752 6.69775C115.919 6.69775 117.676 8.46093 117.676 10.6354C117.676 12.8098 115.919 14.573 113.752 14.573ZM113.752 6.92526C111.707 6.92526 110.05 8.58781 110.05 10.6398C110.05 12.6917 111.707 14.3542 113.752 14.3542C115.797 14.3542 117.454 12.6917 117.454 10.6398C117.454 8.58781 115.797 6.92526 113.752 6.92526Z" fill="#263238"/>
<path d="M117.987 11.1833C118.332 9.04862 116.888 7.03724 114.76 6.6908C112.633 6.34435 110.629 7.79402 110.283 9.92873C109.938 12.0634 111.383 14.0748 113.51 14.4212C115.637 14.7677 117.642 13.318 117.987 11.1833Z" fill="#263238"/>
<path d="M110.347 4.62793C109.872 6.87675 111.498 10.8144 113.208 11.0288C114.917 11.2431 115.252 6.95988 113.77 5.0917C112.288 3.22351 110.705 2.99163 110.347 4.62793Z" fill="#263238"/>
<path d="M113.544 21.6738C113.749 22.912 113.858 24.0714 113.949 25.2746C114.041 26.4777 114.058 27.6678 114.041 28.8753C114.032 31.3297 113.718 33.7711 113.099 36.1424C112.423 38.4612 111.612 40.6269 110.771 42.8101L109.463 46.0564C109.005 47.1283 108.565 48.2003 108.081 49.2678L106.546 48.7078L107.492 45.3608L108.456 42.0269L109.397 38.7018C109.711 37.5993 110.008 36.4836 110.269 35.4117C110.701 33.2592 110.88 31.0629 110.801 28.8709C110.801 27.7553 110.732 26.6352 110.64 25.5196C110.548 24.4039 110.431 23.2576 110.296 22.2032L113.544 21.6738Z" fill="#FF8B7B"/>
<path d="M110.486 18.3311C109.27 18.9568 109.575 24.5088 109.575 24.5088L115.291 26.7577C115.291 26.7577 115.888 19.9587 114.572 18.7555C113.255 17.5524 112.27 17.4167 110.486 18.3311Z" fill="#407BFF"/>
<path opacity="0.2" d="M110.875 19.499L111.102 25.1123L113.417 26.018L110.875 19.499Z" fill="black"/>
<path d="M107.186 47.8765L103.55 49.364L106.349 50.8516C106.349 50.8516 108.215 49.9503 108.272 48.6115L107.186 47.8765Z" fill="#FF8B7B"/>
<path d="M117.289 103.581H114.066L113.521 96.0947H116.744L117.289 103.581Z" fill="#FF8B7B"/>
<path d="M135.169 98.7545L132.008 99.3801L129.549 92.2399L132.705 91.6143L135.169 98.7545Z" fill="#FF8B7B"/>
<path d="M131.546 98.8336L134.951 97.6086C135.073 97.5649 135.209 97.6174 135.265 97.7311L136.621 100.295C136.748 100.553 136.639 100.864 136.381 100.991C136.364 100.999 136.346 101.008 136.329 101.012C135.134 101.419 134.537 101.555 133.037 102.093C132.117 102.421 130.365 103.406 129.091 103.843C127.818 104.281 127.304 103.06 127.783 102.758C129.214 101.922 130.369 100.68 131.097 99.188C131.202 99.0218 131.359 98.8949 131.546 98.8336Z" fill="#263238"/>
<path d="M113.827 103.204H117.445C117.572 103.204 117.681 103.301 117.698 103.427L118.112 106.298C118.143 106.582 117.938 106.84 117.655 106.871C117.637 106.871 117.62 106.875 117.598 106.875C116.334 106.853 115.728 106.779 114.136 106.779C113.155 106.779 111.132 106.879 109.776 106.879C108.42 106.879 108.355 105.536 108.904 105.418C111.424 104.871 112.418 104.106 113.264 103.406C113.421 103.27 113.622 103.2 113.827 103.204Z" fill="#263238"/>
<g opacity="0.2">
<path opacity="0.2" d="M113.521 96.0986L113.818 100.172H117.04L116.744 96.0986H113.521Z" fill="black"/>
<path opacity="0.2" d="M132.71 91.6143L129.549 92.2443L130.922 96.2213L134.048 95.4994L132.71 91.6143Z" fill="black"/>
</g>
<path d="M110.487 18.331C110.487 18.331 109.113 19.2061 116.299 37.0085L129.056 34.099C127.661 28.9407 126.928 25.7294 126.989 14.4722C125.119 14.5115 123.253 14.6822 121.409 14.9928C119.451 15.2903 117.515 15.7278 115.619 16.3054C113.177 17.1104 110.487 18.331 110.487 18.331Z" fill="#407BFF"/>
<path opacity="0.2" d="M126.981 16.209C125.956 16.9309 125.224 17.994 124.918 19.2147C124.583 20.7591 126.719 23.3667 127.22 23.9486C127.068 21.8792 126.989 19.3941 126.981 16.209Z" fill="black"/>
<path d="M119.508 9.27881C119.569 11.2345 119.817 14.0433 121.404 14.9927C120.681 17.4122 119.311 19.5822 117.445 21.2754C114.393 19.7923 115.614 16.314 115.614 16.314C117.581 15.3427 117.336 14.5071 116.643 13.1377L119.508 9.27881Z" fill="#FF8B7B"/>
<path opacity="0.2" d="M118.34 10.854L116.644 13.1378C116.818 13.4528 116.966 13.7854 117.08 14.1266C117.847 13.8291 118.941 12.8666 118.915 11.9609C118.819 11.5497 118.619 11.169 118.34 10.854Z" fill="black"/>
<path d="M119.286 4.56243C120.241 7.62502 120.707 8.89818 119.787 11.0114C118.396 14.1877 114.442 14.6909 112.598 11.9783C110.936 9.53696 109.655 4.93869 112.122 2.63299C113.875 0.979194 116.635 1.06232 118.287 2.82113C118.75 3.31552 119.09 3.91053 119.286 4.56243Z" fill="#FF8B7B"/>
<path d="M116.299 37.0086C116.299 37.0086 108.974 55.7254 109.183 65.5783C109.405 75.8292 113.146 99.2099 113.146 99.2099H117.506C117.506 99.2099 116.813 76.4417 117.197 66.3789C117.633 55.4061 125.638 34.8779 125.638 34.8779L116.299 37.0086Z" fill="#407BFF"/>
<path opacity="0.5" d="M116.299 37.0086C116.299 37.0086 108.974 55.7254 109.183 65.5783C109.405 75.8292 113.146 99.2099 113.146 99.2099H117.506C117.506 99.2099 116.813 76.4417 117.197 66.3789C117.633 55.4061 125.638 34.8779 125.638 34.8779L116.299 37.0086Z" fill="black"/>
<path d="M117.881 99.363H112.771L112.396 97.731L118.117 97.5298L117.881 99.363Z" fill="#263238"/>
<path opacity="0.2" d="M119.638 42.7531C117.144 47.1852 117.367 54.4129 118.038 59.8599C119.141 54.6054 120.558 49.4208 122.281 44.3326C121.932 41.3925 121.169 40.0318 119.638 42.7531Z" fill="black"/>
<path d="M119.665 36.2381C119.665 36.2381 117.921 56.7093 120.171 65.0177C122.826 74.8836 129.928 95.3418 129.928 95.3418L134.236 94.4886C134.236 94.4886 130.748 70.8848 128.699 65.6871C124.365 54.5961 134.044 40.3857 129.07 34.0986L119.665 36.2381Z" fill="#407BFF"/>
<path opacity="0.5" d="M119.665 36.2381C119.665 36.2381 117.921 56.7093 120.171 65.0177C122.826 74.8836 129.928 95.3418 129.928 95.3418L134.236 94.4886C134.236 94.4886 130.748 70.8848 128.699 65.6871C124.365 54.5961 134.044 40.3857 129.07 34.0986L119.665 36.2381Z" fill="black"/>
<path d="M134.759 94.6159L129.414 95.6747L128.516 94.104L134.746 92.5684L134.759 94.6159Z" fill="#263238"/>
<path d="M114.834 7.17449C114.925 7.4195 114.873 7.66451 114.712 7.72576C114.55 7.78701 114.35 7.63825 114.276 7.39325C114.201 7.14824 114.236 6.90323 114.393 6.84635C114.55 6.78948 114.742 6.93386 114.834 7.17449Z" fill="#263238"/>
<path d="M112.091 8.22421C112.183 8.46922 112.131 8.71423 111.969 8.77548C111.808 8.83673 111.608 8.68798 111.533 8.44297C111.459 8.19796 111.494 7.95296 111.651 7.8917C111.808 7.83045 111.996 7.97921 112.091 8.22421Z" fill="#263238"/>
<path d="M111.712 7.87891L111.062 7.93578C111.062 7.93578 111.538 8.27701 111.712 7.87891Z" fill="#263238"/>
<path d="M113.103 8.33838C113.098 8.97715 113.007 9.61155 112.828 10.2241C113.146 10.3072 113.482 10.2459 113.752 10.0578L113.103 8.33838Z" fill="#FF5652"/>
<path d="M115.44 10.5038C115.331 10.5694 115.213 10.6263 115.095 10.6701C115.056 10.6832 115.012 10.6657 114.995 10.6263C114.978 10.587 114.995 10.5432 115.034 10.5301C115.034 10.5301 115.039 10.5301 115.039 10.5257C115.658 10.3026 116.133 9.79943 116.321 9.1694C116.329 9.13003 116.373 9.10378 116.412 9.11253C116.451 9.12128 116.477 9.16503 116.469 9.20441C116.312 9.76005 115.941 10.2238 115.44 10.5038Z" fill="#263238"/>
<path d="M113.879 3.12298C114.86 5.60806 119.085 7.77374 120.602 7.1131C122.416 6.3212 121.91 2.38359 118.998 1.14542C116.561 0.104143 113.164 1.31168 113.879 3.12298Z" fill="#263238"/>
<path d="M116.199 0.979179C115.24 0.0253983 109.485 0.261657 109.001 2.79486C108.329 6.29497 111.678 5.50307 113.509 4.7768C115.85 3.85365 117.455 2.22609 116.199 0.979179Z" fill="#263238"/>
<path d="M120.925 7.45025C120.916 8.07152 120.663 8.66217 120.218 9.09531C119.63 9.66408 118.949 9.22656 118.788 8.46529C118.644 7.77839 118.788 6.65835 119.529 6.37834C120.074 6.18146 120.672 6.46584 120.868 7.01274C120.916 7.15274 120.938 7.3015 120.925 7.45025Z" fill="#FF8B7B"/>
<path d="M115.105 6.00194C115.044 6.02382 114.974 6.00632 114.93 5.95819C114.551 5.62568 114.054 5.46818 113.553 5.52068C113.47 5.52943 113.391 5.46817 113.383 5.38505C113.374 5.30192 113.435 5.22317 113.522 5.21442C114.12 5.15317 114.717 5.35442 115.157 5.76568C115.218 5.82694 115.218 5.92319 115.162 5.98006C115.162 5.98006 115.162 5.98007 115.157 5.98444L115.105 6.00194Z" fill="#263238"/>
<path d="M110.434 7.31414C110.387 7.34039 110.334 7.34039 110.286 7.31414C110.212 7.27039 110.186 7.17851 110.225 7.10414C110.456 6.671 110.888 6.37349 111.376 6.31661C111.459 6.31224 111.533 6.37787 111.538 6.46099C111.542 6.54412 111.476 6.61849 111.394 6.62287C111.01 6.67537 110.67 6.91163 110.491 7.25726C110.478 7.27914 110.456 7.30101 110.434 7.31414Z" fill="#263238"/>
<path d="M130.098 99.8006H130.064C129.924 99.7394 129.828 99.6125 129.806 99.4594C129.785 99.3675 129.811 99.2712 129.876 99.2056C130.173 98.9212 131.306 99.1837 131.433 99.2056C131.463 99.2144 131.485 99.2362 131.494 99.2669C131.498 99.2975 131.485 99.3281 131.459 99.3456C131.11 99.5687 130.482 99.9231 130.098 99.8006ZM131.219 99.3106C130.783 99.2187 130.138 99.1531 129.985 99.3106C129.955 99.3412 129.942 99.385 129.955 99.4244C129.968 99.525 130.029 99.6125 130.12 99.6562C130.325 99.735 130.726 99.63 131.236 99.3106H131.219Z" fill="#407BFF"/>
<path d="M131.288 99.3234C130.904 99.2009 130.264 98.7984 130.216 98.4484C130.198 98.3259 130.268 98.2034 130.386 98.1596C130.495 98.1115 130.617 98.1115 130.726 98.1596C131.162 98.3346 131.476 99.2096 131.489 99.249C131.502 99.2709 131.502 99.3015 131.489 99.3234C131.471 99.3409 131.441 99.354 131.415 99.3496L131.288 99.3234ZM130.647 98.3171C130.586 98.2909 130.516 98.2909 130.455 98.3171C130.368 98.3653 130.359 98.4134 130.368 98.4484C130.399 98.6715 130.918 99.0434 131.288 99.1703C131.17 98.8815 130.926 98.4178 130.669 98.2953L130.647 98.3171Z" fill="#407BFF"/>
<path d="M112.614 103.769C112.34 103.795 112.065 103.725 111.834 103.572C111.734 103.475 111.681 103.34 111.699 103.2C111.703 103.112 111.751 103.038 111.825 102.994C112.222 102.775 113.504 103.432 113.652 103.51C113.678 103.528 113.695 103.559 113.691 103.589C113.687 103.624 113.661 103.65 113.63 103.655C113.294 103.725 112.954 103.76 112.614 103.769ZM112.052 103.104C112.004 103.099 111.952 103.108 111.908 103.13C111.877 103.147 111.86 103.178 111.86 103.213C111.843 103.305 111.877 103.397 111.947 103.458C112.139 103.633 112.671 103.664 113.386 103.545C112.972 103.322 112.518 103.174 112.052 103.104Z" fill="#407BFF"/>
<path d="M113.613 103.655H113.583C113.199 103.48 112.44 102.78 112.502 102.417C112.502 102.329 112.576 102.22 112.785 102.202C112.942 102.181 113.103 102.229 113.221 102.334C113.626 102.671 113.701 103.541 113.705 103.576C113.709 103.602 113.696 103.629 113.674 103.646C113.657 103.655 113.635 103.659 113.613 103.655ZM112.846 102.342H112.802C112.663 102.342 112.654 102.412 112.65 102.434C112.615 102.653 113.129 103.2 113.522 103.441C113.491 103.073 113.347 102.723 113.112 102.443C113.038 102.377 112.942 102.342 112.846 102.342Z" fill="#407BFF"/>
<path d="M114.454 6.82861L113.796 6.87674C113.796 6.87674 114.28 7.22676 114.454 6.82861Z" fill="#263238"/>
<path d="M129.056 33.3025L129.64 34.3744C129.706 34.4531 129.64 34.5669 129.475 34.6019L116.347 37.5945C116.233 37.6207 116.124 37.5945 116.098 37.5157L115.727 36.3957C115.701 36.3213 115.784 36.2294 115.911 36.2032L128.825 33.2543C128.903 33.2325 128.991 33.25 129.056 33.3025Z" fill="white"/>
<path d="M127.622 35.1579L127.97 35.0791C128.036 35.0791 128.084 35.0179 128.066 34.9741L127.569 33.5216C127.534 33.4734 127.473 33.4559 127.417 33.4734L127.072 33.5522C127.003 33.5522 126.959 33.6178 126.972 33.6572L127.473 35.1097C127.487 35.1535 127.556 35.1754 127.622 35.1579Z" fill="#407BFF"/>
<path opacity="0.5" d="M127.622 35.1579L127.97 35.0791C128.036 35.0791 128.084 35.0179 128.066 34.9741L127.569 33.5216C127.534 33.4734 127.473 33.4559 127.417 33.4734L127.072 33.5522C127.003 33.5522 126.959 33.6178 126.972 33.6572L127.473 35.1097C127.487 35.1535 127.556 35.1754 127.622 35.1579Z" fill="black"/>
<path d="M117.363 37.5027L117.712 37.424C117.781 37.424 117.825 37.3627 117.808 37.319L117.311 35.8664C117.276 35.8139 117.215 35.7964 117.158 35.8183L116.814 35.897C116.744 35.897 116.7 35.9627 116.713 36.0021L117.215 37.4546C117.228 37.5027 117.284 37.5027 117.363 37.5027Z" fill="#407BFF"/>
<path opacity="0.5" d="M117.363 37.5027L117.712 37.424C117.781 37.424 117.825 37.3627 117.808 37.319L117.311 35.8664C117.276 35.8139 117.215 35.7964 117.158 35.8183L116.814 35.897C116.744 35.897 116.7 35.9627 116.713 36.0021L117.215 37.4546C117.228 37.5027 117.284 37.5027 117.363 37.5027Z" fill="black"/>
<path d="M122.473 36.3345L122.817 36.2558C122.887 36.2558 122.931 36.1901 122.918 36.1508L122.416 34.6982C122.416 34.6545 122.333 34.6326 122.268 34.6501L121.919 34.7288C121.849 34.7288 121.806 34.7901 121.823 34.8338L122.32 36.2864C122.355 36.3345 122.416 36.352 122.473 36.3345Z" fill="#407BFF"/>
<path opacity="0.5" d="M122.473 36.3345L122.817 36.2558C122.887 36.2558 122.931 36.1901 122.918 36.1508L122.416 34.6982C122.416 34.6545 122.333 34.6326 122.268 34.6501L121.919 34.7288C121.849 34.7288 121.806 34.7901 121.823 34.8338L122.32 36.2864C122.355 36.3345 122.416 36.352 122.473 36.3345Z" fill="black"/>
<path d="M102.316 51.4551L104.884 52.0938L106.349 50.8513L103.55 49.3638L102.316 51.4551Z" fill="#FF8B7B"/>
<path d="M122.813 30.2794L120.306 27.8774L120.088 31.1588C120.088 31.1588 121.832 32.2745 123 31.6226L122.813 30.2794Z" fill="#FF8B7B"/>
<path d="M129.056 17.4561C129.169 17.6004 129.226 17.6836 129.304 17.7929L129.514 18.0948C129.644 18.2961 129.771 18.4973 129.893 18.6986C130.133 19.1011 130.359 19.508 130.573 19.9193C130.983 20.7418 131.353 21.5774 131.68 22.4262C132.016 23.2706 132.295 24.1369 132.552 25.0032C132.679 25.4407 132.784 25.8782 132.893 26.3157L132.936 26.482L132.984 26.692C133.028 26.8801 133.054 27.0726 133.063 27.2651C133.08 27.6851 133.015 28.1095 132.862 28.5033C132.583 29.1683 132.108 29.7327 131.502 30.1221C131.044 30.4196 130.556 30.6602 130.041 30.8352C129.143 31.1371 128.214 31.3427 127.273 31.4478C125.494 31.6578 123.697 31.6928 121.914 31.544V29.9077C122.734 29.8071 123.584 29.7021 124.404 29.5577C125.223 29.4133 126.052 29.2689 126.841 29.0677C127.6 28.8839 128.341 28.6302 129.056 28.3152C129.348 28.1839 129.627 28.022 129.88 27.8251C130.089 27.6545 130.163 27.5014 130.146 27.4795C130.128 27.4576 130.146 27.4795 130.146 27.4401L130.041 27.1251C129.91 26.7314 129.78 26.3376 129.631 25.9526C129.365 25.1694 129.038 24.4082 128.724 23.6556C128.41 22.9031 128.049 22.1637 127.665 21.4681C127.482 21.1137 127.286 20.7593 127.085 20.4224C126.985 20.2518 126.88 20.0899 126.775 19.928L126.627 19.6918L126.496 19.5036L129.056 17.4561Z" fill="#FF8B7B"/>
<path d="M126.985 14.4723C128.35 14.5729 130.883 18.6374 130.883 18.6374L127.003 22.855C127.003 22.855 124.09 20.0506 124.26 18.2524C124.421 16.4192 125.424 14.3585 126.985 14.4723Z" fill="#407BFF"/>
<path d="M117.612 27.5757L117.581 30.332L120.088 31.137L120.306 27.8557L117.612 27.5757Z" fill="#FF8B7B"/>
<path d="M170.25 70.4605H150.307C149.583 70.4605 148.999 69.8743 148.999 69.148C148.999 68.4217 149.583 67.8354 150.307 67.8354H170.25C170.973 67.8354 171.558 68.4217 171.558 69.148C171.558 69.8743 170.973 70.4605 170.25 70.4605Z" fill="#407BFF"/>
<path opacity="0.8" d="M170.25 70.4605H150.307C149.583 70.4605 148.999 69.8743 148.999 69.148C148.999 68.4217 149.583 67.8354 150.307 67.8354H170.25C170.973 67.8354 171.558 68.4217 171.558 69.148C171.558 69.8743 170.973 70.4605 170.25 70.4605Z" fill="white"/>
<path d="M144.477 103.978H141.246L139.367 96.4707H142.598L144.477 103.978Z" fill="#FFB573"/>
<path d="M141.02 103.191H144.652C144.778 103.187 144.887 103.287 144.891 103.414L145.066 106.297C145.066 106.612 144.813 106.871 144.499 106.875C143.235 106.853 142.633 106.779 141.037 106.779C140.052 106.779 135.875 106.879 134.497 106.879C133.119 106.879 133.189 105.532 133.756 105.409C136.333 104.862 139.529 104.097 140.44 103.392C140.606 103.261 140.81 103.187 141.02 103.191Z" fill="#263238"/>
<path opacity="0.2" d="M142.602 96.4707H139.367L140.339 100.343H143.57L142.602 96.4707Z" fill="black"/>
<path d="M153.071 55.2788C153.071 55.2788 126.767 57.0857 127.312 66.3785C127.888 76.5463 138.949 99.4152 138.949 99.4152H144.87C144.87 99.4152 139.503 79.9721 138.208 69.6161C144.482 66.991 161.499 69.5067 163.496 64.0685C164.472 61.2509 164.734 58.232 164.246 55.2876L153.071 55.2788Z" fill="#407BFF"/>
<path opacity="0.3" d="M138.508 71.878C138.434 71.4142 138.369 70.9592 138.308 70.5217C138.264 70.2111 138.221 69.9048 138.186 69.6073C139.363 69.1611 140.592 68.8592 141.844 68.706C141.408 65.7222 140.815 62.9746 140.815 62.9746C137.763 62.9746 134.323 68.2248 138.892 74.1225C138.818 73.7199 138.748 73.3218 138.683 72.928C138.622 72.5737 138.565 72.2193 138.508 71.878Z" fill="black"/>
<path d="M145.485 99.4063H137.689L137.018 96.8381L144.748 96.2212L145.485 99.4063Z" fill="#263238"/>
<path d="M139.873 103.755C140.165 103.747 140.457 103.712 140.745 103.642C140.771 103.633 140.793 103.611 140.802 103.58C140.806 103.554 140.793 103.524 140.771 103.506C140.667 103.432 139.751 102.806 139.359 102.959C139.267 102.998 139.202 103.077 139.18 103.173C139.141 103.318 139.175 103.475 139.276 103.585C139.446 103.712 139.659 103.773 139.873 103.755ZM140.527 103.532C139.952 103.646 139.524 103.629 139.372 103.48C139.306 103.405 139.289 103.3 139.319 103.208C139.324 103.16 139.359 103.121 139.402 103.103C139.616 103.02 140.152 103.292 140.527 103.532Z" fill="#407BFF"/>
<path d="M140.719 103.642C140.732 103.646 140.741 103.646 140.754 103.642C140.776 103.629 140.789 103.607 140.793 103.58C140.793 103.541 140.868 102.609 140.545 102.294C140.458 102.211 140.34 102.176 140.222 102.189C140.092 102.194 139.978 102.29 139.952 102.417C139.878 102.771 140.357 103.449 140.68 103.642H140.719ZM140.283 102.329C140.344 102.329 140.405 102.351 140.449 102.395C140.623 102.705 140.698 103.069 140.658 103.423C140.379 103.187 140.057 102.67 140.105 102.439C140.105 102.395 140.139 102.342 140.248 102.329H140.283Z" fill="#407BFF"/>
<path d="M156.454 30.6294C155.962 31.9901 155.425 33.3201 154.898 34.6589C154.37 35.9977 153.816 37.3277 153.245 38.649C152.116 41.3047 150.934 43.9342 149.626 46.5549L149.439 46.9268L149.247 47.1237C148.318 48.0599 147.259 48.8518 146.099 49.4775C144.996 50.0769 143.823 50.5406 142.611 50.8644C141.443 51.1838 140.248 51.3894 139.045 51.4857C138.447 51.5382 137.854 51.5513 137.261 51.5513C136.655 51.5513 136.045 51.5163 135.443 51.4507L135.491 49.0137C135.949 48.9437 136.498 48.8518 137 48.7468C137.501 48.6418 138.02 48.5106 138.522 48.375C139.507 48.1124 140.475 47.7756 141.412 47.3687C142.31 46.9837 143.165 46.5111 143.967 45.9555C144.717 45.4349 145.397 44.818 145.986 44.1179L145.607 44.6867C146.688 42.1054 147.712 39.4366 148.75 36.8115L150.307 32.8345L151.881 28.8706L156.454 30.6294Z" fill="#FFB573"/>
<path d="M151.292 29.457C148.676 32.4846 146.932 36.7197 146.932 36.7197L153.803 40.8717C155.787 38.4479 158.263 32.0252 158.364 29.8595C158.516 26.53 154.126 26.1975 151.292 29.457Z" fill="#263238"/>
<path opacity="0.3" d="M153.717 32.5457C152.217 33.8101 151.153 36.4396 150.687 38.9903L153.8 40.8716C154.781 39.6728 155.884 37.4983 156.76 35.337C156.058 33.1932 155.042 31.4256 153.717 32.5457Z" fill="black"/>
<path d="M157.234 101.944L154.091 102.688L150.93 95.7184L154.078 94.9746L157.234 101.944Z" fill="#FFB573"/>
<path d="M153.55 101.817L156.956 100.557C157.073 100.509 157.208 100.566 157.261 100.684L158.416 103.309C158.508 103.602 158.368 103.922 158.085 104.049C156.969 104.644 156.341 104.683 154.802 105.16C154.126 105.365 152.408 106.796 150.42 106.796H148.676C147.647 106.796 147.507 105.694 148.079 105.54C150.838 104.801 152.473 103.173 153.084 102.18C153.193 102.01 153.359 101.878 153.55 101.817Z" fill="#263238"/>
<path opacity="0.2" d="M154.078 94.9746L150.93 95.7184L152.56 99.3104L155.708 98.5666L154.078 94.9746Z" fill="black"/>
<path d="M159.401 55.2788C159.401 55.2788 138.09 57.0857 138.613 66.3698C139.189 76.5376 150.982 98.7239 150.982 98.7239L156.742 97.3632C156.742 97.3632 150.638 78.7164 149.33 68.3648C155.338 68.3648 167.799 69.498 169.822 64.0597C170.799 61.2421 171.06 58.2233 170.572 55.2788H159.401Z" fill="#407BFF"/>
<path d="M157.361 97.2146L149.774 99.0084L148.968 96.4489L156.65 94.1826L157.361 97.2146Z" fill="#263238"/>
<path d="M152.67 102.762C152.94 102.653 153.198 102.517 153.437 102.355C153.463 102.338 153.477 102.312 153.472 102.281C153.468 102.25 153.446 102.228 153.416 102.22C153.293 102.189 152.221 101.913 151.903 102.198C151.828 102.263 151.794 102.364 151.811 102.46C151.815 102.609 151.907 102.745 152.042 102.81C152.251 102.872 152.474 102.854 152.67 102.762ZM153.206 102.325C152.705 102.631 152.299 102.762 152.103 102.675C152.016 102.627 151.964 102.539 151.959 102.438C151.951 102.39 151.968 102.342 152.003 102.312C152.164 102.158 152.77 102.228 153.206 102.325Z" fill="#407BFF"/>
<path d="M153.424 102.364C153.433 102.36 153.442 102.351 153.451 102.342C153.464 102.32 153.464 102.294 153.451 102.272C153.451 102.233 153.189 101.332 152.775 101.152C152.67 101.1 152.544 101.1 152.439 101.152C152.317 101.205 152.243 101.332 152.26 101.463C152.313 101.822 152.997 102.29 153.368 102.36L153.424 102.364ZM152.552 101.283C152.609 101.262 152.67 101.262 152.727 101.283C152.975 101.393 153.163 101.887 153.281 102.158C152.936 102.036 152.457 101.664 152.409 101.428C152.409 101.384 152.409 101.327 152.504 101.275L152.552 101.283Z" fill="#407BFF"/>
<path d="M136.066 48.9483L132.417 48.2002L132.875 51.7616C132.875 51.7616 136.406 51.9147 136.672 50.834L136.066 48.9483Z" fill="#FFB573"/>
<path d="M129.754 50.2128L130.713 52.606L132.876 51.7616L132.418 48.2002L129.754 50.2128Z" fill="#FFB573"/>
<path d="M153.088 55.4406H170.375C170.497 53.8918 170.14 48.8517 170.406 42.4334C170.572 37.6776 171.147 32.9437 172.124 28.2842C172.202 27.9342 172.041 27.676 172.124 27.326C171.513 27.1073 170.877 26.9629 170.231 26.8885C169.189 26.7354 167.881 26.5779 166.6 26.5166C164.154 26.3766 161.699 26.3766 159.253 26.5166C158.124 26.6216 157.021 26.8098 156.14 26.9804C155.015 27.2079 154.352 27.4179 154.352 27.4179C154.352 27.4179 150.093 37.2051 153.088 55.4406Z" fill="#263238"/>
<path opacity="0.3" d="M170.407 42.4378C170.572 37.682 171.148 32.9481 172.124 28.2886C170.969 28.188 168.994 28.2886 168.667 30.1743C168.296 32.1868 168.758 36.9207 170.407 42.4378Z" fill="black"/>
<path d="M173.58 29.7456C174.09 31.01 174.482 32.2176 174.888 33.4732C175.293 34.7289 175.642 35.9758 175.952 37.2577C176.261 38.5396 176.545 39.8347 176.745 41.1735C176.854 41.8297 176.928 42.5166 177.007 43.1948C177.085 43.8729 177.107 44.5773 177.094 45.308V45.8417C177.09 46.2355 177.024 46.6205 176.898 46.9924C176.689 47.5786 176.362 48.1124 175.934 48.5587C175.337 49.1624 174.648 49.67 173.898 50.0637C172.664 50.7112 171.369 51.2319 170.035 51.6213C167.524 52.365 164.956 52.8769 162.353 53.1613L161.852 50.7769C163.007 50.3744 164.197 49.9587 165.34 49.5125C166.482 49.0662 167.637 48.6374 168.732 48.1212C169.782 47.6705 170.794 47.128 171.757 46.5067C172.111 46.2836 172.429 46.0036 172.695 45.6798C172.773 45.5792 172.765 45.5267 172.695 45.6273C172.682 45.6623 172.669 45.6973 172.664 45.7323V45.8023V45.8373L172.629 45.4261C172.538 44.2754 172.368 43.1335 172.115 42.0091C171.871 40.8453 171.574 39.6684 171.243 38.509C170.912 37.3496 170.554 36.1639 170.175 35.0089C169.795 33.8539 169.39 32.6551 168.998 31.5482L173.58 29.7456Z" fill="#FFB573"/>
<path d="M172.125 27.3305C168.977 26.333 167.202 28.7699 168.074 33.1494C168.671 35.9451 169.679 38.6402 171.069 41.1384L177.426 38.1108C176.825 33.8188 175.347 28.3499 172.125 27.3305Z" fill="#263238"/>
<path d="M166.592 19.127L164.625 20.7633L161.948 22.9946C162.027 23.3533 162.083 23.7165 162.118 24.0796C162.262 25.5365 161.085 26.2147 159.603 26.4947C159.603 26.4947 157.501 28.4635 161.704 28.5247C165.907 28.586 166.884 26.5384 166.884 26.5384C165.284 24.9415 166.047 21.4895 166.592 19.127Z" fill="#FFB573"/>
<path d="M166.478 26.5121C165.113 27.4659 163.574 28.144 161.952 28.5072C162.776 29.3297 163.308 31.351 163.308 31.351C163.308 31.351 167.86 30.2791 168.026 26.5646C167.786 26.4552 167.533 26.3765 167.271 26.324C166.992 26.2759 166.705 26.3459 166.478 26.5121Z" fill="#407BFF"/>
<path d="M159.933 26.5998C159.828 27.1161 159.933 28.0611 161.952 28.5074C160.709 29.2249 160.177 31.1325 160.177 31.1325C160.177 31.1325 157.361 28.6518 158.808 26.508C159.07 26.3942 159.349 26.3111 159.632 26.263C159.776 26.2367 159.916 26.3373 159.937 26.4817C159.946 26.5211 159.946 26.5605 159.933 26.5998Z" fill="#407BFF"/>
<path opacity="0.2" d="M161.948 22.9818C162.027 23.3406 162.083 23.7037 162.118 24.0668C163.775 23.8131 164.848 22.8287 164.987 21.8093C165.039 21.4243 164.651 21.0174 164.625 20.7505L161.948 22.9818Z" fill="black"/>
<path d="M159.428 17.9764C157.894 16.8345 157.074 14.3932 157.745 12.9275C158.168 11.9519 159.297 11.5056 160.27 11.93C160.662 12.1006 160.985 12.3981 161.19 12.7744C162.293 14.6251 161.172 19.2759 159.428 17.9764Z" fill="#263238"/>
<path d="M166.726 14.9312C166.752 18.1601 166.936 20.0414 165.44 21.8571C163.988 23.6596 161.359 23.944 159.558 22.4871C158.896 21.9533 158.416 21.227 158.176 20.4133C157.304 17.6044 157.391 12.8005 160.417 11.1948C162.453 10.0442 165.035 10.7705 166.181 12.8137C166.543 13.4612 166.731 14.1918 166.726 14.9312Z" fill="#FFB573"/>
<path d="M165.615 17.4995C164.455 15.9726 164.346 13.4 165.401 12.1793C166.081 11.3699 167.289 11.2649 168.1 11.9518C168.418 12.2231 168.645 12.5906 168.732 13.0019C169.294 15.0757 166.927 19.2321 165.615 17.4995Z" fill="#263238"/>
<path d="M158.503 12.4463C157.531 11.86 159.777 9.87809 162.689 9.01181C165.942 8.04491 170.053 10.5825 170.254 12.7832C170.463 15.102 168.902 13.9732 168.658 14.6995C168.658 14.6995 160.496 13.6495 158.503 12.4463Z" fill="#407BFF"/>
<path d="M157.519 13.2558C157.562 12.7833 157.754 12.337 158.068 11.9826C158.234 11.8295 167.878 13.7808 168.881 14.6471C169.068 14.809 168.392 16.1915 168.244 16.0121C167.189 14.7521 157.558 13.6058 157.519 13.2558Z" fill="#407BFF"/>
<path opacity="0.3" d="M157.519 13.2558C157.562 12.7833 157.754 12.337 158.068 11.9826C158.234 11.8295 167.878 13.7808 168.881 14.6471C169.068 14.809 168.392 16.1915 168.244 16.0121C167.189 14.7521 157.558 13.6058 157.519 13.2558Z" fill="black"/>
<path d="M167.769 16.7687C167.786 16.7731 167.799 16.7731 167.817 16.7687C167.865 16.7381 167.882 16.6725 167.852 16.62C167.333 15.7668 163.775 15.4781 163.374 15.4474C162.223 15.3862 161.067 15.4649 159.934 15.6749C159.646 15.5656 159.323 15.5962 159.062 15.7581C158.312 15.7493 157.562 15.8237 156.83 15.9768C156.773 15.99 156.734 16.0468 156.747 16.1081C156.76 16.165 156.816 16.2043 156.877 16.1912C157.601 16.0381 158.342 15.9681 159.084 15.9768C159.101 15.9812 159.123 15.9812 159.14 15.9768C159.35 15.8368 159.616 15.8062 159.851 15.8981C159.873 15.9068 159.903 15.9068 159.925 15.8981C161.05 15.6837 162.197 15.6049 163.339 15.6662C164.407 15.7449 167.263 16.1037 167.647 16.7337C167.677 16.7687 167.725 16.7819 167.769 16.7687Z" fill="#263238"/>
<path d="M161.93 18.4448H162.035C162.484 18.4011 162.89 18.156 163.138 17.7798C163.688 16.9266 163.317 15.5922 163.304 15.5485C163.295 15.5178 163.265 15.5003 163.234 15.5091C163.208 15.5178 163.19 15.5485 163.199 15.5791C163.199 15.5791 163.57 16.8916 163.047 17.7229C162.815 18.0729 162.436 18.3004 162.018 18.3354C161.625 18.4098 161.215 18.3092 160.906 18.051C160.104 17.3729 160.034 15.7935 160.034 15.7804C160.034 15.7497 160.008 15.7235 159.977 15.7235C159.947 15.7278 159.925 15.7497 159.925 15.7804C159.925 15.846 159.977 17.4254 160.819 18.1342C161.128 18.3879 161.534 18.5017 161.93 18.4448Z" fill="#263238"/>
<path d="M158.071 18.7245C158.412 18.7114 158.73 18.5539 158.943 18.287C159.532 17.4995 159.166 16.0032 159.153 15.9419C159.14 15.9113 159.109 15.8982 159.079 15.9113C159.057 15.9201 159.039 15.9419 159.044 15.9682C159.044 15.9682 159.414 17.4776 158.856 18.2214C158.651 18.497 158.329 18.6589 157.984 18.6589C157.753 18.672 157.531 18.5801 157.378 18.4095C156.798 17.7664 157.012 16.1126 157.012 16.0951C157.016 16.0645 156.999 16.0382 156.968 16.0338C156.938 16.0294 156.912 16.0469 156.907 16.0776C156.907 16.1476 156.685 17.8276 157.3 18.4839C157.474 18.6764 157.727 18.7814 157.989 18.7683L158.071 18.7245Z" fill="#263238"/>
<path d="M167.861 17.6703C167.568 18.3091 167.054 18.8166 166.413 19.101C165.58 19.451 165.14 18.7116 165.345 17.8453C165.532 17.0665 166.191 15.9509 167.036 15.964C167.882 15.9771 168.231 16.874 167.861 17.6703Z" fill="#FFB573"/>
<path d="M161.538 16.4103C161.538 16.6684 161.433 16.8959 161.263 16.9134C161.093 16.9309 160.945 16.734 160.923 16.4759C160.902 16.2178 161.028 15.9859 161.198 15.9684C161.368 15.9509 161.521 16.1477 161.538 16.4103Z" fill="#263238"/>
<path d="M158.608 16.7208C158.608 16.979 158.503 17.2065 158.333 17.224C158.163 17.2415 158.01 17.0446 157.993 16.7865C157.975 16.5283 158.098 16.3008 158.268 16.2833C158.438 16.2658 158.59 16.4583 158.608 16.7208Z" fill="#263238"/>
<path d="M159.576 16.8521C159.375 17.7008 159.066 18.5146 158.651 19.2802C159.048 19.4728 159.51 19.4815 159.911 19.3021L159.576 16.8521Z" fill="#ED893E"/>
<path d="M161.25 19.7394C161.848 19.6082 162.367 19.2407 162.689 18.72C162.707 18.6807 162.694 18.6369 162.659 18.615C162.619 18.5975 162.571 18.6107 162.554 18.65C162.192 19.21 161.595 19.5776 160.932 19.6344C160.888 19.6432 160.862 19.6782 160.867 19.7219C160.871 19.7613 160.906 19.7919 160.95 19.7876C161.05 19.7788 161.15 19.7613 161.25 19.7394Z" fill="#263238"/>
<path d="M162.863 15.1455C162.938 15.1149 162.977 15.0274 162.946 14.953C162.933 14.9268 162.916 14.9005 162.89 14.883C162.497 14.5899 161.983 14.5112 161.521 14.673C161.442 14.7037 161.407 14.7955 161.438 14.8743C161.473 14.953 161.56 14.988 161.638 14.9574C162.005 14.8393 162.401 14.9049 162.711 15.1324C162.754 15.1674 162.815 15.1718 162.863 15.1455Z" fill="#263238"/>
<path d="M157.3 15.6708C157.352 15.6752 157.4 15.6533 157.431 15.6139C157.662 15.2902 158.032 15.0933 158.429 15.0802C158.512 15.0846 158.586 15.0189 158.59 14.9358C158.595 14.8527 158.529 14.7783 158.447 14.7739C157.949 14.7783 157.483 15.0233 157.191 15.4258C157.138 15.4914 157.152 15.5833 157.213 15.6358C157.217 15.6358 157.217 15.6402 157.221 15.6402C157.243 15.6621 157.269 15.6708 157.3 15.6708Z" fill="#263238"/>
<path d="M162.663 50.628L159.99 49.3154L159.877 52.8155C159.877 52.8155 162.528 54.0799 163.064 52.6536L162.663 50.628Z" fill="#FFB573"/>
<path d="M156.528 49.8627L156.576 52.9646L159.877 52.7852L159.99 49.2808L156.528 49.8627Z" fill="#FFB573"/>
<path d="M172.394 108.048H169.778V57.9963C169.778 55.8219 168.021 54.0587 165.854 54.0587H61.5322C59.3653 54.0587 57.6082 55.8219 57.6082 57.9963V108.048H54.9922V57.9963C54.9922 54.3737 57.9221 51.4336 61.5322 51.4336H165.854C169.464 51.4336 172.394 54.3737 172.394 57.9963V108.048Z" fill="#407BFF"/>
<path opacity="0.7" d="M172.394 108.048H169.778V57.9963C169.778 55.8219 168.021 54.0587 165.854 54.0587H61.5322C59.3653 54.0587 57.6082 55.8219 57.6082 57.9963V108.048H54.9922V57.9963C54.9922 54.3737 57.9221 51.4336 61.5322 51.4336H165.854C169.464 51.4336 172.394 54.3737 172.394 57.9963V108.048Z" fill="white"/>
<path d="M163.007 108.048H160.391V57.9963C160.391 55.8219 158.634 54.0587 156.467 54.0587H52.1455C49.9785 54.0587 48.2215 55.8219 48.2215 57.9963V108.048H45.6055V57.9963C45.6055 54.3737 48.5354 51.4336 52.1455 51.4336H156.467C160.077 51.4336 163.007 54.3737 163.007 57.9963V108.048Z" fill="#407BFF"/>
<path opacity="0.8" d="M163.007 108.048H160.391V57.9963C160.391 55.8219 158.634 54.0587 156.467 54.0587H52.1455C49.9785 54.0587 48.2215 55.8219 48.2215 57.9963V108.048H45.6055V57.9963C45.6055 54.3737 48.5354 51.4336 52.1455 51.4336H156.467C160.077 51.4336 163.007 54.3737 163.007 57.9963V108.048Z" fill="white"/>
<path d="M105.983 50.37H83.5111C82.844 50.3613 82.2859 49.8625 82.2031 49.1975L80.7032 34.9958C80.6291 34.4314 81.0259 33.9108 81.5883 33.8364C81.6406 33.8276 81.693 33.8276 81.7453 33.8276H104.217C104.884 33.8364 105.442 34.3352 105.525 34.9958L107.025 49.1975C107.099 49.7663 106.702 50.2869 106.135 50.3613C106.083 50.37 106.035 50.37 105.983 50.37Z" fill="#407BFF"/>
<path opacity="0.2" d="M105.983 50.37H83.5111C82.844 50.3613 82.2859 49.8625 82.2031 49.1975L80.7032 34.9958C80.6291 34.4314 81.0259 33.9108 81.5883 33.8364C81.6406 33.8276 81.693 33.8276 81.7453 33.8276H104.217C104.884 33.8364 105.442 34.3352 105.525 34.9958L107.025 49.1975C107.099 49.7663 106.702 50.2869 106.135 50.3613C106.083 50.37 106.035 50.37 105.983 50.37Z" fill="black"/>
<path d="M91.0369 32.2964H89.2188V32.7339H91.0369V32.2964Z" fill="#407BFF"/>
<path d="M87.6575 32.2964H83.4414V32.7339H87.6575V32.2964Z" fill="#407BFF"/>
<path d="M105.359 50.37H82.8923C82.2252 50.3657 81.6671 49.8625 81.5843 49.1975L80.0801 34.9958C80.006 34.427 80.4071 33.9064 80.9739 33.8364C81.0219 33.832 81.0742 33.8276 81.1222 33.8276H103.594C104.261 33.832 104.819 34.3308 104.902 34.9958L106.406 49.1975C106.48 49.7663 106.074 50.2913 105.508 50.3613C105.46 50.37 105.407 50.37 105.359 50.37Z" fill="#407BFF"/>
<path d="M106.384 50.2652H83.9302C83.2849 50.2652 82.7661 50.7858 82.7617 51.4333H107.566C107.561 50.7858 107.038 50.2608 106.393 50.2652C106.389 50.2652 106.389 50.2652 106.384 50.2652Z" fill="#407BFF"/>
<path d="M114.087 50.2651H106.061C105.42 50.2695 104.901 50.7902 104.896 51.4333H115.256C115.251 50.7858 114.733 50.2651 114.087 50.2651Z" fill="#407BFF"/>
<path opacity="0.2" d="M114.087 50.2651H106.061C105.42 50.2695 104.901 50.7902 104.896 51.4333H115.256C115.251 50.7858 114.733 50.2651 114.087 50.2651Z" fill="black"/>
</svg>
