<svg width="155" height="92" viewBox="0 0 155 92" fill="none" xmlns="http://www.w3.org/2000/svg">
<path d="M77.5 91.5763C120.302 91.5763 155 89.5505 155 87.0516C155 84.5526 120.302 82.5269 77.5 82.5269C34.6979 82.5269 0 84.5526 0 87.0516C0 89.5505 34.6979 91.5763 77.5 91.5763Z" fill="#F5F5F5"/>
<path d="M147.505 48.7546C147.505 48.7546 137.373 59.7587 134.411 59.267C133.272 59.0792 131.573 57.6122 129.91 55.8775C128.067 53.8989 126.333 51.8204 124.714 49.654L127.936 46.3364L128.579 45.6729L128.807 46.0486C129.51 47.1997 131.689 50.7212 133.204 52.6758C133.484 53.0675 133.799 53.4392 134.139 53.779C135.642 55.134 145.411 46.3284 145.411 46.3284L147.505 48.7546Z" fill="#EEC1BB"/>
<path opacity="0.2" d="M133.176 52.6761C132.224 53.8753 131.129 54.9505 129.91 55.8738C128.067 53.8952 126.333 51.8167 124.714 49.6503L127.936 46.3327L128.807 46.0449C129.498 47.2001 131.677 50.7215 133.176 52.6761Z" fill="black"/>
<path d="M103.481 19.8877C100.931 20.9869 96.8818 28.1217 96.8818 28.1217L97.9291 29.8005L99.8197 30.6839C99.8197 30.6839 102.885 25.7035 104.912 24.8081C106.939 23.9128 103.481 19.8877 103.481 19.8877Z" fill="#407BFF"/>
<path opacity="0.4" d="M105.54 23.9887C105.496 24.3485 105.256 24.6563 104.916 24.7882C103.401 25.4557 101.319 28.4095 100.347 29.8565C100.019 30.3441 99.8236 30.6559 99.8236 30.6559L97.933 29.7965L96.8857 28.1178C96.8857 28.1178 100.935 21.0029 103.481 19.8877C103.481 19.8877 103.705 20.1475 104.005 20.5512C104.129 20.7191 104.268 20.911 104.404 21.1228C105.008 22.0022 105.647 23.1693 105.54 23.9887Z" fill="white"/>
<path opacity="0.2" d="M105.54 23.9891C105.496 24.3488 105.256 24.6566 104.916 24.7885C103.401 25.456 101.319 28.4099 100.347 29.8568C100.275 29.589 100.223 29.3132 100.199 29.0374C99.6878 24.021 103.249 21.0952 104.009 20.5316C104.097 20.4636 104.149 20.4316 104.149 20.4316L104.412 21.1032L105.54 23.9891Z" fill="black"/>
<path d="M103.481 19.8879C103.481 19.8879 110.277 16.4944 117.807 18.1812C117.807 18.1812 121.057 27.6583 125.054 33.0824C125.741 34.0177 125.538 35.3368 124.598 36.0203C124.454 36.1282 124.294 36.2121 124.131 36.2801C120.113 37.8789 112.567 40.489 108.246 39.3259C108.25 39.3219 103.757 28.5976 103.481 19.8879Z" fill="#407BFF"/>
<path opacity="0.4" d="M124.135 36.2801C120.137 37.8789 112.571 40.4851 108.25 39.3219C108.25 39.3219 106.947 36.2081 105.7 31.9752C105.048 29.7848 104.517 27.5584 104.101 25.312C103.765 23.5213 103.557 21.7066 103.481 19.8879C103.481 19.8879 110.277 16.4944 117.807 18.1812C117.807 18.1812 117.883 18.405 118.031 18.8047C118.299 19.5482 118.802 20.8952 119.482 22.53C120.805 25.7277 122.799 30.0086 125.026 33.0464C125.729 33.9818 125.541 35.3088 124.606 36.0123C124.462 36.1202 124.302 36.2081 124.135 36.2801Z" fill="white"/>
<path d="M115.756 59.6869C117.047 71.4144 121.128 79.6005 121.128 79.6005L118.142 80.296C118.142 80.296 113.797 72.3018 111.251 59.6829C110.639 56.6531 110.18 53.5953 109.876 50.5175L115.472 49.2104C115.272 52.7039 115.368 56.2054 115.756 59.6869Z" fill="#EEC1BB"/>
<path opacity="0.2" d="M109.876 50.5175L115.472 49.2104C115.272 52.7039 115.364 56.2094 115.752 59.6869C114.085 59.7428 112.554 59.7309 111.247 59.6869C110.635 56.6531 110.176 53.5953 109.876 50.5175Z" fill="black"/>
<path d="M117.071 78.2099L120.833 77.9901C120.96 77.9741 121.076 78.066 121.092 78.1899C121.092 78.1939 121.092 78.1979 121.092 78.2019L121.452 81.1718C121.472 81.4956 121.224 81.7754 120.901 81.7954C119.585 81.8513 118.958 81.7954 117.303 81.8953C116.288 81.9512 114.285 82.1591 112.882 82.0192C111.479 81.8793 111.659 80.4963 112.267 80.4203C113.702 80.2645 115.608 79.2212 116.508 78.4218C116.668 78.2899 116.863 78.2139 117.071 78.2099Z" fill="#263238"/>
<path d="M115.257 78.7211C115.137 78.6132 115.089 78.4453 115.133 78.2894C115.145 78.1895 115.209 78.1016 115.301 78.0576C115.701 77.8738 116.692 78.4573 116.804 78.5333C116.828 78.5533 116.84 78.5812 116.84 78.6132C116.836 78.6452 116.812 78.6692 116.784 78.6732C116.496 78.7651 116.196 78.8211 115.897 78.849C115.677 78.885 115.449 78.837 115.257 78.7211ZM115.369 78.2135C115.321 78.2335 115.289 78.2775 115.285 78.3294C115.261 78.4253 115.289 78.5293 115.357 78.6012C115.525 78.7491 115.969 78.7411 116.556 78.6012C116.157 78.3734 115.577 78.1256 115.357 78.2255L115.369 78.2135Z" fill="#407BFF"/>
<path d="M116.723 78.6814C116.375 78.5055 115.836 77.83 115.892 77.4622C115.912 77.3263 116.024 77.2224 116.16 77.2104C116.279 77.1904 116.407 77.2224 116.503 77.2984C116.855 77.6061 116.835 78.5894 116.839 78.6174C116.835 78.6414 116.819 78.6654 116.799 78.6814C116.787 78.6854 116.775 78.6854 116.763 78.6814C116.751 78.6854 116.735 78.6854 116.723 78.6814ZM116.188 77.3623C116.076 77.3623 116.052 77.4383 116.048 77.4822C116.124 77.8819 116.347 78.2377 116.671 78.4815C116.671 78.1657 116.603 77.6141 116.387 77.4343C116.343 77.3903 116.283 77.3663 116.219 77.3703L116.188 77.3623Z" fill="#407BFF"/>
<path d="M146.554 49.7382L144.116 46.8683C144.024 46.7763 144.024 46.6244 144.116 46.5325L146.27 44.458C146.518 44.2502 146.89 44.2781 147.102 44.522C147.937 45.5372 148.301 46.0648 149.348 47.3199C150.008 48.0994 151.379 49.5703 152.11 50.7774C152.842 51.9846 151.63 52.6681 151.215 52.2244C150.223 51.1731 148.241 50.2818 147.062 50.042C146.866 49.994 146.686 49.8901 146.554 49.7382Z" fill="#263238"/>
<path d="M148.045 50.8656C148.029 51.0255 147.925 51.1654 147.773 51.2213C147.685 51.2693 147.577 51.2693 147.489 51.2213C147.09 51.0095 146.978 49.8663 146.966 49.7344C146.966 49.7064 146.982 49.6785 147.006 49.6585C147.03 49.6425 147.066 49.6425 147.09 49.6585C147.338 49.8343 147.561 50.0382 147.761 50.266C147.933 50.4179 148.033 50.6338 148.045 50.8656ZM147.573 51.0774C147.617 51.1014 147.669 51.1014 147.713 51.0774C147.809 51.0415 147.877 50.9575 147.889 50.8576C147.889 50.6338 147.633 50.286 147.154 49.9063C147.218 50.362 147.366 50.9695 147.573 51.0814V51.0774Z" fill="#407BFF"/>
<path d="M147.133 49.7142C147.197 50.1139 146.985 50.9333 146.658 51.1132C146.538 51.1771 146.386 51.1492 146.294 51.0492C146.202 50.9653 146.154 50.8494 146.162 50.7255C146.194 50.2538 146.989 49.6822 147.009 49.6622C147.033 49.6543 147.061 49.6543 147.085 49.6622C147.089 49.6702 147.089 49.6822 147.085 49.6902C147.105 49.6902 147.121 49.6982 147.133 49.7142ZM146.41 50.9133C146.494 50.9933 146.554 50.9773 146.594 50.9533C146.857 50.6495 146.997 50.2578 146.993 49.8581C146.75 50.058 146.342 50.4337 146.326 50.7135C146.318 50.7774 146.338 50.8414 146.378 50.8894L146.41 50.9133Z" fill="#407BFF"/>
<path d="M112.754 18.169C112.754 18.169 110.508 20.7551 108.226 21.0629C106.443 21.2988 106.531 19.7559 106.531 19.7559C106.707 19.4881 106.843 19.2003 106.931 18.8925C107.55 16.8939 105.512 15.447 105.512 15.447L107.338 14.4997L111.336 12.4092C110.224 16.2544 112.754 18.169 112.754 18.169Z" fill="#EEC1BB"/>
<path opacity="0.2" d="M110.975 14.0562C110.975 14.0562 109.776 18.2171 106.946 18.8927C107.566 16.8941 105.527 15.4471 105.527 15.4471L107.354 14.4998L110.975 14.0562Z" fill="black"/>
<path d="M100.355 3.2957C96.7899 4.85057 97.0497 7.36476 98.2768 9.33134C99.5039 11.2979 98.5406 11.3539 97.0777 12.7808C95.6147 14.2078 97.4774 14.6235 98.3088 15.6308C99.1402 16.6381 95.9105 17.0937 98.009 19.0523C98.009 19.0523 98.8724 17.7732 99.8877 18.1689C100.903 18.5647 103.249 19.1802 105.224 16.9019C107.198 14.6235 109.361 15.1831 109.361 15.1831C109.361 15.1831 104.125 1.64889 100.355 3.2957Z" fill="#263238"/>
<path d="M101.054 3.29199C101.054 3.29199 97.1693 8.08853 103.213 11.1943C110.04 14.6957 101.054 3.29199 101.054 3.29199Z" fill="#263238"/>
<path d="M113.685 7.34484C114.161 11.0022 112.942 15.411 110.064 16.5622C104.776 18.6767 102.417 18.0611 100.978 14.112C99.6674 10.5625 99.7793 4.51888 104.104 2.52033C108.429 0.521772 113.022 2.26851 113.685 7.34484Z" fill="#EEC1BB"/>
<path d="M100.999 5.81399C102.829 6.04982 104.692 5.78601 106.383 5.04654C106.383 5.04654 110.616 5.81799 110.644 8.38813C110.672 10.9583 111.843 10.8543 112.642 14.104C112.642 14.104 115.972 12.9928 115.041 5.71006C114.357 0.409894 109.409 -0.685315 104.772 0.353934C100.875 1.2253 98.6844 4.61486 100.999 5.81399Z" fill="#263238"/>
<path d="M105.659 10.0628C105.735 10.5264 105.551 10.9461 105.259 10.9901C104.967 11.0341 104.652 10.7023 104.576 10.2386C104.5 9.77498 104.684 9.36727 104.975 9.31531C105.267 9.26335 105.583 9.6031 105.659 10.0628Z" fill="#263238"/>
<path d="M101.934 10.4866C102.005 10.9262 101.83 11.33 101.534 11.3739C101.238 11.4179 100.954 11.0941 100.882 10.6544C100.81 10.2148 100.986 9.81905 101.282 9.76709C101.578 9.71512 101.882 10.0469 101.934 10.4866Z" fill="#263238"/>
<path d="M103.949 7.96042C103.913 7.93644 103.881 7.90446 103.861 7.86449C103.821 7.75657 103.877 7.63666 103.984 7.59669H103.988C104.62 7.34487 105.336 7.42081 105.903 7.80054C105.995 7.87249 106.015 8.00439 105.943 8.09633C105.867 8.18426 105.743 8.20025 105.647 8.1363C105.192 7.84451 104.62 7.79654 104.12 8.00439C104.06 8.01239 103.996 7.9964 103.949 7.96042Z" fill="#263238"/>
<path d="M100.395 8.73219C100.351 8.73219 100.307 8.7202 100.271 8.69621C100.191 8.61228 100.191 8.48037 100.271 8.39643C100.707 7.87281 101.37 7.59701 102.05 7.66096C102.162 7.67695 102.241 7.78088 102.225 7.89679V7.90079C102.206 8.01271 102.102 8.09265 101.986 8.07666C101.446 8.04069 100.922 8.26852 100.583 8.69222C100.531 8.73219 100.459 8.74418 100.395 8.73219Z" fill="#263238"/>
<path d="M102.746 10.9062L103.546 12.7849C103.078 12.9847 102.558 13.0447 102.059 12.9488C102.41 12.3132 102.642 11.6217 102.746 10.9062Z" fill="#D4827D"/>
<path d="M110.065 10.3629C110.065 10.3629 110.608 7.96463 111.887 8.44428C113.167 8.92394 113.63 12.6852 111.923 13.005C110.217 13.3248 109.517 11.7019 110.065 10.3629Z" fill="#EEC1BB"/>
<path d="M103.753 14.3797C104.177 14.7595 104.568 15.1712 104.928 15.6108L105.188 15.459C106.351 14.7595 106.663 14.052 106.651 13.4804C106.643 13.2006 106.563 12.9248 106.427 12.681C106.351 12.5371 106.259 12.4012 106.151 12.2812C105.751 13.0207 104.716 13.7522 104.153 14.1199C103.913 14.2918 103.753 14.3797 103.753 14.3797Z" fill="#263238"/>
<path d="M104.148 14.1359L104.504 14.4917C105.599 13.8321 106.283 13.2206 106.427 12.681C106.351 12.5371 106.259 12.4012 106.151 12.2812C105.751 13.0367 104.716 13.7682 104.148 14.1359Z" fill="white"/>
<path d="M105.188 15.459C106.352 14.7595 106.663 14.0521 106.651 13.4805C106.216 13.7523 105.828 14.1 105.512 14.5077C105.308 14.7835 105.196 15.1153 105.188 15.459Z" fill="#DE5753"/>
<path d="M103.525 5.81411C103.865 6.74144 105.664 7.65678 107.011 7.44494C108.358 7.23309 110.348 7.93658 109.445 10.143C108.542 12.3494 109.001 13.0769 110.876 13.4166C112.751 13.7564 110.564 16.1546 111.324 17.2898C111.324 17.2898 112.251 16.3745 113.386 16.7662C114.505 17.1979 115.764 16.6383 116.196 15.5151C116.208 15.4871 116.22 15.4551 116.228 15.4272C116.732 14.1441 117.827 14.4519 117.827 14.4519C117.827 14.4519 117.351 10.167 113.482 7.79268C109.613 5.4184 110.368 3.72362 106.639 3.64368C102.91 3.56374 103.525 5.81411 103.525 5.81411Z" fill="#263238"/>
<path d="M109.664 26.7227C109.664 26.7227 111.875 23.9967 113.202 25.9833C114.845 28.4415 109.624 32.2707 109.624 32.2707C109.624 32.2707 105.867 29.1969 106.866 26.8706C108.129 23.9287 109.664 26.7227 109.664 26.7227Z" fill="white"/>
<path d="M107.266 37.6992C106.035 40.785 106.634 51.2894 109.077 58.2443C109.077 58.2443 112.306 59.2436 121.352 56.6855C128.794 54.579 133.255 51.6651 133.255 51.6651C130.621 46.209 126.112 33.3144 125.041 32.9106L107.266 37.6992Z" fill="#407BFF"/>
<path opacity="0.2" d="M133.255 51.6612C133.255 51.6612 132.596 52.0928 131.369 52.7404C130.785 53.0481 130.074 53.4039 129.242 53.7876C128.503 54.1274 127.663 54.4951 126.732 54.8588C126.097 55.1187 125.413 55.3745 124.69 55.6303C123.662 55.99 122.543 56.3498 121.356 56.6855C121.032 56.7775 120.72 56.8654 120.413 56.9453C119.841 57.0972 119.293 57.2371 118.77 57.345C117.499 57.6488 116.368 57.8767 115.376 58.0325C114.577 58.1645 113.893 58.2524 113.274 58.3083C112.514 58.3883 111.755 58.4243 110.991 58.4203C110.668 58.4203 110.392 58.4203 110.152 58.3843C109.788 58.3683 109.429 58.3163 109.073 58.2284C106.635 51.2534 106.035 40.769 107.266 37.6833L125.041 32.8867C126.113 33.3144 130.621 46.2091 133.255 51.6612Z" fill="black"/>
<path opacity="0.2" d="M108.785 47.644L110.992 58.4363C110.668 58.4363 110.392 58.4363 110.152 58.4003L108.785 47.644Z" fill="black"/>
<path opacity="0.2" d="M113.274 58.3241L111.675 42.0479L115.36 58.0363C114.593 58.1762 113.893 58.2681 113.274 58.3241Z" fill="black"/>
<path opacity="0.2" d="M118.77 57.3769L115.72 40.9487L120.412 56.9612C119.841 57.0971 119.293 57.237 118.77 57.3769Z" fill="black"/>
<path opacity="0.2" d="M124.689 55.6301L120.692 39.3379L126.748 54.8587C126.096 55.1185 125.413 55.3783 124.689 55.6301Z" fill="black"/>
<path opacity="0.2" d="M131.369 52.7401C130.785 53.0479 130.074 53.4036 129.242 53.7874L124.506 38.3105L131.369 52.7401Z" fill="black"/>
<path opacity="0.2" d="M119.47 22.5298C116.324 27.3942 111.36 30.7958 105.684 31.9749C105.032 29.7845 104.501 27.5581 104.085 25.3118C109.017 25.9113 112.923 22.4498 115.549 20.0436C116.576 19.1042 117.387 18.7805 118.023 18.8045C118.303 19.5479 118.806 20.8949 119.47 22.5298Z" fill="black"/>
<path d="M80.5934 32.6427C80.5934 32.6427 74.7536 33.9977 73.8223 33.9737C72.8909 33.9497 60.4639 25.3999 60.4639 25.3999L56.6387 28.1979C56.6387 28.1979 65.6522 39.5017 70.1209 41.1046C74.5897 42.7074 83.5912 41.1046 83.5912 41.1046L80.5934 32.6427Z" fill="#E4897B"/>
<path opacity="0.2" d="M83.591 41.1002C83.591 41.1002 83.0154 41.2041 82.08 41.328C81.0728 41.4679 79.6538 41.6318 78.0829 41.7277C75.3689 41.8996 72.2272 41.8596 70.0887 41.1002C65.6199 39.5013 56.6064 28.1935 56.6064 28.1935L60.4317 25.3955C60.4317 25.3955 72.8587 33.9613 73.79 33.9813C74.3376 33.9813 76.588 33.5296 78.3547 33.1459L78.8544 33.034C79.8377 32.8181 80.5611 32.6343 80.5611 32.6343L83.591 41.1002Z" fill="black"/>
<path opacity="0.2" d="M82.0805 41.3283C81.0732 41.4682 79.6542 41.6321 78.0834 41.728C77.6597 38.1546 78.3751 33.1382 78.3751 33.1382L78.511 32.6426C78.6349 32.7705 78.7589 32.8984 78.8748 33.0423C81.5369 35.9202 82.2643 38.99 82.0805 41.3283Z" fill="black"/>
<path d="M92.8891 28.9731C89.0359 27.4542 77.2324 32.9702 77.2324 32.9702L80.8298 42.8551L88.6921 41.1003L92.8891 28.9731Z" fill="#407BFF"/>
<path opacity="0.2" d="M92.889 28.9729L88.9958 40.1888L88.6801 41.0962L83.8595 42.1874L80.8337 42.8589L77.2363 32.974C77.2363 32.974 89.0358 27.454 92.889 28.9729Z" fill="black"/>
<path opacity="0.2" d="M88.9957 40.189L88.6799 41.0963L83.8594 42.1875C84.8706 39.4775 87.3089 36.9233 87.3089 36.9233C87.3089 36.9233 88.0763 38.3943 88.9957 40.189Z" fill="black"/>
<path d="M59.6765 28.1977L61.1114 25.8354C61.1114 25.8354 61.0914 23.2133 60.9795 22.3779C60.8676 21.5425 54.9839 16.4062 54.9839 16.4062C54.9839 16.4062 49.5318 17.2616 49.4479 19.0603C49.3639 20.859 52.6775 26.475 53.2331 26.7947C53.7887 27.1145 55.7393 30.0204 59.6765 28.1977Z" fill="#E4897B"/>
<path opacity="0.2" d="M59.6765 28.1977L61.1114 25.8354C61.1114 25.8354 61.0914 23.2133 60.9795 22.3779C60.8676 21.5425 54.9839 16.4062 54.9839 16.4062C54.9839 16.4062 49.5318 17.2616 49.4479 19.0603C49.3639 20.859 52.6775 26.475 53.2331 26.7947C53.7887 27.1145 55.7393 30.0204 59.6765 28.1977Z" fill="black"/>
<path d="M124.866 79.2887L115.604 82.1346L114.018 76.2189L120.777 74.624L124.866 79.2887Z" fill="#E4897B"/>
<path d="M123.467 80.224L118.31 75.5993C118.138 75.4434 118.098 75.1876 118.21 74.9838L120.765 70.455C120.996 70.0553 121.508 69.9154 121.912 70.1473C121.964 70.1792 122.016 70.2152 122.06 70.2592C123.706 71.7821 124.826 72.9732 126.92 74.8479C128.211 76.007 132.22 79.3606 134.003 80.9594C135.786 82.5583 134.439 84.5209 133.563 84.0332C129.654 81.8108 126.308 80.5917 124.418 80.5917C124.066 80.5957 123.726 80.4638 123.467 80.224Z" fill="#263238"/>
<path d="M134.95 83.362L125.688 86.2039L124.102 80.2882L130.865 78.6934L134.95 83.362Z" fill="#E4897B"/>
<path d="M133.531 84.2932L128.375 79.6726C128.203 79.5167 128.163 79.2608 128.275 79.057L130.829 74.5283C131.061 74.1286 131.572 73.9887 131.976 74.2205C132.028 74.2525 132.08 74.2884 132.124 74.3284C133.771 75.8513 134.89 77.0425 136.984 78.9211C138.276 80.0763 142.289 83.4338 144.067 85.0287C145.846 86.6235 144.503 88.5941 143.628 88.1025C139.719 85.8801 136.373 84.6609 134.486 84.6609C134.135 84.6649 133.791 84.533 133.531 84.2932Z" fill="#263238"/>
<path d="M124.741 76.7345L119.221 76.2908C122.255 70.2512 123.43 62.9565 121.751 56.5131C118.062 42.3434 89.5067 59.2671 89.5067 59.2671C89.5067 59.2671 62.1304 62.0331 59.9001 75.0637C57.6697 88.0943 80.5651 88.9537 80.5651 88.9537C80.5651 88.9537 101.75 90.5046 113.925 88.9537C126.1 87.4028 130.785 85.8319 130.785 85.8319L124.741 76.7345Z" fill="#263238"/>
<path opacity="0.2" d="M130.785 85.8277C130.785 85.8277 126.1 87.3986 113.925 88.9495C105.055 90.0807 91.4013 89.561 84.6422 89.1973C82.124 89.0654 80.5651 88.9495 80.5651 88.9495C80.5651 88.9495 72.7987 88.6617 66.7511 85.8437C62.4182 83.8252 58.9687 80.5036 59.9001 75.0515C62.1304 62.0209 89.5067 59.2549 89.5067 59.2549C89.5067 59.2549 118.062 42.3312 121.751 56.5009C122.655 60.1543 122.767 63.9595 122.075 67.6609C121.548 70.6587 120.588 73.5606 119.221 76.2786L124.741 76.7223L130.785 85.8277Z" fill="white"/>
<path d="M121.844 57.3528L89.4913 59.2674L86.4455 33.5899C86.1337 31.0318 87.8085 28.6535 90.3227 28.0819C103.313 25.196 111.06 28.0539 111.06 28.0539C112.675 30.692 114.145 33.4221 115.457 36.224C116.744 38.9541 117.871 41.756 118.838 44.618C121.468 52.2484 121.844 57.3528 121.844 57.3528Z" fill="#407BFF"/>
<path opacity="0.2" d="M88.835 33.5699C88.835 33.5699 92.3164 27.3504 102.025 27.5743C102.013 27.5703 97.057 35.8763 88.835 33.5699Z" fill="black"/>
<path d="M101.45 28.0336C97.7731 27.8898 93.0925 22.9573 92.0053 19.6797L88.1201 28.925C88.4559 29.1888 88.7716 29.4806 89.0674 29.7884C89.619 30.328 90.0267 30.9995 90.2426 31.743C90.3985 32.3665 89.4871 33.9134 89.4871 33.9134C89.4871 33.9134 92.5849 35.0086 97.1656 32.6423C99.8836 31.2473 101.45 28.0336 101.45 28.0336Z" fill="#E4897B"/>
<path opacity="0.2" d="M92.329 23.4014C94.5035 26.7789 91.7734 30.2844 90.2425 31.7513C90.0267 31.0079 89.619 30.3364 89.0674 29.7968L92.329 23.4014Z" fill="black"/>
<path d="M78.8588 14.7034C78.8588 14.7034 78.3471 20.4072 81.7207 22.6976C85.0943 24.9879 83.9591 11.106 83.9591 11.106L78.8588 14.7034Z" fill="#263238"/>
<path d="M92.0207 17.6532C91.8967 16.6979 92.4204 14.5594 91.8688 13.768C89.9861 10.97 85.4734 10.4984 82.6754 12.385C79.3818 14.5674 78.9461 19.1561 80.0213 23.0293C79.042 25.2117 79.8854 27.7779 81.9679 28.953C83.7786 29.9683 85.7212 30.4719 87.6998 29.8804C89.0668 29.6445 90.2939 28.9051 91.1413 27.8099C91.549 27.3822 91.8568 26.8745 92.0446 26.3149C93.0879 23.9726 92.5723 21.5144 92.0207 17.6532Z" fill="#E4897B"/>
<path d="M85.6141 20.2311C85.71 20.5789 85.5581 20.9107 85.3183 20.9586C85.0785 21.0066 84.8387 20.7548 84.7667 20.399C84.6948 20.0433 84.8267 19.7155 85.0585 19.6676C85.2903 19.6196 85.5382 19.8674 85.6141 20.2311Z" fill="#263238"/>
<path d="M81.5765 21.0468C81.6725 21.3985 81.5166 21.7343 81.2848 21.7782C81.0529 21.8222 80.8051 21.5704 80.7291 21.2186C80.6532 20.8669 80.7891 20.5311 81.0209 20.4872C81.2528 20.4432 81.4966 20.711 81.5765 21.0468Z" fill="#263238"/>
<path d="M82.8958 20.9629C82.692 22.142 82.3242 23.2852 81.8086 24.3644C82.3762 24.6163 83.0317 24.6083 83.5913 24.3365L82.8958 20.9629Z" fill="#DE5753"/>
<path d="M86.5975 18.6686C86.5255 18.6966 86.4416 18.6806 86.3817 18.6286C85.9819 18.2609 85.4303 18.105 84.8947 18.2049C84.7788 18.2129 84.6749 18.125 84.6669 18.0091C84.6589 17.9251 84.7069 17.8452 84.7828 17.8052C85.4543 17.6613 86.1538 17.8572 86.6615 18.3208C86.7494 18.3968 86.7614 18.5287 86.6894 18.6206C86.6615 18.6366 86.6295 18.6526 86.5975 18.6686Z" fill="#263238"/>
<path d="M79.5581 20.0076C79.4741 20.0675 79.3622 20.0475 79.3022 19.9636C79.2663 19.9116 79.2583 19.8477 79.2823 19.7877C79.4382 19.1162 79.9138 18.5646 80.5534 18.3048C80.6653 18.2688 80.7852 18.3248 80.8212 18.4367C80.8571 18.5486 80.7972 18.6645 80.6893 18.7045C80.1856 18.9243 79.8219 19.368 79.702 19.9036C79.67 19.9556 79.618 19.9956 79.5581 20.0076Z" fill="#263238"/>
<path d="M84.2949 25.9552C84.8905 26.243 85.4661 26.5788 86.0137 26.9505C86.0936 26.8666 86.1776 26.7826 86.2535 26.6947C87.3327 25.5315 87.4526 24.6362 87.2488 23.9967C87.1449 23.6849 86.969 23.4051 86.7332 23.1732C86.6052 23.0413 86.4574 22.9254 86.2975 22.8335C86.0936 23.7928 85.1743 24.952 84.6547 25.5515C84.4188 25.7994 84.2949 25.9552 84.2949 25.9552Z" fill="#263238"/>
<path d="M84.6348 25.5515L85.1504 25.8313C86.1617 24.7361 86.7292 23.8328 86.7133 23.1732C86.5853 23.0413 86.4375 22.9254 86.2776 22.8335C86.0737 23.8008 85.1544 24.952 84.6348 25.5515Z" fill="white"/>
<path d="M86.2332 26.6946C87.3125 25.5315 87.4324 24.6361 87.2285 23.9966C86.8248 24.4443 86.509 24.9639 86.2852 25.5235C86.1453 25.8952 86.1293 26.3069 86.2332 26.6946Z" fill="#DE5753"/>
<path d="M90.9496 20.1754C90.9496 20.1754 88.0597 17.1096 88.7072 14.1797C88.7072 14.1797 85.5095 12.2771 82.2279 15.9664C79.4619 19.0882 76.3841 15.9864 77.1475 12.5209C77.6632 10.1826 80.0135 11.9733 80.0135 11.9733C80.0135 11.9733 81.3045 9.45511 86.0091 9.30722C90.7137 9.15933 93.6037 12.0492 94.0873 13.804C95.5143 19.0002 94.3351 22.8534 92.3965 25.3196L90.9496 20.1754Z" fill="#263238"/>
<path d="M94.6639 20.8589C94.3801 21.9501 93.6726 22.8815 92.7013 23.4531C91.4063 24.2005 90.391 23.1333 90.435 21.7183C90.4869 20.4632 91.2104 18.5206 92.6614 18.3647C94.1123 18.2088 94.9957 19.5159 94.6639 20.8589Z" fill="#E4897B"/>
<path d="M89.4914 32.6422C89.4914 32.6422 89.4914 33.6095 91.37 33.5175C93.2487 33.4256 99.5801 31.3511 100.647 27.5698H102.018C102.018 27.5698 102.234 31.9227 95.9347 34.0971C89.6353 36.2715 88.8398 33.5695 88.8398 33.5695L89.4914 32.6422Z" fill="#407BFF"/>
<path opacity="0.2" d="M89.4914 32.6422C89.4914 32.6422 89.4914 33.6095 91.37 33.5175C93.2487 33.4256 99.5801 31.3511 100.647 27.5698H102.018C102.018 27.5698 102.234 31.9227 95.9347 34.0971C89.6353 36.2715 88.8398 33.5695 88.8398 33.5695L89.4914 32.6422Z" fill="black"/>
<path opacity="0.2" d="M84.8823 88.9977C84.8823 88.9977 84.7984 89.0736 84.6425 89.1976C82.1243 89.0657 80.5654 88.9497 80.5654 88.9497C80.5654 88.9497 72.799 88.6619 66.7514 85.844C63.5857 80.7477 63.7256 73.6888 70.5567 69.6837C80.0058 64.1437 93.4202 63.688 93.4202 63.688C93.4202 63.688 73.4346 70.3312 73.2467 76.9784C73.0589 83.6256 78.0033 88.7339 84.8823 88.9977Z" fill="black"/>
<path opacity="0.2" d="M122.076 67.6729C121.548 70.6707 120.589 73.5726 119.222 76.2906L96.2344 76.3466C96.2344 76.3466 116.116 73.4047 122.076 67.6729Z" fill="black"/>
<path d="M134.038 43.4267C133.255 44.8057 132.364 46.1167 131.368 47.3518L129.818 45.0175L117.426 39.9132L113.529 38.3143L114.469 29.061C114.469 29.061 117.442 29.5727 119.933 30.2602C120.512 30.4201 121.064 30.5919 121.532 30.7678C124.09 31.7031 133.027 36.6316 134.838 38.762C135.693 39.7573 135.014 41.6599 134.038 43.4267Z" fill="#E4897B"/>
<path opacity="0.2" d="M119.937 30.2601L117.43 39.9171L113.533 38.3183L114.473 29.0649C114.473 29.0649 117.446 29.5686 119.937 30.2601Z" fill="black"/>
<path opacity="0.2" d="M134.038 43.4307C133.255 44.8097 132.364 46.1207 131.368 47.3558L129.817 45.0215C129.817 45.0215 132.284 44.8816 134.038 43.4307Z" fill="black"/>
<path opacity="0.1" d="M118.865 44.6096C112.913 45.9366 107.014 35.72 107.014 35.72C109.84 35.3123 112.718 35.4842 115.472 36.2237C116.763 38.9497 117.894 41.7517 118.865 44.6096Z" fill="black"/>
<path d="M103.94 28.7852C102.761 32.6824 106.338 38.2263 116.239 41.6119L119.189 29.3168C119.189 29.3168 105.167 24.7361 103.94 28.7852Z" fill="#407BFF"/>
<path opacity="0.2" d="M103.94 28.7852C102.761 32.6824 106.338 38.2263 116.239 41.6119L119.189 29.3168C119.189 29.3168 105.167 24.7361 103.94 28.7852Z" fill="black"/>
<path d="M99.7713 29.3569L97.2452 29.9685C97.2452 29.9685 96.0021 29.6527 95.4864 29.7646C94.9708 29.8766 92.2368 33.3261 92.5366 33.6938C92.8364 34.0615 94.699 35.3326 95.3785 34.9409C96.058 34.5492 98.0806 31.4634 98.0806 31.4634L100.523 30.8359L99.7713 29.3569Z" fill="#EEC1BB"/>
<path d="M117.871 18.1811C116.156 17.0859 110.093 26.1993 108.774 26.5351C107.455 26.8709 98.501 29.0573 98.501 29.0573L99.7441 31.5235C99.7441 31.5235 109.457 30.856 111.364 29.8007C113.27 28.7455 118.067 23.6372 118.958 21.8065C119.85 19.9758 117.871 18.1811 117.871 18.1811Z" fill="#407BFF"/>
<path opacity="0.4" d="M117.871 18.1811C116.156 17.0859 110.093 26.1993 108.774 26.5351C107.455 26.8709 98.501 29.0573 98.501 29.0573L99.7441 31.5235C99.7441 31.5235 109.457 30.856 111.364 29.8007C113.27 28.7455 118.067 23.6372 118.958 21.8065C119.85 19.9758 117.871 18.1811 117.871 18.1811Z" fill="white"/>
<path d="M57.667 39.5214C57.667 39.5214 55.3207 42.4033 53.2342 43.7703C52.8745 44.0141 52.4828 44.214 52.0711 44.3619C49.8207 45.0973 47.6982 33.6616 47.6982 33.6616L47.7742 33.11L48.5736 27.0464C50.2124 27.3901 52.7946 39.8891 53.0064 40.3608C53.2183 40.8324 55.9523 37.8266 55.9523 37.8266L57.667 39.5214Z" fill="#EEC1BB"/>
<path opacity="0.2" d="M53.2342 43.7863C52.8745 44.0301 52.4828 44.2299 52.0711 44.3778C49.8207 45.1133 47.6982 33.6776 47.6982 33.6776L47.7742 33.126L49.5409 32.2026C49.5409 32.2026 50.7201 40.3807 53.2342 43.7863Z" fill="black"/>
<path d="M54.5928 38.2182C54.5928 38.2182 55.4802 35.9799 56.4674 35.4962C57.4547 35.0126 60.4126 34.7807 61.0281 35.0485C61.6437 35.3163 62.1433 36.7433 62.1433 36.7433C62.1433 36.7433 59.0696 39.8571 58.3261 40.0329C57.5826 40.2088 54.4809 40.2648 54.5928 38.2182Z" fill="#EEC1BB"/>
<path d="M21.1768 80.6755L21.5005 77.0102L26.7168 76.8623L31.4773 76.7344L31.8171 81.1512L26.1891 80.9034L21.1768 80.6755Z" fill="#E4897B"/>
<path d="M24.3864 76.8065C24.6982 77.0264 21.8203 80.7797 21.8203 80.7797C21.8203 80.7797 17.7512 81.5471 15.6288 83.5217C13.5063 85.4963 12.9787 83.2459 14.7334 80.6238L19.0743 74.1644C20.3414 72.2858 21.1408 74.5082 24.3864 76.8065Z" fill="#263238"/>
<path d="M19.4343 82.1588C19.89 81.6392 20.4296 81.2035 21.0332 80.8677C21.0492 80.8637 21.0691 80.8637 21.0851 80.8677H21.1171C21.1491 80.8717 21.1771 80.8877 21.197 80.9157C21.225 80.9557 21.9205 81.899 21.7846 82.5785C21.7486 82.7904 21.6167 82.9702 21.4329 83.0782C21.289 83.1941 21.0891 83.2101 20.9292 83.1141C20.7334 82.9622 20.7134 82.5465 20.7574 82.1108C20.6055 82.4346 20.3696 82.7144 20.0699 82.9103C19.9459 82.9782 19.8021 82.9902 19.6701 82.9422C19.3983 82.8463 19.3264 82.6864 19.3144 82.5665C19.3064 82.4186 19.3504 82.2747 19.4343 82.1588ZM20.8453 81.2715C20.2138 81.6712 19.5183 82.2587 19.5462 82.5425C19.5462 82.5705 19.5462 82.6465 19.7341 82.7104C19.806 82.7344 19.882 82.7264 19.9499 82.6904C20.2977 82.5265 20.6494 81.7871 20.8453 81.2834V81.2715ZM21.4569 82.6944C21.4928 82.6385 21.5168 82.5785 21.5288 82.5146C21.5328 82.0709 21.3929 81.6352 21.1291 81.2754C20.9612 82.0029 20.8893 82.7704 21.0611 82.8983C21.1131 82.9382 21.225 82.8983 21.285 82.8463C21.3529 82.8143 21.4089 82.7664 21.4569 82.7064V82.6944Z" fill="#407BFF"/>
<path d="M14.458 83.7813L15.5132 80.2559L20.6535 81.1632L25.3421 81.9986L24.7825 86.3914L19.3185 85.0124L14.458 83.7813Z" fill="#E4897B"/>
<path opacity="0.2" d="M19.2744 85.0006L20.6094 81.1514L25.322 81.9908L24.7704 86.3876L19.2744 85.0006Z" fill="black"/>
<path d="M18.3789 80.6357C18.6427 80.9155 15.0653 84.0132 15.0653 84.0132C15.0653 84.0132 10.9243 83.9453 8.45004 85.4522C5.97583 86.9591 5.90788 84.6528 8.15425 82.4344L13.7142 76.9623C15.3091 75.3915 15.6528 77.7338 18.3789 80.6357Z" fill="#263238"/>
<path d="M12.4466 84.8926C12.9942 84.4769 13.6058 84.1571 14.2613 83.9493C14.2773 83.9453 14.2973 83.9453 14.3133 83.9493H14.3453C14.3772 83.9613 14.4012 83.9813 14.4172 84.0132C14.4172 84.0572 14.9288 85.1204 14.657 85.76C14.5731 85.9518 14.4092 86.0997 14.2094 86.1597C14.0455 86.2516 13.8456 86.2236 13.7097 86.0957C13.5458 85.9079 13.6138 85.4962 13.7417 85.0805C13.5339 85.3803 13.2421 85.6161 12.9063 85.756C12.7704 85.796 12.6265 85.78 12.5066 85.708C12.3347 85.6321 12.2268 85.4562 12.2348 85.2683C12.2628 85.1204 12.3347 84.9885 12.4466 84.8926ZM14.0095 84.309C13.31 84.5848 12.5106 85.0085 12.4786 85.2923C12.4786 85.3203 12.4786 85.3962 12.6305 85.4922C12.6945 85.5281 12.7704 85.5361 12.8424 85.5162C13.2221 85.4162 13.7137 84.7647 14.0095 84.309ZM14.3213 85.8279C14.3653 85.78 14.4052 85.724 14.4292 85.664C14.5251 85.2284 14.4772 84.7767 14.2933 84.373C13.9815 85.0525 13.7577 85.788 13.8936 85.9478C13.9376 85.9958 14.0575 85.9478 14.1254 85.9478C14.1974 85.9199 14.2653 85.8799 14.3213 85.8279Z" fill="#407BFF"/>
<path d="M27.9362 36.4674C28.6277 38.6898 29.1673 40.6084 29.595 42.3272C30.942 47.6513 31.2218 51.0569 31.5056 55.5176L49.4646 53.9668C50.1841 41.3159 49.8643 34.3809 49.5365 30.8874C49.1768 27.1821 48.6052 27.0462 48.6052 27.0462C48.6052 27.0462 44.6081 26.6465 41.0986 26.6825C38.3966 26.7744 35.6985 27.0582 33.0365 27.5299C31.1019 27.8496 29.1912 28.2813 27.3046 28.8129C26.4013 29.0528 25.8617 29.9841 26.1055 30.8874C26.1135 30.9234 26.1255 30.9594 26.1375 30.9954L26.6851 32.6462C27.1367 34.0092 27.5364 35.2843 27.9362 36.4674Z" fill="#407BFF"/>
<path opacity="0.7" d="M49.4483 53.9673L31.4893 55.5181C31.2055 51.0734 30.9257 47.6758 29.5907 42.3796V42.3277C29.191 40.6729 28.6633 38.8342 27.9918 36.7317C27.9678 36.6478 27.9399 36.5678 27.9159 36.4839C27.5482 35.2848 27.1404 34.0257 26.6808 32.6547L26.1372 30.9959C25.8374 30.1085 26.317 29.1412 27.2044 28.8414C27.2324 28.8334 27.2604 28.8214 27.2883 28.8174C29.175 28.2858 31.0856 27.8541 33.0202 27.5344C35.6823 27.0627 38.3803 26.7789 41.0824 26.687C44.5758 26.659 48.5889 27.0507 48.5889 27.0507C48.5889 27.0507 49.1605 27.1866 49.5203 30.8919C49.848 34.3654 50.1678 41.3164 49.4483 53.9673Z" fill="white"/>
<path d="M30.0069 7.87231C30.0069 7.87231 31.382 5.82579 35.0313 5.56198C38.6807 5.29817 42.7697 6.3614 44.7403 11.3698L43.1415 11.7695C44.2007 15.5388 44.6604 19.448 44.5045 23.3611C44.5045 23.3611 35.451 23.0973 27.193 25.3317C27.193 25.3317 25.9459 19.336 26.8532 13.4363C27.7606 7.53655 30.0069 7.87231 30.0069 7.87231Z" fill="#263238"/>
<path d="M38.908 30.5201C34.731 29.9805 33.46 28.1978 33.46 28.1978C36.118 25.6916 33.9076 21.3428 33.9076 21.3428L38.952 22.2861C38.8361 22.9896 38.7721 23.6971 38.7561 24.4086C38.7202 27.4703 40.1032 27.5023 40.1032 27.5023C40.9905 29.1531 38.908 30.5201 38.908 30.5201Z" fill="#EEC1BB"/>
<path opacity="0.2" d="M38.9526 22.2778C38.8366 22.9813 38.7727 23.6888 38.7567 24.4003C35.3512 24.4003 33.9082 21.3345 33.9082 21.3345L38.9526 22.2778Z" fill="black"/>
<path d="M42.5609 20.2674C42.5209 20.4153 42.481 20.5592 42.433 20.699C41.8494 22.4778 40.5983 23.577 38.3919 23.6209C38.0681 23.6329 37.7444 23.6209 37.4246 23.589C37.2247 23.565 37.0049 23.537 36.7891 23.501C29.2505 22.2699 28.8828 8.56781 36.1655 8.1681C40.5623 7.92428 42.0892 10.2026 42.6608 14.6994C42.9286 16.8418 42.9446 18.7605 42.5609 20.2674Z" fill="#EEC1BB"/>
<path d="M39.8115 14.6074C40.1992 15.243 40.6589 15.8305 41.1865 16.3582C40.9467 16.7419 40.511 16.9577 40.0593 16.9178L39.8115 14.6074Z" fill="#D4827D"/>
<path d="M37.1057 14.3994C37.1377 14.7592 36.9658 15.0669 36.726 15.0869C36.4861 15.1069 36.2663 14.8271 36.2383 14.4674C36.2104 14.1076 36.3822 13.7999 36.638 13.7839C36.8939 13.7679 37.0777 14.0397 37.1057 14.3994Z" fill="#263238"/>
<path d="M36.5215 13.8082L37.2809 13.4404C37.2809 13.4404 36.9452 14.1279 36.5215 13.8082Z" fill="#263238"/>
<path d="M41.5738 13.976C41.6018 14.3358 41.4299 14.6435 41.1741 14.6595C40.9183 14.6755 40.7185 14.4037 40.6905 14.044C40.6625 13.6842 40.8344 13.3765 41.0902 13.3565C41.346 13.3365 41.5459 13.6163 41.5738 13.976Z" fill="#263238"/>
<path d="M40.9902 13.3844L41.7497 13.0127C41.7497 13.0127 41.4099 13.7042 40.9902 13.3844Z" fill="#263238"/>
<path d="M35.0311 12.3411C34.9871 12.3411 34.9471 12.3291 34.9151 12.3011C34.8272 12.2412 34.8032 12.1213 34.8632 12.0333C34.8672 12.0293 34.8672 12.0253 34.8712 12.0253C35.5507 11.086 36.8697 11.17 36.9137 11.174C37.0256 11.182 37.1056 11.2779 37.0976 11.3898C37.0856 11.4977 36.9896 11.5777 36.8817 11.5737C36.8817 11.5737 35.7425 11.5017 35.1949 12.2572C35.159 12.3091 35.095 12.3411 35.0311 12.3411Z" fill="#263238"/>
<path d="M41.8421 11.478C41.8062 11.478 41.7702 11.47 41.7422 11.45C41.2745 11.1262 40.687 11.0343 40.1433 11.1982C40.0394 11.2381 39.9235 11.1862 39.8875 11.0822C39.8516 10.9863 39.8955 10.8744 39.9875 10.8304C40.647 10.6146 41.3665 10.7185 41.9381 11.1062C42.034 11.1622 42.066 11.2861 42.006 11.382C41.97 11.442 41.9021 11.4819 41.8341 11.478H41.8421Z" fill="#263238"/>
<path d="M31.7769 15.8068C31.7769 15.8068 33.6315 12.0934 33.1679 9.32744C33.1679 9.32744 41.6617 5.29835 42.5771 14.1C42.5771 14.1 42.9968 6.21769 35.4462 6.45751C27.8957 6.69734 28.5352 17.7254 32.6083 20.7952C32.6083 20.8111 30.6297 18.1451 31.7769 15.8068Z" fill="#263238"/>
<path d="M32.5441 16.7101C32.3962 15.6589 31.4289 14.9234 30.3776 15.0673C29.0266 15.2871 28.531 18.1131 31.9485 18.6007C32.4362 18.6687 32.684 18.181 32.5441 16.7101Z" fill="#EEC1BB"/>
<path d="M39.8515 18.5647C39.4917 19.0324 39.168 19.528 38.8802 20.0436C38.7802 20.0077 38.6803 19.9757 38.5844 19.9357C37.2613 19.4401 36.8097 18.7726 36.7137 18.181C36.6698 17.8932 36.7017 17.5974 36.7977 17.3216C36.8456 17.1657 36.9136 17.0138 37.0055 16.8779C37.5531 17.5574 38.7483 18.117 39.4038 18.3888C39.6756 18.5048 39.8515 18.5647 39.8515 18.5647Z" fill="#263238"/>
<path d="M39.404 18.3888L39.1042 18.8165C37.8571 18.3449 37.0457 17.8492 36.7979 17.3216C36.8458 17.1657 36.9138 17.0138 37.0057 16.8779C37.5533 17.5574 38.7484 18.117 39.404 18.3888Z" fill="white"/>
<path d="M38.5845 19.9359C37.2615 19.4402 36.8098 18.7727 36.7139 18.1812C37.2135 18.381 37.6732 18.6648 38.0729 19.0245C38.3367 19.2644 38.5166 19.5841 38.5845 19.9359Z" fill="#DE5753"/>
<path d="M75.6333 80.8796C75.0777 85.936 66.1562 88.5541 53.2255 88.9538C44.0881 89.2216 32.9562 88.3662 21.3525 86.4356L21.9041 80.2601L27.3602 78.937C27.3122 78.8371 26.3809 76.8066 26.8006 72.5137C27.1164 69.256 28.2156 64.6913 31.0775 58.6757L49.4642 57.0488L52.1423 62.6688C52.1423 62.6688 72.0999 68.1568 75.4015 78.6932C75.6293 79.3967 75.7093 80.1401 75.6333 80.8796Z" fill="#407BFF"/>
<path opacity="0.2" d="M75.6337 80.8796C75.0781 85.936 66.1565 88.5541 53.2259 88.9538C62.1234 87.7546 65.2732 84.509 63.2986 78.961C61.324 73.413 47.0983 65.5187 46.5547 65.2109C62.9868 71.5464 66.86 81.0875 66.86 81.0875C69.9058 81.8229 73.3873 81.3593 75.6337 80.8796Z" fill="black"/>
<path opacity="0.2" d="M45.1677 78.0213C38.0008 76.9421 27.3525 78.9326 27.3525 78.9326C27.3046 78.8327 26.3732 76.8022 26.7929 72.5093C34.8311 73.1248 45.1677 78.0213 45.1677 78.0213Z" fill="black"/>
<path d="M31.4891 55.5177L49.4481 53.9668V57.0406L31.0654 58.6674L31.4891 55.5177Z" fill="#263238"/>
<path d="M44.0807 54.5027C43.8489 54.2909 43.5411 54.1869 43.2293 54.2149L40.987 54.4068C40.4114 54.4548 39.9677 54.9384 39.9717 55.518V56.9529C39.9717 57.5685 40.4673 58.0641 41.0829 58.0641H41.0869H41.1828L43.4252 57.8683C44.0008 57.8203 44.4445 57.3367 44.4405 56.7571V55.3301C44.4405 55.0143 44.3126 54.7146 44.0807 54.5027ZM43.3732 57.3007L41.1309 57.5006C40.983 57.5125 40.8391 57.4606 40.7312 57.3606C40.6192 57.2567 40.5553 57.1128 40.5553 56.9609V55.526C40.5553 55.2462 40.7711 55.0104 41.0509 54.9904L43.2933 54.7945H43.3413C43.6331 54.7905 43.8729 55.0303 43.8769 55.3221C43.8769 55.3261 43.8769 55.3301 43.8769 55.3341V55.55C43.8489 55.546 43.8169 55.546 43.7889 55.55L43.1614 55.5979C42.9535 55.6779 42.8536 55.9097 42.9336 56.1136C42.9815 56.2375 43.0894 56.3334 43.2214 56.3614L43.8489 56.3094H43.8769V56.7811C43.8649 57.0529 43.645 57.2727 43.3732 57.2887V57.3007Z" fill="white"/>
<path d="M43.3213 40.1888C43.3213 40.1888 43.8409 37.8385 44.7403 37.207C45.6396 36.5754 48.5215 35.8719 49.1731 36.0398C49.8246 36.2077 50.5441 37.5387 50.5441 37.5387C50.5441 37.5387 48.0019 41.0962 47.2984 41.392C46.5949 41.6877 43.5251 42.2154 43.3213 40.1888Z" fill="#EEC1BB"/>
<path opacity="0.2" d="M33.4602 43.8546C32.7088 44.582 31.026 43.5388 29.591 42.3796V42.3277C29.1913 40.6729 28.6637 38.8342 27.9922 36.7317L28.8236 33.1543C28.8236 33.1543 34.8912 42.4676 33.4602 43.8546Z" fill="black"/>
<path d="M26.3807 29.4409C23.8745 31.8391 30.3778 42.8392 33.4596 45.5772C36.5413 48.3152 44.2518 41.1004 44.2518 41.1004V38.6422C44.2518 38.6422 37.2888 42.0957 35.9538 41.8839C35.3422 41.7879 33.0359 38.2025 31.505 34.9169C29.6823 30.9957 28.4952 27.3983 26.3807 29.4409Z" fill="#EEC1BB"/>
<path d="M63.1787 38.8787C63.1787 38.8787 67.8274 41.4009 69.3582 41.3529C70.8891 41.3049 75.6337 36.4404 75.6337 36.4404L77.5004 37.2399C77.5004 37.2399 72.472 43.5713 70.9691 43.8151C69.4662 44.0589 63.7983 42.616 63.7983 42.616L63.1787 38.8787Z" fill="#E4897B"/>
<path d="M59.6777 36.5918C63.3791 36.7996 66.4728 39.6376 66.4728 39.6376L65.2737 44.0704L60.677 41.9999L59.6777 36.5918Z" fill="#263238"/>
<path opacity="0.4" d="M66.4605 39.6376L65.2614 44.0704L64.7178 43.8266L60.6647 41.9999L60.4488 40.8287L59.6494 36.5918C63.3787 36.7996 66.4605 39.6376 66.4605 39.6376Z" fill="white"/>
<path opacity="0.2" d="M64.7328 43.8268L60.6797 42.0002L60.4639 40.829L61.0954 38.8784C61.0954 38.8784 64.5089 39.6099 64.7328 43.8268Z" fill="black"/>
<path d="M76.7005 59.8472C76.7005 59.8472 85.0944 64.7636 88.1602 76.747L85.8418 78.5137C85.8418 78.5137 82.7601 69.0165 73.8105 64.5917L76.7005 59.8472Z" fill="#E4897B"/>
<path d="M88.3602 75.7236L84.6949 76.607C84.567 76.631 84.483 76.7549 84.507 76.8828V76.8868L85.0306 79.8327C85.1066 80.1484 85.4224 80.3443 85.7381 80.2684C87.0132 79.9406 87.6008 79.7208 89.2116 79.317C90.1989 79.0732 92.1775 78.6895 93.4765 78.1459C94.7756 77.6023 94.204 76.3352 93.6044 76.4511C92.1855 76.7149 90.059 76.2713 88.9638 75.7716C88.7719 75.6877 88.5601 75.6717 88.3602 75.7236Z" fill="#263238"/>
<path d="M89.6512 75.9994C89.3555 76.0634 89.0557 76.0913 88.7519 76.0913C88.7199 76.0953 88.692 76.0753 88.68 76.0474C88.664 76.0234 88.664 75.9874 88.68 75.9634C88.7679 75.8635 89.5393 75.0121 89.975 75.0681C90.0749 75.0801 90.1629 75.148 90.2028 75.2439C90.2908 75.3798 90.2908 75.5517 90.2028 75.6876C90.0629 75.8515 89.8671 75.9634 89.6512 75.9994ZM89.971 75.2359C89.7392 75.204 89.2595 75.6117 88.9398 75.9434C89.5513 75.9155 89.975 75.7955 90.0949 75.6077C90.1429 75.5197 90.1429 75.4118 90.0949 75.3239C90.0749 75.2759 90.035 75.2439 89.983 75.2359H89.971Z" fill="#407BFF"/>
<path d="M88.768 76.0873C88.76 76.0913 88.748 76.0913 88.74 76.0873C88.712 76.0833 88.6921 76.0634 88.6841 76.0394C88.6841 76.0114 88.3723 75.0801 88.6201 74.6803C88.6881 74.5804 88.8 74.5125 88.9199 74.4965C89.0558 74.4685 89.1917 74.5365 89.2516 74.6604C89.4115 74.9961 89.0918 75.7995 88.812 76.0674C88.804 76.0793 88.784 76.0873 88.768 76.0873ZM88.9039 74.6803C88.8439 74.6963 88.792 74.7363 88.76 74.7923C88.6081 75.0281 88.712 75.5717 88.796 75.8755C89.0358 75.5517 89.1477 75.152 89.1118 74.7523C89.1118 74.7083 89.0518 74.6604 88.9439 74.6764L88.9039 74.6803Z" fill="#407BFF"/>
<path d="M67.6198 65.4595C67.6198 65.4595 73.3037 73.3658 71.2172 85.5569L68.3792 86.2325C68.3792 86.2325 69.4185 76.2996 63.0391 68.6212L67.6198 65.4595Z" fill="#E4897B"/>
<path d="M71.8126 84.6975L68.1072 84.022C67.9833 83.99 67.8554 84.0659 67.8234 84.1898C67.8234 84.1938 67.8234 84.1938 67.8234 84.1978L67.108 87.1037C67.048 87.4235 67.2558 87.7313 67.5756 87.7952C68.8747 88.0111 69.5022 88.0471 71.137 88.3348C72.1403 88.5147 74.1029 88.9664 75.5099 88.9984C76.9169 89.0303 76.9089 87.6354 76.3093 87.4995C74.9023 87.1677 73.1396 85.9006 72.3442 84.9933C72.2043 84.8374 72.0164 84.7334 71.8126 84.6975Z" fill="#263238"/>
<path d="M72.8834 85.4768C72.5877 85.4168 72.2999 85.3209 72.0241 85.193C71.9921 85.185 71.9721 85.157 71.9761 85.125C71.9761 85.093 71.9921 85.0691 72.0201 85.0531C72.136 84.9971 73.1912 84.5334 73.567 84.7613C73.6549 84.8172 73.7068 84.9092 73.7068 85.0131C73.7268 85.169 73.6589 85.3209 73.531 85.4128C73.3311 85.5127 73.0993 85.5367 72.8834 85.4768ZM73.483 84.9092C73.2832 84.7853 72.6836 84.9611 72.2559 85.137C72.8235 85.3608 73.2592 85.4208 73.455 85.2969C73.535 85.2329 73.5749 85.133 73.563 85.0331C73.563 84.9811 73.539 84.9372 73.495 84.9092H73.483Z" fill="#407BFF"/>
<path d="M72.0403 85.2011C72.0283 85.2051 72.0163 85.2051 72.0043 85.2011C71.9843 85.1851 71.9724 85.1611 71.9764 85.1331C71.9764 85.1052 72.0803 84.1299 72.468 83.866C72.5719 83.8021 72.6998 83.7861 72.8197 83.8221C72.9556 83.8501 73.0516 83.97 73.0556 84.1059C73.0556 84.4776 72.444 85.0812 72.0803 85.2131C72.0643 85.2131 72.0523 85.2091 72.0403 85.2011ZM72.7318 83.97C72.6718 83.958 72.6079 83.97 72.5559 84.0099C72.3201 84.1658 72.1962 84.7014 72.1562 85.0172C72.508 84.8174 72.7718 84.4976 72.9037 84.1179C72.9037 84.0699 72.9037 84.0099 72.7798 83.978L72.7318 83.97Z" fill="#407BFF"/>
<path d="M67.5477 57.0973C67.5477 57.0973 63.0789 46.0692 62.5233 39.6139C62.3914 38.067 61.2122 36.8159 59.6773 36.5921C57.9026 36.3723 56.1039 36.3882 54.3332 36.6361C48.3375 37.3675 45.7274 39.2102 45.7274 39.2102C45.7274 39.2102 45.5835 50.1303 47.8419 60.1631L67.5477 57.0973Z" fill="#263238"/>
<path opacity="0.4" d="M67.5476 57.097L47.8419 60.1748C47.1824 57.157 46.6907 54.1072 46.3709 51.0334C46.1431 48.9309 45.9952 46.9643 45.8993 45.2616C45.6954 41.6642 45.7274 39.2219 45.7274 39.2219C45.7274 39.2219 48.3175 37.3793 54.3332 36.6478C56.1039 36.4 57.9026 36.384 59.6773 36.6038C61.2122 36.8277 62.3914 38.0787 62.5233 39.6256C63.0789 46.069 67.5476 57.097 67.5476 57.097Z" fill="white"/>
<path d="M57.1148 35.6449C56.851 36.3284 56.871 37.0919 57.1708 37.7594C57.2227 37.8793 57.2827 37.9912 57.3506 38.1031C57.4586 38.275 57.5785 38.4389 57.7104 38.5908C57.7104 38.5908 58.182 40.4614 55.9357 40.3175C52.4941 40.0977 51.1191 37.7914 51.1191 37.7914C52.0904 36.7002 52.5421 35.2452 52.3662 33.7943C52.2903 33.0628 52.0984 32.3473 51.7947 31.6758L56.1915 33.3026L58.19 34.0381C57.7184 34.4897 57.3546 35.0374 57.1148 35.6449Z" fill="#E4897B"/>
<path opacity="0.2" d="M57.1152 35.6449C56.8514 36.3284 56.8713 37.0919 57.1711 37.7594C57.2231 37.8793 57.283 37.9912 57.351 38.1031C54.8728 37.6675 53.198 35.3052 52.3626 33.7943C52.2867 33.0628 52.0948 32.3473 51.791 31.6758L56.1878 33.3026L58.1864 34.0381C57.7187 34.4897 57.351 35.0374 57.1152 35.6449Z" fill="black"/>
<path d="M59.4691 20.2959C59.4691 20.2959 64.7452 23.4936 60.0966 28.462C54.8404 34.058 59.4691 20.2959 59.4691 20.2959Z" fill="#263238"/>
<path d="M48.9402 28.3581C49.7196 31.9555 52.3497 35.7088 55.4515 35.8247C61.1354 36.0325 63.1539 34.6615 63.1779 30.4605C63.2219 26.6753 61.0714 21.0074 56.3348 20.5797C51.5983 20.152 47.857 23.3537 48.9402 28.3581Z" fill="#E4897B"/>
<path d="M60.3683 22.6423C58.7255 23.4817 56.8828 23.8614 55.0401 23.7335C55.0401 23.7335 52.8737 24.4091 53.7131 26.8393C54.5525 29.2695 51.8424 31.0403 52.2022 34.3619C52.2022 34.3619 48.6927 34.4378 47.1258 27.267C45.9867 22.0468 50.2796 19.3487 54.9962 18.7691C58.9453 18.2895 62.131 20.7317 60.3683 22.6423Z" fill="#263238"/>
<path d="M57.4113 28.2223C57.4952 28.682 57.811 29.0217 58.1148 28.9538C58.4186 28.8858 58.5864 28.4781 58.5145 28.0185C58.4425 27.5588 58.1148 27.219 57.815 27.287C57.5152 27.3549 57.3314 27.7626 57.4113 28.2223Z" fill="#263238"/>
<path d="M61.064 27.3669C61.14 27.8066 61.4637 28.1263 61.7316 28.0664C61.9994 28.0064 62.1872 27.6147 62.1073 27.171C62.0273 26.7274 61.7076 26.4196 61.4358 26.4715C61.164 26.5235 60.9841 26.9272 61.064 27.3669Z" fill="#263238"/>
<path d="M58.314 25.6637C58.342 25.6317 58.362 25.5918 58.37 25.5478C58.366 25.4319 58.2701 25.336 58.1541 25.332C57.4746 25.312 56.8271 25.6238 56.4234 26.1714C56.3594 26.2673 56.3834 26.3952 56.4793 26.4591L56.4833 26.4631C56.5833 26.5191 56.7072 26.4951 56.7751 26.4032C57.1069 25.9755 57.6265 25.7357 58.1701 25.7636C58.2301 25.7517 58.2821 25.7157 58.314 25.6637Z" fill="#263238"/>
<path d="M61.9108 25.2003C61.9508 25.1843 61.9868 25.1564 62.0147 25.1204C62.0667 25.0165 62.0307 24.8925 61.9308 24.8326C61.3432 24.4888 60.6237 24.4529 60.0082 24.7407C59.9043 24.7926 59.8643 24.9165 59.9163 25.0204C59.9163 25.0204 59.9163 25.0244 59.9203 25.0244C59.9762 25.1244 60.1001 25.1603 60.204 25.1124C60.6997 24.8925 61.2713 24.9325 61.7349 25.2163C61.7949 25.2323 61.8589 25.2283 61.9108 25.2003Z" fill="#263238"/>
<path d="M60.4403 28.0342L60.3164 30.0727C60.824 30.1087 61.3317 29.9888 61.7674 29.729C61.2278 29.2453 60.7761 28.6737 60.4403 28.0342Z" fill="#DE5753"/>
<path d="M53.3609 29.9848C53.3609 29.9848 52.0419 27.9024 51.0026 28.7857C49.9634 29.6691 50.7868 33.3664 52.5015 33.0906C54.2163 32.8148 54.3162 31.0601 53.3609 29.9848Z" fill="#E4897B"/>
<path d="M60.6805 31.4197C60.4526 31.9394 60.2648 32.471 60.1169 33.0186L59.8171 32.9866C58.4701 32.8307 57.8945 32.3151 57.6666 31.7875C57.5587 31.5277 57.5187 31.2479 57.5467 30.9681C57.5547 30.8082 57.5867 30.6523 57.6387 30.5044C58.3022 31.012 59.5493 31.2519 60.2208 31.3558C60.5006 31.3958 60.6805 31.4197 60.6805 31.4197Z" fill="#263238"/>
<path d="M60.22 31.3597L60.0401 31.8273C58.773 31.6795 57.8976 31.4037 57.5459 30.972C57.5539 30.8121 57.5859 30.6562 57.6378 30.5083C58.3133 31.0159 59.5485 31.2558 60.22 31.3597Z" fill="white"/>
<path d="M59.8165 32.9945C58.4694 32.8387 57.8939 32.323 57.666 31.7954C58.1776 31.8634 58.6733 32.0232 59.129 32.2631C59.4287 32.427 59.6686 32.6828 59.8165 32.9945Z" fill="#DE5753"/>
<path d="M56.252 18.713C59.7655 18.9208 61.3963 17.7417 61.3963 17.7417C63.5148 19.8162 61.4443 24.7406 55.0409 23.7374C48.6375 22.7341 55.1168 18.649 56.252 18.713Z" fill="#263238"/>
<path d="M80.2977 60.6227L76.7882 67.102L75.6611 69.1805L68.6142 66.4105L64.3532 72.9897C64.3532 72.9897 45.7347 67.3698 47.4015 58.0365L65.7882 52.3486C65.7882 52.3486 74.2181 54.4711 80.2977 60.6227Z" fill="#263238"/>
<path opacity="0.2" d="M76.7884 67.1019L75.6612 69.1804L68.6143 66.4104L69.054 65.1633L61.9111 57.249C61.9111 57.249 72.0438 60.4907 76.7884 67.1019Z" fill="black"/>
<path d="M75.6617 37.2516C75.6617 37.2516 75.238 36.6841 75.6337 35.6728C76.0295 34.6615 80.3823 33.9141 80.3823 33.9141C80.3823 33.9141 80.858 36.4362 80.3823 37.2516C79.9067 38.0671 76.0854 39.0463 75.6617 37.2516Z" fill="#E4897B"/>
<path opacity="0.2" d="M46.3711 51.0217C46.1432 48.9192 45.9953 46.9527 45.8994 45.2499C46.6229 44.6303 47.5502 44.3066 48.5015 44.3425C48.5015 44.3425 48.9612 48.9352 46.3711 51.0217Z" fill="black"/>
<path d="M47.2985 45.5496C47.2985 45.5496 45.0401 52.2808 44.7403 53.9436C44.4406 55.6064 44.7403 63.6805 44.7403 63.6805H42.8577C42.8577 63.6805 41.7945 55.1587 41.8744 53.4919C41.9544 51.8251 43.873 44.0747 43.873 44.0747L47.2985 45.5496Z" fill="#E4897B"/>
<path d="M45.7837 39.2183C43.3855 41.0569 42.0225 47.0326 42.0225 47.0326L46.779 47.5642L48.5098 43.3033L45.7837 39.2183Z" fill="#263238"/>
<path opacity="0.4" d="M45.7837 39.2183C43.3855 41.0569 42.0225 47.0326 42.0225 47.0326L46.779 47.5642L48.5098 43.3033L45.7837 39.2183Z" fill="white"/>
<path d="M43.125 62.6333C43.125 62.6333 40.1232 63.1209 39.5676 63.6765C38.996 64.3321 38.4644 65.0196 37.9688 65.7351C37.9688 65.7351 41.4622 66.8063 42.0258 66.9342C42.5894 67.0621 44.9077 64.9157 45.1715 64.3321C45.4354 63.7485 43.125 62.6333 43.125 62.6333Z" fill="#E4897B"/>
</svg>
