<svg width="928" height="198" viewBox="0 0 928 198" fill="none" xmlns="http://www.w3.org/2000/svg">
<g filter="url(#filter0_ddd_490_191)">
<rect x="20" y="10" width="888" height="158" rx="4" fill="white"/>
</g>
<path d="M332.126 48H334.974L339.086 37.328H336.494L333.55 45.536L330.59 37.328H327.998L332.126 48ZM340.072 48H342.344V37.328H340.072V48ZM351.822 48H354.014V37.328H351.742V44.24L346.798 37.328H344.462V48H346.734V40.832L351.822 48ZM361.207 48.192C363.639 48.192 364.983 46.896 365.751 45.568L363.799 44.624C363.351 45.504 362.391 46.176 361.207 46.176C359.351 46.176 357.943 44.688 357.943 42.672C357.943 40.656 359.351 39.168 361.207 39.168C362.391 39.168 363.351 39.856 363.799 40.72L365.751 39.76C364.999 38.432 363.639 37.152 361.207 37.152C358.087 37.152 355.607 39.392 355.607 42.672C355.607 45.952 358.087 48.192 361.207 48.192ZM367.103 48H374.655V46.032H369.375V43.552H374.543V41.6H369.375V39.28H374.655V37.328H367.103V48ZM383.791 48H385.983V37.328H383.711V44.24L378.767 37.328H376.431V48H378.703V40.832L383.791 48ZM390.551 48H392.839V39.328H395.943V37.328H387.431V39.328H390.551V48ZM401.493 48H407.286C409.318 48 410.39 46.72 410.39 45.12C410.39 43.776 409.477 42.672 408.342 42.496C409.35 42.288 410.182 41.392 410.182 40.048C410.182 38.624 409.142 37.328 407.11 37.328H401.493V48ZM403.766 41.616V39.264H406.614C407.382 39.264 407.862 39.776 407.862 40.432C407.862 41.12 407.382 41.616 406.614 41.616H403.766ZM403.766 46.064V43.552H406.694C407.59 43.552 408.07 44.128 408.07 44.8C408.07 45.568 407.558 46.064 406.694 46.064H403.766ZM418.135 48H420.743L418.343 43.936C419.495 43.664 420.679 42.656 420.679 40.768C420.679 38.784 419.319 37.328 417.095 37.328H412.103V48H414.375V44.176H416.039L418.135 48ZM418.359 40.752C418.359 41.648 417.671 42.224 416.759 42.224H414.375V39.28H416.759C417.671 39.28 418.359 39.856 418.359 40.752ZM421.872 42.672C421.872 45.888 424.224 48.192 427.44 48.192C430.672 48.192 433.024 45.888 433.024 42.672C433.024 39.456 430.672 37.152 427.44 37.152C424.224 37.152 421.872 39.456 421.872 42.672ZM430.688 42.672C430.688 44.656 429.408 46.176 427.44 46.176C425.472 46.176 424.208 44.656 424.208 42.672C424.208 40.672 425.472 39.168 427.44 39.168C429.408 39.168 430.688 40.672 430.688 42.672ZM440.955 48H443.755L439.227 42.336L443.467 37.328H440.667L436.891 42.096V37.328H434.618V48H436.891V44.72L437.723 43.728L440.955 48ZM444.79 48H452.342V46.032H447.062V43.552H452.23V41.6H447.062V39.28H452.342V37.328H444.79V48ZM460.151 48H462.759L460.359 43.936C461.51 43.664 462.695 42.656 462.695 40.768C462.695 38.784 461.335 37.328 459.111 37.328H454.118V48H456.391V44.176H458.055L460.151 48ZM460.375 40.752C460.375 41.648 459.687 42.224 458.775 42.224H456.391V39.28H458.775C459.687 39.28 460.375 39.856 460.375 40.752ZM473.68 48H475.968V37.328H472.768L470.176 43.984L467.584 37.328H464.4V48H466.672V40.32L469.68 48H470.672L473.68 40.32V48ZM485.559 48H488.039L483.927 37.328H481.079L476.951 48H479.447L480.119 46.16H484.887L485.559 48ZM482.503 39.296L484.263 44.192H480.727L482.503 39.296ZM496.385 48H498.577V37.328H496.305V44.24L491.361 37.328H489.025V48H491.297V40.832L496.385 48ZM511.863 45.856C512.471 45.04 512.967 44.128 513.351 43.28L511.719 42.528C511.527 43.152 511.191 43.904 510.743 44.592C510.439 44.24 510.135 43.888 509.831 43.504C509.559 43.184 509.239 42.784 508.919 42.352C510.231 41.744 511.543 41.056 511.543 39.424C511.543 38 510.247 37.168 508.727 37.168C506.951 37.168 505.687 38.288 505.687 39.728C505.687 40.448 505.975 41.232 506.391 42.016C505.175 42.64 504.087 43.472 504.087 45.104C504.087 47.168 505.655 48.192 507.623 48.192C508.775 48.192 509.719 47.808 510.519 47.2C510.823 47.504 511.095 47.792 511.319 48H513.911C513.175 47.248 512.503 46.544 511.863 45.856ZM507.719 39.776C507.719 39.12 508.199 38.64 508.839 38.64C509.367 38.64 509.767 38.976 509.767 39.536C509.767 40.32 509.079 40.784 508.183 41.2C507.911 40.704 507.719 40.208 507.719 39.776ZM507.895 46.592C507.015 46.592 506.247 45.952 506.247 44.912C506.247 44.176 506.631 43.68 507.175 43.28C507.527 43.776 507.895 44.256 508.247 44.688C508.503 45.008 508.951 45.504 509.431 46.032C508.967 46.384 508.455 46.592 507.895 46.592ZM526.684 48H529.164L525.052 37.328H522.204L518.076 48H520.572L521.244 46.16H526.012L526.684 48ZM523.628 39.296L525.388 44.192H521.852L523.628 39.296ZM529.304 46.496C530.312 47.504 531.784 48.192 533.832 48.192C536.712 48.192 538.104 46.72 538.104 44.768C538.104 42.4 535.864 41.872 534.104 41.472C532.872 41.184 531.976 40.96 531.976 40.24C531.976 39.6 532.52 39.152 533.544 39.152C534.584 39.152 535.736 39.52 536.6 40.32L537.864 38.656C536.808 37.68 535.4 37.168 533.704 37.168C531.192 37.168 529.656 38.608 529.656 40.384C529.656 42.768 531.896 43.248 533.64 43.648C534.872 43.936 535.8 44.208 535.8 45.008C535.8 45.616 535.192 46.208 533.944 46.208C532.472 46.208 531.304 45.552 530.552 44.768L529.304 46.496ZM538.898 46.496C539.906 47.504 541.378 48.192 543.426 48.192C546.306 48.192 547.698 46.72 547.698 44.768C547.698 42.4 545.458 41.872 543.698 41.472C542.466 41.184 541.57 40.96 541.57 40.24C541.57 39.6 542.114 39.152 543.138 39.152C544.178 39.152 545.33 39.52 546.194 40.32L547.458 38.656C546.402 37.68 544.994 37.168 543.298 37.168C540.786 37.168 539.25 38.608 539.25 40.384C539.25 42.768 541.49 43.248 543.234 43.648C544.466 43.936 545.394 44.208 545.394 45.008C545.394 45.616 544.786 46.208 543.538 46.208C542.066 46.208 540.898 45.552 540.146 44.768L538.898 46.496ZM548.716 42.672C548.716 45.888 551.068 48.192 554.284 48.192C557.516 48.192 559.868 45.888 559.868 42.672C559.868 39.456 557.516 37.152 554.284 37.152C551.068 37.152 548.716 39.456 548.716 42.672ZM557.532 42.672C557.532 44.656 556.252 46.176 554.284 46.176C552.316 46.176 551.052 44.656 551.052 42.672C551.052 40.672 552.316 39.168 554.284 39.168C556.252 39.168 557.532 40.672 557.532 42.672ZM566.55 48.192C568.982 48.192 570.326 46.896 571.094 45.568L569.142 44.624C568.694 45.504 567.734 46.176 566.55 46.176C564.694 46.176 563.286 44.688 563.286 42.672C563.286 40.656 564.694 39.168 566.55 39.168C567.734 39.168 568.694 39.856 569.142 40.72L571.094 39.76C570.342 38.432 568.982 37.152 566.55 37.152C563.43 37.152 560.95 39.392 560.95 42.672C560.95 45.952 563.43 48.192 566.55 48.192ZM572.447 48H574.719V37.328H572.447V48ZM584.309 48H586.789L582.677 37.328H579.829L575.701 48H578.197L578.869 46.16H583.637L584.309 48ZM581.253 39.296L583.013 44.192H579.477L581.253 39.296ZM589.208 48H591.496V39.328H594.6V37.328H586.088V39.328H589.208V48ZM596.056 48H603.608V46.032H598.328V43.552H603.496V41.6H598.328V39.28H603.608V37.328H596.056V48ZM604.648 46.496C605.656 47.504 607.128 48.192 609.176 48.192C612.056 48.192 613.448 46.72 613.448 44.768C613.448 42.4 611.208 41.872 609.448 41.472C608.216 41.184 607.32 40.96 607.32 40.24C607.32 39.6 607.864 39.152 608.888 39.152C609.928 39.152 611.08 39.52 611.944 40.32L613.208 38.656C612.152 37.68 610.744 37.168 609.048 37.168C606.536 37.168 605 38.608 605 40.384C605 42.768 607.24 43.248 608.984 43.648C610.216 43.936 611.144 44.208 611.144 45.008C611.144 45.616 610.536 46.208 609.288 46.208C607.816 46.208 606.648 45.552 605.896 44.768L604.648 46.496Z" fill="#16346F"/>
<path d="M706.888 116H708.088L710.552 108.272H709.304L707.416 114.432L705.384 108.272H704.36L702.328 114.432L700.44 108.272H699.192L701.656 116H702.856L704.872 109.792L706.888 116ZM718.638 116H719.838L722.302 108.272H721.054L719.166 114.432L717.134 108.272H716.11L714.078 114.432L712.19 108.272H710.942L713.406 116H714.606L716.622 109.792L718.638 116ZM730.388 116H731.588L734.052 108.272H732.804L730.916 114.432L728.884 108.272H727.86L725.828 114.432L723.94 108.272H722.692L725.156 116H726.356L728.372 109.792L730.388 116ZM734.507 115.28C734.507 115.76 734.907 116.16 735.387 116.16C735.867 116.16 736.267 115.76 736.267 115.28C736.267 114.8 735.867 114.4 735.387 114.4C734.907 114.4 734.507 114.8 734.507 115.28ZM738.434 116H739.634V114.848C740.21 115.632 741.154 116.192 742.242 116.192C744.258 116.192 745.682 114.656 745.682 112.144C745.682 109.68 744.258 108.08 742.242 108.08C741.186 108.08 740.258 108.592 739.634 109.44V105.328H738.434V116ZM739.634 113.904V110.4C740.05 109.728 740.994 109.152 741.938 109.152C743.506 109.152 744.434 110.432 744.434 112.144C744.434 113.856 743.506 115.12 741.938 115.12C740.994 115.12 740.05 114.576 739.634 113.904ZM747.638 116H748.838V110.528C749.19 109.904 750.198 109.296 750.934 109.296C751.126 109.296 751.27 109.312 751.414 109.344V108.112C750.358 108.112 749.462 108.704 748.838 109.52V108.272H747.638V116ZM756.295 116.192C758.647 116.192 760.119 114.368 760.119 112.128C760.119 109.888 758.647 108.08 756.295 108.08C753.943 108.08 752.471 109.888 752.471 112.128C752.471 114.368 753.943 116.192 756.295 116.192ZM756.295 115.12C754.647 115.12 753.719 113.712 753.719 112.128C753.719 110.56 754.647 109.152 756.295 109.152C757.943 109.152 758.855 110.56 758.855 112.128C758.855 113.712 757.943 115.12 756.295 115.12ZM767.339 116H768.875L765.435 111.776L768.859 108.272H767.339L763.275 112.384V105.328H762.075V116H763.275V113.792L764.555 112.528L767.339 116ZM769.471 112.128C769.471 114.544 771.119 116.192 773.407 116.192C774.671 116.192 775.711 115.776 776.479 115.008L775.903 114.224C775.295 114.848 774.399 115.2 773.519 115.2C771.855 115.2 770.831 113.984 770.735 112.528H776.991V112.224C776.991 109.904 775.615 108.08 773.279 108.08C771.071 108.08 769.471 109.888 769.471 112.128ZM773.263 109.072C775.023 109.072 775.791 110.496 775.807 111.648H770.735C770.799 110.464 771.615 109.072 773.263 109.072ZM778.934 116H780.134V110.528C780.486 109.904 781.494 109.296 782.23 109.296C782.422 109.296 782.566 109.312 782.71 109.344V108.112C781.654 108.112 780.758 108.704 780.134 109.52V108.272H778.934V116ZM793.544 116H794.744V110.416C794.744 108.864 793.992 108.08 792.584 108.08C791.464 108.08 790.424 108.816 789.992 109.52C789.768 108.72 789.096 108.08 787.912 108.08C786.776 108.08 785.736 108.896 785.416 109.392V108.272H784.216V116H785.416V110.352C785.832 109.728 786.664 109.152 787.448 109.152C788.456 109.152 788.872 109.776 788.872 110.752V116H790.072V110.336C790.472 109.728 791.32 109.152 792.12 109.152C793.112 109.152 793.544 109.776 793.544 110.752V116ZM801.97 116H803.17V110.688C803.17 108.816 801.81 108.08 800.178 108.08C798.914 108.08 797.922 108.496 797.09 109.36L797.65 110.192C798.338 109.456 799.09 109.12 800.018 109.12C801.138 109.12 801.97 109.712 801.97 110.752V112.144C801.346 111.424 800.466 111.088 799.41 111.088C798.098 111.088 796.706 111.904 796.706 113.632C796.706 115.312 798.098 116.192 799.41 116.192C800.45 116.192 801.33 115.824 801.97 115.12V116ZM801.97 114.368C801.506 115.008 800.69 115.328 799.842 115.328C798.722 115.328 797.938 114.624 797.938 113.648C797.938 112.656 798.722 111.952 799.842 111.952C800.69 111.952 801.506 112.272 801.97 112.912V114.368ZM810.791 116H811.991V110.576C811.991 108.896 811.143 108.08 809.527 108.08C808.375 108.08 807.319 108.752 806.775 109.392V108.272H805.575V116H806.775V110.352C807.223 109.728 808.119 109.152 809.063 109.152C810.103 109.152 810.791 109.584 810.791 110.944V116ZM819.22 116H820.42V110.688C820.42 108.816 819.06 108.08 817.428 108.08C816.164 108.08 815.172 108.496 814.34 109.36L814.9 110.192C815.588 109.456 816.34 109.12 817.268 109.12C818.388 109.12 819.22 109.712 819.22 110.752V112.144C818.596 111.424 817.716 111.088 816.66 111.088C815.348 111.088 813.956 111.904 813.956 113.632C813.956 115.312 815.348 116.192 816.66 116.192C817.7 116.192 818.58 115.824 819.22 115.12V116ZM819.22 114.368C818.756 115.008 817.94 115.328 817.092 115.328C815.972 115.328 815.188 114.624 815.188 113.648C815.188 112.656 815.972 111.952 817.092 111.952C817.94 111.952 818.756 112.272 819.22 112.912V114.368ZM822.153 114.976C822.937 115.808 824.009 116.192 825.273 116.192C827.273 116.192 828.313 115.152 828.313 113.856C828.313 112.144 826.761 111.76 825.417 111.456C824.409 111.216 823.529 110.976 823.529 110.224C823.529 109.536 824.185 109.056 825.241 109.056C826.233 109.056 827.081 109.472 827.545 110.032L828.105 109.2C827.481 108.576 826.553 108.08 825.241 108.08C823.401 108.08 822.361 109.104 822.361 110.304C822.361 111.904 823.849 112.256 825.161 112.56C826.201 112.816 827.145 113.088 827.145 113.936C827.145 114.688 826.505 115.216 825.321 115.216C824.265 115.216 823.289 114.704 822.777 114.112L822.153 114.976ZM829.59 114.976C830.375 115.808 831.447 116.192 832.711 116.192C834.711 116.192 835.751 115.152 835.751 113.856C835.751 112.144 834.199 111.76 832.855 111.456C831.847 111.216 830.967 110.976 830.967 110.224C830.967 109.536 831.623 109.056 832.679 109.056C833.671 109.056 834.519 109.472 834.983 110.032L835.543 109.2C834.919 108.576 833.991 108.08 832.679 108.08C830.839 108.08 829.799 109.104 829.799 110.304C829.799 111.904 831.287 112.256 832.599 112.56C833.639 112.816 834.583 113.088 834.583 113.936C834.583 114.688 833.943 115.216 832.759 115.216C831.703 115.216 830.727 114.704 830.215 114.112L829.59 114.976ZM837.46 115.28C837.46 115.76 837.86 116.16 838.34 116.16C838.82 116.16 839.22 115.76 839.22 115.28C839.22 114.8 838.82 114.4 838.34 114.4C837.86 114.4 837.46 114.8 837.46 115.28ZM840.83 112.128C840.83 114.432 842.382 116.192 844.686 116.192C846.094 116.192 846.926 115.616 847.518 114.848L846.718 114.112C846.206 114.8 845.55 115.12 844.75 115.12C843.102 115.12 842.078 113.84 842.078 112.128C842.078 110.416 843.102 109.152 844.75 109.152C845.55 109.152 846.206 109.456 846.718 110.16L847.518 109.424C846.926 108.656 846.094 108.08 844.686 108.08C842.382 108.08 840.83 109.84 840.83 112.128ZM852.576 116.192C854.928 116.192 856.4 114.368 856.4 112.128C856.4 109.888 854.928 108.08 852.576 108.08C850.224 108.08 848.752 109.888 848.752 112.128C848.752 114.368 850.224 116.192 852.576 116.192ZM852.576 115.12C850.928 115.12 850 113.712 850 112.128C850 110.56 850.928 109.152 852.576 109.152C854.224 109.152 855.136 110.56 855.136 112.128C855.136 113.712 854.224 115.12 852.576 115.12ZM867.684 116H868.884V110.416C868.884 108.864 868.132 108.08 866.724 108.08C865.604 108.08 864.564 108.816 864.132 109.52C863.908 108.72 863.236 108.08 862.052 108.08C860.916 108.08 859.876 108.896 859.556 109.392V108.272H858.356V116H859.556V110.352C859.972 109.728 860.804 109.152 861.588 109.152C862.596 109.152 863.012 109.776 863.012 110.752V116H864.212V110.336C864.612 109.728 865.46 109.152 866.26 109.152C867.252 109.152 867.684 109.776 867.684 110.752V116Z" fill="#686868"/>
<path d="M788.81 78.129C788.225 74.5282 786.845 72 785.24 72C783.635 72 782.256 74.5282 781.671 78.129H788.81ZM781.369 82C781.369 82.8952 781.417 83.754 781.502 84.5806H788.975C789.06 83.754 789.108 82.8952 789.108 82C789.108 81.1048 789.06 80.246 788.975 79.4194H781.502C781.417 80.246 781.369 81.1048 781.369 82ZM794.464 78.129C793.31 75.3911 790.975 73.2742 788.092 72.4194C789.076 73.7823 789.753 75.8347 790.108 78.129H794.464ZM782.385 72.4194C779.505 73.2742 777.166 75.3911 776.017 78.129H780.372C780.723 75.8347 781.401 73.7823 782.385 72.4194ZM794.895 79.4194H790.27C790.354 80.2661 790.403 81.1331 790.403 82C790.403 82.8669 790.354 83.7339 790.27 84.5806H794.891C795.113 83.754 795.238 82.8952 795.238 82C795.238 81.1048 795.113 80.246 794.895 79.4194ZM780.078 82C780.078 81.1331 780.126 80.2661 780.211 79.4194H775.585C775.367 80.246 775.238 81.1048 775.238 82C775.238 82.8952 775.367 83.754 775.585 84.5806H780.207C780.126 83.7339 780.078 82.8669 780.078 82ZM781.671 85.871C782.256 89.4718 783.635 92 785.24 92C786.845 92 788.225 89.4718 788.81 85.871H781.671ZM788.096 91.5806C790.975 90.7258 793.315 88.6089 794.468 85.871H790.112C789.757 88.1653 789.08 90.2177 788.096 91.5806ZM776.017 85.871C777.17 88.6089 779.505 90.7258 782.389 91.5806C781.405 90.2177 780.727 88.1653 780.372 85.871C780.372 85.871 776.017 85.871 776.017 85.871Z" fill="#16346F"/>
<path d="M476.752 112.128C476.752 114.544 478.4 116.192 480.688 116.192C481.952 116.192 482.992 115.776 483.76 115.008L483.184 114.224C482.576 114.848 481.68 115.2 480.8 115.2C479.136 115.2 478.112 113.984 478.016 112.528H484.272V112.224C484.272 109.904 482.896 108.08 480.56 108.08C478.352 108.08 476.752 109.888 476.752 112.128ZM480.544 109.072C482.304 109.072 483.072 110.496 483.088 111.648H478.016C478.08 110.464 478.896 109.072 480.544 109.072ZM495.544 116H496.744V110.416C496.744 108.864 495.992 108.08 494.584 108.08C493.464 108.08 492.424 108.816 491.992 109.52C491.768 108.72 491.096 108.08 489.912 108.08C488.776 108.08 487.736 108.896 487.416 109.392V108.272H486.216V116H487.416V110.352C487.832 109.728 488.664 109.152 489.448 109.152C490.456 109.152 490.872 109.776 490.872 110.752V116H492.072V110.336C492.472 109.728 493.32 109.152 494.12 109.152C495.112 109.152 495.544 109.776 495.544 110.752V116ZM503.97 116H505.17V110.688C505.17 108.816 503.81 108.08 502.178 108.08C500.914 108.08 499.922 108.496 499.09 109.36L499.65 110.192C500.338 109.456 501.09 109.12 502.018 109.12C503.138 109.12 503.97 109.712 503.97 110.752V112.144C503.346 111.424 502.466 111.088 501.41 111.088C500.098 111.088 498.706 111.904 498.706 113.632C498.706 115.312 500.098 116.192 501.41 116.192C502.45 116.192 503.33 115.824 503.97 115.12V116ZM503.97 114.368C503.506 115.008 502.69 115.328 501.842 115.328C500.722 115.328 499.938 114.624 499.938 113.648C499.938 112.656 500.722 111.952 501.842 111.952C502.69 111.952 503.506 112.272 503.97 112.912V114.368ZM508.167 106.976C508.615 106.976 508.983 106.608 508.983 106.16C508.983 105.712 508.615 105.36 508.167 105.36C507.735 105.36 507.367 105.712 507.367 106.16C507.367 106.608 507.735 106.976 508.167 106.976ZM507.575 116H508.775V108.272H507.575V116ZM511.169 116H512.369V105.328H511.169V116ZM514.123 112.096C514.123 114.928 516.283 117.12 519.195 117.12C520.379 117.12 521.531 116.752 522.523 116.112L522.235 115.696C521.371 116.24 520.395 116.592 519.259 116.592C516.603 116.592 514.667 114.64 514.667 112.064C514.667 109.072 517.323 106.336 520.411 106.336C523.131 106.336 524.939 108.24 524.939 110.864C524.939 113.072 523.835 113.776 523.211 113.776C522.795 113.776 522.459 113.488 522.459 112.944C522.459 112.848 522.475 112.704 522.491 112.608L523.403 108.272H522.315L522.107 109.264C521.803 108.576 521.099 108.016 520.059 108.016C518.171 108.016 516.299 109.808 516.299 112.032C516.299 113.584 517.259 114.64 518.747 114.64C519.771 114.64 520.715 114.032 521.275 113.248L521.291 113.344C521.339 114.016 521.851 114.64 522.747 114.64C524.091 114.64 525.515 113.376 525.515 110.864C525.515 108.064 523.499 105.792 520.475 105.792C517.147 105.792 514.123 108.64 514.123 112.096ZM521.451 112.304C520.987 112.976 520.171 113.744 519.067 113.744C518.043 113.744 517.435 112.992 517.435 111.968C517.435 110.432 518.667 108.912 520.267 108.912C521.211 108.912 521.739 109.6 521.915 110.096L521.451 112.304ZM526.846 112.128C526.846 114.544 528.494 116.192 530.782 116.192C532.046 116.192 533.086 115.776 533.854 115.008L533.278 114.224C532.67 114.848 531.774 115.2 530.894 115.2C529.23 115.2 528.206 113.984 528.11 112.528H534.366V112.224C534.366 109.904 532.99 108.08 530.654 108.08C528.446 108.08 526.846 109.888 526.846 112.128ZM530.638 109.072C532.398 109.072 533.166 110.496 533.182 111.648H528.11C528.174 110.464 528.99 109.072 530.638 109.072ZM545.637 116H546.837V110.416C546.837 108.864 546.085 108.08 544.677 108.08C543.557 108.08 542.517 108.816 542.085 109.52C541.861 108.72 541.189 108.08 540.005 108.08C538.869 108.08 537.829 108.896 537.509 109.392V108.272H536.309V116H537.509V110.352C537.925 109.728 538.757 109.152 539.541 109.152C540.549 109.152 540.965 109.776 540.965 110.752V116H542.165V110.336C542.565 109.728 543.413 109.152 544.213 109.152C545.205 109.152 545.637 109.776 545.637 110.752V116ZM554.063 116H555.263V110.688C555.263 108.816 553.903 108.08 552.271 108.08C551.007 108.08 550.015 108.496 549.183 109.36L549.743 110.192C550.431 109.456 551.183 109.12 552.111 109.12C553.231 109.12 554.063 109.712 554.063 110.752V112.144C553.439 111.424 552.559 111.088 551.503 111.088C550.191 111.088 548.799 111.904 548.799 113.632C548.799 115.312 550.191 116.192 551.503 116.192C552.543 116.192 553.423 115.824 554.063 115.12V116ZM554.063 114.368C553.599 115.008 552.783 115.328 551.935 115.328C550.815 115.328 550.031 114.624 550.031 113.648C550.031 112.656 550.815 111.952 551.935 111.952C552.783 111.952 553.599 112.272 554.063 112.912V114.368ZM558.261 106.976C558.709 106.976 559.077 106.608 559.077 106.16C559.077 105.712 558.709 105.36 558.261 105.36C557.829 105.36 557.461 105.712 557.461 106.16C557.461 106.608 557.829 106.976 558.261 106.976ZM557.669 116H558.869V108.272H557.669V116ZM561.263 116H562.463V105.328H561.263V116ZM569.688 116H570.888V110.688C570.888 108.816 569.528 108.08 567.896 108.08C566.632 108.08 565.64 108.496 564.808 109.36L565.368 110.192C566.056 109.456 566.808 109.12 567.736 109.12C568.856 109.12 569.688 109.712 569.688 110.752V112.144C569.064 111.424 568.184 111.088 567.128 111.088C565.816 111.088 564.424 111.904 564.424 113.632C564.424 115.312 565.816 116.192 567.128 116.192C568.168 116.192 569.048 115.824 569.688 115.12V116ZM569.688 114.368C569.224 115.008 568.408 115.328 567.56 115.328C566.44 115.328 565.656 114.624 565.656 113.648C565.656 112.656 566.44 111.952 567.56 111.952C568.408 111.952 569.224 112.272 569.688 112.912V114.368ZM578.894 116H580.094V105.328H578.894V109.44C578.27 108.592 577.326 108.08 576.286 108.08C574.254 108.08 572.846 109.68 572.846 112.144C572.846 114.656 574.27 116.192 576.286 116.192C577.374 116.192 578.318 115.632 578.894 114.848V116ZM578.894 113.904C578.462 114.576 577.534 115.12 576.574 115.12C575.022 115.12 574.094 113.856 574.094 112.144C574.094 110.432 575.022 109.152 576.574 109.152C577.534 109.152 578.462 109.728 578.894 110.4V113.904ZM588.097 116H589.297V105.328H588.097V109.44C587.473 108.592 586.529 108.08 585.489 108.08C583.457 108.08 582.049 109.68 582.049 112.144C582.049 114.656 583.473 116.192 585.489 116.192C586.577 116.192 587.521 115.632 588.097 114.848V116ZM588.097 113.904C587.665 114.576 586.737 115.12 585.777 115.12C584.225 115.12 583.297 113.856 583.297 112.144C583.297 110.432 584.225 109.152 585.777 109.152C586.737 109.152 587.665 109.728 588.097 110.4V113.904ZM591.7 116H592.9V110.528C593.252 109.904 594.26 109.296 594.996 109.296C595.188 109.296 595.332 109.312 595.476 109.344V108.112C594.42 108.112 593.524 108.704 592.9 109.52V108.272H591.7V116ZM596.533 112.128C596.533 114.544 598.181 116.192 600.469 116.192C601.733 116.192 602.773 115.776 603.541 115.008L602.965 114.224C602.357 114.848 601.461 115.2 600.581 115.2C598.917 115.2 597.893 113.984 597.797 112.528H604.053V112.224C604.053 109.904 602.677 108.08 600.341 108.08C598.133 108.08 596.533 109.888 596.533 112.128ZM600.325 109.072C602.085 109.072 602.853 110.496 602.869 111.648H597.797C597.861 110.464 598.677 109.072 600.325 109.072ZM605.325 114.976C606.109 115.808 607.181 116.192 608.445 116.192C610.445 116.192 611.485 115.152 611.485 113.856C611.485 112.144 609.933 111.76 608.589 111.456C607.581 111.216 606.701 110.976 606.701 110.224C606.701 109.536 607.357 109.056 608.413 109.056C609.405 109.056 610.253 109.472 610.717 110.032L611.277 109.2C610.653 108.576 609.725 108.08 608.413 108.08C606.573 108.08 605.533 109.104 605.533 110.304C605.533 111.904 607.021 112.256 608.333 112.56C609.373 112.816 610.317 113.088 610.317 113.936C610.317 114.688 609.677 115.216 608.493 115.216C607.437 115.216 606.461 114.704 605.949 114.112L605.325 114.976ZM612.762 114.976C613.546 115.808 614.618 116.192 615.882 116.192C617.882 116.192 618.922 115.152 618.922 113.856C618.922 112.144 617.37 111.76 616.026 111.456C615.018 111.216 614.138 110.976 614.138 110.224C614.138 109.536 614.794 109.056 615.85 109.056C616.842 109.056 617.69 109.472 618.154 110.032L618.714 109.2C618.09 108.576 617.162 108.08 615.85 108.08C614.01 108.08 612.97 109.104 612.97 110.304C612.97 111.904 614.458 112.256 615.77 112.56C616.81 112.816 617.754 113.088 617.754 113.936C617.754 114.688 617.114 115.216 615.93 115.216C614.874 115.216 613.898 114.704 613.386 114.112L612.762 114.976ZM620.632 115.28C620.632 115.76 621.032 116.16 621.512 116.16C621.992 116.16 622.392 115.76 622.392 115.28C622.392 114.8 621.992 114.4 621.512 114.4C621.032 114.4 620.632 114.8 620.632 115.28ZM624.002 112.128C624.002 114.432 625.554 116.192 627.858 116.192C629.266 116.192 630.098 115.616 630.69 114.848L629.89 114.112C629.378 114.8 628.722 115.12 627.922 115.12C626.274 115.12 625.25 113.84 625.25 112.128C625.25 110.416 626.274 109.152 627.922 109.152C628.722 109.152 629.378 109.456 629.89 110.16L630.69 109.424C630.098 108.656 629.266 108.08 627.858 108.08C625.554 108.08 624.002 109.84 624.002 112.128ZM635.748 116.192C638.1 116.192 639.572 114.368 639.572 112.128C639.572 109.888 638.1 108.08 635.748 108.08C633.396 108.08 631.924 109.888 631.924 112.128C631.924 114.368 633.396 116.192 635.748 116.192ZM635.748 115.12C634.1 115.12 633.172 113.712 633.172 112.128C633.172 110.56 634.1 109.152 635.748 109.152C637.396 109.152 638.308 110.56 638.308 112.128C638.308 113.712 637.396 115.12 635.748 115.12ZM650.856 116H652.056V110.416C652.056 108.864 651.304 108.08 649.896 108.08C648.776 108.08 647.736 108.816 647.304 109.52C647.08 108.72 646.408 108.08 645.224 108.08C644.088 108.08 643.048 108.896 642.728 109.392V108.272H641.528V116H642.728V110.352C643.144 109.728 643.976 109.152 644.76 109.152C645.768 109.152 646.184 109.776 646.184 110.752V116H647.384V110.336C647.784 109.728 648.632 109.152 649.432 109.152C650.424 109.152 650.856 109.776 650.856 110.752V116Z" fill="#686868"/>
<path d="M574.859 79.0192C575.012 78.8965 575.238 79.0112 575.238 79.2052V87.3C575.238 88.349 574.398 89.2 573.363 89.2H557.113C556.078 89.2 555.238 88.349 555.238 87.3V79.2092C555.238 79.0113 555.461 78.9004 555.617 79.0231C556.492 79.7119 557.652 80.5867 561.637 83.5198C562.461 84.1294 563.852 85.4119 565.238 85.404C566.633 85.4158 568.051 84.1056 568.844 83.5198C572.828 80.5867 573.984 79.7079 574.859 79.0192ZM565.238 84.1333C566.145 84.1492 567.449 82.9775 568.105 82.4946C573.289 78.6827 573.684 78.3502 574.879 77.4002C575.105 77.2221 575.238 76.945 575.238 76.6521V75.9C575.238 74.851 574.398 74 573.363 74H557.113C556.078 74 555.238 74.851 555.238 75.9V76.6521C555.238 76.945 555.371 77.2181 555.598 77.4002C556.793 78.3462 557.188 78.6827 562.371 82.4946C563.027 82.9775 564.332 84.1492 565.238 84.1333Z" fill="#16346F"/>
<path d="M79.0511 116H80.3791V105.328H79.2111L76.5391 108.08L77.3391 108.896L79.0511 107.088V116ZM82.489 116H89.817V114.816H84.585C87.561 112.464 89.769 110.48 89.769 108.304C89.769 106.176 87.961 105.168 86.185 105.168C84.681 105.168 83.289 105.776 82.473 106.848L83.289 107.696C83.913 106.896 84.905 106.352 86.185 106.352C87.289 106.352 88.409 106.944 88.409 108.304C88.409 110.144 86.329 111.92 82.489 114.944V116ZM91.4953 114.432C92.1513 115.392 93.4793 116.192 95.2873 116.192C97.6393 116.192 99.0633 114.896 99.0633 113.12C99.0633 111.408 97.5753 110.576 96.5993 110.496C97.6073 110.32 98.9033 109.552 98.9033 108.016C98.9033 106.208 97.3353 105.168 95.2873 105.168C93.6393 105.168 92.4073 105.888 91.6393 106.816L92.3753 107.648C93.1593 106.8 94.0233 106.352 95.1913 106.352C96.4873 106.352 97.5753 106.992 97.5753 108.176C97.5753 109.408 96.4393 109.936 95.0953 109.936C94.6633 109.936 94.1673 109.936 93.9913 109.92V111.136C94.1513 111.12 94.6473 111.12 95.0953 111.12C96.6633 111.12 97.7513 111.68 97.7513 113.008C97.7513 114.24 96.8073 115.008 95.2552 115.008C93.9913 115.008 92.9033 114.432 92.2793 113.6L91.4953 114.432ZM114.431 116H115.759V105.328H113.855L110.527 113.456L107.215 105.328H105.311V116H106.639V107.12L110.255 116H110.799L114.431 107.12V116ZM123.032 116H124.232V110.688C124.232 108.816 122.872 108.08 121.24 108.08C119.976 108.08 118.984 108.496 118.152 109.36L118.712 110.192C119.4 109.456 120.152 109.12 121.08 109.12C122.2 109.12 123.032 109.712 123.032 110.752V112.144C122.408 111.424 121.528 111.088 120.472 111.088C119.16 111.088 117.768 111.904 117.768 113.632C117.768 115.312 119.16 116.192 120.472 116.192C121.512 116.192 122.392 115.824 123.032 115.12V116ZM123.032 114.368C122.568 115.008 121.752 115.328 120.904 115.328C119.784 115.328 119 114.624 119 113.648C119 112.656 119.784 111.952 120.904 111.952C121.752 111.952 122.568 112.272 123.032 112.912V114.368ZM127.23 106.976C127.678 106.976 128.046 106.608 128.046 106.16C128.046 105.712 127.678 105.36 127.23 105.36C126.798 105.36 126.43 105.712 126.43 106.16C126.43 106.608 126.798 106.976 127.23 106.976ZM126.638 116H127.838V108.272H126.638V116ZM135.447 116H136.647V110.576C136.647 108.896 135.799 108.08 134.183 108.08C133.031 108.08 131.975 108.752 131.431 109.392V108.272H130.231V116H131.431V110.352C131.879 109.728 132.775 109.152 133.719 109.152C134.759 109.152 135.447 109.584 135.447 110.944V116ZM142.577 114.496C143.457 115.488 144.817 116.192 146.673 116.192C149.553 116.192 150.609 114.608 150.609 113.056C150.609 110.816 148.625 110.272 146.881 109.808C145.521 109.44 144.289 109.12 144.289 108.048C144.289 107.04 145.201 106.352 146.481 106.352C147.649 106.352 148.769 106.752 149.569 107.632L150.369 106.656C149.473 105.712 148.209 105.168 146.577 105.168C144.481 105.168 142.913 106.368 142.913 108.128C142.913 110.224 144.817 110.704 146.529 111.152C147.937 111.536 149.233 111.888 149.233 113.168C149.233 113.984 148.625 115.008 146.721 115.008C145.217 115.008 144.065 114.272 143.361 113.488L142.577 114.496ZM154.23 116.192C154.934 116.192 155.366 115.984 155.67 115.696L155.318 114.8C155.158 114.976 154.838 115.12 154.502 115.12C153.974 115.12 153.718 114.704 153.718 114.128V109.328H155.286V108.272H153.718V106.16H152.518V108.272H151.238V109.328H152.518V114.384C152.518 115.536 153.094 116.192 154.23 116.192ZM156.981 116H158.181V110.528C158.533 109.904 159.541 109.296 160.277 109.296C160.469 109.296 160.613 109.312 160.757 109.344V108.112C159.701 108.112 158.805 108.704 158.181 109.52V108.272H156.981V116ZM161.815 112.128C161.815 114.544 163.463 116.192 165.751 116.192C167.015 116.192 168.055 115.776 168.823 115.008L168.247 114.224C167.639 114.848 166.743 115.2 165.863 115.2C164.199 115.2 163.174 113.984 163.079 112.528H169.335V112.224C169.335 109.904 167.959 108.08 165.623 108.08C163.414 108.08 161.815 109.888 161.815 112.128ZM165.607 109.072C167.367 109.072 168.135 110.496 168.151 111.648H163.079C163.143 110.464 163.959 109.072 165.607 109.072ZM170.83 112.128C170.83 114.544 172.478 116.192 174.766 116.192C176.03 116.192 177.07 115.776 177.838 115.008L177.262 114.224C176.654 114.848 175.758 115.2 174.878 115.2C173.214 115.2 172.19 113.984 172.094 112.528H178.35V112.224C178.35 109.904 176.974 108.08 174.638 108.08C172.43 108.08 170.83 109.888 170.83 112.128ZM174.622 109.072C176.382 109.072 177.15 110.496 177.166 111.648H172.094C172.158 110.464 172.974 109.072 174.622 109.072ZM182.246 116.192C182.95 116.192 183.382 115.984 183.686 115.696L183.334 114.8C183.174 114.976 182.854 115.12 182.518 115.12C181.99 115.12 181.734 114.704 181.734 114.128V109.328H183.302V108.272H181.734V106.16H180.534V108.272H179.254V109.328H180.534V114.384C180.534 115.536 181.11 116.192 182.246 116.192ZM69.3339 138H70.8059L66.5019 127.328H64.8539L60.5659 138H62.0379L62.9819 135.632H68.3899L69.3339 138ZM65.6859 128.512L67.9899 134.448H63.3659L65.6859 128.512ZM77.3691 138H78.5691V132.576C78.5691 130.896 77.7211 130.08 76.1051 130.08C74.9531 130.08 73.8971 130.752 73.3531 131.392V130.272H72.1531V138H73.3531V132.352C73.8011 131.728 74.6971 131.152 75.6411 131.152C76.6811 131.152 77.3691 131.584 77.3691 132.944V138ZM80.7256 139.936L80.5336 141.024C80.7576 141.088 81.1576 141.136 81.4136 141.136C82.4376 141.12 83.2216 140.688 83.6856 139.568L87.5576 130.272H86.2456L83.6856 136.608L81.1096 130.272H79.8136L83.0456 138.08L82.5336 139.248C82.2616 139.888 81.9096 140.064 81.3816 140.064C81.1896 140.064 80.9016 140.016 80.7256 139.936ZM90.7614 138.192C91.4654 138.192 91.8974 137.984 92.2014 137.696L91.8494 136.8C91.6894 136.976 91.3694 137.12 91.0334 137.12C90.5054 137.12 90.2494 136.704 90.2494 136.128V131.328H91.8174V130.272H90.2494V128.16H89.0494V130.272H87.7694V131.328H89.0494V136.384C89.0494 137.536 89.6254 138.192 90.7614 138.192ZM96.8885 138.192C99.2405 138.192 100.713 136.368 100.713 134.128C100.713 131.888 99.2405 130.08 96.8885 130.08C94.5365 130.08 93.0645 131.888 93.0645 134.128C93.0645 136.368 94.5365 138.192 96.8885 138.192ZM96.8885 137.12C95.2405 137.12 94.3125 135.712 94.3125 134.128C94.3125 132.56 95.2405 131.152 96.8885 131.152C98.5365 131.152 99.4485 132.56 99.4485 134.128C99.4485 135.712 98.5365 137.12 96.8885 137.12ZM109.357 138H110.557L113.021 130.272H111.773L109.885 136.432L107.853 130.272H106.829L104.797 136.432L102.909 130.272H101.661L104.125 138H105.325L107.341 131.792L109.357 138ZM119.635 138H120.835V132.576C120.835 130.896 119.987 130.08 118.371 130.08C117.219 130.08 116.163 130.752 115.619 131.392V130.272H114.419V138H115.619V132.352C116.067 131.728 116.963 131.152 117.907 131.152C118.947 131.152 119.635 131.584 119.635 132.944V138ZM123.535 140.032C124.271 139.504 124.847 138.592 124.847 137.616C124.847 136.848 124.367 136.4 123.839 136.4C123.359 136.4 122.991 136.8 122.991 137.264C122.991 137.744 123.311 138.08 123.759 138.08C123.839 138.08 123.951 138.064 123.983 138.048C123.919 138.576 123.455 139.2 122.943 139.536L123.535 140.032ZM130.66 132.672C130.66 135.984 133.108 138.208 136.148 138.208C137.892 138.208 139.348 137.472 140.34 136.368V132.512H135.348V133.696H139.012V135.872C138.484 136.4 137.428 137.024 136.148 137.024C133.812 137.024 132.036 135.2 132.036 132.672C132.036 130.128 133.812 128.336 136.148 128.336C137.428 128.336 138.564 128.944 139.236 129.808L140.292 129.152C139.348 127.984 138.036 127.152 136.148 127.152C133.108 127.152 130.66 129.36 130.66 132.672ZM150.115 138H151.587L147.283 127.328H145.635L141.347 138H142.819L143.763 135.632H149.171L150.115 138ZM146.467 128.512L148.771 134.448H144.147L146.467 128.512ZM156.323 136.432C156.979 137.392 158.307 138.192 160.115 138.192C162.467 138.192 163.891 136.896 163.891 135.12C163.891 133.408 162.403 132.576 161.427 132.496C162.435 132.32 163.731 131.552 163.731 130.016C163.731 128.208 162.163 127.168 160.115 127.168C158.467 127.168 157.235 127.888 156.467 128.816L157.203 129.648C157.987 128.8 158.851 128.352 160.019 128.352C161.315 128.352 162.403 128.992 162.403 130.176C162.403 131.408 161.267 131.936 159.923 131.936C159.491 131.936 158.995 131.936 158.819 131.92V133.136C158.979 133.12 159.475 133.12 159.923 133.12C161.491 133.12 162.579 133.68 162.579 135.008C162.579 136.24 161.635 137.008 160.083 137.008C158.819 137.008 157.731 136.432 157.107 135.6L156.323 136.432ZM165.582 132.672C165.582 135.264 166.734 138.192 169.662 138.192C172.574 138.192 173.742 135.264 173.742 132.672C173.742 130.064 172.574 127.168 169.662 127.168C166.734 127.168 165.582 130.064 165.582 132.672ZM172.382 132.672C172.382 134.8 171.694 137.008 169.662 137.008C167.63 137.008 166.942 134.8 166.942 132.672C166.942 130.544 167.63 128.352 169.662 128.352C171.694 128.352 172.382 130.544 172.382 132.672ZM175.379 132.672C175.379 135.264 176.531 138.192 179.459 138.192C182.371 138.192 183.539 135.264 183.539 132.672C183.539 130.064 182.371 127.168 179.459 127.168C176.531 127.168 175.379 130.064 175.379 132.672ZM182.179 132.672C182.179 134.8 181.491 137.008 179.459 137.008C177.427 137.008 176.739 134.8 176.739 132.672C176.739 130.544 177.427 128.352 179.459 128.352C181.491 128.352 182.179 130.544 182.179 132.672ZM185.175 132.672C185.175 135.264 186.327 138.192 189.255 138.192C192.167 138.192 193.335 135.264 193.335 132.672C193.335 130.064 192.167 127.168 189.255 127.168C186.327 127.168 185.175 130.064 185.175 132.672ZM191.975 132.672C191.975 134.8 191.287 137.008 189.255 137.008C187.223 137.008 186.535 134.8 186.535 132.672C186.535 130.544 187.223 128.352 189.255 128.352C191.287 128.352 191.975 130.544 191.975 132.672ZM197.004 138H198.332V127.328H197.164L194.492 130.08L195.292 130.896L197.004 129.088V138Z" fill="#686868"/>
<g clip-path="url(#clip0_490_191)">
<path d="M128.836 91.5965C123.07 83.3684 122 82.5238 122 79.5C122 75.3578 125.411 72 129.619 72C133.827 72 137.238 75.3578 137.238 79.5C137.238 82.5238 136.168 83.3684 130.402 91.5965C130.024 92.1344 129.214 92.1344 128.836 91.5965ZM129.619 82.625C131.372 82.625 132.794 81.2258 132.794 79.5C132.794 77.7742 131.372 76.375 129.619 76.375C127.866 76.375 126.444 77.7742 126.444 79.5C126.444 81.2258 127.866 82.625 129.619 82.625Z" fill="#16346F"/>
</g>
<path d="M312.96 119.184L313.68 118.624C312.656 116.608 312.016 114.768 312.016 112.112C312.016 109.44 312.656 107.616 313.68 105.584L312.96 105.04C311.52 107.024 310.704 109.536 310.704 112.112C310.704 114.688 311.52 117.216 312.96 119.184ZM316.817 116H318.145V105.328H316.977L314.305 108.08L315.105 108.896L316.817 107.088V116ZM322.239 116H323.567V105.328H322.399L319.727 108.08L320.527 108.896L322.239 107.088V116ZM327.661 116H328.989V105.328H327.821L325.149 108.08L325.949 108.896L327.661 107.088V116ZM332.186 112.112C332.186 114.768 331.546 116.608 330.506 118.624L331.226 119.184C332.682 117.216 333.498 114.688 333.498 112.112C333.498 109.536 332.682 107.024 331.226 105.04L330.506 105.584C331.546 107.616 332.186 109.44 332.186 112.112ZM341.176 116H342.504V105.328H341.336L338.664 108.08L339.464 108.896L341.176 107.088V116ZM346.598 116H347.926V105.328H346.758L344.086 108.08L344.886 108.896L346.598 107.088V116ZM352.02 116H353.348V105.328H352.18L349.508 108.08L350.308 108.896L352.02 107.088V116ZM355.074 112.656H358.914V111.6H355.074V112.656ZM362.239 116H363.567V105.328H362.399L359.727 108.08L360.527 108.896L362.239 107.088V116ZM367.661 116H368.989V105.328H367.821L365.149 108.08L365.949 108.896L367.661 107.088V116ZM373.082 116H374.41V105.328H373.242L370.57 108.08L371.37 108.896L373.082 107.088V116ZM378.504 116H379.832V105.328H378.664L375.992 108.08L376.792 108.896L378.504 107.088V116Z" fill="#686868"/>
<path d="M354.584 73.8652L350.928 73.0215C350.531 72.9301 350.123 73.1375 349.961 73.5101L348.274 77.4476C348.126 77.7921 348.225 78.1964 348.517 78.4319L350.647 80.1756C349.381 82.872 347.17 85.115 344.417 86.4052L342.674 84.2748C342.435 83.983 342.034 83.8845 341.689 84.0322L337.752 85.7196C337.376 85.8849 337.168 86.2927 337.26 86.6899L338.103 90.3461C338.191 90.7258 338.529 91 338.926 91C347.929 91 355.238 83.7052 355.238 74.6878C355.238 74.2941 354.968 73.9531 354.584 73.8652Z" fill="#16346F"/>
<defs>
<filter id="filter0_ddd_490_191" x="0" y="0" width="928" height="198" filterUnits="userSpaceOnUse" color-interpolation-filters="sRGB">
<feFlood flood-opacity="0" result="BackgroundImageFix"/>
<feColorMatrix in="SourceAlpha" type="matrix" values="0 0 0 0 0 0 0 0 0 0 0 0 0 0 0 0 0 0 127 0" result="hardAlpha"/>
<feOffset/>
<feGaussianBlur stdDeviation="0.5"/>
<feColorMatrix type="matrix" values="0 0 0 0 0 0 0 0 0 0 0 0 0 0 0 0 0 0 0.04 0"/>
<feBlend mode="normal" in2="BackgroundImageFix" result="effect1_dropShadow_490_191"/>
<feColorMatrix in="SourceAlpha" type="matrix" values="0 0 0 0 0 0 0 0 0 0 0 0 0 0 0 0 0 0 127 0" result="hardAlpha"/>
<feOffset dy="2"/>
<feGaussianBlur stdDeviation="3"/>
<feColorMatrix type="matrix" values="0 0 0 0 0 0 0 0 0 0 0 0 0 0 0 0 0 0 0.04 0"/>
<feBlend mode="normal" in2="effect1_dropShadow_490_191" result="effect2_dropShadow_490_191"/>
<feColorMatrix in="SourceAlpha" type="matrix" values="0 0 0 0 0 0 0 0 0 0 0 0 0 0 0 0 0 0 127 0" result="hardAlpha"/>
<feOffset dy="10"/>
<feGaussianBlur stdDeviation="10"/>
<feColorMatrix type="matrix" values="0 0 0 0 0 0 0 0 0 0 0 0 0 0 0 0 0 0 0.04 0"/>
<feBlend mode="normal" in2="effect2_dropShadow_490_191" result="effect3_dropShadow_490_191"/>
<feBlend mode="normal" in="SourceGraphic" in2="effect3_dropShadow_490_191" result="shape"/>
</filter>
<clipPath id="clip0_490_191">
<rect width="15.2381" height="20" fill="white" transform="translate(122 72)"/>
</clipPath>
</defs>
</svg>
