<svg width="214" height="68" viewBox="0 0 214 68" fill="none" xmlns="http://www.w3.org/2000/svg">
<rect width="214" height="68" fill="#EAEAEA"/>
<path d="M39.1029 39H41.3749V34.632L45.4549 28.328H42.8629L40.2389 32.616L37.5829 28.328H34.9909L39.1029 34.632V39ZM45.8468 33.672C45.8468 36.888 48.1988 39.192 51.4148 39.192C54.6468 39.192 56.9988 36.888 56.9988 33.672C56.9988 30.456 54.6468 28.152 51.4148 28.152C48.1988 28.152 45.8468 30.456 45.8468 33.672ZM54.6628 33.672C54.6628 35.656 53.3828 37.176 51.4148 37.176C49.4468 37.176 48.1828 35.656 48.1828 33.672C48.1828 31.672 49.4468 30.168 51.4148 30.168C53.3828 30.168 54.6628 31.672 54.6628 33.672ZM59.1532 34.744C59.1532 37.368 60.6732 39.192 63.9372 39.192C67.1692 39.192 68.6892 37.384 68.6892 34.728V28.328H66.3852V34.664C66.3852 36.152 65.5692 37.176 63.9372 37.176C62.2732 37.176 61.4572 36.152 61.4572 34.664V28.328H59.1532V34.744ZM77.3858 39H79.9938L77.5938 34.936C78.7458 34.664 79.9298 33.656 79.9298 31.768C79.9298 29.784 78.5698 28.328 76.3458 28.328H71.3538V39H73.6258V35.176H75.2898L77.3858 39ZM77.6098 31.752C77.6098 32.648 76.9218 33.224 76.0098 33.224H73.6258V30.28H76.0098C76.9218 30.28 77.6098 30.856 77.6098 31.752ZM86.8488 39H93.6328V37H89.1208V28.328H86.8488V39ZM94.8343 33.672C94.8343 36.888 97.1863 39.192 100.402 39.192C103.634 39.192 105.986 36.888 105.986 33.672C105.986 30.456 103.634 28.152 100.402 28.152C97.1863 28.152 94.8343 30.456 94.8343 33.672ZM103.65 33.672C103.65 35.656 102.37 37.176 100.402 37.176C98.4343 37.176 97.1703 35.656 97.1703 33.672C97.1703 31.672 98.4343 30.168 100.402 30.168C102.37 30.168 103.65 31.672 103.65 33.672ZM107.629 33.672C107.629 37.032 110.189 39.208 113.309 39.208C115.245 39.208 116.765 38.408 117.853 37.192V33.112H112.765V35.064H115.613V36.36C115.149 36.776 114.285 37.176 113.309 37.176C111.373 37.176 109.965 35.688 109.965 33.672C109.965 31.656 111.373 30.168 113.309 30.168C114.429 30.168 115.341 30.76 115.837 31.512L117.725 30.488C116.909 29.224 115.517 28.152 113.309 28.152C110.189 28.152 107.629 30.296 107.629 33.672ZM119.704 33.672C119.704 36.888 122.056 39.192 125.272 39.192C128.504 39.192 130.856 36.888 130.856 33.672C130.856 30.456 128.504 28.152 125.272 28.152C122.056 28.152 119.704 30.456 119.704 33.672ZM128.52 33.672C128.52 35.656 127.24 37.176 125.272 37.176C123.304 37.176 122.04 35.656 122.04 33.672C122.04 31.672 123.304 30.168 125.272 30.168C127.24 30.168 128.52 31.672 128.52 33.672ZM144.976 39H147.264V28.328H144.976V32.52H139.936V28.328H137.664V39H139.936V34.52H144.976V39ZM149.928 39H157.48V37.032H152.2V34.552H157.368V32.6H152.2V30.28H157.48V28.328H149.928V39ZM165.848 39H168.456L166.056 34.936C167.208 34.664 168.392 33.656 168.392 31.768C168.392 29.784 167.032 28.328 164.808 28.328H159.816V39H162.088V35.176H163.752L165.848 39ZM166.072 31.752C166.072 32.648 165.384 33.224 164.472 33.224H162.088V30.28H164.472C165.384 30.28 166.072 30.856 166.072 31.752ZM170.657 39H178.209V37.032H172.929V34.552H178.097V32.6H172.929V30.28H178.209V28.328H170.657V39Z" fill="#686868"/>
</svg>
