<svg xmlns="http://www.w3.org/2000/svg" xmlns:xlink="http://www.w3.org/1999/xlink" viewBox="0 0 95.24 95.25"><defs><style>.cls-1{fill:#ffca66;}.cls-2{fill:#2484c6;}.cls-3{fill:#565656;fill-rule:evenodd;}.cls-4{fill:#383838;}.cls-5{fill:url(#linear-gradient);}.cls-6{fill:#fff;}.cls-7{fill:url(#linear-gradient-2);}.cls-8{fill:url(#linear-gradient-3);}</style><linearGradient id="linear-gradient" x1="2.44" y1="48.13" x2="51.62" y2="48.13" gradientUnits="userSpaceOnUse"><stop offset="0" stop-color="#d1d3d4"/><stop offset="1" stop-color="#fff"/></linearGradient><linearGradient id="linear-gradient-2" x1="53.72" y1="47.7" x2="92.28" y2="47.7" xlink:href="#linear-gradient"/><linearGradient id="linear-gradient-3" x1="48.03" y1="65.45" x2="48.03" y2="30.12" xlink:href="#linear-gradient"/></defs><title>mahc-icon-colorAsset 2</title><g id="Layer_2" data-name="Layer 2"><g id="Layer_1-2" data-name="Layer 1"><polygon class="cls-1" points="95.24 23.04 72.21 23.04 72.21 0 23.04 0 23.04 23.04 0 23.04 0 72.21 23.04 72.21 23.04 95.25 72.21 95.25 72.21 72.21 95.24 72.21 95.24 23.04"/><path class="cls-2" d="M86.73,25.83a3.35,3.35,0,0,1-2.92,2.27h-.07a8.6,8.6,0,0,0,.89-1.59c-9.92.79-19.88.94-29.7,2.81q-10.29,2.41-20.57,4.83c-.79.18-1.62.33-2.46.47a8,8,0,0,1-1.16-.46,5,5,0,0,1-.52.72c-7.39,1-15.91,1.2-19.17,5.26a13.58,13.58,0,0,1-3.43-1c-.06.09-.11.19-.17.29A42.7,42.7,0,0,1,7.67,48,121.79,121.79,0,0,0,8.72,70.37a3.24,3.24,0,0,0,1,.18H10A7.92,7.92,0,0,1,12.15,67c5.7-.9,11-4,16.92-3.63,0,.28,0,.62-.11.82a11.56,11.56,0,0,1-1,1.21l11.63-4.19a126.19,126.19,0,0,1,20.29-4.81c.23.1.46.19.68.31.1-.15.21-.3.31-.46.72-.1,1.42-.23,2.14-.31,3.75-1.89,7.79-2.5,10.17-6.82a48.6,48.6,0,0,1,5.91-8.55c.3-.33.61-.63.91-1a4.17,4.17,0,0,1-.12-1.75,3.41,3.41,0,0,1,1.37-.3,3.35,3.35,0,0,1,1.16.21s.07,0,.26-.07.45-.07.68-.11l.15-.6c.55-2.15,1.12-4.38,2.16-5.75a15.23,15.23,0,0,0,2.09-3.43,3.35,3.35,0,0,0-.4-3.25,3.23,3.23,0,0,0-.53-.58A3.35,3.35,0,0,1,86.73,25.83Z"/><path class="cls-3" d="M30.87,58.32l.32.07-.2.18h-.26A1.23,1.23,0,0,1,30.87,58.32Z"/><path class="cls-4" d="M34.36,67.25l.23-3,3.34-.52c.94-.15,1.17-2.81,1-10.93l-.52-18.91L27.56,66.05H21.82l-10-31.4h-.06l-.88,17.91c-.52,10.17-.39,11.07.51,11.15l3.61.53.23,3H1.28l.23-3,3.34-.52c.91-.14,1.62-.25,2.16-11.19l.84-16.28A3.13,3.13,0,0,0,5.6,32.72l-3.43-.65L1.94,29H19l8.29,26.25L35.75,29H52.37l-.23,3.09-4,.39c-.88,0-1.11,1-1.11,1.44l.48,18.84c.22,9,.78,10.8,1.73,10.95l3.35.52.23,3Z"/><path class="cls-4" d="M34.75,66.89l.18-2.34L38,64.07c1.14-.18,1.5-2,1.26-11.29l-.54-19.45h-.54L27.3,65.69H22.08l-10-31.4h-.66l-.9,18.25C10,63.11,10.07,64,11.33,64.07l3.3.48.18,2.34H1.66l.18-2.34,3.07-.48c1.2-.18,1.92-.54,2.46-11.53l.84-16.27a3.5,3.5,0,0,0-2.52-3.9l-3.19-.6-.18-2.4H18.78l8.34,26.42h.42L36,29.37H52l-.18,2.4-3.72.36a1.65,1.65,0,0,0-1.44,1.8l.48,18.85c.24,9.85.9,11.11,2,11.29l3.06.48.18,2.34Z"/><path class="cls-5" d="M35.53,66.17l.07-1,2.5-.4c1.81-.28,2.12-2.3,1.87-12l-.56-20.16H37.65L26.78,65H22.6l-10-31.4H10.71L9.77,52.51c-.55,10.71-.54,12.09,1.49,12.28l2.7.39.08,1H2.44l.08-1,2.5-.4c1.88-.28,2.53-1.29,3.07-12.2l.84-16.27a4.2,4.2,0,0,0-3.06-4.64l-2.69-.51L3.1,30.09H18.25l8.34,26.42h1.48l8.46-26.42H51.2l-.07,1-3.12.3a2.36,2.36,0,0,0-2.09,2.52L46.4,52.8c.24,9.93.87,11.7,2.65,12l2.5.4.07,1Z"/><path class="cls-6" d="M35.53,66.17l.07-1,2.5-.4c1.81-.28,2.12-2.3,1.87-12l-.56-20.16H37.65L26.78,65H22.6l-10-31.4H10.71L9.77,52.51c-.55,10.71-.54,12.09,1.49,12.28l2.7.39.08,1H2.44l.08-1,2.5-.4c1.88-.28,2.53-1.29,3.07-12.2l.84-16.27a4.2,4.2,0,0,0-3.06-4.64l-2.69-.51L3.1,30.09H18.25l8.34,26.42h1.48l8.46-26.42H51.2l-.07,1-3.12.3a2.36,2.36,0,0,0-2.09,2.52L46.4,52.8c.24,9.93.87,11.7,2.65,12l2.5.4.07,1Z"/><path class="cls-4" d="M74.35,67.25l.23-3.13,2.63-.4c.83-.12,1.26-.32,1.46-.64.42-.68,0-2.31-1-5.26l-1-3H64.92L64.22,57c-1.08,3.2-1.32,5-.78,6a1.72,1.72,0,0,0,1.28.78l2.25.41.23,3.12H52.56l.23-3.11,1.75-.42c2.37-.64,3.17-.86,7-11.36l7-19.39V30.24l8-2.34L88,61.55a3.16,3.16,0,0,0,2.62,2l2.6.6.23,3.11ZM75.51,51.1,70.94,36.69h0L66.06,51.1Z"/><path class="cls-4" d="M74.74,66.89l.18-2.46,2.34-.36c2.46-.36,2.41-1.44.72-6.36L76.9,54.4H64.65l-.78,2.47c-1.62,4.8-1.44,6.78.78,7.2l2,.36.18,2.46H53l.18-2.46,1.5-.36c2.64-.72,3.48-1.26,7.26-11.59l7-19.45V30.51l7.38-2.16L87.65,61.67a3.52,3.52,0,0,0,2.88,2.22l2.34.54.18,2.46ZM71.2,36.33h-.54L65.55,51.46H76Z"/><path class="cls-7" d="M75.52,66.17l.08-1.11,1.77-.28a2.89,2.89,0,0,0,2.22-1.14c.68-1.11.22-2.82-.92-6.17l-1.24-3.79H64.13l-.94,3c-1.22,3.6-1.42,5.58-.69,6.84a2.81,2.81,0,0,0,2,1.29L66,65,66,66.17H53.72L53.81,65l1-.24c3.12-.85,4.06-1.9,7.77-12l7.07-19.57V31.05l6.2-1.82L87,61.9a4.25,4.25,0,0,0,3.42,2.7l1.8.41.09,1.16Zm-11-14H77L71.73,35.61H70.14Z"/><path class="cls-6" d="M75.52,66.17l.08-1.11,1.77-.28a2.89,2.89,0,0,0,2.22-1.14c.68-1.11.22-2.82-.92-6.17l-1.24-3.79H64.13l-.94,3c-1.22,3.6-1.42,5.58-.69,6.84a2.81,2.81,0,0,0,2,1.29L66,65,66,66.17H53.72L53.81,65l1-.24c3.12-.85,4.06-1.9,7.77-12l7.07-19.57V31.05l6.2-1.82L87,61.9a4.25,4.25,0,0,0,3.42,2.7l1.8.41.09,1.16Zm-11-14H77L71.73,35.61H70.14Z"/><path class="cls-8" d="M38.42,65.45c2.27-.5,2.52-3.16,2.27-12.7l-.58-20.86h-3L26.27,64.25H23.13l-10-31.4H10l-1,19.62c-.52,10.3-.64,12.56,1.76,13H5.36C7.77,65,8.3,62.86,8.81,52.61l.84-16.26A5,5,0,0,0,6.05,31l-.89-.16H17.72l8.35,26.41h2.52l8.47-26.41H47.3a3.2,3.2,0,0,0-2.1,3.12l.48,18.89c.23,9.63.81,12.15,3,12.63Zm52.48,0-.66-.15a5,5,0,0,1-3.95-3.16l-10.91-32-5,1.47v1.69l-.58,1.61h2.47L78,52.9H63.55l3.93-11.66L63.24,53C59.61,62.91,58.59,64.47,55,65.45h9.2a3.46,3.46,0,0,1-2.35-1.6c-.86-1.47-.68-3.55.62-7.42L63.6,53H78l1.4,4.27c1.11,3.26,1.74,5.32.86,6.78a3.41,3.41,0,0,1-2.47,1.43Z"/></g></g></svg>