<svg xmlns="http://www.w3.org/2000/svg" xmlns:xlink="http://www.w3.org/1999/xlink" viewBox="0 0 552.46 95.25"><defs><style>.cls-1{fill:#808285;}.cls-2{fill:#ffca66;}.cls-3{fill:#2484c6;}.cls-4{fill:#565656;fill-rule:evenodd;}.cls-5{fill:#383838;}.cls-6{fill:url(#linear-gradient);}.cls-7{fill:#fff;}.cls-8{fill:url(#linear-gradient-2);}.cls-9{fill:url(#linear-gradient-3);}</style><linearGradient id="linear-gradient" x1="214.77" y1="48.13" x2="263.95" y2="48.13" gradientUnits="userSpaceOnUse"><stop offset="0" stop-color="#d1d3d4"/><stop offset="1" stop-color="#fff"/></linearGradient><linearGradient id="linear-gradient-2" x1="266.05" y1="47.7" x2="304.61" y2="47.7" xlink:href="#linear-gradient"/><linearGradient id="linear-gradient-3" x1="260.36" y1="65.45" x2="260.36" y2="30.12" xlink:href="#linear-gradient"/></defs><title>mahc-horizontal-colorAsset 1</title><g id="Layer_2" data-name="Layer 2"><g id="Layer_1-2" data-name="Layer 1"><path class="cls-1" d="M365.36,69.56h1.15v7.67h-1.15Z"/><path class="cls-1" d="M375,73.54c0-.64-.29-1.07-1-1.07a1.85,1.85,0,0,0-1.38.79v4h-1v-3.7c0-.64-.28-1.07-1-1.07a1.81,1.81,0,0,0-1.36.8v4h-1v-5.6h1v.78a2.4,2.4,0,0,1,1.79-.94,1.4,1.4,0,0,1,1.51,1,2.34,2.34,0,0,1,1.89-1A1.45,1.45,0,0,1,376,73.2v4h-1Z"/><path class="cls-1" d="M384.38,73.54c0-.64-.29-1.07-1-1.07a1.79,1.79,0,0,0-1.38.79v4h-1v-3.7c0-.64-.28-1.07-1-1.07a1.84,1.84,0,0,0-1.36.8v4h-1v-5.6h1v.78a2.4,2.4,0,0,1,1.79-.94,1.4,1.4,0,0,1,1.51,1,2.34,2.34,0,0,1,1.89-1,1.46,1.46,0,0,1,1.58,1.67v4h-1Z"/><path class="cls-1" d="M389.46,71.55a2.74,2.74,0,0,1,2.72,2.75,2.11,2.11,0,0,1,0,.25v.25h-4.39a1.82,1.82,0,0,0,1.89,1.73,2.34,2.34,0,0,0,1.64-.66l.48.68a3.1,3.1,0,0,1-2.23.83,2.92,2.92,0,0,1-.09-5.83Zm-1.7,2.5h3.39a1.63,1.63,0,0,0-1.63-1.65h-.06A1.7,1.7,0,0,0,387.76,74.05Z"/><path class="cls-1" d="M397.46,76.45a2.27,2.27,0,0,1-1.81.94c-1.45,0-2.49-1.09-2.49-2.91s1-2.92,2.49-2.92a2.24,2.24,0,0,1,1.81,1v-3h1v7.67h-1Zm0-3.17a1.91,1.91,0,0,0-1.54-.81,1.78,1.78,0,0,0-1.68,2c0,1.16.65,2,1.68,2a1.86,1.86,0,0,0,1.54-.81Z"/><path class="cls-1" d="M400,70.1a.67.67,0,0,1,.67-.66.66.66,0,0,1,.66.66h0a.66.66,0,0,1-.66.66h0A.67.67,0,0,1,400,70.1Zm.16,1.59h1v5.55h-1Z"/><path class="cls-1" d="M406.23,76.65a2.37,2.37,0,0,1-1.81.75,1.85,1.85,0,0,1-2-1.73v-.11a1.78,1.78,0,0,1,1.74-1.82h.26a2.32,2.32,0,0,1,1.81.73v-.91c0-.69-.56-1.11-1.35-1.11a2.27,2.27,0,0,0-1.67.74l-.47-.71a3.09,3.09,0,0,1,2.28-.91c1.2,0,2.22.53,2.22,1.94v3.75h-1Zm0-1.55a1.69,1.69,0,0,0-1.42-.63,1.11,1.11,0,1,0-.32,2.2.86.86,0,0,0,.32,0,1.69,1.69,0,0,0,1.42-.63Z"/><path class="cls-1" d="M409.13,76V72.59h-.89v-.9h.91V70.17h1v1.52h1.13v.9h-1.13v3.19c0,.39.18.68.54.68a.72.72,0,0,0,.56-.22l.27.78a1.45,1.45,0,0,1-1.08.36,1.22,1.22,0,0,1-1.35-1A1,1,0,0,1,409.13,76Z"/><path class="cls-1" d="M414.88,71.55a2.74,2.74,0,0,1,2.72,2.75,2.11,2.11,0,0,1,0,.25v.25h-4.39a1.82,1.82,0,0,0,1.89,1.73,2.38,2.38,0,0,0,1.64-.66l.47.68a3.09,3.09,0,0,1-2.22.83,2.92,2.92,0,0,1-.1-5.83Zm-1.7,2.5h3.39a1.65,1.65,0,0,0-1.64-1.65h-.05A1.69,1.69,0,0,0,413.18,74.05Z"/><path class="cls-1" d="M419.11,75.27a3.22,3.22,0,0,0,2.41,1.09c1.25,0,1.68-.64,1.68-1.19,0-.8-.87-1-1.85-1.29-1.23-.32-2.65-.68-2.65-2.24,0-1.26,1.11-2.18,2.71-2.18a3.72,3.72,0,0,1,2.79,1.07l-.67.85a3,3,0,0,0-2.22-.9c-.85,0-1.41.44-1.41,1.08s.82.91,1.78,1.15c1.25.33,2.71.72,2.71,2.36,0,1.2-.83,2.32-2.9,2.32a4,4,0,0,1-3-1.22Z"/><path class="cls-1" d="M429.08,76.65a2.39,2.39,0,0,1-1.82.75,1.86,1.86,0,0,1-1.92-1.76v-.08a1.78,1.78,0,0,1,1.74-1.82h.18a2.31,2.31,0,0,1,1.82.73v-.91c0-.69-.56-1.11-1.35-1.11a2.27,2.27,0,0,0-1.67.74l-.47-.71a3.15,3.15,0,0,1,2.28-.91c1.2,0,2.23.53,2.23,1.94v3.75h-1Zm0-1.55a1.69,1.69,0,0,0-1.41-.63,1.11,1.11,0,0,0-.33,2.2h0a.91.91,0,0,0,.33,0,1.72,1.72,0,0,0,1.41-.63Z"/><path class="cls-1" d="M431,71.69h1.1L433.8,76l1.73-4.35h1.12l-2.29,5.55h-1.12Z"/><path class="cls-1" d="M437.32,70.1a.67.67,0,0,1,.68-.66h0a.65.65,0,0,1,.67.65h0a.66.66,0,0,1-.66.66h0a.68.68,0,0,1-.69-.65Zm.16,1.59h1v5.55h-1Z"/><path class="cls-1" d="M443.91,73.69c0-.92-.47-1.22-1.19-1.22a2,2,0,0,0-1.52.8v4h-1V71.69h1v.78a2.63,2.63,0,0,1,2-.94A1.59,1.59,0,0,1,445,72.89a1.55,1.55,0,0,1,0,.43v3.9h-1Z"/><path class="cls-1" d="M447,77.91a2.16,2.16,0,0,0,1.78.73,1.52,1.52,0,0,0,1.71-1.33,1,1,0,0,0,0-.25v-.73a2.34,2.34,0,0,1-1.83,1c-1.41,0-2.47-1.06-2.47-2.88s1-2.86,2.47-2.86a2.24,2.24,0,0,1,1.83.94v-.79h1V77c0,1.89-1.4,2.47-2.76,2.47a3,3,0,0,1-2.28-.82Zm3.5-4.63a2,2,0,0,0-1.54-.81,1.71,1.71,0,0,0-1.69,1.75,1.21,1.21,0,0,0,0,.19,1.74,1.74,0,0,0,1.46,2l.22,0a2,2,0,0,0,1.54-.83Z"/><path class="cls-1" d="M453.23,75.76a2.72,2.72,0,0,0,1.86.79c.78,0,1.2-.32,1.2-.79s-.63-.74-1.35-.9c-.94-.22-2-.47-2-1.67,0-.88.76-1.64,2.11-1.64a3,3,0,0,1,2.12.79l-.48.73a2.12,2.12,0,0,0-1.62-.67c-.7,0-1.14.27-1.14.72s.6.64,1.29.8c.94.22,2.11.47,2.11,1.76,0,.95-.78,1.7-2.24,1.7a3.15,3.15,0,0,1-2.31-.86Z"/><path class="cls-1" d="M458.46,78.33a1.79,1.79,0,0,0,.78-1.07h-.17a.64.64,0,0,1-.63-.62h0a.7.7,0,0,1,.68-.7h0a.83.83,0,0,1,.8.88h0a2.32,2.32,0,0,1-1,1.85Z"/><path class="cls-1" d="M461.54,75.27A3.26,3.26,0,0,0,464,76.36c1.23,0,1.67-.64,1.67-1.19,0-.8-.87-1-1.85-1.29-1.23-.32-2.66-.68-2.66-2.24,0-1.26,1.12-2.18,2.72-2.18a3.72,3.72,0,0,1,2.79,1.07l-.67.85a3,3,0,0,0-2.21-.9c-.85,0-1.42.44-1.42,1.08s.83.91,1.78,1.15c1.25.33,2.71.72,2.71,2.36,0,1.2-.82,2.32-2.89,2.32a4,4,0,0,1-3-1.22Z"/><path class="cls-1" d="M468,70.1a.67.67,0,0,1,1.34,0h0a.67.67,0,0,1-1.34,0Zm.17,1.59h1v5.55h-1Z"/><path class="cls-1" d="M477.54,73.54c0-.64-.29-1.07-1-1.07a1.85,1.85,0,0,0-1.38.79v4h-1v-3.7c0-.64-.27-1.07-1-1.07a1.84,1.84,0,0,0-1.36.8v4h-1v-5.6h1v.78a2.42,2.42,0,0,1,1.8-.94,1.41,1.41,0,0,1,1.5,1,2.34,2.34,0,0,1,1.89-1,1.45,1.45,0,0,1,1.59,1.29,1.2,1.2,0,0,1,0,.38v4h-1Z"/><path class="cls-1" d="M480.21,79.36V71.69h1v.79a2.27,2.27,0,0,1,1.82-1c1.45,0,2.47,1.1,2.47,2.91s-1,2.92-2.47,2.92a2.24,2.24,0,0,1-1.82-.94v2.92Zm2.58-6.89a1.92,1.92,0,0,0-1.54.81v2.37a1.94,1.94,0,0,0,1.54.81,1.78,1.78,0,0,0,1.67-2c0-1.16-.63-2-1.67-2Z"/><path class="cls-1" d="M486.85,69.56h1v7.67h-1Z"/><path class="cls-1" d="M492,71.55a2.74,2.74,0,0,1,2.72,2.75,2.11,2.11,0,0,1,0,.25v.25h-4.39a1.82,1.82,0,0,0,1.89,1.73,2.35,2.35,0,0,0,1.65-.66l.47.68a3.1,3.1,0,0,1-2.23.83,2.92,2.92,0,0,1-.09-5.83Zm-1.7,2.5h3.39A1.64,1.64,0,0,0,492,72.4H492A1.7,1.7,0,0,0,490.26,74.05Z"/><path class="cls-1" d="M496,69.56h5.14v1h-4V72.8H501v1h-3.91v2.39h4v1H496Z"/><path class="cls-1" d="M506.3,73.69c0-.92-.48-1.22-1.19-1.22a2,2,0,0,0-1.53.8v4h-1V71.69h1v.78a2.66,2.66,0,0,1,2-.94,1.59,1.59,0,0,1,1.78,1.37,1.48,1.48,0,0,1,0,.42v3.9h-1Z"/><path class="cls-1" d="M509,71.69h1v.85a2.33,2.33,0,0,1,1.81-1v1a1,1,0,0,0-.35,0,2,2,0,0,0-1.46.81v3.86h-1Z"/><path class="cls-1" d="M512.51,74.46a2.81,2.81,0,0,1,5.61-.23v.23a2.81,2.81,0,1,1-5.6.47c0-.09,0-.17,0-.26Zm4.53,0a1.74,1.74,0,0,0-3.45-.46,1.77,1.77,0,0,0,0,.46,1.74,1.74,0,0,0,3.45.46A1.77,1.77,0,0,0,517,74.46Z"/><path class="cls-1" d="M519.46,69.56h1v7.67h-1Z"/><path class="cls-1" d="M522.11,69.56h1v7.67h-1Z"/><path class="cls-1" d="M531.53,73.54c0-.64-.28-1.07-.94-1.07a1.79,1.79,0,0,0-1.38.79v4h-1v-3.7c0-.64-.27-1.07-1-1.07a1.84,1.84,0,0,0-1.36.8v4h-1v-5.6h1v.78a2.4,2.4,0,0,1,1.79-.94,1.43,1.43,0,0,1,1.51,1,2.34,2.34,0,0,1,1.89-1,1.45,1.45,0,0,1,1.57,1.67v4h-1Z"/><path class="cls-1" d="M536.65,71.55a2.74,2.74,0,0,1,2.72,2.75,2.11,2.11,0,0,1,0,.25v.25H535a1.82,1.82,0,0,0,1.89,1.73,2.39,2.39,0,0,0,1.65-.66l.47.68a3.1,3.1,0,0,1-2.23.83,2.92,2.92,0,0,1-.09-5.83Zm-1.7,2.5h3.39a1.63,1.63,0,0,0-1.63-1.65h-.06A1.69,1.69,0,0,0,535,74.05Z"/><path class="cls-1" d="M544.39,73.69c0-.92-.47-1.22-1.18-1.22a2,2,0,0,0-1.53.8v4h-1V71.69h1v.78a2.66,2.66,0,0,1,2-.94,1.59,1.59,0,0,1,1.78,1.37,1.48,1.48,0,0,1,0,.42v3.9h-1Z"/><path class="cls-1" d="M547.28,76V72.59h-.92v-.9h.92V70.17h1v1.52h1.18v.9h-1.13v3.19c0,.39.19.68.55.68a.82.82,0,0,0,.56-.22l.26.78a1.45,1.45,0,0,1-1.08.36,1.22,1.22,0,0,1-1.33-1.07A1.08,1.08,0,0,1,547.28,76Z"/><polygon class="cls-2" points="307.57 23.04 284.54 23.04 284.54 0 235.37 0 235.37 23.04 212.33 23.04 212.33 72.21 235.37 72.21 235.37 95.25 284.54 95.25 284.54 72.21 307.57 72.21 307.57 23.04"/><path class="cls-3" d="M299.06,25.83a3.35,3.35,0,0,1-2.92,2.27h-.08a8.13,8.13,0,0,0,.9-1.59c-9.92.79-19.88.94-29.7,2.81Q257,31.74,246.69,34.15c-.79.18-1.62.33-2.46.47a7.19,7.19,0,0,1-1.16-.46,6,6,0,0,1-.52.72c-7.39,1-15.91,1.2-19.17,5.26a13.58,13.58,0,0,1-3.43-1c-.06.09-.11.19-.17.29A42,42,0,0,1,220,48a122.68,122.68,0,0,0,1.06,22.37,3.23,3.23,0,0,0,1,.18h.21A7.92,7.92,0,0,1,224.48,67c5.7-.9,11-4,16.92-3.63a2.09,2.09,0,0,1-.11.82,11.56,11.56,0,0,1-1,1.21l11.63-4.19a126.19,126.19,0,0,1,20.29-4.81c.23.1.46.19.68.31.1-.15.21-.3.31-.46.72-.1,1.42-.23,2.14-.31,3.75-1.89,7.79-2.5,10.16-6.82a49.19,49.19,0,0,1,5.92-8.55c.3-.33.61-.63.91-1a4,4,0,0,1-.12-1.75,3.37,3.37,0,0,1,1.36-.3,3.4,3.4,0,0,1,1.17.21s.07,0,.26-.07.45-.07.68-.11l.15-.6c.55-2.15,1.12-4.38,2.16-5.75a15.23,15.23,0,0,0,2.09-3.43,3.35,3.35,0,0,0-.4-3.25,3.23,3.23,0,0,0-.53-.58A3.35,3.35,0,0,1,299.06,25.83Z"/><path class="cls-4" d="M243.2,58.32l.32.07-.2.18h-.26A1.23,1.23,0,0,1,243.2,58.32Z"/><path class="cls-5" d="M246.69,67.25l.23-3,3.34-.52c.94-.15,1.17-2.81,1-10.93l-.53-18.91-10.8,32.17h-5.75l-10-31.4h-.06l-.88,17.91c-.52,10.17-.39,11.07.51,11.15l3.61.53.23,3H213.6l.23-3,3.35-.52c.9-.14,1.62-.25,2.16-11.19l.84-16.28a3.14,3.14,0,0,0-2.26-3.53l-3.43-.65L214.26,29h17.11l8.29,26.25L248.07,29H264.7l-.24,3.09-4,.39c-.89,0-1.12,1-1.12,1.44l.48,18.84c.22,9,.78,10.8,1.74,10.95l3.35.52.23,3Z"/><path class="cls-5" d="M247.08,66.89l.18-2.34,3.06-.48c1.14-.18,1.5-2,1.26-11.29L251,33.33h-.54L239.63,65.69h-5.22l-10-31.4h-.66l-.9,18.25c-.54,10.57-.42,11.41.84,11.53l3.3.48.18,2.34H214l.18-2.34,3.06-.48c1.21-.18,1.93-.54,2.47-11.53l.84-16.27a3.5,3.5,0,0,0-2.53-3.9l-3.18-.6-.18-2.4H231.1l8.35,26.42h.42l8.47-26.42h16l-.18,2.4-3.72.36a1.65,1.65,0,0,0-1.45,1.8l.48,18.85c.25,9.85.91,11.11,2.05,11.29l3.06.48.18,2.34Z"/><path class="cls-6" d="M247.85,66.17l.08-1,2.5-.4c1.81-.28,2.12-2.3,1.87-12l-.56-20.16H250L239.11,65h-4.18l-10-31.4H223l-.93,18.94c-.55,10.71-.54,12.09,1.49,12.28l2.7.39.07,1H214.77l.08-1,2.5-.4c1.87-.28,2.53-1.29,3.07-12.2l.84-16.27a4.21,4.21,0,0,0-3.06-4.64l-2.69-.51-.08-1.07h15.15l8.34,26.42h1.48l8.46-26.42h14.67l-.07,1-3.12.3a2.36,2.36,0,0,0-2.1,2.52l.49,18.87c.24,9.93.87,11.7,2.64,12l2.5.4.08,1Z"/><path class="cls-7" d="M247.85,66.17l.08-1,2.5-.4c1.81-.28,2.12-2.3,1.87-12l-.56-20.16H250L239.11,65h-4.18l-10-31.4H223l-.93,18.94c-.55,10.71-.54,12.09,1.49,12.28l2.7.39.07,1H214.77l.08-1,2.5-.4c1.87-.28,2.53-1.29,3.07-12.2l.84-16.27a4.21,4.21,0,0,0-3.06-4.64l-2.69-.51-.08-1.07h15.15l8.34,26.42h1.48l8.46-26.42h14.67l-.07,1-3.12.3a2.36,2.36,0,0,0-2.1,2.52l.49,18.87c.24,9.93.87,11.7,2.64,12l2.5.4.08,1Z"/><path class="cls-5" d="M286.68,67.25l.23-3.13,2.63-.4c.82-.12,1.26-.32,1.46-.64.41-.68,0-2.31-1-5.26l-1-3H277.25L276.54,57c-1.08,3.2-1.32,5-.78,6a1.74,1.74,0,0,0,1.29.78l2.25.41.23,3.12H264.89l.22-3.11,1.76-.42c2.37-.64,3.17-.86,7-11.36l7-19.39V30.24l8-2.34,11.46,33.65a3.15,3.15,0,0,0,2.61,2l2.61.6.23,3.11Zm1.16-16.15-4.58-14.41h0L278.38,51.1Z"/><path class="cls-5" d="M287.07,66.89l.18-2.46,2.34-.36c2.46-.36,2.4-1.44.72-6.36l-1.08-3.31H277l-.78,2.47c-1.62,4.8-1.44,6.78.78,7.2l2,.36.18,2.46H265.27l.18-2.46,1.51-.36c2.64-.72,3.48-1.26,7.26-11.59l7-19.45V30.51l7.38-2.16L300,61.67a3.52,3.52,0,0,0,2.88,2.22l2.34.54.18,2.46Zm-3.54-30.56H283l-5.11,15.13h10.45Z"/><path class="cls-8" d="M287.84,66.17l.09-1.11,1.77-.28a2.9,2.9,0,0,0,2.22-1.14c.68-1.11.22-2.82-.93-6.17l-1.24-3.79H276.46l-.95,3c-1.21,3.6-1.41,5.58-.68,6.84a2.81,2.81,0,0,0,2,1.29l1.44.26.08,1.13H266.05l.08-1.16,1-.24c3.13-.85,4.06-1.9,7.78-12L282,33.16V31.05l6.21-1.82L299.3,61.9a4.25,4.25,0,0,0,3.41,2.7l1.81.41.09,1.16Zm-11-14h12.43l-5.26-16.57h-1.58Z"/><path class="cls-7" d="M287.84,66.17l.09-1.11,1.77-.28a2.9,2.9,0,0,0,2.22-1.14c.68-1.11.22-2.82-.93-6.17l-1.24-3.79H276.46l-.95,3c-1.21,3.6-1.41,5.58-.68,6.84a2.81,2.81,0,0,0,2,1.29l1.44.26.08,1.13H266.05l.08-1.16,1-.24c3.13-.85,4.06-1.9,7.78-12L282,33.16V31.05l6.21-1.82L299.3,61.9a4.25,4.25,0,0,0,3.41,2.7l1.81.41.09,1.16Zm-11-14h12.43l-5.26-16.57h-1.58Z"/><path class="cls-9" d="M250.75,65.45c2.27-.5,2.51-3.16,2.27-12.7l-.58-20.86h-3L238.6,64.25h-3.14l-10-31.4h-3.08l-1,19.62c-.53,10.3-.64,12.56,1.76,13h-5.45c2.41-.47,2.94-2.59,3.44-12.84L222,36.35a5,5,0,0,0-3.6-5.38l-.89-.16h12.56l8.34,26.41h2.53l8.47-26.41h10.24a3.19,3.19,0,0,0-2.11,3.12L258,52.82c.23,9.63.81,12.15,3,12.63Zm52.48,0-.66-.15a5,5,0,0,1-3.95-3.16l-10.91-32-5,1.47v1.69l-.58,1.61h2.48l5.72,18H275.88l3.93-11.66L275.57,53c-3.63,9.93-4.65,11.49-8.21,12.47h9.2a3.46,3.46,0,0,1-2.35-1.6c-.86-1.47-.69-3.55.62-7.42l1.1-3.46h14.35l1.39,4.27c1.12,3.26,1.75,5.32.86,6.78a3.38,3.38,0,0,1-2.46,1.43Z"/><path class="cls-5" d="M22.35,62.74l-2.28-.43a20.34,20.34,0,0,1-6.22,1C6,63.33,0,58.88,0,50.74S6.1,37.59,14,37.59a19.35,19.35,0,0,1,5.67.87L23,37.75v8.38H20.74L19.4,40.78A10.07,10.07,0,0,0,14,39.36c-5.59,0-9,4.53-9,10.83C5,57,8.3,61.64,14.32,61.64a10.18,10.18,0,0,0,4.61-1.1l1.85-5.63h2.4Z"/><path class="cls-5" d="M37.07,62.74l.12-1.46.86-.11c1.14-.08,1.34-.36,1.34-.75v-8c0-3.9-1.22-5-3.5-5A6.9,6.9,0,0,0,32,49V60.46c0,.39.24.63,1.5.71l1.22.11.12,1.46H25.58l.11-1.46,1-.11c.94-.08,1.34-.28,1.34-.75v-20a1.18,1.18,0,0,0-.56-1.15l-2.36-1,.12-1.06L32,35.31v12h.2c2.08-1.69,4.25-2.87,6.37-2.87a4.74,4.74,0,0,1,3.31,1.3,6.14,6.14,0,0,1,1.49,4.49V60.42c0,.35.2.59,1.62.75l.9.11L46,62.74Z"/><path class="cls-5" d="M59.81,63.41c-1.53,0-2.75-.95-2.87-3.11h-.2c-1.41,1.69-3,3-5,3a4.66,4.66,0,0,1-4.8-4.6c0-3.27,3.19-5.16,10-6.81v-.36c0-3.85-1.46-5.07-3.86-5.07-1.3,0-2.79.51-2.79.82s.94.91.94,2.09a2.08,2.08,0,0,1-2.2,2,2,2,0,0,1-2.21-2c0-2.13,4.49-5,8.11-5,4.45,0,6.18,1.85,5.94,8l-.27,6.57c-.08,1.1.23,1.62.9,1.62a3.6,3.6,0,0,0,1.89-.95l.67.95C62.84,62.15,61.31,63.41,59.81,63.41Zm-3-10.11c-4.92,1.25-6.06,2.79-6.06,4.44a2.66,2.66,0,0,0,2.71,2.76,4.8,4.8,0,0,0,3.19-1.58Z"/><path class="cls-5" d="M86.53,62.74l.12-1.46.9-.11c1.14-.08,1.34-.36,1.34-.75v-8c0-3.9-1.49-5-3.5-5a6,6,0,0,0-3.62,1.57,9.23,9.23,0,0,1,0,1.11V60.42c0,.35.19.59,1.61.75l.87.11.11,1.46H75.51l.16-1.46.86-.11c1.14-.08,1.34-.36,1.34-.75v-8c0-3.9-1.49-5-3.5-5A6.31,6.31,0,0,0,70.79,49V60.46c0,.39.23.63,1.49.71l1.11.11.11,1.46H64.37l.12-1.46,1-.11c.94-.08,1.33-.28,1.33-.75V50.74c0-2.48-.31-2.84-1.69-3.23l-.87-.2,0-1.14,6.46-1.77v2.87h.12c2-1.73,4-2.87,6.1-2.87a4.7,4.7,0,0,1,3.3,1.3,4.9,4.9,0,0,1,1.1,1.81h.16c2.13-2,4.33-3.11,6.45-3.11a4.72,4.72,0,0,1,3.31,1.3,6.14,6.14,0,0,1,1.5,4.49V60.42c0,.35.19.59,1.61.75l.9.11.12,1.46Z"/><path class="cls-5" d="M105.42,63.33a16.55,16.55,0,0,1-4.65-.94h0l-2.12,1.18H98.1V40.47a1.12,1.12,0,0,0-.56-1.15l-2.28-1,.12-1.06L102,35.31V47.63h.2a7.7,7.7,0,0,1,5.62-3c4.33,0,7.09,3.77,7.09,8.5C114.94,58.41,111.44,63.33,105.42,63.33Zm.51-15.58a5.15,5.15,0,0,0-3.9,1.89v9.6c1.22,1.37,2.56,2.4,4.25,2.4,2.32,0,4.41-2.64,4.41-6.89S108.72,47.75,105.93,47.75Z"/><path class="cls-5" d="M124.81,63.33c-4.64,0-8.06-3.74-8.06-8.85,0-5.83,4.09-10.08,9.36-10.08,3.78,0,6.42,2.32,6.42,6a10.3,10.3,0,0,1-.24,2.17l-11.45-.16v.43c0,4.41,2.44,7.36,5.82,7.36a6.36,6.36,0,0,0,4.88-2.28l.83.47A7.88,7.88,0,0,1,124.81,63.33ZM125.33,46c-2,0-4,1.77-4.41,5.11l7.47,0C128.55,47.9,127.29,46,125.33,46Z"/><path class="cls-5" d="M146.65,49.28a2.62,2.62,0,0,1-2.24-1.42,10.7,10.7,0,0,0-3.66,3.9v8.7c0,.39.24.63,1.49.71l1.42.11.12,1.46h-9.45l.12-1.46,1-.11c.94-.08,1.33-.28,1.33-.75V50.74c0-2.48-.31-2.84-1.69-3.23l-.86-.2,0-1.14,6.45-1.77v5h.2c2-3.27,3.34-5,5.31-5a2.37,2.37,0,0,1,2.56,2.52A2.14,2.14,0,0,1,146.65,49.28Z"/><path class="cls-5" d="M155.82,63.33a16.9,16.9,0,0,1-5.71-.9l-.19-5.2h2.32l.94,3.5a5.69,5.69,0,0,0,3,1c1.73,0,3.54-1.14,3.54-2.95s-2.12-2.52-4.36-3.35c-2.76-1.06-5.36-2.2-5.36-5.67,0-2.83,2.41-5.39,6.66-5.39a12,12,0,0,1,4.09.67l1.45-.51.24,5.75h-2.2l-1-3.39a5.26,5.26,0,0,0-2.87-.86c-1.73,0-3,1-3,2.47,0,1.78,1.49,2.37,4.17,3.39s5.51,2.24,5.51,5.67C163.1,60.65,160.5,63.33,155.82,63.33Z"/><path class="cls-5" d="M178.6,63.37c-7.59,0-13-5.16-13-12.67a13,13,0,0,1,13.18-13.07c7.56,0,13,5.16,13,12.67A13,13,0,0,1,178.6,63.37Zm0-24.08c-4.4,0-8,3.85-8,10.94,0,7.28,3.77,11.49,8.22,11.49s8-3.82,8-10.94S183,39.29,178.56,39.29Z"/><path class="cls-5" d="M206.7,40.23c-1.26,0-2.36-.91-2.84-2.91l0-.16-1.14-.08c-1.61,1-2.55,3.07-2.55,6.57v1.46h5.39l-.28,2.16h-5.11V60.46c0,.39.23.63,1.49.71l1.89.11.12,1.46h-9.88l.12-1.46,1-.11c1-.08,1.34-.28,1.34-.75v-13L193,47.2l.24-2.09H196l0-.87c.32-5.39,4.33-8.93,8.74-8.93,2.16,0,4,1.18,4,2.8A2,2,0,0,1,206.7,40.23Z"/><path class="cls-5" d="M327.44,62.74l.12-1.46,1.5-.19c1.06-.08,1.37-.32,1.37-.71V51.05H319v9.37c0,.39.28.55,1.42.67l1.49.19.12,1.46H311.54l.12-1.46,1.54-.19c1-.12,1.37-.36,1.37-.71V40.47c0-.36-.23-.52-1.45-.67l-1.46-.2-.12-1.46h10.51l-.12,1.46-1.53.2c-1.07.12-1.38.35-1.38.71v8.77h11.41V40.47c0-.4-.27-.55-1.41-.67l-1.46-.2-.12-1.46h10.47l-.12,1.46-1.53.2c-1,.12-1.38.35-1.38.71V60.42c0,.35.24.51,1.46.67l1.45.19.12,1.46Z"/><path class="cls-5" d="M348,63.33c-4.64,0-8.07-3.74-8.07-8.85,0-5.83,4.1-10.08,9.37-10.08,3.78,0,6.41,2.32,6.41,6a11,11,0,0,1-.23,2.17L344,52.43v.43c0,4.41,2.44,7.36,5.82,7.36a6.38,6.38,0,0,0,4.88-2.28l.83.47A7.89,7.89,0,0,1,348,63.33ZM348.49,46c-2,0-4,1.77-4.41,5.11l7.48,0C351.72,47.9,350.46,46,348.49,46Z"/><path class="cls-5" d="M370.61,63.41c-1.54,0-2.76-.95-2.88-3.11h-.19c-1.42,1.69-3,3-5,3a4.65,4.65,0,0,1-4.8-4.6c0-3.27,3.18-5.16,10-6.81v-.36c0-3.85-1.45-5.07-3.85-5.07-1.3,0-2.8.51-2.8.82s.95.91.95,2.09a2.09,2.09,0,0,1-2.21,2,2,2,0,0,1-2.2-2c0-2.13,4.49-5,8.11-5,4.44,0,6.17,1.85,5.94,8l-.28,6.57c-.08,1.1.24,1.62.91,1.62a3.67,3.67,0,0,0,1.89-.95l.67.95C373.64,62.15,372.1,63.41,370.61,63.41Zm-3-10.11c-4.91,1.25-6.06,2.79-6.06,4.44a2.66,2.66,0,0,0,2.72,2.76,4.84,4.84,0,0,0,3.19-1.58Z"/><path class="cls-5" d="M375.17,62.74l.12-1.46,1-.11c.94-.08,1.34-.28,1.34-.75v-20a1.13,1.13,0,0,0-.55-1.15l-2.32-1,.11-1.06,6.69-1.93V60.46c0,.39.24.63,1.5.71l1,.11.12,1.46Z"/><path class="cls-5" d="M392.37,63.33c-2.84,0-4.92-1.69-4.85-5.67l.24-10.23-3.11-.23,0-1.3L390,41.25l1.58.24,0,3.62H398l-.27,2.16h-6.14l-.24,9.29c-.08,2.95,1.3,3.9,3.31,3.9a7.46,7.46,0,0,0,3.3-.91l.16,1.06A8,8,0,0,1,392.37,63.33Z"/><path class="cls-5" d="M410.15,62.74l.12-1.46.86-.11c1.15-.08,1.34-.36,1.34-.75v-8c0-3.9-1.22-5-3.5-5A6.9,6.9,0,0,0,405,49V60.46c0,.39.24.63,1.5.71l1.22.11.12,1.46h-9.21l.12-1.46,1-.11c.95-.08,1.34-.28,1.34-.75v-20a1.2,1.2,0,0,0-.55-1.15l-2.36-1,.11-1.06L405,35.31v12h.2c2.09-1.69,4.25-2.87,6.38-2.87a4.7,4.7,0,0,1,3.3,1.3,6.14,6.14,0,0,1,1.5,4.49V60.42c0,.35.19.59,1.61.75l.91.11.11,1.46Z"/><path class="cls-5" d="M442.77,62.74l-2.28-.43a20.34,20.34,0,0,1-6.22,1c-7.87,0-13.85-4.45-13.85-12.59s6.1-13.15,14-13.15a19.35,19.35,0,0,1,5.67.87l3.38-.71v8.38h-2.28l-1.34-5.35a10.09,10.09,0,0,0-5.39-1.42c-5.59,0-9.05,4.53-9.05,10.83,0,6.84,3.34,11.45,9.36,11.45a10.18,10.18,0,0,0,4.61-1.1l1.85-5.63h2.4Z"/><path class="cls-5" d="M459.49,63.41c-1.53,0-2.75-.95-2.87-3.11h-.2c-1.41,1.69-2.95,3-5,3a4.65,4.65,0,0,1-4.8-4.6c0-3.27,3.18-5.16,10-6.81v-.36c0-3.85-1.45-5.07-3.86-5.07-1.29,0-2.79.51-2.79.82s.95.91.95,2.09a2.09,2.09,0,0,1-2.21,2,2,2,0,0,1-2.2-2c0-2.13,4.48-5,8.1-5,4.45,0,6.18,1.85,5.95,8l-.28,6.57c-.08,1.1.24,1.62.91,1.62a3.62,3.62,0,0,0,1.88-.95l.67.95C462.52,62.15,461,63.41,459.49,63.41ZM456.54,53.3c-4.92,1.25-6.06,2.79-6.06,4.44a2.66,2.66,0,0,0,2.72,2.76,4.8,4.8,0,0,0,3.18-1.58Z"/><path class="cls-5" d="M476.37,49.28a2.62,2.62,0,0,1-2.24-1.42,10.7,10.7,0,0,0-3.66,3.9v8.7c0,.39.24.63,1.5.71l1.41.11.12,1.46h-9.44l.11-1.46,1-.11c.94-.08,1.34-.28,1.34-.75V50.74c0-2.48-.32-2.84-1.7-3.23l-.86-.2,0-1.14,6.45-1.77v5h.2c2-3.27,3.34-5,5.31-5a2.37,2.37,0,0,1,2.56,2.52A2.14,2.14,0,0,1,476.37,49.28Z"/><path class="cls-5" d="M487.23,63.33c-4.64,0-8.06-3.74-8.06-8.85,0-5.83,4.09-10.08,9.36-10.08,3.78,0,6.42,2.32,6.42,6a10.3,10.3,0,0,1-.24,2.17l-11.45-.16v.43c0,4.41,2.44,7.36,5.82,7.36A6.36,6.36,0,0,0,494,57.94l.83.47A7.88,7.88,0,0,1,487.23,63.33ZM487.75,46c-2.05,0-4,1.77-4.41,5.11l7.47,0C491,47.9,489.71,46,487.75,46Z"/><path class="cls-5" d="M498.93,63.19A2.2,2.2,0,0,1,496.74,61a2.17,2.17,0,0,1,2.19-2.15A2.13,2.13,0,0,1,501.08,61,2.18,2.18,0,0,1,498.93,63.19Z"/><path class="cls-5" d="M508.45,63.16c-3.33,0-5.91-2.58-5.91-6.33a6.92,6.92,0,0,1,7-7.19c2.77,0,4.34,1.26,4.34,2.85a1.63,1.63,0,0,1-1.79,1.74c-1.32,0-2.07-1.51-1.74-3V51.2a2.32,2.32,0,0,0-1.15-.28c-1.76,0-3.19,1.57-3.19,4.6s1.6,5.26,3.92,5.26A4.64,4.64,0,0,0,513.46,59l.62.33A5.67,5.67,0,0,1,508.45,63.16Z"/><path class="cls-5" d="M521.58,63.16c-4.06,0-6.47-3-6.47-6.66a6.88,6.88,0,0,1,7.06-6.86,6.22,6.22,0,0,1,6.41,6.55A6.86,6.86,0,0,1,521.58,63.16Zm2-11.4a2.39,2.39,0,0,0-1.84-.81c-1.77,0-3,1.79-3,4.79,0,2.41.31,4.37,1.29,5.38a2.78,2.78,0,0,0,1.9.75c1.74,0,3-1.87,3-4.79C524.94,54.73,524.52,52.69,523.62,51.76Z"/><path class="cls-5" d="M545.8,62.74l.08-1.09.54-.09c.81-.05,1-.25,1-.53V55.54c0-2.77-1-3.44-2.41-3.44a3.88,3.88,0,0,0-2.3.92v8c0,.25.14.42,1.15.53l.53.09.09,1.09h-6.61l.08-1.09.54-.09c.81-.05.95-.25.95-.53V55.54c0-2.77-1-3.44-2.41-3.44a4.19,4.19,0,0,0-2.3.87v8.09c0,.28.17.45,1.07.5l.67.09.08,1.09h-6.8l.08-1.09.68-.09c.67-.05.95-.19.95-.53V54.31c0-1.76-.23-2-1.21-2.27l-.56-.16,0-.87,5-1.37v2h.11a7.19,7.19,0,0,1,4.46-2,3.41,3.41,0,0,1,2.38,1,3.59,3.59,0,0,1,.78,1.29h.11a7,7,0,0,1,4.71-2.24,3.41,3.41,0,0,1,2.38,1,4.4,4.4,0,0,1,1,3.25V61c0,.25.14.42,1.15.53l.59.09.08,1.09Z"/></g></g></svg>