<svg xmlns="http://www.w3.org/2000/svg" viewBox="0 0 260.49 201.19"><defs><style>.cls-1{fill:#ff3145;}</style></defs><title>rns-icon-colorAsset 3</title><g id="Layer_2" data-name="Layer 2"><g id="Layer_1-2" data-name="Layer 1"><path class="cls-1" d="M107.39,114.64v34.81a9.93,9.93,0,0,0,9.82,9.94h1a9.92,9.92,0,0,0,9.82-9.94V120.69c-3.24-.85-6.44-1.76-9.68-2.7Q112.77,116.37,107.39,114.64Z" transform="translate(0)"/><path class="cls-1" d="M138.31,191.25a9.92,9.92,0,0,0,9.81,9.94h1a9.93,9.93,0,0,0,9.82-9.94V127.68c-6.74-1.24-13.63-2.7-20.61-4.38Z" transform="translate(0)"/><path class="cls-1" d="M76.81,163.82a9.92,9.92,0,0,0,9.82,10h1a9.93,9.93,0,0,0,9.82-10V111.31c-7.15-2.49-14-5.11-20.61-7.83Z" transform="translate(0)"/><path class="cls-1" d="M169.05,147.29a9.93,9.93,0,0,0,9.82,9.94h1a9.92,9.92,0,0,0,9.81-9.94V131.9c-6.56-.57-13.46-1.41-20.61-2.51Z" transform="translate(0)"/><path class="cls-1" d="M196.81,63.08v8.77c26.18,14.41,41.62,30.39,38.11,42.42-5.59,19.16-57,21-114.8,4.16S20,72.37,25.57,53.21c3.05-10.44,19.75-15.75,43.6-15.68V28.8c-37.4-3-64.44,2.8-68.61,17.11C-6,68.5,46.7,103.74,118.32,124.64s135,19.51,141.62-3.07C264.69,105.28,238.53,82.41,196.81,63.08Z" transform="translate(0)"/><path class="cls-1" d="M128,114V45.43a9.71,9.71,0,0,0-9.82-9.7h-1a9.72,9.72,0,0,0-9.82,9.7v62.36c4.16,1.39,8.4,2.73,12.73,4C122.76,112.55,125.43,113.28,128,114Z" transform="translate(0)"/><path class="cls-1" d="M87.6,0h-1a9.71,9.71,0,0,0-9.82,9.69V95.63c6.4,3,13.3,5.9,20.61,8.62V9.69A9.71,9.71,0,0,0,87.6,0Z" transform="translate(0)"/><path class="cls-1" d="M179.85,43.88h-1a9.71,9.71,0,0,0-9.82,9.69V121.9c7.32.84,14.21,1.3,20.61,1.39V53.57A9.71,9.71,0,0,0,179.85,43.88Z" transform="translate(0)"/><path class="cls-1" d="M149.1,66.48h-1a9.71,9.71,0,0,0-9.81,9.69v40.36c7.06,1.62,14,3,20.61,4V76.17A9.71,9.71,0,0,0,149.1,66.48Z" transform="translate(0)"/><rect class="cls-1" x="138.31" y="33.95" width="20.61" height="25.93" rx="9.82"/><rect class="cls-1" x="169.05" y="163.92" width="20.61" height="25.93" rx="9.82"/></g></g></svg>