<svg xmlns="http://www.w3.org/2000/svg" viewBox="0 0 1319.01 201.19"><defs><style>.cls-1{fill:#ff3145;}</style></defs><title>rns-logo-no-textAsset 1</title><g id="Layer_2" data-name="Layer 2"><g id="Layer_1-2" data-name="Layer 1"><path class="cls-1" d="M284.38,63.57H326c17.11,0,31.64,7.85,31.64,25,0,9.61-4.92,16.41-13.71,20.4v.35c6.8,2.58,10.31,7.26,11.72,13.83,2.23,10.08.35,22.15,3.4,23v1.29H334.9c-2.35-1.64-1.41-12-3.17-19.46-1.52-6.44-4.34-9.72-11.48-9.72H308.88v29.18h-24.5Zm24.5,37.15H322c7,0,10.9-3,10.9-8.9,0-5.51-3.51-9-10.54-9H308.88Z"/><path class="cls-1" d="M364.9,63.57h22.15V80.33H364.9Zm0,24h22.15v59.77H364.9Z"/><path class="cls-1" d="M393.72,148.42h21.33c.83,2.46,3.64,5,8.91,5,7.15,0,9.61-4.22,9.61-10.43V137.6h-.47A19,19,0,0,1,418,144.4c-13.6,0-25.44-9.5-25.44-28.25,0-17.11,9.73-30.47,24.38-30.47,8.44,0,13.59,3.28,17,8.44h.36V87.6h21.09v52.62c0,9.61-3.51,17-8.79,21.45-5.51,4.68-13.36,6.56-22.27,6.56C407.55,168.23,395.83,161.67,393.72,148.42Zm40.79-33.16c0-7.51-3.75-13.48-10.2-13.48-6.21,0-10.19,5.39-10.19,13.48s4,13.71,10.19,13.71c6.45,0,10.2-5.86,10.2-13.71Z"/><path class="cls-1" d="M485.49,94.39h.35c4.46-5.15,9.85-8.67,18.17-8.67,13.83,0,21,9.26,21,23V147.4H502.83V114.08c0-6.21-2.57-10.31-8.32-10.31s-9,4.92-9,11.37v32.23H463.34V63.57h22.15Z"/><path class="cls-1" d="M528.15,87.6h7.73V68.26h21.69V87.6h11.36V101H557.57v24.26c0,6,4.22,6.09,11.13,5.62v16.29a45.5,45.5,0,0,1-10.9,1.41c-14.53,0-21.92-4.1-21.92-18.4V101h-7.73Z"/><path class="cls-1" d="M599.17,63.57h24.5l27.42,47.11h.23V63.57H675v83.8H649.68L623.08,99.9h-.23v47.47H599.17Z"/><path class="cls-1" d="M681.56,117.6c0-18.17,12.89-31.76,32.81-31.76S747,99.43,747,117.6s-12.66,31.64-32.59,31.64S681.56,135.77,681.56,117.6Zm42.9,0c0-10.08-3.52-16.88-10.32-16.88s-10.08,6.8-10.08,16.88,3.28,16.88,10.08,16.88,10.32-6.8,10.32-16.88Z"/><path class="cls-1" d="M745.31,87.6h22.86L774,109.28c1.29,4.69,2.81,12,2.81,12H777s1.52-7.38,2.81-12.42L785,87.65h18.75L809,108.81c1.28,5.16,2.81,12.66,2.81,12.66H812s1.76-7.5,2.93-12.19l5.75-21.68h22.38l-19,59.77H802.74l-6.09-24.85c-1.17-4.57-2.46-11.13-2.46-11.13H794s-1.29,6.56-2.46,11.13l-6.09,24.85h-21Z"/><path class="cls-1" d="M866.38,120.65h25.08c.82,6.68,6,9.84,14.07,9.84,4.8,0,10.66-1.87,10.66-6.91s-5.63-6.33-15.94-8.91c-14.06-3.52-31.06-8.32-31.06-26.14,0-19.22,15.71-26.48,34.58-26.48,17.34,0,33.28,7.26,33.63,25.55H913.14c-.7-4.57-4-7.51-10.66-7.51-5.39,0-9.15,2.47-9.15,5.86,0,4.93,7.15,5.63,19.7,8.68,14.06,3.4,28.12,8.91,28.12,26.72,0,18.28-16.29,28-36.1,28C883.26,149.36,866.73,140,866.38,120.65Z"/><path class="cls-1" d="M944.9,117.6c0-18.17,12.89-31.76,32.82-31.76s32.58,13.59,32.58,31.76-12.66,31.64-32.58,31.64S944.9,135.77,944.9,117.6Zm42.89,0c0-10.08-3.51-16.88-10.31-16.88s-10.08,6.8-10.08,16.88,3.28,16.88,10.08,16.88S987.79,127.68,987.79,117.6Z"/><path class="cls-1" d="M1015.8,63.57h22.74v83.8H1015.8Z"/><path class="cls-1" d="M1086.36,147.37v-7.74H1086c-4.57,6.21-10.43,9.61-18.64,9.61-14.3,0-21.33-9.37-21.33-23.09V87.6h22.15v33.28c0,6.21,2.7,9.49,8,9.49,5.74,0,9.14-4.1,9.14-10.54V87.6h22.15v59.77Z"/><path class="cls-1" d="M1112.26,87.6H1120V68.26h21.68V87.6H1153V101h-11.37v24.26c0,6,4.22,6.09,11.14,5.62v16.29a45.5,45.5,0,0,1-10.9,1.41c-14.53,0-21.92-4.1-21.92-18.4V101h-7.73Z"/><path class="cls-1" d="M1158.78,63.57h22.15V80.33h-22.15Zm0,24h22.15v59.77h-22.15Z"/><path class="cls-1" d="M1186.44,117.6c0-18.17,12.89-31.76,32.82-31.76s32.58,13.59,32.58,31.76-12.66,31.64-32.58,31.64S1186.44,135.77,1186.44,117.6Zm42.9,0c0-10.08-3.52-16.88-10.32-16.88s-10,6.8-10,16.88,3.28,16.88,10.08,16.88S1229.34,127.68,1229.34,117.6Z"/><path class="cls-1" d="M1278.44,95.8h.35c4.81-6.56,10.9-10.08,19.22-10.08,13.83,0,21,9.26,21,23V147.4h-22.15V114.08c0-6.21-2.58-10.31-8.32-10.31s-9,4.92-9,11.37v32.23h-22.16V87.6h21.1Z"/><path class="cls-1" d="M107.38,114.64v34.81a9.93,9.93,0,0,0,9.82,9.94h1a9.91,9.91,0,0,0,9.82-9.94V120.69c-3.24-.85-6.44-1.76-9.68-2.7Q112.76,116.37,107.38,114.64Z"/><path class="cls-1" d="M138.3,191.25a9.93,9.93,0,0,0,9.81,9.94h1a9.92,9.92,0,0,0,9.82-9.94V127.68c-6.74-1.24-13.63-2.7-20.61-4.38Z"/><path class="cls-1" d="M76.8,163.82a9.92,9.92,0,0,0,9.82,10h1a9.93,9.93,0,0,0,9.82-10V111.31c-7.15-2.49-14-5.11-20.61-7.83Z"/><path class="cls-1" d="M169,147.29a9.93,9.93,0,0,0,9.82,9.94h1a9.92,9.92,0,0,0,9.81-9.94V131.9c-6.56-.57-13.46-1.41-20.61-2.51Z"/><path class="cls-1" d="M196.8,63.08v8.77c26.18,14.41,41.62,30.39,38.11,42.42-5.59,19.16-57,21-114.8,4.16S20,72.37,25.56,53.21c3.05-10.44,19.75-15.75,43.6-15.68V28.8C31.76,25.8,4.72,31.6.55,45.91-6,68.5,46.69,103.74,118.31,124.64s135,19.51,141.62-3.07C264.68,105.28,238.52,82.41,196.8,63.08Z"/><path class="cls-1" d="M128,114V45.43a9.71,9.71,0,0,0-9.72-9.7h-1.1a9.72,9.72,0,0,0-9.82,9.62v62.44q6.24,2.08,12.73,4C122.75,112.55,125.42,113.28,128,114Z"/><path class="cls-1" d="M87.59,0h-1a9.71,9.71,0,0,0-9.82,9.6v86c6.4,3,13.3,5.9,20.61,8.62V9.69A9.71,9.71,0,0,0,87.65,0Z"/><path class="cls-1" d="M179.84,43.88h-1a9.71,9.71,0,0,0-9.82,9.6V121.9c7.32.84,14.21,1.3,20.61,1.39V53.57a9.71,9.71,0,0,0-9.73-9.69Z"/><path class="cls-1" d="M149.09,66.48h-1a9.72,9.72,0,0,0-9.81,9.61v40.44c7.06,1.62,14,3,20.61,4V76.17a9.71,9.71,0,0,0-9.73-9.69Z"/><rect class="cls-1" x="138.3" y="33.95" width="20.61" height="25.93" rx="9.82"/><rect class="cls-1" x="169.04" y="163.92" width="20.61" height="25.93" rx="9.82"/></g></g></svg>