<svg xmlns="http://www.w3.org/2000/svg" viewBox="0 0 106.67 114.1"><defs><style>.cls-1{fill:#f15a24;fill-rule:evenodd;}</style></defs><title>pmhc-logo-icon-colorAsset 7</title><g id="Layer_2" data-name="Layer 2"><g id="Layer_1-2" data-name="Layer 1"><path class="cls-1" d="M33.28,100H45.66a76.67,76.67,0,0,1-10.76-9.6c-3.85-4.33-7.3-9.47-8.38-15.22a.26.26,0,0,0-.07-.21,12.37,12.37,0,0,1-.27-1.69A13.75,13.75,0,0,1,26,71.55,14,14,0,0,1,40,57.62a13.64,13.64,0,0,1,5.68,1.21,13.26,13.26,0,0,1,4.6,3.32,1.15,1.15,0,0,0,.27.27,3.94,3.94,0,0,0,5.55.07l.2-.21a13.72,13.72,0,0,1,10.35-4.66,14.12,14.12,0,0,1,9.87,4.06,13.83,13.83,0,0,1,4.06,9.87,15.91,15.91,0,0,1-.06,1.69,16.85,16.85,0,0,1-.34,1.69v.21C79,80.89,75.63,86,71.77,90.36A86.9,86.9,0,0,1,55.27,104c-1,.68-2.1,1.29-3.12,2l-.27.14h-44V45L53.3,9,98.76,45v61.16H77.52c-3.59,2.77-7.37,5.41-11.23,7.91h36.39a4,4,0,0,0,4-4V44h0v-.88a3.81,3.81,0,0,0-1.48-3L55.81.86a4,4,0,0,0-4.94,0l-49.18,39A3.94,3.94,0,0,0,0,43.14v67a3.94,3.94,0,0,0,3.92,4H54.25C62.5,109,71.09,102.8,77.66,95.63c4.8-5.41,8.79-11.7,10.21-18.94.2-.81.34-1.69.47-2.5s.14-1.76.14-2.64A21.83,21.83,0,0,0,66.63,49.7a21.23,21.23,0,0,0-8.86,2,20.51,20.51,0,0,0-3.93,2.24l-.54.4-.47-.4a22.79,22.79,0,0,0-3.92-2.24A21.86,21.86,0,0,0,18.13,71.55a18,18,0,0,0,.2,2.64,19.74,19.74,0,0,0,.47,2.57C20.23,83.93,24.15,90.22,29,95.63c1.35,1.49,2.77,2.91,4.26,4.33Z"/></g></g></svg>