<svg xmlns="http://www.w3.org/2000/svg" viewBox="0 0 643.67 76.23"><defs><style>.cls-1{fill:#29446e;}.cls-2{fill:#6c6a6c;}.cls-3{fill:#f15a24;fill-rule:evenodd;}</style></defs><title>pmhc-logo-horizontal-colorAsset 4</title><g id="Layer_2" data-name="Layer 2"><g id="Layer_1-2" data-name="Layer 1"><path class="cls-1" d="M88.59,26.7H99.3c5,0,7.7,3.36,7.7,7.38s-2.75,7.31-7.7,7.31H93.47V49.6H88.59Zm10.06,4.19H93.47v6.32h5.18a3.17,3.17,0,1,0,0-6.32Z"/><path class="cls-1" d="M110.6,33H115v2.26a7.12,7.12,0,0,1,5.29-2.64V36.9a5.42,5.42,0,0,0-1.2-.14A5.53,5.53,0,0,0,115,38.65v11H110.6Z"/><path class="cls-1" d="M122.58,41.29a8.78,8.78,0,0,1,17.55,0,8.78,8.78,0,0,1-17.55,0Zm13,0c0-2.57-1.54-4.81-4.25-4.81s-4.23,2.24-4.23,4.81,1.51,4.84,4.23,4.84S135.59,43.9,135.59,41.29Z"/><path class="cls-1" d="M144,55.92V33h4.36v2.09a6.42,6.42,0,0,1,5.11-2.51c4.26,0,7.35,3.16,7.35,8.69S157.77,50,153.51,50a6.33,6.33,0,0,1-5.11-2.54v8.45Zm8.1-19.44a4.89,4.89,0,0,0-3.74,1.89v5.87a5,5,0,0,0,3.74,1.89c2.51,0,4.19-2,4.19-4.84S154.65,36.48,152.14,36.48Z"/><path class="cls-1" d="M172.33,32.6c4.94,0,8.31,3.71,8.31,9.14v1H168.31a4.47,4.47,0,0,0,4.77,3.84,6.76,6.76,0,0,0,4.43-1.64l1.93,2.81A10.36,10.36,0,0,1,172.6,50c-5,0-8.85-3.4-8.85-8.72A8.44,8.44,0,0,1,172.33,32.6Zm-4.09,7.15h8.17a3.84,3.84,0,0,0-4.08-3.68A4,4,0,0,0,168.24,39.75Z"/><path class="cls-1" d="M184.48,33h4.36v2.26a7.12,7.12,0,0,1,5.29-2.64V36.9a5.42,5.42,0,0,0-1.2-.14,5.55,5.55,0,0,0-4.09,1.89v11h-4.36Z"/><path class="cls-1" d="M198.39,45.48V36.83h-2.75V33h2.75V28.48h4.39V33h3.36v3.81h-3.36v7.48c0,1,.55,1.82,1.51,1.82a2.39,2.39,0,0,0,1.51-.48l.93,3.3A5.4,5.4,0,0,1,203.09,50C200,50,198.39,48.43,198.39,45.48Z"/><path class="cls-1" d="M211.26,52.45a2.2,2.2,0,0,0,2.3-1.2l.62-1.41L207.45,33h4.67l4.32,11.53L220.77,33h4.7l-7.79,19.29c-1.24,3.13-3.43,3.95-6.28,4a12.64,12.64,0,0,1-2.17-.24l.66-3.92A3.57,3.57,0,0,0,211.26,52.45Z"/><path class="cls-1" d="M248.13,33.12,241.68,49.6h-2.13l-6.46-16.48V49.6h-4.87V26.7h6.83L240.61,41l5.57-14.28H253V49.6h-4.91Z"/><path class="cls-1" d="M268.11,47.88A6.85,6.85,0,0,1,262.86,50a5.52,5.52,0,0,1-5.77-5.49c0-3.88,3.13-5.29,5.77-5.29a6.69,6.69,0,0,1,5.25,2V39c0-1.69-1.44-2.78-3.64-2.78a7,7,0,0,0-4.84,2L258,35.21a10.88,10.88,0,0,1,7.24-2.61c3.78,0,7.24,1.52,7.24,6.29V49.6h-4.36Zm0-4.32a4.36,4.36,0,0,0-3.5-1.45c-1.71,0-3.12.9-3.12,2.51s1.41,2.44,3.12,2.44a4.36,4.36,0,0,0,3.5-1.44Z"/><path class="cls-1" d="M288.68,39.57c0-2.3-1.2-3.09-3.06-3.09a4.74,4.74,0,0,0-3.77,2V49.6h-4.36V33h4.36v2.16a7.59,7.59,0,0,1,5.8-2.58c3.64,0,5.39,2.06,5.39,5.29V49.6h-4.36Z"/><path class="cls-1" d="M308,47.88A6.86,6.86,0,0,1,302.75,50,5.52,5.52,0,0,1,297,44.52c0-3.88,3.12-5.29,5.76-5.29a6.71,6.71,0,0,1,5.26,2V39c0-1.69-1.44-2.78-3.64-2.78a7,7,0,0,0-4.84,2l-1.65-2.92a10.9,10.9,0,0,1,7.24-2.61c3.78,0,7.25,1.52,7.25,6.29V49.6H308Zm0-4.32a4.38,4.38,0,0,0-3.5-1.45c-1.72,0-3.13.9-3.13,2.51s1.41,2.44,3.13,2.44a4.37,4.37,0,0,0,3.5-1.44Z"/><path class="cls-1" d="M319,50.7a6.62,6.62,0,0,0,5.19,2.06c2.09,0,4.56-.93,4.56-4.19V46.89a6.47,6.47,0,0,1-5.11,2.61c-4.16,0-7.31-2.92-7.31-8.45s3.12-8.45,7.31-8.45a6.37,6.37,0,0,1,5.11,2.54V33h4.4V48.47c0,6.31-4.88,7.86-9,7.86A10,10,0,0,1,317,53.86Zm9.75-12.33A4.72,4.72,0,0,0,325,36.48c-2.47,0-4.19,1.72-4.19,4.57s1.72,4.57,4.19,4.57a4.84,4.84,0,0,0,3.74-1.89Z"/><path class="cls-1" d="M345.67,32.6c4.94,0,8.31,3.71,8.31,9.14v1H341.65a4.47,4.47,0,0,0,4.77,3.84,6.76,6.76,0,0,0,4.43-1.64l1.93,2.81a10.36,10.36,0,0,1-6.84,2.3c-5,0-8.85-3.4-8.85-8.72A8.44,8.44,0,0,1,345.67,32.6Zm-4.09,7.15h8.17a3.84,3.84,0,0,0-4.08-3.68A4,4,0,0,0,341.58,39.75Z"/><path class="cls-1" d="M357.82,33h4.36v2.26a7.12,7.12,0,0,1,5.29-2.64V36.9a5.42,5.42,0,0,0-1.2-.14,5.55,5.55,0,0,0-4.09,1.89v11h-4.36Z"/><path class="cls-1" d="M371.32,44.38a9.5,9.5,0,0,0,5.73,2.27c1.89,0,2.78-.66,2.78-1.69s-1.44-1.57-3.33-2c-2.85-.55-6.52-1.24-6.52-5.19,0-2.78,2.43-5.22,6.79-5.22a10.63,10.63,0,0,1,6.7,2.27l-1.75,3a7,7,0,0,0-4.91-1.93c-1.58,0-2.61.59-2.61,1.55s1.3,1.41,3.16,1.78c2.85.55,6.66,1.31,6.66,5.43,0,3-2.58,5.32-7.18,5.32a11.17,11.17,0,0,1-7.41-2.57Z"/><path class="cls-1" d="M403.72,40H392.91V49.6H388V26.7h4.87v9h10.81v-9h4.91V49.6h-4.91Z"/><path class="cls-1" d="M421.23,32.6c4.95,0,8.31,3.71,8.31,9.14v1H417.22A4.46,4.46,0,0,0,422,46.54a6.8,6.8,0,0,0,4.43-1.64l1.92,2.81a10.35,10.35,0,0,1-6.83,2.3c-5.05,0-8.86-3.4-8.86-8.72A8.44,8.44,0,0,1,421.23,32.6Zm-4.08,7.15h8.17a3.84,3.84,0,0,0-4.09-3.68A4,4,0,0,0,417.15,39.75Z"/><path class="cls-1" d="M443.34,47.88A6.85,6.85,0,0,1,438.09,50a5.52,5.52,0,0,1-5.77-5.49c0-3.88,3.13-5.29,5.77-5.29a6.68,6.68,0,0,1,5.25,2V39c0-1.69-1.44-2.78-3.64-2.78a7,7,0,0,0-4.84,2l-1.64-2.92a10.88,10.88,0,0,1,7.24-2.61c3.78,0,7.24,1.52,7.24,6.29V49.6h-4.36Zm0-4.32a4.36,4.36,0,0,0-3.5-1.45c-1.71,0-3.12.9-3.12,2.51s1.41,2.44,3.12,2.44a4.36,4.36,0,0,0,3.5-1.44Z"/><path class="cls-1" d="M452.72,26.7h4.36V49.6h-4.36Z"/><path class="cls-1" d="M463,45.48V36.83H460.2V33H463V28.48h4.39V33h3.37v3.81h-3.37v7.48c0,1,.55,1.82,1.51,1.82a2.39,2.39,0,0,0,1.51-.48l.93,3.3A5.4,5.4,0,0,1,467.65,50C464.59,50,463,48.43,463,45.48Z"/><path class="cls-1" d="M485.61,39.51c0-2.3-1.21-3-3.09-3a4.85,4.85,0,0,0-3.78,2V49.6h-4.36V26.7h4.36v8.48a7.66,7.66,0,0,1,5.84-2.58c3.64,0,5.39,2,5.39,5.22V49.6h-4.36Z"/><path class="cls-1" d="M494,38.17c0-7,5.32-11.85,12-11.85a10.56,10.56,0,0,1,9.75,5.6L511.56,34A6.26,6.26,0,0,0,506,30.65c-4,0-7,3.19-7,7.52s3,7.51,7,7.51a6.2,6.2,0,0,0,5.56-3.33l4.19,2A10.63,10.63,0,0,1,506,50C499.3,50,494,45.2,494,38.17Z"/><path class="cls-1" d="M529.21,47.88A6.88,6.88,0,0,1,524,50a5.52,5.52,0,0,1-5.76-5.49c0-3.88,3.12-5.29,5.76-5.29a6.71,6.71,0,0,1,5.26,2V39c0-1.69-1.44-2.78-3.64-2.78a7,7,0,0,0-4.84,2l-1.65-2.92a10.9,10.9,0,0,1,7.24-2.61c3.78,0,7.25,1.52,7.25,6.29V49.6h-4.36Zm0-4.32a4.38,4.38,0,0,0-3.5-1.45c-1.72,0-3.13.9-3.13,2.51s1.41,2.44,3.13,2.44a4.37,4.37,0,0,0,3.5-1.44Z"/><path class="cls-1" d="M538.58,33h4.36v2.26a7.12,7.12,0,0,1,5.29-2.64V36.9a5.42,5.42,0,0,0-1.2-.14,5.53,5.53,0,0,0-4.09,1.89v11h-4.36Z"/><path class="cls-1" d="M559.14,32.6c5,0,8.31,3.71,8.31,9.14v1H555.13a4.47,4.47,0,0,0,4.77,3.84,6.78,6.78,0,0,0,4.43-1.64l1.92,2.81a10.35,10.35,0,0,1-6.83,2.3c-5,0-8.86-3.4-8.86-8.72A8.44,8.44,0,0,1,559.14,32.6Zm-4.08,7.15h8.17a3.84,3.84,0,0,0-4.09-3.68A4,4,0,0,0,555.06,39.75Z"/><path class="cls-1" d="M573.39,44.41a2.79,2.79,0,1,1-2.78,2.79A2.82,2.82,0,0,1,573.39,44.41Z"/><path class="cls-1" d="M588.22,32.6a7.72,7.72,0,0,1,6.56,3l-2.85,2.68a4,4,0,0,0-3.5-1.79c-2.64,0-4.5,1.93-4.5,4.81s1.86,4.84,4.5,4.84a4.2,4.2,0,0,0,3.5-1.78L594.78,47a7.66,7.66,0,0,1-6.56,3,8.42,8.42,0,0,1-8.79-8.72A8.42,8.42,0,0,1,588.22,32.6Z"/><path class="cls-1" d="M597.25,41.29a8.78,8.78,0,0,1,17.55,0,8.78,8.78,0,0,1-17.55,0Zm13,0c0-2.57-1.54-4.81-4.25-4.81s-4.22,2.24-4.22,4.81,1.51,4.84,4.22,4.84S610.26,43.9,610.26,41.29Z"/><path class="cls-1" d="M639.27,39.13c0-1.55-.68-2.65-2.47-2.65a4.39,4.39,0,0,0-3.43,1.93V49.6H629V39.13c0-1.55-.69-2.65-2.48-2.65a4.44,4.44,0,0,0-3.43,2V49.6h-4.36V33h4.36v2.16a7.24,7.24,0,0,1,5.42-2.58c2.44,0,4,1.14,4.6,3a7.06,7.06,0,0,1,5.7-3c3.06,0,4.88,1.62,4.88,5v12h-4.4Z"/><path class="cls-2" d="M88.55,63.48h1.22V73.3H88.55Z"/><path class="cls-2" d="M101.2,68.47c0-.9-.39-1.49-1.31-1.49A2.51,2.51,0,0,0,98,68.07v5.22H96.9V68.46c0-.9-.38-1.49-1.31-1.49a2.49,2.49,0,0,0-1.87,1.1v5.21H92.61V66.19h1.11v1A3.07,3.07,0,0,1,96,66a1.83,1.83,0,0,1,1.92,1.33A3,3,0,0,1,100.31,66c1.3,0,2,.72,2,2.15V73.3h-1.11Z"/><path class="cls-2" d="M113.69,68.47c0-.9-.39-1.49-1.31-1.49a2.51,2.51,0,0,0-1.88,1.09v5.22h-1.11V68.46c0-.9-.38-1.49-1.31-1.49a2.49,2.49,0,0,0-1.87,1.1v5.21h-1.1V66.19h1.1v1a3.07,3.07,0,0,1,2.3-1.21,1.84,1.84,0,0,1,1.92,1.33A3,3,0,0,1,112.81,66c1.3,0,2,.72,2,2.15V73.3h-1.11Z"/><path class="cls-2" d="M120.69,66c2.16,0,3.42,1.68,3.42,3.82v.27h-5.76a2.52,2.52,0,0,0,2.53,2.49h0a3.14,3.14,0,0,0,2.19-.9l.53.72a3.92,3.92,0,0,1-2.83,1.09,3.75,3.75,0,0,1-.12-7.49Zm-2.34,3.29H123a2.3,2.3,0,0,0-2.23-2.37.21.21,0,0,0-.11,0A2.37,2.37,0,0,0,118.35,69.3Z"/><path class="cls-2" d="M131.64,72.24a3,3,0,0,1-2.4,1.24c-1.86,0-3.17-1.42-3.17-3.73s1.3-3.74,3.17-3.74a3,3,0,0,1,2.4,1.25V63.48h1.1V73.3h-1.1Zm0-4.09A2.66,2.66,0,0,0,129.5,67c-1.42,0-2.28,1.18-2.28,2.75s.86,2.74,2.28,2.74a2.64,2.64,0,0,0,2.14-1.12Z"/><path class="cls-2" d="M135.35,64.24a.75.75,0,0,1,.75-.74.74.74,0,0,1,.74.74.75.75,0,0,1-.74.75A.76.76,0,0,1,135.35,64.24Zm.19,2h1.11V73.3h-1.11Z"/><path class="cls-2" d="M143.9,72.49a3.07,3.07,0,0,1-2.36,1,2.36,2.36,0,0,1-2.48-2.25v-.1a2.32,2.32,0,0,1,2.48-2.34,3,3,0,0,1,2.36,1V68.5c0-1-.77-1.49-1.8-1.49a2.8,2.8,0,0,0-2.18,1l-.5-.77a3.72,3.72,0,0,1,2.84-1.17c1.49,0,2.76.67,2.76,2.4v4.89h-1.1Zm0-2a2.41,2.41,0,0,0-2-.89A1.61,1.61,0,0,0,140.19,71v.13a1.59,1.59,0,0,0,1.75,1.54,2.37,2.37,0,0,0,2-.88Z"/><path class="cls-2" d="M148,71.82V67.16h-1.18v-1H148V64.24h1.11v2h1.44v1h-1.44V71.6c0,.53.23.91.72.91a1,1,0,0,0,.75-.29l.32.82a1.79,1.79,0,0,1-1.32.46A1.48,1.48,0,0,1,148,71.82Z"/><path class="cls-2" d="M155.81,66c2.16,0,3.42,1.68,3.42,3.82v.27h-5.76A2.51,2.51,0,0,0,156,72.59h0a3.14,3.14,0,0,0,2.19-.9l.53.72a3.92,3.92,0,0,1-2.83,1.09,3.75,3.75,0,0,1-.12-7.49Zm-2.34,3.29h4.67a2.3,2.3,0,0,0-2.23-2.37.2.2,0,0,0-.11,0A2.37,2.37,0,0,0,153.47,69.3Z"/><path class="cls-2" d="M161.78,71a4.11,4.11,0,0,0,3.09,1.4c1.76,0,2.31-.94,2.31-1.69,0-1.18-1.19-1.49-2.48-1.86-1.57-.41-3.33-.85-3.33-2.78,0-1.63,1.45-2.73,3.38-2.73a4.6,4.6,0,0,1,3.47,1.37l-.7.88a3.75,3.75,0,0,0-2.84-1.18c-1.18,0-2,.63-2,1.56s1.14,1.28,2.39,1.62c1.6.43,3.43.93,3.43,3,0,1.43-1,2.89-3.63,2.89a4.86,4.86,0,0,1-3.77-1.56Z"/><path class="cls-2" d="M175.27,72.49a3,3,0,0,1-2.35,1,2.36,2.36,0,0,1-2.48-2.25v-.1a2.32,2.32,0,0,1,2.48-2.34,2.93,2.93,0,0,1,2.35,1V68.5c0-1-.76-1.49-1.8-1.49a2.8,2.8,0,0,0-2.17,1l-.5-.77a3.71,3.71,0,0,1,2.84-1.17c1.49,0,2.76.67,2.76,2.4v4.89h-1.11Zm0-2a2.38,2.38,0,0,0-2-.89A1.6,1.6,0,0,0,171.57,71a.62.62,0,0,0,0,.13,1.6,1.6,0,0,0,1.76,1.54,2.34,2.34,0,0,0,2-.88Z"/><path class="cls-2" d="M178.12,66.19h1.19L181.68,72,184,66.2h1.21l-3,7.11h-1.21Z"/><path class="cls-2" d="M186.79,64.24a.74.74,0,0,1,.74-.73h0a.73.73,0,0,1,.75.73h0a.75.75,0,0,1-.74.75A.76.76,0,0,1,186.79,64.24Zm.19,2h1.11V73.3H187Z"/><path class="cls-2" d="M195.69,68.65c0-1.25-.63-1.65-1.59-1.65A2.76,2.76,0,0,0,192,68.1v5.2h-1.1V66.19H192v1A3.55,3.55,0,0,1,194.53,66a2,2,0,0,1,2.27,2.3v5h-1.11Z"/><path class="cls-2" d="M200.14,74.31a2.7,2.7,0,0,0,2.31,1,2,2,0,0,0,2.29-2.13v-1a3,3,0,0,1-2.39,1.26c-1.86,0-3.17-1.38-3.17-3.68s1.3-3.69,3.17-3.69a3,3,0,0,1,2.39,1.25V66.21h1.1v6.91c0,2.36-1.65,3.1-3.39,3.1a3.67,3.67,0,0,1-2.87-1.06Zm4.59-6.16A2.63,2.63,0,0,0,202.6,67c-1.42,0-2.28,1.13-2.28,2.71s.86,2.71,2.28,2.71a2.66,2.66,0,0,0,2.13-1.16Z"/><path class="cls-2" d="M208.6,71.56a3.19,3.19,0,0,0,2.34,1c1.09,0,1.68-.5,1.68-1.18s-.87-1-1.83-1.27c-1.21-.27-2.58-.6-2.58-2.07,0-1.11,1-2,2.65-2a3.59,3.59,0,0,1,2.64,1l-.5.77a2.78,2.78,0,0,0-2.12-.9c-1,0-1.57.44-1.57,1.08s.81.91,1.74,1.13c1.23.28,2.66.63,2.66,2.21,0,1.19-1,2.15-2.8,2.15A3.77,3.77,0,0,1,208,72.36Z"/><path class="cls-2" d="M215.82,74.72a2.2,2.2,0,0,0,1-1.37.74.74,0,0,1-.21,0,.7.7,0,0,1-.71-.69.13.13,0,0,1,0-.06.77.77,0,0,1,.78-.79h0a1,1,0,0,1,.93,1v.07a2.87,2.87,0,0,1-1.21,2.23Z"/><path class="cls-2" d="M220.23,71a4.14,4.14,0,0,0,3.1,1.4c1.75,0,2.31-.94,2.31-1.69,0-1.18-1.19-1.49-2.48-1.86-1.57-.41-3.33-.85-3.33-2.78,0-1.63,1.44-2.73,3.37-2.73a4.63,4.63,0,0,1,3.48,1.37l-.73.88a3.78,3.78,0,0,0-2.85-1.18c-1.17,0-2,.63-2,1.56s1.13,1.28,2.39,1.62c1.6.43,3.43.93,3.43,3,0,1.43-1,2.89-3.63,2.89a4.86,4.86,0,0,1-3.77-1.56Z"/><path class="cls-2" d="M229.09,64.24a.74.74,0,1,1,1.48,0,.74.74,0,1,1-1.48,0Zm.19,2h1.1V73.3h-1.1Z"/><path class="cls-2" d="M241.77,68.47c0-.9-.4-1.49-1.31-1.49a2.53,2.53,0,0,0-1.89,1.09v5.22h-1.1V68.46c0-.9-.39-1.49-1.31-1.49a2.49,2.49,0,0,0-1.87,1.1v5.21h-1.11V66.19h1.11v1A3.1,3.1,0,0,1,236.58,66a1.83,1.83,0,0,1,1.92,1.33A3,3,0,0,1,240.89,66c1.29,0,2,.72,2,2.15V73.3h-1.1Z"/><path class="cls-2" d="M245.68,76V66.19h1.1v1.06a3,3,0,0,1,2.4-1.24c1.87,0,3.17,1.42,3.17,3.73s-1.3,3.74-3.17,3.74a2.92,2.92,0,0,1-2.4-1.25V76Zm3.22-9a2.64,2.64,0,0,0-2.12,1.14v3.21a2.65,2.65,0,0,0,2.12,1.15c1.43,0,2.28-1.18,2.28-2.76s-.85-2.72-2.3-2.72Z"/><path class="cls-2" d="M254.72,63.48h1.11V73.3h-1.11Z"/><path class="cls-2" d="M261.71,66c2.16,0,3.42,1.68,3.42,3.82v.27h-5.76a2.52,2.52,0,0,0,2.53,2.49h0a3.09,3.09,0,0,0,2.19-.9l.53.72a3.86,3.86,0,0,1-2.83,1.09,3.75,3.75,0,0,1-.12-7.49Zm-2.34,3.29h4.68a2.3,2.3,0,0,0-2.24-2.37.2.2,0,0,0-.11,0A2.38,2.38,0,0,0,259.37,69.3Z"/><path class="cls-2" d="M267.55,63.48H274v1.11h-5.23v3.16h5.11v1.09h-5.11v3.39H274v1.09h-6.45Z"/><path class="cls-2" d="M281.28,68.65c0-1.25-.63-1.65-1.59-1.65a2.76,2.76,0,0,0-2.11,1.1v5.2h-1.1V66.19h1.1v1A3.53,3.53,0,0,1,280.11,66a2,2,0,0,1,2.27,2.3v5h-1.1Z"/><path class="cls-2" d="M285.19,66.19h1.1v1.15a3,3,0,0,1,2.37-1.3v1.13a2.25,2.25,0,0,0-.44,0,2.64,2.64,0,0,0-1.93,1.13v5h-1.1Z"/><path class="cls-2" d="M290.22,69.74a3.53,3.53,0,1,1,3.52,3.74A3.49,3.49,0,0,1,290.22,69.74Zm5.88,0a2.39,2.39,0,1,0-2.36,2.75A2.47,2.47,0,0,0,296.1,69.74Z"/><path class="cls-2" d="M299.65,63.48h1.1V73.3h-1.1Z"/><path class="cls-2" d="M303.55,63.48h1.11V73.3h-1.11Z"/><path class="cls-2" d="M316,68.47c0-.9-.39-1.49-1.31-1.49a2.5,2.5,0,0,0-1.88,1.09v5.22h-1.11V68.46c0-.9-.38-1.49-1.31-1.49a2.49,2.49,0,0,0-1.87,1.1v5.21h-1.11V66.19h1.11v1a3.07,3.07,0,0,1,2.3-1.21,1.82,1.82,0,0,1,1.91,1.33A3,3,0,0,1,315.16,66c1.3,0,2,.72,2,2.15V73.3H316Z"/><path class="cls-2" d="M323,66c2.16,0,3.42,1.68,3.42,3.82v.27H320.7a2.51,2.51,0,0,0,2.53,2.49h0a3.16,3.16,0,0,0,2.19-.9l.53.72a3.92,3.92,0,0,1-2.83,1.09A3.75,3.75,0,0,1,323,66ZM320.7,69.3h4.67a2.3,2.3,0,0,0-2.23-2.37.2.2,0,0,0-.11,0A2.37,2.37,0,0,0,320.7,69.3Z"/><path class="cls-2" d="M333.63,68.65C333.63,67.4,333,67,332,67a2.74,2.74,0,0,0-2.1,1.1v5.2h-1.11V66.19h1.11v1A3.53,3.53,0,0,1,332.47,66a2,2,0,0,1,2.27,2.3v5h-1.11Z"/><path class="cls-2" d="M337.76,71.82V67.16h-1.18v-1h1.18V64.24h1.1v2h1.45v1h-1.45V71.6c0,.53.24.91.73.91a1,1,0,0,0,.75-.29l.32.8a1.8,1.8,0,0,1-1.33.46A1.45,1.45,0,0,1,337.76,71.82Z"/><path class="cls-3" d="M21.47,64.48h8a49.06,49.06,0,0,1-6.93-6.19c-2.49-2.8-4.72-6.11-5.41-9.82a.14.14,0,0,0-.05-.13,8.22,8.22,0,0,1-.17-1.09,8,8,0,0,1-.09-1.09,9,9,0,0,1,9-9,8.81,8.81,0,0,1,3.66.78,8.4,8.4,0,0,1,3,2.14c0,.09.13.13.18.18a2.54,2.54,0,0,0,3.57,0l.13-.13a8.86,8.86,0,0,1,6.68-3,9.12,9.12,0,0,1,6.37,2.62A9,9,0,0,1,52,46.16a9.93,9.93,0,0,1,0,1.09c0,.35-.14.74-.22,1.09v.13a21.71,21.71,0,0,1-5.41,9.82A56,56,0,0,1,35.65,67.1c-.65.44-1.35.83-2,1.31l-.17.09H5.11V29.05L34.38,5.79,63.71,29.05V68.5H50c-2.32,1.79-4.76,3.49-7.25,5.1H66.24A2.54,2.54,0,0,0,68.81,71V28.4h0v-.57a2.45,2.45,0,0,0-1-2L36,.56a2.54,2.54,0,0,0-3.19,0L1.09,25.73A2.53,2.53,0,0,0,0,27.83V71A2.54,2.54,0,0,0,2.53,73.6H35A71,71,0,0,0,50.09,61.69a26.29,26.29,0,0,0,6.59-12.22c.13-.52.22-1.09.31-1.61s.08-1.14.08-1.7A14.08,14.08,0,0,0,43,32.06a13.67,13.67,0,0,0-5.72,1.27,13.13,13.13,0,0,0-2.53,1.44l-.35.26-.3-.26a14.45,14.45,0,0,0-2.53-1.44,13.81,13.81,0,0,0-5.76-1.27,14.17,14.17,0,0,0-14.1,14.1,10.93,10.93,0,0,0,.14,1.7,11.91,11.91,0,0,0,.3,1.66,26.11,26.11,0,0,0,6.59,12.17c.87,1,1.79,1.88,2.75,2.79Z"/></g></g></svg>