<svg id="Layer_1" data-name="Layer 1" xmlns="http://www.w3.org/2000/svg" xmlns:xlink="http://www.w3.org/1999/xlink" viewBox="0 0 512 512"><defs><style>.cls-1{fill:none;clip-rule:evenodd;}.cls-2{fill:#e42329;}.cls-2,.cls-3,.cls-6{fill-rule:evenodd;}.cls-3{fill:#e64332;}.cls-4{clip-path:url(#clip-path);}.cls-5{fill:#fff;}.cls-6{fill:#2c368e;}</style><clipPath id="clip-path"><path class="cls-1" d="M29.32,33.83V385.69s20.3-13.54,42.86,22.56,36.09,63.15,63.15,60.89,51.88,9,51.88,9l31.58-13.53L272.92,512s38.34-40.6,42.85-60.9,40.6-31.58,40.6-31.58-11.28-22.55,18-33.83,42.85-6.77,56.39-27.06,4.51-58.65,18.05-60.9,33.83-101.5,33.83-101.5V0s-33.84,0-49.62,15.79S372.16,60.9,356.37,60.9s-58.65,13.53-58.65,13.53H243.59L164.66,38.35s-135.34,0-135.34-4.52Z"/></clipPath></defs><path class="cls-2" d="M29.32,33.83V385.69s20.3-13.54,42.86,22.56,36.09,63.15,63.15,60.89,51.88,9,51.88,9l31.58-13.53L272.92,512s38.34-40.6,42.85-60.9,40.6-31.58,40.6-31.58-11.28-22.55,18-33.83,42.85-6.77,56.39-27.06,4.51-58.65,18.05-60.9,33.83-101.5,33.83-101.5V0s-33.84,0-49.62,15.79S372.16,60.9,356.37,60.9s-58.65,13.53-58.65,13.53H243.59L164.66,38.35s-135.34,0-135.34-4.52Z"/><path class="cls-3" d="M29.32,199.23v3.55l108.32,56.15L29.32,246.88v5.83l103.59,30L29.32,291.6v6.48L132.91,307,29.32,337v5.83l108.32-12.05L36,383.43a23.31,23.31,0,0,1,11.35,1.29l99.57-31.57-72.8,58.21,4.36,7.06,81.91-45.11L97.72,447.73c1.6,2.09,3.19,4,4.81,5.87l75-63.15-43.39,78.77c.4,0,.79,0,1.19-.08a90.9,90.9,0,0,1,10.4-.24l52-65-22.21,70a108.23,108.23,0,0,1,11.08,3.92L220.1,413.2l-5.95,53.42,4.64-2,9.22,8.08,15.87-54.78,6.36,74.23L261,501.53l7.18-83.6,21.65,74.78c3.16-3.85,6.45-8,9.61-12.28l-7.48-67.23,22.25,42.93a33.69,33.69,0,0,0,1.61-5c1.2-5.39,4.62-10.14,9-14.21l-10.45-33,20.43,25.55a106.36,106.36,0,0,1,16.72-8.18l-17-30.84,19.89,16.75c.56-5.49,3.32-11.88,11.36-17.15l-14.1-16.74,22.61,12.45.18-.07a194.62,194.62,0,0,1,22.62-7l-31.94-25.54,54.46,17.27a40.22,40.22,0,0,0,10.56-10.78l-55.74-28.9,63.6,7.08c.73-4.47,1.18-9,1.57-13.35L379.1,307l64.78-5.56a7,7,0,0,1,5-3.67c2.27-.38,4.73-3.5,7.25-8.41l-77-6.61L467.78,257c.85-2.88,1.67-5.82,2.48-8.76l-95.89,10.67,106.74-55.34.89-4.15L365.09,236.53l110.79-88.61L351.62,216.37,443,107.84,334.47,199.22,402.92,75l-88.61,110.8L353.88,61c-.71.06-1.44.12-2.21.2L291.91,176.47,303.45,72.68c-3.54,1.07-5.73,1.75-5.73,1.75h-1.41l-28.18,97.31-8.35-97.31h-7.56l-8.34,97.31-32.44-112-4.56-2.08L220.1,176.47,154.8,50.52l42.89,135.23L109.08,75l68.45,124.27L69,107.84l91.38,108.53L36.12,147.92l110.8,88.61-117.6-37.3Z"/><g class="cls-4"><path class="cls-5" d="M117.5,228.34h40.76v21.32h5.16V234.52h37.14V218.7h4.12v-4l3.54-2.3,12.38-8.06,4.2-2.73,4.21,2.73,11.44,7.45V199.44H291V218h43.68v-9h24.42v11h8.94v11.69h2.4V220.08h8.94v-11h24.42V235.9h25.11v-12H433v-5.54h4.2v-3.65l3.53-2.3,12.38-8.06,4.21-2.73,4.2,2.73,12.38,8.06,3.54,2.3v3.65h4.19v5.54h2.85l-2.38,9.58c-3.63,14.6-8.12,31-12.73,44-5.42,15.27-11.87,26.6-19.23,27.82-1.12.19-1.85,8.28-2.73,18l-.06.6H431.86l.18-2c1.46-16.19,2.68-29.68,15.54-31.82.72-.12,3.57-7.48,7.21-17.72,4-11.35,8-25.48,11.28-38.55h-4.13V223l-4.64-3-4.64,3v10.8h-4.2v5.54H444.4v49.83H417.23V251.38H411v61H388.33V235.56h-2.4v11.69H352.57V235.56h-2.4v65H327.81v-44.4h-7.57V233.5h-14.1v54.34H282.41v-28.9h-6.88v-44h-19.6v82.6H233.57V234.18h-4.12V223l-4.65-3-4.64,3v11.14H216v55H197.12V276.14h-7.57V250H178.89v15.13H172v27.65H142.78v-49H125.24v35.77h-5.5v31.33H94.63V321H65.4V231.84L56.28,239v53.58H37.06v31.33H21.59V277.11H40.8V231.53l3-2.33,24.59-19.36L80.87,200v43.48h23V264.1h5.84V228.34Z"/></g><path class="cls-6" d="M117.5,236.07h33v35.15h13.75V257.39h6.89V242.26h26.13V268.4h7.57v7.38h3.44V226.44h4.12v-7.56l12.38-8.06,12.39,8.06v7.56h4.12v38.5h6.88V207.18h35.08v44h6.88v28.9h8.25V225.76H328v22.69h7.57v27.33h6.88v-59h8.94v11h8.94v11.69h17.88V227.82h8.94v-11h8.94V304.6h7.23v-61H425v37.83h11.69V231.64h4.06V226.1h4.2v-7.22l12.38-8.06,12.38,8.06v7.22h4.19v5.54h.71c-7.14,28.74-17.64,64.74-25.73,66.09-13.54,2.25-4.52,40.6-18.05,60.9s-27.07,15.79-56.39,27.06-18,33.83-18,33.83-36.09,11.28-40.6,31.58S272.92,512,272.92,512l-54.13-47.37-31.58,13.54s-24.81-11.28-51.88-9-40.6-24.81-63.15-60.89-42.86-22.56-42.86-22.56V284.85H48.54V235.27l24.6-19.35v95.77h9.28V251.2H96.18v20.64h6.19v7H112v-7h5.5V236.07Z"/></svg>