<svg id="Layer_1" data-name="Layer 1" xmlns="http://www.w3.org/2000/svg" xmlns:xlink="http://www.w3.org/1999/xlink" viewBox="0 0 2500 330.26"><defs><style>.cls-1{fill:none;clip-rule:evenodd;}.cls-2,.cls-5{fill:#e42329;}.cls-3,.cls-9{fill:#2c368e;}.cls-4{fill:#6c6a6c;}.cls-5,.cls-6,.cls-9{fill-rule:evenodd;}.cls-6{fill:#e64332;}.cls-7{clip-path:url(#clip-path);}.cls-8{fill:#fff;}</style><clipPath id="clip-path"><path class="cls-1" d="M0,21.82v227s13.09-8.74,27.64,14.54,23.28,40.74,40.74,39.29,33.46,5.81,33.46,5.81l20.37-8.72,34.91,30.55s24.74-26.19,27.65-39.29S211,270.61,211,270.61s-7.28-14.55,11.63-21.82,27.64-4.37,36.38-17.46,2.91-37.83,11.64-39.29,21.82-65.46,21.82-65.46V0s-21.83,0-32,10.19S221.14,39.28,211,39.28,173.13,48,173.13,48H138.21L87.29,24.73S0,24.73,0,21.82Z"/></clipPath></defs><path class="cls-2" d="M435.25,42.23c37.34,0,66.16,25.38,66.16,62.54s-28.82,62.53-66.16,62.53-66.16-25.37-66.16-62.53S397.91,42.23,435.25,42.23Zm0,32.26c-17.59,0-29,13.42-29,30.28s11.42,30.27,29,30.27,29-13.42,29-30.27S452.83,74.49,435.25,74.49Z"/><path class="cls-2" d="M598,118.91H554.7v46.22H518.08V44.22H554.7V87H598V44.22h36.62V165.13H598Z"/><path class="cls-3" d="M704.6,121.81H685.75v43.32H660V44.22h56.56c25.19,0,40.6,16.5,40.6,39,0,21.39-13.41,32.81-26.47,35.89l27.2,46H728.35Zm8.16-55.47h-27V99.69h27c10.33,0,18.13-6.52,18.13-16.68S723.09,66.34,712.76,66.34Z"/><path class="cls-3" d="M813.9,75.4c26.1,0,43.87,19.58,43.87,48.22v5.07H792.69C794.14,139.75,803,149,817.89,149c8.16,0,17.77-3.27,23.38-8.71l10.15,14.87c-8.7,8-22.47,12.14-36.07,12.14-26.64,0-46.76-17.94-46.76-46C768.59,95.88,787.26,75.4,813.9,75.4Zm-21.57,37.7h43.14c-.54-8.33-6.34-19.39-21.57-19.39C799.58,93.71,793.42,104.4,792.33,113.1Z"/><path class="cls-3" d="M930.64,156.06c-6,7.07-16.32,11.24-27.74,11.24-13.95,0-30.45-9.42-30.45-29,0-20.48,16.5-27.91,30.45-27.91,11.6,0,21.94,3.62,27.74,10.69V108.94c0-8.89-7.62-14.69-19.22-14.69a36.87,36.87,0,0,0-25.56,10.34l-8.7-15.41c10.7-9.43,24.47-13.78,38.25-13.78,19.94,0,38.25,8,38.25,33.17v56.56h-23Zm0-22.84c-3.81-5.07-11.06-7.61-18.49-7.61-9.07,0-16.5,4.72-16.5,13.23,0,8.16,7.43,12.87,16.5,12.87,7.43,0,14.68-2.53,18.49-7.61Z"/><path class="cls-3" d="M980.12,44.22h23V165.13h-23Z"/><path class="cls-3" d="M1034.14,143.38V97.7h-14.51V77.58h14.51V53.65h23.2V77.58h17.76V97.7h-17.76v39.51c0,5.44,2.9,9.61,8,9.61,3.45,0,6.71-1.27,8-2.54l4.89,17.4c-3.44,3.09-9.6,5.62-19.21,5.62C1042.84,167.3,1034.14,159,1034.14,143.38Z"/><path class="cls-3" d="M1102.11,180.17c6,0,10-1.63,12.14-6.34l3.27-7.43L1082,77.58h24.65l22.84,60.9,22.84-60.9h24.83L1136,179.45c-6.53,16.49-18.13,20.84-33.18,21.21a63.47,63.47,0,0,1-11.42-1.27l3.45-20.67A19.78,19.78,0,0,0,1102.11,180.17Z"/><path class="cls-3" d="M1274.49,114.37h-57.1v50.76h-25.74V44.22h25.74V91.71h57.1V44.22h25.92V165.13h-25.92Z"/><path class="cls-3" d="M1366.93,75.4c26.1,0,43.87,19.58,43.87,48.22v5.07h-65.08c1.45,11.06,10.34,20.31,25.2,20.31,8.16,0,17.76-3.27,23.38-8.71l10.15,14.87c-8.7,8-22.47,12.14-36.07,12.14-26.65,0-46.77-17.94-46.77-46C1321.61,95.88,1340.28,75.4,1366.93,75.4Zm-21.57,37.7h43.14c-.54-8.33-6.34-19.39-21.57-19.39C1352.61,93.71,1346.45,104.4,1345.36,113.1Z"/><path class="cls-3" d="M1483.66,156.06c-6,7.07-16.31,11.24-27.73,11.24-14,0-30.45-9.42-30.45-29,0-20.48,16.49-27.91,30.45-27.91,11.6,0,21.93,3.62,27.73,10.69V108.94c0-8.89-7.61-14.69-19.21-14.69a36.83,36.83,0,0,0-25.56,10.34l-8.7-15.41c10.7-9.43,24.47-13.78,38.25-13.78,19.94,0,38.25,8,38.25,33.17v56.56h-23Zm0-22.84c-3.8-5.07-11.05-7.61-18.49-7.61-9.06,0-16.49,4.72-16.49,13.23,0,8.16,7.43,12.87,16.49,12.87,7.44,0,14.69-2.53,18.49-7.61Z"/><path class="cls-3" d="M1533.15,44.22h23V165.13h-23Z"/><path class="cls-3" d="M1587.16,143.38V97.7h-14.5V77.58h14.5V53.65h23.21V77.58h17.76V97.7h-17.76v39.51c0,5.44,2.9,9.61,8,9.61,3.45,0,6.71-1.27,8-2.54l4.89,17.4c-3.44,3.09-9.61,5.62-19.21,5.62C1595.86,167.3,1587.16,159,1587.16,143.38Z"/><path class="cls-3" d="M1706.8,111.84c0-12.15-6.35-16-16.32-16-8.88,0-16,5.08-19.94,10.34v58.91h-23V44.22h23V89c5.62-6.71,16.5-13.6,30.82-13.6,19.21,0,28.46,10.51,28.46,27.55v62.18h-23Z"/><path class="cls-3" d="M1797.07,75.4c17.94,0,28.82,7.8,34.62,15.77l-15,14.14c-4.17-6.16-10.51-9.43-18.49-9.43-14,0-23.74,10.16-23.74,25.38s9.79,25.56,23.74,25.56a22.1,22.1,0,0,0,18.49-9.43l15,14c-5.8,8.16-16.68,16-34.62,16-27,0-46.41-19-46.41-46C1750.66,94.43,1770.06,75.4,1797.07,75.4Z"/><path class="cls-3" d="M1902.92,156.06c-6,7.07-16.31,11.24-27.73,11.24-14,0-30.46-9.42-30.46-29,0-20.48,16.5-27.91,30.46-27.91,11.6,0,21.93,3.62,27.73,10.69V108.94c0-8.89-7.61-14.69-19.21-14.69a36.83,36.83,0,0,0-25.56,10.34l-8.7-15.41c10.69-9.43,24.47-13.78,38.24-13.78,19.94,0,38.25,8,38.25,33.17v56.56h-23Zm0-22.84c-3.81-5.07-11.06-7.61-18.49-7.61-9.06,0-16.49,4.72-16.49,13.23,0,8.16,7.43,12.87,16.49,12.87,7.43,0,14.68-2.53,18.49-7.61Z"/><path class="cls-3" d="M1952.41,77.58h23v12c6.16-7.79,17-14,27.91-14V98.06a29.27,29.27,0,0,0-6.34-.73c-7.62,0-17.77,4.35-21.57,10v57.83h-23Z"/><path class="cls-3" d="M2061,75.4c26.1,0,43.87,19.58,43.87,48.22v5.07h-65.08c1.45,11.06,10.34,20.31,25.2,20.31,8.16,0,17.76-3.27,23.38-8.71l10.15,14.87c-8.7,8-22.47,12.14-36.07,12.14-26.65,0-46.77-17.94-46.77-46C2015.66,95.88,2034.33,75.4,2061,75.4Zm-21.57,37.7h43.14c-.54-8.33-6.34-19.39-21.57-19.39C2046.66,93.71,2040.5,104.4,2039.41,113.1Z"/><path class="cls-3" d="M2136.2,137.76a14.68,14.68,0,1,1-14.68,14.68A14.86,14.86,0,0,1,2136.2,137.76Z"/><path class="cls-3" d="M2207.26,75.4c17.95,0,28.82,7.8,34.62,15.77l-15,14.14c-4.17-6.16-10.52-9.43-18.49-9.43-14,0-23.75,10.16-23.75,25.38s9.79,25.56,23.75,25.56a22.11,22.11,0,0,0,18.49-9.43l15,14c-5.8,8.16-16.67,16-34.62,16-27,0-46.4-19-46.4-46C2160.86,94.43,2180.25,75.4,2207.26,75.4Z"/><path class="cls-3" d="M2254.93,121.26c0-24.83,17.4-45.86,46.22-45.86,29,0,46.41,21,46.41,45.86,0,25-17.4,46-46.41,46C2272.33,167.3,2254.93,146.28,2254.93,121.26Zm68.7,0c0-13.59-8.16-25.38-22.48-25.38s-22.29,11.79-22.29,25.38c0,13.78,8,25.56,22.29,25.56S2323.63,135,2323.63,121.26Z"/><path class="cls-3" d="M2476.8,109.84c0-8.16-3.63-14-13.05-14-8.16,0-14.87,5.44-18.13,10.16v59.09h-23.2V109.84c0-8.16-3.63-14-13.05-14-8,0-14.69,5.44-18.13,10.34v58.91h-23V77.58h23V89c3.63-5.26,15.23-13.6,28.64-13.6,12.87,0,21,6,24.29,15.95,5.07-8,16.68-15.95,30.09-15.95,16.13,0,25.74,8.52,25.74,26.47v63.26h-23.2Z"/><path class="cls-4" d="M377.06,238.41h6.44V290.3h-6.44Z"/><path class="cls-4" d="M443.85,264.78c0-4.74-2.09-7.85-6.91-7.85a13.08,13.08,0,0,0-10,5.73v27.56h-5.84V264.71c0-4.74-2-7.86-6.91-7.86a13.12,13.12,0,0,0-9.88,5.81v27.48h-5.86V252.71h5.84v5.45a16.21,16.21,0,0,1,12.12-6.37,9.63,9.63,0,0,1,10.11,7,15.72,15.72,0,0,1,12.6-7c6.86,0,10.48,3.8,10.48,11.34V290.3H443.8Z"/><path class="cls-4" d="M509.8,264.78c0-4.74-2.09-7.85-6.91-7.85a13,13,0,0,0-9.95,5.73v27.56h-5.85V264.71c0-4.74-2-7.86-6.91-7.86a13.08,13.08,0,0,0-9.87,5.81v27.48h-5.85V252.71h5.85v5.45a16.21,16.21,0,0,1,12.12-6.37,9.64,9.64,0,0,1,10.11,7,15.72,15.72,0,0,1,12.6-7c6.86,0,10.48,3.8,10.48,11.34V290.3H509.8Z"/><path class="cls-4" d="M546.76,251.79c11.37,0,18,8.86,18,20.14v1.47H534.4a13.22,13.22,0,0,0,13.35,13.1h.19a16.41,16.41,0,0,0,11.58-4.74l2.8,3.82a20.46,20.46,0,0,1-14.93,5.74c-11.13,0-19.15-8-19.15-19.75C528.24,260.57,536,251.79,546.76,251.79ZM534.4,269.13h24.65a12.15,12.15,0,0,0-11.78-12.51h-.59A12.52,12.52,0,0,0,534.4,269.13Z"/><path class="cls-4" d="M604.54,284.69a15.7,15.7,0,0,1-12.68,6.52c-9.79,0-16.71-7.46-16.71-19.67s6.84-19.75,16.71-19.75a15.73,15.73,0,0,1,12.68,6.6v-20h5.84V290.3h-5.84Zm0-21.63A14.1,14.1,0,0,0,593.28,257c-7.54,0-12.08,6.2-12.08,14.53S585.74,286,593.28,286a14,14,0,0,0,11.26-5.89Z"/><path class="cls-4" d="M624.16,242.44a3.93,3.93,0,1,1,3.93,3.93A3.93,3.93,0,0,1,624.16,242.44Zm1,10.27H631V290.3h-5.85Z"/><path class="cls-4" d="M669.26,286a16.24,16.24,0,0,1-12.44,5.24,12.5,12.5,0,0,1-13.08-11.88c0-.19,0-.37,0-.56,0-8.41,6.75-12.37,13.09-12.37a15.72,15.72,0,0,1,12.44,5.24v-6.75c0-5.06-4.06-7.86-9.48-7.86a14.84,14.84,0,0,0-11.52,5.24l-2.62-4.06a19.72,19.72,0,0,1,15-6.21c7.85,0,14.56,3.56,14.56,12.68v25.82h-5.84Zm0-10.71a12.59,12.59,0,0,0-10.34-4.69,8.43,8.43,0,0,0-9.21,7.58c0,.22,0,.45,0,.67,0,4.74,3.8,8.17,9.25,8.17a12.56,12.56,0,0,0,10.34-4.66Z"/><path class="cls-4" d="M691,282.44v-24.6h-6.21V252.6H691V242.44h5.84v10.27h7.62V258h-7.62v23.34c0,2.8,1.26,4.82,3.82,4.82a5.6,5.6,0,0,0,4-1.55l1.7,4.35a9.44,9.44,0,0,1-7,2.41C693.83,291.21,691,288,691,282.44Z"/><path class="cls-4" d="M732.18,251.79c11.36,0,18,8.86,18,20.14v1.47H719.81a13.23,13.23,0,0,0,13.36,13.1h.19a16.38,16.38,0,0,0,11.57-4.74l2.81,3.82a20.5,20.5,0,0,1-14.93,5.74c-11.14,0-19.15-8-19.15-19.75C713.66,260.57,721.44,251.79,732.18,251.79Zm-12.37,17.34h24.65a12.15,12.15,0,0,0-11.78-12.51h-.58A12.53,12.53,0,0,0,719.81,269.13Z"/><path class="cls-4" d="M763.69,278.06A21.81,21.81,0,0,0,780,285.48c9.28,0,12.21-5,12.21-9,0-6.21-6.29-7.86-13.1-9.8-8.33-2.17-17.57-4.5-17.57-14.69,0-8.57,7.62-14.41,17.81-14.41a24.3,24.3,0,0,1,18.33,7.26L794,249.51a19.85,19.85,0,0,0-15-6.23c-6.23,0-10.66,3.35-10.66,8.25s6,6.76,12.6,8.57c8.49,2.25,18.13,4.89,18.13,15.71,0,7.54-5.24,15.25-19.15,15.25A25.76,25.76,0,0,1,760,282.83Z"/><path class="cls-4" d="M834.93,286a16.24,16.24,0,0,1-12.44,5.24,12.5,12.5,0,0,1-13.08-11.88c0-.19,0-.37,0-.56,0-8.41,6.76-12.37,13.1-12.37a15.73,15.73,0,0,1,12.44,5.24v-6.75c0-5.06-4.06-7.86-9.51-7.86a14.88,14.88,0,0,0-11.5,5.24l-2.62-4.06a19.67,19.67,0,0,1,15-6.21c7.86,0,14.54,3.56,14.54,12.68v25.82H835Zm0-10.71a12.59,12.59,0,0,0-10.35-4.69,8.46,8.46,0,0,0-9.23,7.61c0,.21,0,.42,0,.64,0,4.74,3.83,8.17,9.27,8.17a12.57,12.57,0,0,0,10.35-4.66Z"/><path class="cls-4" d="M849.94,252.71h6.28l12.52,30.85,12.47-30.8h6.37l-15.72,37.59H865.5Z"/><path class="cls-4" d="M895.75,242.44a3.87,3.87,0,0,1,3.87-3.87h0a3.93,3.93,0,0,1,4,3.87h0a3.93,3.93,0,0,1-7.86,0Zm1,10.27h5.84V290.3h-5.84Z"/><path class="cls-4" d="M942.71,265.7c0-6.6-3.33-8.69-8.38-8.69a14.53,14.53,0,0,0-11.13,5.81V290.3h-5.84V252.71h5.84v5.45a18.67,18.67,0,0,1,13.38-6.37c7.86,0,12,4,12,12.13V290.3h-5.84Z"/><path class="cls-4" d="M966.21,295.59a14.37,14.37,0,0,0,12.2,5.24c6.24,0,12.08-3,12.08-11.27v-5.37a15.7,15.7,0,0,1-12.6,6.68c-9.82,0-16.74-7.31-16.74-19.43s6.84-19.52,16.74-19.52a15.75,15.75,0,0,1,12.6,6.6v-5.68h5.81v36.49c0,12.44-8.7,16.34-17.89,16.34a19.28,19.28,0,0,1-15.16-5.6Zm24.22-32.53A13.91,13.91,0,0,0,979.22,257c-7.54,0-12.05,6-12.05,14.3s4.51,14.32,12.05,14.32a14,14,0,0,0,11.21-6.15Z"/><path class="cls-4" d="M1010.86,281.1a17,17,0,0,0,12.37,5.37c5.73,0,8.85-2.62,8.85-6.21,0-4.13-4.58-5.44-9.64-6.7-6.36-1.47-13.62-3.2-13.62-10.95,0-5.84,5.06-10.82,14-10.82a19,19,0,0,1,13.91,5.45l-2.62,4a14.58,14.58,0,0,0-11.18-4.74c-5.24,0-8.33,2.34-8.33,5.69s4.29,4.82,9.19,6c6.52,1.49,14.07,3.35,14.07,11.68,0,6.29-5.06,11.34-14.77,11.34a20,20,0,0,1-15.17-5.89Z"/><path class="cls-4" d="M1049,297.76a11.63,11.63,0,0,0,5.06-7.23,4.05,4.05,0,0,1-1.1,0,3.7,3.7,0,0,1-3.76-3.63c0-.11,0-.22,0-.32a4.17,4.17,0,0,1,4.14-4.19h0a5.23,5.23,0,0,1,4.93,5.52c0,.13,0,.25,0,.37a15,15,0,0,1-6.39,11.76Z"/><path class="cls-4" d="M1072.28,278.06a22,22,0,0,0,16.35,7.42c9.24,0,12.2-5,12.2-9,0-6.21-6.28-7.86-13.09-9.8-8.3-2.17-17.58-4.5-17.58-14.69,0-8.57,7.63-14.41,17.81-14.41a24.36,24.36,0,0,1,18.34,7.26l-3.83,4.63a19.83,19.83,0,0,0-15-6.23c-6.21,0-10.63,3.35-10.63,8.25s6,6.76,12.59,8.57c8.46,2.25,18.13,4.89,18.13,15.71,0,7.54-5.24,15.25-19.15,15.25a25.69,25.69,0,0,1-19.9-8.23Z"/><path class="cls-4" d="M1119,242.44a3.93,3.93,0,1,1,3.93,3.93A3.93,3.93,0,0,1,1119,242.44Zm1,10.27h5.81V290.3h-5.81Z"/><path class="cls-4" d="M1186,264.78c0-4.74-2.09-7.85-6.94-7.85a13.19,13.19,0,0,0-10,5.73v27.56h-5.82V264.71c0-4.74-2-7.86-6.94-7.86a13.08,13.08,0,0,0-9.87,5.81v27.48h-5.82V252.71h5.82v5.45a16.29,16.29,0,0,1,12.12-6.37,9.69,9.69,0,0,1,10.14,7,15.72,15.72,0,0,1,12.6-7c6.84,0,10.48,3.8,10.48,11.34V290.3H1186Z"/><path class="cls-4" d="M1206.63,304.52V252.71h5.81v5.6a15.75,15.75,0,0,1,12.68-6.52c9.9,0,16.73,7.47,16.73,19.67s-6.83,19.75-16.73,19.75a15.37,15.37,0,0,1-12.68-6.6v19.91Zm17-47.59a14,14,0,0,0-11.21,6v17a14,14,0,0,0,11.21,6.05c7.54,0,12-6.21,12-14.54S1231.19,257,1223.55,257Z"/><path class="cls-4" d="M1254.37,238.41h5.85V290.3h-5.85Z"/><path class="cls-4" d="M1291.31,251.79c11.36,0,18,8.86,18,20.14v1.47h-30.41a13.23,13.23,0,0,0,13.36,13.1h.18a16.35,16.35,0,0,0,11.58-4.74l2.8,3.82a20.37,20.37,0,0,1-14.93,5.74c-11.1,0-19.12-8-19.12-19.75C1272.81,260.57,1280.59,251.79,1291.31,251.79Zm-12.37,17.34h24.68a12.17,12.17,0,0,0-11.84-12.51h-.55A12.55,12.55,0,0,0,1278.94,269.13Z"/><path class="cls-4" d="M1322.11,238.41h34.05v5.87h-27.58V261h27v5.76h-27v17.89h27.53v5.76h-34Z"/><path class="cls-4" d="M1394.61,265.7c0-6.6-3.35-8.69-8.41-8.69a14.59,14.59,0,0,0-11.13,5.81V290.3h-5.82V252.71h5.82v5.45a18.69,18.69,0,0,1,13.38-6.37c7.86,0,12,4,12,12.13V290.3h-5.81Z"/><path class="cls-4" d="M1415.22,252.71H1421v6.08a16,16,0,0,1,12.52-6.84v6a9.65,9.65,0,0,0-2.33-.23,13.8,13.8,0,0,0-10.19,6V290.3h-5.82Z"/><path class="cls-4" d="M1441.81,271.46c0-10.89,7.15-19.67,18.59-19.67s18.6,8.78,18.6,19.67-7.18,19.75-18.6,19.75S1441.81,282.36,1441.81,271.46Zm31,0c0-7.62-4.42-14.45-12.44-14.45s-12.52,6.83-12.52,14.45S1452.39,286,1460.4,286,1472.84,279.16,1472.84,271.46Z"/><path class="cls-4" d="M1491.6,238.41h5.81V290.3h-5.81Z"/><path class="cls-4" d="M1512.19,238.41H1518V290.3h-5.84Z"/><path class="cls-4" d="M1578.14,264.78c0-4.74-2.1-7.85-6.92-7.85a13.08,13.08,0,0,0-10,5.73v27.56h-5.84V264.71c0-4.74-2-7.86-6.92-7.86a13.08,13.08,0,0,0-9.87,5.81v27.48h-5.84V252.71h5.84v5.45a16.22,16.22,0,0,1,12.13-6.37,9.65,9.65,0,0,1,10.11,7,15.71,15.71,0,0,1,12.6-7c6.86,0,10.47,3.8,10.47,11.34V290.3h-5.84Z"/><path class="cls-4" d="M1615.1,251.79c11.36,0,18,8.86,18,20.14v1.47h-30.41a13.23,13.23,0,0,0,13.36,13.1h.18a16.39,16.39,0,0,0,11.58-4.74l2.8,3.82a20.46,20.46,0,0,1-14.93,5.74c-11.13,0-19.14-8-19.14-19.75C1596.58,260.57,1604.36,251.79,1615.1,251.79Zm-12.37,17.34h24.65a12.15,12.15,0,0,0-11.78-12.51H1615A12.52,12.52,0,0,0,1602.73,269.13Z"/><path class="cls-4" d="M1671,265.7c0-6.6-3.36-8.69-8.41-8.69a14.49,14.49,0,0,0-11.11,5.81V290.3h-5.84V252.71h5.84v5.45a18.71,18.71,0,0,1,13.39-6.37c7.86,0,12,4,12,12.13V290.3H1671Z"/><path class="cls-4" d="M1692.81,282.44v-24.6h-6.24V252.6h6.24V242.44h5.81v10.27h7.63V258h-7.63v23.34c0,2.8,1.26,4.82,3.83,4.82a5.58,5.58,0,0,0,4-1.55l1.7,4.24a9.5,9.5,0,0,1-7,2.41C1695.58,291.21,1692.81,288,1692.81,282.44Z"/><path class="cls-5" d="M0,21.82v227s13.09-8.74,27.64,14.54,23.28,40.74,40.74,39.29,33.46,5.81,33.46,5.81l20.37-8.72,34.91,30.55s24.74-26.19,27.65-39.29S211,270.61,211,270.61s-7.28-14.55,11.63-21.82,27.64-4.37,36.38-17.46,2.91-37.83,11.64-39.29,21.82-65.46,21.82-65.46V0s-21.83,0-32,10.19S221.14,39.28,211,39.28,173.13,48,173.13,48H138.21L87.29,24.73S0,24.73,0,21.82Z"/><path class="cls-6" d="M0,128.51v2.29L69.86,167,0,159.25V163l66.81,19.35L0,188.09v4.18L66.81,198,0,217.35v3.76l69.86-7.77-65.55,34a14.93,14.93,0,0,1,7.32.83l64.22-20.37-47,37.55,2.81,4.56,52.84-29.1-40.42,48q1.55,2,3.1,3.79L95.6,251.86l-28,50.81.77-.05a56,56,0,0,1,6.7-.16l33.52-41.92L94.28,305.72a72.39,72.39,0,0,1,7.14,2.53l21.63-41.72L119.22,301l3-1.29,6,5.21,10.23-35.33,4.11,47.88,6.91,6.05L154,269.58l14,48.23c2-2.48,4.16-5.17,6.2-7.91l-4.82-43.37,14.35,27.69a22.27,22.27,0,0,0,1-3.24,18.34,18.34,0,0,1,5.8-9.17l-6.74-21.27L197,277a69.66,69.66,0,0,1,10.79-5.27l-11-19.89,12.83,10.8c.36-3.54,2.14-7.66,7.33-11.06l-9.1-10.8,14.59,8,.11,0a124.24,124.24,0,0,1,14.59-4.52l-20.6-16.48,35.13,11.14a25.94,25.94,0,0,0,6.81-7l-36-18.64,41,4.56c.47-2.88.76-5.81,1-8.61l-39-11.29,41.78-3.58a4.55,4.55,0,0,1,3.21-2.38c1.46-.24,3.05-2.25,4.68-5.42l-49.67-4.26,57.2-16.57c.55-1.86,1.08-3.75,1.6-5.65L222.56,167l68.86-35.69.57-2.68-75.41,23.92,71.47-57.16-80.16,44.15,58.94-70-70,58.94L241,48.35l-57.15,71.46,25.52-80.47-1.43.13-38.54,74.36,7.44-66.95c-2.29.69-3.69,1.13-3.69,1.13h-.91L154,110.78,148.65,48h-4.87l-5.39,62.77L117.47,38.53l-2.94-1.35,8.52,76.65L80.94,32.59l27.66,87.22L51.45,48.35,95.6,128.5l-70-58.94,58.94,70L4.38,95.41l71.47,57.16L0,128.51Z"/><g class="cls-7"><path class="cls-8" d="M56.88,147.29H83.17V161h3.32v-9.76h24V141.07h2.66v-2.58l2.28-1.48,8-5.2,2.71-1.76,2.71,1.76,7.39,4.81v-8H168.8v12H197v-5.77h15.75V142h5.77v7.54H220V142h5.77v-7.1h15.75v17.3h16.19v-7.74h2.62v-3.57h2.71v-2.36l2.28-1.48,8-5.2,2.71-1.76,2.71,1.76,8,5.2,2.28,1.48v2.36h2.71v3.57h1.84L292,150.6c-2.34,9.42-5.23,20-8.21,28.41-3.49,9.85-7.66,17.16-12.4,18-.72.12-1.2,5.33-1.76,11.59l0,.39h-10l.11-1.28c.95-10.45,1.73-19.15,10-20.53.46-.08,2.3-4.82,4.65-11.43,2.59-7.32,5.13-16.43,7.27-24.86h-2.66v-7l-3-2-3,2v7h-2.7v3.57h-2.62v32.14H250.21v-24.4h-4v39.32H231.57V151.94H230v7.54H208.51v-7.54H207v41.95H192.53V165.25h-4.88V150.61h-9.09v35H163.25V167h-4.44v-28.4H146.17v53.28H131.75V151.06h-2.66v-7.19l-3-2-3,2v7.19h-2.66v35.49h-12.2v-8.43h-4.89V161.26H96.48V171H92v17.84H73.18V157.27H61.87v23.07H58.32v20.21H42.12V207H23.27V149.55l-5.88,4.62v34.56H5v20.21H-5V178.75H7.41V149.34l1.91-1.5,15.86-12.49L33.25,129v28H48.12v13.31h3.77V147.29Z"/></g><path class="cls-9" d="M56.88,152.28H78.17V175h8.88V166h4.44v-9.76h16.85v16.86h4.89v4.75h2.21V146.06h2.67v-4.88l8-5.19,8,5.19v4.88h2.66v24.83h4.44V133.64H163.8V162h4.44v18.63h5.32v-35h19.08v14.64h4.88v17.62H202v-38h5.77V147h5.77v7.54H225V147h5.77v-7.1h5.76v56.63h4.67V157.16h14v24.4h7.55V149.41h2.62v-3.57h2.7v-4.66l8-5.19,8,5.19v4.66h2.71v3.57h.46C282.6,168,275.82,191.17,270.61,192c-8.73,1.46-2.91,26.19-11.64,39.29s-17.46,10.18-36.38,17.46S211,270.61,211,270.61s-23.28,7.27-26.19,20.37-27.65,39.28-27.65,39.28L122.21,299.7l-20.37,8.73s-16-7.27-33.46-5.81-26.19-16-40.74-39.29S0,248.79,0,248.79v-65H12.4v-32l15.86-12.49v61.78h6V162h8.87v13.31h4v4.52h6.21v-4.52h3.55V152.28Z"/></svg>