<svg xmlns="http://www.w3.org/2000/svg" viewBox="0 0 131.6 131.6"><defs><style>.cls-1{fill:#e88d3c;fill-rule:evenodd;}</style></defs><title>fbhc-icon-Asset 1</title><g id="Layer_2" data-name="Layer 2"><g id="Layer_1-2" data-name="Layer 1"><path class="cls-1" d="M42.86,42.63c2.52.56,4.93,1.42,6.35,3.37a1.47,1.47,0,0,0-.41-1.16A120.31,120.31,0,0,0,34,33.07,66.12,66.12,0,0,1,42.86,42.63Z"/><path class="cls-1" d="M24.48,42.63a66.12,66.12,0,0,1,8.91-9.56A119.37,119.37,0,0,0,18.54,44.84,1.47,1.47,0,0,0,18.13,46C19.55,44.05,22,43.19,24.48,42.63Z"/><path class="cls-1" d="M39,41.91c.59.1,1.06.15,2.06.35a60.23,60.23,0,0,0-7.32-9l.62,8.32A32.8,32.8,0,0,1,39,41.91Z"/><path class="cls-1" d="M28.32,41.91a32.42,32.42,0,0,1,4.62-.33l.64-8.32a60.23,60.23,0,0,0-7.32,9C27.24,42.06,27.71,42,28.32,41.91Z"/><path class="cls-1" d="M61.22,41.91a32.42,32.42,0,0,1,4.62-.33l.64-8.32a60.23,60.23,0,0,0-7.32,9C60.16,42.06,60.63,42,61.22,41.91Z"/><path class="cls-1" d="M57.39,42.63a66.25,66.25,0,0,1,8.93-9.56A119.37,119.37,0,0,0,51.47,44.84,1.47,1.47,0,0,0,51.06,46C52.47,44.05,54.87,43.19,57.39,42.63Z"/><path class="cls-1" d="M75.78,42.63c2.52.56,4.93,1.42,6.34,3.37a1.5,1.5,0,0,0-.4-1.16A120.31,120.31,0,0,0,66.87,33.07,66.64,66.64,0,0,1,75.78,42.63Z"/><path class="cls-1" d="M72,41.91c.6.1,1.06.15,2.07.35a60.86,60.86,0,0,0-7.32-9l.61,8.32A32.8,32.8,0,0,1,72,41.91Z"/><path class="cls-1" d="M94.32,41.91a32.42,32.42,0,0,1,4.62-.33l.64-8.32a60.23,60.23,0,0,0-7.32,9C93.32,42.06,93.75,42,94.32,41.91Z"/><path class="cls-1" d="M90.52,42.63a66.12,66.12,0,0,1,8.91-9.56A120.31,120.31,0,0,0,84.58,44.84,1.47,1.47,0,0,0,84.17,46C85.59,44.05,88,43.19,90.52,42.63Z"/><path class="cls-1" d="M105.08,41.91c.59.1,1.06.15,2.06.35a60.23,60.23,0,0,0-7.32-9l.62,8.32A32.8,32.8,0,0,1,105.08,41.91Z"/><path class="cls-1" d="M108.9,42.63c2.52.56,4.93,1.42,6.35,3.37a1.47,1.47,0,0,0-.41-1.16A120.31,120.31,0,0,0,100,33.07,66.12,66.12,0,0,1,108.9,42.63Z"/><path class="cls-1" d="M65.8,0a65.8,65.8,0,1,0,65.8,65.8A65.8,65.8,0,0,0,65.8,0Zm0,127.18A61.38,61.38,0,1,1,127.18,65.8h0A61.38,61.38,0,0,1,65.8,127.18Z"/><path class="cls-1" d="M117.26,77.83c-.85-.36-1.76-.73-2.72-1.1V47.05a.34.34,0,0,0,.13-.46l-.06-.08c-1.18-1.56-3.29-2.44-5.57-2.95v1.53L107.32,45V43.3a52.81,52.81,0,0,0-7-.4c-2.53-.07-14.1.85-15.77,4.28a2.5,2.5,0,0,0,0,1.62V70.43c-1-.06-2.1-.11-3.17-.15V47.05a.34.34,0,0,0,.13-.46l-.06-.08c-1.18-1.56-3.3-2.44-5.57-2.95v1.53L74.23,45V43.3a52.81,52.81,0,0,0-7-.4c-2.53-.07-14.1.85-15.78,4.28a2.5,2.5,0,0,0,0,1.62V72.59c-1,.18-2,.35-3,.55V47.05a.34.34,0,0,0,.13-.46l-.06-.08C47.34,45,45.22,44.07,43,43.56v1.53L41.32,45V43.3a52.81,52.81,0,0,0-7-.4c-2.53-.07-14.1.85-15.78,4.28a2.5,2.5,0,0,0,0,1.62v33c-2.52.92-5.08,1.9-7.69,3A57.94,57.94,0,0,0,16.94,97c40.14-32.45,81.94-24.51,95.43-20.7.22.07.44.13.65.21h0l1,.36V76.8l.23.07V77l.3.1V77c1.49.47,2.3.79,2.32.79-.15-.06-53.71-14.37-93.77,27.15a58.73,58.73,0,0,0,13.34,10.72C66.07,68.77,117.13,77.81,117.26,77.83Zm-9.94-32.14,1.69.14V48l-1.69-.19Zm0,2.86,1.69.13V50.8l-1.69-.13Zm0,2.85,1.69.14v2.12l-1.69-.14Zm0,2.86,1.69.13v2.12l-1.69-.13Zm0,2.86,1.69.13v2.12l-1.69-.13Zm0,2.88,1.69.14v2.11l-1.69-.16Zm0,2.86L109,63v2.12L107.32,65Zm0,2.85,1.69.14V68l-1.69-.17Zm0,2.86,1.69.13v2.12l-1.69-.16Zm0,2.85,1.69.14v2.12l-1.69-.17Zm1.69,3v.44l-1.69-.55v-.06ZM81.12,47.15V70.27h-.28l-.18-23.4Zm-6.89-1.46,1.69.14V48l-1.69-.14Zm0,2.86,1.69.13V50.8l-1.69-.13Zm0,2.85,1.69.14v2.12l-1.69-.14Zm0,2.86,1.69.13v2.12l-1.69-.13Zm0,2.86,1.69.13v2.12l-1.69-.13Zm0,2.85,1.69.14v2.11l-1.69-.13Zm0,2.86,1.69.13v2.12L74.23,65Zm0,2.85,1.69.14v2.12l-1.69-.14Zm1.69,3V70.2H74.23V68.54ZM48.2,47.15V73.21l-.26.05-.2-26.4Zm-6.88-1.46,1.69.14V48l-1.69-.19Zm0,2.86,1.69.13V50.8l-1.69-.13Zm0,2.85,1.69.14v2.12l-1.69-.14Zm0,2.86,1.69.13v2.12l-1.69-.13Zm0,2.86,1.69.13v2.12l-1.69-.13Zm0,2.88,1.69.14v2.11l-1.69-.16Zm0,2.86L43,63v2.12L41.32,65Zm0,2.85,1.69.14V68l-1.69-.17Zm0,2.86L43,68.7v2.12l-1.69-.16Zm0,2.85,1.69.14v2.12l-1.69-.17Zm1.55,3-1.55.37V74.3Zm-24,7.23.27-.1h0l-.26.1ZM114,76.58l-.23-29.67.46.29V76.62Z"/><path class="cls-1" d="M88.64,119a58.54,58.54,0,0,0,33.68-38.82S103,79.2,88.64,119Z"/><path class="cls-1" d="M120.1,79.1C67,78.49,51.51,121.7,51.47,121.81a58.59,58.59,0,0,0,14.44,1.8c1.47,0,2.93-.06,4.38-.16C70.32,123.29,89.44,83.28,120.1,79.1Z"/></g></g></svg>