<svg xmlns="http://www.w3.org/2000/svg" viewBox="0 0 711.81 233.25"><defs><style>.cls-1{fill:#e88d3c;fill-rule:evenodd;}.cls-2{fill:#e83c3c;}.cls-3{fill:#6c6a6c;}</style></defs><title>fbhc-logo-full-colorAsset 1</title><g id="Layer_2" data-name="Layer 2"><g id="Layer_1-2" data-name="Layer 1"><path class="cls-1" d="M327.54,42.63c2.52.56,4.93,1.42,6.35,3.37a1.5,1.5,0,0,0-.41-1.16,120.44,120.44,0,0,0-14.85-11.77A65.9,65.9,0,0,1,327.54,42.63Z"/><path class="cls-1" d="M309.16,42.63a65.9,65.9,0,0,1,8.91-9.56,119.69,119.69,0,0,0-14.85,11.77,1.47,1.47,0,0,0-.41,1.16C304.23,44.05,306.63,43.19,309.16,42.63Z"/><path class="cls-1" d="M323.72,41.91c.59.1,1.06.15,2.06.35a60.17,60.17,0,0,0-7.32-9l.62,8.32A34,34,0,0,1,323.72,41.91Z"/><path class="cls-1" d="M313,41.91a33.67,33.67,0,0,1,4.62-.33l.64-8.32a60.17,60.17,0,0,0-7.32,9C311.92,42.06,312.39,42,313,41.91Z"/><path class="cls-1" d="M345.9,41.91a33.67,33.67,0,0,1,4.62-.33l.64-8.32a60.17,60.17,0,0,0-7.32,9C344.84,42.06,345.31,42,345.9,41.91Z"/><path class="cls-1" d="M342.07,42.63A66.37,66.37,0,0,1,351,33.07a119.69,119.69,0,0,0-14.85,11.77,1.47,1.47,0,0,0-.41,1.16C337.15,44.05,339.55,43.19,342.07,42.63Z"/><path class="cls-1" d="M360.46,42.63c2.52.56,4.93,1.42,6.34,3.37a1.49,1.49,0,0,0-.4-1.16,120.44,120.44,0,0,0-14.85-11.77A66.48,66.48,0,0,1,360.46,42.63Z"/><path class="cls-1" d="M356.63,41.91c.6.1,1.06.15,2.07.35a60.81,60.81,0,0,0-7.32-9l.61,8.32A33.86,33.86,0,0,1,356.63,41.91Z"/><path class="cls-1" d="M379,41.91a33.67,33.67,0,0,1,4.62-.33l.64-8.32a60.17,60.17,0,0,0-7.32,9C378,42.06,378.43,42,379,41.91Z"/><path class="cls-1" d="M375.2,42.63a65.9,65.9,0,0,1,8.91-9.56,120.44,120.44,0,0,0-14.85,11.77,1.5,1.5,0,0,0-.41,1.16C370.27,44.05,372.68,43.19,375.2,42.63Z"/><path class="cls-1" d="M389.76,41.91c.59.1,1.06.15,2.06.35a60.17,60.17,0,0,0-7.32-9l.62,8.32A34,34,0,0,1,389.76,41.91Z"/><path class="cls-1" d="M393.58,42.63c2.52.56,4.93,1.42,6.35,3.37a1.5,1.5,0,0,0-.41-1.16,120.44,120.44,0,0,0-14.85-11.77A65.9,65.9,0,0,1,393.58,42.63Z"/><path class="cls-1" d="M350.48,0a65.8,65.8,0,1,0,65.8,65.8A65.8,65.8,0,0,0,350.48,0Zm0,127.18A61.38,61.38,0,1,1,411.86,65.8,61.38,61.38,0,0,1,350.48,127.18Z"/><path class="cls-1" d="M401.94,77.83c-.85-.36-1.76-.73-2.72-1.1V47.05a.34.34,0,0,0,.07-.54c-1.18-1.56-3.29-2.44-5.57-2.95v1.53L392,45v-1.7a53.19,53.19,0,0,0-7-.4c-2.53-.07-14.1.85-15.77,4.28a2.5,2.5,0,0,0,0,1.62V70.43c-1-.06-2.1-.11-3.17-.15V47.05a.34.34,0,0,0,.07-.54c-1.18-1.56-3.3-2.44-5.57-2.95v1.53L358.91,45v-1.7a53.27,53.27,0,0,0-7-.4c-2.53-.07-14.1.85-15.78,4.28a2.48,2.48,0,0,0,0,1.62V72.59c-1,.18-2,.35-3,.55V47.05a.34.34,0,0,0,.07-.54c-1.18-1.56-3.3-2.44-5.57-2.95v1.53L326,45v-1.7a53.19,53.19,0,0,0-7-.4c-2.53-.07-14.1.85-15.78,4.28a2.55,2.55,0,0,0,0,1.62v33c-2.52.92-5.08,1.9-7.69,3A57.72,57.72,0,0,0,301.62,97c40.14-32.45,81.94-24.51,95.43-20.7.22.07.44.13.65.21h0l1,.36V76.8l.23.07V77l.3.1V77c1.49.47,2.3.79,2.32.79-.15-.06-53.71-14.37-93.77,27.15a58.84,58.84,0,0,0,13.34,10.72C350.75,68.77,401.81,77.81,401.94,77.83ZM392,45.69l1.69.14V48L392,47.81Zm0,2.86,1.69.13V50.8L392,50.67Zm0,2.85,1.69.14v2.12L392,53.52Zm0,2.86,1.69.13v2.12L392,56.38Zm0,2.86,1.69.13v2.12L392,59.24ZM392,60l1.69.14v2.11L392,62.09Zm0,2.86,1.69.13v2.12L392,65Zm0,2.85,1.69.14v2.12L392,67.8Zm0,2.86,1.69.13v2.12L392,70.66Zm0,2.85,1.69.14v2.12L392,73.51Zm1.69,3v.44L392,74.31v-.06ZM365.8,47.15V70.27h-.28l-.18-23.4Zm-6.89-1.46,1.69.14V48l-1.69-.14Zm0,2.86,1.69.13V50.8l-1.69-.13Zm0,2.85,1.69.14v2.12l-1.69-.14Zm0,2.86,1.69.13v2.12l-1.69-.13Zm0,2.86,1.69.13v2.12l-1.69-.13Zm0,2.85,1.69.14v2.11l-1.69-.13Zm0,2.86,1.69.13v2.12L358.91,65Zm0,2.85,1.69.14v2.12l-1.69-.14Zm1.69,3V70.2l-1.69,0V68.54ZM332.88,47.15V73.21l-.26.05-.2-26.4ZM326,45.69l1.69.14V48L326,47.81Zm0,2.86,1.69.13V50.8L326,50.67Zm0,2.85,1.69.14v2.12L326,53.52Zm0,2.86,1.69.13v2.12L326,56.38Zm0,2.86,1.69.13v2.12L326,59.24ZM326,60l1.69.14v2.11L326,62.09Zm0,2.86,1.69.13v2.12L326,65Zm0,2.85,1.69.14v2.12L326,67.8Zm0,2.86,1.69.13v2.12L326,70.66Zm0,2.85,1.69.14v2.12L326,73.51Zm1.55,3-1.55.37v-.49Zm-24,7.23.27-.1v0l-.26.1Zm95.16-5.07-.23-29.67.46.29V76.62Z"/><path class="cls-1" d="M373.32,119A58.53,58.53,0,0,0,407,80.18S387.68,79.2,373.32,119Z"/><path class="cls-1" d="M404.78,79.1c-53.07-.61-68.59,42.6-68.63,42.71a58.71,58.71,0,0,0,14.44,1.8c1.47,0,2.93-.06,4.38-.16C355,123.29,374.12,83.28,404.78,79.1Z"/><path class="cls-2" d="M0,155.51H25.43v6.57H7.65v7.82H25.06v6.57H7.65v15H0Z"/><path class="cls-2" d="M47.31,188.76a10.76,10.76,0,0,1-8.24,3.34c-4.15,0-9-2.8-9-8.62,0-6.09,4.9-8.3,9.05-8.3,3.45,0,6.52,1.07,8.24,3.18v-3.61c0-2.64-2.26-4.37-5.71-4.37a11,11,0,0,0-7.6,3.07l-2.58-4.58a17.07,17.07,0,0,1,11.37-4.09c5.93,0,11.37,2.37,11.37,9.86v16.81H47.31Zm0-6.79a6.83,6.83,0,0,0-5.49-2.27c-2.7,0-4.91,1.41-4.91,3.94s2.21,3.82,4.91,3.82a6.82,6.82,0,0,0,5.49-2.26Z"/><path class="cls-2" d="M62,165.42h6.84V169a11.11,11.11,0,0,1,8.3-4.15v6.68a9.26,9.26,0,0,0-1.89-.21c-2.26,0-5.28,1.29-6.41,3v17.19H62Z"/><path class="cls-2" d="M114.78,175c0-2.43-1.08-4.15-3.88-4.15a6.92,6.92,0,0,0-5.39,3v17.57h-6.9V175c0-2.43-1.07-4.15-3.88-4.15a7,7,0,0,0-5.39,3.07v17.51H82.5v-26h6.84v3.4a11.41,11.41,0,0,1,8.52-4c3.82,0,6.25,1.78,7.22,4.74a11.05,11.05,0,0,1,9-4.74c4.79,0,7.65,2.53,7.65,7.86v18.81h-6.9Z"/><path class="cls-2" d="M129.65,155.51h18.92c6.84,0,10.35,4.36,10.35,9.16,0,4.53-2.81,7.54-6.2,8.24,3.82.6,6.9,4.32,6.9,8.84,0,5.39-3.61,9.7-10.46,9.7H129.65ZM146.9,170a4,4,0,1,0,0-7.92h-9.59V170Zm.27,15c2.91,0,4.63-1.67,4.63-4.26,0-2.26-1.61-4.2-4.63-4.2h-9.86v8.46Z"/><path class="cls-2" d="M183.86,188.16a12.14,12.14,0,0,1-9.16,3.94c-5.71,0-8.4-3.13-8.4-8.19V165.42h6.84v15.79c0,3.61,1.89,4.8,4.8,4.8a7.66,7.66,0,0,0,5.92-3V165.42h6.85v26h-6.85Z"/><path class="cls-2" d="M198.58,165.42h6.84V169a11.13,11.13,0,0,1,8.3-4.15v6.68a9.26,9.26,0,0,0-1.89-.21c-2.26,0-5.28,1.29-6.41,3v17.19h-6.84Z"/><path class="cls-2" d="M230.86,164.78c7.75,0,13,5.82,13,14.33v1.51H224.55c.43,3.29,3.07,6,7.49,6a10.61,10.61,0,0,0,7-2.59l3,4.42c-2.59,2.37-6.68,3.61-10.72,3.61-7.93,0-13.91-5.34-13.91-13.69A13.25,13.25,0,0,1,230.86,164.78ZM224.44,176h12.83a6,6,0,0,0-6.41-5.77A6.27,6.27,0,0,0,224.44,176Z"/><path class="cls-2" d="M265.56,188.76a10.78,10.78,0,0,1-8.25,3.34c-4.14,0-9.05-2.8-9.05-8.62,0-6.09,4.91-8.3,9.05-8.3,3.45,0,6.52,1.07,8.25,3.18v-3.61c0-2.64-2.27-4.37-5.71-4.37a11,11,0,0,0-7.6,3.07l-2.59-4.58A17.09,17.09,0,0,1,261,164.78c5.93,0,11.37,2.37,11.37,9.86v16.81h-6.84Zm0-6.79a6.85,6.85,0,0,0-5.5-2.27c-2.69,0-4.9,1.41-4.9,3.94s2.21,3.82,4.9,3.82a6.84,6.84,0,0,0,5.5-2.26Z"/><path class="cls-2" d="M297.84,188.16a12.18,12.18,0,0,1-9.16,3.94c-5.72,0-8.41-3.13-8.41-8.19V165.42h6.84v15.79c0,3.61,1.89,4.8,4.8,4.8a7.7,7.7,0,0,0,5.93-3V165.42h6.84v26h-6.84Z"/><path class="cls-2" d="M337.34,176.36h-17v15.09h-7.65V155.51h7.65v14.12h17V155.51H345v35.94h-7.7Z"/><path class="cls-2" d="M364.82,164.78c7.76,0,13,5.82,13,14.33v1.51H358.52c.43,3.29,3.07,6,7.49,6a10.63,10.63,0,0,0,6.95-2.59l3,4.42c-2.59,2.37-6.69,3.61-10.73,3.61-7.92,0-13.9-5.34-13.9-13.69A13.25,13.25,0,0,1,364.82,164.78ZM358.41,176h12.82a6,6,0,0,0-6.41-5.77A6.25,6.25,0,0,0,358.41,176Z"/><path class="cls-2" d="M399.52,188.76a10.76,10.76,0,0,1-8.24,3.34c-4.15,0-9-2.8-9-8.62,0-6.09,4.9-8.3,9-8.3,3.45,0,6.52,1.07,8.24,3.18v-3.61c0-2.64-2.26-4.37-5.71-4.37a11,11,0,0,0-7.6,3.07l-2.58-4.58A17.07,17.07,0,0,1,395,164.78c5.93,0,11.37,2.37,11.37,9.86v16.81h-6.85Zm0-6.79A6.83,6.83,0,0,0,394,179.7c-2.7,0-4.91,1.41-4.91,3.94s2.21,3.82,4.91,3.82a6.82,6.82,0,0,0,5.49-2.26Z"/><path class="cls-2" d="M414.24,155.51h6.84v35.94h-6.84Z"/><path class="cls-2" d="M430.29,185V171.41H426v-6h4.31v-7.11h6.9v7.11h5.28v6h-5.28v11.74c0,1.62.86,2.86,2.37,2.86a3.69,3.69,0,0,0,2.37-.76l1.46,5.18c-1,.91-2.86,1.67-5.71,1.67C432.88,192.1,430.29,189.62,430.29,185Z"/><path class="cls-2" d="M465.86,175.61c0-3.61-1.89-4.74-4.85-4.74a7.6,7.6,0,0,0-5.93,3.07v17.51h-6.84V155.51h6.84v13.31a12,12,0,0,1,9.16-4c5.71,0,8.46,3.12,8.46,8.19v18.48h-6.84Z"/><path class="cls-2" d="M479,173.51c0-11,8.35-18.59,18.86-18.59,8.19,0,12.77,4.31,15.3,8.78l-6.57,3.23a9.84,9.84,0,0,0-8.73-5.22c-6.25,0-11,5-11,11.8s4.74,11.8,11,11.8a9.73,9.73,0,0,0,8.73-5.23l6.57,3.18a16.68,16.68,0,0,1-15.3,8.84C487.36,192.1,479,184.55,479,173.51Z"/><path class="cls-2" d="M534.3,188.76a10.78,10.78,0,0,1-8.25,3.34c-4.15,0-9-2.8-9-8.62,0-6.09,4.9-8.3,9-8.3,3.45,0,6.52,1.07,8.25,3.18v-3.61c0-2.64-2.27-4.37-5.72-4.37a11,11,0,0,0-7.59,3.07l-2.59-4.58a17.09,17.09,0,0,1,11.37-4.09c5.93,0,11.37,2.37,11.37,9.86v16.81H534.3Zm0-6.79a6.85,6.85,0,0,0-5.5-2.27c-2.69,0-4.9,1.41-4.9,3.94s2.21,3.82,4.9,3.82a6.84,6.84,0,0,0,5.5-2.26Z"/><path class="cls-2" d="M549,165.42h6.84V169a11.15,11.15,0,0,1,8.3-4.15v6.68a9.15,9.15,0,0,0-1.88-.21c-2.27,0-5.28,1.29-6.42,3v17.19H549Z"/><path class="cls-2" d="M581.29,164.78c7.76,0,13,5.82,13,14.33v1.51H575c.43,3.29,3.07,6,7.49,6a10.66,10.66,0,0,0,7-2.59l3,4.42c-2.58,2.37-6.68,3.61-10.72,3.61-7.92,0-13.9-5.34-13.9-13.69A13.25,13.25,0,0,1,581.29,164.78ZM574.87,176H587.7a6,6,0,0,0-6.41-5.77A6.27,6.27,0,0,0,574.87,176Z"/><path class="cls-2" d="M603.65,183.31a4.37,4.37,0,1,1-4.36,4.37A4.43,4.43,0,0,1,603.65,183.31Z"/><path class="cls-2" d="M624.78,164.78c5.33,0,8.56,2.31,10.29,4.69l-4.47,4.2a6.32,6.32,0,0,0-5.5-2.8c-4.15,0-7.06,3-7.06,7.54S621,186,625.1,186a6.59,6.59,0,0,0,5.5-2.8l4.47,4.15c-1.73,2.42-5,4.74-10.29,4.74-8,0-13.8-5.66-13.8-13.69S616.75,164.78,624.78,164.78Z"/><path class="cls-2" d="M639,178.41c0-7.38,5.17-13.63,13.74-13.63s13.79,6.25,13.79,13.63-5.17,13.69-13.79,13.69S639,185.85,639,178.41Zm20.42,0c0-4-2.42-7.54-6.68-7.54s-6.63,3.5-6.63,7.54,2.37,7.6,6.63,7.6S659.37,182.51,659.37,178.41Z"/><path class="cls-2" d="M704.91,175c0-2.43-1.08-4.15-3.88-4.15a6.9,6.9,0,0,0-5.39,3v17.57h-6.9V175c0-2.43-1.08-4.15-3.88-4.15a7,7,0,0,0-5.39,3.07v17.51h-6.84v-26h6.84v3.4a11.41,11.41,0,0,1,8.52-4c3.82,0,6.25,1.78,7.22,4.74a11,11,0,0,1,8.94-4.74c4.8,0,7.66,2.53,7.66,7.86v18.81h-6.9Z"/><path class="cls-3" d="M158.48,213.24h1.91v15.42h-1.91Z"/><path class="cls-3" d="M178.33,221.08c0-1.41-.62-2.34-2.05-2.34a3.9,3.9,0,0,0-3,1.71v8.19h-1.74v-7.58c0-1.41-.6-2.34-2.05-2.34a3.88,3.88,0,0,0-2.94,1.73v8.17h-1.74V217.49h1.73v1.62a4.83,4.83,0,0,1,3.61-1.89,2.87,2.87,0,0,1,3,2.08,4.63,4.63,0,0,1,3.74-2.08c2,0,3.12,1.13,3.12,3.37v8.07h-1.74Z"/><path class="cls-3" d="M197.94,221.08c0-1.41-.62-2.34-2.05-2.34a3.9,3.9,0,0,0-3,1.71v8.19h-1.74v-7.58c0-1.41-.6-2.34-2.06-2.34a3.86,3.86,0,0,0-2.93,1.73v8.17h-1.74V217.49h1.74v1.62a4.79,4.79,0,0,1,3.6-1.89,2.86,2.86,0,0,1,3,2.08,4.65,4.65,0,0,1,3.75-2.08c2,0,3.11,1.13,3.11,3.37v8.07h-1.73Z"/><path class="cls-3" d="M208.93,217.22c3.38,0,5.36,2.63,5.36,6v.43h-9a3.94,3.94,0,0,0,4,3.9h.06a4.85,4.85,0,0,0,3.44-1.4l.83,1.13a6.07,6.07,0,0,1-4.43,1.71,5.88,5.88,0,0,1-.19-11.75Zm-3.68,5.15h7.33a3.62,3.62,0,0,0-3.5-3.72h-.17A3.73,3.73,0,0,0,205.25,222.37Z"/><path class="cls-3" d="M226.11,227a4.7,4.7,0,0,1-3.77,1.94c-2.91,0-5-2.22-5-5.85s2-5.87,5-5.87a4.67,4.67,0,0,1,3.77,2v-5.94h1.73v15.42h-1.73Zm0-6.43a4.2,4.2,0,0,0-3.35-1.8c-2.24,0-3.59,1.84-3.59,4.32s1.35,4.3,3.59,4.3a4.18,4.18,0,0,0,3.35-1.76Z"/><path class="cls-3" d="M231.94,214.44a1.17,1.17,0,1,1,1.17,1.17A1.17,1.17,0,0,1,231.94,214.44Zm.29,3.05H234v11.17h-1.74Z"/><path class="cls-3" d="M245.35,227.39a4.8,4.8,0,0,1-3.7,1.55,3.71,3.71,0,0,1-3.89-3.53v-.16a3.65,3.65,0,0,1,3.89-3.68,4.7,4.7,0,0,1,3.7,1.56v-2c0-1.5-1.21-2.34-2.82-2.34a4.47,4.47,0,0,0-3.43,1.56l-.78-1.21a5.88,5.88,0,0,1,4.47-1.84c2.33,0,4.33,1.06,4.33,3.77v7.67h-1.74Zm0-3.19a3.77,3.77,0,0,0-3.08-1.39,2.5,2.5,0,0,0-2.74,2.25c0,.07,0,.13,0,.2a2.5,2.5,0,0,0,2.75,2.43,3.74,3.74,0,0,0,3.08-1.39Z"/><path class="cls-3" d="M251.82,226.33V219H250v-1.56h1.85v-3h1.74v3.05h2.26v1.56h-2.26V226c0,.84.37,1.44,1.13,1.44a1.67,1.67,0,0,0,1.18-.46l.5,1.29a2.81,2.81,0,0,1-2.08.72A2.32,2.32,0,0,1,251.82,226.33Z"/><path class="cls-3" d="M264.05,217.22c3.38,0,5.37,2.63,5.37,6v.43h-9a3.93,3.93,0,0,0,4,3.9h0a4.85,4.85,0,0,0,3.44-1.4l.84,1.13a6.11,6.11,0,0,1-4.44,1.71,5.88,5.88,0,0,1-.19-11.75Zm-3.67,5.15h7.32a3.61,3.61,0,0,0-3.5-3.72H264A3.72,3.72,0,0,0,260.38,222.37Z"/><path class="cls-3" d="M273.42,225a6.52,6.52,0,0,0,4.85,2.2c2.76,0,3.63-1.48,3.63-2.66,0-1.85-1.87-2.34-3.89-2.91-2.48-.65-5.23-1.34-5.23-4.37,0-2.55,2.27-4.29,5.3-4.29a7.23,7.23,0,0,1,5.45,2.16l-1.1,1.38a5.88,5.88,0,0,0-4.46-1.85c-1.86,0-3.17,1-3.17,2.45s1.78,2,3.74,2.55c2.53.67,5.39,1.45,5.39,4.67,0,2.24-1.56,4.53-5.69,4.53a7.62,7.62,0,0,1-5.92-2.45Z"/><path class="cls-3" d="M294.6,227.39a4.8,4.8,0,0,1-3.7,1.55,3.71,3.71,0,0,1-3.89-3.53v-.16a3.65,3.65,0,0,1,3.89-3.68,4.68,4.68,0,0,1,3.7,1.56v-2c0-1.5-1.21-2.34-2.83-2.34a4.47,4.47,0,0,0-3.42,1.56l-.77-1.21a5.81,5.81,0,0,1,4.46-1.84c2.33,0,4.32,1.06,4.32,3.77v7.67h-1.73Zm0-3.19a3.77,3.77,0,0,0-3.08-1.39,2.51,2.51,0,0,0-2.74,2.26,1.21,1.21,0,0,0,0,.19,2.5,2.5,0,0,0,2.75,2.43,3.74,3.74,0,0,0,3.08-1.39Z"/><path class="cls-3" d="M299.06,217.49h1.87l3.72,9.17,3.71-9.15h1.89l-4.67,11.17h-1.89Z"/><path class="cls-3" d="M312.68,214.44a1.16,1.16,0,0,1,1.15-1.16h0a1.18,1.18,0,0,1,1.19,1.16h0a1.17,1.17,0,1,1-2.34,0Zm.3,3.05h1.73v11.17H313Z"/><path class="cls-3" d="M326.64,221.35c0-2-1-2.58-2.49-2.58a4.31,4.31,0,0,0-3.31,1.73v8.16H319.1V217.49h1.74v1.62a5.55,5.55,0,0,1,4-1.89c2.34,0,3.56,1.17,3.56,3.6v7.84h-1.74Z"/><path class="cls-3" d="M333.63,230.24a4.24,4.24,0,0,0,3.63,1.55c1.85,0,3.59-.89,3.59-3.34v-1.6a4.68,4.68,0,0,1-3.75,2c-2.92,0-5-2.17-5-5.77s2-5.8,5-5.8a4.67,4.67,0,0,1,3.75,2v-1.69h1.72v10.85c0,3.69-2.58,4.85-5.31,4.85a5.68,5.68,0,0,1-4.51-1.66Zm7.2-9.67a4.11,4.11,0,0,0-3.33-1.8c-2.25,0-3.59,1.77-3.59,4.25s1.34,4.26,3.59,4.26a4.17,4.17,0,0,0,3.33-1.83Z"/><path class="cls-3" d="M346.9,225.93a5.1,5.1,0,0,0,3.68,1.6c1.7,0,2.63-.78,2.63-1.85,0-1.23-1.36-1.62-2.86-2-1.9-.44-4.05-.95-4.05-3.26,0-1.73,1.5-3.21,4.16-3.21a5.62,5.62,0,0,1,4.14,1.62l-.78,1.2a4.34,4.34,0,0,0-3.33-1.41c-1.55,0-2.47.69-2.47,1.69s1.27,1.43,2.73,1.77c1.94.45,4.18,1,4.18,3.47,0,1.87-1.5,3.38-4.39,3.38a6,6,0,0,1-4.51-1.76Z"/><path class="cls-3" d="M358.23,230.88a3.43,3.43,0,0,0,1.51-2.15.91.91,0,0,1-.33,0,1.1,1.1,0,0,1-1.12-1.08.28.28,0,0,1,0-.09,1.23,1.23,0,0,1,1.23-1.25h0A1.56,1.56,0,0,1,361,228a.34.34,0,0,1,0,.1,4.45,4.45,0,0,1-1.9,3.5Z"/><path class="cls-3" d="M365.16,225a6.55,6.55,0,0,0,4.86,2.2c2.75,0,3.63-1.48,3.63-2.66,0-1.85-1.87-2.34-3.89-2.91-2.47-.65-5.23-1.34-5.23-4.37,0-2.55,2.27-4.29,5.3-4.29a7.26,7.26,0,0,1,5.45,2.16l-1.14,1.38a5.88,5.88,0,0,0-4.47-1.85c-1.84,0-3.16,1-3.16,2.45s1.78,2,3.75,2.55c2.51.67,5.38,1.45,5.38,4.67,0,2.24-1.55,4.53-5.69,4.53a7.63,7.63,0,0,1-5.92-2.45Z"/><path class="cls-3" d="M379.06,214.44a1.17,1.17,0,1,1,1.17,1.17A1.17,1.17,0,0,1,379.06,214.44Zm.31,3.05h1.73v11.17h-1.73Z"/><path class="cls-3" d="M399,221.08c0-1.41-.62-2.34-2.06-2.34a4,4,0,0,0-3,1.71v8.19h-1.73v-7.58c0-1.41-.6-2.34-2.06-2.34a3.88,3.88,0,0,0-2.94,1.73v8.17h-1.73V217.49h1.73v1.62a4.86,4.86,0,0,1,3.61-1.89,2.87,2.87,0,0,1,3,2.08,4.66,4.66,0,0,1,3.75-2.08c2,0,3.11,1.13,3.11,3.37v8.07H399Z"/><path class="cls-3" d="M405.1,232.89v-15.4h1.73v1.67a4.64,4.64,0,0,1,3.77-1.94c2.94,0,5,2.22,5,5.84s-2,5.88-5,5.88a4.58,4.58,0,0,1-3.77-2v5.92Zm5.06-14.15a4.17,4.17,0,0,0-3.33,1.78v5a4.17,4.17,0,0,0,3.33,1.8c2.25,0,3.59-1.84,3.59-4.32s-1.34-4.27-3.62-4.27Z"/><path class="cls-3" d="M419.3,213.24H421v15.42H419.3Z"/><path class="cls-3" d="M430.28,217.22c3.38,0,5.36,2.63,5.36,6v.43h-9a3.94,3.94,0,0,0,4,3.9h.06a4.86,4.86,0,0,0,3.44-1.4l.83,1.13a6.06,6.06,0,0,1-4.44,1.71,5.88,5.88,0,0,1-.18-11.75Zm-3.68,5.15h7.34a3.63,3.63,0,0,0-3.52-3.72h-.17A3.73,3.73,0,0,0,426.6,222.37Z"/><path class="cls-3" d="M439.43,213.24h10.13V215h-8.2v5h8v1.71h-8V227h8.18v1.71H439.42Z"/><path class="cls-3" d="M461,221.35c0-2-1-2.58-2.5-2.58a4.34,4.34,0,0,0-3.31,1.73v8.16h-1.73V217.49h1.73v1.62a5.55,5.55,0,0,1,4-1.89c2.33,0,3.56,1.17,3.56,3.6v7.84H461Z"/><path class="cls-3" d="M467.12,217.49h1.72v1.81a4.78,4.78,0,0,1,3.73-2V219a3.26,3.26,0,0,0-.7-.07,4.12,4.12,0,0,0-3,1.78v7.91h-1.72Z"/><path class="cls-3" d="M475,223.06c0-3.23,2.13-5.84,5.53-5.84s5.53,2.61,5.53,5.84-2.14,5.88-5.53,5.88S475,226.3,475,223.06Zm9.23,0c0-2.26-1.32-4.29-3.7-4.29s-3.72,2-3.72,4.29,1.34,4.33,3.72,4.33S484.25,225.35,484.25,223.06Z"/><path class="cls-3" d="M489.82,213.24h1.73v15.42h-1.73Z"/><path class="cls-3" d="M495.94,213.24h1.74v15.42h-1.74Z"/><path class="cls-3" d="M515.55,221.08c0-1.41-.62-2.34-2.06-2.34a3.89,3.89,0,0,0-2.95,1.71v8.19H508.8v-7.58c0-1.41-.6-2.34-2.06-2.34a3.86,3.86,0,0,0-2.93,1.73v8.17h-1.74V217.49h1.74v1.62a4.79,4.79,0,0,1,3.6-1.89,2.86,2.86,0,0,1,3,2.08,4.65,4.65,0,0,1,3.74-2.08c2,0,3.12,1.13,3.12,3.37v8.07h-1.74Z"/><path class="cls-3" d="M526.54,217.22c3.38,0,5.36,2.63,5.36,6v.43h-9a3.94,3.94,0,0,0,4,3.9h.06a4.86,4.86,0,0,0,3.44-1.4l.83,1.13a6.1,6.1,0,0,1-4.44,1.71,5.88,5.88,0,0,1-.18-11.75Zm-3.68,5.15h7.33a3.62,3.62,0,0,0-3.5-3.72h-.18A3.72,3.72,0,0,0,522.86,222.37Z"/><path class="cls-3" d="M543.16,221.35c0-2-1-2.58-2.5-2.58a4.29,4.29,0,0,0-3.3,1.73v8.16h-1.74V217.49h1.74v1.62a5.55,5.55,0,0,1,4-1.89c2.34,0,3.56,1.17,3.56,3.6v7.84h-1.74Z"/><path class="cls-3" d="M549.64,226.33V219h-1.85v-1.56h1.85v-3h1.73v3.05h2.27v1.56h-2.27V226c0,.84.37,1.44,1.14,1.44a1.65,1.65,0,0,0,1.17-.46l.51,1.26a2.85,2.85,0,0,1-2.09.72C550.47,228.94,549.64,228,549.64,226.33Z"/></g></g></svg>