<svg xmlns="http://www.w3.org/2000/svg" xmlns:xlink="http://www.w3.org/1999/xlink" width="536" height="234" viewBox="0 0 536 234">
  <defs>
    <linearGradient id="linear-gradient" x1="0.5" y1="1" x2="0.5" y2="-0.339" gradientUnits="objectBoundingBox">
      <stop offset="0" stop-color="#71c6fc" stop-opacity="0.122"/>
      <stop offset="1" stop-color="#3f8fc1"/>
    </linearGradient>
  </defs>
  <g id="Group_2485" data-name="Group 2485" transform="translate(-691 -613)">
    <path id="Path_1734" data-name="Path 1734" d="M-1144-682.975l39.356-9.9h36.2l40.95-77.4,36.6,47.911h40.044l36.474,33.68,39.024,5.707,37.68-20.867,37.2,10.968,38.069,7.351H-684.5v12.288H-1144Z" transform="translate(1881 1484)" fill="url(#linear-gradient)"/>
    <g id="Path_1732" data-name="Path 1732" transform="translate(691 613)" fill="none">
      <path d="M0,0H536V234H0Z" stroke="none"/>
      <path d="M 2 2 L 2 232 L 534 232 L 534 2 L 2 2 M 0 0 L 536 0 L 536 234 L 0 234 L 0 0 Z" stroke="none" fill="#f5f5f5"/>
    </g>
    <text id="Commissions_" data-name="Commissions " transform="translate(712 630)" fill="#707070" font-size="16" font-family="Helvetica-Bold, Helvetica" font-weight="700"><tspan x="0" y="12">Commissions </tspan></text>
    <text id="_1_000_500_100_20_0" data-name="1,000
500
100
20
0" transform="translate(727 708)" fill="#d0d0d0" font-size="10" font-family="Helvetica" letter-spacing="0.05em"><tspan x="-27.024" y="0">1,000</tspan><tspan x="-17.685" y="25">500</tspan><tspan x="-17.685" y="50">100</tspan><tspan x="-11.623" y="75">20</tspan><tspan x="-5.562" y="100">0</tspan></text>
    <text id="YTD_total_90_000" data-name="YTD total  $90,000" transform="translate(823 630)" fill="#e4e4e4" font-size="27.998" font-family="Helvetica"><tspan x="74.208" y="37" letter-spacing="0.02em" baseline-shift="15.998399848290543">YTD total</tspan><tspan y="37" xml:space="preserve" font-size="48">  </tspan><tspan y="37" fill="#707070" baseline-shift="15.998399848290543">$</tspan><tspan y="37" fill="#707070" font-size="48" font-family="Helvetica-Bold, Helvetica" font-weight="700">90,000</tspan></text>
    <line id="Line_180" data-name="Line 180" y1="7.211" transform="translate(1119.5 810.789)" fill="none" stroke="#f5f5f5" stroke-width="1"/>
    <line id="Line_183" data-name="Line 183" y1="7.211" transform="translate(966.5 810.789)" fill="none" stroke="#f5f5f5" stroke-width="1"/>
    <line id="Line_185" data-name="Line 185" y1="7.211" transform="translate(813.5 810.789)" fill="none" stroke="#f5f5f5" stroke-width="1"/>
    <line id="Line_186" data-name="Line 186" y1="7.211" transform="translate(737.5 810.789)" fill="none" stroke="#f5f5f5" stroke-width="1"/>
    <line id="Line_181" data-name="Line 181" y1="7.211" transform="translate(1196.5 810.789)" fill="none" stroke="#f5f5f5" stroke-width="1"/>
    <line id="Line_182" data-name="Line 182" y1="7.211" transform="translate(1043.5 810.789)" fill="none" stroke="#f5f5f5" stroke-width="1"/>
    <line id="Line_184" data-name="Line 184" y1="7.211" transform="translate(890.5 810.789)" fill="none" stroke="#f5f5f5" stroke-width="1"/>
    <g id="Group_2359" data-name="Group 2359">
      <line id="Line_175" data-name="Line 175" x2="461" transform="translate(738.5 705.5)" fill="none" stroke="#f5f5f5" stroke-width="1" stroke-dasharray="4"/>
      <line id="Line_176" data-name="Line 176" x2="461" transform="translate(738.5 731.5)" fill="none" stroke="#f5f5f5" stroke-width="1" stroke-dasharray="4"/>
      <line id="Line_177" data-name="Line 177" x2="461" transform="translate(738.5 753.5)" fill="none" stroke="#f5f5f5" stroke-width="1" stroke-dasharray="4"/>
      <line id="Line_178" data-name="Line 178" x2="461" transform="translate(738.5 778.5)" fill="none" stroke="#f5f5f5" stroke-width="1" stroke-dasharray="4"/>
      <line id="Line_179" data-name="Line 179" x2="461" transform="translate(738.5 805.5)" fill="none" stroke="#f5f5f5" stroke-width="1" stroke-dasharray="4"/>
    </g>
    <text id="JAN_6" data-name="JAN 6" transform="translate(719 819)" fill="#d0d0d0" font-size="10" font-family="Helvetica" letter-spacing="0.05em"><tspan x="3.884" y="8">JAN 6</tspan></text>
    <text id="JAN_6-2" data-name="JAN 6" transform="translate(796 819)" fill="#d0d0d0" font-size="10" font-family="Helvetica" letter-spacing="0.05em"><tspan x="3.884" y="8">JAN 6</tspan></text>
    <text id="JAN_6-3" data-name="JAN 6" transform="translate(872 819)" fill="#d0d0d0" font-size="10" font-family="Helvetica" letter-spacing="0.05em"><tspan x="3.884" y="8">JAN 6</tspan></text>
    <text id="JAN_6-4" data-name="JAN 6" transform="translate(949 819)" fill="#d0d0d0" font-size="10" font-family="Helvetica" letter-spacing="0.05em"><tspan x="3.884" y="8">JAN 6</tspan></text>
    <text id="JAN_6-5" data-name="JAN 6" transform="translate(1025 819)" fill="#d0d0d0" font-size="10" font-family="Helvetica" letter-spacing="0.05em"><tspan x="3.884" y="8">JAN 6</tspan></text>
    <text id="JAN_6-6" data-name="JAN 6" transform="translate(1102 819)" fill="#d0d0d0" font-size="10" font-family="Helvetica" letter-spacing="0.05em"><tspan x="3.884" y="8">JAN 6</tspan></text>
    <text id="JAN_6-7" data-name="JAN 6" transform="translate(1178 819)" fill="#d0d0d0" font-size="10" font-family="Helvetica" letter-spacing="0.05em"><tspan x="3.884" y="8">JAN 6</tspan></text>
    <g id="Group_2366" data-name="Group 2366">
      <path id="Path_1733" data-name="Path 1733" d="M-1144-682.975l39.552-9.9h36.38l41.155-77.4,36.782,47.911h40.245l36.656,33.68,39.219,5.707,37.868-20.867,37.384,10.968,38.259,7.351h78.3" transform="translate(1881 1484)" fill="none" stroke="#48a3db" stroke-width="1"/>
      <g id="Ellipse_26" data-name="Ellipse 26" transform="translate(732 796)" fill="#fff" stroke="rgba(211,219,252,0.28)" stroke-width="6">
        <circle cx="5" cy="5" r="5" stroke="none"/>
        <circle cx="5" cy="5" r="8" fill="none"/>
      </g>
      <g id="Ellipse_27" data-name="Ellipse 27" transform="translate(771 786)" fill="#fff" stroke="rgba(211,219,252,0.28)" stroke-width="6">
        <circle cx="5" cy="5" r="5" stroke="none"/>
        <circle cx="5" cy="5" r="8" fill="none"/>
      </g>
      <g id="Ellipse_28" data-name="Ellipse 28" transform="translate(809 786)" fill="#fff" stroke="rgba(211,219,252,0.28)" stroke-width="6">
        <circle cx="5" cy="5" r="5" stroke="none"/>
        <circle cx="5" cy="5" r="8" fill="none"/>
      </g>
      <g id="Ellipse_29" data-name="Ellipse 29" transform="translate(849 709)" fill="#fff" stroke="rgba(211,219,252,0.28)" stroke-width="6">
        <circle cx="5" cy="5" r="5" stroke="none"/>
        <circle cx="5" cy="5" r="8" fill="none"/>
      </g>
      <g id="Ellipse_30" data-name="Ellipse 30" transform="translate(886 756)" fill="#fff" stroke="rgba(211,219,252,0.28)" stroke-width="6">
        <circle cx="5" cy="5" r="5" stroke="none"/>
        <circle cx="5" cy="5" r="8" fill="none"/>
      </g>
      <g id="Ellipse_31" data-name="Ellipse 31" transform="translate(925 756)" fill="#fff" stroke="rgba(211,219,252,0.28)" stroke-width="6">
        <circle cx="5" cy="5" r="5" stroke="none"/>
        <circle cx="5" cy="5" r="8" fill="none"/>
      </g>
      <g id="Ellipse_32" data-name="Ellipse 32" transform="translate(963 791)" fill="#fff" stroke="rgba(211,219,252,0.28)" stroke-width="6">
        <circle cx="5" cy="5" r="5" stroke="none"/>
        <circle cx="5" cy="5" r="8" fill="none"/>
      </g>
      <g id="Ellipse_33" data-name="Ellipse 33" transform="translate(1002 796)" fill="#fff" stroke="rgba(211,219,252,0.28)" stroke-width="6">
        <circle cx="5" cy="5" r="5" stroke="none"/>
        <circle cx="5" cy="5" r="8" fill="none"/>
      </g>
      <g id="Ellipse_34" data-name="Ellipse 34" transform="translate(1039 775)" fill="#fff" stroke="rgba(211,219,252,0.28)" stroke-width="6">
        <circle cx="5" cy="5" r="5" stroke="none"/>
        <circle cx="5" cy="5" r="8" fill="none"/>
      </g>
      <g id="Ellipse_35" data-name="Ellipse 35" transform="translate(1077 786)" fill="#fff" stroke="rgba(211,219,252,0.28)" stroke-width="6">
        <circle cx="5" cy="5" r="5" stroke="none"/>
        <circle cx="5" cy="5" r="8" fill="none"/>
      </g>
      <g id="Ellipse_36" data-name="Ellipse 36" transform="translate(1116 794)" fill="#fff" stroke="rgba(211,219,252,0.28)" stroke-width="6">
        <circle cx="5" cy="5" r="5" stroke="none"/>
        <circle cx="5" cy="5" r="8" fill="none"/>
      </g>
      <g id="Ellipse_37" data-name="Ellipse 37" transform="translate(1153 794)" fill="#fff" stroke="rgba(211,219,252,0.28)" stroke-width="6">
        <circle cx="5" cy="5" r="5" stroke="none"/>
        <circle cx="5" cy="5" r="8" fill="none"/>
      </g>
      <g id="Ellipse_38" data-name="Ellipse 38" transform="translate(1190 794)" fill="#fff" stroke="rgba(211,219,252,0.28)" stroke-width="6">
        <circle cx="5" cy="5" r="5" stroke="none"/>
        <circle cx="5" cy="5" r="8" fill="none"/>
      </g>
    </g>
    <g id="Group_2367" data-name="Group 2367">
      <g id="Ellipse_26-2" data-name="Ellipse 26" transform="translate(732 796)" fill="#fff" stroke="#48a3db" stroke-width="3">
        <circle cx="5" cy="5" r="5" stroke="none"/>
        <circle cx="5" cy="5" r="3.5" fill="none"/>
      </g>
      <g id="Ellipse_27-2" data-name="Ellipse 27" transform="translate(771 786)" fill="#fff" stroke="#48a3db" stroke-width="3">
        <circle cx="5" cy="5" r="5" stroke="none"/>
        <circle cx="5" cy="5" r="3.5" fill="none"/>
      </g>
      <g id="Ellipse_28-2" data-name="Ellipse 28" transform="translate(809 786)" fill="#fff" stroke="#48a3db" stroke-width="3">
        <circle cx="5" cy="5" r="5" stroke="none"/>
        <circle cx="5" cy="5" r="3.5" fill="none"/>
      </g>
      <g id="Ellipse_29-2" data-name="Ellipse 29" transform="translate(849 709)" fill="#fff" stroke="#48a3db" stroke-width="3">
        <circle cx="5" cy="5" r="5" stroke="none"/>
        <circle cx="5" cy="5" r="3.5" fill="none"/>
      </g>
      <g id="Ellipse_30-2" data-name="Ellipse 30" transform="translate(886 756)" fill="#fff" stroke="#48a3db" stroke-width="3">
        <circle cx="5" cy="5" r="5" stroke="none"/>
        <circle cx="5" cy="5" r="3.5" fill="none"/>
      </g>
      <g id="Ellipse_31-2" data-name="Ellipse 31" transform="translate(925 756)" fill="#fff" stroke="#48a3db" stroke-width="3">
        <circle cx="5" cy="5" r="5" stroke="none"/>
        <circle cx="5" cy="5" r="3.5" fill="none"/>
      </g>
      <g id="Ellipse_32-2" data-name="Ellipse 32" transform="translate(963 791)" fill="#fff" stroke="#48a3db" stroke-width="3">
        <circle cx="5" cy="5" r="5" stroke="none"/>
        <circle cx="5" cy="5" r="3.5" fill="none"/>
      </g>
      <g id="Ellipse_33-2" data-name="Ellipse 33" transform="translate(1002 796)" fill="#fff" stroke="#48a3db" stroke-width="3">
        <circle cx="5" cy="5" r="5" stroke="none"/>
        <circle cx="5" cy="5" r="3.5" fill="none"/>
      </g>
      <g id="Ellipse_34-2" data-name="Ellipse 34" transform="translate(1039 775)" fill="#fff" stroke="#48a3db" stroke-width="3">
        <circle cx="5" cy="5" r="5" stroke="none"/>
        <circle cx="5" cy="5" r="3.5" fill="none"/>
      </g>
      <g id="Ellipse_35-2" data-name="Ellipse 35" transform="translate(1077 786)" fill="#fff" stroke="#48a3db" stroke-width="3">
        <circle cx="5" cy="5" r="5" stroke="none"/>
        <circle cx="5" cy="5" r="3.5" fill="none"/>
      </g>
      <g id="Ellipse_36-2" data-name="Ellipse 36" transform="translate(1116 794)" fill="#fff" stroke="#48a3db" stroke-width="3">
        <circle cx="5" cy="5" r="5" stroke="none"/>
        <circle cx="5" cy="5" r="3.5" fill="none"/>
      </g>
      <g id="Ellipse_37-2" data-name="Ellipse 37" transform="translate(1153 794)" fill="#fff" stroke="#48a3db" stroke-width="3">
        <circle cx="5" cy="5" r="5" stroke="none"/>
        <circle cx="5" cy="5" r="3.5" fill="none"/>
      </g>
      <g id="Ellipse_38-2" data-name="Ellipse 38" transform="translate(1190 794)" fill="#fff" stroke="#48a3db" stroke-width="3">
        <circle cx="5" cy="5" r="5" stroke="none"/>
        <circle cx="5" cy="5" r="3.5" fill="none"/>
      </g>
    </g>
  </g>
</svg>
