<svg xmlns="http://www.w3.org/2000/svg" viewBox="0 0 108.22 91.47"><defs><style>.cls-1{fill:#00487e;}</style></defs><g id="Layer_2" data-name="Layer 2"><g id="Layer_2-2" data-name="Layer 2"><path class="cls-1" d="M11.16,19.69h8.76c6.3,0,12.67-2.28,12.67-9.13a4.84,4.84,0,0,0,0-.78C32.1,3.49,26.22,0,18.14,0H.24V33H11.16Zm0-15.3h3.53c3.94,0,6.41,2.11,6.53,5.39v.29c0,3.08-2,5.11-6.16,5.11h-3.9V4.39Z"/><path class="cls-1" d="M72.27,17.09v-.61C71.91,6.58,63,0,51.21,0H34V33H53.08C63.51,33,72.27,27.6,72.27,17.09ZM44.92,28.82V4.14h3.65c7.71,0,11.85,5.36,11.85,11.61v.73c-.24,6.29-3.61,12.34-11.48,12.34Z"/><path class="cls-1" d="M74.42,33l3.78-9.49H91.46L95.73,33h12.21l-8.8-19.72L93.25,0H82.34L76.9,13.23,68.74,33ZM84.49,7.47h.12l2.55,5.76L89.68,19H80.1l2.2-5.73Z"/><rect class="cls-1" y="35.67" width="108.22" height="2.84"/><path class="cls-1" d="M6.17,68.91A42,42,0,0,0,11,74.55a46.81,46.81,0,0,0,4.74,4.06c1.63,1.17,3.33,2.31,5.12,3.36,8.84,5.12,20,8.44,33,9.5,13.23-1.06,24.55-4.38,33.44-9.5a59.36,59.36,0,0,0,5.11-3.36,47.45,47.45,0,0,0,4.79-4.06,45.62,45.62,0,0,0,4.83-5.64A35.35,35.35,0,0,0,108.18,54H0A35.9,35.9,0,0,0,6.17,68.91ZM27.63,82.1c.05,0,.05-.08.09-.13a22.61,22.61,0,0,1,2.84-3.36c1-.94,1.82-1.67,2.63-2.32a27.26,27.26,0,0,0,2.24,2.32C36.68,79.78,38,80.92,39.36,82c2.76,2.2,5.56,4.1,7.51,5.68C43.38,87.9,32.83,84.61,27.63,82.1Zm24.76,5.8A102.06,102.06,0,0,1,43.87,82c-1.42-1.09-2.84-2.23-4.18-3.36a55.81,55.81,0,0,1-4.26-4s.08,0,.12-.08a28.8,28.8,0,0,1,14-5.64c.89-.12,1.86-.25,2.88-.33V87.9Zm27.83-5.8C75,84.61,64.48,87.9,60.91,87.65c2-1.58,4.83-3.48,7.63-5.68,1.34-1,2.68-2.19,3.94-3.36a28.31,28.31,0,0,0,2.19-2.32c.81.65,1.66,1.38,2.63,2.32A26.06,26.06,0,0,1,80.15,82S80.19,82.06,80.22,82.1Zm24-25.24a26.8,26.8,0,0,1-5.85,12,40.43,40.43,0,0,1-5.56,5.68,46.62,46.62,0,0,1-5.6,4,33.45,33.45,0,0,1-4.34,2.31,23.11,23.11,0,0,0-1.7-2.31c-1.3-1.59-2.6-2.76-3.86-4.06l-.61-.61a28.92,28.92,0,0,0,3.45-5,28.86,28.86,0,0,0,3.9-12Zm-48.7,0H81a29.27,29.27,0,0,1-4,12,16.71,16.71,0,0,1-2.76,3.37,42.12,42.12,0,0,0-5.92-3.37,42.51,42.51,0,0,0-12.91-3.17Zm0,11.72c1,.08,2,.21,2.88.33a29,29,0,0,1,13.92,5.64s.08,0,.12.08a55.81,55.81,0,0,1-4.26,4C66.84,79.74,65.41,80.88,64,82a101.69,101.69,0,0,1-8.48,5.93V68.58ZM52.39,56.86v8.88a42.51,42.51,0,0,0-12.91,3.17,39.93,39.93,0,0,0-5.92,3.37,17.05,17.05,0,0,1-2.76-3.37,28.19,28.19,0,0,1-4-12Zm-24.71,12a29.4,29.4,0,0,0,3.48,5l-.6.61C29.3,75.85,28,77,26.66,78.61A21.59,21.59,0,0,0,25,80.92a30.77,30.77,0,0,1-4.3-2.31,46.62,46.62,0,0,1-5.6-4,40.69,40.69,0,0,1-5.6-5.68,28.24,28.24,0,0,1-5.93-12H23.82A27.73,27.73,0,0,0,27.68,68.91Z"/><path class="cls-1" d="M2.47,46.46a4.47,4.47,0,0,0,1.47-.18,1.49,1.49,0,0,0,.74-.58,1.8,1.8,0,0,0,.28-1,1.73,1.73,0,0,0-.34-1.07,1.45,1.45,0,0,0-.83-.55,5.48,5.48,0,0,0-1.38-.13h-2v5.59h1.5V46.46Zm-.53-2.63h.47a1.66,1.66,0,0,1,.5.06.58.58,0,0,1,.32.25.82.82,0,0,1,.14.52,1,1,0,0,1-.18.61,1,1,0,0,1-.78.24H1.94Z"/><path class="cls-1" d="M5.9,46.4a1.24,1.24,0,0,0-.56,1.08,1,1,0,0,0,.37.85,1.54,1.54,0,0,0,1,.29,1.51,1.51,0,0,0,1.38-.74,1.89,1.89,0,0,0,.07.64H9.41a3.14,3.14,0,0,1-.07-.92V45.94A2.63,2.63,0,0,0,9.23,45a1.05,1.05,0,0,0-.54-.52,2.49,2.49,0,0,0-1.14-.22,2.64,2.64,0,0,0-1.38.33,1.3,1.3,0,0,0-.65,1l1.34.11c0-.42.23-.63.58-.63.2,0,.33.05.39.16a1.13,1.13,0,0,1,.1.58v.15A4.27,4.27,0,0,0,5.9,46.4Zm2,.35a1.44,1.44,0,0,1-.2.88.61.61,0,0,1-.47.23c-.31,0-.47-.17-.47-.53a.62.62,0,0,1,.26-.56,2,2,0,0,1,.88-.22Z"/><path class="cls-1" d="M10.36,44.39v4.13h1.4V46.75c0-.84.35-1.26,1-1.26H13V44.36l-.24,0q-.87,0-1.2,1v-1Z"/><path class="cls-1" d="M17.38,46.65a2.39,2.39,0,0,0-.58-1.86,2.12,2.12,0,0,0-1.44-.5,2.06,2.06,0,0,0-1.52.57,2.23,2.23,0,0,0-.56,1.65,2.14,2.14,0,0,0,.53,1.54,2.06,2.06,0,0,0,1.57.57,1.8,1.8,0,0,0,2-1.43l-1.25-.06a.69.69,0,0,1-.73.7.63.63,0,0,1-.49-.19,1.09,1.09,0,0,1-.19-.76v-.23Zm-2-1.6c.45,0,.67.27.67.81V46H14.73Q14.73,45.05,15.39,45.05Z"/><path class="cls-1" d="M18.18,44.39v4.13h1.41V46.09a1.45,1.45,0,0,1,.12-.71c.08-.13.25-.19.51-.19a.54.54,0,0,1,.35.1c.09.06.13.23.13.51v2.72h1.41V45.8a3,3,0,0,0-.09-.86.84.84,0,0,0-.41-.47,1.69,1.69,0,0,0-.82-.18,1.33,1.33,0,0,0-1.27.65v-.55Z"/><path class="cls-1" d="M23.27,43.13v1.26H22.7v.9h.57V47a3.66,3.66,0,0,0,.09,1,.87.87,0,0,0,.44.51,2,2,0,0,0,1,.2,5.5,5.5,0,0,0,.86-.08v-.85h-.4a.79.79,0,0,1-.43-.09.35.35,0,0,1-.15-.21,5.42,5.42,0,0,1,0-.55V45.29h.93v-.9h-.93v-1.3Z"/><path class="cls-1" d="M30.08,46.65a2.43,2.43,0,0,0-.58-1.86,2.12,2.12,0,0,0-1.44-.5,2.06,2.06,0,0,0-1.52.57A2.23,2.23,0,0,0,26,46.51a2.14,2.14,0,0,0,.54,1.54,2,2,0,0,0,1.56.57,1.81,1.81,0,0,0,2-1.43l-1.25-.06a.69.69,0,0,1-.74.7.62.62,0,0,1-.48-.19,1.09,1.09,0,0,1-.19-.76v-.23Zm-2-1.6c.45,0,.67.27.67.81V46H27.43Q27.43,45.05,28.09,45.05Z"/><path class="cls-1" d="M30.88,44.39v4.13h1.41V46.75c0-.84.35-1.26,1-1.26h.24V44.36l-.24,0c-.58,0-1,.35-1.21,1v-1Z"/><path class="cls-1" d="M34.48,46.4a1.24,1.24,0,0,0-.56,1.08,1,1,0,0,0,.37.85,1.68,1.68,0,0,0,2.34-.45,2.29,2.29,0,0,0,.06.64H38a3.14,3.14,0,0,1-.07-.92V45.94a2.9,2.9,0,0,0-.11-.91,1.09,1.09,0,0,0-.54-.52,2.49,2.49,0,0,0-1.14-.22,2.67,2.67,0,0,0-1.39.33,1.32,1.32,0,0,0-.64,1l1.34.11c0-.42.23-.63.58-.63a.42.42,0,0,1,.39.16,1.13,1.13,0,0,1,.1.58v.15A4.27,4.27,0,0,0,34.48,46.4Zm2,.35a1.36,1.36,0,0,1-.21.88.59.59,0,0,1-.46.23c-.32,0-.47-.17-.47-.53a.6.6,0,0,1,.26-.56,2,2,0,0,1,.88-.22Z"/><rect class="cls-1" x="38.93" y="42.93" width="1.41" height="5.58"/><path class="cls-1" d="M47.3,48a2.35,2.35,0,0,0,.63-.92,3.47,3.47,0,0,0,.24-1.33,3,3,0,0,0-.4-1.68,2,2,0,0,0-1.05-.86,5.28,5.28,0,0,0-1.7-.23H43.41v5.59H45.2a5.17,5.17,0,0,0,1.22-.12A1.9,1.9,0,0,0,47.3,48ZM46,47.4a1.59,1.59,0,0,1-.8.17h-.25V43.88h.25a1.79,1.79,0,0,1,.77.14,1.1,1.1,0,0,1,.47.52,2.72,2.72,0,0,1,.18,1.11,3.07,3.07,0,0,1-.17,1.18A1.11,1.11,0,0,1,46,47.4Z"/><path class="cls-1" d="M49,44.39v4.13h1.41V46.75c0-.84.34-1.26,1-1.26h.24V44.36l-.24,0c-.58,0-1,.35-1.21,1v-1Z"/><path class="cls-1" d="M52.07,44.39v2.7a3.68,3.68,0,0,0,.08.88.87.87,0,0,0,.38.47,1.57,1.57,0,0,0,.83.18,2.1,2.1,0,0,0,.7-.11,1.47,1.47,0,0,0,.6-.54v.55H56V44.39H54.59v2.12a6.65,6.65,0,0,1,0,.8.43.43,0,0,1-.18.3.62.62,0,0,1-.42.11c-.2,0-.33,0-.39-.13a1.08,1.08,0,0,1-.09-.54V44.39Z"/><path class="cls-1" d="M56.71,49c0,.66.69,1,2.08,1,1.64,0,2.47-.46,2.47-1.38a1,1,0,0,0-.26-.7,1.23,1.23,0,0,0-.63-.35,6.62,6.62,0,0,0-1.15-.12,6.77,6.77,0,0,1-1-.09c-.12,0-.19-.1-.19-.2s.12-.25.35-.35a3.09,3.09,0,0,0,.66.07,2.31,2.31,0,0,0,1.32-.34,1.06,1.06,0,0,0,.13-1.72.5.5,0,0,1,.54-.37l.3,0V43.7a1.48,1.48,0,0,0-.39-.05,1,1,0,0,0-.67.19,1,1,0,0,0-.27.63,3.22,3.22,0,0,0-1.08-.18,2.67,2.67,0,0,0-1.39.32,1.06,1.06,0,0,0-.52.94,1,1,0,0,0,.75,1q-.87.38-.87.9c0,.31.22.55.66.71C57,48.34,56.71,48.6,56.71,49Zm1.84-3.9a.46.46,0,0,1,.4-.16c.3,0,.46.22.46.66a.92.92,0,0,1-.11.51.41.41,0,0,1-.36.15c-.34,0-.5-.21-.5-.63A1,1,0,0,1,58.55,45.07Zm-.23,3.24.63,0c.36,0,.59,0,.71,0a.49.49,0,0,1,.27.13.33.33,0,0,1,.11.27c0,.29-.33.44-1,.44s-1.17-.14-1.17-.43S58,48.42,58.32,48.31Z"/><path class="cls-1" d="M66.53,47.35l.34,1.17H68.4l-1.94-5.59H65l-2,5.59h1.37l.33-1.17Zm-1-3.24.69,2.29H64.9Z"/><path class="cls-1" d="M70.43,47.86a.74.74,0,0,1-.81-.61l-1.11.14q.19,1.23,1.89,1.23a2.28,2.28,0,0,0,1.42-.39,1.19,1.19,0,0,0,.5-1,1,1,0,0,0-.19-.59,1.1,1.1,0,0,0-.45-.38,5.35,5.35,0,0,0-.86-.3,3.24,3.24,0,0,1-.68-.25.36.36,0,0,1-.16-.32c0-.25.14-.37.44-.37a.74.74,0,0,1,.74.56l1-.24a1.59,1.59,0,0,0-1.7-1.08,2.17,2.17,0,0,0-1.28.36,1.12,1.12,0,0,0-.5,1,1,1,0,0,0,.32.75,2.64,2.64,0,0,0,1.19.55,2.7,2.7,0,0,1,.64.24.34.34,0,0,1,.17.31Q71,47.86,70.43,47.86Z"/><path class="cls-1" d="M74.6,47.86a.73.73,0,0,1-.8-.61l-1.11.14q.18,1.23,1.89,1.23A2.27,2.27,0,0,0,76,48.23a1.19,1.19,0,0,0,.5-1,1,1,0,0,0-.18-.59,1.19,1.19,0,0,0-.46-.38A5.16,5.16,0,0,0,75,46a3,3,0,0,1-.68-.25.37.37,0,0,1-.17-.32c0-.25.15-.37.44-.37a.73.73,0,0,1,.74.56l1-.24a1.59,1.59,0,0,0-1.7-1.08,2.14,2.14,0,0,0-1.27.36,1.12,1.12,0,0,0-.51,1,1,1,0,0,0,.32.75,2.68,2.68,0,0,0,1.2.55,2.9,2.9,0,0,1,.64.24.34.34,0,0,1,.16.31Q75.17,47.86,74.6,47.86Z"/><path class="cls-1" d="M81.07,46.45c0-1.44-.68-2.16-2-2.16s-2,.72-2,2.16.68,2.17,2,2.17S81.07,47.9,81.07,46.45Zm-2.54,1.08a3.26,3.26,0,0,1-.12-1.07,2.89,2.89,0,0,1,.14-1.11.49.49,0,0,1,.47-.27.49.49,0,0,1,.47.29,2.84,2.84,0,0,1,.14,1.09,3.2,3.2,0,0,1-.13,1.07.48.48,0,0,1-.48.3A.48.48,0,0,1,78.53,47.53Z"/><path class="cls-1" d="M83.78,45.19a.46.46,0,0,1,.41.18,1.25,1.25,0,0,1,.15.56l1.3,0c-.1-1.07-.74-1.6-1.92-1.6a2,2,0,0,0-1.52.56,2.73,2.73,0,0,0,0,3.23,2,2,0,0,0,1.49.54c1.2,0,1.86-.54,2-1.62l-1.3-.07c0,.51-.23.76-.58.76a.56.56,0,0,1-.51-.28,2,2,0,0,1-.18-1C83.07,45.6,83.31,45.19,83.78,45.19Z"/><rect class="cls-1" x="86.38" y="42.92" width="1.44" height="1.14"/><rect class="cls-1" x="86.4" y="44.39" width="1.41" height="4.12"/><path class="cls-1" d="M89.25,46.4a1.22,1.22,0,0,0-.56,1.08,1,1,0,0,0,.37.85,1.49,1.49,0,0,0,1,.29,1.51,1.51,0,0,0,1.38-.74,1.89,1.89,0,0,0,.07.64h1.3a3.14,3.14,0,0,1-.07-.92V45.94a2.58,2.58,0,0,0-.12-.91,1,1,0,0,0-.54-.52,2.42,2.42,0,0,0-1.13-.22,2.67,2.67,0,0,0-1.39.33,1.33,1.33,0,0,0-.65,1l1.34.11c0-.42.23-.63.59-.63a.42.42,0,0,1,.39.16,1.25,1.25,0,0,1,.1.58v.15A4.27,4.27,0,0,0,89.25,46.4Zm2,.35a1.36,1.36,0,0,1-.21.88.59.59,0,0,1-.47.23c-.31,0-.47-.17-.47-.53a.61.61,0,0,1,.27-.56,2,2,0,0,1,.88-.22Z"/><path class="cls-1" d="M93.91,43.13v1.26h-.56v.9h.56V47a3.2,3.2,0,0,0,.1,1,.85.85,0,0,0,.43.51,2,2,0,0,0,1,.2,5.61,5.61,0,0,0,.86-.08v-.85h-.4a.76.76,0,0,1-.43-.09.28.28,0,0,1-.15-.21,3.44,3.44,0,0,1,0-.55V45.29h.93v-.9h-.93v-1.3Z"/><rect class="cls-1" x="96.83" y="44.39" width="1.41" height="4.12"/><rect class="cls-1" x="96.81" y="42.92" width="1.44" height="1.14"/><path class="cls-1" d="M103.16,46.45c0-1.44-.69-2.16-2-2.16s-2.06.72-2.06,2.16.69,2.17,2.06,2.17S103.16,47.9,103.16,46.45Zm-2.54,1.08a3.26,3.26,0,0,1-.12-1.07,2.7,2.7,0,0,1,.14-1.11.53.53,0,0,1,.94,0,2.9,2.9,0,0,1,.13,1.09,3,3,0,0,1-.13,1.07.46.46,0,0,1-.47.3A.47.47,0,0,1,100.62,47.53Z"/><path class="cls-1" d="M104,44.39v4.13h1.41V46.09a1.45,1.45,0,0,1,.12-.71c.08-.13.25-.19.51-.19a.56.56,0,0,1,.35.1c.09.06.13.23.13.51v2.72h1.41V45.8a3,3,0,0,0-.09-.86.83.83,0,0,0-.42-.47,1.62,1.62,0,0,0-.81-.18,1.32,1.32,0,0,0-1.27.65v-.55Z"/><path class="cls-1" d="M105.89,5.71A2,2,0,0,0,107,5.35a2.51,2.51,0,0,0,.87-1,3.17,3.17,0,0,0,.33-1.47,3.12,3.12,0,0,0-.67-2,2,2,0,0,0-2.8-.5,2.54,2.54,0,0,0-.87,1,3.24,3.24,0,0,0-.33,1.47,3.14,3.14,0,0,0,.67,2A2,2,0,0,0,105.89,5.71Zm-1.42-4.5a1.76,1.76,0,0,1,1.42-.74,1.71,1.71,0,0,1,1.33.66,2.53,2.53,0,0,1,.62,1.73,2.65,2.65,0,0,1-.54,1.64,1.76,1.76,0,0,1-1.41.74,1.73,1.73,0,0,1-1.34-.65,2.54,2.54,0,0,1-.61-1.73A2.65,2.65,0,0,1,104.47,1.21Z"/><path class="cls-1" d="M105.27,3.13h.24a.45.45,0,0,1,.33.12,2.45,2.45,0,0,1,.41.7l.23.49H107l-.3-.6a2.93,2.93,0,0,0-.36-.6.62.62,0,0,0-.22-.17.73.73,0,0,0,.51-.28.9.9,0,0,0,.2-.59.8.8,0,0,0-.13-.46.62.62,0,0,0-.31-.29,1.58,1.58,0,0,0-.63-.09h-.87V4.44h.41Zm0-1.35h.46a1.1,1.1,0,0,1,.39.05.43.43,0,0,1,.18.15.46.46,0,0,1,.07.26.45.45,0,0,1-.14.35.72.72,0,0,1-.47.12h-.49Z"/></g></g></svg>