<svg xmlns="http://www.w3.org/2000/svg" viewBox="0 0 354.32 91.47"><defs><style>.cls-1{fill:#00487e;}.cls-2{fill:#a8a8a8;}</style></defs><g id="Layer_2" data-name="Layer 2"><g id="Layer_2-2" data-name="Layer 2"><text/><path class="cls-1" d="M136,33h-5V22.71h-9.66V33h-5V9h5v9.74H131V9h5Z"/><path class="cls-1" d="M148.2,33.34a8.77,8.77,0,0,1-6.4-2.41,8.58,8.58,0,0,1-2.47-6.42v-.46a10.87,10.87,0,0,1,1-4.82A7.75,7.75,0,0,1,143.32,16a8.31,8.31,0,0,1,4.35-1.15,7.41,7.41,0,0,1,5.78,2.32,9.39,9.39,0,0,1,2.1,6.55v1.95H144.17a4.46,4.46,0,0,0,1.4,2.81,4.23,4.23,0,0,0,3,1.06,5.18,5.18,0,0,0,4.31-2l2.34,2.62a7,7,0,0,1-2.9,2.37A9.54,9.54,0,0,1,148.2,33.34Zm-.54-14.68a3,3,0,0,0-2.31,1,5,5,0,0,0-1.13,2.76h6.64V22a3.55,3.55,0,0,0-.86-2.47A3.07,3.07,0,0,0,147.66,18.66Z"/><path class="cls-1" d="M168.62,33a5.31,5.31,0,0,1-.48-1.6,5.78,5.78,0,0,1-4.51,1.93,6.31,6.31,0,0,1-4.35-1.52A4.89,4.89,0,0,1,157.55,28a5.05,5.05,0,0,1,2.11-4.36,10.39,10.39,0,0,1,6.08-1.53h2.2v-1a2.93,2.93,0,0,0-.64-2,2.5,2.5,0,0,0-2-.74,2.79,2.79,0,0,0-1.89.58,1.94,1.94,0,0,0-.69,1.58H158a4.84,4.84,0,0,1,1-2.87,6.38,6.38,0,0,1,2.71-2.07,9.74,9.74,0,0,1,3.93-.76,7.85,7.85,0,0,1,5.25,1.66,5.84,5.84,0,0,1,1.94,4.67v7.74a8.56,8.56,0,0,0,.71,3.85V33Zm-4-3.32a4.07,4.07,0,0,0,2-.47A3.1,3.1,0,0,0,167.94,28V24.89h-1.78c-2.39,0-3.67.82-3.82,2.48l0,.28a1.92,1.92,0,0,0,.63,1.47A2.46,2.46,0,0,0,164.67,29.69Z"/><path class="cls-1" d="M181.43,33h-4.79V7.65h4.79Z"/><path class="cls-1" d="M191.08,10.75v4.39h3v3.51h-3v8.91a2.08,2.08,0,0,0,.38,1.42,1.87,1.87,0,0,0,1.45.43,8.2,8.2,0,0,0,1.4-.11v3.61a9.68,9.68,0,0,1-2.89.43c-3.35,0-5-1.69-5.12-5.07V18.65h-2.61V15.14h2.61V10.75Z"/><path class="cls-1" d="M201.45,17.09a5.94,5.94,0,0,1,4.77-2.28q5.82,0,5.9,6.76V33h-4.78V21.7a3.33,3.33,0,0,0-.66-2.27,2.82,2.82,0,0,0-2.19-.74,3.24,3.24,0,0,0-3,1.62V33h-4.78V7.65h4.78Z"/><path class="cls-1" d="M223.15,29.5a3.18,3.18,0,0,0,2.15-.73,2.59,2.59,0,0,0,.86-1.93h4.47a6.07,6.07,0,0,1-1,3.32A6.56,6.56,0,0,1,227,32.51a8.28,8.28,0,0,1-3.74.83,7.76,7.76,0,0,1-6-2.43A9.64,9.64,0,0,1,215,24.18v-.32a9.57,9.57,0,0,1,2.2-6.59,7.66,7.66,0,0,1,6-2.46,7.5,7.5,0,0,1,5.37,1.91,6.75,6.75,0,0,1,2.06,5.08h-4.47a3.33,3.33,0,0,0-.86-2.27,3.19,3.19,0,0,0-4.7.35,7,7,0,0,0-.85,3.94v.5a7.17,7.17,0,0,0,.84,4A2.92,2.92,0,0,0,223.15,29.5Z"/><path class="cls-1" d="M243.71,33a5.31,5.31,0,0,1-.48-1.6,5.78,5.78,0,0,1-4.51,1.93,6.31,6.31,0,0,1-4.35-1.52A4.88,4.88,0,0,1,232.65,28a5.07,5.07,0,0,1,2.1-4.36,10.4,10.4,0,0,1,6.09-1.53H243v-1a3,3,0,0,0-.63-2,2.54,2.54,0,0,0-2-.74,2.83,2.83,0,0,0-1.89.58,1.94,1.94,0,0,0-.69,1.58H233a4.79,4.79,0,0,1,1-2.87,6.32,6.32,0,0,1,2.71-2.07,9.7,9.7,0,0,1,3.93-.76,7.82,7.82,0,0,1,5.24,1.66,5.81,5.81,0,0,1,1.94,4.67v7.74a8.56,8.56,0,0,0,.71,3.85V33Zm-4-3.32a4,4,0,0,0,2-.47A3,3,0,0,0,243,28V24.89h-1.78c-2.39,0-3.66.82-3.82,2.48v.28a1.92,1.92,0,0,0,.63,1.47A2.44,2.44,0,0,0,239.76,29.69Z"/><path class="cls-1" d="M261.53,19.62a12.6,12.6,0,0,0-1.72-.13c-1.8,0-3,.61-3.55,1.83V33h-4.77V15.14H256l.13,2.13a4.42,4.42,0,0,1,4-2.46,5.16,5.16,0,0,1,1.49.22Z"/><path class="cls-1" d="M272.05,33.34a8.77,8.77,0,0,1-6.4-2.41,8.54,8.54,0,0,1-2.47-6.42v-.46a10.87,10.87,0,0,1,1-4.82A7.75,7.75,0,0,1,267.17,16a8.31,8.31,0,0,1,4.35-1.15,7.37,7.37,0,0,1,5.77,2.32,9.35,9.35,0,0,1,2.11,6.55v1.95H268a4.41,4.41,0,0,0,1.4,2.81,4.23,4.23,0,0,0,2.94,1.06,5.15,5.15,0,0,0,4.31-2L279,30.12a7,7,0,0,1-2.91,2.37A9.46,9.46,0,0,1,272.05,33.34Zm-.54-14.68a3,3,0,0,0-2.31,1,5,5,0,0,0-1.13,2.76h6.64V22a3.55,3.55,0,0,0-.86-2.47A3.07,3.07,0,0,0,271.51,18.66Z"/><path class="cls-1" d="M282.36,30.67a2.4,2.4,0,0,1,.76-1.85,3,3,0,0,1,3.87,0,2.41,2.41,0,0,1,.77,1.85,2.37,2.37,0,0,1-.76,1.82,2.77,2.77,0,0,1-1.95.71,2.72,2.72,0,0,1-1.93-.71A2.33,2.33,0,0,1,282.36,30.67Z"/><path class="cls-1" d="M299.37,29.5a3.14,3.14,0,0,0,2.14-.73,2.55,2.55,0,0,0,.86-1.93h4.48a6.07,6.07,0,0,1-1,3.32,6.56,6.56,0,0,1-2.67,2.35,8.31,8.31,0,0,1-3.74.83,7.74,7.74,0,0,1-6-2.43,9.64,9.64,0,0,1-2.22-6.73v-.32a9.53,9.53,0,0,1,2.2-6.59,7.66,7.66,0,0,1,6-2.46,7.52,7.52,0,0,1,5.37,1.91,6.75,6.75,0,0,1,2.06,5.08h-4.48a3.28,3.28,0,0,0-.86-2.27,3.18,3.18,0,0,0-4.69.35,7,7,0,0,0-.86,3.94v.5a7.07,7.07,0,0,0,.85,4A2.92,2.92,0,0,0,299.37,29.5Z"/><path class="cls-1" d="M308.83,23.91a10.65,10.65,0,0,1,1-4.74A7.6,7.6,0,0,1,312.8,16a8.59,8.59,0,0,1,4.47-1.14,8.11,8.11,0,0,1,5.9,2.22,8.87,8.87,0,0,1,2.56,6l0,1.22a9.36,9.36,0,0,1-2.3,6.6,8.92,8.92,0,0,1-12.33,0,9.53,9.53,0,0,1-2.3-6.74Zm4.77.34a6.68,6.68,0,0,0,1,3.9,3.43,3.43,0,0,0,5.45,0,7.26,7.26,0,0,0,1-4.25A6.64,6.64,0,0,0,320,20a3.17,3.17,0,0,0-2.74-1.37A3.12,3.12,0,0,0,314.56,20,7.41,7.41,0,0,0,313.6,24.25Z"/><path class="cls-1" d="M333.17,15.14l.15,2a6.3,6.3,0,0,1,5.14-2.33,4.77,4.77,0,0,1,4.74,2.73,6.12,6.12,0,0,1,5.37-2.73,5.31,5.31,0,0,1,4.32,1.7,7.75,7.75,0,0,1,1.42,5.09V33h-4.79V21.62a3.43,3.43,0,0,0-.59-2.22,2.64,2.64,0,0,0-2.1-.71,3,3,0,0,0-3,2V33H339.1V21.63a3.33,3.33,0,0,0-.61-2.24,2.67,2.67,0,0,0-2.08-.7,3.11,3.11,0,0,0-2.94,1.69V33H328.7V15.14Z"/><path class="cls-2" d="M118.81,41H120l-2.08,9.44h-1.18Z"/><path class="cls-2" d="M129.33,45.85a2.28,2.28,0,0,0,.06-.41,1.07,1.07,0,0,0-1.16-1.06,2.75,2.75,0,0,0-1.87,1.08l-1.11,5h-1.06l1-4.59a2.43,2.43,0,0,0,.06-.49c0-.54-.41-1-1.19-1a2.77,2.77,0,0,0-1.84,1.08l-1.1,5h-1.07l1.52-6.84h1.06l-.23,1a3.08,3.08,0,0,1,2.15-1.16,1.62,1.62,0,0,1,1.76,1.26v0a3.25,3.25,0,0,1,2.38-1.3,1.68,1.68,0,0,1,1.79,1.7,3.85,3.85,0,0,1-.07.57l-1,4.74h-1.07Z"/><path class="cls-2" d="M140.77,45.85a2.5,2.5,0,0,0,0-.41,1.07,1.07,0,0,0-1.16-1.06,2.77,2.77,0,0,0-1.87,1.08l-1.1,5h-1.06l1-4.59a2.46,2.46,0,0,0,0-.49c0-.54-.41-1-1.19-1a2.75,2.75,0,0,0-1.83,1.08l-1.11,5h-1.06L133,43.6h1.07l-.23,1A3.06,3.06,0,0,1,136,43.43a1.62,1.62,0,0,1,1.76,1.26v0a3.23,3.23,0,0,1,2.37-1.3,1.68,1.68,0,0,1,1.8,1.7,3.85,3.85,0,0,1-.07.57l-1.05,4.74h-1.06Z"/><path class="cls-2" d="M147.06,43.43a2.82,2.82,0,0,1,2.95,3,4.7,4.7,0,0,1-.12.95h-5.57c0,.05,0,.22,0,.32a2.08,2.08,0,0,0,2.33,2,3.25,3.25,0,0,0,2-.67l.36.74a4,4,0,0,1-2.39.81c-2.09,0-3.34-1.21-3.34-3A4,4,0,0,1,147.06,43.43Zm2,2.89a1.92,1.92,0,0,0-2.08-2,2.71,2.71,0,0,0-2.54,2.28H149A2.23,2.23,0,0,0,149.05,46.32Z"/><path class="cls-2" d="M158,41H159l-2.09,9.44h-1.06l.21-1a2.84,2.84,0,0,1-2.25,1.15,2.55,2.55,0,0,1-2.65-2.82c0-2.22,1.38-4.36,3.58-4.36a2.7,2.7,0,0,1,2.38,1.25Zm-3.75,8.66a2.63,2.63,0,0,0,2.08-1.16l.68-3a2.32,2.32,0,0,0-2.06-1.1c-1.56,0-2.61,1.57-2.61,3.21A1.87,1.87,0,0,0,154.21,49.66Z"/><path class="cls-2" d="M160.57,43.6h1.06l-1.52,6.84h-1.06Zm1-2.57a.63.63,0,0,1,.65.62.82.82,0,0,1-.8.8.63.63,0,0,1-.65-.62A.8.8,0,0,1,161.57,41Z"/><path class="cls-2" d="M168.71,43.6h1.06l-1.52,6.84h-1.06l.21-1a2.82,2.82,0,0,1-2.25,1.15,2.55,2.55,0,0,1-2.64-2.82c0-2.22,1.37-4.36,3.58-4.36a2.7,2.7,0,0,1,2.37,1.25Zm-3.17,6.06a2.65,2.65,0,0,0,2.08-1.16l.67-3a2.3,2.3,0,0,0-2.06-1.1c-1.56,0-2.61,1.57-2.61,3.21A1.87,1.87,0,0,0,165.54,49.66Z"/><path class="cls-2" d="M170.91,49l1-4.45h-1.13l.21-.92h1.14l.41-1.87h1.06l-.41,1.87h1.39l-.22.92H173L172,48.74a2.19,2.19,0,0,0,0,.28.59.59,0,0,0,.68.64,1,1,0,0,0,.65-.23l.13.85a1.67,1.67,0,0,1-1,.33c-1,0-1.56-.4-1.56-1.25C170.87,49.29,170.89,49.11,170.91,49Z"/><path class="cls-2" d="M178.66,43.43a2.82,2.82,0,0,1,2.94,3,5.66,5.66,0,0,1-.11.95h-5.58c0,.05,0,.22,0,.32a2.07,2.07,0,0,0,2.32,2,3.25,3.25,0,0,0,2-.67l.36.74a4,4,0,0,1-2.39.81c-2.08,0-3.34-1.21-3.34-3A4,4,0,0,1,178.66,43.43Zm2,2.89a1.92,1.92,0,0,0-2.08-2A2.72,2.72,0,0,0,176,46.59h4.59A2.23,2.23,0,0,0,180.64,46.32Z"/><path class="cls-2" d="M186.89,48.07A3.78,3.78,0,0,0,190,49.56a1.85,1.85,0,0,0,2.08-1.76c0-.84-1-1.24-2-1.65-1.27-.51-2.69-1.08-2.69-2.55s1.39-2.74,3.34-2.74a4.16,4.16,0,0,1,3.41,1.48l-.8.82a3.36,3.36,0,0,0-2.73-1.27,1.81,1.81,0,0,0-2,1.56c0,.75.92,1.13,1.94,1.54,1.29.52,2.75,1.12,2.75,2.63a3.14,3.14,0,0,1-3.44,3,4.67,4.67,0,0,1-3.82-1.69Z"/><path class="cls-2" d="M200.92,43.6H202l-1.51,6.84H199.4l.22-1a2.84,2.84,0,0,1-2.25,1.15,2.55,2.55,0,0,1-2.65-2.82c0-2.22,1.37-4.36,3.58-4.36a2.71,2.71,0,0,1,2.38,1.25Zm-3.17,6.06a2.63,2.63,0,0,0,2.08-1.16l.68-3a2.33,2.33,0,0,0-2.07-1.1c-1.55,0-2.6,1.57-2.6,3.21A1.86,1.86,0,0,0,197.75,49.66Z"/><path class="cls-2" d="M203.09,43.6h1.11l1,5.61,3.53-5.61h1.18l-4.35,6.84h-1.16Z"/><path class="cls-2" d="M211,43.6h1.06l-1.51,6.84h-1.06ZM212,41a.64.64,0,0,1,.66.62.82.82,0,0,1-.81.8.63.63,0,0,1-.65-.62A.81.81,0,0,1,212,41Z"/><path class="cls-2" d="M218.31,46a2.18,2.18,0,0,0,.09-.47c0-.79-.61-1.1-1.35-1.1a3.16,3.16,0,0,0-2.18,1.08l-1.1,5h-1.06l1.51-6.84h1.07l-.23,1a3.69,3.69,0,0,1,2.42-1.16c1.2,0,2,.6,2,1.7a3.05,3.05,0,0,1-.09.57l-1.05,4.74h-1.06Z"/><path class="cls-2" d="M220.83,51.33a2.73,2.73,0,0,0,2.37,1c1,0,1.94-.52,2.29-2.09l.2-.89a3,3,0,0,1-2.32,1.16,2.52,2.52,0,0,1-2.61-2.83c0-2.15,1.36-4.25,3.57-4.25a3.08,3.08,0,0,1,2.39,1.25L227,43.6H228l-1.47,6.64c-.49,2.25-1.87,3-3.34,3a3.65,3.65,0,0,1-3.06-1.16Zm5.71-5.82a2.42,2.42,0,0,0-2.13-1.13c-1.55,0-2.53,1.56-2.53,3.13a1.85,1.85,0,0,0,1.91,2.05,3,3,0,0,0,2.1-1.09Z"/><path class="cls-2" d="M229,48.68a2.87,2.87,0,0,0,2.28,1.06c1,0,1.57-.58,1.57-1.2s-.72-.86-1.51-1.17c-1-.39-2.08-.8-2.08-1.86s.92-2.08,2.59-2.08a3.27,3.27,0,0,1,2.6,1.12l-.61.69a2.53,2.53,0,0,0-2-1c-.92,0-1.47.47-1.47,1.05s.69.81,1.46,1.11c1,.36,2.13.8,2.13,1.92a2.39,2.39,0,0,1-2.68,2.24,3.58,3.58,0,0,1-2.89-1.21Z"/><path class="cls-2" d="M234.66,51.68a2.37,2.37,0,0,0,1.19-1.19h-.11a.6.6,0,0,1-.61-.62A.87.87,0,0,1,236,49a.75.75,0,0,1,.75.84,2.92,2.92,0,0,1-1.63,2.29Z"/><path class="cls-2" d="M242.86,48.07A3.76,3.76,0,0,0,246,49.56a1.85,1.85,0,0,0,2.08-1.76c0-.84-1-1.24-2-1.65-1.28-.51-2.69-1.08-2.69-2.55s1.38-2.74,3.34-2.74a4.19,4.19,0,0,1,3.41,1.48l-.81.82a3.35,3.35,0,0,0-2.73-1.27,1.81,1.81,0,0,0-2,1.56c0,.75.92,1.13,1.94,1.54,1.28.52,2.74,1.12,2.74,2.63a3.14,3.14,0,0,1-3.44,3,4.67,4.67,0,0,1-3.82-1.69Z"/><path class="cls-2" d="M251.93,43.6H253l-1.51,6.84h-1.06Zm1-2.57a.64.64,0,0,1,.66.62.82.82,0,0,1-.81.8.63.63,0,0,1-.65-.62A.81.81,0,0,1,252.93,41Z"/><path class="cls-2" d="M262.86,45.85a2.5,2.5,0,0,0,.05-.41,1.07,1.07,0,0,0-1.16-1.06,2.77,2.77,0,0,0-1.87,1.08l-1.1,5h-1.06l1-4.59a2.46,2.46,0,0,0,.05-.49c0-.54-.41-1-1.19-1a2.75,2.75,0,0,0-1.83,1.08l-1.11,5H253.6l1.51-6.84h1.07l-.23,1a3.06,3.06,0,0,1,2.15-1.16,1.62,1.62,0,0,1,1.76,1.26v0a3.23,3.23,0,0,1,2.37-1.3,1.68,1.68,0,0,1,1.8,1.7,3.85,3.85,0,0,1-.07.57l-1,4.74h-1.06Z"/><path class="cls-2" d="M265.52,53h-1.06l2.09-9.44h1.06l-.22,1a2.87,2.87,0,0,1,2.26-1.15,2.55,2.55,0,0,1,2.65,2.82c0,2.22-1.39,4.36-3.58,4.36a2.69,2.69,0,0,1-2.38-1.25Zm3.75-8.66a2.71,2.71,0,0,0-2.1,1.17l-.66,3a2.26,2.26,0,0,0,2.06,1.11c1.56,0,2.61-1.57,2.61-3.21A1.87,1.87,0,0,0,269.27,44.38Z"/><path class="cls-2" d="M275.21,41h1.06l-2.08,9.44h-1.06Z"/><path class="cls-2" d="M280.44,43.43a2.82,2.82,0,0,1,2.94,3,5.66,5.66,0,0,1-.11.95h-5.58c0,.05,0,.22,0,.32a2.07,2.07,0,0,0,2.32,2,3.25,3.25,0,0,0,2-.67l.36.74a4,4,0,0,1-2.39.81c-2.09,0-3.34-1.21-3.34-3A4,4,0,0,1,280.44,43.43Zm2,2.89a1.92,1.92,0,0,0-2.08-2,2.72,2.72,0,0,0-2.54,2.28h4.59A2.23,2.23,0,0,0,282.42,46.32Z"/><path class="cls-2" d="M290.06,41h6.18L296,42h-5l-.68,3.05h4.91l-.23,1h-4.92l-.72,3.26h5l-.23,1H288Z"/><path class="cls-2" d="M301.59,46a2.18,2.18,0,0,0,.09-.47c0-.79-.61-1.1-1.35-1.1a3.12,3.12,0,0,0-2.17,1.08l-1.11,5H296l1.51-6.84h1.07l-.23,1a3.69,3.69,0,0,1,2.42-1.16c1.2,0,2,.6,2,1.7a3.05,3.05,0,0,1-.09.57l-1,4.74H300.6Z"/><path class="cls-2" d="M305.3,43.6h1.06l-.24,1a3.06,3.06,0,0,1,2.55-1.19l-.24,1.09a2,2,0,0,0-.54-.06,2.67,2.67,0,0,0-2,1.12l-1.06,4.83h-1.06Z"/><path class="cls-2" d="M312.54,43.43a2.89,2.89,0,0,1,3.12,3,4,4,0,0,1-3.8,4.14,2.87,2.87,0,0,1-3.13-3A4,4,0,0,1,312.54,43.43Zm0,1a3,3,0,0,0-2.66,3.16,1.93,1.93,0,0,0,2,2.12,3,3,0,0,0,2.66-3.16A1.92,1.92,0,0,0,312.51,44.38Z"/><path class="cls-2" d="M318.64,41h1.06l-2.08,9.44h-1.06Z"/><path class="cls-2" d="M321.82,41h1.06l-2.08,9.44h-1.06Z"/><path class="cls-2" d="M332.18,45.85a2.28,2.28,0,0,0,.06-.41,1.07,1.07,0,0,0-1.16-1.06,2.75,2.75,0,0,0-1.87,1.08l-1.11,5H327l1-4.59a2.43,2.43,0,0,0,.06-.49c0-.54-.41-1-1.19-1a2.77,2.77,0,0,0-1.84,1.08l-1.1,5h-1.07l1.52-6.84h1.06l-.23,1a3.1,3.1,0,0,1,2.15-1.16,1.62,1.62,0,0,1,1.76,1.26v0a3.25,3.25,0,0,1,2.38-1.3,1.67,1.67,0,0,1,1.79,1.7,3.85,3.85,0,0,1-.07.57l-1,4.74h-1.06Z"/><path class="cls-2" d="M338.48,43.43a2.81,2.81,0,0,1,2.94,3,5.66,5.66,0,0,1-.11.95h-5.58c0,.05,0,.22,0,.32a2.08,2.08,0,0,0,2.32,2,3.26,3.26,0,0,0,2-.67l.35.74a4,4,0,0,1-2.39.81c-2.08,0-3.34-1.21-3.34-3A4,4,0,0,1,338.48,43.43Zm2,2.89a1.91,1.91,0,0,0-2.08-2,2.7,2.7,0,0,0-2.53,2.28h4.58A1.18,1.18,0,0,0,340.46,46.32Z"/><path class="cls-2" d="M347.93,46a2.18,2.18,0,0,0,.09-.47c0-.79-.61-1.1-1.35-1.1a3.16,3.16,0,0,0-2.18,1.08l-1.1,5h-1.06l1.51-6.84h1.06l-.22,1a3.69,3.69,0,0,1,2.42-1.16c1.2,0,2,.6,2,1.7a3.05,3.05,0,0,1-.09.57L348,50.44h-1.06Z"/><path class="cls-2" d="M350.67,49l1-4.45h-1.14l.22-.92h1.13l.41-1.87h1.06l-.41,1.87h1.39l-.22.92h-1.38l-.94,4.22a2.3,2.3,0,0,0,0,.28.58.58,0,0,0,.67.64,1.05,1.05,0,0,0,.66-.23l.12.85a1.67,1.67,0,0,1-1,.33c-.95,0-1.56-.4-1.56-1.25A2.43,2.43,0,0,1,350.67,49Z"/><path class="cls-1" d="M11.16,19.69h8.76c6.3,0,12.67-2.28,12.67-9.13a4.84,4.84,0,0,0,0-.78C32.1,3.49,26.22,0,18.14,0H.24V33H11.16Zm0-15.3h3.53c3.94,0,6.41,2.11,6.53,5.39v.29c0,3.08-2,5.11-6.16,5.11h-3.9V4.39Z"/><path class="cls-1" d="M72.27,17.09v-.61C71.91,6.58,63,0,51.21,0H34V33H53.08C63.51,33,72.27,27.6,72.27,17.09ZM44.92,28.82V4.14h3.65c7.71,0,11.85,5.36,11.85,11.61v.73c-.24,6.29-3.61,12.34-11.48,12.34Z"/><path class="cls-1" d="M74.42,33l3.78-9.49H91.46L95.73,33h12.21l-8.8-19.72L93.25,0H82.34L76.9,13.23,68.74,33ZM84.49,7.47h.12l2.55,5.76L89.68,19H80.1l2.2-5.73Z"/><rect class="cls-1" y="35.67" width="108.22" height="2.84"/><path class="cls-1" d="M6.17,68.91A42,42,0,0,0,11,74.55a46.81,46.81,0,0,0,4.74,4.06c1.63,1.17,3.33,2.31,5.12,3.36,8.84,5.12,20,8.44,33,9.5,13.23-1.06,24.55-4.38,33.44-9.5a59.36,59.36,0,0,0,5.11-3.36,47.45,47.45,0,0,0,4.79-4.06,45.62,45.62,0,0,0,4.83-5.64A35.35,35.35,0,0,0,108.18,54H0A35.9,35.9,0,0,0,6.17,68.91ZM27.63,82.1c.05,0,.05-.08.09-.13a22.61,22.61,0,0,1,2.84-3.36c1-.94,1.82-1.67,2.63-2.32a27.26,27.26,0,0,0,2.24,2.32C36.68,79.78,38,80.92,39.36,82c2.76,2.2,5.56,4.1,7.51,5.68C43.38,87.9,32.83,84.61,27.63,82.1Zm24.76,5.8A102.06,102.06,0,0,1,43.87,82c-1.42-1.09-2.84-2.23-4.18-3.36a55.81,55.81,0,0,1-4.26-4s.08,0,.12-.08a28.8,28.8,0,0,1,14-5.64c.89-.12,1.86-.25,2.88-.33V87.9Zm27.83-5.8C75,84.61,64.48,87.9,60.91,87.65c2-1.58,4.83-3.48,7.63-5.68,1.34-1,2.68-2.19,3.94-3.36a28.31,28.31,0,0,0,2.19-2.32c.81.65,1.66,1.38,2.63,2.32A26.06,26.06,0,0,1,80.15,82S80.19,82.06,80.22,82.1Zm24-25.24a26.8,26.8,0,0,1-5.85,12,40.43,40.43,0,0,1-5.56,5.68,46.62,46.62,0,0,1-5.6,4,33.45,33.45,0,0,1-4.34,2.31,23.11,23.11,0,0,0-1.7-2.31c-1.3-1.59-2.6-2.76-3.86-4.06l-.61-.61a28.92,28.92,0,0,0,3.45-5,28.86,28.86,0,0,0,3.9-12Zm-48.7,0H81a29.27,29.27,0,0,1-4,12,16.71,16.71,0,0,1-2.76,3.37,42.12,42.12,0,0,0-5.92-3.37,42.51,42.51,0,0,0-12.91-3.17Zm0,11.72c1,.08,2,.21,2.88.33a29,29,0,0,1,13.92,5.64s.08,0,.12.08a55.81,55.81,0,0,1-4.26,4C66.84,79.74,65.41,80.88,64,82a101.69,101.69,0,0,1-8.48,5.93V68.58ZM52.39,56.86v8.88a42.51,42.51,0,0,0-12.91,3.17,39.93,39.93,0,0,0-5.92,3.37,17.05,17.05,0,0,1-2.76-3.37,28.19,28.19,0,0,1-4-12Zm-24.71,12a29.4,29.4,0,0,0,3.48,5l-.6.61C29.3,75.85,28,77,26.66,78.61A21.59,21.59,0,0,0,25,80.92a30.77,30.77,0,0,1-4.3-2.31,46.62,46.62,0,0,1-5.6-4,40.69,40.69,0,0,1-5.6-5.68,28.24,28.24,0,0,1-5.93-12H23.82A27.73,27.73,0,0,0,27.68,68.91Z"/><path class="cls-1" d="M2.47,46.46a4.47,4.47,0,0,0,1.47-.18,1.49,1.49,0,0,0,.74-.58,1.8,1.8,0,0,0,.28-1,1.73,1.73,0,0,0-.34-1.07,1.45,1.45,0,0,0-.83-.55,5.48,5.48,0,0,0-1.38-.13h-2v5.59h1.5V46.46Zm-.53-2.63h.47a1.66,1.66,0,0,1,.5.06.58.58,0,0,1,.32.25.82.82,0,0,1,.14.52,1,1,0,0,1-.18.61,1,1,0,0,1-.78.24H1.94Z"/><path class="cls-1" d="M5.9,46.4a1.24,1.24,0,0,0-.56,1.08,1,1,0,0,0,.37.85,1.54,1.54,0,0,0,1,.29,1.51,1.51,0,0,0,1.38-.74,1.89,1.89,0,0,0,.07.64H9.41a3.14,3.14,0,0,1-.07-.92V45.94A2.63,2.63,0,0,0,9.23,45a1.05,1.05,0,0,0-.54-.52,2.49,2.49,0,0,0-1.14-.22,2.64,2.64,0,0,0-1.38.33,1.3,1.3,0,0,0-.65,1l1.34.11c0-.42.23-.63.58-.63.2,0,.33.05.39.16a1.13,1.13,0,0,1,.1.58v.15A4.27,4.27,0,0,0,5.9,46.4Zm2,.35a1.44,1.44,0,0,1-.2.88.61.61,0,0,1-.47.23c-.31,0-.47-.17-.47-.53a.62.62,0,0,1,.26-.56,2,2,0,0,1,.88-.22Z"/><path class="cls-1" d="M10.36,44.39v4.13h1.4V46.75c0-.84.35-1.26,1-1.26H13V44.36l-.24,0q-.87,0-1.2,1v-1Z"/><path class="cls-1" d="M17.38,46.65a2.39,2.39,0,0,0-.58-1.86,2.12,2.12,0,0,0-1.44-.5,2.06,2.06,0,0,0-1.52.57,2.23,2.23,0,0,0-.56,1.65,2.14,2.14,0,0,0,.53,1.54,2.06,2.06,0,0,0,1.57.57,1.8,1.8,0,0,0,2-1.43l-1.25-.06a.69.69,0,0,1-.73.7.63.63,0,0,1-.49-.19,1.09,1.09,0,0,1-.19-.76v-.23Zm-2-1.6c.45,0,.67.27.67.81V46H14.73Q14.73,45.05,15.39,45.05Z"/><path class="cls-1" d="M18.18,44.39v4.13h1.41V46.09a1.45,1.45,0,0,1,.12-.71c.08-.13.25-.19.51-.19a.54.54,0,0,1,.35.1c.09.06.13.23.13.51v2.72h1.41V45.8a3,3,0,0,0-.09-.86.84.84,0,0,0-.41-.47,1.69,1.69,0,0,0-.82-.18,1.33,1.33,0,0,0-1.27.65v-.55Z"/><path class="cls-1" d="M23.27,43.13v1.26H22.7v.9h.57V47a3.66,3.66,0,0,0,.09,1,.87.87,0,0,0,.44.51,2,2,0,0,0,1,.2,5.5,5.5,0,0,0,.86-.08v-.85h-.4a.79.79,0,0,1-.43-.09.35.35,0,0,1-.15-.21,5.42,5.42,0,0,1,0-.55V45.29h.93v-.9h-.93v-1.3Z"/><path class="cls-1" d="M30.08,46.65a2.43,2.43,0,0,0-.58-1.86,2.12,2.12,0,0,0-1.44-.5,2.06,2.06,0,0,0-1.52.57A2.23,2.23,0,0,0,26,46.51a2.14,2.14,0,0,0,.54,1.54,2,2,0,0,0,1.56.57,1.81,1.81,0,0,0,2-1.43l-1.25-.06a.69.69,0,0,1-.74.7.62.62,0,0,1-.48-.19,1.09,1.09,0,0,1-.19-.76v-.23Zm-2-1.6c.45,0,.67.27.67.81V46H27.43Q27.43,45.05,28.09,45.05Z"/><path class="cls-1" d="M30.88,44.39v4.13h1.41V46.75c0-.84.35-1.26,1-1.26h.24V44.36l-.24,0c-.58,0-1,.35-1.21,1v-1Z"/><path class="cls-1" d="M34.48,46.4a1.24,1.24,0,0,0-.56,1.08,1,1,0,0,0,.37.85,1.68,1.68,0,0,0,2.34-.45,2.29,2.29,0,0,0,.06.64H38a3.14,3.14,0,0,1-.07-.92V45.94a2.9,2.9,0,0,0-.11-.91,1.09,1.09,0,0,0-.54-.52,2.49,2.49,0,0,0-1.14-.22,2.67,2.67,0,0,0-1.39.33,1.32,1.32,0,0,0-.64,1l1.34.11c0-.42.23-.63.58-.63a.42.42,0,0,1,.39.16,1.13,1.13,0,0,1,.1.58v.15A4.27,4.27,0,0,0,34.48,46.4Zm2,.35a1.36,1.36,0,0,1-.21.88.59.59,0,0,1-.46.23c-.32,0-.47-.17-.47-.53a.6.6,0,0,1,.26-.56,2,2,0,0,1,.88-.22Z"/><rect class="cls-1" x="38.93" y="42.93" width="1.41" height="5.58"/><path class="cls-1" d="M47.3,48a2.35,2.35,0,0,0,.63-.92,3.47,3.47,0,0,0,.24-1.33,3,3,0,0,0-.4-1.68,2,2,0,0,0-1.05-.86,5.28,5.28,0,0,0-1.7-.23H43.41v5.59H45.2a5.17,5.17,0,0,0,1.22-.12A1.9,1.9,0,0,0,47.3,48ZM46,47.4a1.59,1.59,0,0,1-.8.17h-.25V43.88h.25a1.79,1.79,0,0,1,.77.14,1.1,1.1,0,0,1,.47.52,2.72,2.72,0,0,1,.18,1.11,3.07,3.07,0,0,1-.17,1.18A1.11,1.11,0,0,1,46,47.4Z"/><path class="cls-1" d="M49,44.39v4.13h1.41V46.75c0-.84.34-1.26,1-1.26h.24V44.36l-.24,0c-.58,0-1,.35-1.21,1v-1Z"/><path class="cls-1" d="M52.07,44.39v2.7a3.68,3.68,0,0,0,.08.88.87.87,0,0,0,.38.47,1.57,1.57,0,0,0,.83.18,2.1,2.1,0,0,0,.7-.11,1.47,1.47,0,0,0,.6-.54v.55H56V44.39H54.59v2.12a6.65,6.65,0,0,1,0,.8.43.43,0,0,1-.18.3.62.62,0,0,1-.42.11c-.2,0-.33,0-.39-.13a1.08,1.08,0,0,1-.09-.54V44.39Z"/><path class="cls-1" d="M56.71,49c0,.66.69,1,2.08,1,1.64,0,2.47-.46,2.47-1.38a1,1,0,0,0-.26-.7,1.23,1.23,0,0,0-.63-.35,6.62,6.62,0,0,0-1.15-.12,6.77,6.77,0,0,1-1-.09c-.12,0-.19-.1-.19-.2s.12-.25.35-.35a3.09,3.09,0,0,0,.66.07,2.31,2.31,0,0,0,1.32-.34,1.06,1.06,0,0,0,.13-1.72.5.5,0,0,1,.54-.37l.3,0V43.7a1.48,1.48,0,0,0-.39-.05,1,1,0,0,0-.67.19,1,1,0,0,0-.27.63,3.22,3.22,0,0,0-1.08-.18,2.67,2.67,0,0,0-1.39.32,1.06,1.06,0,0,0-.52.94,1,1,0,0,0,.75,1q-.87.38-.87.9c0,.31.22.55.66.71C57,48.34,56.71,48.6,56.71,49Zm1.84-3.9a.46.46,0,0,1,.4-.16c.3,0,.46.22.46.66a.92.92,0,0,1-.11.51.41.41,0,0,1-.36.15c-.34,0-.5-.21-.5-.63A1,1,0,0,1,58.55,45.07Zm-.23,3.24.63,0c.36,0,.59,0,.71,0a.49.49,0,0,1,.27.13.33.33,0,0,1,.11.27c0,.29-.33.44-1,.44s-1.17-.14-1.17-.43S58,48.42,58.32,48.31Z"/><path class="cls-1" d="M66.53,47.35l.34,1.17H68.4l-1.94-5.59H65l-2,5.59h1.37l.33-1.17Zm-1-3.24.69,2.29H64.9Z"/><path class="cls-1" d="M70.43,47.86a.74.74,0,0,1-.81-.61l-1.11.14q.19,1.23,1.89,1.23a2.28,2.28,0,0,0,1.42-.39,1.19,1.19,0,0,0,.5-1,1,1,0,0,0-.19-.59,1.1,1.1,0,0,0-.45-.38,5.35,5.35,0,0,0-.86-.3,3.24,3.24,0,0,1-.68-.25.36.36,0,0,1-.16-.32c0-.25.14-.37.44-.37a.74.74,0,0,1,.74.56l1-.24a1.59,1.59,0,0,0-1.7-1.08,2.17,2.17,0,0,0-1.28.36,1.12,1.12,0,0,0-.5,1,1,1,0,0,0,.32.75,2.64,2.64,0,0,0,1.19.55,2.7,2.7,0,0,1,.64.24.34.34,0,0,1,.17.31Q71,47.86,70.43,47.86Z"/><path class="cls-1" d="M74.6,47.86a.73.73,0,0,1-.8-.61l-1.11.14q.18,1.23,1.89,1.23A2.27,2.27,0,0,0,76,48.23a1.19,1.19,0,0,0,.5-1,1,1,0,0,0-.18-.59,1.19,1.19,0,0,0-.46-.38A5.16,5.16,0,0,0,75,46a3,3,0,0,1-.68-.25.37.37,0,0,1-.17-.32c0-.25.15-.37.44-.37a.73.73,0,0,1,.74.56l1-.24a1.59,1.59,0,0,0-1.7-1.08,2.14,2.14,0,0,0-1.27.36,1.12,1.12,0,0,0-.51,1,1,1,0,0,0,.32.75,2.68,2.68,0,0,0,1.2.55,2.9,2.9,0,0,1,.64.24.34.34,0,0,1,.16.31Q75.17,47.86,74.6,47.86Z"/><path class="cls-1" d="M81.07,46.45c0-1.44-.68-2.16-2-2.16s-2,.72-2,2.16.68,2.17,2,2.17S81.07,47.9,81.07,46.45Zm-2.54,1.08a3.26,3.26,0,0,1-.12-1.07,2.89,2.89,0,0,1,.14-1.11.49.49,0,0,1,.47-.27.49.49,0,0,1,.47.29,2.84,2.84,0,0,1,.14,1.09,3.2,3.2,0,0,1-.13,1.07.48.48,0,0,1-.48.3A.48.48,0,0,1,78.53,47.53Z"/><path class="cls-1" d="M83.78,45.19a.46.46,0,0,1,.41.18,1.25,1.25,0,0,1,.15.56l1.3,0c-.1-1.07-.74-1.6-1.92-1.6a2,2,0,0,0-1.52.56,2.73,2.73,0,0,0,0,3.23,2,2,0,0,0,1.49.54c1.2,0,1.86-.54,2-1.62l-1.3-.07c0,.51-.23.76-.58.76a.56.56,0,0,1-.51-.28,2,2,0,0,1-.18-1C83.07,45.6,83.31,45.19,83.78,45.19Z"/><rect class="cls-1" x="86.38" y="42.92" width="1.44" height="1.14"/><rect class="cls-1" x="86.4" y="44.39" width="1.41" height="4.12"/><path class="cls-1" d="M89.25,46.4a1.22,1.22,0,0,0-.56,1.08,1,1,0,0,0,.37.85,1.49,1.49,0,0,0,1,.29,1.51,1.51,0,0,0,1.38-.74,1.89,1.89,0,0,0,.07.64h1.3a3.14,3.14,0,0,1-.07-.92V45.94a2.58,2.58,0,0,0-.12-.91,1,1,0,0,0-.54-.52,2.42,2.42,0,0,0-1.13-.22,2.67,2.67,0,0,0-1.39.33,1.33,1.33,0,0,0-.65,1l1.34.11c0-.42.23-.63.59-.63a.42.42,0,0,1,.39.16,1.25,1.25,0,0,1,.1.58v.15A4.27,4.27,0,0,0,89.25,46.4Zm2,.35a1.36,1.36,0,0,1-.21.88.59.59,0,0,1-.47.23c-.31,0-.47-.17-.47-.53a.61.61,0,0,1,.27-.56,2,2,0,0,1,.88-.22Z"/><path class="cls-1" d="M93.91,43.13v1.26h-.56v.9h.56V47a3.2,3.2,0,0,0,.1,1,.85.85,0,0,0,.43.51,2,2,0,0,0,1,.2,5.61,5.61,0,0,0,.86-.08v-.85h-.4a.76.76,0,0,1-.43-.09.28.28,0,0,1-.15-.21,3.44,3.44,0,0,1,0-.55V45.29h.93v-.9h-.93v-1.3Z"/><rect class="cls-1" x="96.83" y="44.39" width="1.41" height="4.12"/><rect class="cls-1" x="96.81" y="42.92" width="1.44" height="1.14"/><path class="cls-1" d="M103.16,46.45c0-1.44-.69-2.16-2-2.16s-2.06.72-2.06,2.16.69,2.17,2.06,2.17S103.16,47.9,103.16,46.45Zm-2.54,1.08a3.26,3.26,0,0,1-.12-1.07,2.7,2.7,0,0,1,.14-1.11.53.53,0,0,1,.94,0,2.9,2.9,0,0,1,.13,1.09,3,3,0,0,1-.13,1.07.46.46,0,0,1-.47.3A.47.47,0,0,1,100.62,47.53Z"/><path class="cls-1" d="M104,44.39v4.13h1.41V46.09a1.45,1.45,0,0,1,.12-.71c.08-.13.25-.19.51-.19a.56.56,0,0,1,.35.1c.09.06.13.23.13.51v2.72h1.41V45.8a3,3,0,0,0-.09-.86.83.83,0,0,0-.42-.47,1.62,1.62,0,0,0-.81-.18,1.32,1.32,0,0,0-1.27.65v-.55Z"/><path class="cls-1" d="M105.89,5.71A2,2,0,0,0,107,5.35a2.51,2.51,0,0,0,.87-1,3.17,3.17,0,0,0,.33-1.47,3.12,3.12,0,0,0-.67-2,2,2,0,0,0-2.8-.5,2.54,2.54,0,0,0-.87,1,3.24,3.24,0,0,0-.33,1.47,3.14,3.14,0,0,0,.67,2A2,2,0,0,0,105.89,5.71Zm-1.42-4.5a1.76,1.76,0,0,1,1.42-.74,1.71,1.71,0,0,1,1.33.66,2.53,2.53,0,0,1,.62,1.73,2.65,2.65,0,0,1-.54,1.64,1.76,1.76,0,0,1-1.41.74,1.73,1.73,0,0,1-1.34-.65,2.54,2.54,0,0,1-.61-1.73A2.65,2.65,0,0,1,104.47,1.21Z"/><path class="cls-1" d="M105.27,3.13h.24a.45.45,0,0,1,.33.12,2.45,2.45,0,0,1,.41.7l.23.49H107l-.3-.6a2.93,2.93,0,0,0-.36-.6.62.62,0,0,0-.22-.17.73.73,0,0,0,.51-.28.9.9,0,0,0,.2-.59.8.8,0,0,0-.13-.46.62.62,0,0,0-.31-.29,1.58,1.58,0,0,0-.63-.09h-.87V4.44h.41Zm0-1.35h.46a1.1,1.1,0,0,1,.39.05.43.43,0,0,1,.18.15.46.46,0,0,1,.07.26.45.45,0,0,1-.14.35.72.72,0,0,1-.47.12h-.49Z"/></g></g></svg>