<svg xmlns="http://www.w3.org/2000/svg" viewBox="0 0 196.56 196.56"><defs><style>.cls-1{fill:#4ba1d9;}</style></defs><title>jhc-iconAsset 2</title><g id="Layer_2" data-name="Layer 2"><g id="Layer_1-2" data-name="Layer 1"><path class="cls-1" d="M98.28,0a98.28,98.28,0,1,0,98.28,98.28h0A98.39,98.39,0,0,0,98.28,0Zm79.23,57a88.64,88.64,0,0,1,10,37.46L176,77.46Zm-3.89-6.71L155.16,41.4l-8.9-18.46A90.13,90.13,0,0,1,173.62,50.29Zm-2.3,65.65-6.14-16.45a66.42,66.42,0,0,1-7.09,28.69l13.13-11.83a75,75,0,0,1-18.48,33.57l2.88-17.26a67.2,67.2,0,0,1-20.71,21.47l17.33-3.69a75.14,75.14,0,0,1-32.62,19.76l11.28-13.64A66.41,66.41,0,0,1,102,164.94l16.89,5.47a75,75,0,0,1-38.07.83L97.47,165a66.54,66.54,0,0,1-29.22-7.1L80.06,171A74.91,74.91,0,0,1,46.65,152.7l17.42,2.92A67.4,67.4,0,0,1,42.45,135l3.67,17.19A75.07,75.07,0,0,1,26.2,119.46L39.83,130.8a66.57,66.57,0,0,1-8.38-28.42L26,119.09a75.19,75.19,0,0,1-.88-38.6l6.17,16.56a66.65,66.65,0,0,1,6.8-28.4L25.25,80.28a75,75,0,0,1,18.64-34L41,63.49A67.28,67.28,0,0,1,60.9,42.62l-17,3.62a75.13,75.13,0,0,1,106.21-2.49l.18.18-17-2.93A67.24,67.24,0,0,1,154,61l-3.65-17.1a75.14,75.14,0,0,1,20.13,33.24L157.05,66a66.5,66.5,0,0,1,8,28.05l5.43-16.79a75.15,75.15,0,0,1,.8,38.62ZM139.56,19.05l-20.45,1.51L102.1,9A88.62,88.62,0,0,1,139.56,19.05ZM94.46,9l-17,11.56L57,19.05A88.77,88.77,0,0,1,94.46,9ZM50.3,22.94,41.4,41.4,22.94,50.3A89.94,89.94,0,0,1,50.3,22.94ZM19.06,57l1.5,20.46L9,94.46A88.64,88.64,0,0,1,19.06,57Zm1.5,62.12-1.51,20.45A88.85,88.85,0,0,1,9,102.1Zm2.38,27.15,18.46,8.9,8.9,18.46a90,90,0,0,1-27.36-27.37ZM57,177.51,77.45,176l17,11.55A88.63,88.63,0,0,1,57,177.5Zm45.1,10.05,17-11.55,20.45,1.5a88.61,88.61,0,0,1-37.45,10Zm44.16-13.93,8.9-18.46,18.46-8.9a89.91,89.91,0,0,1-27.36,27.35Zm31.24-34.06L176,119.12l11.55-17a88.54,88.54,0,0,1-10.05,37.44Z"/><path class="cls-1" d="M116.19,25.15,99.9,31.22A66.59,66.59,0,0,1,127.77,38Z"/><path class="cls-1" d="M77.22,26,66.16,39.38a66.59,66.59,0,0,1,27.58-8Z"/><path class="cls-1" d="M49,62.13,41.62,65.7l.63,8.15A60.52,60.52,0,0,1,49,62.13Z"/><path class="cls-1" d="M37.57,91.54l-4.65,6.85,4.72,6.91A60.31,60.31,0,0,1,37.57,91.54Z"/><path class="cls-1" d="M98.28,37.08a62,62,0,0,1,6.53.35l-6.64-4.51-6.64,4.54A60.81,60.81,0,0,1,98.28,37.08Z"/><path class="cls-1" d="M154.83,65.51,147.48,62a61.17,61.17,0,0,1,6.75,11.68Z"/><path class="cls-1" d="M159.35,98.14a64.1,64.1,0,0,1-.4,6.93l4.68-6.9L159,91.32A59.71,59.71,0,0,1,159.35,98.14Z"/><path class="cls-1" d="M147.31,134.56l7.63-3.7-.64-8.38A61.35,61.35,0,0,1,147.31,134.56Z"/><path class="cls-1" d="M91.26,158.8l7.13,4.83,7.13-4.86a60.39,60.39,0,0,1-7.24.44A63.27,63.27,0,0,1,91.26,158.8Z"/><path class="cls-1" d="M131.05,154.81l3.7-7.68a60.8,60.8,0,0,1-12.23,7.07Z"/><path class="cls-1" d="M65.7,154.94l8.53-.66a59.79,59.79,0,0,1-12.26-7Z"/><path class="cls-1" d="M41.74,131.05l7.64,3.67a60.55,60.55,0,0,1-7-12.07Z"/><path class="cls-1" d="M134.39,48.9l-3.56-7.28-8,.61A61.55,61.55,0,0,1,134.39,48.9Z"/><path class="cls-1" d="M65.51,41.74,62,49a61.14,61.14,0,0,1,11.53-6.7Z"/></g></g></svg>