<svg xmlns="http://www.w3.org/2000/svg" viewBox="0 0 834.21 322.46"><defs><style>.cls-1{fill:#4ba1d9;}.cls-2{fill:#6c6a6c;}.cls-3{fill:#2c456e;}</style></defs><title>jhc-logoAsset 1</title><g id="Layer_2" data-name="Layer 2"><g id="Layer_1-2" data-name="Layer 1"><g id="Layer_1-2-2" data-name="Layer 1-2"><path class="cls-1" d="M420.45,0a98.28,98.28,0,1,0,98.28,98.28h0A98.39,98.39,0,0,0,420.45,0Zm79.23,57a88.64,88.64,0,0,1,10,37.46l-11.55-17Zm-3.89-6.71L477.33,41.4l-8.9-18.46A90.13,90.13,0,0,1,495.79,50.29Zm-2.3,65.65-6.14-16.45a66.42,66.42,0,0,1-7.09,28.69l13.13-11.83a75,75,0,0,1-18.48,33.57l2.88-17.26a67.2,67.2,0,0,1-20.71,21.47l17.33-3.69a75.14,75.14,0,0,1-32.62,19.76l11.28-13.64a66.41,66.41,0,0,1-28.89,8.38l16.89,5.47a75,75,0,0,1-38.07.83L419.64,165a66.54,66.54,0,0,1-29.22-7.1L402.23,171a74.91,74.91,0,0,1-33.41-18.33l17.42,2.92A67.4,67.4,0,0,1,364.62,135l3.67,17.19a75.07,75.07,0,0,1-19.92-32.73L362,130.8a66.57,66.57,0,0,1-8.38-28.42l-5.41,16.71a75.19,75.19,0,0,1-.88-38.6l6.17,16.56a66.65,66.65,0,0,1,6.8-28.4L347.42,80.28a75,75,0,0,1,18.64-34l-2.88,17.21a67.28,67.28,0,0,1,19.89-20.87l-17,3.62a75.13,75.13,0,0,1,106.21-2.49l.18.18-17-2.93a67.24,67.24,0,0,1,20.75,20l-3.65-17.1a75.14,75.14,0,0,1,20.13,33.24L479.22,66a66.5,66.5,0,0,1,8,28.05l5.43-16.79a75.15,75.15,0,0,1,.8,38.62ZM461.73,19.05l-20.45,1.51L424.27,9A88.62,88.62,0,0,1,461.73,19.05ZM416.63,9l-17,11.56-20.45-1.51A88.77,88.77,0,0,1,416.63,9ZM372.47,22.94l-8.9,18.46-18.46,8.9A89.94,89.94,0,0,1,372.47,22.94ZM341.23,57l1.5,20.46-11.56,17A88.64,88.64,0,0,1,341.23,57Zm1.5,62.12-1.51,20.45a88.85,88.85,0,0,1-10.05-37.47Zm2.38,27.15,18.46,8.9,8.9,18.46a90,90,0,0,1-27.36-27.37Zm34.06,31.24,20.45-1.5,17,11.55a88.63,88.63,0,0,1-37.45-10.06Zm45.1,10.05,17-11.55,20.45,1.5a88.61,88.61,0,0,1-37.45,10Zm44.16-13.93,8.9-18.46,18.46-8.9a89.91,89.91,0,0,1-27.36,27.35Zm31.24-34.06-1.5-20.45,11.55-17a88.54,88.54,0,0,1-10.05,37.44Z"/><path class="cls-1" d="M438.36,25.15l-16.29,6.07A66.59,66.59,0,0,1,449.94,38Z"/><path class="cls-1" d="M399.39,26,388.33,39.38a66.59,66.59,0,0,1,27.58-8Z"/><path class="cls-1" d="M371.14,62.13l-7.35,3.57.63,8.15A60,60,0,0,1,371.14,62.13Z"/><path class="cls-1" d="M359.74,91.54l-4.65,6.85,4.72,6.91A60.31,60.31,0,0,1,359.74,91.54Z"/><path class="cls-1" d="M420.45,37.08a62,62,0,0,1,6.53.35l-6.64-4.51-6.64,4.54A60.81,60.81,0,0,1,420.45,37.08Z"/><path class="cls-1" d="M477,65.51,469.65,62a61.17,61.17,0,0,1,6.75,11.68Z"/><path class="cls-1" d="M481.52,98.14a64.1,64.1,0,0,1-.4,6.93l4.68-6.9-4.67-6.85A59.71,59.71,0,0,1,481.52,98.14Z"/><path class="cls-1" d="M469.48,134.56l7.63-3.7-.64-8.38A61.35,61.35,0,0,1,469.48,134.56Z"/><path class="cls-1" d="M413.43,158.8l7.13,4.83,7.13-4.86a60.39,60.39,0,0,1-7.24.44A63.27,63.27,0,0,1,413.43,158.8Z"/><path class="cls-1" d="M453.22,154.81l3.7-7.68a60.8,60.8,0,0,1-12.23,7.07Z"/><path class="cls-1" d="M387.87,154.94l8.53-.66a59.79,59.79,0,0,1-12.26-7Z"/><path class="cls-1" d="M363.91,131.05l7.64,3.67a60.55,60.55,0,0,1-7-12.07Z"/><path class="cls-1" d="M456.56,48.9,453,41.62l-8,.61A61.55,61.55,0,0,1,456.56,48.9Z"/><path class="cls-1" d="M387.68,41.74,384.17,49a61.14,61.14,0,0,1,11.53-6.7Z"/><path class="cls-2" d="M166.82,296.76h2.46v19.81h-2.46Z"/><path class="cls-2" d="M192.32,306.83c0-1.81-.8-3-2.64-3a5,5,0,0,0-3.8,2.19v10.52h-2.23V306.8c0-1.81-.77-3-2.64-3a5,5,0,0,0-3.77,2.22v10.49H175V302.22h2.23v2.08a6.18,6.18,0,0,1,4.63-2.43,3.69,3.69,0,0,1,3.86,2.67,6,6,0,0,1,4.81-2.67c2.62,0,4,1.45,4,4.33v10.37H192.3Z"/><path class="cls-2" d="M217.5,306.83c0-1.81-.8-3-2.64-3a5,5,0,0,0-3.8,2.19v10.52h-2.23V306.8c0-1.81-.77-3-2.64-3a5,5,0,0,0-3.77,2.22v10.49h-2.23V302.22h2.23v2.08a6.18,6.18,0,0,1,4.63-2.43,3.69,3.69,0,0,1,3.86,2.67,6,6,0,0,1,4.81-2.67c2.62,0,4,1.45,4,4.33v10.37H217.5Z"/><path class="cls-2" d="M231.61,301.87c4.34,0,6.89,3.38,6.89,7.69v.56H226.89a5,5,0,0,0,5.1,5h.07a6.31,6.31,0,0,0,4.42-1.81l1.07,1.46a7.83,7.83,0,0,1-5.7,2.19c-4.25,0-7.31-3.06-7.31-7.54C224.54,305.22,227.51,301.87,231.61,301.87Zm-4.72,6.62h9.41a4.65,4.65,0,0,0-4.5-4.78h-.22A4.78,4.78,0,0,0,226.89,308.49Z"/><path class="cls-2" d="M253.67,314.43a6,6,0,0,1-4.84,2.49c-3.74,0-6.38-2.85-6.38-7.51s2.61-7.54,6.38-7.54a6,6,0,0,1,4.84,2.52v-7.63h2.23v19.81h-2.23Zm0-8.26a5.39,5.39,0,0,0-4.3-2.31c-2.88,0-4.61,2.37-4.61,5.55s1.73,5.52,4.61,5.52a5.34,5.34,0,0,0,4.3-2.25Z"/><path class="cls-2" d="M261.16,298.3a1.5,1.5,0,1,1,1.5,1.5A1.5,1.5,0,0,1,261.16,298.3Zm.38,3.92h2.23v14.35h-2.23Z"/><path class="cls-2" d="M278.38,314.93a6.16,6.16,0,0,1-4.75,2,4.76,4.76,0,0,1-5-4.53,1.7,1.7,0,0,1,0-.22c0-3.21,2.58-4.72,5-4.72a6,6,0,0,1,4.75,2v-2.58c0-1.93-1.55-3-3.62-3a5.69,5.69,0,0,0-4.4,2l-1-1.55a7.52,7.52,0,0,1,5.73-2.37c3,0,5.56,1.36,5.56,4.84v9.86h-2.23Zm0-4.09a4.82,4.82,0,0,0-3.95-1.79,3.23,3.23,0,0,0-3.52,2.89c0,.09,0,.17,0,.26,0,1.81,1.45,3.12,3.53,3.12a4.8,4.8,0,0,0,3.95-1.78Z"/><path class="cls-2" d="M286.69,313.57v-9.39h-2.37v-2h2.37V298.3h2.23v3.92h2.91v2h-2.91v8.91c0,1.07.48,1.84,1.46,1.84a2.13,2.13,0,0,0,1.51-.59l.65,1.66a3.59,3.59,0,0,1-2.67.92C287.76,316.92,286.69,315.71,286.69,313.57Z"/><path class="cls-2" d="M302.4,301.87c4.34,0,6.89,3.38,6.89,7.69v.56H297.68a5,5,0,0,0,5.1,5h.07a6.31,6.31,0,0,0,4.42-1.81l1.07,1.46a7.83,7.83,0,0,1-5.7,2.19c-4.25,0-7.31-3.06-7.31-7.54C295.33,305.22,298.3,301.87,302.4,301.87Zm-4.72,6.62h9.41a4.65,4.65,0,0,0-4.5-4.78h-.22A4.78,4.78,0,0,0,297.68,308.49Z"/><path class="cls-2" d="M314.43,311.9a8.35,8.35,0,0,0,6.23,2.83c3.54,0,4.66-1.9,4.66-3.42,0-2.37-2.4-3-5-3.74-3.18-.83-6.71-1.72-6.71-5.61,0-3.27,2.91-5.5,6.8-5.5a9.28,9.28,0,0,1,7,2.77L326,301a7.6,7.6,0,0,0-5.73-2.38c-2.38,0-4.07,1.28-4.07,3.15s2.29,2.58,4.81,3.27c3.24.86,6.92,1.87,6.92,6,0,2.88-2,5.82-7.31,5.82a9.8,9.8,0,0,1-7.6-3.14Z"/><path class="cls-2" d="M341.63,314.93a6.16,6.16,0,0,1-4.75,2,4.76,4.76,0,0,1-5-4.53,1.7,1.7,0,0,1,0-.22c0-3.21,2.58-4.72,5-4.72a6,6,0,0,1,4.75,2v-2.58c0-1.93-1.55-3-3.63-3a5.65,5.65,0,0,0-4.39,2l-1-1.55a7.52,7.52,0,0,1,5.73-2.37c3,0,5.55,1.36,5.55,4.84v9.86h-2.22Zm0-4.09a4.82,4.82,0,0,0-3.95-1.79,3.24,3.24,0,0,0-3.53,2.9c0,.09,0,.17,0,.25,0,1.81,1.46,3.12,3.54,3.12a4.8,4.8,0,0,0,3.95-1.78Z"/><path class="cls-2" d="M347.36,302.22h2.4L354.54,314l4.76-11.76h2.43l-6,14.35H353.3Z"/><path class="cls-2" d="M364.85,298.3a1.48,1.48,0,0,1,1.48-1.48h0a1.5,1.5,0,0,1,1.52,1.48h0a1.5,1.5,0,1,1-3,0Zm.38,3.92h2.23v14.35h-2.23Z"/><path class="cls-2" d="M382.78,307.18c0-2.52-1.27-3.32-3.2-3.32a5.54,5.54,0,0,0-4.25,2.22v10.49H373.1V302.22h2.23v2.08a7.13,7.13,0,0,1,5.11-2.43c3,0,4.57,1.51,4.57,4.63v10.07h-2.23Z"/><path class="cls-2" d="M391.75,318.59a5.46,5.46,0,0,0,4.66,2c2.38,0,4.61-1.15,4.61-4.3v-2.05a6,6,0,0,1-4.81,2.55c-3.75,0-6.39-2.79-6.39-7.42s2.61-7.45,6.39-7.45a6,6,0,0,1,4.81,2.52v-2.17h2.22V316.2c0,4.75-3.32,6.24-6.83,6.24a7.35,7.35,0,0,1-5.79-2.14ZM401,306.17a5.29,5.29,0,0,0-4.28-2.31c-2.88,0-4.6,2.28-4.6,5.46s1.72,5.47,4.6,5.47a5.34,5.34,0,0,0,4.28-2.35Z"/><path class="cls-2" d="M408.8,313.06a6.48,6.48,0,0,0,4.72,2.05c2.19,0,3.38-1,3.38-2.37,0-1.58-1.75-2.08-3.68-2.56-2.43-.56-5.2-1.22-5.2-4.18,0-2.23,1.93-4.13,5.35-4.13a7.25,7.25,0,0,1,5.31,2.08l-1,1.54a5.54,5.54,0,0,0-4.27-1.81c-2,0-3.18.89-3.18,2.17s1.64,1.84,3.51,2.28c2.49.57,5.37,1.28,5.37,4.46,0,2.4-1.93,4.33-5.64,4.33a7.6,7.6,0,0,1-5.79-2.25Z"/><path class="cls-2" d="M423.35,319.42a4.45,4.45,0,0,0,1.93-2.76,1.48,1.48,0,0,1-.42,0,1.41,1.41,0,0,1-1.43-1.39v-.12a1.59,1.59,0,0,1,1.58-1.6h0a2,2,0,0,1,1.88,2.11.66.66,0,0,1,0,.14,5.75,5.75,0,0,1-2.44,4.49Z"/><path class="cls-2" d="M432.25,311.9a8.37,8.37,0,0,0,6.24,2.83c3.53,0,4.66-1.9,4.66-3.42,0-2.37-2.4-3-5-3.74-3.17-.83-6.71-1.72-6.71-5.61,0-3.27,2.91-5.5,6.8-5.5a9.28,9.28,0,0,1,7,2.77L443.78,301a7.58,7.58,0,0,0-5.74-2.38c-2.37,0-4.06,1.28-4.06,3.15s2.28,2.58,4.81,3.27c3.23.86,6.92,1.87,6.92,6,0,2.88-2,5.82-7.31,5.82a9.8,9.8,0,0,1-7.6-3.14Z"/><path class="cls-2" d="M450.1,298.3a1.5,1.5,0,1,1,1.5,1.5A1.5,1.5,0,0,1,450.1,298.3Zm.39,3.92h2.22v14.35h-2.22Z"/><path class="cls-2" d="M475.67,306.83c0-1.81-.8-3-2.65-3a5.05,5.05,0,0,0-3.8,2.19v10.52H467V306.8c0-1.81-.78-3-2.65-3a5,5,0,0,0-3.77,2.22v10.49h-2.22V302.22h2.22v2.08a6.21,6.21,0,0,1,4.63-2.43,3.7,3.7,0,0,1,3.87,2.67,6,6,0,0,1,4.81-2.67c2.61,0,4,1.45,4,4.33v10.37h-2.22Z"/><path class="cls-2" d="M483.54,322V302.22h2.22v2.14a6,6,0,0,1,4.84-2.49c3.78,0,6.39,2.85,6.39,7.51s-2.61,7.54-6.39,7.54a5.9,5.9,0,0,1-4.84-2.52V322Zm6.5-18.17a5.34,5.34,0,0,0-4.28,2.28v6.48A5.37,5.37,0,0,0,490,314.9c2.88,0,4.6-2.37,4.6-5.55s-1.72-5.49-4.64-5.49Z"/><path class="cls-2" d="M501.77,296.76H504v19.81h-2.23Z"/><path class="cls-2" d="M515.87,301.87c4.34,0,6.89,3.38,6.89,7.69v.56H511.15a5,5,0,0,0,5.1,5h.07a6.19,6.19,0,0,0,4.42-1.81l1.07,1.46a7.75,7.75,0,0,1-5.7,2.19c-4.24,0-7.3-3.06-7.3-7.54C508.81,305.22,511.78,301.87,515.87,301.87Zm-4.72,6.62h9.42a4.65,4.65,0,0,0-4.52-4.78h-.21A4.79,4.79,0,0,0,511.15,308.49Z"/><path class="cls-2" d="M527.63,296.76h13V299H530.1v6.38h10.3v2.2H530.1v6.83h10.51v2.2h-13Z"/><path class="cls-2" d="M555.31,307.18c0-2.52-1.28-3.32-3.21-3.32a5.58,5.58,0,0,0-4.25,2.22v10.49h-2.22V302.22h2.22v2.08a7.13,7.13,0,0,1,5.11-2.43c3,0,4.57,1.51,4.57,4.63v10.07h-2.22Z"/><path class="cls-2" d="M563.18,302.22h2.22v2.32a6.12,6.12,0,0,1,4.78-2.61v2.28a3.79,3.79,0,0,0-.89-.09,5.27,5.27,0,0,0-3.89,2.29v10.16h-2.22Z"/><path class="cls-2" d="M573.33,309.38c0-4.16,2.73-7.51,7.1-7.51s7.1,3.35,7.1,7.51-2.74,7.54-7.1,7.54S573.33,313.54,573.33,309.38Zm11.85,0c0-2.91-1.69-5.52-4.75-5.52s-4.78,2.61-4.78,5.52,1.72,5.55,4.78,5.55S585.18,312.32,585.18,309.38Z"/><path class="cls-2" d="M592.34,296.76h2.22v19.81h-2.22Z"/><path class="cls-2" d="M600.2,296.76h2.23v19.81H600.2Z"/><path class="cls-2" d="M625.38,306.83c0-1.81-.8-3-2.64-3a5,5,0,0,0-3.8,2.19v10.52h-2.23V306.8c0-1.81-.77-3-2.64-3A5,5,0,0,0,610.3,306v10.49h-2.23V302.22h2.23v2.08a6.18,6.18,0,0,1,4.63-2.43,3.69,3.69,0,0,1,3.86,2.67,6,6,0,0,1,4.81-2.67c2.62,0,4,1.45,4,4.33v10.37h-2.23Z"/><path class="cls-2" d="M639.49,301.87c4.34,0,6.89,3.38,6.89,7.69v.56H634.77a5,5,0,0,0,5.1,5h.07a6.31,6.31,0,0,0,4.42-1.81l1.07,1.46a7.83,7.83,0,0,1-5.7,2.19c-4.25,0-7.31-3.06-7.31-7.54C632.42,305.22,635.39,301.87,639.49,301.87Zm-4.72,6.62h9.41a4.65,4.65,0,0,0-4.5-4.78h-.22A4.78,4.78,0,0,0,634.77,308.49Z"/><path class="cls-2" d="M660.84,307.18c0-2.52-1.28-3.32-3.21-3.32a5.54,5.54,0,0,0-4.24,2.22v10.49h-2.23V302.22h2.23v2.08a7.13,7.13,0,0,1,5.11-2.43c3,0,4.57,1.51,4.57,4.63v10.07h-2.23Z"/><path class="cls-2" d="M669.16,313.57v-9.39h-2.38v-2h2.38V298.3h2.22v3.92h2.91v2h-2.91v8.91c0,1.07.48,1.84,1.46,1.84a2.13,2.13,0,0,0,1.51-.59L675,316a3.61,3.61,0,0,1-2.68.92C670.22,316.92,669.16,315.71,669.16,313.57Z"/><path class="cls-3" d="M4.28,267.11a10.39,10.39,0,0,0,7.31,3.32c4.35,0,7.18-2.9,7.18-7.39V232.27h9.8v30.91c0,10.9-6.77,15.94-16.22,15.94-4.62,0-9-1.24-12.35-4.49Z"/><path class="cls-3" d="M55.34,244.14c9.94,0,16.7,7.45,16.7,18.35v1.93H47.27c.55,4.21,3.93,7.73,9.59,7.73a13.64,13.64,0,0,0,8.9-3.31l3.86,5.66c-3.31,3-8.55,4.62-13.73,4.62-10.14,0-17.8-6.83-17.8-17.53C38.09,251.93,45.2,244.14,55.34,244.14Zm-8.21,14.35H63.55c-.21-3.18-2.41-7.38-8.21-7.38C49.89,251.11,47.54,255.18,47.13,258.49Z"/><path class="cls-3" d="M103.37,255.59l-7,22.7H87L76.8,245h9.11l6.21,22.43L99.43,245h7.8l7.32,22.43L120.76,245h9.1l-10.14,33.33h-9.31Z"/><path class="cls-3" d="M152.09,244.14c9.93,0,16.7,7.45,16.7,18.35v1.93H144c.56,4.21,3.94,7.73,9.6,7.73a13.64,13.64,0,0,0,8.9-3.31l3.86,5.66c-3.31,3-8.56,4.62-13.73,4.62-10.14,0-17.8-6.83-17.8-17.53C134.84,251.93,141.94,244.14,152.09,244.14Zm-8.21,14.35H160.3c-.21-3.18-2.42-7.38-8.21-7.38-5.45,0-7.8,4.07-8.21,7.38Z"/><path class="cls-3" d="M177.9,232.27h8.76v46H177.9Z"/><path class="cls-3" d="M213.23,244.14c9.93,0,16.69,7.45,16.69,18.35v1.93H205.15c.56,4.21,3.94,7.73,9.59,7.73a13.58,13.58,0,0,0,8.9-3.31l3.87,5.66c-3.31,3-8.56,4.62-13.73,4.62-10.15,0-17.8-6.83-17.8-17.53C196,251.93,203.08,244.14,213.23,244.14ZM205,258.49h16.43c-.21-3.18-2.42-7.38-8.21-7.38C207.77,251.11,205.43,255.18,205,258.49Z"/><path class="cls-3" d="M239,245h8.77v4.56a14.26,14.26,0,0,1,10.62-5.31v8.55a10.86,10.86,0,0,0-2.41-.27c-2.9,0-6.76,1.65-8.21,3.79v22H239Z"/><path class="cls-3" d="M267.53,267.8a19.08,19.08,0,0,0,11.53,4.56c3.79,0,5.59-1.31,5.59-3.38,0-2.35-2.9-3.18-6.7-3.94-5.73-1.1-13.11-2.48-13.11-10.42,0-5.58,4.9-10.48,13.66-10.48a21.28,21.28,0,0,1,13.5,4.55l-3.52,6a14.08,14.08,0,0,0-9.87-3.86c-3.17,0-5.24,1.17-5.24,3.1s2.62,2.83,6.35,3.59c5.72,1.11,13.38,2.62,13.38,10.9,0,6.08-5.17,10.7-14.42,10.7-5.79,0-11.38-1.93-14.9-5.17Z"/><path class="cls-1" d="M334.05,259H312.32v19.32h-9.8v-46h9.8V250.4h21.73V232.27h9.87v46h-9.87Z"/><path class="cls-1" d="M370.63,244.14c9.93,0,16.69,7.45,16.69,18.35v1.93H362.55c.56,4.21,3.94,7.73,9.59,7.73a13.58,13.58,0,0,0,8.9-3.31l3.87,5.66c-3.31,3-8.56,4.62-13.73,4.62-10.14,0-17.8-6.83-17.8-17.53C353.38,251.93,360.48,244.14,370.63,244.14Zm-8.21,14.35h16.42c-.21-3.18-2.42-7.38-8.21-7.38C365.17,251.11,362.83,255.18,362.42,258.49Z"/><path class="cls-1" d="M416.45,274.84c-2.28,2.69-6.21,4.28-10.56,4.28-5.31,0-11.59-3.59-11.59-11,0-7.8,6.28-10.63,11.59-10.63,4.41,0,8.35,1.38,10.56,4.08V256.9c0-3.38-2.9-5.59-7.32-5.59a14,14,0,0,0-9.73,3.94l-3.31-5.87a21.86,21.86,0,0,1,14.56-5.24c7.59,0,14.56,3,14.56,12.62v21.53h-8.76Zm0-8.69c-1.45-1.93-4.21-2.9-7-2.9-3.45,0-6.28,1.79-6.28,5s2.83,4.9,6.28,4.9c2.83,0,5.59-1,7-2.9Z"/><path class="cls-1" d="M436.67,232.27h8.76v46h-8.76Z"/><path class="cls-1" d="M458.61,270V252.62h-5.52V245h5.52v-9.1h8.83V245h6.76v7.66h-6.76v15c0,2.07,1.1,3.65,3,3.65a4.8,4.8,0,0,0,3-1l1.87,6.62c-1.31,1.17-3.66,2.14-7.32,2.14C461.92,279.12,458.61,276,458.61,270Z"/><path class="cls-1" d="M505.53,258c0-4.63-2.41-6.08-6.21-6.08a9.72,9.72,0,0,0-7.59,3.94v22.42H483v-46h8.76v17a15.45,15.45,0,0,1,11.73-5.17c7.32,0,10.83,4,10.83,10.48v23.67h-8.76Z"/><path class="cls-3" d="M523.75,255.31c0-14.14,10.7-23.8,24.15-23.8,10.49,0,16.35,5.52,19.6,11.25l-8.42,4.14a12.59,12.59,0,0,0-11.18-6.7c-8,0-14.08,6.42-14.08,15.11s6.08,15.12,14.08,15.12a12.46,12.46,0,0,0,11.18-6.7l8.42,4.07c-3.32,5.73-9.11,11.32-19.6,11.32C534.45,279.12,523.75,269.46,523.75,255.31Z"/><path class="cls-3" d="M595.93,274.84c-2.28,2.69-6.21,4.28-10.56,4.28-5.31,0-11.59-3.59-11.59-11,0-7.8,6.28-10.63,11.59-10.63,4.42,0,8.35,1.38,10.56,4.08V256.9c0-3.38-2.9-5.59-7.32-5.59a14,14,0,0,0-9.72,3.94l-3.32-5.87a21.86,21.86,0,0,1,14.56-5.24c7.59,0,14.56,3,14.56,12.62v21.53h-8.76Zm0-8.69c-1.45-1.93-4.21-2.9-7-2.9-3.45,0-6.28,1.79-6.28,5s2.83,4.9,6.28,4.9c2.83,0,5.59-1,7-2.9Z"/><path class="cls-3" d="M616.15,245h8.76v4.56a14.26,14.26,0,0,1,10.63-5.31v8.55a11,11,0,0,0-2.42-.27c-2.9,0-6.76,1.65-8.21,3.79v22h-8.76Z"/><path class="cls-3" d="M658.86,244.14c9.94,0,16.7,7.45,16.7,18.35v1.93H650.79c.55,4.21,3.93,7.73,9.59,7.73a13.64,13.64,0,0,0,8.9-3.31l3.86,5.66c-3.31,3-8.55,4.62-13.73,4.62-10.14,0-17.8-6.83-17.8-17.53C641.61,251.93,648.72,244.14,658.86,244.14Zm-8.21,14.35h16.42c-.2-3.18-2.41-7.38-8.21-7.38-5.45,0-7.8,4.07-8.21,7.38Z"/><path class="cls-1" d="M688.88,267.87a5.59,5.59,0,1,1-5.59,5.59A5.66,5.66,0,0,1,688.88,267.87Z"/><path class="cls-1" d="M720.07,244.14c6.83,0,11,3,13.18,6l-5.73,5.38a8.1,8.1,0,0,0-7-3.59c-5.31,0-9,3.87-9,9.66s3.73,9.73,9,9.73a8.43,8.43,0,0,0,7-3.58l5.73,5.31c-2.21,3.1-6.35,6.07-13.18,6.07-10.28,0-17.66-7.25-17.66-17.53S709.79,244.14,720.07,244.14Z"/><path class="cls-1" d="M739.6,261.59c0-9.45,6.62-17.45,17.59-17.45s17.67,8,17.67,17.45-6.63,17.53-17.67,17.53S739.6,271.12,739.6,261.59Zm26.15,0c0-5.17-3.1-9.66-8.56-9.66s-8.48,4.49-8.48,9.66,3,9.73,8.48,9.73S765.75,266.84,765.75,261.59Z"/><path class="cls-1" d="M825.44,257.25c0-3.11-1.38-5.32-5-5.32a8.85,8.85,0,0,0-6.9,3.87v22.49h-8.83v-21c0-3.11-1.38-5.32-5-5.32a8.93,8.93,0,0,0-6.9,3.94v22.42h-8.76V245h8.76v4.35c1.38-2,5.8-5.17,10.9-5.17,4.9,0,8,2.27,9.25,6.07a14.13,14.13,0,0,1,11.45-6.07c6.14,0,9.8,3.24,9.8,10.07v24.08h-8.83Z"/></g></g></g></svg>