<svg xmlns="http://www.w3.org/2000/svg" viewBox="0 0 197.06 148.68"><defs><style>.cls-1{fill:#fff;}.cls-2{fill:#204080;}.cls-3,.cls-4{fill:#ff2737;}.cls-4{fill-rule:evenodd;}</style></defs><title>gmhc-logo-fullcolor-Asset 4</title><g id="Layer_2" data-name="Layer 2"><g id="Layer_1-2" data-name="Layer 1"><path class="cls-1" d="M1.58,86.29S.32,94.86,13,102.16,55.2,125.63,55.2,125.63a27.15,27.15,0,0,0,14.28-1.9c7-3.17,21.89-9.84,21.89-9.84S86.93,121.83,92,125s52,21.25,53,21.25,23.8-3.17,28.87-6.66,10.79-5.71,11.74-14.59,8.57-46,8.57-46,1.9-8.57-10.47-13.33-45.69-20-45.69-20l-18.08,8.57s-.63-13.32-8.25-18.72-42.51-33-42.51-33S62.5.32,50.44,8.57,16.81,33.63,13.64,42.51,1.58,86.29,1.58,86.29Z"/><path class="cls-2" d="M85.31,115.79l.2-.42L68,123.54l-.12,0a24.54,24.54,0,0,1-8.06,1,16.3,16.3,0,0,1-7.32-2.14L10.65,98.18l0-.05a15.73,15.73,0,0,1-5.43-6.37,14,14,0,0,1-.85-8v-.09L15.78,42.62l0-.11a31.42,31.42,0,0,1,3.71-6.74A31.28,31.28,0,0,1,26.59,29l.23-.16h0L56.73,7l.07,0a13.27,13.27,0,0,1,8-2.8,15.39,15.39,0,0,1,8,2.58l.07.05,38.76,30.49.07.07a19.39,19.39,0,0,1,4.42,6.34,16.48,16.48,0,0,1,1,3.19l2.5-5.43a24.62,24.62,0,0,0-5-7l-.08-.06-.26-.24-39-30.68-.23-.15L75,3.2A19.33,19.33,0,0,0,64.87,0a17,17,0,0,0-9.41,2.85h-.07L24.18,25.7a34.92,34.92,0,0,0-7.95,7.64A38.78,38.78,0,0,0,12,40.9l-.07.15-.12.38L.36,82.67.29,83v.11A17.78,17.78,0,0,0,1.44,93.4a19.82,19.82,0,0,0,6.76,8.06l.08.05.22.15L50.41,126a20.53,20.53,0,0,0,9.14,2.69A28.65,28.65,0,0,0,69,127.53l.19,0,.4-.16,12.26-5.72a24.42,24.42,0,0,1,1.87-3.8A11.87,11.87,0,0,1,85.31,115.79Z"/><path class="cls-2" d="M116.4,43.52a20.39,20.39,0,0,0-4.5-6.44l-.07-.08L73,6.5,73,6.44a15.59,15.59,0,0,0-8.14-2.62,13.49,13.49,0,0,0-8.18,2.85l-30.2,22.1h0a30.55,30.55,0,0,0-7.14,6.83,33.45,33.45,0,0,0-3.75,6.81l0,.12L4.08,83.6l0,.1a14.38,14.38,0,0,0,.89,8.17,16,16,0,0,0,5.5,6.49l.08.06,41.83,24.29a16.45,16.45,0,0,0,7.43,2.18,24.63,24.63,0,0,0,8.18-1l.15,0,39.75-18.56a9.94,9.94,0,0,0,5.8-5.17,22.75,22.75,0,0,0,2.08-8.92h0l1.93-41.07v0A16.9,16.9,0,0,0,116.4,43.52ZM6,84.06,17.34,43.14a31.74,31.74,0,0,1,3.53-6.39,29.3,29.3,0,0,1,6.69-6.4h0L57.81,8.24h0a13.27,13.27,0,0,1,4.09-2.07,1.81,1.81,0,0,1,.74.59,2,2,0,0,1,.33,1.62c-3.08,15.85-5.12,32-10.18,47.08a26.43,26.43,0,0,1-5.13,7.22,27.33,27.33,0,0,1-6.53,4.81h0L9.47,87.11A3.91,3.91,0,0,1,7,87.67a2.6,2.6,0,0,1-1.19-.61A11.86,11.86,0,0,1,6,84.06Zm107.83,7a27.08,27.08,0,0,1-.78,5.27,5.56,5.56,0,0,1-2.64,1.13c-2,.13-45.92-29.92-45.92-29.92a18.56,18.56,0,0,1-6-7.25C56,55.23,56,53.08,56,53.08l.08-3.82S54.91,55.42,52.83,59a23.22,23.22,0,0,1-6.58,7.34l-1.94,1.42a15.3,15.3,0,0,1,9.93-2.47c6.17.58,8.51,2.77,13,5.77l40.84,27.13a5,5,0,0,1,1.6,1.9,9,9,0,0,1,.29,1.73,8,8,0,0,1-2.75,1.6l-.11,0L67.35,122a22.57,22.57,0,0,1-7.46,1A14.55,14.55,0,0,1,53.31,121L11.55,96.76a14,14,0,0,1-4.83-5.67,10.24,10.24,0,0,1-.82-2.78,3.63,3.63,0,0,0,.93.31A4.75,4.75,0,0,0,10,88h0L41.57,68.33a28.41,28.41,0,0,0,6.72-5,27.85,27.85,0,0,0,5.35-7.5l0-.06c1.3-3.9,2.34-7.92,3.31-12h0c1-4.54,1.89-9.17,2.71-13.83,1.78-8.92,3.9-19.17,4.68-21A4.68,4.68,0,0,1,67,6a15.36,15.36,0,0,1,4.91,2.05L110.6,38.5a18,18,0,0,1,4,5.77A14.26,14.26,0,0,1,115.73,50Z"/><path class="cls-3" d="M47.7,47.38c1.63,1,1.11,4.87-1.19,8.71s-5.46,6.16-7.13,5.19-1.12-4.87,1.18-8.7,5.47-6.16,7.14-5.2Z"/><path class="cls-2" d="M48.67,78.28h0v.06s0,0,0,.06h0c0,.11,0,.22,0,.33h0a1.81,1.81,0,0,0,.22.84,1.18,1.18,0,0,0,.19.32,4.69,4.69,0,0,0,1.41,1.43h0l.63.4c.23.13.45.25.67.35a11.66,11.66,0,0,0,3.83,1h0l.63,0h.67a9,9,0,0,0,3.27-.57h0c.11,0,.26-.1.37-.16l.34-.18c.81-.48,1.15-1.13,2-1.59a.57.57,0,0,1,0,.25h0V81a.11.11,0,0,0,0,.09h0a3.33,3.33,0,0,1-1.6,1.75l-.37.21-.41.17h0a9.55,9.55,0,0,1-3.53.62c-.22,0-.48,0-.71,0l-.67,0h0a12.58,12.58,0,0,1-4.05-1.1c-.22-.12-.48-.24-.7-.38A7.09,7.09,0,0,1,50,81.9h0a6.18,6.18,0,0,1-1.59-1.63l-.23-.4a2.47,2.47,0,0,1-.26-1.13h0a2,2,0,0,1,0-.48h0s0-.06,0-.09a.11.11,0,0,1,0-.09h0a3.18,3.18,0,0,1,1.56-1.75l.41-.21h0c-.37.78-1.12,1.46-1.37,2.18Z"/><path class="cls-3" d="M70.44,49.05c3.12,1,6.28,5.11,7,9.14S76.2,64.66,73,63.64s-6.28-5.11-7-9.14,1.26-6.46,4.42-5.45Z"/><path class="cls-3" d="M104.1,39.79c2.83.92,5.65,4.61,6.32,8.25s-1.12,5.84-4,4.92-5.68-4.61-6.31-8.25,1.11-5.84,4-4.92Z"/><path class="cls-3" d="M89.8,28.48c3,1,5.94,4.84,6.65,8.65s-1.19,6.11-4.16,5.15-6-4.83-6.65-8.64,1.18-6.12,4.16-5.16Z"/><path class="cls-3" d="M74.86,16.8c3,1,6,4.83,6.61,8.64s-1.18,6.12-4.16,5.15S71.37,25.76,70.7,22s1.15-6.12,4.16-5.15Z"/><path class="cls-3" d="M101.43,71.24c3.12,1,6.28,5.11,7,9.13s-1.22,6.47-4.38,5.45-6.28-5.11-7-9.13,1.26-6.47,4.42-5.45Z"/><path class="cls-3" d="M86.27,60.55c3.16,1,6.28,5.11,7,9.14S92,76.15,88.87,75.13s-6.28-5.1-7-9.13,1.26-6.47,4.42-5.45Z"/><path class="cls-3" d="M55.46,74.34c4.54.47,8.18,3.06,8.18,5.78S60,84.66,55.46,84.19s-8.17-3.07-8.17-5.79,3.68-4.54,8.17-4.06Z"/><path class="cls-3" d="M27.38,90.55c4.16.42,7.54,2.7,7.54,5.09s-3.38,4-7.54,3.58-7.59-2.7-7.59-5.1,3.42-4,7.59-3.57Z"/><path class="cls-3" d="M59,109.68c3.9.41,7.06,2.65,7.06,5s-3.16,3.92-7.06,3.51-7-2.65-7-5,3.16-3.91,7-3.5Z"/><path class="cls-3" d="M88.05,95.2c4.42.46,8,3,8,5.67s-3.57,4.45-8,4-8-3-8-5.67,3.6-4.45,8-4Z"/><path class="cls-3" d="M57.29,92.75c4.23.44,7.69,2.88,7.69,5.44s-3.46,4.26-7.69,3.82-7.7-2.89-7.7-5.44,3.46-4.27,7.7-3.82Z"/><path class="cls-3" d="M28.79,34.89c1.45.84,1,4.23-1,7.56S23,47.79,21.62,47s-1-4.22,1-7.55,4.76-5.35,6.17-4.51Z"/><path class="cls-3" d="M37.82,40.64c1.56.92,1.07,4.6-1.08,8.22s-5.2,5.81-6.73,4.9-1.07-4.6,1.08-8.22,5.2-5.81,6.73-4.9Z"/><path class="cls-4" d="M109.08,125.52c3.27.84,5.76,2.27,5.57,3.18s-3,1-6.31.14-5.76-2.27-5.58-3.19,3-1,6.32-.13Z"/><path class="cls-4" d="M157.61,133.6c3.64.84,6.42,2.27,6.2,3.19s-3.34,1-7,.13-6.43-2.27-6.21-3.18,3.35-1,7-.14Z"/><path class="cls-4" d="M132.71,129.39c3.53.85,6.24,2.27,6,3.19s-3.27,1-6.8.13-6.24-2.27-6-3.18,3.24-1,6.8-.14Z"/><path class="cls-2" d="M116.63,58.06l.41-.3.14-3.07-.46,1.58S116.68,56.94,116.63,58.06Z"/><path class="cls-2" d="M86.06,115.11l6.28-2.93.14-.43-3.54,1.7A8.66,8.66,0,0,0,86.06,115.11Z"/><path class="cls-2" d="M85.31,115.79c.25-.25.5-.47.75-.68l-.55.26Z"/><path class="cls-2" d="M117.4,50v0l-.22,4.62c.67-2.26,2-6.62,3.3-11-.18-.54-.36-1.07-.59-1.6-.09-.22-.19-.43-.29-.65l-2.5,5.43A17.12,17.12,0,0,1,117.4,50Z"/><path class="cls-2" d="M83.71,117.8a24.42,24.42,0,0,0-1.87,3.8l1-.47,2.46-5.34A11.87,11.87,0,0,0,83.71,117.8Z"/><path class="cls-4" d="M181.68,93.19l-13.2-5.65,3.23-12.2a1.19,1.19,0,0,0-.64-1.38l-11.9-5.68a1.19,1.19,0,0,0-1.66.76L154.16,81.4l-14.3-6.12a1.19,1.19,0,0,0-1.61.76l-3.64,12.39a1.18,1.18,0,0,0,.67,1.43l14.87,6.33-3.63,13.38a1.18,1.18,0,0,0,.67,1.39l12.24,5.44a1.19,1.19,0,0,0,1.63-.79l3.51-13.27L177.74,108a1.19,1.19,0,0,0,1.63-.82l3-12.58A1.2,1.2,0,0,0,181.68,93.19Z"/><path class="cls-2" d="M195.36,72.75a19.4,19.4,0,0,0-7.43-7.06l-.15-.08-.23-.11L146.2,45.15a21.12,21.12,0,0,0-10.66-2.27,18.91,18.91,0,0,0-8.77,3l-.19.11-5.09,3.74a20.69,20.69,0,0,0-1-6.11c-1.34,4.43-2.63,8.79-3.3,11L117,57.76l-.41.3c0,.61-.07,1.35-.11,2.21l13.22-9.72a21.63,21.63,0,0,1,2-1.06,2.1,2.1,0,0,1,.93,2.43c-5.24,18.12-10.45,36.08-16,54a15.68,15.68,0,0,1-3.72,5.66,16.79,16.79,0,0,1-5.24,3.28L92.47,121.1a11.43,11.43,0,0,1,.23-4.44l1.89-5.92-2.11,1-.14.43-6.28,2.93c-.25.21-.5.43-.75.68l-2.46,5.34,4-1.85c-.11,6.34,3.57,11.1,10.52,12.48l39.2,14.68,0,0,.44.16a35.49,35.49,0,0,0,7.06,1.79,27.58,27.58,0,0,0,7.43,0h.08l.15,0,24.18-4.93.41-.11.15-.06a14.74,14.74,0,0,0,7.25-5.72,24.63,24.63,0,0,0,3.27-7.8l0-.11v-.16l9.74-47.48,0,0v-.14A13.29,13.29,0,0,0,195.36,72.75Zm-44,69.65a33.59,33.59,0,0,1-11.26-1.28l-42.73-16A4.84,4.84,0,0,1,94,122.9l16.91-6.41c4.75-1.21,9.58-.62,14.45,1q24,9.56,48.12,19.1a4.16,4.16,0,0,1,1.11,1.34Zm40-61.55-9.77,47.6h0a19,19,0,0,1-2,5.35,14.2,14.2,0,0,1-3.42.5,13.72,13.72,0,0,1-4.87-.81L128,115.25a11.84,11.84,0,0,1-5.46-5.24,12.19,12.19,0,0,1-.78-7.13l13.82-49a6.59,6.59,0,0,1,2.94-3.82,8,8,0,0,1,2.82-.94,22,22,0,0,1,2.41,1l41.36,20.34h0a14.29,14.29,0,0,1,5.42,5A8,8,0,0,1,191.38,80.85Z"/></g></g></svg>