<svg xmlns="http://www.w3.org/2000/svg" viewBox="0 0 636.53 181.55"><defs><style>.cls-1{fill:#fff;}.cls-2{fill:#204080;}.cls-3,.cls-4{fill:#ff2737;}.cls-4{fill-rule:evenodd;}.cls-5{fill:#5f5f5f;}</style></defs><title>gmhc-logo-Asset 1</title><g id="Layer_2" data-name="Layer 2"><g id="Layer_1-2" data-name="Layer 1"><path class="cls-1" d="M255.08,56.24s-.82,5.58,7.45,10.34S290,81.88,290,81.88a17.63,17.63,0,0,0,9.3-1.24c4.55-2.07,14.27-6.41,14.27-6.41s-2.9,5.17.41,7.24,33.91,13.85,34.53,13.85,15.51-2.07,18.82-4.34,7-3.72,7.65-9.51,5.58-30,5.58-30,1.24-5.58-6.82-8.68-29.78-13-29.78-13l-11.78,5.59s-.42-8.69-5.38-12.2-27.7-21.51-27.7-21.51-4.35-1.44-12.2,3.93-21.92,16.34-24,22.13S255.08,56.24,255.08,56.24Z"/><path class="cls-2" d="M12.76,125.86a11.09,11.09,0,0,1,10.08,5.48L17.75,134a5.87,5.87,0,0,0-5-2.8,6.83,6.83,0,0,0,0,13.65,7.35,7.35,0,0,0,4.46-1.42v-2H11.81v-5.06H23.19v9.23a13.61,13.61,0,0,1-10.43,4.59c-7,0-12.76-4.7-12.76-12.19S5.73,125.86,12.76,125.86Z"/><path class="cls-2" d="M38.11,148.13a7.06,7.06,0,0,1-5.3,2.12,5.64,5.64,0,0,1-5.87-5.62c0-4.13,3.25-5.37,5.87-5.37,2.26,0,4.28.7,5.3,2v-2.16c0-1.48-1.27-2.47-3.46-2.47a7.61,7.61,0,0,0-4.85,1.8L27.86,135a12.06,12.06,0,0,1,7.74-2.65c4.1,0,8,1.52,8,6.82v10.68H38.11Zm0-4.21a3.9,3.9,0,0,0-3-1.2c-1.45,0-2.72.64-2.72,2s1.27,2,2.72,2a3.76,3.76,0,0,0,3-1.24Z"/><path class="cls-2" d="M70.46,139.43a2.05,2.05,0,0,0-2.26-2.29,3.94,3.94,0,0,0-3.08,1.66v11H59.68v-10.4a2,2,0,0,0-2.26-2.29,4,4,0,0,0-3,1.66v11H48.93V132.75h5.45v2.09A7.56,7.56,0,0,1,60,132.33c2.44,0,4.13,1,4.84,3a7.34,7.34,0,0,1,5.9-3c3.15,0,5.13,1.62,5.13,5.12v12.38H70.46Z"/><path class="cls-2" d="M89.24,132.33c5.05,0,8.73,3.71,8.73,9.51V143H85.81c.32,1.59,1.8,3,4.35,3a6.82,6.82,0,0,0,4.17-1.45l2.3,3.39a11.16,11.16,0,0,1-7.15,2.26c-5.26,0-9.33-3.43-9.33-9A8.81,8.81,0,0,1,89.24,132.33Zm-3.5,7.14h7a3.27,3.27,0,0,0-3.53-2.93A3.37,3.37,0,0,0,85.74,139.47Z"/><path class="cls-2" d="M122.89,133.92l-6,15.91h-2.69l-5.94-15.91v15.91h-6.08V126.25h8.45l4.92,13.36,4.94-13.36H129v23.58h-6.08Z"/><path class="cls-2" d="M144.57,148.13a7.06,7.06,0,0,1-5.31,2.12,5.63,5.63,0,0,1-5.86-5.62c0-4.13,3.25-5.37,5.86-5.37,2.27,0,4.28.7,5.31,2v-2.16c0-1.48-1.28-2.47-3.47-2.47a7.6,7.6,0,0,0-4.84,1.8L134.32,135a12,12,0,0,1,7.74-2.65c4.1,0,7.95,1.52,7.95,6.82v10.68h-5.44Zm0-4.21a3.92,3.92,0,0,0-3-1.2c-1.45,0-2.73.64-2.73,2s1.28,2,2.73,2a3.78,3.78,0,0,0,3-1.24Z"/><path class="cls-2" d="M167,140c0-2.08-1.1-2.82-2.8-2.82a4.21,4.21,0,0,0-3.32,1.66v11h-5.44V132.75h5.44v2.09a7.74,7.74,0,0,1,5.91-2.51c3.88,0,5.65,2.26,5.65,5.41v12.09H167Z"/><path class="cls-2" d="M189.29,147.78a7.77,7.77,0,0,1-5.9,2.47c-3.89,0-5.62-2.19-5.62-5.34V132.75h5.44v9.94c0,2.05,1.06,2.75,2.83,2.75a4.07,4.07,0,0,0,3.25-1.66v-11h5.45v17.08h-5.45Z"/><path class="cls-2" d="M201.28,137.49h-2.83v-4.74h2.83v-.85a5.78,5.78,0,0,1,6.11-6,7.8,7.8,0,0,1,3.61.78l-1,3.71a2.89,2.89,0,0,0-1.41-.35,1.79,1.79,0,0,0-1.88,2v.7h3.47v4.74h-3.47v12.34h-5.44Z"/><path class="cls-2" d="M223.94,148.13a7.06,7.06,0,0,1-5.3,2.12,5.64,5.64,0,0,1-5.87-5.62c0-4.13,3.25-5.37,5.87-5.37,2.26,0,4.27.7,5.3,2v-2.16c0-1.48-1.27-2.47-3.46-2.47a7.61,7.61,0,0,0-4.85,1.8L213.69,135a12,12,0,0,1,7.74-2.65c4.1,0,7.95,1.52,7.95,6.82v10.68h-5.44Zm0-4.21a3.92,3.92,0,0,0-3-1.2c-1.45,0-2.72.64-2.72,2s1.27,2,2.72,2a3.78,3.78,0,0,0,3-1.24Z"/><path class="cls-2" d="M243,132.33c3.68,0,6,1.62,7,3.14l-3.53,3.29a3.74,3.74,0,0,0-3.22-1.62,4.15,4.15,0,1,0,3.22,6.64l3.53,3.33c-1,1.48-3.32,3.14-7,3.14-5.34,0-9.33-3.6-9.33-9S237.62,132.33,243,132.33Z"/><path class="cls-2" d="M255,145.23v-7.74h-2.83v-4.74H255v-4.66h5.41v4.66h3.47v4.74h-3.47v6.22a1.55,1.55,0,0,0,1.52,1.73,2.14,2.14,0,0,0,1.38-.42l1.06,4.1a5.91,5.91,0,0,1-4,1.13C256.86,150.25,255,148.52,255,145.23Z"/><path class="cls-2" d="M279.52,147.78a7.78,7.78,0,0,1-5.91,2.47c-3.89,0-5.62-2.19-5.62-5.34V132.75h5.45v9.94c0,2.05,1.06,2.75,2.83,2.75a4.07,4.07,0,0,0,3.25-1.66v-11H285v17.08h-5.44Z"/><path class="cls-2" d="M290.34,132.75h5.44v2.16a7.44,7.44,0,0,1,5.34-2.58v5.27a4.28,4.28,0,0,0-1.34-.18c-1.42,0-3.29.6-4,1.59v10.82h-5.44Z"/><path class="cls-2" d="M313,132.33c5.06,0,8.74,3.71,8.74,9.51V143H309.54c.31,1.59,1.8,3,4.34,3a6.8,6.8,0,0,0,4.17-1.45l2.3,3.39c-1.69,1.52-4.52,2.26-7.14,2.26-5.27,0-9.33-3.43-9.33-9A8.81,8.81,0,0,1,313,132.33Zm-3.5,7.14h7a3.28,3.28,0,0,0-3.54-2.93A3.38,3.38,0,0,0,309.46,139.47Z"/><path class="cls-2" d="M325.8,132.75h5.44v2.16a7.44,7.44,0,0,1,5.34-2.58v5.27a4.28,4.28,0,0,0-1.34-.18c-1.42,0-3.29.6-4,1.59v10.82H325.8Z"/><path class="cls-2" d="M341.28,143.89a10.69,10.69,0,0,0,6,2.26c1.63,0,2.3-.53,2.3-1.27s-1.16-1.2-2.93-1.49c-2.9-.49-7-1.09-7-5.44,0-3,2.58-5.62,7.32-5.62a12.05,12.05,0,0,1,7.14,2.26L352,138.2a7.62,7.62,0,0,0-5-1.88c-1.27,0-2.16.43-2.16,1.17s.92,1.06,2.73,1.38c2.9.49,7.21,1.2,7.21,5.73,0,3.25-2.86,5.65-7.78,5.65a12.73,12.73,0,0,1-8-2.61Z"/><path class="cls-3" d="M375,140.35h-9.79v9.48h-6.08V126.25h6.08v8.8H375v-8.8h6.08v23.58H375Z"/><path class="cls-3" d="M394.56,132.33c5.06,0,8.74,3.71,8.74,9.51V143H391.13c.32,1.59,1.81,3,4.35,3a6.8,6.8,0,0,0,4.17-1.45L402,148c-1.69,1.52-4.52,2.26-7.14,2.26-5.27,0-9.33-3.43-9.33-9A8.81,8.81,0,0,1,394.56,132.33Zm-3.5,7.14h7a3.28,3.28,0,0,0-3.54-2.93A3.38,3.38,0,0,0,391.06,139.47Z"/><path class="cls-3" d="M417.47,148.13a7.06,7.06,0,0,1-5.3,2.12,5.64,5.64,0,0,1-5.87-5.62c0-4.13,3.25-5.37,5.87-5.37,2.26,0,4.28.7,5.3,2v-2.16c0-1.48-1.27-2.47-3.46-2.47a7.56,7.56,0,0,0-4.84,1.8L407.22,135a12.06,12.06,0,0,1,7.74-2.65c4.1,0,8,1.52,8,6.82v10.68h-5.45Zm0-4.21a3.89,3.89,0,0,0-3-1.2c-1.45,0-2.72.64-2.72,2s1.27,2,2.72,2a3.75,3.75,0,0,0,3-1.24Z"/><path class="cls-3" d="M428.29,126.25h5.45v23.58h-5.45Z"/><path class="cls-3" d="M440.24,145.23v-7.74h-2.83v-4.74h2.83v-4.66h5.41v4.66h3.47v4.74h-3.47v6.22a1.55,1.55,0,0,0,1.52,1.73,2.14,2.14,0,0,0,1.38-.42l1.06,4.1a5.91,5.91,0,0,1-4,1.13C442.12,150.25,440.24,148.52,440.24,145.23Z"/><path class="cls-3" d="M464.85,139.89c0-2.08-1.1-2.75-2.83-2.75a4.2,4.2,0,0,0-3.29,1.66v11h-5.44V126.25h5.44v8.59a7.74,7.74,0,0,1,5.91-2.51c3.89,0,5.65,2.19,5.65,5.34v12.16h-5.44Z"/><path class="cls-3" d="M474.61,138.06c0-7.29,5.51-12.2,12.58-12.2a11,11,0,0,1,10.47,6.33l-5.23,2.47a5.74,5.74,0,0,0-5.24-3.43c-3.67,0-6.4,3-6.4,6.83a6.48,6.48,0,0,0,6.4,6.82,5.74,5.74,0,0,0,5.24-3.43l5.23,2.47a11,11,0,0,1-10.47,6.33C480.12,150.25,474.61,145.3,474.61,138.06Z"/><path class="cls-3" d="M511.62,148.13a7.06,7.06,0,0,1-5.3,2.12,5.64,5.64,0,0,1-5.87-5.62c0-4.13,3.25-5.37,5.87-5.37,2.26,0,4.28.7,5.3,2v-2.16c0-1.48-1.27-2.47-3.46-2.47a7.56,7.56,0,0,0-4.84,1.8L501.37,135a12.06,12.06,0,0,1,7.74-2.65c4.1,0,8,1.52,8,6.82v10.68h-5.45Zm0-4.21a3.89,3.89,0,0,0-3-1.2c-1.45,0-2.72.64-2.72,2s1.27,2,2.72,2a3.75,3.75,0,0,0,3-1.24Z"/><path class="cls-3" d="M522.44,132.75h5.45v2.16a7.44,7.44,0,0,1,5.34-2.58v5.27a4.31,4.31,0,0,0-1.35-.18,5.43,5.43,0,0,0-4,1.59v10.82h-5.45Z"/><path class="cls-3" d="M545.07,132.33c5.06,0,8.73,3.71,8.73,9.51V143H541.64c.32,1.59,1.8,3,4.35,3a6.8,6.8,0,0,0,4.17-1.45l2.3,3.39a11.15,11.15,0,0,1-7.14,2.26c-5.27,0-9.34-3.43-9.34-9A8.81,8.81,0,0,1,545.07,132.33Zm-3.5,7.14h7a3.27,3.27,0,0,0-3.53-2.93A3.37,3.37,0,0,0,541.57,139.47Z"/><path class="cls-3" d="M560.59,143.61a3.32,3.32,0,1,1-3.32,3.32A3.36,3.36,0,0,1,560.59,143.61Z"/><path class="cls-3" d="M576.93,132.33c3.67,0,6,1.62,7,3.14l-3.54,3.29a3.73,3.73,0,0,0-3.22-1.62,4.15,4.15,0,1,0,3.22,6.64l3.54,3.33c-1,1.48-3.33,3.14-7,3.14-5.34,0-9.34-3.6-9.34-9S571.59,132.33,576.93,132.33Z"/><path class="cls-3" d="M586.68,141.27c0-4.81,3.5-8.94,9.3-8.94s9.33,4.13,9.33,8.94-3.46,9-9.33,9S586.68,146.08,586.68,141.27Zm13.05,0c0-2.26-1.34-4.13-3.75-4.13s-3.68,1.87-3.68,4.13,1.31,4.17,3.68,4.17S599.73,143.57,599.73,141.27Z"/><path class="cls-3" d="M631.12,139.43a2.05,2.05,0,0,0-2.26-2.29,4,4,0,0,0-3.08,1.66v11h-5.44v-10.4a2,2,0,0,0-2.26-2.29,4,4,0,0,0-3,1.66v11h-5.45V132.75H615v2.09a7.56,7.56,0,0,1,5.62-2.51c2.44,0,4.14,1,4.84,3a7.34,7.34,0,0,1,5.91-3c3.14,0,5.12,1.62,5.12,5.12v12.38h-5.41Z"/><path class="cls-2" d="M309.65,75.46l.13-.27-11.42,5.33-.07,0a15.94,15.94,0,0,1-5.26.66,10.58,10.58,0,0,1-4.77-1.39L261,64l0,0a10.31,10.31,0,0,1-3.53-4.16,9.11,9.11,0,0,1-.56-5.21v-.06l7.46-26.75,0-.07a21.18,21.18,0,0,1,2.42-4.4,20.7,20.7,0,0,1,4.6-4.41l.15-.1h0L291,4.53l.05,0a8.59,8.59,0,0,1,5.23-1.83,10.09,10.09,0,0,1,5.21,1.68l.05,0,25.25,19.87.05.05a12.72,12.72,0,0,1,2.88,4.13,10.57,10.57,0,0,1,.63,2.08L332,27a16.09,16.09,0,0,0-3.25-4.56l-.05,0-.17-.15-25.4-20L303,2.13l-.08,0A12.63,12.63,0,0,0,296.33,0a11,11,0,0,0-6.13,1.86h-.05L269.81,16.75a22.66,22.66,0,0,0-5.18,5,24.73,24.73,0,0,0-2.74,4.93l-.05.1-.07.24-7.48,26.88,0,.2v.07a11.63,11.63,0,0,0,.75,6.72,12.94,12.94,0,0,0,4.41,5.26l.05,0,.14.1,27.32,15.87a13.33,13.33,0,0,0,5.95,1.75,18.72,18.72,0,0,0,6.15-.76l.13,0,.26-.1,8-3.73a15.46,15.46,0,0,1,1.22-2.48A8.1,8.1,0,0,1,309.65,75.46Z"/><path class="cls-2" d="M329.91,28.36A13.08,13.08,0,0,0,327,24.17l0-.05L301.65,4.24l0,0a10.24,10.24,0,0,0-5.31-1.71A8.82,8.82,0,0,0,291,4.35l-19.68,14.4h0a19.76,19.76,0,0,0-4.65,4.45,21.53,21.53,0,0,0-2.45,4.43l0,.09-7.46,26.76,0,.06a9.18,9.18,0,0,0,.58,5.32,10.48,10.48,0,0,0,3.58,4.24l0,0L288.17,80A10.62,10.62,0,0,0,293,81.39a16,16,0,0,0,5.33-.67l.09,0,25.91-12.09a6.45,6.45,0,0,0,3.78-3.37,15,15,0,0,0,1.36-5.81h0l1.26-26.77v0A11,11,0,0,0,329.91,28.36Zm-72,26.43,7.41-26.68a21.27,21.27,0,0,1,2.3-4.16A19.28,19.28,0,0,1,272,19.78h0l19.69-14.4h0A8.91,8.91,0,0,1,294.36,4a1.24,1.24,0,0,1,.49.39,1.27,1.27,0,0,1,.22,1c-2,10.33-3.34,20.83-6.64,30.69a17.39,17.39,0,0,1-3.34,4.7A17.7,17.7,0,0,1,280.83,44h0L260.22,56.77a2.59,2.59,0,0,1-1.62.37,1.76,1.76,0,0,1-.78-.4A7.64,7.64,0,0,1,257.94,54.79Zm70.28,4.55a17.2,17.2,0,0,1-.51,3.43,3.59,3.59,0,0,1-1.72.74c-1.33.08-29.93-19.5-29.93-19.5a12.11,12.11,0,0,1-3.92-4.72c-1.6-3.3-1.58-4.7-1.58-4.7l.05-2.48a25,25,0,0,1-2.13,6.34,15.23,15.23,0,0,1-4.29,4.79l-1.26.92a10,10,0,0,1,6.47-1.61c4,.38,5.55,1.81,8.48,3.77L324.49,64a3.24,3.24,0,0,1,1,1.24,5.64,5.64,0,0,1,.19,1.13,5,5,0,0,1-1.79,1l-.07,0L298,79.51a14.85,14.85,0,0,1-4.87.62,9.39,9.39,0,0,1-4.28-1.25L261.58,63.06a9.19,9.19,0,0,1-3.15-3.69,6.35,6.35,0,0,1-.53-1.82,2,2,0,0,0,.6.21,3.17,3.17,0,0,0,2-.44h0l20.58-12.78A18.09,18.09,0,0,0,289,36.41l0,0c.84-2.54,1.52-5.16,2.15-7.83h0c.68-3,1.24-6,1.77-9C294.12,13.72,295.5,7,296,5.81a3.05,3.05,0,0,1,1.7-1.9,9.9,9.9,0,0,1,3.19,1.34l25.24,19.84a11.89,11.89,0,0,1,2.59,3.76,9.41,9.41,0,0,1,.75,3.73Z"/><path class="cls-3" d="M285.14,30.88c1.06.63.73,3.17-.78,5.68s-3.56,4-4.65,3.38-.72-3.17.78-5.67,3.56-4,4.65-3.39Z"/><path class="cls-2" d="M285.77,51h0v0s0,0,0,0h0c0,.07,0,.14,0,.22h0a1,1,0,0,0,.15.54.68.68,0,0,0,.12.22,3.14,3.14,0,0,0,.92.93h0c.14.09.26.18.41.26l.43.23a7.81,7.81,0,0,0,2.5.68h0a2.73,2.73,0,0,0,.41,0l.44,0a5.91,5.91,0,0,0,2.13-.38h0a2.44,2.44,0,0,0,.24-.1l.22-.12c.53-.31.75-.73,1.3-1a.47.47,0,0,1,0,.16h0v.06s0,0,0,.06h0A2.2,2.2,0,0,1,293.9,54l-.24.14-.26.11h0a6.41,6.41,0,0,1-2.3.41h-.46l-.44,0h0a8.1,8.1,0,0,1-2.64-.72l-.46-.25a5.11,5.11,0,0,1-.46-.28h0a4,4,0,0,1-1-1l-.15-.27a1.54,1.54,0,0,1-.17-.73h0a1.09,1.09,0,0,1,0-.31h0s0,0,0-.06a.06.06,0,0,1,0-.06h0a2,2,0,0,1,1-1.14,1.69,1.69,0,0,1,.27-.13h0c-.24.51-.72.95-.89,1.42Z"/><path class="cls-3" d="M300,32c2,.66,4.09,3.33,4.55,6s-.8,4.22-2.86,3.56-4.09-3.33-4.57-6S297.9,31.31,300,32Z"/><path class="cls-3" d="M321.9,25.93c1.84.6,3.68,3,4.12,5.38s-.73,3.81-2.6,3.21-3.7-3-4.11-5.38.72-3.81,2.59-3.21Z"/><path class="cls-3" d="M312.58,18.56c1.93.63,3.87,3.15,4.33,5.64s-.78,4-2.71,3.36-3.88-3.15-4.34-5.64.78-4,2.72-3.36Z"/><path class="cls-3" d="M302.84,11c1.94.62,3.88,3.15,4.31,5.63s-.77,4-2.71,3.36-3.88-3.15-4.31-5.63.75-4,2.71-3.36Z"/><path class="cls-3" d="M320.16,46.43c2,.66,4.09,3.33,4.55,6s-.8,4.22-2.86,3.55-4.09-3.33-4.58-6,.83-4.22,2.89-3.55Z"/><path class="cls-3" d="M310.27,39.46c2.06.67,4.1,3.33,4.56,6S314,49.63,312,49s-4.09-3.33-4.58-6,.83-4.21,2.88-3.55Z"/><path class="cls-3" d="M290.2,48.45c2.95.31,5.33,2,5.33,3.77s-2.38,3-5.33,2.65-5.33-2-5.33-3.77,2.4-3,5.33-2.65Z"/><path class="cls-3" d="M271.89,59c2.71.28,4.92,1.76,4.92,3.32s-2.21,2.61-4.92,2.34S267,62.9,267,61.34s2.23-2.6,4.94-2.33Z"/><path class="cls-3" d="M292.48,71.48c2.54.27,4.6,1.73,4.6,3.26S295,77.29,292.48,77s-4.58-1.72-4.58-3.25,2.06-2.56,4.58-2.29Z"/><path class="cls-3" d="M311.44,62c2.88.31,5.2,2,5.2,3.7s-2.32,2.9-5.2,2.59-5.23-2-5.23-3.69,2.35-2.9,5.23-2.6Z"/><path class="cls-3" d="M291.39,60.45c2.76.29,5,1.88,5,3.54s-2.25,2.78-5,2.49-5-1.88-5-3.54,2.26-2.79,5-2.49Z"/><path class="cls-3" d="M272.81,22.74c.95.55.66,2.75-.65,4.92s-3.1,3.49-4,2.94-.65-2.75.65-4.92,3.1-3.49,4-2.94Z"/><path class="cls-3" d="M278.7,26.49c1,.6.7,3-.7,5.35s-3.4,3.79-4.39,3.2-.7-3,.7-5.36,3.39-3.79,4.39-3.19Z"/><path class="cls-4" d="M325.14,81.81c2.13.54,3.76,1.47,3.64,2.07s-2,.64-4.12.09-3.75-1.48-3.63-2.08,2-.63,4.11-.08Z"/><path class="cls-4" d="M356.77,87.07c2.37.55,4.19,1.48,4,2.08s-2.18.63-4.55.08-4.19-1.47-4-2.07,2.18-.64,4.55-.09Z"/><path class="cls-4" d="M340.54,84.33c2.3.55,4.07,1.48,3.93,2.07s-2.13.64-4.43.09S336,85,336.11,84.42s2.11-.64,4.43-.09Z"/><path class="cls-2" d="M330.06,37.84l.27-.19.09-2-.3,1S330.1,37.11,330.06,37.84Z"/><path class="cls-2" d="M310.14,75l4.09-1.91.09-.28L312,73.94A5.63,5.63,0,0,0,310.14,75Z"/><path class="cls-2" d="M309.65,75.46l.49-.44-.36.17Z"/><path class="cls-2" d="M330.57,32.6v0l-.15,3c.44-1.47,1.28-4.31,2.15-7.2-.11-.35-.24-.7-.38-1-.06-.14-.13-.28-.19-.43l-1.63,3.54A11.21,11.21,0,0,1,330.57,32.6Z"/><path class="cls-2" d="M308.61,76.77a15.46,15.46,0,0,0-1.22,2.48l.66-.3,1.6-3.49A8.1,8.1,0,0,0,308.61,76.77Z"/><path class="cls-4" d="M372.46,60.73l-8.6-3.68L366,49.1a.78.78,0,0,0-.42-.9l-7.75-3.7a.77.77,0,0,0-1.08.49l-2.19,8.06-9.31-4a.78.78,0,0,0-1,.5l-2.38,8.07a.77.77,0,0,0,.44.93l9.69,4.13-2.37,8.72a.78.78,0,0,0,.44.91l8,3.54a.78.78,0,0,0,1.06-.51l2.29-8.65,8.58,3.66a.77.77,0,0,0,1.06-.53l2-8.2A.78.78,0,0,0,372.46,60.73Z"/><path class="cls-2" d="M381.37,47.41a12.57,12.57,0,0,0-4.84-4.59l-.1-.06-.14-.07-27-13.27A13.89,13.89,0,0,0,342.38,28a12.25,12.25,0,0,0-5.71,2l-.12.07-3.32,2.43a13.44,13.44,0,0,0-.66-4c-.87,2.89-1.71,5.73-2.15,7.2l-.09,2-.27.19c0,.4,0,.88-.07,1.44L338.61,33a13.76,13.76,0,0,1,1.3-.7,1.45,1.45,0,0,1,.47.45,1.48,1.48,0,0,1,.14,1.14c-3.41,11.81-6.8,23.51-10.41,35.17a10.35,10.35,0,0,1-2.42,3.69,11.08,11.08,0,0,1-3.42,2.14l-9.95,4.09a7.48,7.48,0,0,1,.14-2.9l1.24-3.86-1.38.66-.09.28L310.14,75l-.49.44L308.05,79l2.59-1.21c-.07,4.13,2.32,7.23,6.85,8.13L343,95.44h0l.29.11a23.15,23.15,0,0,0,4.6,1.16,17.9,17.9,0,0,0,4.85,0h.05l.09,0,15.77-3.21.26-.07.1,0a9.62,9.62,0,0,0,4.72-3.73,16,16,0,0,0,2.13-5.08l0-.08v-.1l6.34-30.94,0,0v-.09A8.68,8.68,0,0,0,381.37,47.41Zm-28.69,45.4a21.72,21.72,0,0,1-7.34-.84L317.49,81.53a3.17,3.17,0,0,1-2.15-1.43l11-4.18a16.57,16.57,0,0,1,9.42.64L367.13,89a2.73,2.73,0,0,1,.73.87Zm26.1-40.11-6.37,31h0a12.11,12.11,0,0,1-1.33,3.48,9,9,0,0,1-5.4-.2L337.49,75.12a7.84,7.84,0,0,1-3.56-3.42,8,8,0,0,1-.5-4.65l9-31.92a4.24,4.24,0,0,1,1.92-2.49,4.93,4.93,0,0,1,1.84-.61,14.86,14.86,0,0,1,1.57.64l26.95,13.26h0a9.29,9.29,0,0,1,3.54,3.25A5.23,5.23,0,0,1,378.78,52.7Z"/><path class="cls-5" d="M146.4,163.93h2.38v13.62H146.4Z"/><path class="cls-5" d="M164.12,171.12c0-1.06-.47-1.78-1.62-1.78a3,3,0,0,0-2.28,1.31v6.9h-2.15v-6.43c0-1.06-.47-1.78-1.63-1.78a3,3,0,0,0-2.27,1.33v6.88H152v-9.86h2.14V169a4.25,4.25,0,0,1,3.21-1.6,2.56,2.56,0,0,1,2.69,1.82,4.18,4.18,0,0,1,3.35-1.82c1.82,0,2.84,1,2.84,3v7.13h-2.14Z"/><path class="cls-5" d="M181.53,171.12c0-1.06-.47-1.78-1.62-1.78a3,3,0,0,0-2.28,1.31v6.9h-2.15v-6.43c0-1.06-.47-1.78-1.63-1.78a3,3,0,0,0-2.26,1.33v6.88h-2.15v-9.86h2.15V169a4.21,4.21,0,0,1,3.2-1.6,2.56,2.56,0,0,1,2.69,1.82,4.2,4.2,0,0,1,3.35-1.82c1.82,0,2.84,1,2.84,3v7.13h-2.14Z"/><path class="cls-5" d="M191.24,167.44c3,0,4.86,2.27,4.86,5.37v.51h-7.61a3,3,0,0,0,3.14,2.72,4.21,4.21,0,0,0,2.8-1.08l1,1.41a5.78,5.78,0,0,1-4,1.42,5.18,5.18,0,0,1-.17-10.35Zm-2.77,4.37H194a2.64,2.64,0,0,0-2.78-2.61A2.71,2.71,0,0,0,188.47,171.81Z"/><path class="cls-5" d="M205.57,176.2a4,4,0,0,1-3.16,1.59c-2.53,0-4.39-1.91-4.39-5.16s1.84-5.19,4.39-5.19a4,4,0,0,1,3.16,1.62v-5.13h2.15v13.62h-2.15Zm0-5.53a3.23,3.23,0,0,0-2.55-1.33c-1.69,0-2.78,1.37-2.78,3.29s1.09,3.27,2.78,3.27a3.24,3.24,0,0,0,2.55-1.31Z"/><path class="cls-5" d="M210.63,164.73A1.34,1.34,0,0,1,212,163.4a1.33,1.33,0,0,1,0,2.66A1.35,1.35,0,0,1,210.63,164.73Zm.27,3H213v9.86H210.9Z"/><path class="cls-5" d="M222.25,176.49a4.2,4.2,0,0,1-3.19,1.3,3.27,3.27,0,0,1-3.43-3.26,3.18,3.18,0,0,1,3.43-3.21,4.08,4.08,0,0,1,3.19,1.27v-1.47c0-1.14-.94-1.84-2.31-1.84a4,4,0,0,0-2.92,1.25l-.88-1.49a5.86,5.86,0,0,1,4.15-1.6c2.18,0,4.1.92,4.1,3.58v6.53h-2.14Zm0-2.68a2.9,2.9,0,0,0-2.35-1,1.79,1.79,0,1,0,0,3.53,2.87,2.87,0,0,0,2.35-1Z"/><path class="cls-5" d="M228,175.26v-5.69h-1.63v-1.88H228V165h2.15v2.7h2v1.88h-2v5.16c0,.68.32,1.17.94,1.17a1.41,1.41,0,0,0,1-.35l.51,1.61a2.82,2.82,0,0,1-2,.63A2.27,2.27,0,0,1,228,175.26Z"/><path class="cls-5" d="M238.89,167.44c3,0,4.85,2.27,4.85,5.37v.51h-7.61a3,3,0,0,0,3.14,2.72,4.19,4.19,0,0,0,2.8-1.08l1,1.41a5.78,5.78,0,0,1-4,1.42,5.18,5.18,0,0,1-.16-10.35Zm-2.78,4.37h5.55a2.64,2.64,0,0,0-2.77-2.61A2.72,2.72,0,0,0,236.11,171.81Z"/><path class="cls-5" d="M246.78,173.79a5.88,5.88,0,0,0,4.31,1.88c2,0,2.74-1,2.74-1.86,0-1.22-1.45-1.59-3.11-2-2.22-.55-4.83-1.2-4.83-4.08,0-2.25,2-4,5-4a7.07,7.07,0,0,1,5.1,1.9l-1.37,1.77a5.54,5.54,0,0,0-3.94-1.55c-1.41,0-2.3.67-2.3,1.7s1.38,1.4,3,1.81c2.24.57,4.92,1.27,4.92,4.23,0,2.27-1.6,4.2-5.27,4.2a7.26,7.26,0,0,1-5.53-2.16Z"/><path class="cls-5" d="M264.83,176.49a4.2,4.2,0,0,1-3.19,1.3,3.27,3.27,0,0,1-3.43-3.26,3.18,3.18,0,0,1,3.43-3.21,4.08,4.08,0,0,1,3.19,1.27v-1.47c0-1.14-.94-1.84-2.31-1.84a4,4,0,0,0-2.92,1.25l-.88-1.49a5.86,5.86,0,0,1,4.15-1.6c2.18,0,4.1.92,4.1,3.58v6.53h-2.14Zm0-2.68a2.9,2.9,0,0,0-2.35-1,1.79,1.79,0,1,0,0,3.53,2.87,2.87,0,0,0,2.35-1Z"/><path class="cls-5" d="M268.73,167.69H271l2.88,7.39,2.88-7.39h2.31l-4,9.86h-2.31Z"/><path class="cls-5" d="M280.57,164.73a1.33,1.33,0,1,1,1.32,1.33A1.33,1.33,0,0,1,280.57,164.73Zm.26,3H283v9.86h-2.15Z"/><path class="cls-5" d="M292.81,171.38c0-1.53-.77-2-2-2a3.26,3.26,0,0,0-2.53,1.33v6.88h-2.14v-9.86h2.14V169a4.67,4.67,0,0,1,3.47-1.6,2.85,2.85,0,0,1,3.19,3.17v6.94h-2.15Z"/><path class="cls-5" d="M299,178.53a3.83,3.83,0,0,0,3.12,1.27c1.41,0,2.92-.66,2.92-2.68v-1.18a4,4,0,0,1-3.16,1.63c-2.51,0-4.37-1.82-4.37-5.06s1.84-5.07,4.37-5.07a3.93,3.93,0,0,1,3.16,1.62v-1.37h2.15V177c0,3.55-2.64,4.51-5.07,4.51a5.57,5.57,0,0,1-4.12-1.47Zm6-7.86a3.19,3.19,0,0,0-2.53-1.33c-1.69,0-2.78,1.27-2.78,3.17s1.09,3.16,2.78,3.16a3.19,3.19,0,0,0,2.53-1.33Z"/><path class="cls-5" d="M310.51,174.71a5.07,5.07,0,0,0,3.35,1.39c1.29,0,1.94-.47,1.94-1.2s-1-1.17-2.25-1.43c-1.69-.37-3.71-.82-3.71-3,0-1.61,1.39-3,3.88-3a5.64,5.64,0,0,1,3.83,1.39l-.89,1.51a4,4,0,0,0-2.92-1.18c-1.13,0-1.84.41-1.84,1.1s1,1,2.14,1.29c1.72.36,3.82.85,3.82,3.18,0,1.74-1.45,3.06-4.1,3.06a6,6,0,0,1-4.23-1.53Z"/><path class="cls-5" d="M320.21,179.47a3.47,3.47,0,0,0,1.47-1.92,1.39,1.39,0,0,1-.35.06,1.23,1.23,0,0,1-1.23-1.29,1.41,1.41,0,0,1,1.39-1.4,1.67,1.67,0,0,1,1.6,1.85,4.4,4.4,0,0,1-1.92,3.5Z"/><path class="cls-5" d="M326.35,173.79a5.88,5.88,0,0,0,4.31,1.88c2,0,2.73-1,2.73-1.86,0-1.22-1.45-1.59-3.1-2-2.23-.55-4.84-1.2-4.84-4.08,0-2.25,2-4,5-4a7.08,7.08,0,0,1,5.11,1.9l-1.37,1.77a5.54,5.54,0,0,0-3.94-1.55c-1.41,0-2.31.67-2.31,1.7s1.39,1.4,3,1.81c2.25.57,4.92,1.27,4.92,4.23,0,2.27-1.59,4.2-5.26,4.2a7.3,7.3,0,0,1-5.54-2.16Z"/><path class="cls-5" d="M338.11,164.73a1.34,1.34,0,0,1,1.33-1.33,1.33,1.33,0,0,1,0,2.66A1.34,1.34,0,0,1,338.11,164.73Zm.26,3h2.15v9.86h-2.15Z"/><path class="cls-5" d="M355.79,171.12c0-1.06-.47-1.78-1.61-1.78a3,3,0,0,0-2.29,1.31v6.9h-2.15v-6.43c0-1.06-.47-1.78-1.63-1.78a3,3,0,0,0-2.26,1.33v6.88H343.7v-9.86h2.15V169a4.21,4.21,0,0,1,3.2-1.6,2.58,2.58,0,0,1,2.7,1.82,4.16,4.16,0,0,1,3.34-1.82c1.82,0,2.84,1,2.84,3v7.13h-2.14Z"/><path class="cls-5" d="M361.11,181.31V167.69h2.15V169a3.93,3.93,0,0,1,3.16-1.6c2.55,0,4.37,1.92,4.37,5.17s-1.82,5.18-4.37,5.18a3.86,3.86,0,0,1-3.16-1.61v5.13Zm4.68-12a3.19,3.19,0,0,0-2.53,1.33v3.9a3.27,3.27,0,0,0,2.53,1.33c1.69,0,2.77-1.37,2.77-3.29S367.48,169.34,365.79,169.34Z"/><path class="cls-5" d="M373.36,163.93h2.14v13.62h-2.14Z"/><path class="cls-5" d="M383.08,167.44c3,0,4.86,2.27,4.86,5.37v.51h-7.62a3,3,0,0,0,3.15,2.72,4.17,4.17,0,0,0,2.79-1.08l1,1.41a5.78,5.78,0,0,1-4,1.42,5.18,5.18,0,0,1-.16-10.35Zm-2.78,4.37h5.55a2.63,2.63,0,0,0-2.77-2.61A2.72,2.72,0,0,0,380.3,171.81Z"/><path class="cls-5" d="M390.53,163.93h9.33V166h-6.94v3.54h6.79v2.1h-6.79v3.78h6.94v2.1h-9.33Z"/><path class="cls-5" d="M409.31,171.38c0-1.53-.78-2-2-2a3.24,3.24,0,0,0-2.53,1.33v6.88h-2.15v-9.86h2.15V169a4.65,4.65,0,0,1,3.47-1.6,2.84,2.84,0,0,1,3.18,3.17v6.94h-2.14Z"/><path class="cls-5" d="M414.64,167.69h2.14v1.45a4.21,4.21,0,0,1,3.2-1.68v2.13a3.13,3.13,0,0,0-.67-.06,3.41,3.41,0,0,0-2.53,1.3v6.72h-2.14Z"/><path class="cls-5" d="M421.51,172.61a5.08,5.08,0,1,1,5.07,5.18A4.94,4.94,0,0,1,421.51,172.61Zm7.92,0c0-1.74-1-3.27-2.85-3.27s-2.84,1.53-2.84,3.27,1,3.29,2.84,3.29S429.43,174.36,429.43,172.61Z"/><path class="cls-5" d="M434.23,163.93h2.14v13.62h-2.14Z"/><path class="cls-5" d="M439.56,163.93h2.14v13.62h-2.14Z"/><path class="cls-5" d="M457,171.12c0-1.06-.47-1.78-1.61-1.78a3,3,0,0,0-2.29,1.31v6.9h-2.14v-6.43c0-1.06-.47-1.78-1.63-1.78a3,3,0,0,0-2.27,1.33v6.88h-2.14v-9.86H447V169a4.23,4.23,0,0,1,3.2-1.6,2.58,2.58,0,0,1,2.7,1.82,4.18,4.18,0,0,1,3.35-1.82c1.82,0,2.84,1,2.84,3v7.13H457Z"/><path class="cls-5" d="M466.69,167.44c3,0,4.86,2.27,4.86,5.37v.51h-7.62a3,3,0,0,0,3.14,2.72,4.19,4.19,0,0,0,2.8-1.08l1,1.41a5.78,5.78,0,0,1-4,1.42,5.18,5.18,0,0,1-.16-10.35Zm-2.78,4.37h5.55a2.63,2.63,0,0,0-2.77-2.61A2.72,2.72,0,0,0,463.91,171.81Z"/><path class="cls-5" d="M480.73,171.38c0-1.53-.77-2-2-2a3.26,3.26,0,0,0-2.53,1.33v6.88h-2.14v-9.86h2.14V169a4.65,4.65,0,0,1,3.47-1.6,2.84,2.84,0,0,1,3.18,3.17v6.94h-2.14Z"/><path class="cls-5" d="M486.49,175.26v-5.69h-1.64v-1.88h1.64V165h2.14v2.7h2v1.88h-2v5.16c0,.68.33,1.17.94,1.17a1.39,1.39,0,0,0,1-.35l.51,1.61a2.82,2.82,0,0,1-2,.63A2.27,2.27,0,0,1,486.49,175.26Z"/></g></g></svg>