<svg width="464" height="381" viewBox="0 0 464 381" fill="none" xmlns="http://www.w3.org/2000/svg">
<path d="M232 380.032C360.13 380.032 464 317.261 464 239.83C464 162.398 360.13 99.6277 232 99.6277C103.87 99.6277 0 162.398 0 239.83C0 317.261 103.87 380.032 232 380.032Z" fill="#F3FFFC"/>
<path d="M13.2414 249.986L219.624 369.247C222.147 370.524 225.117 370.524 227.64 369.247L336.162 306.539C338.38 305.253 338.38 303.186 336.162 301.9L129.798 182.638C127.276 181.361 124.296 181.361 121.773 182.638L13.251 245.356C11.0234 246.632 11.0234 248.709 13.2414 249.986Z" fill="#D4FFF4"/>
<path d="M229.629 125.856C237.93 130.705 237.93 138.565 229.629 143.415C221.328 148.264 207.877 148.264 199.576 143.415C191.275 138.565 191.275 130.705 199.576 125.856C207.877 121.007 221.328 121.007 229.629 125.856Z" fill="#E0E0E0"/>
<path d="M430.329 189.945L299.588 114.385C298.094 113.566 296.285 113.537 294.762 114.309L222.023 156.495C220.681 157.277 220.681 158.525 222.023 159.306L253.495 177.455L226.288 195.824C217.568 201.702 215.693 209.476 222.1 213.173C228.506 216.869 243.547 217.136 252.971 212.468L284.167 195.147L297.228 202.693L352.536 234.685C354.068 235.457 355.868 235.457 357.4 234.685L430.339 192.766C431.633 192.041 431.653 190.793 430.329 189.945Z" fill="#D4FFF4"/>
<path d="M324.939 304.367L228.982 359.806C225.898 361.597 222.119 361.664 218.977 359.987L25.7979 248.357C22.7517 246.604 20.2861 242.64 20.2861 239.573C20.2861 236.505 22.7517 232.551 25.7884 230.789L121.393 175.531C124.858 173.778 128.942 173.778 132.407 175.531L324.939 286.799C327.985 288.561 330.451 292.515 330.451 295.583C330.451 298.651 327.985 302.614 324.939 304.367Z" fill="#407BFF"/>
<path opacity="0.5" d="M121.393 175.549L25.7884 230.807C22.7517 232.57 20.2766 236.523 20.2862 239.591C20.2957 242.659 22.7517 246.622 25.7884 248.375L218.977 359.986C220.453 360.748 222.081 361.158 223.737 361.177V228.34L132.35 175.549C128.904 173.815 124.839 173.815 121.393 175.549Z" fill="black"/>
<path opacity="0.4" d="M228.982 359.806L324.939 304.367C327.985 302.614 330.451 298.651 330.451 295.583C330.451 292.515 327.985 288.561 324.939 286.799L223.766 228.34V361.178C225.593 361.206 227.402 360.73 228.982 359.806Z" fill="black"/>
<path d="M226.707 349.897C223.651 351.441 220.044 351.441 216.988 349.897L25.7694 239.382C21.657 237 21.657 233.113 25.7694 230.741L121.383 175.55C124.848 173.797 128.942 173.797 132.407 175.55L324.93 286.799C327.966 288.552 327.966 291.42 324.93 293.163L226.707 349.897Z" fill="#407BFF"/>
<path d="M226.707 349.897C223.651 351.441 220.044 351.441 216.988 349.897L25.7694 239.382C21.657 237 21.657 233.113 25.7694 230.741L121.383 175.55C124.848 173.797 128.942 173.797 132.407 175.55L324.93 286.799C327.966 288.552 327.966 291.42 324.93 293.163L226.707 349.897Z" fill="#3564B9"/>
<path d="M217.416 338.798C214.122 340.475 210.238 340.475 206.945 338.798L42.4095 243.727C39.5536 242.059 39.5536 239.344 42.4095 237.677L132.35 185.706C135.644 184.048 139.528 184.048 142.821 185.706L307.356 280.778C310.212 282.445 310.212 285.17 307.356 286.837L217.416 338.798Z" fill="#37474F"/>
<path d="M137.271 184.477C135.558 184.486 133.863 184.906 132.35 185.706L42.4095 237.677C39.5536 239.344 39.5536 242.059 42.4095 243.726L60.2395 254.025L137.271 204.798V184.477Z" fill="#263238"/>
<path d="M142.888 189.641C139.594 187.983 135.71 187.983 132.417 189.641L42.4668 241.611C41.9527 241.897 41.4958 242.269 41.1055 242.707C41.4862 243.117 41.9241 243.46 42.4096 243.726L206.945 338.798C210.239 340.475 214.123 340.475 217.416 338.798L307.366 286.837C307.871 286.551 308.328 286.18 308.718 285.751C308.347 285.341 307.909 284.989 307.423 284.712L142.888 189.641Z" fill="#407BFF"/>
<path opacity="0.75" d="M142.888 189.641C139.594 187.983 135.71 187.983 132.417 189.641L42.4668 241.611C41.9527 241.897 41.4958 242.269 41.1055 242.707C41.4862 243.117 41.9241 243.46 42.4096 243.726L206.945 338.798C210.239 340.475 214.123 340.475 217.416 338.798L307.366 286.837C307.871 286.551 308.328 286.18 308.718 285.751C308.347 285.341 307.909 284.989 307.423 284.712L142.888 189.641Z" fill="white"/>
<path d="M75.2804 213.373L91.2256 204.131C92.1776 203.579 92.1776 202.721 91.3303 202.226C90.2737 201.712 89.0361 201.74 87.9985 202.293L72.0724 211.506C71.1204 212.049 71.1204 212.916 71.9676 213.411C73.0148 213.925 74.2428 213.906 75.2804 213.373Z" fill="#37474F"/>
<path d="M102.658 197.577C103.182 197.577 103.61 197.148 103.61 196.624C103.61 196.1 103.182 195.671 102.658 195.671C101.64 195.157 100.45 195.157 99.4314 195.671C98.9078 195.671 98.4795 196.1 98.4795 196.624C98.4795 197.148 98.9078 197.577 99.4314 197.577C100.45 198.091 101.64 198.091 102.658 197.577Z" fill="#37474F"/>
<path d="M109.122 193.832C109.636 193.718 109.959 193.204 109.836 192.689C109.75 192.337 109.474 192.051 109.122 191.975C108.103 191.451 106.904 191.451 105.885 191.975C105.371 192.089 105.048 192.603 105.171 193.118C105.257 193.47 105.533 193.756 105.885 193.832C106.904 194.356 108.103 194.356 109.122 193.832Z" fill="#37474F"/>
<path d="M57.4214 223.71C57.945 223.71 58.3733 223.281 58.3733 222.757C58.3733 222.233 57.945 221.804 57.4214 221.804C56.4029 221.29 55.2131 221.29 54.1946 221.804C53.671 221.804 53.2427 222.233 53.2427 222.757C53.2427 223.281 53.671 223.71 54.1946 223.71C55.2131 224.224 56.4029 224.224 57.4214 223.71Z" fill="#37474F"/>
<path d="M63.8853 219.975C64.78 219.451 64.78 218.622 63.8853 218.07C62.8667 217.555 61.6769 217.555 60.6584 218.07C59.7636 218.584 59.7636 219.413 60.6584 219.975C61.6769 220.489 62.8667 220.489 63.8853 219.975Z" fill="#37474F"/>
<path d="M86.3515 277.053C87.351 277.672 87.9888 278.739 88.0745 279.911C88.1126 280.311 87.9317 280.702 87.5985 280.921C87.3891 281.035 86.6466 281.502 86.3896 281.616C85.9802 281.797 85.5042 281.74 85.152 281.473L62.7907 268.535C61.7912 267.907 61.1534 266.849 61.0677 265.677C61.0391 265.306 61.201 264.953 61.4961 264.724L62.7431 264C63.1525 263.829 63.6284 263.876 63.9902 264.143L86.3515 277.053Z" fill="#407BFF"/>
<path opacity="0.4" d="M86.3515 277.053C87.351 277.672 87.9888 278.739 88.0745 279.911C88.1126 280.311 87.9317 280.702 87.5985 280.921C87.3891 281.035 86.6466 281.502 86.3896 281.616C85.9802 281.797 85.5042 281.74 85.152 281.473L62.7907 268.535C61.7912 267.907 61.1534 266.849 61.0677 265.677C61.0391 265.306 61.201 264.953 61.4961 264.724L62.7431 264C63.1525 263.829 63.6284 263.876 63.9902 264.143L86.3515 277.053Z" fill="black"/>
<path d="M85.1903 277.748L62.7909 264.801C61.8389 264.248 61.0679 264.639 61.0679 265.668C61.1535 266.839 61.7914 267.897 62.7909 268.526L85.1903 281.464C86.1423 282.016 86.9133 281.626 86.9133 280.597C86.8277 279.425 86.1898 278.367 85.1903 277.748Z" fill="#407BFF"/>
<path opacity="0.3" d="M85.1903 277.748L62.7909 264.801C61.8389 264.248 61.0679 264.639 61.0679 265.668C61.1535 266.839 61.7914 267.897 62.7909 268.526L85.1903 281.464C86.1423 282.016 86.9133 281.626 86.9133 280.597C86.8277 279.425 86.1898 278.367 85.1903 277.748Z" fill="black"/>
<path d="M56.4032 259.723C57.4028 260.351 58.0406 261.409 58.1263 262.581C58.1739 262.981 57.9835 263.372 57.6503 263.591L56.4413 264.296C56.032 264.467 55.5655 264.41 55.2038 264.153L44.6371 258.046C43.6376 257.417 42.9998 256.36 42.9141 255.188C42.8951 254.816 43.0569 254.454 43.352 254.235C43.571 254.102 44.3801 253.625 44.5991 253.511C45.0084 253.33 45.4844 253.387 45.8461 253.644L56.4032 259.723Z" fill="#407BFF"/>
<path opacity="0.4" d="M56.4032 259.723C57.4028 260.351 58.0406 261.409 58.1263 262.581C58.1739 262.981 57.9835 263.372 57.6503 263.591L56.4413 264.296C56.032 264.467 55.5655 264.41 55.2038 264.153L44.6371 258.046C43.6376 257.417 42.9998 256.36 42.9141 255.188C42.8951 254.816 43.0569 254.454 43.352 254.235C43.571 254.102 44.3801 253.625 44.5991 253.511C45.0084 253.33 45.4844 253.387 45.8461 253.644L56.4032 259.723Z" fill="black"/>
<path d="M55.2037 260.418L44.6371 254.311C43.6851 253.768 42.9141 254.159 42.9141 255.188C42.9997 256.36 43.6375 257.417 44.6371 258.046L55.2037 264.153C56.1557 264.696 56.9268 264.305 56.9268 263.276C56.8411 262.104 56.2033 261.047 55.2037 260.418Z" fill="#407BFF"/>
<path opacity="0.3" d="M55.2037 260.418L44.6371 254.311C43.6851 253.768 42.9141 254.159 42.9141 255.188C42.9997 256.36 43.6375 257.417 44.6371 258.046L55.2037 264.153C56.1557 264.696 56.9268 264.305 56.9268 263.276C56.8411 262.104 56.2033 261.047 55.2037 260.418Z" fill="black"/>
<path opacity="0.15" d="M140.994 286.656L165.887 301.099C166.734 301.537 167.753 301.537 168.6 301.099L240.054 259.875C240.491 259.732 240.72 259.256 240.577 258.827C240.491 258.579 240.301 258.389 240.054 258.303L215.16 243.86C214.303 243.431 213.304 243.431 212.447 243.86L140.994 285.113C140.565 285.284 140.356 285.76 140.527 286.189C140.613 286.408 140.775 286.57 140.994 286.656Z" fill="black"/>
<path d="M237.14 256.178C237.102 255.845 236.893 255.55 236.588 255.407L214.322 242.545C213.484 242.116 212.504 242.116 211.666 242.545L143.706 281.873C143.402 282.016 143.192 282.312 143.154 282.645V284.979C143.192 285.313 143.402 285.608 143.706 285.751L165.973 298.613C166.81 299.032 167.791 299.032 168.628 298.613L236.588 259.389C236.893 259.246 237.102 258.96 237.14 258.627V256.178Z" fill="#263238"/>
<path d="M165.973 296.212L143.707 283.407C143.288 283.264 143.059 282.807 143.202 282.378C143.278 282.14 143.469 281.95 143.707 281.873L211.667 242.545C212.504 242.116 213.485 242.116 214.323 242.545L236.589 255.407C237.007 255.55 237.236 256.007 237.093 256.436C237.017 256.674 236.827 256.864 236.589 256.941L168.629 296.212C167.791 296.641 166.811 296.641 165.973 296.212Z" fill="#37474F"/>
<path d="M167.21 296.545V298.936C166.772 298.936 166.344 298.832 165.963 298.632L143.716 285.77C143.412 285.627 143.202 285.332 143.164 284.998V282.636C143.202 282.969 143.412 283.264 143.716 283.407L165.963 296.221C166.354 296.421 166.772 296.536 167.21 296.545Z" fill="#263238"/>
<path d="M212.827 244.574L215.036 245.841L212.047 247.575L209.762 246.289L212.751 244.565L212.827 244.574ZM216.283 246.565L218.482 247.842L216.14 249.195L213.912 247.956L216.264 246.594L216.283 246.565ZM208.667 246.985H208.715L210.923 248.261L208.572 249.614L206.297 248.347L208.639 246.985H208.667ZM219.748 248.557L221.956 249.833L218.149 252.024L215.873 250.748L219.681 248.557H219.748ZM212.761 248.604L214.969 249.881L213.065 250.957L210.79 249.681L212.694 248.604H212.761ZM205.145 249.033H205.193L207.401 250.3L205.05 251.662L202.775 250.376L205.116 249.023L205.145 249.033ZM209.714 250.376H209.771L211.97 251.643L210.105 252.72L207.829 251.443L209.733 250.367L209.714 250.376ZM223.213 250.557L225.412 251.824L222.48 253.568L220.205 252.282L223.194 250.557H223.213ZM201.613 251.072L203.812 252.348L186.848 262.152L184.564 260.866L201.537 251.072H201.613ZM214.779 251.434H214.826L217.035 252.71L215.131 253.787L212.846 252.51L214.75 251.434H214.779ZM206.668 252.139L208.877 253.406L206.973 254.482L204.688 253.206L206.592 252.129L206.668 252.139ZM226.659 252.548L228.868 253.825L226.964 254.902L224.679 253.616L226.583 252.539L226.659 252.548ZM219.043 252.968H219.091L221.29 254.244L219.386 255.321L217.111 254.035L219.015 252.958L219.043 252.968ZM211.732 253.206H211.78L213.989 254.473L212.085 255.55L209.8 254.273L211.704 253.196L211.732 253.206ZM203.622 253.901L205.83 255.178L203.926 256.255L201.642 254.968L203.546 253.892L203.622 253.901ZM223.613 254.311H223.67L225.869 255.588L223.965 256.664L221.69 255.378L223.594 254.301L223.613 254.311ZM215.997 254.73H216.045L218.253 256.007L216.349 257.083L214.065 255.797L215.969 254.721L215.997 254.73ZM208.686 254.968H208.743L210.942 256.235L209.038 257.312L206.763 256.035L208.667 254.959L208.686 254.968ZM230.867 254.968H230.914L233.123 256.235L230.772 257.598L228.496 256.312L230.838 254.959L230.867 254.968ZM200.576 255.664L202.784 256.94L200.88 258.017L198.681 256.74L200.538 255.664H200.576ZM220.567 256.074L222.775 257.35L220.871 258.427L218.672 257.15L220.567 256.074ZM212.951 256.493L215.16 257.769L213.256 258.846L211.057 257.579L212.951 256.493ZM205.65 256.731H205.697L207.896 258.008L205.992 259.084L203.717 257.798L205.621 256.721L205.65 256.731ZM197.539 257.426L199.738 258.703L197.834 259.78L195.559 258.493L197.463 257.417L197.539 257.426ZM226.012 257.779L228.22 259.046L226.316 260.132L224.032 258.846L225.936 257.769L226.012 257.779ZM217.53 257.836L219.738 259.113L217.834 260.189L215.55 258.913L217.454 257.836H217.53ZM209.914 258.255H209.971L212.17 259.532L210.266 260.608L207.953 259.389L209.857 258.312L209.914 258.255ZM202.613 258.493L204.821 259.77L202.917 260.847L200.633 259.56L202.537 258.484L202.613 258.493ZM194.502 259.189H194.55L196.758 260.466L194.854 261.542L192.57 260.265L194.474 259.189H194.502ZM222.975 259.541H223.032L225.231 260.818L223.327 261.895L221.052 260.608L222.908 259.532L222.975 259.541ZM214.493 259.599H214.541L216.749 260.875L214.845 261.952L212.561 260.675L214.465 259.599H214.493ZM206.878 260.027L209.086 261.294L207.182 262.371L204.897 261.094L206.801 260.018L206.878 260.027ZM199.567 260.256L201.775 261.533L199.871 262.609L197.596 261.294L199.452 260.218L199.567 260.256ZM191.456 260.961H191.504L193.712 262.228L191.808 263.305L189.533 262.028L191.389 260.951L191.456 260.961ZM219.938 261.304L222.137 262.581L220.233 263.657L217.958 262.371L219.862 261.294L219.938 261.304ZM211.447 261.371H211.504L213.703 262.638L211.799 263.714L209.524 262.438L211.428 261.361L211.447 261.371ZM183.507 261.561H183.45L185.659 262.838L183.307 264.191L181.032 262.914L183.374 261.552L183.507 261.561ZM203.822 261.79H203.869L206.078 263.057L204.174 264.143L201.889 262.857L203.793 261.78L203.822 261.79ZM196.52 262.018H196.568L198.767 263.295L196.863 264.372L194.588 263.095L196.492 262.018H196.52ZM188.41 262.724L190.609 263.991L188.705 265.067L186.43 263.791L188.334 262.714L188.41 262.724ZM216.883 263.066H216.93L219.139 264.343L217.235 265.42L214.864 264.153L216.768 263.076L216.883 263.066ZM208.401 263.133L210.609 264.4L208.705 265.486L206.43 264.2L208.334 263.124L208.401 263.133ZM200.785 263.552H200.842L203.041 264.829L201.137 265.906L198.862 264.619L200.766 263.543L200.785 263.552ZM179.994 263.61H180.042L182.251 264.877L179.899 266.239L177.624 264.953L179.966 263.6L179.994 263.61ZM193.484 263.781L195.635 265.105L193.731 266.182L191.446 264.905L193.35 263.829L193.484 263.781ZM185.373 264.486H185.354L187.562 265.763L185.659 266.839L183.374 265.553L185.278 264.477L185.373 264.486ZM205.364 264.896H205.345L207.553 266.172L205.65 267.249L203.365 265.963L205.269 264.886L205.364 264.896ZM197.748 265.315L199.957 266.592L198.053 267.668L195.778 266.382L197.682 265.305L197.748 265.315ZM190.437 265.553H190.485L192.693 266.82L190.79 267.897L188.505 266.62L190.409 265.544L190.437 265.553ZM212.532 265.553L214.731 266.83L212.827 267.906L210.552 266.62L212.456 265.544L212.532 265.553ZM176.472 265.601L178.671 266.877L176.329 268.23L174.045 266.944L176.396 265.591L176.472 265.601ZM182.327 266.201H182.374L184.583 267.478L182.679 268.554L180.404 267.268L182.26 266.191L182.327 266.201ZM202.318 266.611H202.375L204.574 267.887L202.67 268.964L200.395 267.678L202.251 266.601L202.318 266.611ZM194.702 267.03H194.75L196.958 268.306L195.054 269.383L192.77 268.097L194.674 267.02L194.702 267.03ZM187.391 267.268H187.448L189.647 268.545L187.743 269.621L185.354 268.392L187.258 267.316L187.391 267.268ZM209.486 267.316H209.533L211.742 268.592L209.838 269.669L207.553 268.383L209.457 267.306L209.486 267.316ZM172.94 267.64L175.149 268.916L172.16 270.641L169.875 269.364L172.864 267.64H172.94ZM179.28 267.963H179.338L181.537 269.24L175.53 272.727L173.255 271.441L179.138 268.04L179.28 267.963ZM199.271 268.373H199.319L201.518 269.65L199.614 270.726L197.339 269.44L199.243 268.373H199.271ZM191.656 268.792H191.713L193.912 270.069L192.008 271.146L189.733 269.869L191.589 268.792H191.656ZM184.354 269.031H184.402L186.61 270.307L184.707 271.384L182.422 270.098L184.326 269.021L184.354 269.031ZM206.44 269.078H206.487L208.696 270.355L206.792 271.431L204.393 270.212L206.249 269.135L206.44 269.078ZM196.235 270.136H196.282L198.491 271.412L196.587 272.489L194.302 271.212L196.206 270.136H196.235ZM168.133 270.431L170.342 271.698L168.438 272.775L166.153 271.498L168.057 270.421L168.133 270.431ZM188.61 270.564H188.657L190.856 271.832L188.952 272.908L186.677 271.631L188.581 270.555L188.61 270.564ZM181.299 270.793H181.346L183.555 272.07L181.851 273.022C181.737 273.089 181.66 273.203 181.66 273.337C181.66 273.47 181.736 273.604 181.86 273.661L184.716 275.328L182.527 276.595L176.815 273.318L181.251 270.755L181.299 270.793ZM203.393 270.841H203.441L205.64 272.117L203.736 273.194L201.461 271.917L203.365 270.841H203.393ZM193.179 271.908L195.387 273.175L193.484 274.251L191.208 272.975L193.112 271.898L193.179 271.908ZM165.077 272.194H165.125L167.333 273.461L165.363 274.633L163.088 273.346L164.944 272.27L165.077 272.194ZM185.554 272.327H185.601L187.81 273.594L185.906 274.671L183.621 273.394L185.525 272.317L185.554 272.327ZM199.005 273.375H199.062L201.261 274.652L199.357 275.728L197.082 274.442L198.938 273.365L199.005 273.375ZM190.133 273.67H190.18L192.379 274.937L190.475 276.023L188.2 274.737L190.104 273.661L190.133 273.67ZM162.022 273.956H162.079L164.278 275.233L162.374 276.309L160.099 275.023L162.003 273.947L162.022 273.956ZM168.533 274.185H168.581L170.78 275.461L168.876 276.538L166.6 275.252L168.504 274.175L168.533 274.185ZM195.959 275.137H196.006L198.205 276.414L196.301 277.491L193.921 276.271L195.825 275.195L195.959 275.137ZM187.077 275.433H187.125L189.333 276.7L186.02 278.605L183.736 277.329L187.048 275.423L187.077 275.433ZM158.328 276.09H158.376L160.584 277.367L155.663 280.225L153.387 278.939L158.299 276.081L158.328 276.09ZM178.481 276.405H178.538L180.737 277.681L178.833 278.758L176.558 277.481L178.462 276.405H178.481ZM192.903 276.909H192.95L195.159 278.186L193.255 279.263L190.97 277.986L192.874 276.909H192.903ZM161.784 278.081H161.831L164.03 279.358L162.126 280.435L159.851 279.158L161.755 278.081H161.784ZM175.435 278.177H175.482L177.681 279.444L175.777 280.52L173.502 279.244L175.406 278.167L175.435 278.177ZM181.936 278.405L184.145 279.672L182.241 280.758L179.956 279.472L181.86 278.396L181.936 278.405ZM189.847 278.672L192.056 279.939L190.152 281.016L187.877 279.739L189.78 278.662L189.847 278.672ZM152.226 279.625H152.274L154.482 280.901L152.578 281.978L150.294 280.701L152.197 279.625H152.226ZM158.728 279.863H158.775L160.984 281.13L159.08 282.207L156.795 280.93L158.699 279.853L158.728 279.863ZM172.379 279.949H172.426L174.502 281.302L172.598 282.388L170.313 281.101L172.217 280.025L172.379 279.949ZM165.23 280.092H165.277L167.486 281.359L165.582 282.435L163.307 281.159L165.163 280.082L165.23 280.092ZM178.881 280.177H178.928L181.137 281.454L179.233 282.531L176.948 281.244L178.852 280.168L178.881 280.177ZM186.125 280.835H186.173L188.372 282.102L186.468 283.188L184.193 281.902L186.096 280.825L186.125 280.835ZM149.17 281.397H149.218L154.872 284.655L152.969 285.741L147.257 282.464L149.17 281.397ZM155.672 281.625H155.729L157.928 282.893L156.024 283.979L153.749 282.693L155.653 281.616L155.672 281.625ZM162.174 281.854H162.231L164.43 283.121L162.526 284.207L160.251 282.921L162.155 281.845L162.174 281.854ZM175.825 281.94H175.882L178.081 283.216L176.177 284.293L173.902 283.007L175.758 281.93L175.825 281.94ZM168.685 282.083H168.733L170.932 283.359L169.028 284.436L166.658 283.207L168.562 282.13L168.685 282.083ZM183.069 282.597L185.278 283.874L183.374 284.95L181.089 283.664L182.993 282.588L183.069 282.597ZM159.128 283.617H159.175L161.384 284.893L159.48 285.97L157.195 284.684L159.099 283.607L159.128 283.617ZM165.629 283.845H165.677L167.886 285.122L165.982 286.199L163.697 284.912L165.601 283.836L165.629 283.845ZM172.027 284.16L174.235 285.436L172.331 286.513L170.047 285.227L171.95 284.15L172.027 284.16ZM179.909 284.446H179.956L182.165 285.722L180.261 286.799L177.986 285.513L179.842 284.436L179.909 284.446ZM155.967 285.465H156.015L161.669 288.733L159.765 289.809L154.054 286.532L155.958 285.455L155.967 285.465ZM162.469 285.694L164.678 286.97L162.774 288.047L160.603 286.723L162.507 285.655L162.469 285.694ZM168.971 285.922H169.018L171.227 287.199L169.323 288.275L167.048 286.999L168.952 285.922H168.971ZM177.072 287.018L178.024 287.561L176.12 288.637L175.092 288.085L176.996 287.008L177.072 287.018ZM165.896 287.609H165.944L168.143 288.885L166.239 289.962L163.964 288.685L165.867 287.609H165.896ZM174.016 288.78H174.073L175.025 289.323L173.121 290.4L172.103 289.847L173.95 288.771L174.016 288.78ZM162.84 289.381H162.888L165.096 290.648L163.192 291.724L160.908 290.448L162.812 289.371L162.84 289.381ZM170.97 290.543H171.018L171.969 291.086L170.066 292.163L169.047 291.61L170.951 290.543H170.97ZM167.914 292.305L168.866 292.849L166.962 293.925L165.934 293.372L167.838 292.305H167.914Z" fill="#2960CD"/>
<path opacity="0.1" d="M85.3994 259.656C86.4275 262.257 88.6455 263.61 91.9298 265.077C101.544 269.412 124.591 274.604 137.528 276.91C145.058 278.253 152.759 280.721 160.451 281.054C167.334 281.33 174.473 280.101 180.185 276.214C181.004 275.766 181.651 275.061 182.032 274.204C182.356 272.784 181.699 271.327 180.423 270.631C179.167 269.983 177.777 269.612 176.358 269.555C161.032 267.706 146.029 263.734 131.797 257.731C138.185 257.055 144.677 256.359 150.618 253.921C156.558 251.482 162.041 247.032 164.097 240.954C164.516 239.735 164.859 238.382 165.868 237.572C167.02 236.8 168.476 236.667 169.752 237.21C173.931 238.706 175.587 243.603 176.825 247.871C178.062 252.139 180.119 257.007 184.44 257.989C182.87 257.036 183.488 254.311 185.145 253.654C186.801 252.996 188.829 254.025 189.838 255.559C190.847 257.093 191.104 258.837 191.942 260.389C192.779 261.942 194.579 263.248 196.206 262.609C197.063 262.181 197.739 261.457 198.11 260.571C200.414 256.064 200.014 250.51 197.977 245.87C195.94 241.23 192.522 237.343 188.867 233.847C183.774 228.978 178.043 224.605 171.446 222.128C157.643 216.936 142.117 220.718 128.437 226.244C118.118 230.407 108.208 235.523 98.8409 241.535C95.2901 243.66 92.0154 246.223 89.0929 249.157C87.0082 251.386 84.8187 254.549 85.0376 257.731C85.0567 258.389 85.1804 259.037 85.3994 259.656Z" fill="black"/>
<path d="M202.394 244.822C200.376 241.697 196.759 235.295 195.626 233.98C192.532 230.455 186.154 224.882 186.154 224.882C180.138 219.975 161.66 203.646 161.66 203.646C161.66 203.646 158.805 167.442 155.606 161.65C151.913 154.904 144.887 154.628 137.614 154.19C137.614 154.19 135.71 162.05 134.968 168.481C134.968 168.481 141.508 209.086 142.288 212.858C143.069 216.631 144.982 218.289 148.876 220.795C154.825 224.605 176.349 236.181 176.349 236.181L177.406 236.915C178.129 237.429 178.681 238.153 178.967 238.991C179.243 239.83 179.433 240.687 179.529 241.564C179.871 244.565 179.529 245.375 179.786 248.652C180.043 251.929 180.738 251.825 182.023 254.635C183.175 257.236 183.517 258.865 184.469 258.96C185.421 259.056 186.64 256.941 186.64 254.797C186.64 252.653 185.336 250.291 185.288 249.386C185.24 248.481 185.716 247.356 187.753 248.557C189.791 249.757 191.695 253.406 193.208 255.931C194.722 258.456 195.531 261.79 197.064 263.61C198.596 265.429 199.167 263.41 199.872 261.704C200.576 259.999 204.013 257.217 204.917 254.492C205.821 251.767 204.394 247.957 202.394 244.822Z" fill="#FFA8A7"/>
<path d="M137.614 153.961C142.622 153.961 146.686 153.409 151.094 156.095C155.501 158.782 156.691 162.46 157.691 168.176C158.595 173.378 160.433 191.289 160.433 191.289C160.433 191.289 147.714 198.31 136.634 193.833L137.614 153.961Z" fill="#3C3C3C"/>
<path d="M148.143 129.4C150.256 130.096 152.283 131.029 154.177 132.201C156.652 133.706 157.471 136.917 156.015 139.422L153.721 138.965C153.721 138.965 154.901 136.269 153.521 134.83C152.14 133.392 148.104 132.144 148.104 132.144L148.143 129.4Z" fill="#263238"/>
<path d="M155.063 137.927C153.159 137.022 152.303 138.184 150.989 141.347C149.676 144.51 150.58 145.377 152.179 146.005C153.778 146.634 155.035 145.577 155.986 142.957C157.091 140.013 157.062 138.908 155.063 137.927Z" fill="#407BFF"/>
<path d="M155.215 137.956C153.312 137.051 152.455 138.213 151.141 141.376C149.828 144.538 150.732 145.405 152.331 146.034C153.93 146.663 155.187 145.605 156.139 142.986C157.253 140.042 157.224 138.937 155.215 137.956Z" fill="#2960CD"/>
<path d="M116.957 156.267C106.486 158.62 95.2335 161.983 86.7992 165.651C86.7992 165.651 86.1234 201.769 91.9683 219.003C97.8133 236.238 96.1284 255.874 96.1284 255.874C124.687 260.494 159.328 247.213 158.472 232.808C157.091 229.798 155.483 226.901 153.655 224.139C153.655 224.139 152.941 212.563 153.255 207.409C174.198 187.792 145.116 162.631 137.614 153.999C133.045 154.59 126.334 154.161 116.957 156.267Z" fill="#2960CD"/>
<path d="M115.234 103.191C113.882 105.62 114.444 108.488 114.996 111.06C115.424 113.023 116.595 115.452 116.1 117.444C115.31 120.187 113.634 122.598 111.34 124.284C110.779 124.76 110.169 125.18 109.541 125.561C108.998 125.856 108.37 125.989 107.818 126.294C106.647 126.98 105.676 127.971 105.01 129.152C104.086 130.858 103.401 132.677 102.973 134.564C102.535 136.45 101.811 138.26 100.831 139.928C98.5937 143.1 94.862 144.863 90.9876 144.586C88.8838 144.425 86.8561 143.777 85.0569 142.681C84.143 142.138 83.2958 141.5 82.5152 140.776C81.8012 140.166 81.2301 139.404 80.8398 138.546C80.5637 141.09 81.192 143.643 82.6294 145.758C75.7659 146.978 69.2165 142.395 67.998 135.526C67.7695 134.23 67.7409 132.897 67.9218 131.591C68.2645 129.152 69.3021 126.828 69.8257 124.456C71.2727 117.977 65.4658 114.433 64.5138 108.526C63.9712 104.744 65.8275 101.019 69.1784 99.1894C71.168 98.1414 73.7858 97.6174 74.614 95.531C75.2518 93.9304 74.4712 92.1488 74.4998 90.4244C74.4998 87.0137 77.7174 84.4128 80.954 83.3838C84.1906 82.3549 87.7033 82.3644 90.9685 81.3926C94.4527 80.3637 97.6322 78.2391 101.173 77.5818C105.457 76.9053 109.808 78.3916 112.787 81.5451C114.13 82.9741 114.863 84.6414 116.052 86.1181C117.242 87.5948 119.061 88.357 119.936 90.091C121.212 92.3584 121.307 95.1118 120.184 97.465C118.994 99.742 116.471 100.99 115.234 103.191Z" fill="#263238"/>
<path d="M147.438 110.889C147.039 99.5514 140.461 83.3743 116.119 85.4417C92.3965 87.4614 85.4187 108.64 87.5606 120.14C90.5783 136.012 102.116 137.031 105.115 147.407L147.438 110.889Z" fill="#263238"/>
<path d="M94.3862 119.559C95.7951 117.767 98.1464 116.986 100.345 117.577C101.497 117.901 102.516 118.568 103.277 119.482C104.372 120.692 104.353 122.34 105.124 123.722C105.581 124.627 106.447 125.256 107.447 125.408C110.712 125.704 109.494 120.397 109.675 118.511C115.843 116.319 115.672 114.033 116.51 108.583C120.831 103.915 128.333 103.229 134.825 107.697C138.785 100.075 143.078 101.028 144.935 103.381C146.306 106.182 147.239 109.174 147.705 112.251C148.609 116.862 148.952 121.559 148.743 126.247C147.943 144.453 141.946 148.826 138.957 150.065C135.967 151.303 132.293 150.408 126.8 149.369V160.306C132.512 171.215 137.072 187.726 136.853 198.51C128.066 181.857 114.311 172.949 107.809 166.899C106.324 165.556 105 164.031 103.877 162.364V133.63C103.877 133.63 101.478 136.193 97.6704 133.163C92.5775 129.086 91.0163 123.369 94.3862 119.559Z" fill="#FFA8A7"/>
<path d="M126.8 149.388C122.04 148.15 116.947 146.349 113.473 143.672C111.121 141.776 109.332 139.27 108.313 136.422C108.313 136.422 108.722 143.443 112.254 146.606C115.786 149.769 126.838 153.418 126.838 153.418L126.8 149.388Z" fill="#F28F8F"/>
<path d="M127.542 124.008C127.675 125.398 126.657 126.627 125.276 126.761C123.896 126.894 122.659 125.875 122.526 124.493C122.392 123.15 123.354 121.931 124.696 121.75C126.095 121.588 127.371 122.598 127.542 124.008Z" fill="#263238"/>
<path d="M145.42 121.788C145.629 123.045 144.773 124.236 143.516 124.446C142.326 124.665 141.184 123.884 140.965 122.693C140.946 122.598 140.937 122.493 140.927 122.397C140.756 121.15 141.641 119.997 142.888 119.825C144.135 119.654 145.287 120.54 145.458 121.788H145.42Z" fill="#263238"/>
<path d="M132.826 118.634L134.615 133.802L142.402 130.829L132.826 118.634Z" fill="#F28F8F"/>
<path d="M126.19 116.357L120.479 118.968C119.775 117.348 120.479 115.471 122.069 114.709C123.611 114.004 125.429 114.681 126.133 116.224C126.152 116.272 126.171 116.31 126.19 116.357Z" fill="#263238"/>
<path d="M124.354 135.707L132.549 138.489C131.712 140.775 129.218 141.995 126.895 141.252C124.687 140.48 123.525 138.07 124.296 135.869C124.315 135.812 124.334 135.764 124.354 135.707Z" fill="#B16668"/>
<path d="M124.554 137.622C126.648 137.727 128.352 139.346 128.571 141.433C127.999 141.48 127.438 141.404 126.895 141.223C125.353 140.69 124.268 139.289 124.135 137.66C124.278 137.641 124.411 137.632 124.554 137.622Z" fill="#F28F8F"/>
<path d="M146.153 117.014L140.384 114.48C140.974 112.918 142.716 112.137 144.277 112.728C144.335 112.747 144.392 112.775 144.439 112.794C146.038 113.528 146.79 115.376 146.153 117.014Z" fill="#263238"/>
<path d="M126.8 152.885C130.474 153.952 141.212 168.49 144.696 173.73L140.755 183.791C143.116 186.23 145.201 188.926 146.972 191.822L138.947 215.212C138.947 215.212 139.67 184.048 126.8 160.335V152.885Z" fill="#2D2D2D"/>
<path d="M137.881 197.377C140.737 204.798 141.137 222.004 141.137 222.004C141.137 222.004 138.281 205.951 124.792 200.33C124.792 199.558 124.934 188.564 124.934 188.564C124.934 188.564 106.847 183.972 103.039 182.248L99.146 161.288C99.146 161.288 101.745 154.79 103.906 154.619V159.144C109.865 163.841 115.558 168.862 120.974 174.178C130.836 183.696 135.044 189.955 137.881 197.377Z" fill="#3C3C3C"/>
<path d="M184.641 271.365C181.728 268.916 177.51 265.525 174.169 264.696C173.389 264.467 172.598 264.296 171.799 264.172C172.922 263.934 174.036 263.61 175.121 263.219C176.206 262.781 177.149 262.047 177.825 261.085C178.072 260.694 178.224 260.132 177.825 259.827C177.682 259.732 177.51 259.684 177.339 259.694C174.874 259.818 172.903 259.599 170.675 259.618C169.666 259.561 168.648 259.665 167.667 259.923C166.772 260.256 165.878 260.599 165.002 260.98C161.032 262.733 157.386 264.315 151.522 263.448L149.066 262.8L107.771 241.507L99.936 198.825C99.936 198.825 98.0321 172.358 87.3226 165.937C81.6109 168.109 75.3566 173.482 73.6621 179.275C71.663 186.163 72.4436 195.948 75.8516 211.124C78.7075 223.824 81.6871 236.848 84.9142 246.518C88.1413 256.188 89.3788 259.608 95.7188 261.504C106.352 264.686 144.716 275.214 144.716 275.214C145.506 275.519 146.306 275.785 147.115 276.005C148.438 276.376 149.675 277.291 152.826 277.977C156.568 278.796 161.118 277.091 164.25 276.652C167.382 276.214 172.884 277.243 175.921 278.196C178.957 279.149 182.108 274.328 183.622 274.756C185.136 275.185 187.563 273.823 184.641 271.365Z" fill="#FFA8A7"/>
<path d="M170.256 262.552C168.724 262.609 167.21 262.981 165.83 263.648C167.82 263.581 169.809 263.762 171.76 264.181C172.884 263.943 173.997 263.619 175.082 263.228C176.034 262.838 176.881 262.219 177.548 261.428C175.834 262.781 172.408 262.59 170.256 262.552Z" fill="#F28F8F"/>
<path d="M86.7992 165.651C79.4025 168.814 74.5 172.682 72.5199 180.828C70.5399 188.974 71.9392 196.129 73.6051 204.751C75.271 213.373 79.174 227.387 79.174 227.387C79.174 227.387 95.005 228.34 104.134 222.004L99.1365 189.498C99.1365 189.498 96.4996 170.196 87.3037 165.946" fill="#3C3C3C"/>
<path d="M99.5268 89.224C93.9674 94.3782 88.6364 101.686 92.587 118.596C90.0453 121.064 89.16 124.77 90.2928 128.123C91.816 133.344 96.8232 136.784 101.478 135.745C106.133 134.707 108.656 129.734 107.133 124.503C105.981 120.597 101.792 116.815 98.3463 117.062C98.3463 117.062 95.0431 109.831 98.1369 99.58C102.364 85.6132 118.632 84.4509 125.791 85.5846C123.392 82.1834 106.876 82.412 99.5268 89.224Z" fill="#407BFF"/>
<path d="M99.5268 89.224C93.9674 94.3782 88.6364 101.686 92.587 118.596C90.0453 121.064 89.16 124.77 90.2928 128.123C91.816 133.344 96.8232 136.784 101.478 135.745C106.133 134.707 108.656 129.734 107.133 124.503C105.981 120.597 101.792 116.815 98.3463 117.062C98.3463 117.062 95.0431 109.831 98.1369 99.58C102.364 85.6132 118.632 84.4509 125.791 85.5846C123.392 82.1834 106.876 82.412 99.5268 89.224Z" fill="#2960CD"/>
<path d="M108.123 124.322C106.428 118.53 100.879 114.728 95.7475 115.814C94.9669 115.976 94.2053 116.262 93.5104 116.653C92.9297 116.977 91.1781 118.177 90.8354 118.406C87.5417 120.587 86.0757 125.075 87.3798 129.686C89.0743 135.479 94.6242 139.28 99.7552 138.194C100.698 137.994 101.602 137.622 102.421 137.108C102.84 136.841 104.477 135.745 104.877 135.459C108.028 133.24 109.446 128.867 108.123 124.322Z" fill="#407BFF"/>
<path opacity="0.3" d="M108.123 124.322C106.428 118.53 100.879 114.728 95.7475 115.814C94.9669 115.976 94.2053 116.262 93.5104 116.653C92.9297 116.977 91.1781 118.177 90.8354 118.406C87.5417 120.587 86.0757 125.075 87.3798 129.686C89.0743 135.479 94.6242 139.28 99.7552 138.194C100.698 137.994 101.602 137.622 102.421 137.108C102.84 136.841 104.477 135.745 104.877 135.459C108.028 133.24 109.446 128.867 108.123 124.322Z" fill="black"/>
<path d="M106.019 125.732C104.324 119.949 98.7745 116.138 93.6435 117.234C88.5125 118.33 85.6852 123.903 87.3796 129.686C89.0741 135.469 94.624 139.28 99.755 138.194C104.886 137.108 107.713 131.525 106.019 125.732Z" fill="#407BFF"/>
<path d="M106.019 125.732C104.324 119.949 98.7745 116.138 93.6435 117.234C88.5125 118.33 85.6852 123.903 87.3796 129.686C89.0741 135.469 94.624 139.28 99.755 138.194C104.886 137.108 107.713 131.525 106.019 125.732Z" fill="#628CE0"/>
<path d="M101.097 126.78C100.297 124.046 97.6698 122.255 95.2425 122.769C92.8153 123.284 91.435 125.913 92.2822 128.647C93.1294 131.381 95.709 133.172 98.1362 132.658C100.564 132.143 101.896 129.504 101.097 126.78Z" fill="#37474F"/>
<path opacity="0.1" d="M214.627 331.643L195.379 320.363C194.855 320.363 194.427 319.934 194.427 319.41C194.427 318.887 194.855 318.458 195.379 318.458L270.859 274.842C271.858 274.328 273.048 274.328 274.057 274.842L293.287 286.037C293.801 286.161 294.106 286.685 293.982 287.19C293.896 287.533 293.63 287.799 293.287 287.885L217.816 331.653C216.817 332.167 215.627 332.167 214.627 331.643Z" fill="black"/>
<path d="M284.871 268.097L289.926 208.076C290.012 206.285 289.164 204.579 287.679 203.579C286.051 202.798 284.138 202.826 282.539 203.674L207.144 247.242C205.555 248.28 204.498 249.957 204.231 251.834L199.186 311.855C199.091 313.646 199.938 315.352 201.423 316.352C203.06 317.143 204.964 317.105 206.573 316.257L281.968 272.727C283.567 271.689 284.624 269.993 284.871 268.097Z" fill="#263238"/>
<path d="M289.916 208.066L284.87 268.088L288.535 208.504C288.669 206.818 288.06 206.18 286.632 207.018L212.16 250.091C211.389 250.586 210.733 251.253 210.257 252.044L205.278 249.186C205.754 248.414 206.411 247.756 207.182 247.28L282.567 203.712C284.176 202.864 286.089 202.836 287.726 203.617C289.173 204.627 290.001 206.304 289.916 208.066Z" fill="#37474F"/>
<path d="M204.164 314.732L209.219 254.711C209.476 252.834 210.533 251.157 212.123 250.119L286.594 206.989C288.06 206.141 288.669 206.789 288.498 208.476L284.833 268.059C284.576 269.945 283.519 271.622 281.929 272.66L206.535 316.218C205.107 317.105 204.031 316.428 204.164 314.732Z" fill="#455A64"/>
<path d="M241.206 278.453L240.625 296.536L261.568 284.484L256.465 269.678L241.206 278.453Z" fill="#263238"/>
<path d="M244.261 280.444L258.883 271.946L256.389 270.507L241.777 279.015L244.261 280.444Z" fill="#455A64"/>
<path d="M266.88 297.336L258.883 271.946L244.261 280.454L241.786 279.006L243.424 298.555L243.833 304.176L244.071 305.377L243.005 304.767L238.245 302.042C238.036 301.899 237.769 301.861 237.531 301.947C237.293 302.1 237.169 302.366 237.198 302.643V303.071C237.226 303.805 237.617 304.481 238.226 304.882L246.051 309.407C246.346 309.559 246.67 309.645 247.003 309.655C247.393 309.674 247.784 309.588 248.136 309.397L265.947 299.108C266.585 298.756 266.946 298.06 266.88 297.336ZM255.637 295.164C254.238 296.126 252.324 295.783 251.363 294.383C251.125 294.04 250.963 293.658 250.877 293.258C250.354 290.838 251.401 288.352 253.495 287.028C254.876 286.056 256.78 286.38 257.751 287.761C257.998 288.114 258.169 288.514 258.255 288.933C258.779 291.353 257.732 293.849 255.637 295.164Z" fill="#37474F"/>
<path d="M237.55 301.956L243.623 298.451L244.851 306.624L237.55 301.956Z" fill="black"/>
<path d="M244.261 280.454L241.776 279.015L243.833 304.167C243.966 304.834 243.585 305.12 243.014 304.758L238.254 302.033C237.673 301.69 237.207 301.976 237.207 302.643V303.062C237.236 303.795 237.607 304.472 238.216 304.882L246.06 309.407C246.355 309.559 246.679 309.645 247.012 309.655L244.261 280.454Z" fill="#263238"/>
<path d="M255.637 295.163C254.39 296.03 252.695 295.849 251.658 294.734C252.438 294.82 253.219 294.639 253.876 294.22C255.97 292.905 257.017 290.419 256.493 287.999C256.35 287.437 256.084 286.923 255.703 286.484C256.979 286.694 257.988 287.666 258.245 288.933C258.768 291.352 257.731 293.848 255.637 295.163Z" fill="#263238"/>
<path d="M243.109 256.96L242.157 268.535C242.091 269.297 242.51 269.65 243.109 269.316C243.766 268.859 244.185 268.135 244.271 267.344L245.223 255.778C245.289 255.007 244.87 254.664 244.271 254.988C243.623 255.454 243.195 256.169 243.109 256.96Z" fill="#A0FFE7"/>
<path d="M246.86 254.797L245.908 266.363C245.841 267.125 246.26 267.478 246.86 267.154C247.517 266.687 247.936 265.972 248.021 265.172L248.973 253.606C249.04 252.844 248.621 252.491 248.021 252.825C247.364 253.292 246.945 254.006 246.86 254.797Z" fill="#A0FFE7"/>
<path d="M250.611 252.625L249.659 264.2C249.592 264.963 250.011 265.315 250.611 264.982C251.268 264.524 251.686 263.8 251.772 263.009L252.724 251.443C252.791 250.672 252.372 250.329 251.772 250.653C251.125 251.12 250.696 251.834 250.611 252.625Z" fill="#A0FFE7"/>
<path d="M254.362 250.462L253.41 262.028C253.352 262.79 253.762 263.143 254.362 262.819C255.018 262.352 255.437 261.638 255.523 260.837L256.475 249.271C256.542 248.509 256.123 248.157 255.523 248.49C254.866 248.957 254.447 249.671 254.362 250.462Z" fill="#A0FFE7"/>
<path d="M203.204 136.555C197.111 130.257 193.522 104.629 199.472 99.6273H229.735C235.684 104.62 232.105 130.248 226.012 136.545L225.841 136.717L225.632 136.926C225.46 137.098 225.27 137.269 225.08 137.422L224.937 137.536C224.784 137.66 224.642 137.774 224.48 137.888C224.223 138.069 223.966 138.241 223.69 138.403C218.673 141.328 210.543 141.328 205.526 138.403C205.25 138.251 204.993 138.069 204.727 137.888C204.46 137.707 204.441 137.669 204.298 137.555C204.156 137.441 204.175 137.469 204.118 137.412C204.06 137.355 203.756 137.098 203.584 136.936L203.347 136.698L203.204 136.555Z" fill="#407BFF"/>
<path d="M203.204 136.555C197.111 130.257 193.522 104.629 199.472 99.6273H229.735C235.684 104.62 232.105 130.248 226.012 136.545L225.841 136.717L225.632 136.926C225.46 137.098 225.27 137.269 225.08 137.422L224.937 137.536C224.784 137.66 224.642 137.774 224.48 137.888C224.223 138.069 223.966 138.241 223.69 138.403C218.673 141.328 210.543 141.328 205.526 138.403C205.25 138.251 204.993 138.069 204.727 137.888C204.46 137.707 204.441 137.669 204.298 137.555C204.156 137.441 204.175 137.469 204.118 137.412C204.06 137.355 203.756 137.098 203.584 136.936L203.347 136.698L203.204 136.555Z" fill="#918ADF"/>
<path d="M227.107 97.6174C234.009 101.657 234.009 108.193 227.107 112.232C220.206 116.272 209.02 116.262 202.099 112.232C195.179 108.202 195.198 101.657 202.099 97.6174C209.001 93.5779 220.206 93.616 227.107 97.6174Z" fill="#407BFF"/>
<path d="M227.107 97.6174C234.009 101.657 234.009 108.193 227.107 112.232C220.206 116.272 209.02 116.262 202.099 112.232C195.179 108.202 195.198 101.657 202.099 97.6174C209.001 93.5779 220.206 93.616 227.107 97.6174Z" fill="#D0CDF1"/>
<path d="M223.785 99.5608C228.859 102.524 228.859 107.325 223.785 110.288C218.711 113.251 210.457 113.251 205.422 110.288C200.386 107.325 200.348 102.524 205.422 99.5608C210.495 96.5978 218.72 96.5978 223.785 99.5608Z" fill="#918ADF"/>
<path d="M205.421 104.648C210.495 101.685 218.749 101.685 223.785 104.648C225.022 105.334 226.06 106.315 226.821 107.506C226.069 108.697 225.022 109.688 223.785 110.364C218.72 113.327 210.457 113.327 205.421 110.364C204.184 109.678 203.146 108.697 202.385 107.506C203.146 106.325 204.193 105.343 205.421 104.648Z" fill="#F5F5F5"/>
<path d="M231.381 54.9261L219.282 63.2052L230.705 58.8703C230.61 61.9381 229.829 64.9391 228.44 67.6735C228.44 67.6735 220.881 71.3414 216.778 75.2095L226.84 72.0464C226.726 75.7906 226.174 79.5158 225.213 83.1361C224.346 86.3372 221.405 92.2917 219.596 95.369C218.768 96.7981 217.835 98.1605 216.826 99.4657C216.769 99.5515 216.702 99.6277 216.635 99.7134C214.732 98.4654 212.828 97.2363 210.809 96.0454C209.639 93.073 208.363 85.8513 208.125 79.9921C207.249 57.5556 224.965 45.9895 238.787 42.6646C235.608 46.2849 233.104 50.4292 231.381 54.9261Z" fill="#407BFF"/>
<path d="M231.381 54.9261L219.282 63.2052L230.705 58.8703C230.61 61.9381 229.829 64.9391 228.44 67.6735C228.44 67.6735 220.881 71.3414 216.778 75.2095L226.84 72.0464C226.726 75.7906 226.174 79.5158 225.213 83.1361C224.346 86.3372 221.405 92.2917 219.596 95.369C218.768 96.7981 217.835 98.1605 216.826 99.4657C216.769 99.5515 216.702 99.6277 216.635 99.7134C214.732 98.4654 212.828 97.2363 210.809 96.0454C209.639 93.073 208.363 85.8513 208.125 79.9921C207.249 57.5556 224.965 45.9895 238.787 42.6646C235.608 46.2849 233.104 50.4292 231.381 54.9261Z" fill="#21905C"/>
<path d="M221.728 55.1738C220.5 56.2789 219.443 57.5651 218.587 58.9846C217.739 60.4042 216.997 61.8809 216.369 63.4053C215.122 66.454 214.217 69.636 213.656 72.8848C212.475 79.3824 212.837 86.0609 214.722 92.387C214.75 92.568 214.627 92.73 214.446 92.749C214.312 92.7681 214.179 92.7014 214.113 92.5775C212.304 86.1467 212.047 79.3824 213.351 72.8277C213.951 69.5598 214.912 66.3587 216.207 63.3005C216.854 61.7761 217.625 60.3089 218.501 58.8989C219.386 57.5079 220.481 56.2599 221.728 55.1738Z" fill="#FAFAFA"/>
<path d="M177.739 61.5665C181.908 67.0828 185.745 72.8372 189.219 78.8107L200.814 81.0496L192.18 82.2882L196.568 89.7384L207.992 92.4727L198.996 93.6541C198.996 93.6541 201.214 102.476 207.506 106.316C210.981 108.44 212.704 108.802 213.799 107.821C214.56 107.135 214.865 102.943 215.598 99.2466C216.331 95.55 216.55 89.4431 213.266 81.9833C212.371 79.9921 211.19 78.1343 209.762 76.4766C201.585 66.7493 185.697 61.6999 177.739 61.5665Z" fill="#407BFF"/>
<path d="M177.739 61.5665C181.908 67.0828 185.745 72.8372 189.219 78.8107L200.814 81.0496L192.18 82.2882L196.568 89.7384L207.992 92.4727L198.996 93.6541C198.996 93.6541 201.214 102.476 207.506 106.316C210.981 108.44 212.704 108.802 213.799 107.821C214.56 107.135 214.865 102.943 215.598 99.2466C216.331 95.55 216.55 89.4431 213.266 81.9833C212.371 79.9921 211.19 78.1343 209.762 76.4766C201.585 66.7493 185.697 61.6999 177.739 61.5665Z" fill="#29B473"/>
<path opacity="0.1" d="M210.829 85.7942C212.085 88.9001 212.885 92.1774 213.208 95.5119C213.446 99.7229 213.427 103.953 213.151 108.164C213.389 108.088 213.618 107.954 213.808 107.792C214.57 107.107 214.874 102.915 215.607 99.218C216.34 95.5215 216.559 89.4145 213.275 81.9547C212.38 79.9635 211.2 78.1057 209.772 76.448C201.576 66.7303 185.688 61.6809 177.758 61.5475C189.867 63.9198 202.699 72.418 208.868 82.0405C209.629 83.2314 210.286 84.489 210.829 85.7942Z" fill="black"/>
<path d="M189.848 65.7585C195.893 68.5119 201.3 72.4942 205.707 77.4674C207.906 79.9731 209.696 82.8122 211.01 85.8799C212.285 88.9477 213.037 92.206 213.247 95.5215C212.733 92.2822 211.8 89.1192 210.476 86.1086C209.163 83.1075 207.449 80.3065 205.383 77.7628C203.28 75.2381 200.89 72.9706 198.253 70.9985C195.626 69.0168 192.818 67.2733 189.886 65.7871C189.886 65.7871 189.829 65.7585 189.848 65.7585Z" fill="#FAFAFA"/>
<path d="M250.087 69.8457C249.107 69.7885 248.136 69.7885 247.155 69.8457C243.3 70.0648 239.492 70.7698 235.808 71.9226C234.437 72.3513 233.066 72.8753 231.714 73.3993C231.029 73.6756 230.363 73.971 229.696 74.2854C226.403 75.7811 223.375 77.8199 220.748 80.3065C219.529 81.4974 218.454 82.8408 217.568 84.2984L217.216 84.8606C216.94 85.356 216.693 85.8133 216.445 86.3277C214.208 90.5292 213.085 95.2261 213.161 99.9897C213.094 103.343 214.018 107.221 214.636 107.888C214.722 107.974 214.808 108.05 214.912 108.116C215.864 108.783 217.368 108.507 220.281 107.078C226.136 104.22 228.849 96.3027 228.849 96.3027L221.043 94.5211L231.277 93.0635L235.741 86.8708L228.192 85.0416L238.53 84.0888C242.081 79.1252 245.918 74.3806 250.03 69.8743L250.087 69.8457Z" fill="#145A3A"/>
<path opacity="0.1" d="M247.117 69.798C243.271 70.0362 239.473 70.7507 235.808 71.9226C234.437 72.3513 233.066 72.8753 231.714 73.3993C231.029 73.6756 230.363 73.9709 229.696 74.2853C226.403 75.7811 223.375 77.8199 220.748 80.3065C219.529 81.4974 218.454 82.8407 217.568 84.2984L217.216 84.8605C216.94 85.3559 216.693 85.8132 216.445 86.3277C214.208 90.5292 213.085 95.2261 213.161 99.9897C213.094 103.343 214.018 107.221 214.636 107.888C214.722 107.973 214.808 108.05 214.912 108.116C215.093 108.25 215.303 108.336 215.522 108.383C215.112 103.162 218.378 90.1576 222.538 84.9653C226.869 79.5634 236.817 71.9416 250.078 69.8456C249.097 69.7694 248.107 69.7599 247.117 69.798Z" fill="black"/>
<path d="M215.446 108.393C215.407 104.534 215.874 100.695 216.826 96.9601C217.73 93.1968 219.206 89.6051 221.224 86.2991C222.29 84.6795 223.547 83.1837 224.946 81.8404C226.326 80.4875 227.811 79.249 229.392 78.1343C232.543 75.8954 235.979 74.0853 239.616 72.7705C236.15 74.3806 232.857 76.3337 229.782 78.6107C228.249 79.7349 226.783 80.9544 225.393 82.2596C223.994 83.5362 222.737 84.9749 221.662 86.5373C219.625 89.7766 218.092 93.3112 217.14 97.0172C216.112 100.714 215.569 104.525 215.522 108.355L215.446 108.393Z" fill="#FAFAFA"/>
<path d="M304.605 188.221H314.267L312.715 197.652C312.592 198.167 312.239 198.595 311.764 198.824C310.298 199.567 308.556 199.567 307.09 198.824C306.614 198.595 306.262 198.167 306.138 197.652L304.605 188.221Z" fill="#FAFAFA"/>
<path d="M357.658 159.773H367.319L365.777 169.204C365.644 169.709 365.301 170.138 364.825 170.366C363.36 171.109 361.618 171.109 360.152 170.366C359.676 170.138 359.324 169.718 359.2 169.204L357.658 159.773Z" fill="#FAFAFA"/>
<path d="M233.028 148.102H242.69L241.148 157.533C241.024 158.048 240.672 158.476 240.196 158.695C238.73 159.448 236.988 159.448 235.522 158.695C235.046 158.476 234.694 158.048 234.57 157.533L233.028 148.102Z" fill="#FAFAFA"/>
<path d="M282.178 119.492H291.839L290.297 128.923C290.173 129.438 289.821 129.866 289.345 130.085C287.879 130.828 286.137 130.828 284.672 130.085C284.196 129.866 283.843 129.438 283.72 128.923L282.178 119.492Z" fill="#FAFAFA"/>
<path d="M225.335 98.532V143.577C225.507 146.883 227.239 149.912 230 151.732L233.808 153.942H233.874C235.693 154.828 237.72 155.171 239.729 154.943L297.084 185.315C297.37 188.478 299.064 191.346 301.71 193.108H301.758L305.566 195.3C305.68 195.376 305.794 195.443 305.918 195.49L306.118 195.586H306.175C308.479 196.548 311.049 196.662 313.439 195.919C313.715 195.833 313.991 195.738 314.257 195.624C314.295 195.605 314.333 195.586 314.381 195.566C314.571 195.481 314.752 195.385 314.933 195.281L370.146 163.479C372.907 161.669 374.639 158.658 374.83 155.362L374.906 98.3415V76.7052C374.716 73.4088 372.974 70.3982 370.222 68.5786L308.498 32.985C305.642 31.5368 302.263 31.594 299.454 33.1374L295.647 35.3382C292.829 37.1865 290.887 40.1018 290.249 43.4172L286.574 67.5496L283.176 65.587C280.025 63.7578 276.132 63.7578 272.981 65.587L230 90.4149C227.249 92.2346 225.516 95.2452 225.335 98.532Z" fill="#37474F"/>
<path d="M295.638 35.3382L299.446 33.1374C302.254 31.594 305.634 31.5368 308.489 32.985L370.204 68.5786C370.48 68.7405 370.776 68.9501 370.69 68.8834C372.946 70.5888 374.441 73.1135 374.84 75.9145C374.498 73.5137 372.546 72.6467 370.214 74.0091L366.406 76.2194C363.465 77.7151 359.98 77.7151 357.039 76.2194L295.648 40.7782C293.049 39.311 293.049 36.834 295.638 35.3382Z" fill="#455A64"/>
<path d="M225.336 98.532V143.577C225.508 146.883 227.24 149.912 230.001 151.732L233.809 153.942H233.875C235.57 154.8 237.474 155.162 239.368 154.981C240.701 154.904 241.996 154.533 243.176 153.904L286.566 128.867C289.327 127.056 291.069 124.036 291.25 120.74V75.6763C291.069 72.3799 289.327 69.3598 286.566 67.5496L283.167 65.587C280.016 63.7578 276.123 63.7578 272.972 65.587L230.001 90.4149C227.25 92.2346 225.517 95.2451 225.336 98.532Z" fill="#263238"/>
<path d="M283.158 65.587L286.566 67.5496C289.146 69.0359 289.146 71.4748 286.566 72.9611L243.195 98.0271C240.425 99.8373 238.683 102.848 238.502 106.154V151.189C238.502 154.171 236.389 155.39 233.809 153.904L230.001 151.694C227.24 149.884 225.508 146.873 225.317 143.577V98.5321C225.508 95.2356 227.25 92.2251 230.001 90.4054L272.972 65.6347C276.113 63.7959 279.997 63.7769 283.158 65.587Z" fill="#455A64"/>
<path d="M238.502 106.154V151.189C238.502 154.171 236.389 155.39 233.809 153.904L230.001 151.694C227.24 149.884 225.508 146.873 225.317 143.577V98.5321C225.374 96.9029 225.85 95.3119 226.698 93.9114L239.882 101.533C239.035 102.934 238.559 104.525 238.502 106.154Z" fill="#37474F"/>
<path d="M240.453 154.981C240.901 155.914 241.481 156.781 242.167 157.553C243.49 158.772 244.975 159.811 246.574 160.64C263.052 170.167 274.942 177.008 291.421 186.535C292.896 187.278 294.629 187.278 296.104 186.535L311.335 177.722L341.798 160.116C346.091 157.839 347.738 152.504 345.463 148.207C344.635 146.644 343.359 145.368 341.798 144.539L324.529 134.583L311.345 126.961L297.018 118.711C294.077 117.215 290.583 117.215 287.641 118.711L244.28 143.748C241.567 145.444 239.825 148.34 239.587 151.532C239.625 152.732 239.92 153.914 240.453 154.981Z" fill="#263238"/>
<path d="M291.421 176.379L241.919 147.797C240.634 147.054 239.578 147.664 239.578 149.16V153.923C239.673 155.571 240.539 157.077 241.919 157.982L291.421 186.563C292.716 187.306 293.763 186.697 293.763 185.21V180.447C293.677 178.799 292.811 177.284 291.421 176.379Z" fill="#37474F"/>
<path d="M297.018 95.4548L341.826 121.312C344.597 123.122 346.329 126.132 346.51 129.438V138.965C346.329 142.262 344.587 145.272 341.826 147.083L298.446 172.111C295.505 173.606 292.02 173.606 289.079 172.111L244.271 146.244C241.51 144.434 239.768 141.423 239.587 138.127V128.6C239.768 125.303 241.51 122.283 244.271 120.473L287.651 95.4167C290.602 93.9399 294.077 93.9495 297.018 95.4548Z" fill="#37474F"/>
<path d="M293.763 152.904V173.235C295.391 173.263 297.009 172.873 298.446 172.101L341.827 147.044C344.587 145.234 346.33 142.224 346.51 138.927V129.4C346.339 126.294 344.797 123.436 342.303 121.578C344.397 123.084 344.207 125.294 341.827 126.694L298.446 151.751C297.009 152.532 295.4 152.932 293.763 152.904Z" fill="#263238"/>
<path d="M289.117 151.789L244.309 125.923C241.729 124.427 241.729 122.007 244.309 120.511L287.689 95.4547C290.631 93.959 294.115 93.959 297.056 95.4547L341.865 121.312C344.454 122.807 344.454 125.237 341.865 126.733L298.484 151.789C295.543 153.285 292.059 153.285 289.117 151.789Z" fill="#455A64"/>
<path d="M257.084 154.257C257.084 154.257 260.701 165.842 260.568 170.281C260.416 174.912 261.406 176.531 260.197 181.476C259.94 182.552 259.178 184.686 258.969 185.563C258.721 186.239 259.074 186.992 259.749 187.23C259.835 187.259 259.921 187.278 260.006 187.297C261.968 187.878 265.604 184.439 267.527 180.447C269.536 175.874 271.259 171.177 272.696 166.385C272.867 165.28 272.744 164.146 272.334 163.107C272.134 162.498 271.868 161.907 271.554 161.354C271.059 159.296 271.068 155.457 270.735 152.78L257.084 154.257Z" fill="#B16668"/>
<path d="M276.247 170.91C276.466 171.406 276.609 171.93 276.656 172.463C276.656 173.416 274.295 176.274 273.391 177.274C272.134 178.675 271.449 180.494 271.487 182.381C271.211 185.391 269.878 188.202 267.727 190.317C264.852 193.251 261.158 195.243 257.132 196.033C252.162 197.119 250.658 194.547 250.658 194.547C250.658 194.547 249.345 192.08 250.335 191.194C251.325 190.307 276.247 170.91 276.247 170.91Z" fill="#2D2D2D"/>
<path d="M271.554 161.354C271.706 161.354 271.963 161.354 272.306 161.84C272.439 162.021 273.134 164.279 273.772 165.489C274.41 166.699 276.152 169.033 276.247 170.91C274.819 174.407 271.24 176.626 270.45 179.98C269.659 183.334 269.26 187.268 263.7 190.984C258.141 194.7 252.743 194.68 250.906 193.413C249.069 192.146 249.421 190.098 252.439 186.392C255.637 182.457 258.322 173.568 258.322 173.568C258.674 172.32 258.95 171.044 259.15 169.757C259.245 168.49 259.245 167.214 259.15 165.946C259.102 165.356 259.236 164.756 259.54 164.241C259.95 163.803 260.473 163.498 261.054 163.365C261.949 163.041 262.872 162.812 263.814 162.688C264.766 162.564 265.728 162.764 266.547 163.25C267.07 163.689 267.613 164.108 268.174 164.498C269.012 164.918 270.021 164.822 270.773 164.26C271.525 163.765 271.887 162.841 271.668 161.964C271.64 161.764 271.601 161.554 271.554 161.354Z" fill="#134461"/>
<path d="M267.032 187.935C265.699 185.125 262.919 183.295 259.816 183.172C254.276 182.733 252.124 185.391 251.144 186.982C249.973 188.888 248.631 192.365 250.83 193.585C253.2 194.9 256.084 194.804 260.777 192.927C265.471 191.051 267.032 187.935 267.032 187.935Z" fill="#FAFAFA"/>
<path d="M267.422 171.139C267.25 171.196 267.069 171.186 266.917 171.091C266.099 170.586 261.653 169.252 258.817 171.482C258.493 171.177 258.607 170.681 259.102 170.014C262.358 168.309 266.565 169.548 267.555 170.167C267.802 170.329 267.879 170.653 267.717 170.9C267.717 170.91 267.707 170.91 267.707 170.92C267.641 171.024 267.536 171.1 267.422 171.139Z" fill="#FAFAFA"/>
<path d="M257.969 174.664C257.874 174.121 258.045 173.568 258.426 173.168C261.044 172.196 263.937 172.32 266.46 173.521C266.707 173.682 266.784 174.006 266.622 174.254C266.622 174.264 266.612 174.264 266.612 174.273C266.441 174.53 266.098 174.607 265.832 174.445C265.032 173.959 260.815 172.692 257.969 174.664Z" fill="#FAFAFA"/>
<path d="M255.085 181.962C255.142 181.228 255.456 180.542 255.961 180.009C259.188 178.418 263.3 179.627 264.28 180.228C264.528 180.39 264.604 180.723 264.442 180.98L264.432 180.99C264.356 181.085 264.261 181.161 264.147 181.209C263.976 181.266 263.795 181.257 263.642 181.161C262.786 180.628 257.883 179.18 255.085 181.962Z" fill="#FAFAFA"/>
<path d="M265.241 177.846C265.08 177.932 264.899 177.932 264.737 177.846C263.928 177.341 259.578 176.045 256.732 178.16C256.665 177.56 256.893 176.969 257.331 176.56C259.949 175.588 262.843 175.712 265.365 176.912C265.613 177.093 265.66 177.446 265.47 177.684C265.413 177.76 265.327 177.827 265.241 177.865V177.846Z" fill="#FAFAFA"/>
<path d="M251.039 167.595C251.039 167.595 247.621 181.076 244.661 186.163C241.7 191.251 240.187 193.709 236.379 197.424C235.551 198.234 233.694 199.711 233.018 200.368C232.438 200.854 232.352 201.712 232.838 202.302C232.895 202.369 232.952 202.426 233.018 202.483C234.437 204.093 240.948 204.989 244.842 202.55C248.735 200.111 252.572 194.538 254.942 192.508C255.837 191.746 256.674 190.965 257.493 190.126C258.312 189.288 258.15 188.469 258.293 187.506C258.359 187.03 258.398 185.744 258.398 185.744C259.092 183.486 260.758 180.028 261.663 177.808L251.039 167.595Z" fill="#B16668"/>
<path d="M258.75 196.176C258.74 196.738 258.636 197.3 258.436 197.834C257.998 198.691 254.523 200.349 253.2 200.921C251.391 201.683 249.944 203.102 249.135 204.894C247.536 207.618 245.013 209.676 242.034 210.715C238.007 212.22 233.618 212.458 229.449 211.401C224.261 210.2 223.994 207.094 223.994 207.094C223.994 207.094 223.851 204.179 225.184 203.779C226.517 203.379 258.75 196.176 258.75 196.176Z" fill="#2D2D2D"/>
<path d="M258.569 185.077C258.712 185.153 258.969 185.258 259.074 185.868C259.074 186.106 258.769 188.554 258.836 189.974C258.902 191.394 259.502 194.395 258.75 196.214C255.837 198.891 251.458 199.387 249.23 202.207C247.003 205.027 244.861 208.581 237.931 209.61C231.001 210.639 225.917 208.2 224.746 206.189C223.575 204.179 224.813 202.378 229.325 200.225C234.085 197.929 240.615 190.698 240.625 190.698C241.52 189.679 242.348 188.593 243.1 187.468C243.747 186.297 244.318 185.077 244.785 183.819C245.004 183.238 245.394 182.733 245.908 182.381C246.489 182.143 247.127 182.095 247.736 182.238C248.726 182.324 249.706 182.524 250.649 182.819C251.601 183.134 252.42 183.753 252.981 184.582C253.352 185.191 253.533 185.915 253.933 186.487C254.542 187.268 255.532 187.63 256.503 187.44C257.455 187.325 258.217 186.611 258.407 185.668C258.474 185.477 258.531 185.277 258.569 185.077Z" fill="#134461"/>
<path d="M242.472 208.152C242.453 204.913 240.635 201.94 237.76 200.454C232.714 197.548 229.497 199.101 227.859 200.168C225.908 201.435 223.1 204.131 224.613 206.275C226.27 208.581 229.049 209.772 234.323 210.086C239.597 210.4 242.472 208.152 242.472 208.152Z" fill="#FAFAFA"/>
<path d="M250.296 192.451C250.115 192.432 249.944 192.336 249.839 192.184C249.297 191.336 245.679 188.088 241.996 188.926C241.834 188.497 242.157 188.078 242.947 187.668C246.755 187.516 250.21 190.526 250.877 191.584C251.038 191.841 250.962 192.184 250.705 192.346C250.696 192.355 250.686 192.355 250.677 192.365C250.563 192.441 250.429 192.47 250.296 192.451Z" fill="#FAFAFA"/>
<path d="M239.787 191.555C239.93 191.003 240.339 190.555 240.872 190.346C243.785 190.603 246.469 192.013 248.325 194.27C248.487 194.528 248.411 194.871 248.154 195.033C248.145 195.042 248.135 195.042 248.126 195.052C247.849 195.223 247.488 195.137 247.307 194.871C246.783 194.051 243.347 190.974 239.787 191.555Z" fill="#FAFAFA"/>
<path d="M233.79 197.176C234.18 196.51 234.78 195.995 235.493 195.719C239.301 195.662 242.613 198.644 243.261 199.653C243.423 199.911 243.356 200.254 243.099 200.415C243.089 200.425 243.08 200.425 243.07 200.435C242.956 200.501 242.832 200.52 242.709 200.511C242.518 200.501 242.356 200.406 242.252 200.244C241.671 199.368 237.711 195.786 233.79 197.176Z" fill="#FAFAFA"/>
<path d="M245.241 197.824C245.051 197.815 244.879 197.719 244.784 197.557C244.242 196.719 240.701 193.547 237.064 194.28C237.274 193.69 237.75 193.232 238.34 193.032C241.253 193.289 243.937 194.709 245.793 196.957C245.965 197.214 245.888 197.567 245.622 197.738C245.612 197.748 245.603 197.748 245.603 197.748C245.489 197.815 245.365 197.843 245.241 197.824Z" fill="#FAFAFA"/>
<path d="M287.689 92.3203C281.74 95.9502 261.292 105.573 252.762 112.242C250.297 114.147 249.307 116.891 249.354 123.017C249.421 131.334 253.533 159.992 253.533 159.992C254.295 161.659 256.113 158.772 256.113 158.772L290.317 122.131L287.689 92.3203Z" fill="#407BFF"/>
<path d="M287.689 92.3203C281.74 95.9502 261.292 105.573 252.762 112.242C250.297 114.147 249.307 116.891 249.354 123.017C249.421 131.334 253.533 159.992 253.533 159.992C254.295 161.659 256.113 158.772 256.113 158.772L290.317 122.131L287.689 92.3203Z" fill="#305AA6"/>
<path d="M255.609 151.351C263.224 145.977 289.431 111.46 289.431 111.46C286.509 108.536 285.624 99.1799 285.624 99.1799C284.081 102.629 284.938 108.107 285.747 110.146C283.796 111.565 272.81 119.158 265.195 124.208C262.882 125.523 261.178 127.695 260.435 130.248C258.331 137.851 255.58 149.769 255.609 151.351Z" fill="#16346F"/>
<path d="M287.689 92.3203L326.719 104.487C324.168 111.632 323.292 115.357 320.941 119.035C318.59 122.712 315.981 126.656 305.215 130.867C294.839 134.935 282.244 138.965 279.712 139.918C277.808 140.633 276.628 144.234 275.39 148.921C274.105 153.837 273.696 157.744 267.879 167.795C262.168 177.646 261.016 179.78 261.016 179.78C261.016 179.78 253.476 179.923 248.878 175.14C248.878 175.14 258.607 140.547 260.587 134.335C261.692 130.867 261.863 129.01 266.575 125.494C270.621 122.474 288.47 111.203 288.47 111.203C288.47 111.203 282.568 101.638 287.689 92.3203Z" fill="#407BFF"/>
<path d="M287.689 92.3203L326.719 104.487C324.168 111.632 323.292 115.357 320.941 119.035C318.59 122.712 315.981 126.656 305.215 130.867C294.839 134.935 282.244 138.965 279.712 139.918C277.808 140.633 276.628 144.234 275.39 148.921C274.105 153.837 273.696 157.744 267.879 167.795C262.168 177.646 261.016 179.78 261.016 179.78C261.016 179.78 253.476 179.923 248.878 175.14C248.878 175.14 258.607 140.547 260.587 134.335C261.692 130.867 261.863 129.01 266.575 125.494C270.621 122.474 288.47 111.203 288.47 111.203C288.47 111.203 282.568 101.638 287.689 92.3203Z" fill="#305AA6"/>
<path d="M289.717 38.3583C288.965 37.9105 288.631 32.8897 289.431 29.3075C290.231 25.7252 288.574 24.8487 287.756 25.9729C287.28 26.5922 286.937 27.3068 286.747 28.0594C284.995 28.45 283.386 29.317 282.082 30.546C280.073 32.5372 277.712 34.9666 278.407 40.2733C278.626 42.0358 278.503 43.8269 278.046 45.5513C275.19 53.3446 265.042 63.1004 262.757 73.4946C260.644 83.0218 268.098 83.9745 274.609 81.1163C282.091 77.7532 296.428 65.0154 296.428 65.0154L302.644 44.1413C298.694 44.1413 295.752 44.7796 290.507 49.8576C289.631 50.7055 285.985 53.8209 285.985 53.8209C286.994 51.2676 288.241 48.8192 289.717 46.5041" fill="#B16668"/>
<path d="M280.692 67.521C279.626 69.9312 278.351 72.2366 276.885 74.4277C279.017 73.0178 280.711 71.0363 281.768 68.7118L280.692 67.521Z" fill="#9A4A4D"/>
<path d="M303.501 44.1318C299.217 43.7317 295.752 44.3986 292.392 47.6473C289.298 50.6484 285.985 53.8114 285.985 53.8114C283.767 58.9752 282.177 63.9865 280.692 67.521C281.425 70.2934 282.787 72.8563 284.672 75.0189L302.035 61.0616L303.501 44.1318Z" fill="#628CE0"/>
<path d="M287.451 44.1408C288.65 42.2355 286.889 40.3874 286.889 40.3874L289.745 38.4821V38.3583L278.322 37.8439C278.284 38.6631 278.322 39.4824 278.427 40.2921C278.512 41.1114 278.541 41.9402 278.512 42.769L279.997 43.655C280.331 43.836 280.73 43.836 281.063 43.655L285.87 41.1686C287.517 41.864 287.451 44.1408 287.451 44.1408Z" fill="#9A4A4D"/>
<path d="M278.237 28.2214L298.228 18.7799C298.57 18.5798 299.008 18.5798 299.351 18.7799C299.598 18.9419 300.626 19.5802 300.912 19.7326C301.236 19.9327 301.436 20.3043 301.417 20.6854L302.064 31.0414C302.064 31.9941 301.54 32.8706 300.693 33.3089L280.702 42.7503C280.369 42.9123 279.979 42.9123 279.645 42.7503C279.36 42.5884 278.246 41.9024 277.951 41.7119C277.675 41.5023 277.513 41.1783 277.513 40.8354C277.351 38.2344 277.028 33.0802 276.866 30.4793C276.866 29.5361 277.389 28.6596 278.237 28.2214Z" fill="#37474F"/>
<path d="M300.683 31.2796C300.655 31.7464 300.398 32.1752 299.998 32.4133L281.083 41.3594V41.8167L280.312 30.7937C280.331 30.3269 280.588 29.9077 280.987 29.679L300.331 20.5043L299.912 20.7044L300.683 31.2796Z" fill="#407BFF"/>
<path opacity="0.75" d="M300.683 31.2796C300.655 31.7464 300.398 32.1752 299.998 32.4133L281.083 41.3594V41.8167L280.312 30.7937C280.331 30.3269 280.588 29.9077 280.987 29.679L300.331 20.5043L299.912 20.7044L300.683 31.2796Z" fill="white"/>
<path d="M301.15 31.5368C301.121 32.0037 300.864 32.4229 300.465 32.661L281.111 41.8167V41.3594L300.027 32.4133C300.426 32.1751 300.683 31.7464 300.712 31.2796L299.969 20.7139L300.388 20.5139L301.15 31.5368Z" fill="#263238"/>
<path d="M279.702 42.7884H279.645C279.36 42.6265 278.246 41.9405 277.951 41.75C277.675 41.5404 277.513 41.2165 277.513 40.8735C277.351 38.2726 277.027 33.1184 276.865 30.5174C276.856 29.8601 277.113 29.2313 277.56 28.7644L279.188 29.7171C278.731 30.184 278.474 30.8223 278.484 31.4797L279.131 41.8453C279.131 42.2454 279.35 42.6074 279.702 42.7884Z" fill="#263238"/>
<path d="M300.921 19.7326C300.598 19.5802 300.217 19.5802 299.893 19.7326L279.902 29.1836C279.645 29.2979 279.417 29.4694 279.226 29.679L277.589 28.7263C277.779 28.5167 278.017 28.3357 278.274 28.2118L298.265 18.7704C298.608 18.5798 299.036 18.5798 299.379 18.7704C299.589 18.9419 300.54 19.5326 300.921 19.7326Z" fill="#455A64"/>
<path opacity="0.35" d="M279.864 35.786C279.616 35.9193 279.464 36.1765 279.474 36.4623C279.464 36.6243 279.578 36.7577 279.74 36.7672C279.807 36.7767 279.873 36.7577 279.921 36.7196C280.169 36.5862 280.311 36.3194 280.311 36.0432C280.321 35.8812 280.207 35.7478 280.045 35.7383C279.988 35.7383 279.921 35.7479 279.864 35.786Z" fill="black"/>
<path d="M290.069 38.3579C290.669 37.8626 290.888 36.3098 291.906 34.9094C293.087 33.2994 295.809 33.7186 294.962 35.0237C294.115 36.3288 293.82 37.5101 293.201 40.8348C292.582 44.1596 291.25 44.6454 289.765 46.5507V38.5389L290.069 38.3579Z" fill="#B16668"/>
<path d="M317.59 45.7228C320.874 46.5898 331.488 50.7818 331.488 50.7818C333.773 52.5729 332.812 56.4981 332.774 61.0044C331.888 93.6827 326.234 108.24 326.234 108.24C313.458 111.041 290.126 102.915 285.785 93.1587C289.688 87.2233 292.316 78.3535 292.868 60.9378C293.277 48.0094 299.151 44.1032 302.958 44.1318C307.88 44.0841 312.792 44.6177 317.59 45.7228Z" fill="#EBEBEB"/>
<path d="M301.312 18.8371C301.502 18.0844 301.502 17.3032 301.312 16.5505C301.083 15.7407 300.779 14.9595 300.579 14.1497C300.322 13.0541 300.027 11.9584 299.703 10.8819C299.113 9.39563 298.751 7.82364 298.637 6.2326C298.608 5.4609 298.894 4.71778 299.427 4.1652C300.207 3.52688 301.264 3.35539 302.207 3.69837C303.13 4.05088 303.987 4.56535 304.729 5.2132C304.672 4.04135 305.005 2.88856 305.681 1.92632C306.395 0.973597 307.595 0.516291 308.756 0.763998C309.822 1.05934 310.555 2.02159 311.412 2.7266C312.973 4.01277 315.029 4.47008 316.99 4.97502C319.037 5.34658 320.969 6.16591 322.654 7.38539C324.692 9.00501 325.92 11.444 326.005 14.0544C326.005 15.0071 325.605 17.3604 325.453 18.6179C325.215 20.5234 325.015 22.4288 324.711 24.2676C323.149 33.7948 320.037 40.7115 310.431 40.0065C306.776 39.7302 301.673 37.4627 300.721 33.4804C300.607 32.7944 300.55 32.0894 300.541 31.3939C300.445 29.9934 300.407 28.5357 300.436 27.1829C300.493 24.3819 300.788 21.5904 301.312 18.8371Z" fill="#263238"/>
<path d="M326.043 14.083C326.043 14.083 327.89 14.1497 328.899 16.5601C329.746 18.6561 330.136 21.962 328.08 27.04C325.91 32.4229 324.206 34.1092 323.025 36.1099C322.178 37.5485 320.826 40.2542 320.826 40.2542L321.426 33.9282L321.969 29.5361C321.969 29.5361 319.265 28.9169 318.485 24.5248C317.599 19.5897 318.532 18.9705 318.532 18.9705L326.043 14.083Z" fill="#263238"/>
<path d="M321.74 29.0217C322.074 29.1741 322.464 29.1455 322.778 28.9454C323.654 28.431 324.063 27.3258 324.806 26.6589C325.758 25.7919 328.766 24.7535 329.994 27.8975C331.222 31.0414 328.138 35.1762 325.891 36.0337C322.588 37.2913 321.388 33.9663 321.388 33.9663L320.113 47.3043C316.305 53.135 312.221 53.6018 308.318 53.3255C304.415 53.0492 304.71 49.4194 307.214 46.9233L307.547 42.5789C305.767 42.7313 303.968 42.6932 302.197 42.4645C299.341 41.7976 297.961 39.5016 297.313 36.2814C296.666 32.5467 296.504 28.7454 296.856 24.9726C297.199 21.4857 297.942 18.0463 299.046 14.7213C299.046 14.7213 300.702 13.2161 305.51 13.1398C308.908 13.1398 313.192 12.854 314.972 14.9881C315.229 16.9221 316.609 18.5227 318.494 19.0467C317.466 25.8682 321.169 28.774 321.74 29.0217Z" fill="#B16668"/>
<path d="M315.096 15.5407C314.392 14.245 311.888 13.6352 310.441 13.8448C308.432 14.2736 306.471 14.8738 304.577 15.655C303.159 16.1409 301.674 16.3886 300.179 16.3886C298.742 16.4172 297.333 16.0551 296.086 15.3406C294.953 14.4641 294.267 13.1208 294.239 11.6822C294.21 10.2626 294.81 8.90022 295.886 7.96655C295.914 8.62393 296.276 9.22414 296.838 9.56712C297.399 9.89105 297.999 10.1292 298.637 10.2531C297.675 9.43374 297.218 8.1571 297.447 6.90903C297.818 5.48948 298.827 4.33669 300.179 3.77459C301.321 3.45066 302.645 3.10768 305.177 5.20367C307.709 7.29965 316.315 8.55724 315.096 15.5407Z" fill="#263238"/>
<path d="M307.547 42.5404C307.547 42.5404 314.124 41.7116 316.475 40.6351C317.856 40.0444 319.036 39.0442 319.845 37.7771C319.407 39.0823 318.703 40.2731 317.789 41.3019C315.98 43.3025 307.414 44.2361 307.414 44.2361L307.547 42.5404Z" fill="#9A4A4D"/>
<path d="M310.26 25.6966C310.231 26.4206 310.802 27.0207 311.516 27.0493C312.24 27.0779 312.839 26.5063 312.868 25.7918C312.887 25.0964 312.354 24.4962 311.659 24.4486C310.926 24.401 310.298 24.963 310.26 25.6966Z" fill="#263238"/>
<path d="M311.107 20.8758L313.868 22.381C314.268 21.5808 313.973 20.6091 313.192 20.1709C312.421 19.7898 311.498 20.1042 311.107 20.8758Z" fill="#263238"/>
<path d="M310.507 33.8424L304.919 35.5C305.291 37.0338 306.833 37.9769 308.365 37.6054C308.403 37.5958 308.441 37.5863 308.479 37.5768C310.05 37.0909 310.954 35.4333 310.507 33.8424Z" fill="#9A4A4D"/>
<path d="M308.48 37.5578C307.985 37.6912 307.461 37.6912 306.966 37.5578C307.119 36.1479 308.366 35.1095 309.774 35.2143C310.022 35.2334 310.269 35.281 310.507 35.3763C310.269 36.4147 309.498 37.2435 308.48 37.5578Z" fill="#F28F8F"/>
<path d="M298.637 21.2092L301.721 20.2565C301.521 19.4373 300.693 18.9324 299.874 19.1324C299.855 19.1324 299.836 19.142 299.817 19.142C298.922 19.3896 298.389 20.3137 298.637 21.2092Z" fill="#263238"/>
<path d="M299.588 24.8677C299.512 25.5917 300.036 26.2395 300.759 26.3157C300.769 26.3157 300.778 26.3157 300.788 26.3157C301.53 26.4015 302.197 25.8584 302.282 25.1154C302.368 24.3723 301.825 23.7055 301.083 23.6197C300.34 23.534 299.674 24.077 299.588 24.8201C299.588 24.8391 299.588 24.8582 299.588 24.8677Z" fill="#263238"/>
<path d="M306.394 23.353L305.452 32.1554L301.045 30.2787L306.394 23.353Z" fill="#9A4A4D"/>
<path d="M310.26 192.632V147.588C310.451 144.291 312.193 141.281 314.944 139.461L358.381 114.376C359.857 113.518 360.361 111.622 359.505 110.146C359.238 109.679 358.848 109.298 358.381 109.021L357.315 108.412L360.999 84.2794C361.637 80.9639 363.579 78.0486 366.397 76.2003L370.205 73.9995C372.784 72.5038 374.888 73.7232 374.888 76.7052V98.3796L374.793 155.409C374.612 158.706 372.87 161.716 370.109 163.527L314.896 195.338C312.374 196.824 310.26 195.605 310.26 192.632Z" fill="#263238"/>
<path d="M297.085 139.966V185.01C297.085 185.106 297.085 185.22 297.085 185.315C297.371 188.478 299.065 191.346 301.711 193.109H301.759L305.567 195.3C305.681 195.376 305.795 195.443 305.919 195.49L306.119 195.586H306.176C306.3 195.643 306.424 195.69 306.547 195.728C308.765 196.538 311.183 196.605 313.439 195.919C313.716 195.833 313.992 195.738 314.258 195.624C312.002 196.576 310.26 195.281 310.25 192.585V147.588C310.431 144.291 312.173 141.271 314.934 139.461L323.444 134.545L358.371 114.376C359.847 113.518 360.352 111.622 359.495 110.146C359.228 109.679 358.838 109.298 358.371 109.021L354.497 106.783C351.556 105.296 348.071 105.296 345.13 106.783L310.26 126.961L301.769 131.868C299.008 133.678 297.275 136.679 297.085 139.966Z" fill="#455A64"/>
<path d="M310.26 147.588V192.623C310.26 195.319 312.012 196.586 314.268 195.662C314.001 195.776 313.725 195.871 313.449 195.957C311.193 196.643 308.775 196.576 306.557 195.767C306.433 195.728 306.31 195.681 306.186 195.624H306.129L305.929 195.528C305.805 195.481 305.691 195.414 305.577 195.338L301.769 193.147H301.721C299.075 191.384 297.38 188.516 297.095 185.353C297.095 185.258 297.095 185.144 297.095 185.048V139.966C297.152 138.337 297.628 136.746 298.466 135.345L311.65 142.967C310.803 144.367 310.317 145.958 310.26 147.588Z" fill="#37474F"/>
<path d="M348.966 96.4741C347.7 86.5467 346.643 81.383 345.339 74.7235C342.303 59.2704 343.016 54.8307 331.85 51.9249C331.85 51.9249 327.804 55.4881 327.633 64.6342C327.509 71.5414 329.537 75.3428 329.537 75.3428L334.297 98.208C330.175 102.019 319.608 110.327 317.028 111.689C313.554 113.537 309.698 114.252 305.986 115.5C303.52 116.348 301.226 117.405 298.808 118.415C298.675 118.453 298.551 118.52 298.446 118.615C298.246 118.825 298.189 119.139 298.294 119.406C298.408 119.673 298.598 119.892 298.846 120.044C300.026 120.826 301.502 121.026 302.844 120.587C303.977 120.33 304.948 119.73 306.29 119.768C306.547 119.768 306.823 119.844 306.719 120.168C306.614 120.387 306.481 120.597 306.309 120.778C305.214 121.654 303.929 122.274 302.558 122.588C301.254 122.95 299.912 123.15 298.56 123.16C297.475 123.122 296.38 123.198 295.305 123.379C294.962 123.446 294.638 123.588 294.353 123.789C292.877 124.941 295.219 125.827 295.695 126.647C295.942 127.066 296.38 127.809 296.647 128.2C296.971 128.524 297.361 128.771 297.789 128.924C298.322 129.257 298.836 129.629 299.322 130.029C300.588 130.81 302.054 131.191 303.539 131.124C304.796 131.096 306.052 130.962 307.29 130.734C309.898 130.4 312.392 129.438 314.534 127.914C315.419 127.218 316.248 126.447 317.009 125.618C317.676 124.922 318.332 124.208 319.046 123.541C320.217 122.54 321.445 121.616 322.721 120.749C324.577 119.673 335.22 114.633 345.891 107.183C350.575 103.896 349.528 100.818 348.966 96.4741Z" fill="#B16668"/>
<path d="M331.488 50.7437C339.399 53.316 341.551 56.6601 342.303 59.1943C343.397 62.8432 344.206 67.0066 345.52 73.1707C347.424 82.393 347.767 86.0419 347.767 86.0419C347.767 86.0419 343.407 89.5765 332.079 89.4336L328.271 74.4378C328.271 74.4378 322.759 61.3188 331.488 50.7437Z" fill="#628CE0"/>
<path d="M343.035 200.053L349.099 196.548L343.035 194.795V200.053Z" fill="#407BFF"/>
<path opacity="0.6" d="M343.035 200.053L349.099 196.548L343.035 194.795V200.053Z" fill="white"/>
<path opacity="0.05" d="M343.035 200.053L349.099 196.548L343.035 194.795V200.053Z" fill="black"/>
<path d="M343.035 200.053L339.999 198.3V193.042L343.035 194.795V200.053Z" fill="#407BFF"/>
<path opacity="0.75" d="M343.035 200.053L339.999 198.3V193.042L343.035 194.795V200.053Z" fill="white"/>
<path d="M373.421 212.353V217.946L417.306 192.594V187.002L373.421 212.353Z" fill="#407BFF"/>
<path opacity="0.6" d="M373.421 212.353V217.946L417.306 192.594V187.002L373.421 212.353Z" fill="white"/>
<path opacity="0.1" d="M373.421 212.353V217.946L417.306 192.594V187.002L373.421 212.353Z" fill="black"/>
<path d="M373.421 217.945L370.385 216.192V210.6L373.421 212.353V217.945Z" fill="#407BFF"/>
<path opacity="0.75" d="M373.421 217.945L370.385 216.192V210.6L373.421 212.353V217.945Z" fill="white"/>
<path d="M420.343 143.186L376.449 168.538V214.106L420.343 188.755V143.186Z" fill="#407BFF"/>
<path opacity="0.6" d="M420.343 143.186L376.449 168.538V214.106L420.343 188.755V143.186Z" fill="white"/>
<path d="M376.449 168.538L336.962 145.72V191.289L376.449 214.106V168.538Z" fill="#407BFF"/>
<path opacity="0.75" d="M376.449 168.538L336.962 145.72V191.289L376.449 214.106V168.538Z" fill="white"/>
<path d="M336.962 145.72L380.856 120.368L420.343 143.186L376.449 168.538L336.962 145.72Z" fill="#407BFF"/>
<path opacity="0.85" d="M336.962 145.72L380.856 120.368L420.343 143.186L376.449 168.538L336.962 145.72Z" fill="white"/>
<path d="M373.421 184.315L339.999 165.003V189.536L373.421 208.847V184.315Z" fill="#407BFF"/>
<path opacity="0.7" d="M373.421 184.315L339.999 165.003V189.536L373.421 208.847V184.315Z" fill="white"/>
<path opacity="0.1" d="M339.999 189.536L361.084 177.189L373.421 184.315V208.847L339.999 189.536Z" fill="black"/>
<path opacity="0.05" d="M339.999 189.536L361.084 177.189L339.999 165.003V189.536Z" fill="black"/>
<path d="M373.421 170.291L339.999 150.979V161.497L373.421 180.809V170.291Z" fill="#407BFF"/>
<path opacity="0.85" d="M373.421 170.291L339.999 150.979V161.497L373.421 180.809V170.291Z" fill="white"/>
<path d="M363.054 166.517C363.054 167.003 361.607 166.517 359.827 165.565L354.164 162.212C352.374 161.183 350.927 159.954 350.927 159.468V158.591L363.054 165.603V166.517Z" fill="#455A64"/>
<g opacity="0.1">
<path opacity="0.1" d="M398.429 149.15C401.333 149.217 404.198 148.435 406.673 146.902C408.577 145.625 409.653 144.043 409.653 142.395C409.653 140.747 408.596 139.166 406.673 137.889C401.58 134.888 395.269 134.888 390.176 137.889C388.272 139.166 387.196 140.747 387.196 142.395C387.196 144.043 388.253 145.625 390.176 146.902C392.651 148.435 395.516 149.217 398.429 149.15Z" fill="black"/>
</g>
<path d="M391.052 141.852C391.052 141.662 391.071 141.462 391.109 141.271C391.585 139.118 392.86 137.212 394.669 135.955H402.123C403.932 137.212 405.207 139.118 405.683 141.271C405.721 141.462 405.74 141.662 405.74 141.862V141.957C405.55 143.215 404.75 144.282 403.598 144.815C400.333 146.473 396.478 146.473 393.213 144.815C392.061 144.282 391.261 143.215 391.071 141.957C391.061 141.928 391.052 141.89 391.052 141.852Z" fill="#37474F"/>
<path d="M401.922 135.831C403.874 136.965 403.874 138.784 401.922 139.918C399.704 141.042 397.077 141.042 394.859 139.918C392.956 138.784 392.956 136.965 394.859 135.831C397.077 134.707 399.704 134.707 401.922 135.831Z" fill="#455A64"/>
<path d="M397.382 110.965H399.41V137.098C399.429 137.298 399.305 137.479 399.124 137.555C398.677 137.784 398.134 137.784 397.687 137.555C397.506 137.479 397.382 137.298 397.401 137.098L397.382 110.965Z" fill="#263238"/>
<path d="M383.417 107.049L390.471 89.0522H406.33L413.384 107.049C414.384 109.907 413.004 112.908 409.224 115.099C403.246 118.548 393.565 118.548 387.587 115.099C383.798 112.908 382.408 109.869 383.417 107.049Z" fill="#2960CD"/>
<path d="M404.131 93.3588C400.523 95.188 396.268 95.188 392.66 93.3588C389.49 91.5296 389.49 88.5952 392.66 86.6897C396.268 84.8605 400.523 84.8605 404.131 86.6897C407.301 88.5571 407.301 91.5296 404.131 93.3588Z" fill="#407BFF"/>
<path opacity="0.3" d="M404.131 93.3588C400.523 95.188 396.268 95.188 392.66 93.3588C389.49 91.5296 389.49 88.5952 392.66 86.6897C396.268 84.8605 400.523 84.8605 404.131 86.6897C407.301 88.5571 407.301 91.5296 404.131 93.3588Z" fill="white"/>
<path d="M398.391 93.7969C400.228 93.835 402.046 93.4063 403.665 92.5489C404.893 91.8343 405.569 90.9483 405.569 90.0432C405.416 88.9286 404.693 87.9854 403.665 87.5471C400.352 85.8799 396.439 85.8799 393.127 87.5471C392.098 87.9854 391.375 88.9286 391.223 90.0432C391.223 90.9483 391.899 91.8343 393.127 92.5489C394.745 93.4063 396.563 93.835 398.391 93.7969Z" fill="#407BFF"/>
<path d="M398.391 93.7969C400.228 93.835 402.046 93.4063 403.665 92.5489C404.893 91.8343 405.569 90.9483 405.569 90.0432C405.416 88.9286 404.693 87.9854 403.665 87.5471C400.352 85.8799 396.439 85.8799 393.127 87.5471C392.098 87.9854 391.375 88.9286 391.223 90.0432C391.223 90.9483 391.899 91.8343 393.127 92.5489C394.745 93.4063 396.563 93.835 398.391 93.7969Z" fill="#C0D0ED"/>
</svg>
