<svg xmlns="http://www.w3.org/2000/svg" viewBox="0 0 75.39 75.39"><defs><style>.cls-1{fill:#35a6d5;}.cls-1,.cls-2{fill-rule:evenodd;}.cls-2{fill:#86d3b0;}</style></defs><title>mh-iconAsset 2</title><g id="Layer_2" data-name="Layer 2"><g id="Layer_1-2" data-name="Layer 1"><path class="cls-1" d="M48.11,0H27.28a2.16,2.16,0,0,0-2.15,2.15v15.5a2.08,2.08,0,0,0,.63,1.52l17,17a2.15,2.15,0,0,1,0,3l-17,17a2.08,2.08,0,0,0-.63,1.52v15.5a2.16,2.16,0,0,0,2.15,2.15H48.11a2.16,2.16,0,0,0,2.15-2.15V52.41a2.15,2.15,0,0,1,2.15-2.15H73.24a2.16,2.16,0,0,0,2.15-2.15V27.28a2.16,2.16,0,0,0-2.15-2.15H52.41A2.15,2.15,0,0,1,50.26,23V2.15A2.16,2.16,0,0,0,48.11,0"/><path class="cls-2" d="M25.76,25.76,36.17,36.17l1.52,1.52-1.52,1.52L25.76,49.63a2.08,2.08,0,0,1-1.52.63H2.15A2.16,2.16,0,0,1,0,48.11V27.28a2.16,2.16,0,0,1,2.15-2.15H24.24a2.08,2.08,0,0,1,1.52.63"/></g></g></svg>