<svg xmlns="http://www.w3.org/2000/svg" viewBox="0 0 441.81 75.39"><defs><style>.cls-1,.cls-3{fill:#35a6d5;}.cls-2,.cls-4{fill:#86d3b0;}.cls-3,.cls-4{fill-rule:evenodd;}</style></defs><title>mh-logoAsset 1</title><g id="Layer_2" data-name="Layer 2"><g id="Layer_1-2" data-name="Layer 1"><path class="cls-1" d="M90.73,23.62a6.31,6.31,0,0,1,.57-2.55,4.29,4.29,0,0,1,1.34-1.61,5.34,5.34,0,0,1,1.85-.82,9.67,9.67,0,0,1,2.19-.24,10.54,10.54,0,0,1,4,.67,8.23,8.23,0,0,1,2.19,1.15q2.19,4.5,4.59,9.57t4.89,9.82q2.19-4.38,4.29-8.63t3.86-8.08a7.19,7.19,0,0,1,2.82-3.56,7.59,7.59,0,0,1,3.8-.94,11.53,11.53,0,0,1,4,.64,10.49,10.49,0,0,1,2.22,1l2.31,40.05H125.49l-1.4-24.92-2.25,4.62q-1.16,2.37-2.22,4.68c-.71,1.54-1.37,3-2,4.41s-1.19,2.64-1.67,3.73h-7.54c-.44-1.09-1-2.37-1.67-3.82l-2.1-4.56q-1.1-2.37-2.25-4.71c-.77-1.56-1.47-3-2.12-4.29L98.93,60.09H88.66Z"/><path class="cls-1" d="M146.58,63.43c.16.08.51.21,1.06.4s1.23.36,2,.54,1.73.35,2.76.49a23.85,23.85,0,0,0,3.19.21q4.68,0,6.75-2c1.38-1.34,2.06-3.55,2.06-6.63a7.67,7.67,0,0,1-3.52,2.22,14.33,14.33,0,0,1-4.74.82,18.42,18.42,0,0,1-5.2-.7,11.51,11.51,0,0,1-4.19-2.16A9.86,9.86,0,0,1,144,53a12.82,12.82,0,0,1-1-5.26V33.41a3.79,3.79,0,0,1,1.4-3.34,6.36,6.36,0,0,1,3.71-1,10.56,10.56,0,0,1,3,.4c.9.26,1.46.44,1.71.52V45.69c0,1.94.45,3.34,1.36,4.19a6.14,6.14,0,0,0,4.29,1.28,5.63,5.63,0,0,0,4.25-1.58,6.83,6.83,0,0,0,1.52-4.87V33.41a3.79,3.79,0,0,1,1.4-3.34,6.36,6.36,0,0,1,3.71-1,10.56,10.56,0,0,1,3,.4c.9.26,1.46.44,1.71.52V55.77a22.51,22.51,0,0,1-1.22,7.87,13.22,13.22,0,0,1-3.46,5.29,13.83,13.83,0,0,1-5.35,3,23.76,23.76,0,0,1-6.93.94,37.36,37.36,0,0,1-4.92-.3c-1.5-.21-2.82-.44-4-.7a26.34,26.34,0,0,1-2.74-.76,7.68,7.68,0,0,1-1.21-.49Z"/><path class="cls-2" d="M181.58,60.09V22.9A4,4,0,0,1,183,19.4a6.62,6.62,0,0,1,3.83-1,10.68,10.68,0,0,1,3.13.42l1.73.55V33.65H207.9V22.9a3.92,3.92,0,0,1,1.46-3.5,6.62,6.62,0,0,1,3.83-1,10.73,10.73,0,0,1,3.13.42l1.73.55V60.09H207.9V43.25H191.73V60.09Z"/><path class="cls-2" d="M234.82,48.66a3.21,3.21,0,0,0,.64,1.43,5.4,5.4,0,0,0,1.46,1.31,8.11,8.11,0,0,0,2.4,1,14.79,14.79,0,0,0,3.52.37,15.63,15.63,0,0,0,3-.28,24.41,24.41,0,0,0,2.43-.58,12.91,12.91,0,0,0,1.7-.6,3.87,3.87,0,0,0,.79-.43l3.41,6.81c-.33.2-.86.48-1.61.85a22.3,22.3,0,0,1-2.83,1.09,29.14,29.14,0,0,1-9,1.34,18.41,18.41,0,0,1-6.39-1.09,14.7,14.7,0,0,1-8.69-8.33,17.77,17.77,0,0,1-1.27-6.93,17.06,17.06,0,0,1,1.27-6.68,15.13,15.13,0,0,1,3.53-5.17,16.07,16.07,0,0,1,5.29-3.31A17.87,17.87,0,0,1,241,28.24a18.37,18.37,0,0,1,5.9.89,13,13,0,0,1,4.4,2.4A10.47,10.47,0,0,1,254.06,35a9.21,9.21,0,0,1,.94,4,10,10,0,0,1-.79,4,6.83,6.83,0,0,1-2.83,3A16.61,16.61,0,0,1,245.85,48a48.39,48.39,0,0,1-8.9.67Zm-.49-6.32a51,51,0,0,0,6.33-.3,13.19,13.19,0,0,0,3.34-.79,2.41,2.41,0,0,0,1.34-1.09,3.35,3.35,0,0,0,.24-1.22,2.81,2.81,0,0,0-1.16-2.22,5.37,5.37,0,0,0-3.46-.94,6.55,6.55,0,0,0-2.86.58,6.18,6.18,0,0,0-2,1.49,6.07,6.07,0,0,0-1.25,2.09A8.41,8.41,0,0,0,234.33,42.34Z"/><path class="cls-2" d="M288.42,59.91a10.76,10.76,0,0,1-1.64.27c-.85.1-1.91.21-3.19.33s-2.73.23-4.37.31-3.38.12-5.2.12a29.88,29.88,0,0,1-7.66-.82,14.07,14.07,0,0,1-4.86-2.22A7.49,7.49,0,0,1,259,54.65a10.54,10.54,0,0,1-.73-3.92q0-5.59,3.58-8t11.37-2.4c1.3,0,2.38,0,3.25.06s1.59.1,2.16.18a3.87,3.87,0,0,0-1.73-3.34c-1.16-.81-3.07-1.22-5.75-1.22a21.57,21.57,0,0,0-3.31.22,17.59,17.59,0,0,0-2.43.51,11.32,11.32,0,0,0-1.61.61,4.83,4.83,0,0,0-.85.49l-.49-.49a6,6,0,0,1-.73-.94,10,10,0,0,1-.67-1.31,4.12,4.12,0,0,1-.3-1.58q0-5.28,10.82-5.29a33.12,33.12,0,0,1,6.62.64,14.86,14.86,0,0,1,5.38,2.19,10.9,10.9,0,0,1,3.59,4.1,13.94,13.94,0,0,1,1.3,6.38Zm-9.78-12.7A11.36,11.36,0,0,0,277,47c-.71-.06-1.78-.09-3.19-.09a11.63,11.63,0,0,0-3,.31,4.59,4.59,0,0,0-1.79.82,2.77,2.77,0,0,0-.89,1.18,4.12,4.12,0,0,0-.24,1.4,4,4,0,0,0,.18,1.15,2.34,2.34,0,0,0,.79,1.1,5.42,5.42,0,0,0,1.83.82A12.68,12.68,0,0,0,274,54c1.05,0,2,0,2.92-.09a10.81,10.81,0,0,0,1.76-.21Z"/><path class="cls-2" d="M295.41,19.61a3.79,3.79,0,0,1,1.4-3.34,6.36,6.36,0,0,1,3.71-1,10.57,10.57,0,0,1,3,.39l1.71.52V60.09h-9.79Z"/><path class="cls-2" d="M312.18,24.29a3.79,3.79,0,0,1,1.4-3.34,6.36,6.36,0,0,1,3.71-1,10.65,10.65,0,0,1,3,.39l1.7.52v8.2h7a5.58,5.58,0,0,1,3.89,1.1A4.31,4.31,0,0,1,334,33.47a8.86,8.86,0,0,1-.48,3,14.52,14.52,0,0,1-.73,1.79H322v9.54a4.93,4.93,0,0,0,.42,2.22,3.89,3.89,0,0,0,1.07,1.31,3.51,3.51,0,0,0,1.46.64,9.18,9.18,0,0,0,1.67.15,9,9,0,0,0,3.1-.52,12.65,12.65,0,0,0,2-.88l3.83,6.68a9.92,9.92,0,0,1-1.58,1.1,16.27,16.27,0,0,1-2.49,1.15,23.86,23.86,0,0,1-3.28.95,18.29,18.29,0,0,1-3.83.39q-5.71,0-8.93-3a10.48,10.48,0,0,1-3.23-8Z"/><path class="cls-2" d="M339.17,19.61a3.78,3.78,0,0,1,1.39-3.34,6.39,6.39,0,0,1,3.71-1,10.28,10.28,0,0,1,3,.39l1.67.52V30.92A11.41,11.41,0,0,1,352.05,29a13.51,13.51,0,0,1,5.17-.85,16.24,16.24,0,0,1,5,.76A10.66,10.66,0,0,1,369,35.38a16,16,0,0,1,1,5.81v18.9h-9.79V43.19c0-2.06-.45-3.56-1.36-4.49a6.52,6.52,0,0,0-8.36.24c-1,1.09-1.52,2.8-1.52,5.11v16h-9.78Z"/><path class="cls-2" d="M376.42,20.77A5.35,5.35,0,0,1,378,16.88a5.2,5.2,0,0,1,3.86-1.58,5.4,5.4,0,0,1,5.47,5.47,5.21,5.21,0,0,1-1.58,3.86,5.35,5.35,0,0,1-3.89,1.55,5.3,5.3,0,0,1-5.41-5.41ZM377,33.41a3.76,3.76,0,0,1,1.4-3.34,6.33,6.33,0,0,1,3.7-1,10.58,10.58,0,0,1,3,.4c.89.26,1.46.44,1.7.52V60.09H377Z"/><path class="cls-2" d="M394,19.61a3.79,3.79,0,0,1,1.4-3.34,6.36,6.36,0,0,1,3.71-1,10.65,10.65,0,0,1,3,.39l1.7.52V60.09H394Z"/><path class="cls-2" d="M414.4,63.43c.17.08.52.21,1.07.4s1.22.36,2,.54,1.74.35,2.77.49a23.74,23.74,0,0,0,3.19.21q4.68,0,6.75-2t2.06-6.63a7.67,7.67,0,0,1-3.52,2.22,14.33,14.33,0,0,1-4.74.82,18.37,18.37,0,0,1-5.2-.7,11.51,11.51,0,0,1-4.19-2.16,9.86,9.86,0,0,1-2.8-3.67,12.66,12.66,0,0,1-1-5.26V33.41a3.76,3.76,0,0,1,1.4-3.34,6.33,6.33,0,0,1,3.7-1,10.58,10.58,0,0,1,3,.4c.89.26,1.46.44,1.7.52V45.69A5.53,5.53,0,0,0,422,49.88a6.13,6.13,0,0,0,4.29,1.28,5.63,5.63,0,0,0,4.25-1.58A6.83,6.83,0,0,0,432,44.71V33.41a3.76,3.76,0,0,1,1.4-3.34,6.33,6.33,0,0,1,3.7-1,10.58,10.58,0,0,1,3,.4c.89.26,1.46.44,1.7.52V55.77a22.53,22.53,0,0,1-1.21,7.87,13.24,13.24,0,0,1-3.47,5.29,13.86,13.86,0,0,1-5.34,3,23.76,23.76,0,0,1-6.93.94,37.41,37.41,0,0,1-4.93-.3c-1.5-.21-2.81-.44-3.95-.7a26.78,26.78,0,0,1-2.73-.76A8.53,8.53,0,0,1,412,70.6Z"/><path class="cls-3" d="M48.11,0H27.28a2.16,2.16,0,0,0-2.15,2.15v15.5a2.08,2.08,0,0,0,.63,1.52l17,17a2.15,2.15,0,0,1,0,3l-17,17a2.08,2.08,0,0,0-.63,1.52v15.5a2.16,2.16,0,0,0,2.15,2.15H48.11a2.16,2.16,0,0,0,2.15-2.15V52.41a2.15,2.15,0,0,1,2.15-2.15H73.24a2.16,2.16,0,0,0,2.15-2.15V27.28a2.16,2.16,0,0,0-2.15-2.15H52.41A2.15,2.15,0,0,1,50.26,23V2.15A2.16,2.16,0,0,0,48.11,0"/><path class="cls-4" d="M25.76,25.76,36.17,36.17l1.52,1.52-1.52,1.52L25.76,49.63a2.08,2.08,0,0,1-1.52.63H2.15A2.16,2.16,0,0,1,0,48.11V27.28a2.16,2.16,0,0,1,2.15-2.15H24.24a2.08,2.08,0,0,1,1.52.63"/></g></g></svg>