<svg xmlns="http://www.w3.org/2000/svg" viewBox="0 0 143.22 68.24"><defs><style>.cls-1{fill:#48a3db;}.cls-2{fill:#d4f8ef;}.cls-3{fill:#28b573;}.cls-4{fill:#16346f;}</style></defs><title>confetti</title><g id="Layer_2" data-name="Layer 2"><g id="Layer_1-2" data-name="Layer 1"><g id="Group_2299" data-name="Group 2299"><path id="Path_1690" data-name="Path 1690" class="cls-1" d="M126.61,49.6c-.21-1.51-1.37-7.36-1-8.85a5.31,5.31,0,0,1,3.67-4.06c2.68-.61,5.1,1.62,7,3.65a11.36,11.36,0,0,1,7-4,33.87,33.87,0,0,0-6.09-5.5,11.35,11.35,0,0,0-7.65-2.51c-3.17.42-5.6,3-7.55,5.5s-5.36,7.16-5.1,10.82c0,.59,1.62,5.91,1.82,6.47C121.39,50.75,123.87,49.94,126.61,49.6Z"/><path id="Path_1691" data-name="Path 1691" class="cls-2" d="M79.2,21A42.72,42.72,0,0,0,77,14,20.13,20.13,0,0,1,64.57,9.49C61,6.64,58.51,2.67,54.42,1A15.34,15.34,0,0,0,46.23.27c.93,2.81,1.8,5.64,2.66,8.45A13.37,13.37,0,0,1,58,11.66c3.31,2.48,5.9,5.79,9.24,8.18s7.91,3.89,11.58,2a.69.69,0,0,0,.4-.31A.9.9,0,0,0,79.2,21Z"/><path id="Path_1692" data-name="Path 1692" class="cls-3" d="M9,68.24a12.61,12.61,0,0,1-.27-2.74,6.85,6.85,0,0,1,2.81-5.59,16.13,16.13,0,0,1,4.18-1.31,13.61,13.61,0,0,0,9.37-10.87,20.69,20.69,0,0,0-8.62-3.85A6.87,6.87,0,0,1,13,51.39a21.8,21.8,0,0,1-3.7,1.26C4.56,54.26-.37,59.88,0,65.19a6.32,6.32,0,0,0,.67,2.63Z"/></g><path id="Path_1693" data-name="Path 1693" class="cls-4" d="M77.28,45.09s6.87,1.28,9.9-1.57,0,16.11,0,16.11l-13.44-7Z"/></g></g></svg>