<svg xmlns="http://www.w3.org/2000/svg" width="20" height="21" viewBox="0 0 20 21"><g><g><g><path fill="#fff" d="M-.051 10.437C-.051 4.877 4.455.37 10.015.37c5.559 0 10.065 4.507 10.065 10.066 0 5.559-4.506 10.065-10.065 10.065-5.56 0-10.066-4.506-10.066-10.065z"/></g><g><g><g><path fill="#008dd0" d="M13.242 14.144h-2.203v-5.81a.663.663 0 0 0-.662-.663H7.352a.663.663 0 1 0 0 1.326h2.362v5.147H7.352a.663.663 0 1 0 0 1.327h5.89a.664.664 0 0 0 0-1.327z"/></g><g><path fill="#008dd0" d="M8.716 5.011a1.214 1.214 0 1 1 2.429 0 1.214 1.214 0 0 1-2.429 0z"/></g></g></g></g></g></svg>