<svg xmlns="http://www.w3.org/2000/svg" width="22" height="22" viewBox="0 0 22 22"><g><g><g><path fill="none" stroke="#008dd0" stroke-miterlimit="50" d="M.655 11.066C.655 5.506 5.162 1 10.721 1c5.559 0 10.065 4.506 10.065 10.066 0 5.559-4.506 10.065-10.065 10.065-5.56 0-10.066-4.506-10.066-10.065z"/></g><g><g><g><path fill="#008dd0" d="M13.948 14.773h-2.203v-5.81a.663.663 0 0 0-.662-.663H8.058a.663.663 0 1 0 0 1.326h2.362v5.147H8.058a.663.663 0 1 0 0 1.327h5.89a.664.664 0 0 0 0-1.327z"/></g><g><path fill="#008dd0" d="M9.423 5.64a1.214 1.214 0 1 1 2.428 0 1.214 1.214 0 0 1-2.428 0z"/></g></g></g></g></g></svg>