<svg xmlns="http://www.w3.org/2000/svg" width="20" height="21" viewBox="0 0 20 21"><g><g><g><g><g><path fill="#fff" d="M0 10.58C0 5.035 4.495.54 10.04.54c5.545 0 10.04 4.495 10.04 10.04 0 5.545-4.495 10.04-10.04 10.04C4.495 20.62 0 16.125 0 10.58z"/></g></g><g><g><path fill="#008dd0" d="M12.63 4.803c-.66-.59-1.546-.917-2.498-.917-.935 0-1.817.312-2.484.879-.753.64-1.168 1.568-1.168 2.615a.662.662 0 0 0 1.324 0c0-1.491 1.207-2.17 2.329-2.17.625 0 1.198.205 1.614.578.474.425.715 1.032.715 1.803 0 1.666-1.828 2.524-2.61 2.89l-.095.045a.662.662 0 0 0-.375.67c.004.136.001.718-.004 1.231a.662.662 0 0 0 .655.669h.007a.661.661 0 0 0 .661-.655s.004-.326.006-.654v-.248c1.062-.517 3.078-1.673 3.078-3.948 0-1.449-.628-2.316-1.155-2.788z"/></g><g><path fill="#008dd0" d="M8.938 16.29a1.21 1.21 0 1 1 2.166-1.083 1.21 1.21 0 0 1-2.166 1.083z"/></g></g></g></g></g></svg>