<svg xmlns="http://www.w3.org/2000/svg" viewBox="0 0 123.17 122.5"><defs><style>.cls-1{fill:#14a55d;}.cls-1,.cls-2{fill-rule:evenodd;}.cls-2{fill:#28436d;}</style></defs><title>yahc-iconAsset 2</title><g id="Layer_2" data-name="Layer 2"><g id="Layer_1-2" data-name="Layer 1"><path class="cls-1" d="M36.28,46.2a9.7,9.7,0,1,0-9.7,9.7h0A9.77,9.77,0,0,0,36.28,46.2Z"/><path class="cls-2" d="M122.78,29c-2.4,21.7-28,46-28,46a113.58,113.58,0,0,0-23.3-36.6,118.77,118.77,0,0,0-8.9,16c16.5,36.8,6,68.1,6,68.1C103.38,104.4,126.48,68.5,122.78,29Z"/><path class="cls-2" d="M87.48,47.5a9.55,9.55,0,1,0,9.6-9.5h0A9.52,9.52,0,0,0,87.48,47.5Z"/><path class="cls-1" d="M107,0a152,152,0,0,0-45.9,28.6l.5-.5A150.12,150.12,0,0,0,16.18,0c16.4,11.9,28.1,24.5,36.4,36.9l.1-.2a117.52,117.52,0,0,0-23.9,37.5S2.78,49.4.38,27.4c-3.7,40.1,19.8,76.7,55.1,95.1C55.48,122.5,32.48,53.9,107,0ZM57.48,31.9l-.7.6Z"/></g></g></svg>