<svg xmlns="http://www.w3.org/2000/svg" viewBox="0 0 110 110"><defs><style>.cls-1{fill:#bbb63c;}.cls-2{fill:#fff;}</style></defs><title>mhc-icon-Asset 1</title><g id="Layer_2" data-name="Layer 2"><g id="Layer_1-2" data-name="Layer 1"><path class="cls-1" d="M98,65.48l12-1.93V46.46L98,44.52A43.78,43.78,0,0,0,92.85,32L95,29l4.91-6.82L87.85,10.07,79,16.48l-.92.67a44.16,44.16,0,0,0-11.54-4.93c-.34-.1-.68-.18-1-.26l0-.31L63.54,0H46.46l-.33,2L44.52,12A44,44,0,0,0,32,17.15l-9.82-7.08L10.07,22.15,17.15,32A43.78,43.78,0,0,0,12,44.52L8.91,45h0l-5.52.9L0,46.46V63.54l12,1.94A43.78,43.78,0,0,0,17.15,78l-3.47,4.81-3.61,5L22.15,99.93,32,92.85A43.78,43.78,0,0,0,44.52,98l1.94,12H63.54l1.67-10.28L65.48,98A43.78,43.78,0,0,0,78,92.85l9.82,7.08L99.93,87.85l-4-5.52h0L92.85,78a43.09,43.09,0,0,0,3.68-7.61A40.92,40.92,0,0,0,98,65.48Z"/><polygon class="cls-2" points="79.67 46.73 63.27 46.73 63.27 30.32 46.73 30.32 46.73 46.73 30.32 46.73 30.32 63.27 46.73 63.27 46.73 79.68 63.27 79.68 63.27 63.27 79.67 63.27 79.67 46.73"/></g></g></svg>