<svg xmlns="http://www.w3.org/2000/svg" viewBox="0 0 860.05 225"><defs><style>.cls-1{fill:#29446e;}.cls-2{fill:#6c6a6c;}.cls-3{fill:#bbb63c;}.cls-4{fill:#fff;}</style></defs><title>mhc-logo-Asset 2</title><g id="Layer_2" data-name="Layer 2"><g id="Layer_1-2" data-name="Layer 1"><path class="cls-1" d="M34.89,149.47,23.58,178.34H19.85L8.54,149.47v28.87H0V138.22H12l9.74,25,9.75-25h12v40.12h-8.6Z"/><path class="cls-1" d="M69.9,175.33c-2,2.35-5.42,3.73-9.21,3.73-4.63,0-10.1-3.12-10.1-9.62,0-6.8,5.47-9.26,10.1-9.26,3.85,0,7.28,1.2,9.21,3.55v-4c0-2.95-2.53-4.88-6.38-4.88A12.25,12.25,0,0,0,55,158.25l-2.89-5.11a19,19,0,0,1,12.69-4.57c6.62,0,12.7,2.64,12.7,11v18.76H69.9Zm0-7.57c-1.27-1.69-3.67-2.53-6.14-2.53-3,0-5.47,1.56-5.47,4.39s2.46,4.27,5.47,4.27c2.47,0,4.87-.84,6.14-2.52Z"/><path class="cls-1" d="M105.93,160.78c0-4-2.11-5.41-5.36-5.41A8.27,8.27,0,0,0,94,158.79v19.55H86.32V149.29H94v3.79a13.27,13.27,0,0,1,10.16-4.51c6.38,0,9.45,3.61,9.45,9.26v20.51h-7.64Z"/><path class="cls-1" d="M142,174.67a13.6,13.6,0,0,1-10.23,4.39c-6.37,0-9.38-3.48-9.38-9.14V149.29H130v17.62c0,4,2.1,5.36,5.35,5.36A8.58,8.58,0,0,0,142,169V149.29h7.64v29.05H142Z"/><path class="cls-1" d="M160.06,156h-4.81v-6.68h4.81v-1.56c0-6.32,4.09-10.11,9.81-10.11a12.37,12.37,0,0,1,5.53,1.2l-1.56,5.42a4.71,4.71,0,0,0-2.47-.6c-2.16,0-3.61,1.44-3.61,4.21v1.44h5.9V156h-5.9v22.37h-7.7Z"/><path class="cls-1" d="M196.7,175.33c-2,2.35-5.42,3.73-9.21,3.73-4.63,0-10.1-3.12-10.1-9.62,0-6.8,5.47-9.26,10.1-9.26,3.85,0,7.28,1.2,9.21,3.55v-4c0-2.95-2.53-4.88-6.38-4.88a12.23,12.23,0,0,0-8.48,3.43L179,153.14a19,19,0,0,1,12.69-4.57c6.62,0,12.69,2.64,12.69,11v18.76H196.7Zm0-7.57c-1.27-1.69-3.67-2.53-6.14-2.53-3,0-5.47,1.56-5.47,4.39s2.46,4.27,5.47,4.27c2.47,0,4.87-.84,6.14-2.52Z"/><path class="cls-1" d="M226.65,148.57c6,0,9.57,2.59,11.49,5.23l-5,4.69a7.06,7.06,0,0,0-6.14-3.12c-4.63,0-7.88,3.36-7.88,8.42s3.25,8.48,7.88,8.48a7.36,7.36,0,0,0,6.14-3.13l5,4.63c-1.92,2.71-5.53,5.29-11.49,5.29-9,0-15.4-6.31-15.4-15.27S217.69,148.57,226.65,148.57Z"/><path class="cls-1" d="M245.84,171.13V156H241v-6.68h4.81v-7.94h7.7v7.94h5.89V156h-5.89v13.11c0,1.8,1,3.19,2.65,3.19a4.16,4.16,0,0,0,2.64-.84l1.63,5.77c-1.15,1-3.19,1.86-6.38,1.86C248.73,179.06,245.84,176.3,245.84,171.13Z"/><path class="cls-1" d="M285.48,174.67a13.57,13.57,0,0,1-10.23,4.39c-6.37,0-9.38-3.48-9.38-9.14V149.29h7.64v17.62c0,4,2.11,5.36,5.35,5.36a8.56,8.56,0,0,0,6.62-3.31V149.29h7.64v29.05h-7.64Z"/><path class="cls-1" d="M301.9,149.29h7.64v4a12.43,12.43,0,0,1,9.26-4.63v7.46a9.65,9.65,0,0,0-2.1-.24c-2.53,0-5.9,1.44-7.16,3.31v19.18H301.9Z"/><path class="cls-1" d="M337.93,148.57c8.66,0,14.56,6.49,14.56,16v1.68h-21.6c.49,3.67,3.43,6.74,8.37,6.74A11.83,11.83,0,0,0,347,170.1l3.37,4.93c-2.88,2.65-7.46,4-12,4-8.84,0-15.52-5.95-15.52-15.27C322.89,155.37,329.09,148.57,337.93,148.57Zm-7.16,12.51h14.32a6.73,6.73,0,0,0-7.16-6.44A7,7,0,0,0,330.77,161.08Z"/><path class="cls-1" d="M359.23,149.29h7.64v4a12.4,12.4,0,0,1,9.26-4.63v7.46a9.67,9.67,0,0,0-2.11-.24c-2.52,0-5.89,1.44-7.15,3.31v19.18h-7.64Z"/><path class="cls-1" d="M382.87,169.2a16.63,16.63,0,0,0,10,4c3.31,0,4.87-1.14,4.87-2.95,0-2-2.52-2.76-5.83-3.43-5-1-11.43-2.16-11.43-9.08,0-4.87,4.27-9.14,11.91-9.14a18.55,18.55,0,0,1,11.73,4l-3.07,5.23a12.26,12.26,0,0,0-8.6-3.37c-2.77,0-4.57,1-4.57,2.71s2.28,2.47,5.53,3.13c5,1,11.67,2.28,11.67,9.5,0,5.29-4.51,9.32-12.57,9.32-5.05,0-9.92-1.68-13-4.51Z"/><path class="cls-1" d="M439.65,161.5H420.7v16.84h-8.54V138.22h8.54V154h18.95V138.22h8.6v40.12h-8.6Z"/><path class="cls-1" d="M470.32,148.57c8.67,0,14.56,6.49,14.56,16v1.68H463.29c.48,3.67,3.43,6.74,8.36,6.74a11.88,11.88,0,0,0,7.76-2.89l3.37,4.93c-2.89,2.65-7.46,4-12,4-8.85,0-15.52-5.95-15.52-15.27C455.29,155.37,461.48,148.57,470.32,148.57Zm-7.15,12.51h14.31a6.73,6.73,0,0,0-7.16-6.44A7,7,0,0,0,463.17,161.08Z"/><path class="cls-1" d="M509.06,175.33c-2,2.35-5.41,3.73-9.2,3.73-4.63,0-10.11-3.12-10.11-9.62,0-6.8,5.48-9.26,10.11-9.26,3.85,0,7.28,1.2,9.2,3.55v-4c0-2.95-2.52-4.88-6.37-4.88a12.23,12.23,0,0,0-8.48,3.43l-2.89-5.11A19,19,0,0,1,504,148.57c6.62,0,12.69,2.64,12.69,11v18.76h-7.64Zm0-7.57c-1.26-1.69-3.67-2.53-6.13-2.53-3,0-5.48,1.56-5.48,4.39s2.47,4.27,5.48,4.27c2.46,0,4.87-.84,6.13-2.52Z"/><path class="cls-1" d="M525.48,138.22h7.64v40.12h-7.64Z"/><path class="cls-1" d="M543.41,171.13V156H538.6v-6.68h4.81v-7.94h7.7v7.94H557V156h-5.89v13.11c0,1.8,1,3.19,2.64,3.19a4.17,4.17,0,0,0,2.65-.84L558,177.2c-1.15,1-3.19,1.86-6.38,1.86C546.3,179.06,543.41,176.3,543.41,171.13Z"/><path class="cls-1" d="M583.11,160.66c0-4-2.11-5.29-5.41-5.29a8.47,8.47,0,0,0-6.62,3.42v19.55h-7.64V138.22h7.64v14.86a13.41,13.41,0,0,1,10.22-4.51c6.38,0,9.45,3.49,9.45,9.14v20.63h-7.64Z"/><path class="cls-1" d="M597.79,158.31c0-12.33,9.32-20.75,21.05-20.75,9.14,0,14.25,4.81,17.08,9.81l-7.34,3.6a11,11,0,0,0-9.74-5.83c-7,0-12.27,5.59-12.27,13.17s5.29,13.18,12.27,13.18a10.87,10.87,0,0,0,9.74-5.84l7.34,3.55a18.63,18.63,0,0,1-17.08,9.86C607.11,179.06,597.79,170.64,597.79,158.31Z"/><path class="cls-1" d="M659.5,175.33c-2,2.35-5.41,3.73-9.2,3.73-4.63,0-10.11-3.12-10.11-9.62,0-6.8,5.48-9.26,10.11-9.26,3.85,0,7.28,1.2,9.2,3.55v-4c0-2.95-2.52-4.88-6.37-4.88a12.27,12.27,0,0,0-8.49,3.43l-2.88-5.11a19,19,0,0,1,12.69-4.57c6.62,0,12.69,2.64,12.69,11v18.76H659.5Zm0-7.57c-1.26-1.69-3.67-2.53-6.13-2.53-3,0-5.48,1.56-5.48,4.39s2.47,4.27,5.48,4.27c2.46,0,4.87-.84,6.13-2.52Z"/><path class="cls-1" d="M675.92,149.29h7.64v4a12.44,12.44,0,0,1,9.27-4.63v7.46a9.75,9.75,0,0,0-2.11-.24c-2.52,0-5.89,1.44-7.16,3.31v19.18h-7.64Z"/><path class="cls-1" d="M712,148.57c8.67,0,14.56,6.49,14.56,16v1.68H704.92c.48,3.67,3.42,6.74,8.36,6.74A11.88,11.88,0,0,0,721,170.1L724.4,175c-2.88,2.65-7.45,4-12,4-8.84,0-15.51-5.95-15.51-15.27C696.92,155.37,703.11,148.57,712,148.57Zm-7.15,12.51h14.31a6.73,6.73,0,0,0-7.16-6.44A7,7,0,0,0,704.8,161.08Z"/><path class="cls-1" d="M736.92,169.26a4.87,4.87,0,1,1-4.88,4.87A4.93,4.93,0,0,1,736.92,169.26Z"/><path class="cls-1" d="M762.9,148.57c6,0,9.57,2.59,11.49,5.23l-5,4.69a7.06,7.06,0,0,0-6.14-3.12c-4.63,0-7.88,3.36-7.88,8.42s3.25,8.48,7.88,8.48a7.36,7.36,0,0,0,6.14-3.13l5,4.63c-1.92,2.71-5.53,5.29-11.49,5.29-9,0-15.4-6.31-15.4-15.27S753.94,148.57,762.9,148.57Z"/><path class="cls-1" d="M778.72,163.79c0-8.24,5.78-15.22,15.34-15.22s15.4,7,15.4,15.22-5.78,15.27-15.4,15.27S778.72,172.09,778.72,163.79Zm22.8,0c0-4.51-2.71-8.42-7.46-8.42s-7.4,3.91-7.4,8.42,2.65,8.48,7.4,8.48S801.52,168.36,801.52,163.79Z"/><path class="cls-1" d="M852.35,160c0-2.71-1.21-4.63-4.33-4.63a7.72,7.72,0,0,0-6,3.36v19.61h-7.7V160c0-2.71-1.2-4.63-4.33-4.63a7.8,7.8,0,0,0-6,3.42v19.55h-7.64V149.29H824v3.79a12.68,12.68,0,0,1,9.5-4.51c4.27,0,7,2,8.06,5.29a12.32,12.32,0,0,1,10-5.29c5.35,0,8.54,2.83,8.54,8.78v21h-7.7Z"/><path class="cls-2" d="M198.47,202.66h2.14v17.22h-2.14Z"/><path class="cls-2" d="M220.64,211.41c0-1.57-.7-2.61-2.3-2.61a4.38,4.38,0,0,0-3.3,1.91v9.14H213.1v-8.46c0-1.58-.67-2.61-2.29-2.61a4.35,4.35,0,0,0-3.28,1.93v9.12h-1.95V207.41h1.94v1.8a5.38,5.38,0,0,1,4-2.11,3.19,3.19,0,0,1,3.35,2.32,5.24,5.24,0,0,1,4.18-2.32c2.28,0,3.48,1.26,3.48,3.76v9h-1.94Z"/><path class="cls-2" d="M242.52,211.41c0-1.57-.69-2.61-2.29-2.61a4.36,4.36,0,0,0-3.3,1.91v9.14H235v-8.46c0-1.58-.67-2.61-2.3-2.61a4.31,4.31,0,0,0-3.27,1.93v9.12h-1.94V207.41h1.94v1.8a5.36,5.36,0,0,1,4-2.11,3.21,3.21,0,0,1,3.36,2.32A5.21,5.21,0,0,1,241,207.1c2.27,0,3.47,1.26,3.47,3.76v9h-1.93Z"/><path class="cls-2" d="M254.79,207.1c3.77,0,6,2.94,6,6.69v.48H250.69a4.38,4.38,0,0,0,4.43,4.35h.06A5.42,5.42,0,0,0,259,217l.93,1.27a6.8,6.8,0,0,1-4.95,1.91,6.57,6.57,0,0,1-.21-13.12Zm-4.1,5.75h8.18A4,4,0,0,0,255,208.7h-.2A4.15,4.15,0,0,0,250.69,212.85Z"/><path class="cls-2" d="M274,218a5.22,5.22,0,0,1-4.2,2.16c-3.25,0-5.55-2.47-5.55-6.53s2.27-6.55,5.55-6.55a5.2,5.2,0,0,1,4.2,2.19v-6.63h1.94v17.22H274Zm0-7.18a4.68,4.68,0,0,0-3.73-2c-2.51,0-4,2.06-4,4.82s1.5,4.8,4,4.8A4.63,4.63,0,0,0,274,216.5Z"/><path class="cls-2" d="M280.47,204a1.31,1.31,0,1,1,2.61,0,1.31,1.31,0,0,1-2.61,0Zm.33,3.41h1.94v12.47H280.8Z"/><path class="cls-2" d="M295.44,218.45a5.38,5.38,0,0,1-4.13,1.74,4.14,4.14,0,0,1-4.34-3.94v-.19a4.07,4.07,0,0,1,4.34-4.1,5.22,5.22,0,0,1,4.13,1.74v-2.24c0-1.68-1.35-2.61-3.15-2.61a4.92,4.92,0,0,0-3.82,1.74l-.87-1.35a6.55,6.55,0,0,1,5-2.06c2.61,0,4.83,1.18,4.83,4.21V220h-1.93Zm0-3.55a4.18,4.18,0,0,0-3.43-1.56,2.8,2.8,0,0,0-3.06,2.52,1.62,1.62,0,0,0,0,.22,2.79,2.79,0,0,0,3.07,2.71,4.15,4.15,0,0,0,3.43-1.55Z"/><path class="cls-2" d="M302.66,217.27v-8.16H300.6v-1.74h2.06V204h1.94v3.41h2.53v1.73H304.6v7.75c0,.93.42,1.6,1.27,1.6a1.83,1.83,0,0,0,1.31-.52l.57,1.45a3.13,3.13,0,0,1-2.32.8C303.59,220.18,302.66,219.13,302.66,217.27Z"/><path class="cls-2" d="M316.32,207.1c3.77,0,6,2.94,6,6.69v.48H312.22a4.38,4.38,0,0,0,4.43,4.35h.06a5.42,5.42,0,0,0,3.84-1.58l.93,1.27a6.8,6.8,0,0,1-5,1.91,6.57,6.57,0,0,1-.21-13.12Zm-4.1,5.75h8.18a4,4,0,0,0-3.91-4.15h-.2A4.15,4.15,0,0,0,312.22,212.85Z"/><path class="cls-2" d="M326.78,215.82a7.24,7.24,0,0,0,5.41,2.46c3.08,0,4.05-1.65,4.05-3,0-2.06-2.09-2.61-4.35-3.25-2.76-.73-5.83-1.5-5.83-4.88,0-2.84,2.53-4.78,5.91-4.78a8.08,8.08,0,0,1,6.09,2.41l-1.23,1.53a6.58,6.58,0,0,0-5-2.06c-2.07,0-3.54,1.11-3.54,2.73s2,2.25,4.18,2.85c2.82.74,6,1.62,6,5.21,0,2.5-1.74,5.06-6.35,5.06a8.55,8.55,0,0,1-6.61-2.73Z"/><path class="cls-2" d="M350.42,218.45a5.39,5.39,0,0,1-4.13,1.74,4.14,4.14,0,0,1-4.34-3.94,1.21,1.21,0,0,1,0-.19,4.08,4.08,0,0,1,4.35-4.1,5.23,5.23,0,0,1,4.13,1.74v-2.24c0-1.68-1.35-2.61-3.16-2.61a4.9,4.9,0,0,0-3.81,1.74l-.87-1.35a6.53,6.53,0,0,1,5-2.06c2.61,0,4.82,1.18,4.82,4.21V220h-1.93Zm0-3.55a4.2,4.2,0,0,0-3.44-1.56,2.8,2.8,0,0,0-3.06,2.53,1.48,1.48,0,0,0,0,.21,2.8,2.8,0,0,0,3.07,2.71,4.17,4.17,0,0,0,3.44-1.55Z"/><path class="cls-2" d="M355.4,207.41h2.08l4.16,10.23,4.14-10.22h2.11l-5.22,12.48h-2.11Z"/><path class="cls-2" d="M370.6,204a1.29,1.29,0,0,1,1.29-1.29h0a1.31,1.31,0,0,1,1.32,1.29h0a1.31,1.31,0,0,1-2.61,0Zm.33,3.41h1.94v12.47h-1.94Z"/><path class="cls-2" d="M386.18,211.72c0-2.19-1.1-2.89-2.78-2.89a4.8,4.8,0,0,0-3.69,1.93v9.12h-1.94V207.41h1.94v1.8a6.22,6.22,0,0,1,4.44-2.11c2.61,0,4,1.31,4,4v8.75h-1.94Z"/><path class="cls-2" d="M394,221.63a4.76,4.76,0,0,0,4,1.74c2.07,0,4-1,4-3.74v-1.78a5.21,5.21,0,0,1-4.18,2.22c-3.26,0-5.56-2.43-5.56-6.45s2.27-6.48,5.56-6.48a5.26,5.26,0,0,1,4.18,2.19v-1.88H404v12.11c0,4.13-2.89,5.42-5.94,5.42a6.37,6.37,0,0,1-5-1.86Zm8-10.79a4.62,4.62,0,0,0-3.72-2c-2.5,0-4,2-4,4.75s1.5,4.75,4,4.75a4.64,4.64,0,0,0,3.72-2Z"/><path class="cls-2" d="M408.8,216.83a5.64,5.64,0,0,0,4.1,1.78c1.91,0,2.94-.87,2.94-2.06,0-1.37-1.52-1.81-3.2-2.23-2.11-.48-4.52-1.06-4.52-3.63,0-1.94,1.68-3.59,4.65-3.59a6.32,6.32,0,0,1,4.62,1.81l-.87,1.34a4.85,4.85,0,0,0-3.71-1.58c-1.74,0-2.77.78-2.77,1.89s1.43,1.6,3,2c2.17.5,4.67,1.11,4.67,3.88,0,2.08-1.68,3.76-4.9,3.76a6.64,6.64,0,0,1-5-2Z"/><path class="cls-2" d="M421.45,222.36a3.93,3.93,0,0,0,1.68-2.4h-.37a1.24,1.24,0,0,1-1.25-1.21.45.45,0,0,1,0-.11,1.38,1.38,0,0,1,1.37-1.39h0a1.75,1.75,0,0,1,1.64,1.84.49.49,0,0,0,0,.12,5,5,0,0,1-2.12,3.9Z"/><path class="cls-2" d="M429.18,215.82a7.32,7.32,0,0,0,5.43,2.46c3.07,0,4.05-1.65,4.05-3,0-2.06-2.09-2.61-4.35-3.25-2.75-.73-5.83-1.5-5.83-4.88,0-2.84,2.53-4.78,5.91-4.78a8,8,0,0,1,6.08,2.41l-1.26,1.53a6.58,6.58,0,0,0-5-2.06c-2.06,0-3.53,1.11-3.53,2.73s2,2.25,4.18,2.85c2.81.74,6,1.62,6,5.21,0,2.5-1.74,5.06-6.35,5.06a8.55,8.55,0,0,1-6.61-2.73Z"/><path class="cls-2" d="M444.7,204a1.31,1.31,0,1,1,1.3,1.3A1.31,1.31,0,0,1,444.7,204Zm.34,3.41H447v12.47H445Z"/><path class="cls-2" d="M466.92,211.41c0-1.57-.69-2.61-2.3-2.61a4.38,4.38,0,0,0-3.3,1.91v9.14h-1.93v-8.46c0-1.58-.68-2.61-2.31-2.61a4.33,4.33,0,0,0-3.27,1.93v9.12h-1.93V207.41h1.93v1.8a5.4,5.4,0,0,1,4-2.11,3.23,3.23,0,0,1,3.37,2.32,5.21,5.21,0,0,1,4.18-2.32c2.27,0,3.47,1.26,3.47,3.76v9h-1.93Z"/><path class="cls-2" d="M473.76,224.6V207.41h1.93v1.86a5.22,5.22,0,0,1,4.21-2.17c3.29,0,5.56,2.48,5.56,6.53s-2.27,6.55-5.56,6.55a5.09,5.09,0,0,1-4.21-2.19v6.61Zm5.65-15.8a4.67,4.67,0,0,0-3.72,2v5.63a4.69,4.69,0,0,0,3.72,2c2.51,0,4-2.06,4-4.83s-1.49-4.77-4-4.77Z"/><path class="cls-2" d="M489.61,202.66h1.94v17.22h-1.94Z"/><path class="cls-2" d="M501.87,207.1c3.77,0,6,2.94,6,6.69v.48H497.76a4.4,4.4,0,0,0,4.43,4.35h.07A5.42,5.42,0,0,0,506.1,217l.93,1.27a6.78,6.78,0,0,1-5,1.91,6.57,6.57,0,0,1-.2-13.12Zm-4.11,5.75H506A4,4,0,0,0,502,208.7h-.18A4.17,4.17,0,0,0,497.76,212.85Z"/><path class="cls-2" d="M512.09,202.66h11.3v2h-9.16v5.54h9v1.91h-9V218h9.14v1.91h-11.3Z"/><path class="cls-2" d="M536.15,211.72c0-2.19-1.12-2.89-2.79-2.89a4.87,4.87,0,0,0-3.7,1.93v9.12h-1.93V207.41h1.93v1.8a6.23,6.23,0,0,1,4.44-2.11c2.61,0,4,1.31,4,4v8.75h-1.93Z"/><path class="cls-2" d="M543,207.41h1.93v2a5.34,5.34,0,0,1,4.15-2.27v2a3.3,3.3,0,0,0-.77-.07,4.56,4.56,0,0,0-3.38,2v8.83H543Z"/><path class="cls-2" d="M551.81,213.63c0-3.62,2.37-6.53,6.17-6.53s6.17,2.91,6.17,6.53-2.38,6.55-6.17,6.55S551.81,217.24,551.81,213.63Zm10.3,0c0-2.53-1.47-4.8-4.13-4.8s-4.15,2.27-4.15,4.8,1.49,4.82,4.15,4.82S562.11,216.18,562.11,213.63Z"/><path class="cls-2" d="M568.33,202.66h1.93v17.22h-1.93Z"/><path class="cls-2" d="M575.16,202.66h1.94v17.22h-1.94Z"/><path class="cls-2" d="M597.05,211.41c0-1.57-.69-2.61-2.29-2.61a4.38,4.38,0,0,0-3.31,1.91v9.14h-1.94v-8.46c0-1.58-.66-2.61-2.29-2.61a4.35,4.35,0,0,0-3.28,1.93v9.12H582V207.41h1.94v1.8a5.39,5.39,0,0,1,4-2.11,3.19,3.19,0,0,1,3.35,2.32,5.24,5.24,0,0,1,4.18-2.32c2.28,0,3.48,1.26,3.48,3.76v9H597Z"/><path class="cls-2" d="M609.32,207.1c3.77,0,6,2.94,6,6.69v.48H605.21a4.4,4.4,0,0,0,4.43,4.35h.07a5.43,5.43,0,0,0,3.84-1.58l.93,1.27a6.84,6.84,0,0,1-5,1.91,6.57,6.57,0,0,1-.2-13.12Zm-4.11,5.75h8.18a4,4,0,0,0-3.91-4.15h-.19A4.15,4.15,0,0,0,605.21,212.85Z"/><path class="cls-2" d="M627.87,211.72c0-2.19-1.11-2.89-2.79-2.89a4.78,4.78,0,0,0-3.68,1.93v9.12h-1.94V207.41h1.94v1.8a6.2,6.2,0,0,1,4.44-2.11c2.61,0,4,1.31,4,4v8.75h-1.94Z"/><path class="cls-2" d="M635.1,217.27v-8.16H633v-1.74h2.06V204H637v3.41h2.53v1.73H637v7.75c0,.93.42,1.6,1.27,1.6a1.87,1.87,0,0,0,1.32-.52l.56,1.41a3.17,3.17,0,0,1-2.33.8C636,220.18,635.1,219.13,635.1,217.27Z"/><path class="cls-3" d="M473.55,65.48l11.95-1.93V46.46l-11.95-1.94A43.8,43.8,0,0,0,468.35,32l2.17-3,4.92-6.82L463.36,10.07l-8.9,6.41-.93.67A44,44,0,0,0,442,12.22c-.33-.1-.67-.18-1-.26l-.05-.31L439.05,0H422l-.32,2L420,12a44,44,0,0,0-12.55,5.19l-9.82-7.08L385.58,22.15,392.65,32a44.35,44.35,0,0,0-5.19,12.55l-3,.49h0l-5.52.9-3.39.55V63.54l11.95,1.94A43.8,43.8,0,0,0,392.66,78l-3.48,4.81-3.6,5,12.08,12.08,9.82-7.08A43.55,43.55,0,0,0,420,98L422,110h17.09l1.66-10.28L441,98a43.55,43.55,0,0,0,12.55-5.19l9.82,7.08,12.08-12.08-4-5.52h0l-3.1-4.3A42.45,42.45,0,0,0,472,70.42,44.86,44.86,0,0,0,473.55,65.48Z"/><polygon class="cls-4" points="455.18 46.73 438.78 46.73 438.78 30.32 422.23 30.32 422.23 46.73 405.83 46.73 405.83 63.27 422.23 63.27 422.23 79.68 438.78 79.68 438.78 63.27 455.18 63.27 455.18 46.73"/></g></g></svg>