<svg width="419" height="409" viewBox="0 0 419 409" fill="none" xmlns="http://www.w3.org/2000/svg">
  <path d="M61.3393 373.58C-20.4465 326.411 -20.4465 250.083 61.3393 202.914C143.125 155.745 275.683 155.831 357.469 202.914C439.255 249.997 439.255 326.411 357.469 373.58C275.683 420.749 143.125 420.749 61.3393 373.58Z" fill="#F3FFFC"/>
  <path d="M70.7035 355.227C70.4458 356.599 69.8444 357.886 69.0712 359.087C67.4389 361.316 65.3771 363.203 62.8857 364.575C52.233 370.664 34.9652 370.664 24.3124 364.575C21.9069 363.289 19.7592 361.402 18.1269 359.087C17.3537 357.972 16.7524 356.685 16.4946 355.313C15.5496 350.682 18.1269 345.879 24.3124 342.363C34.9652 336.188 52.233 336.188 62.8857 342.363C68.9853 345.793 71.6485 350.596 70.7035 355.227Z" fill="#E0E0E0"/>
  <path d="M73.1948 384.472L24.3982 356.342L202.317 253.771L251.199 281.901L73.1948 384.472Z" fill="#E0E0E0"/>
  <path d="M297.504 376.839C320.528 381.385 387.366 382.414 390.458 350.853C392.091 332.586 371.472 318.95 354.978 318.778C348.449 318.693 337.71 319.207 336.851 326.84C335.476 339.361 322.59 340.991 308.673 340.991C300.425 340.991 286.508 340.39 278.175 340.819C271.646 341.162 262.453 343.306 257.986 348.366C247.505 360.287 274.395 372.294 297.504 376.839Z" fill="#D4FFF4"/>
  <path d="M298.793 121.012L397.761 178.043V72.985L298.793 15.9533V121.012Z" fill="white"/>
  <path d="M399.651 179.158L397.761 180.273L296.903 122.212L298.793 121.012L399.651 179.158Z" fill="#FAFAFA"/>
  <path d="M293.209 124.271L401.369 186.619V70.8409L293.209 8.49207V124.271ZM296.903 14.8384L397.761 72.985V180.359L296.903 122.212V14.8384Z" fill="#F0F0F0"/>
  <path d="M296.903 122.212L298.793 121.012V15.9533L296.903 14.8384V122.212Z" fill="#E0E0E0"/>
  <path d="M293.209 8.49204L295.185 7.37714L403.345 69.726L401.369 70.8409L293.209 8.49204Z" fill="#FAFAFA"/>
  <path d="M403.345 69.726L401.369 70.8409V186.619L403.345 185.505V69.726Z" fill="#E0E0E0"/>
  <path d="M396.128 94.1682V96.398L296.903 39.1948L298.793 37.9941L396.128 94.1682Z" fill="#FAFAFA"/>
  <path d="M350.425 45.7127L348.449 44.5978V151.886L350.425 150.771V45.7127Z" fill="#E0E0E0"/>
  <path d="M344.755 42.4537L348.449 44.5978V151.886L344.755 149.828V42.4537Z" fill="#F0F0F0"/>
  <path d="M296.903 39.1948V43.3971L397.761 101.715V97.5128L296.903 39.1948Z" fill="#F0F0F0"/>
  <path d="M348.449 68.9541L350.425 67.7535L397.761 95.1115V97.5128L348.449 68.9541Z" fill="#FAFAFA"/>
  <path d="M68.1263 330.785H19.072L24.1407 351.883C24.5702 354.455 26.3743 356.942 29.8107 358.829C37.4566 363.203 49.8276 363.203 57.3876 358.829C60.9958 356.771 62.8858 354.027 63.0577 351.282L68.1263 330.785Z" fill="#37474F"/>
  <path d="M62.1127 345.279C63.1436 344.679 64.0886 343.993 65.0336 343.221L67.7827 331.986C66.3222 333.53 64.6899 334.902 62.8858 335.931C52.5767 341.934 35.9962 342.02 25.2575 336.445L26.5461 331.385L26.1166 330.871H19.072L24.1407 351.968C24.5702 354.541 26.3743 357.028 29.8107 358.915C35.223 362.002 43.0408 362.946 49.9135 361.574C37.7144 362.517 29.2952 357.2 28.0925 352.226C27.5771 350.253 26.718 345.879 26.718 345.879C36.8553 351.111 52.4049 350.853 62.1127 345.279Z" fill="#263238"/>
  <path d="M70.7035 324.61C70.4458 325.982 69.8444 327.269 69.0712 328.384C67.4389 330.614 65.3771 332.5 62.8857 333.873C52.233 339.962 34.9652 339.962 24.3124 333.873C21.9069 332.586 19.7592 330.699 18.1269 328.384C17.3537 327.269 16.7524 325.982 16.4946 324.61C15.5496 319.979 18.1269 315.176 24.3124 311.66C34.9652 305.485 52.233 305.485 62.8857 311.66C68.9853 315.176 71.6485 319.979 70.7035 324.61Z" fill="#455A64"/>
  <path d="M69.0712 328.384C67.4389 330.614 65.3771 332.5 62.8857 333.873C52.233 339.962 34.9652 339.962 24.3124 333.873C21.9069 332.586 19.7592 330.699 18.1269 328.384C17.3537 327.269 16.7524 325.983 16.4946 324.61L17.6974 332.929C18.2128 336.274 20.7042 339.533 25.1715 342.106C35.3088 347.938 51.7175 347.938 61.9407 342.106C66.3221 339.533 68.8135 336.36 69.4148 333.101L69.5008 332.672L70.7035 324.696C70.3599 325.983 69.8444 327.269 69.0712 328.384Z" fill="#37474F"/>
  <path d="M59.7071 313.461C50.8584 308.316 36.4256 308.316 27.577 313.461C22.5942 316.377 20.3606 320.236 21.0478 324.01C21.5633 326.926 23.711 329.756 27.577 331.9C36.4256 337.046 50.8584 337.046 59.7071 331.9C63.573 329.67 65.7207 326.84 66.2362 324.01C66.8376 320.322 64.6898 316.377 59.7071 313.461Z" fill="#263238"/>
  <path d="M22.5083 327.612C23.7969 329.413 25.601 330.957 27.577 332.072C36.4256 337.217 50.8584 337.217 59.7071 332.072C61.683 330.957 63.4012 329.499 64.7757 327.612C64.6898 324.525 62.628 321.523 58.5903 319.122C50.343 314.405 36.9411 314.405 28.7797 319.122C24.656 321.437 22.5942 324.525 22.5083 327.612Z" fill="#FAFAFA"/>
  <path d="M45.2743 318.092C41.2365 316.978 40.5493 308.144 42.7829 298.882C45.0166 289.791 52.147 276.241 53.6075 276.584C55.068 276.927 56.958 291.592 55.9271 301.369C54.7243 313.118 49.3979 319.122 45.2743 318.092Z" fill="#29B473"/>
  <path opacity="0.3" d="M45.2743 318.092C41.2365 316.978 40.5493 308.144 42.7829 298.882C45.0166 289.791 52.147 276.241 53.6075 276.584C55.068 276.927 56.958 291.592 55.9271 301.369C54.7243 313.118 49.3979 319.122 45.2743 318.092Z" fill="black"/>
  <path opacity="0.5" d="M47.3361 289.534C48.0234 290.649 48.5389 292.621 50.257 292.621C51.6316 292.621 52.3189 291.163 53.6075 290.82C54.6384 290.649 55.5834 290.992 56.3566 291.678L56.2707 290.649C55.5834 290.134 54.7243 289.791 53.8652 289.791C53.0921 289.877 52.4048 290.134 51.8893 290.649C51.288 291.163 50.5148 291.849 49.5698 291.506C48.7107 291.163 48.2811 289.877 47.7657 289.019C47.5079 288.59 47.1643 288.162 46.6488 287.904C46.5629 288.162 46.3911 288.419 46.3052 288.676C46.7348 288.933 47.0784 289.191 47.3361 289.534ZM52.1471 285.932C52.6625 285.589 53.178 285.16 53.5216 284.645C54.123 284.131 54.8962 283.959 55.5834 284.216H55.6693C55.6693 283.873 55.5834 283.616 55.5834 283.273L55.1539 283.187C54.5525 283.102 53.9512 283.187 53.4357 283.53C52.8343 283.959 52.5766 284.645 51.9752 284.988C50.9443 285.589 50.0852 284.474 49.7416 283.616C49.5698 283.187 49.4839 282.844 49.3979 282.415C49.312 282.587 49.1402 282.844 49.0543 283.016C49.1402 283.273 49.2261 283.616 49.312 283.873C49.6557 285.074 50.7725 286.618 52.1471 285.932ZM52.0611 297.681C51.288 298.11 50.6866 298.882 49.8275 299.139C47.7657 299.739 47.2502 296.48 45.8757 295.537C45.3602 295.108 44.6729 294.937 43.9857 295.022C43.8997 295.28 43.8138 295.537 43.7279 295.794C44.0716 295.709 44.4152 295.709 44.7588 295.794C45.6179 296.052 46.2193 296.652 46.5629 297.424C47.2502 298.624 48.1093 300.34 49.7416 299.997C50.4289 299.739 51.1161 299.396 51.7175 298.882C52.4907 298.196 53.5216 297.938 54.5525 298.11C55.1539 298.281 55.6693 298.539 56.1848 298.968L56.2707 298.024C55.6693 297.595 55.068 297.252 54.2948 297.167C53.5216 297.081 52.6625 297.252 52.0611 297.681ZM53.3498 304.799C52.4048 304.628 51.4598 304.714 50.6007 305.142C49.6557 305.657 48.8825 306.6 47.9375 306.943C45.7038 307.801 45.3602 304.542 43.7279 303.77C43.2125 303.513 42.6111 303.427 42.0097 303.427L41.9238 304.199C42.0956 304.199 42.3534 304.199 42.6111 304.199C43.642 304.371 44.5011 305.057 44.9307 306C45.7038 307.458 46.7348 308.659 48.5389 307.801C49.4839 307.372 50.1711 306.429 51.202 306C52.233 305.485 53.5216 305.571 54.4666 306.343C54.7243 306.6 54.8962 306.858 55.068 307.115C55.1539 306.772 55.2398 306.515 55.3257 306.172C54.7243 305.485 54.0371 304.971 53.3498 304.799Z" fill="#29B473"/>
  <path opacity="0.1" d="M45.2743 318.092C49.398 319.207 54.7243 313.118 56.013 301.369C56.3566 298.024 56.4425 294.594 56.2707 291.249C52.9202 293.993 49.5698 299.568 49.5698 299.568C48.4529 296.566 47.0784 293.565 45.6179 290.649C44.5011 293.307 43.5561 296.052 42.8688 298.882C40.5493 308.144 41.2366 316.977 45.2743 318.092Z" fill="black"/>
  <path d="M42.0097 322.981C36.6833 326.411 31.6146 314.233 28.9514 304.971C26.2882 295.709 28.0064 271.609 30.7555 270.323C32.6455 269.38 42.7829 290.992 44.7588 301.54C46.2192 309.087 46.2192 320.236 42.0097 322.981Z" fill="#29B473"/>
  <path opacity="0.1" d="M42.0097 322.981C36.6833 326.411 31.6146 314.233 28.9514 304.971C26.2882 295.709 28.0064 271.609 30.7555 270.323C32.6455 269.38 42.7829 290.992 44.7588 301.54C46.2192 309.087 46.2192 320.236 42.0097 322.981Z" fill="black"/>
  <path d="M30.4119 287.304C32.1301 288.162 33.4188 288.162 34.7933 286.704C36.1679 285.246 36.9411 283.702 38.8311 283.959C38.6592 283.53 38.4874 283.102 38.2297 282.673C37.8861 282.673 37.6283 282.673 37.2847 282.759C35.6524 283.187 34.8792 284.903 33.6765 286.017C31.8724 287.733 29.9824 285.503 27.9206 285.589H27.7487L27.6628 286.704C28.6938 286.704 29.5528 286.875 30.4119 287.304ZM45.1884 303.856C44.9306 303.77 44.587 303.684 44.3293 303.599C43.4702 303.427 42.5252 303.599 41.752 304.199C40.1197 305.4 40.0338 308.058 37.4565 307.372C35.4806 306.858 33.9342 305.571 31.8724 306.6C31.1851 306.943 30.4979 307.458 29.9824 308.058L30.326 309.002C31.0133 308.23 31.9583 307.715 32.9033 307.372C35.137 306.772 36.8552 309.087 39.0888 308.659C40.8929 308.316 41.1506 306.343 42.3534 305.314C43.2124 304.714 44.4152 304.628 45.3602 305.142C45.2743 304.714 45.1884 304.285 45.1884 303.856ZM30.5838 278.556C31.1851 279.414 32.1301 280.357 33.247 279.757C34.3638 279.157 34.6215 277.613 35.3947 276.669L34.9651 275.812C34.192 276.841 33.8483 279.071 32.3019 278.985C31.1851 278.899 30.6697 277.184 29.7247 276.669C29.4669 276.498 29.1233 276.412 28.7797 276.498L28.6938 277.184H28.9515C29.6388 277.27 30.0683 277.956 30.5838 278.556ZM34.6215 296.824C36.7692 297.252 37.8002 294.765 38.7452 293.393C39.4324 292.278 40.4633 291.421 41.6661 290.906C41.4943 290.563 41.4083 290.134 41.2365 289.791C40.807 289.877 40.4633 290.048 40.1197 290.22C39.1747 290.82 38.4015 291.592 37.8002 292.535C37.1988 293.479 36.5974 294.765 35.6524 295.366C34.5356 296.137 33.161 294.937 32.0442 294.765C30.9274 294.594 29.8106 294.679 28.7797 295.022C28.436 295.108 28.0924 295.28 27.7487 295.537C27.7487 296.052 27.8347 296.566 27.8347 297.081C28.7797 296.309 29.9824 295.88 31.271 295.966C32.4738 295.966 33.4188 296.566 34.6215 296.824Z" fill="#29B473"/>
  <path opacity="0.1" d="M41.924 291.935C40.1199 294.079 38.6594 296.48 37.5426 299.053C37.5426 299.053 31.7007 291.163 27.663 287.561C27.4053 294.079 27.7489 300.94 28.9516 304.971C31.6148 314.233 36.5976 326.411 42.0099 322.981C46.3053 320.236 46.2194 309.087 44.759 301.54C44.0717 298.196 43.1267 295.022 41.924 291.935Z" fill="black"/>
  <path d="M41.5802 329.241C31.7865 329.756 22.5942 323.838 16.6665 316.377C10.7387 308.916 6.09962 293.479 7.47417 292.535C8.84872 291.592 24.6561 301.283 30.5838 308.316C38.3157 317.492 41.5802 329.241 41.5802 329.241Z" fill="#29B473"/>
  <path opacity="0.2" d="M41.5802 329.241C31.7865 329.756 22.5942 323.838 16.6665 316.377C10.7387 308.916 6.09962 293.479 7.47417 292.535C8.84872 291.592 24.6561 301.283 30.5838 308.316C38.3157 317.492 41.5802 329.241 41.5802 329.241Z" fill="black"/>
  <path d="M20.1888 304.714C20.7902 303.77 20.4466 302.655 20.2747 301.712C20.1888 301.026 20.2747 300.34 20.7043 299.825L19.5875 299.053C19.1579 299.825 18.9861 300.768 19.1579 301.712C19.3297 302.827 19.5875 304.285 18.127 304.456C16.4947 304.714 14.1752 303.17 12.8865 304.885C12.2852 305.657 12.457 306.686 12.457 307.629C12.457 308.058 12.2852 308.487 12.1134 308.83C12.2852 309.173 12.457 309.602 12.6288 309.945C13.0584 309.43 13.2302 308.916 13.402 308.316C13.5738 307.201 13.0584 305.743 14.6047 305.485C15.6356 305.314 16.6666 305.828 17.7834 305.914C18.7284 305.828 19.6734 305.485 20.1888 304.714ZM14.7765 296.566C14.8625 296.395 15.0343 296.223 15.2061 296.137L14.347 295.623C13.6597 296.566 13.6597 297.853 12.8865 298.796C12.457 299.311 11.6838 299.568 11.0824 299.311C10.3952 299.139 9.70789 299.139 9.02061 299.396C8.84879 299.482 8.76288 299.568 8.59106 299.654C8.67697 299.911 8.76288 300.082 8.84879 300.34C9.19243 300.168 9.53607 300.082 9.87971 300.082C10.6529 300.082 11.3402 300.425 12.0274 300.425C12.5429 300.34 12.9724 300.168 13.3161 299.739C14.0893 298.71 14.0893 297.51 14.7765 296.566ZM25.6011 309.688C26.3743 309.002 26.8898 308.144 27.0616 307.201C27.1475 306.515 27.2334 305.828 27.3193 305.142L26.3743 304.285C26.2025 305.4 26.2884 306.6 25.687 307.715C25.0857 308.83 23.8829 309.43 22.6802 309.345C21.7352 309.259 20.7902 309.516 20.1029 310.202C19.5016 310.974 19.1579 311.918 19.1579 312.861C18.9861 314.233 18.7284 315.52 17.4397 316.291C17.182 316.377 17.0102 316.549 16.7525 316.634C17.0102 316.892 17.182 317.235 17.4397 317.492C17.9552 317.235 18.4707 316.806 18.8143 316.377C20.4466 314.405 19.1579 310.545 22.5943 310.545C23.7111 310.46 24.742 310.202 25.6011 309.688ZM30.8416 310.631C31.0134 310.288 31.2712 309.945 31.6148 309.602C31.3571 309.259 31.0134 308.916 30.7557 308.573C29.9825 309.43 29.3812 310.46 29.2093 311.66C29.0375 312.947 28.608 314.233 27.9207 315.348C27.0616 316.463 25.687 316.291 24.5702 316.978C23.6252 317.492 22.852 318.35 22.5084 319.379C22.2507 320.151 22.0788 321.008 21.9929 321.866C22.3366 322.123 22.6802 322.466 23.0239 322.724C23.0239 322.638 23.0239 322.638 23.0239 322.552C23.1957 321.18 23.4534 319.722 24.4843 318.693C25.5152 317.664 26.9757 317.835 28.0066 317.063C30.1543 315.605 29.8107 312.689 30.8416 310.631ZM35.1371 314.748C34.8794 315.005 34.6216 315.176 34.3639 315.52C32.6457 317.321 32.9034 319.722 32.3021 321.952C32.0443 323.152 31.2712 324.267 30.1543 324.782C29.2093 325.211 28.1784 324.782 27.3193 325.554L27.2334 325.639C27.7489 325.897 28.1784 326.154 28.6939 326.411C28.9516 326.326 29.2952 326.326 29.553 326.326C30.0684 326.326 30.5839 326.154 31.0993 325.983C31.8725 325.554 32.5598 324.782 32.9034 323.924C33.9344 321.78 33.5048 319.293 34.7075 317.235C34.9653 316.72 35.3089 316.291 35.7384 315.948C35.6525 315.52 35.3948 315.091 35.1371 314.748Z" fill="#29B473"/>
  <path opacity="0.2" d="M19.5015 298.967C20.4465 307.029 24.7419 328.898 41.5802 329.241C41.5802 329.241 38.3156 317.578 30.4979 308.316C28.0065 305.314 23.711 301.883 19.5015 298.967Z" fill="black"/>
  <path d="M41.5802 329.241C33.8483 328.127 27.2333 323.238 23.8828 308.744C20.5323 294.251 19.931 287.733 22.3364 286.275C24.9996 284.645 35.5665 299.225 38.917 305.657C47.422 321.78 41.5802 329.241 41.5802 329.241Z" fill="#29B473"/>
  <path opacity="0.2" d="M27.3193 302.398C29.2093 302.998 31.7866 303.684 33.1611 301.712C33.8484 300.769 34.0202 299.568 34.5357 298.539C34.1921 298.024 33.8484 297.595 33.5048 297.081C32.6457 298.453 32.6457 300.425 31.1852 301.283C30.0684 301.883 28.7798 301.455 27.577 301.112C26.4602 300.683 25.2575 300.511 24.0547 300.597C23.3675 300.683 22.7661 300.94 22.1647 301.283L22.4225 302.569C22.6802 302.398 22.9379 302.312 23.1956 302.226C24.6561 301.798 26.0307 301.883 27.3193 302.398ZM24.9997 294.937C25.5152 295.194 26.2025 295.366 26.8038 295.28C28.0066 295.022 28.6079 293.908 29.2093 292.964C29.3811 292.707 29.5529 292.45 29.8107 292.192L29.1234 291.335L28.9516 291.506C28.2643 292.364 27.577 294.165 26.2884 294.165C25.6011 294.079 24.9997 293.822 24.3984 293.65C23.8829 293.565 23.2816 293.479 22.7661 293.65C22.2506 293.736 21.7352 293.908 21.2197 294.251C21.2197 294.594 21.3056 294.937 21.3056 295.28C21.907 294.937 22.6802 294.679 23.3675 294.679C23.8829 294.594 24.4843 294.679 24.9997 294.937ZM33.4189 310.974C34.1921 309.945 34.7075 308.659 35.7384 307.887C36.9412 307.115 38.3157 306.858 39.6903 307.201C39.4325 306.686 39.1748 306.086 38.8312 305.571C37.9721 305.4 37.0271 305.485 36.168 305.743C34.9652 306.086 33.9343 306.858 33.247 307.887C32.6457 308.916 32.0443 309.859 31.2711 310.717C29.7248 312.175 27.577 310.888 25.8588 310.545C25.3434 310.46 24.8279 310.374 24.3125 310.46C24.4843 310.974 24.5702 311.489 24.742 311.918C25.4293 311.918 26.1166 312.003 26.8038 312.261C29.3811 313.118 31.7007 313.547 33.4189 310.974ZM42.3535 313.804C42.1816 313.804 42.0957 313.89 41.9239 313.89C40.893 314.319 40.0339 315.005 39.3466 315.863C38.5734 316.806 38.2298 318.007 37.4566 318.95C36.8552 319.979 35.4807 320.494 34.3639 319.979C33.247 319.55 32.0443 319.465 30.9275 319.722C30.1543 319.979 29.3811 320.494 28.7798 321.094C29.0375 321.523 29.2952 321.866 29.5529 322.209C30.0684 321.78 30.5839 321.437 31.1852 321.266C32.0443 321.008 32.9893 321.18 33.8484 321.609C35.8243 322.552 38.2298 321.866 39.2607 319.979C39.948 319.036 40.2916 317.835 41.0648 316.978C41.4944 316.463 42.0098 316.034 42.6112 315.777C42.6971 315.091 42.5253 314.49 42.3535 313.804Z" fill="white"/>
  <path opacity="0.15" d="M38.9171 305.657C38.3157 304.456 37.4566 303.084 36.5116 301.455C33.1611 311.746 32.1302 326.754 41.6662 329.241C41.5802 329.241 47.4221 321.78 38.9171 305.657Z" fill="black"/>
  <path d="M45.6179 329.241C55.4116 329.756 64.6039 323.838 70.5317 316.377C76.4594 308.916 81.0985 293.479 79.8099 292.535C78.5212 291.592 62.5421 301.283 56.7002 308.316C48.8825 317.492 45.6179 329.241 45.6179 329.241Z" fill="#29B473"/>
  <path opacity="0.2" d="M45.6179 329.241C55.4116 329.756 64.6039 323.838 70.5317 316.377C76.4594 308.916 81.0985 293.479 79.8099 292.535C78.5212 291.592 62.5421 301.283 56.7002 308.316C48.8825 317.492 45.6179 329.241 45.6179 329.241Z" fill="black"/>
  <path d="M69.415 305.657C70.4459 305.571 71.4768 305.057 72.5937 305.228C74.14 305.485 73.7105 306.943 73.7964 308.058C73.8823 308.659 74.14 309.259 74.4837 309.688C74.6555 309.345 74.8273 308.916 74.9991 308.573C74.8273 308.23 74.6555 307.801 74.6555 307.372C74.6555 306.429 74.9132 305.485 74.2259 304.628C72.9373 302.998 70.6177 304.456 68.9855 304.199C67.4391 304.027 67.7827 302.57 67.8686 301.455C68.0405 300.597 67.9545 299.654 67.525 298.796L66.4082 299.568C66.7518 300.168 66.9236 300.769 66.8377 301.455C66.6659 302.484 66.4082 303.599 66.9236 304.456C67.6109 305.485 68.5559 305.828 69.415 305.657ZM73.9682 299.654C74.3118 299.997 74.7414 300.254 75.2568 300.34C76.03 300.425 76.7173 299.997 77.4046 299.997C77.7482 299.997 78.0919 300.082 78.4355 300.254C78.5214 299.997 78.6073 299.739 78.6932 299.568C78.6073 299.482 78.4355 299.396 78.2637 299.311C77.5764 299.053 76.8891 299.053 76.2018 299.225C75.5146 299.482 74.8273 299.225 74.3118 298.71C73.6246 297.767 73.6246 296.48 72.8514 295.537L71.9923 296.052C72.1641 296.137 72.3359 296.309 72.4218 296.48C73.1091 297.51 73.1091 298.71 73.9682 299.654ZM64.6041 310.374C68.1264 310.374 66.7518 314.233 68.3841 316.206C68.7277 316.634 69.2432 316.978 69.7586 317.235C70.0164 316.978 70.2741 316.72 70.4459 316.377C70.1882 316.291 70.0164 316.206 69.7586 316.034C68.47 315.262 68.2982 313.976 68.0405 312.604C67.9545 311.66 67.6109 310.717 67.0954 309.945C66.4082 309.259 65.4632 309.002 64.4323 309.087C63.2295 309.173 62.0268 308.573 61.4254 307.544C60.8241 306.429 60.91 305.314 60.7381 304.113L59.7931 304.971C59.8791 305.657 59.965 306.343 60.0509 307.029C60.2227 308.058 60.8241 308.916 61.5113 309.602C62.4563 310.288 63.4873 310.545 64.6041 310.374ZM59.1059 317.063C60.2227 317.835 61.6832 317.664 62.7141 318.693C63.745 319.722 63.9168 321.094 64.1745 322.552V322.724C64.5182 322.466 64.8618 322.209 65.2054 321.866C65.1195 321.008 64.9477 320.236 64.69 319.379C64.2604 318.35 63.5732 317.492 62.6282 316.978C61.5113 316.377 60.1368 316.463 59.2777 315.348C58.5904 314.233 58.1609 313.032 57.9891 311.746C57.7313 310.631 57.2159 309.516 56.4427 308.659C56.1849 309.002 55.8413 309.345 55.5836 309.688C55.8413 310.031 56.099 310.374 56.2709 310.717C57.3877 312.689 57.044 315.605 59.1059 317.063ZM51.374 315.948C51.8036 316.291 52.1472 316.72 52.4049 317.149C53.6936 319.122 53.264 321.694 54.209 323.838C54.5527 324.696 55.24 325.382 56.099 325.897C56.6145 326.154 57.13 326.24 57.6454 326.24C57.9031 326.24 58.2468 326.24 58.5045 326.326C59.02 326.068 59.4495 325.811 59.965 325.554L59.8791 325.468C59.1059 324.696 57.9891 325.125 57.044 324.696C55.9272 324.096 55.154 323.067 54.9822 321.866C54.3809 319.636 54.5527 317.235 52.9204 315.434C52.6627 315.177 52.4049 314.919 52.1472 314.662C51.8036 315.091 51.6318 315.52 51.374 315.948Z" fill="#29B473"/>
  <path opacity="0.2" d="M67.6967 298.967C66.7517 307.029 62.4562 328.898 45.6179 329.241C45.6179 329.241 48.8825 317.578 56.7002 308.316C59.1916 305.314 63.4871 301.883 67.6967 298.967Z" fill="black"/>
  <path d="M45.6179 329.241C53.3498 328.127 59.9648 323.238 63.3153 308.744C66.6657 294.251 67.2671 287.733 64.8616 286.275C62.1985 284.645 51.6316 299.225 48.2811 305.657C39.7761 321.78 45.6179 329.241 45.6179 329.241Z" fill="#29B473"/>
  <path opacity="0.2" d="M63.9167 302.226C64.1745 302.312 64.4322 302.484 64.6899 302.569L64.9476 301.283C64.3463 300.94 63.7449 300.768 63.0576 300.597C61.8549 300.511 60.6522 300.683 59.5353 301.112C58.4185 301.455 57.1299 301.883 55.9271 301.283C54.4667 300.511 54.4667 298.453 53.6076 297.081C53.264 297.595 52.9203 298.024 52.5767 298.539C53.0921 299.482 53.264 300.768 53.9512 301.712C55.4117 303.599 57.9031 302.998 59.7931 302.398C61.1676 301.883 62.6281 301.798 63.9167 302.226ZM63.9167 294.594C64.6899 294.679 65.3772 294.851 65.9786 295.194C65.9786 294.851 66.0645 294.508 66.1504 294.165C65.7208 293.908 65.1195 293.65 64.604 293.564C64.0885 293.479 63.4872 293.479 62.9717 293.564C62.3704 293.822 61.6831 293.993 61.0817 294.079C59.7072 294.079 59.1058 292.278 58.3326 291.42C58.2467 291.335 58.2467 291.335 58.1608 291.249L57.4735 292.107C57.7312 292.364 57.9031 292.621 58.0749 292.878C58.6762 293.822 59.2776 294.937 60.4803 295.194C61.0817 295.28 61.6831 295.108 62.2844 294.851C62.714 294.679 63.3154 294.594 63.9167 294.594ZM60.3944 312.261C61.0817 312.089 61.769 311.918 62.4563 311.918C62.6281 311.403 62.714 310.974 62.8858 310.46C62.3703 310.46 61.8549 310.46 61.3394 310.545C59.6213 310.888 57.4735 312.175 55.9271 310.717C55.154 309.859 54.5526 308.916 53.9512 307.887C53.264 306.858 52.233 306.086 51.0303 305.743C50.1712 305.485 49.2262 305.4 48.3671 305.571C48.1094 306.086 47.7657 306.686 47.508 307.201C48.8826 306.858 50.2571 307.115 51.4599 307.887C52.5767 308.659 53.0921 309.859 53.7794 310.974C55.4976 313.547 57.8172 313.118 60.3944 312.261ZM44.4153 315.691C45.0166 315.948 45.618 316.377 46.0476 316.892C46.8207 317.835 47.1644 318.95 47.8517 319.893C48.9685 321.78 51.3739 322.552 53.3499 321.523C54.123 321.094 55.068 321.008 56.0131 321.18C56.6144 321.351 57.2158 321.694 57.6453 322.123C57.9031 321.78 58.1608 321.437 58.4185 321.008C57.8172 320.408 57.044 319.979 56.2708 319.636C55.154 319.379 53.9512 319.465 52.9203 319.893C51.8035 320.408 50.4289 319.979 49.8276 318.864C49.1403 317.921 48.7108 316.72 47.9376 315.777C47.2503 314.919 46.3912 314.233 45.3603 313.804C45.2744 313.719 45.1026 313.719 45.0166 313.719C44.673 314.49 44.5012 315.091 44.4153 315.691Z" fill="white"/>
  <path opacity="0.15" d="M48.2811 305.657C48.8825 304.456 49.7416 303.084 50.7725 301.455C54.123 311.746 55.1539 326.754 45.6179 329.241C45.6179 329.241 39.7761 321.78 48.2811 305.657Z" fill="black"/>
  <path d="M43.6419 330.785C50.1711 330.785 52.3188 321.952 51.6315 314.833C50.9442 307.715 46.477 294.165 43.6419 294.165C40.8069 294.165 36.2537 307.715 35.6524 314.833C35.051 321.952 37.1128 330.785 43.6419 330.785Z" fill="#29B473"/>
  <path opacity="0.3" d="M43.6419 330.785C50.1711 330.785 52.3188 321.952 51.6315 314.833C50.9442 307.715 46.477 294.165 43.6419 294.165C40.8069 294.165 36.2537 307.715 35.6524 314.833C35.051 321.952 37.1128 330.785 43.6419 330.785Z" fill="white"/>
  <path opacity="0.2" d="M43.5562 303.513C44.5871 303.341 45.2744 302.484 45.9617 301.798C46.563 301.283 47.2503 300.94 47.9376 300.768C47.7658 300.34 47.5939 299.911 47.4221 299.568C46.3912 299.911 45.4462 300.511 44.673 301.283C44.3294 301.712 43.8139 302.055 43.2985 302.312C42.5253 302.569 42.0098 302.141 41.4944 301.626C40.893 301.026 40.2057 300.511 39.3466 300.34H39.2607C39.0889 300.683 39.003 301.026 38.8312 301.369C39.6903 301.54 40.4635 301.969 41.0648 302.655C41.838 303.256 42.6971 303.599 43.5562 303.513ZM38.7453 311.231C40.893 312.947 42.6971 310.545 44.0717 309.087C45.1885 307.887 46.4771 307.629 47.7658 308.744C48.453 309.516 49.3121 310.117 50.2571 310.545C50.5149 310.631 50.7726 310.717 51.0303 310.717C50.9444 310.288 50.8585 309.859 50.7726 309.516C49.7417 309.087 48.8826 308.487 48.1094 307.801C46.1335 306.171 44.4153 306.858 42.8689 308.659C42.0098 309.688 40.5494 311.403 39.0889 310.374C38.2298 309.688 37.8003 308.659 36.9412 308.058C36.8553 308.401 36.7694 308.744 36.6834 309.087C37.4566 309.516 37.8862 310.631 38.7453 311.231ZM41.1507 319.036C42.3535 320.665 43.8998 321.094 45.618 319.636C46.4771 318.95 46.9926 318.007 47.8517 317.406C49.0544 316.549 50.5149 316.978 51.8035 317.492C51.8035 317.063 51.8035 316.72 51.8035 316.377C51.2021 316.12 50.6008 315.948 49.9994 315.777C49.0544 315.605 48.0235 315.777 47.1644 316.377C46.2194 317.063 45.7039 318.092 44.7589 318.779C44.2435 319.293 43.5562 319.465 42.8689 319.379C42.0957 319.122 41.6662 318.178 41.1507 317.664C40.4635 316.977 39.6044 316.463 38.5735 316.206C37.5425 315.948 36.4257 316.034 35.4807 316.549C35.4807 316.892 35.4807 317.321 35.4807 317.664C37.4566 316.634 39.8621 317.235 41.1507 319.036ZM47.3362 325.639C46.3053 326.497 45.0167 326.84 43.6421 326.754C42.9548 326.754 42.2676 326.411 41.7521 325.983C41.4085 325.639 41.1507 325.125 40.7212 324.782C40.0339 324.096 39.1748 323.667 38.3157 323.581C37.6284 323.495 36.9412 323.581 36.2539 323.753C36.3398 324.182 36.5116 324.525 36.5975 324.953C37.7144 324.525 38.9171 324.696 39.8621 325.382C40.6353 325.982 40.9789 326.926 41.838 327.44C42.6112 327.869 43.4703 328.127 44.4153 328.127C45.3603 328.127 46.3053 327.869 47.0785 327.44C48.0235 326.926 48.7108 326.068 49.5699 325.554C49.8276 325.382 50.0853 325.296 50.343 325.211C50.5149 324.696 50.6867 324.267 50.8585 323.753C50.5149 323.753 50.2571 323.838 49.9135 323.924C49.0544 324.353 48.1094 324.953 47.3362 325.639Z" fill="white"/>
  <path d="M231.955 1.11709L68.1262 95.4551C66.3221 96.6558 65.2053 98.6283 65.0334 100.772V371.094C65.1194 373.238 66.3221 375.21 68.1262 376.411L68.7276 376.754C70.6176 377.697 72.9371 377.697 74.8271 376.754L238.656 282.33C240.461 281.13 241.577 279.157 241.749 277.013V6.69162C241.663 4.54757 240.461 2.57505 238.656 1.37438L238.055 1.03133C236.165 0.0879516 233.845 0.087952 231.955 1.11709Z" fill="#3564B9"/>
  <path opacity="0.45" d="M231.955 1.11709L68.1262 95.4551C66.3221 96.6558 65.2053 98.6283 65.0334 100.772V371.094C65.1194 373.238 66.3221 375.21 68.1262 376.411L68.7276 376.754C70.6176 377.697 72.9371 377.697 74.8271 376.754L238.656 282.33C240.461 281.13 241.577 279.157 241.749 277.013V6.69162C241.663 4.54757 240.461 2.57505 238.656 1.37438L238.055 1.03133C236.165 0.0879516 233.845 0.087952 231.955 1.11709Z" fill="black"/>
  <path d="M241.749 277.184C241.749 279.843 239.859 281.558 237.54 282.93L76.0299 375.982C73.7103 377.354 71.8203 376.239 71.8203 373.495V105.918C71.8203 102.916 73.4526 100.172 76.0299 98.6278L237.54 5.49042C238.914 4.71856 240.632 5.14737 241.406 6.51956C241.663 6.94837 241.749 7.46294 241.749 7.97751V277.184Z" fill="#3564B9"/>
  <path opacity="0.3" d="M241.749 277.184C241.749 279.843 239.859 281.558 237.54 282.93L76.0299 375.982C73.7103 377.354 71.8203 376.239 71.8203 373.495V105.918C71.8203 102.916 73.4526 100.172 76.0299 98.6278L237.54 5.49042C238.914 4.71856 240.632 5.14737 241.406 6.51956C241.663 6.94837 241.749 7.46294 241.749 7.97751V277.184Z" fill="black"/>
  <path d="M241.749 6.69106V7.89173C241.749 6.34801 240.461 5.06158 238.914 5.06158C238.399 5.06158 237.969 5.23311 237.54 5.40463L76.0299 98.542C74.7413 99.3139 73.7103 100.343 72.9372 101.629L72.8512 101.715L65.8926 97.6844C66.408 96.741 67.1812 95.8834 68.1262 95.3688L231.956 1.03078C233.846 0.0873971 236.165 0.0873971 238.055 1.03078L238.656 1.37383C240.546 2.57449 241.663 4.54701 241.749 6.69106Z" fill="#3564B9"/>
  <path opacity="0.2" d="M241.749 6.69106V7.89173C241.749 6.34801 240.461 5.06158 238.914 5.06158C238.399 5.06158 237.969 5.23311 237.54 5.40463L76.0299 98.542C74.7413 99.3139 73.7103 100.343 72.9372 101.629L72.8512 101.715L65.8926 97.6844C66.408 96.741 67.1812 95.8834 68.1262 95.3688L231.956 1.03078C233.846 0.0873971 236.165 0.0873971 238.055 1.03078L238.656 1.37383C240.546 2.57449 241.663 4.54701 241.749 6.69106Z" fill="black"/>
  <path opacity="0.25" d="M237.797 270.923C237.797 273.668 235.821 275.469 233.416 276.841L80.7549 364.833C78.3495 366.205 76.3735 365.09 76.3735 362.346V121.44C76.3735 118.353 78.0058 115.523 80.669 113.893L233.416 25.9875C234.791 25.2156 236.595 25.6444 237.368 27.0166C237.626 27.4454 237.711 27.96 237.797 28.4746V270.923Z" fill="black"/>
  <path d="M80.3253 117.238L232.385 29.5895C233.158 29.1607 234.189 29.1607 234.962 29.5895L236.423 30.4471C237.196 30.9617 237.711 31.8193 237.711 32.6769V275.726C237.625 276.669 237.196 277.441 236.423 277.956L84.363 365.604C83.5898 366.033 82.5589 366.033 81.7857 365.604L80.3253 364.747C79.5521 364.232 79.0366 363.375 79.0366 362.517V119.554C79.0366 118.61 79.5521 117.753 80.3253 117.238Z" fill="#F5F5F5"/>
  <path d="M84.1053 365.862C83.9335 365.948 83.7616 365.948 83.5898 365.948H83.3321C83.0744 365.948 82.8166 365.948 82.5589 365.948C82.3871 365.948 82.2153 365.862 82.0435 365.862C81.9575 365.862 81.8716 365.776 81.7857 365.69L80.3253 364.833C79.5521 364.318 79.0366 363.46 79.0366 362.603V119.554C79.0366 119.125 79.2084 118.696 79.3803 118.267L83.418 120.583C83.1603 121.012 83.0744 121.44 83.0744 121.869V364.918C83.0744 365.604 83.5039 365.948 84.1053 365.862Z" fill="#E0E0E0"/>
  <path d="M236.509 30.4471L235.048 29.5895C234.275 29.1607 233.244 29.1607 232.471 29.5895L80.4112 117.238C79.638 117.753 79.1226 118.61 79.1226 119.468V135.848L83.1603 138.25L237.883 49.0574V32.6769C237.711 31.8193 237.282 30.9617 236.509 30.4471Z" fill="#3564B9"/>
  <path opacity="0.4" d="M236.509 30.4471L235.048 29.5895C234.275 29.1607 233.244 29.1607 232.471 29.5895L80.4112 117.238C79.638 117.753 79.1226 118.61 79.1226 119.468V135.848L83.1603 138.25L237.883 49.0574V32.6769C237.711 31.8193 237.282 30.9617 236.509 30.4471Z" fill="white"/>
  <path d="M237.711 32.2481C237.54 31.7335 237.024 31.562 236.423 31.9051L84.3631 119.554C84.0195 119.811 83.6758 120.154 83.4181 120.497L79.3804 118.182C79.6381 117.753 79.8958 117.41 80.3254 117.238L232.385 29.5895C233.158 29.1607 234.189 29.1607 234.962 29.5895L236.423 30.4471C237.11 30.8759 237.54 31.562 237.711 32.2481Z" fill="#3564B9"/>
  <path opacity="0.6" d="M237.711 32.2481C237.54 31.7335 237.024 31.562 236.423 31.9051L84.3631 119.554C84.0195 119.811 83.6758 120.154 83.4181 120.497L79.3804 118.182C79.6381 117.753 79.8958 117.41 80.3254 117.238L232.385 29.5895C233.158 29.1607 234.189 29.1607 234.962 29.5895L236.423 30.4471C237.11 30.8759 237.54 31.562 237.711 32.2481Z" fill="white"/>
  <path d="M79.0366 119.554V135.934L83.0744 138.25V121.869C83.0744 121.44 83.2462 121.012 83.418 120.583L79.3803 118.267C79.1225 118.61 79.0366 119.039 79.0366 119.554Z" fill="#3564B9"/>
  <path d="M208.073 74.2714L229.034 62.179V65.3522L208.073 77.4446V74.2714Z" fill="#3564B9"/>
  <path d="M200.255 84.9917L229.035 68.4396V71.6128L200.255 88.1649V84.9917Z" fill="#3564B9"/>
  <path d="M208.33 86.7069L229.034 74.786V77.8734L208.33 89.7943V86.7069Z" fill="#3564B9"/>
  <path d="M89.4316 142.709L121.991 123.928V127.015L89.4316 145.797V142.709Z" fill="#3564B9"/>
  <path d="M89.4316 148.884L138.314 120.754V123.928L89.4316 152.057V148.884Z" fill="#3564B9"/>
  <path d="M89.4316 155.145L132.902 130.188V133.276L89.4316 158.318V155.145Z" fill="#3564B9"/>
  <path d="M89.4316 166.808L229.034 86.3638V94.4254L89.4316 174.87V166.808Z" fill="#3564B9"/>
  <path opacity="0.4" d="M89.4316 166.808L229.034 86.3638V94.4254L89.4316 174.87V166.808Z" fill="white"/>
  <path d="M228.175 95.8834V126.072L90.2907 205.487V175.299L228.175 95.8834ZM229.034 94.4255L89.4316 174.87V207.031L229.034 126.586V94.4255Z" fill="#3564B9"/>
  <path d="M228.413 110.431L89.6458 190.372L90.0751 191.114L228.843 111.173L228.413 110.431Z" fill="#3564B9"/>
  <path d="M163.142 148.713H162.283V164.321H163.142V148.713Z" fill="#3564B9"/>
  <path d="M89.4316 215.092L229.034 134.648V142.709L89.4316 223.154V215.092Z" fill="#3564B9"/>
  <path opacity="0.4" d="M89.4316 215.092L229.034 134.648V142.709L89.4316 223.154V215.092Z" fill="white"/>
  <path d="M228.175 144.167V174.356L90.2907 253.857V223.669L228.175 144.167ZM229.034 142.709L89.4316 223.154V255.315L229.034 174.87V142.709Z" fill="#3564B9"/>
  <path d="M228.383 158.601L89.6479 238.622L90.0778 239.365L228.813 159.344L228.383 158.601Z" fill="#3564B9"/>
  <path d="M135.651 213.291H134.792V228.986H135.651V213.291Z" fill="#3564B9"/>
  <path d="M199.396 160.462H198.537V176.071H199.396V160.462Z" fill="#3564B9"/>
  <path d="M89.4316 263.376L229.034 182.932V190.908L89.4316 271.438V263.376Z" fill="#3564B9"/>
  <path opacity="0.4" d="M89.4316 263.376L229.034 182.932V190.908L89.4316 271.438V263.376Z" fill="white"/>
  <path d="M228.175 192.451V206.516L90.2907 286.018V271.867L228.175 192.451ZM229.034 190.908L89.4316 271.438V287.561L229.034 207.117V190.908Z" fill="#3564B9"/>
  <path d="M136.338 245.281H135.479V260.289H136.338V245.281Z" fill="#3564B9"/>
  <path d="M182.3 218.609H181.441V233.703H182.3V218.609Z" fill="#3564B9"/>
  <path d="M89.4316 287.475L229.034 207.031V215.092L89.4316 295.537V287.475Z" fill="#3564B9"/>
  <path opacity="0.4" d="M89.4316 287.475L229.034 207.031V215.092L89.4316 295.537V287.475Z" fill="white"/>
  <path d="M228.175 216.55V230.701L90.2907 310.202V296.052L228.175 216.55ZM229.034 215.092L89.4316 295.623V311.746L229.034 231.13V215.092Z" fill="#3564B9"/>
  <path d="M136.338 269.38H135.479V284.388H136.338V269.38Z" fill="#3564B9"/>
  <path d="M182.3 242.794H181.441V257.888H182.3V242.794Z" fill="#3564B9"/>
  <path d="M89.4316 311.66L229.034 231.13V239.191L89.4316 319.636V311.66Z" fill="#3564B9"/>
  <path opacity="0.4" d="M89.4316 311.66L229.034 231.13V239.191L89.4316 319.636V311.66Z" fill="white"/>
  <path d="M228.175 240.649V254.8L90.2907 334.301V320.236L228.175 240.649ZM229.034 239.192L89.4316 319.636V335.759L229.034 255.315V239.192Z" fill="#3564B9"/>
  <path d="M136.338 293.479H135.479V308.487H136.338V293.479Z" fill="#3564B9"/>
  <path d="M182.3 266.893H181.441V281.987H182.3V266.893Z" fill="#3564B9"/>
  <path d="M228.175 255.829V269.98L182.3 296.309V282.158L228.175 255.829ZM229.035 254.371L181.441 281.729V297.853L229.035 270.495V254.371Z" fill="#3564B9"/>
  <path d="M89.4316 343.564L159.963 302.913V309.688L89.4316 350.339V343.564Z" fill="#3564B9"/>
  <g opacity="0.25">
  <path opacity="0.25" d="M202.575 40.567V53.6028C202.403 57.2048 200.513 60.5495 197.42 62.4363L172.077 77.0158C170.788 77.7019 170.101 79.1598 169.328 80.7036C168.812 81.8185 168.125 82.9334 167.352 83.8767C165.376 86.1066 161.08 88.4221 158.073 89.3655C157.128 89.7085 156.098 89.9658 155.067 90.0516C154.723 90.1374 154.293 90.1374 153.864 90.2231C151.115 90.5662 147.678 91.0807 145.617 92.1956L115.978 109.262C115.205 109.777 114.346 110.034 113.401 110.034C112.799 110.034 112.198 109.863 111.682 109.605C110.394 108.748 109.706 107.29 109.792 105.746V92.7102C109.964 89.1082 111.854 85.7635 114.947 83.8767L124.912 78.1307C124.998 78.1307 124.998 78.1307 125.084 78.0449C125.6 77.7877 126.201 78.1307 126.459 78.6453C126.631 79.0741 126.459 79.5886 126.115 79.8459L126.029 79.9317L116.064 85.6777C113.658 87.2215 112.198 89.8801 112.026 92.7102V105.746C111.768 106.689 112.284 107.719 113.315 107.976C113.916 108.147 114.603 107.976 115.033 107.461L144.672 90.3946C147.077 89.0225 150.771 88.5079 153.692 88.1648C154.122 88.0791 154.551 88.0791 154.895 87.9933C155.84 87.8218 156.699 87.6503 157.558 87.393C160.221 86.5354 164.259 84.3913 165.891 82.5046C166.578 81.6469 167.094 80.7036 167.523 79.7602C168.383 78.0449 169.242 76.2439 171.046 75.2148L196.389 60.6353C198.795 59.0916 200.255 56.4329 200.427 53.6028V40.567C200.685 39.6236 200.169 38.6802 199.224 38.3372C198.623 38.1657 197.935 38.3372 197.42 38.8518L188.829 43.8259C188.571 43.1399 188.142 42.5395 187.712 42.025L196.389 37.0508C198.021 35.7643 200.427 36.0216 201.801 37.6511C202.489 38.423 202.832 39.5379 202.575 40.567Z" fill="black"/>
  </g>
  <path d="M184.104 40.8243C184.963 40.3955 185.994 40.4812 186.767 41.0816C189.001 42.5395 190.375 44.9409 190.547 47.5995C190.633 48.5428 190.203 49.4862 189.43 50.0008L129.38 84.6486L124.053 75.4721L184.104 40.8243Z" fill="#37474F"/>
  <path d="M126.802 80.0175L189.516 43.8259C188.915 42.711 187.97 41.6819 186.853 40.9958C186.767 40.91 186.595 40.91 186.509 40.8243L124.74 76.4155L126.802 80.0175Z" fill="#455A64"/>
  <path d="M126.802 75.7294C124.74 74.5287 123.022 75.4721 123.022 77.8734C123.194 80.532 124.569 82.9334 126.802 84.3913C128.864 85.592 130.582 84.6486 130.582 82.2473C130.41 79.5887 128.95 77.1016 126.802 75.7294Z" fill="#263238"/>
  <path d="M203.691 41.5104V54.5462C203.519 58.1482 201.629 61.4929 198.537 63.3796L173.193 77.9592C171.905 78.6453 171.218 80.1032 170.444 81.6469C169.929 82.7618 169.242 83.8767 168.468 84.8201C166.492 87.0499 162.197 89.3655 159.19 90.3089C158.159 90.6519 157.214 90.8234 156.183 90.995C155.84 91.0807 155.41 91.0807 154.981 91.1665C152.232 91.5095 148.795 92.0241 146.733 93.139L117.18 110.206C116.407 110.72 115.548 110.977 114.603 110.977C114.002 110.977 113.4 110.806 112.885 110.549C111.596 109.691 110.909 108.233 110.995 106.689V93.6536C111.167 90.0516 113.057 86.7069 116.15 84.8201L126.029 79.0741L126.201 78.9883C126.716 78.731 127.318 79.0741 127.576 79.5886C127.747 80.0174 127.576 80.532 127.232 80.7893L127.146 80.8751L117.18 86.6211C114.775 88.1648 113.315 90.8234 113.143 93.6536V106.775C112.885 107.719 113.4 108.748 114.431 109.005C115.033 109.176 115.72 109.005 116.15 108.49L145.788 91.4238C148.194 90.0516 151.802 89.537 154.809 89.194L156.012 89.0224C156.957 88.8509 157.816 88.6794 158.675 88.4221C161.338 87.5645 165.376 85.4204 167.008 83.5337C167.695 82.6761 168.211 81.7327 168.64 80.7893C169.499 79.0741 170.358 77.2731 172.163 76.2439L197.506 61.6644C199.911 60.1207 201.372 57.4621 201.544 54.6319V41.5104C201.801 40.567 201.286 39.6236 200.341 39.2806C199.739 39.109 199.052 39.2806 198.537 39.7951L189.946 44.7693C189.688 44.0832 189.258 43.4829 188.829 42.9683L197.506 37.9941C199.138 36.7077 201.544 36.965 202.918 38.5945C203.605 39.3663 203.863 40.4812 203.691 41.5104Z" fill="#455A64"/>
  <path d="M216.921 206.688L214 208.832C212.712 209.775 210.048 212.777 210.736 213.806C211.423 214.835 215.203 213.206 216.492 212.262L219.413 210.118C219.241 209.947 218.983 209.775 218.811 209.518L218.554 209.175C218.296 208.918 218.124 208.575 218.038 208.489C217.609 207.888 217.179 207.288 216.921 206.688Z" fill="#EAEAEA"/>
  <path opacity="0.15" d="M216.921 206.688L214 208.832C212.712 209.775 210.048 212.777 210.736 213.806C211.423 214.835 215.203 213.206 216.492 212.262L219.413 210.118C219.241 209.947 218.983 209.775 218.811 209.518L218.554 209.175C218.296 208.918 218.124 208.575 218.038 208.489C217.609 207.888 217.179 207.288 216.921 206.688Z" fill="black"/>
  <path d="M212.196 214.063C211.509 214.149 210.994 214.149 210.736 213.806C210.478 213.463 210.564 213.034 210.908 212.434C210.908 213.206 211.423 213.892 212.196 214.063Z" fill="#2D2D2D"/>
  <path d="M232.986 184.218C234.275 183.275 236.251 183.103 238.485 184.132C242.952 186.105 247.076 191.765 247.591 196.654C247.849 199.055 247.161 200.856 245.873 201.885C241.32 205.23 227.23 212.091 219.928 212.005C219.499 212.005 219.069 211.833 218.725 211.662C216.921 210.719 215.633 209.003 215.375 207.031C215.289 206.688 215.375 206.259 215.461 205.916C217.523 198.883 228.433 187.477 232.986 184.218Z" fill="#16346F"/>
  <path d="M235.735 180.788L237.024 182.503C237.883 182.589 238.656 182.846 239.43 183.189C244.069 185.247 248.278 190.993 248.794 195.968C248.88 196.825 248.88 197.683 248.708 198.455L249.996 200.17L246.302 201.714C244.67 202.314 242.952 202.142 241.405 201.371C236.766 199.312 232.557 193.566 232.041 188.592C231.698 186.877 232.127 185.162 233.158 183.789L235.735 180.788Z" fill="#16346F"/>
  <g opacity="0.15" filter="url(#filter0_d_14:424)">
  <path d="M235.735 180.788L237.024 182.503C237.883 182.589 238.656 182.846 239.43 183.189C244.069 185.247 248.278 190.993 248.794 195.968C248.88 196.825 248.88 197.683 248.708 198.455L249.996 200.17L246.302 201.714C244.67 202.314 242.952 202.142 241.405 201.371C236.766 199.312 232.557 193.566 232.041 188.592C231.698 186.877 232.127 185.162 233.158 183.789L235.735 180.788Z" fill="black"/>
  </g>
  <path d="M313.827 128.044C318.896 130.274 323.449 136.535 324.05 141.938C324.308 144.682 323.621 146.654 322.16 147.769L250.941 199.741C249.481 200.77 247.333 200.942 244.842 199.827C239.773 197.597 235.22 191.336 234.619 185.933C234.361 183.189 235.048 181.216 236.509 180.102L307.728 128.13C309.188 127.015 311.336 126.929 313.827 128.044Z" fill="#16346F"/>
  <path opacity="0.5" d="M313.827 128.044C318.896 130.274 323.449 136.535 324.05 141.938C324.308 144.682 323.621 146.654 322.16 147.769L250.941 199.741C249.481 200.77 247.333 200.942 244.842 199.827C239.773 197.597 235.22 191.336 234.619 185.933C234.361 183.189 235.048 181.216 236.509 180.102L307.728 128.13C309.188 127.015 311.336 126.929 313.827 128.044Z" fill="white"/>
  <path d="M315.975 147.769C310.906 145.54 306.353 139.279 305.752 133.876C305.494 131.132 306.181 129.159 307.642 128.044C309.102 126.929 311.25 126.843 313.741 127.958C318.81 130.188 323.363 136.449 323.964 141.852C324.222 144.596 323.535 146.569 322.074 147.684C320.614 148.798 318.552 148.884 315.975 147.769Z" fill="#407BFF"/>
  <path d="M318.294 123.156C324.136 125.729 329.377 132.933 330.064 139.193C330.408 142.366 329.549 144.682 327.83 145.883L321.731 150.342C320.013 151.543 317.521 151.714 314.686 150.428C308.844 147.855 303.604 140.651 302.917 134.39C302.573 131.217 303.432 128.902 305.15 127.701L311.25 123.241C312.882 121.955 315.374 121.869 318.294 123.156Z" fill="#407BFF"/>
  <path opacity="0.35" d="M318.294 123.156C324.136 125.729 329.377 132.933 330.064 139.193C330.408 142.366 329.549 144.682 327.83 145.883L321.731 150.342C320.013 151.543 317.521 151.714 314.686 150.428C308.844 147.855 303.604 140.651 302.917 134.39C302.573 131.217 303.432 128.902 305.15 127.701L311.25 123.241C312.882 121.955 315.374 121.869 318.294 123.156Z" fill="white"/>
  <path d="M320.7 145.968C314.858 143.395 309.618 136.192 308.93 129.931C308.587 126.758 309.446 124.442 311.164 123.241C312.882 122.041 315.374 121.869 318.209 123.156C324.05 125.729 329.291 132.933 329.978 139.193C330.322 142.366 329.463 144.682 327.745 145.883C326.026 147.083 323.621 147.255 320.7 145.968Z" fill="#407BFF"/>
  <path d="M398.19 65.0949C403.86 67.582 408.929 74.6145 409.616 80.7036C409.96 83.791 409.101 86.0208 407.468 87.2215L328.518 144.853C326.885 146.054 324.48 146.14 321.645 144.939C315.975 142.452 310.906 135.505 310.219 129.331C309.875 126.243 310.734 124.013 312.367 122.813L391.317 65.1807C392.95 63.98 395.355 63.8085 398.19 65.0949Z" fill="#16346F"/>
  <path opacity="0.35" d="M398.19 65.0949C403.86 67.582 408.929 74.6145 409.616 80.7036C409.96 83.791 409.101 86.0208 407.468 87.2215L328.518 144.853C326.885 146.054 324.48 146.14 321.645 144.939C315.975 142.452 310.906 135.505 310.219 129.331C309.875 126.243 310.734 124.013 312.367 122.813L391.317 65.1807C392.95 63.98 395.355 63.8085 398.19 65.0949Z" fill="white"/>
  <path d="M391.317 65.0949C397.073 60.2065 405.75 60.8068 410.733 66.5529C415.63 72.2989 415.029 80.9608 409.273 85.935C408.757 86.3638 408.156 86.7927 407.554 87.1357C405.922 88.3364 403.517 88.4221 400.682 87.2215C395.012 84.7344 389.943 77.7877 389.256 71.6128C388.826 68.6111 389.685 66.2956 391.317 65.0949Z" fill="#16346F"/>
  <path d="M398.19 104.545L397.847 101.544L388.912 97.7702L338.054 136.277C336.851 137.221 336.335 138.25 336.421 139.193C336.507 139.708 336.765 141.595 336.765 142.109C336.937 143.138 337.71 143.91 338.741 144.253C341.662 145.197 344.84 144.768 347.332 143.052L398.19 104.545Z" fill="#263238"/>
  <path d="M338.397 139.279C336.078 140.994 336.249 143.224 338.741 144.339C341.662 145.282 344.84 144.853 347.332 143.138L398.19 104.631L389.17 100.858L338.397 139.279Z" fill="#37474F"/>
  <path d="M388.053 91.0807L389.256 100.772L398.19 104.545L396.988 94.8543L388.053 91.0807Z" fill="#455A64"/>
  <path d="M388.053 91.0807L386.077 92.5387L387.28 102.23L389.256 100.772L388.053 91.0807Z" fill="#263238"/>
  <path d="M409.358 63.4654C411.334 62.0075 414.083 62.4363 415.544 64.4088C417.004 66.3813 416.575 69.1257 414.599 70.5836L410.991 73.2423C410.303 73.6711 409.444 73.6711 408.757 73.2423C406.781 72.2131 405.407 70.4121 405.063 68.1823C404.891 67.4105 405.149 66.6386 405.75 66.0383L409.358 63.4654Z" fill="#455A64"/>
  <path d="M405.063 68.1823C404.891 67.4105 405.149 66.6386 405.75 66.0383L409.358 63.3797C410.561 62.522 412.193 62.2647 413.654 62.8651C412.451 62.6078 410.733 63.8085 408.757 65.2664C406.781 66.7244 405.922 68.3538 407.898 71.3555C409.358 73.5853 410.733 73.1565 411.42 72.8135L410.991 73.0707C410.303 73.4995 409.444 73.4995 408.757 73.0707C406.781 72.2131 405.407 70.3264 405.063 68.1823Z" fill="#37474F"/>
  <path d="M271.044 355.399C270.357 355.313 270.271 357.114 270.787 357.972C272.075 360.373 275.598 363.032 280.838 364.146C286.079 365.261 296.302 363.889 299.395 363.803C302.487 363.718 307.9 365.261 310.992 365.776C316.576 366.719 320.442 365.09 322.332 363.289C322.934 362.517 323.191 361.574 323.106 360.63C323.02 358.486 322.848 358.057 322.59 358.057L271.044 355.399Z" fill="#3C3C3C"/>
  <path d="M321.989 351.797C322.504 354.37 322.676 356.942 322.504 359.515C321.817 361.145 320.099 362.002 318.724 362.431C315.03 363.546 311.422 363.375 307.384 362.517C304.807 361.831 302.058 361.574 299.394 361.574C296.216 361.745 289.085 362.431 285.907 362.517C282.9 362.517 279.893 362.002 277.144 360.802C274.996 359.858 271.818 357.629 271.13 355.999C270.443 352.14 270.787 349.91 273.02 348.538C275.254 347.166 278.69 346.908 283.329 346.565C284.704 346.48 286.422 346.394 287.195 346.308C290.03 345.965 292.608 345.793 294.755 345.622C296.559 345.622 298.364 345.279 299.996 344.507C300.769 344.164 301.37 343.564 301.714 342.792C302.144 341.848 302.144 340.39 303.003 340.305C303.003 340.305 318.81 342.963 320.099 343.135C321.559 343.392 320.614 345.45 321.989 351.797Z" fill="#595959"/>
  <path d="M285.993 346.222C285.477 346.565 285.134 347.08 284.79 347.594C284.446 348.195 284.189 348.795 284.017 349.395C283.845 350.167 284.79 350.339 285.219 349.395C285.477 348.624 285.907 347.852 286.336 347.166C286.68 346.651 287.195 346.308 287.711 346.222L288.484 346.137C288.312 345.622 286.594 345.794 285.993 346.222Z" fill="#FAFAFA"/>
  <path d="M293.123 345.365C292.608 345.279 292.006 345.45 291.663 345.793C291.147 346.222 290.718 346.823 290.546 347.509C290.288 348.281 290.03 349.052 289.945 349.91C289.859 350.425 291.147 350.425 291.233 349.824C291.405 349.052 291.577 348.366 291.835 347.68C292.006 347.337 292.608 345.965 293.467 345.793H293.896C293.896 345.622 293.639 345.45 293.467 345.45C293.295 345.45 293.209 345.365 293.123 345.365Z" fill="#FAFAFA"/>
  <path d="M297.333 345.279C296.989 345.365 296.645 345.536 296.388 345.793C296.13 346.137 295.872 346.565 295.7 347.08C295.443 347.938 295.357 348.795 295.357 349.653C295.357 350.339 296.559 350.167 296.559 349.653C296.645 348.281 296.645 347.337 297.333 346.308C297.59 345.879 297.934 345.45 298.364 345.193C298.364 345.107 298.192 345.107 298.02 345.107C297.848 345.107 297.59 345.193 297.333 345.279Z" fill="#FAFAFA"/>
  <path d="M321.731 326.154C321.731 326.154 320.356 340.734 320.013 344.078C319.927 345.107 317.865 345.622 316.834 346.051C315.546 346.565 314.343 347.251 313.226 348.109C310.563 350.768 308.587 351.368 306.955 346.737C306.611 345.793 306.01 345.365 304.807 345.622C303.948 345.965 303.003 346.051 302.058 346.051C301.886 345.965 301.972 345.708 302.058 345.622C302.917 344.593 303.26 343.221 303.003 341.934C302.573 336.017 302.315 330.013 301.972 324.01L321.731 326.154Z" fill="#FFA8A7"/>
  <path d="M381.696 314.49C379.806 311.489 376.885 303.427 374.479 294.851L356.61 303.084C356.61 303.084 367.521 322.895 368.809 324.696C370.785 327.698 381.696 314.49 381.696 314.49Z" fill="#FFA8A7"/>
  <path d="M387.538 320.923C387.538 320.751 387.623 319.293 387.538 319.122C387.108 317.578 386.163 317.149 384.96 316.291C383.758 315.434 382.641 314.49 381.61 313.461C381.18 312.947 381.094 312.604 380.493 312.346C379.462 311.918 377.658 311.918 375.596 313.032C372.074 314.833 371.043 317.063 371.215 319.465C371.387 321.266 371.558 323.753 369.926 324.782C369.239 325.211 367.692 322.981 367.692 322.981C366.747 324.61 368.637 326.24 369.411 329.584C369.84 331.471 369.84 333.358 369.497 335.245C369.153 338.161 368.723 338.161 367.177 338.418C365.802 338.589 362.022 338.332 359.703 339.962C356.524 342.191 357.383 345.193 357.383 345.193C357.813 346.308 361.249 351.797 374.05 349.738C377.744 349.138 385.562 343.306 385.39 342.792C385.304 342.277 385.304 341.677 385.39 341.162C385.39 339.876 385.476 338.589 385.562 337.217C385.476 335.931 385.562 334.73 385.733 333.53C385.991 332.5 386.163 331.471 386.163 330.442C386.421 327.869 386.678 325.211 386.936 322.638C386.936 321.866 387.623 321.694 387.538 320.923Z" fill="#595959"/>
  <path d="M389.17 320.408C390.459 321.609 389.685 325.125 387.967 329.413C387.194 331.3 385.819 334.559 386.249 337.989C386.679 341.42 386.764 343.049 385.819 344.679C384.445 347.166 377.057 350.425 372.675 351.454C375.338 347.766 376.885 343.392 377.143 338.847C377.572 331.214 378.174 326.411 381.61 322.981C385.991 318.693 389.17 320.408 389.17 320.408Z" fill="#2D2D2D"/>
  <path d="M357.298 345.193C357.298 345.193 359.875 349.996 369.754 349.824C373.62 349.739 375.768 347.852 375.854 341.934C375.94 334.816 376.541 327.698 378.861 324.096C381.18 320.494 384.874 318.864 387.71 319.122C388.397 319.293 388.912 319.808 389.256 320.408C389.256 320.408 386.421 319.465 381.954 323.152C378.689 325.897 377.83 331.557 377.83 338.589C377.83 341.591 378.002 345.022 377.143 347.337C376.284 349.395 374.565 350.939 372.418 351.454C367.091 352.997 359.703 350.51 357.813 348.195C357.126 347.337 356.954 346.222 357.298 345.193Z" fill="#3C3C3C"/>
  <path d="M369.153 337.132C368.723 337.389 368.466 337.818 368.38 338.332C368.294 339.533 368.895 340.734 369.926 341.42C370.527 341.763 371.043 341.677 370.098 340.39C369.411 339.361 369.153 338.246 369.153 337.132Z" fill="#FAFAFA"/>
  <path d="M369.668 333.444C369.668 333.444 369.325 333.615 369.239 334.644C369.239 335.159 370.012 337.303 371.043 337.818C372.074 338.332 371.472 337.131 371.043 336.531C370.356 335.588 369.926 334.559 369.668 333.444Z" fill="#FAFAFA"/>
  <path d="M369.325 329.413C369.325 329.413 368.981 329.499 369.325 330.871C369.84 331.729 370.528 332.415 371.473 332.758C372.16 332.843 372.503 332.5 371.644 331.9C370.957 331.386 369.411 330.013 369.325 329.413Z" fill="#FAFAFA"/>
  <path d="M361.421 312.518C361.421 312.518 352.658 297.252 339.428 274.097C337.366 270.838 335.992 267.236 335.305 263.462C334.446 259.603 329.806 240.135 329.806 240.135L324.91 271.781C325.597 275.126 326.628 280.357 326.628 284.216C326.628 289.448 325.941 297.338 324.48 308.144C322.246 324.61 321.13 333.358 321.13 333.358C319.927 334.216 318.552 335.331 310.391 335.245C306.353 335.159 302.144 332.929 302.144 332.929C302.144 332.929 300.683 315.863 300.082 303.942C299.566 292.964 298.621 280.529 298.192 273.839C297.333 261.404 296.989 256.001 296.903 236.361C296.817 215.95 298.364 186.019 298.364 186.019H355.837C355.837 186.019 360.132 193.223 358.93 210.719C359.359 227.871 360.906 259.174 360.906 259.174C364.772 263.719 367.521 269.208 370.184 278.985C373.191 289.877 374.995 296.137 377.314 304.027C372.761 303.942 363.139 309.259 361.421 312.518Z" fill="#1D6592"/>
  <path opacity="0.2" d="M329.806 240.392L332.985 217.751C332.985 217.751 340.459 217.151 349.48 209.689C349.48 209.689 348.277 216.379 335.476 221.01L332.384 242.879L334.703 261.404C334.789 261.404 329.806 240.821 329.806 240.392Z" fill="black"/>
  <path d="M319.24 105.317L322.504 119.468L339.858 116.895L337.71 101.544L319.24 105.317Z" fill="#FFA8A7"/>
  <path d="M307.9 82.5045C306.353 85.2489 304.979 88.1648 303.862 91.0807L307.212 92.7102L307.9 82.5045Z" fill="#F28F8F"/>
  <path d="M315.975 66.2098C309.875 66.5528 307.985 72.6419 307.126 85.935C306.353 98.7993 307.985 102.487 309.618 104.288C313.398 106.432 317.264 106.861 322.59 105.489C326.628 104.46 336.851 101.544 341.318 95.1973C346.473 87.736 348.105 77.3588 342.865 73.0707C335.39 66.8958 319.24 66.0382 315.975 66.2098Z" fill="#FFA8A7"/>
  <path d="M309.704 104.288C310.649 105.231 316.233 106.861 319.583 106.604L319.068 104.288C315.889 104.717 312.796 104.717 309.704 104.288Z" fill="#F28F8F"/>
  <path d="M315.459 75.3863C315.374 76.4154 315.631 77.4446 316.147 78.3022C316.92 79.5029 318.123 80.4462 319.497 80.7893C318.638 82.4188 318.123 84.2198 318.037 86.1065C317.951 86.7069 318.123 87.3072 318.38 87.8218C318.638 88.3363 319.325 88.5936 319.841 88.3363C320.099 88.2506 320.27 88.0791 320.356 87.8218C320.786 86.7926 321.387 85.935 322.074 85.0774C322.934 84.0482 324.136 83.4479 325.425 83.2764C330.322 82.8476 330.15 89.4512 328.174 92.0241C324.909 96.3122 322.332 93.4821 322.332 93.4821C322.332 93.4821 320.528 100.086 325.167 103.002C325.167 103.002 332.641 104.888 337.882 102.316C341.318 97.2556 345.356 93.9109 347.504 89.7085C352.658 79.5886 350.768 71.4413 346.129 69.5545C345.614 65.4379 341.834 62.7793 338.225 61.3214C333.243 59.4346 328.346 60.9783 323.277 60.8068C320.7 60.721 318.123 60.1207 315.803 58.8343C314.772 58.3197 313.484 57.6336 312.539 58.2339C312.195 58.4912 311.851 58.92 311.679 59.3488C311.078 60.8925 311.164 62.6078 311.937 64.0657C310.649 63.0366 308.243 63.4654 306.869 64.4945C304.893 66.0383 304.549 67.8393 305.15 70.4121C305.58 72.1273 308.587 77.2731 315.459 75.3863Z" fill="#263238"/>
  <path d="M345.786 70.5836L350.511 67.925C349.823 66.6386 348.105 66.124 346.817 66.8959C345.528 67.6677 345.012 69.2972 345.786 70.5836Z" fill="#263238"/>
  <path d="M343.896 110.634C352.057 110.634 355.15 112.435 357.727 115.437C360.304 118.439 372.417 137.821 375.596 147.083C377.057 151.457 376.713 153.087 372.933 157.546C369.153 162.006 355.064 176.585 355.064 176.585L348.019 165.951L357.04 152.829L345.184 131.56L343.896 110.634Z" fill="#686868"/>
  <path d="M351.885 112.435C356.954 114.923 360.218 121.698 359.531 131.989C358.93 141.509 358.328 147.34 357.04 157.375C356.438 163.635 356.267 169.896 356.524 176.156C356.782 181.131 357.383 186.105 358.157 190.993C358.157 190.993 352.916 199.655 334.961 201.285C313.226 203.171 297.934 196.139 297.934 196.139C297.934 196.139 298.364 190.05 298.278 182.16C298.278 175.042 297.762 166.38 298.02 159.347C298.535 143.224 298.793 129.845 300.597 124.099C301.972 120.926 303.089 119.468 306.697 118.181C309.188 117.238 320.528 114.151 324.996 113.207C339.858 109.948 346.559 109.863 351.885 112.435Z" fill="#3C3C3C"/>
  <path d="M316.233 115.351C318.466 115.952 319.669 117.238 323.105 118.01C328.26 119.211 333.672 118.782 338.569 116.895C341.748 115.523 342.607 113.465 342.607 113.465C342.607 113.465 340.717 108.147 340.03 107.118C339.686 106.518 338.999 106.175 338.311 106.175L338.483 107.547C338.483 107.547 338.999 108.576 334.188 109.777C329.377 110.977 322.59 110.72 320.27 110.034L320.013 108.748C318.81 109.091 318.123 110.034 316.748 111.921C315.803 113.207 314.944 114.494 314.171 115.866L316.233 115.351Z" fill="#686868"/>
  <path d="M248.622 178.644C243.725 179.501 241.32 181.045 239 181.216C237.883 181.302 236.766 181.302 235.65 181.131L232.901 184.475C232.901 184.475 231.612 176.843 233.072 174.098C234.533 171.354 235.65 173.069 236.595 171.354C237.54 169.639 237.454 168.352 239.43 167.752C241.406 167.152 241.062 165.351 244.069 165.007C247.076 164.664 258.759 167.152 258.759 167.152L248.622 178.644Z" fill="#FFA8A7"/>
  <path d="M308.071 117.753C301.199 118.782 297.247 120.583 291.577 131.217C285.649 142.366 277.058 157.032 277.058 157.032L251.199 163.292C245.186 163.807 239.945 175.299 245.186 180.102C245.186 180.102 268.295 179.072 275.769 178.815C288.57 178.301 288.656 177.443 293.81 170.496C298.965 163.55 308.845 145.883 308.845 145.883C308.845 145.883 319.497 128.13 308.071 117.753Z" fill="#686868"/>
  <defs>
  <filter id="filter0_d_14:424" x="227.925" y="180.788" width="26.0715" height="29.2869" filterUnits="userSpaceOnUse" color-interpolation-filters="sRGB">
  <feFlood flood-opacity="0" result="BackgroundImageFix"/>
  <feColorMatrix in="SourceAlpha" type="matrix" values="0 0 0 0 0 0 0 0 0 0 0 0 0 0 0 0 0 0 127 0" result="hardAlpha"/>
  <feOffset dy="4"/>
  <feGaussianBlur stdDeviation="2"/>
  <feComposite in2="hardAlpha" operator="out"/>
  <feColorMatrix type="matrix" values="0 0 0 0 0 0 0 0 0 0 0 0 0 0 0 0 0 0 0.25 0"/>
  <feBlend mode="normal" in2="BackgroundImageFix" result="effect1_dropShadow_14:424"/>
  <feBlend mode="normal" in="SourceGraphic" in2="effect1_dropShadow_14:424" result="shape"/>
  </filter>
  </defs>
  </svg>
