<svg xmlns="http://www.w3.org/2000/svg" xmlns:xlink="http://www.w3.org/1999/xlink" viewBox="0 0 155.68 155.68"><defs><style>.cls-1{fill:none;}.cls-2{clip-path:url(#clip-path);}.cls-3{fill:#fff;}.cls-4{fill:#010101;}.cls-5{fill:#010201;}</style><clipPath id="clip-path"><circle class="cls-1" cx="78.22" cy="78.05" r="76.9"/></clipPath></defs><title>dhc-iconAsset 2</title><g id="Layer_2" data-name="Layer 2"><g id="Layer_1-2" data-name="Layer 1"><g class="cls-2"><path class="cls-3" d="M155.65,84.21q0,35.1,0,70.2c0,1.07-.2,1.27-1.27,1.27q-76.56,0-153.14,0c-1.06,0-1.27-.2-1.27-1.27Q0,77.85,0,1.27C0,.21.21,0,1.27,0Q36.54.06,71.78,0c0,.8-.69.64-1.15.69a76.37,76.37,0,0,0-41.33,17A74,74,0,0,0,9.38,42.19c-.67,1.34-1.38,2.66-2,4a.9.9,0,0,0,0,.24,13.5,13.5,0,0,0,3.8-.4c9.09-1.46,17.77-4.36,26.32-7.7,9.16-3.59,18.27-7.28,27.83-9.72a83.7,83.7,0,0,1,27.09-2.52c11.93.89,22.52,5.27,31.12,13.81a34.54,34.54,0,0,1,8.12,12.55c.66,1.77.7,1.74,2.45.92a73.16,73.16,0,0,1,13.51-5c1.58-.39,1.7-.65,1-2.14Q134.39,15.55,102.48,4.35A69,69,0,0,0,85.05.72c-.46,0-1.11.11-1.15-.69q35.25,0,70.51,0c1.07,0,1.28.21,1.27,1.27q0,35.1,0,70.2c-.88-.16-.66-.91-.71-1.46a81.68,81.68,0,0,0-4.05-18.14c-.74-2.13-.77-2.12-3-1.56a70.6,70.6,0,0,0-13.77,5.19c-.89.44-1.38,1-1.14,2.06,1.52,7.17.46,14.23-1.15,21.21a69.41,69.41,0,0,1-15.77,30.59,60.55,60.55,0,0,1-26,17.76,49.43,49.43,0,0,1-31,.41,15,15,0,0,0-8.45-.18A96.74,96.74,0,0,1,31.05,130c-3.09.14-6.17.2-9.63.29,1.84,1.85,3.37,3.51,5.06,5a76.92,76.92,0,0,0,57.83,19.37,75.76,75.76,0,0,0,24.29-6,77.54,77.54,0,0,0,45.84-59.46c.2-1.28.3-2.57.51-3.85C155,84.9,154.87,84.25,155.65,84.21Z"/><path class="cls-4" d="M155.65,84.21c-.68,1.73-.58,3.6-.86,5.4C150,120.08,128,145.13,98.09,152.66c-29.68,7.48-55.51-.2-77-22.1a6.1,6.1,0,0,1-.41-.46s0-.09.08-.26c3.61.06,7.26-.05,10.91-.25a98.75,98.75,0,0,0,21.82-3.37,4.46,4.46,0,0,1,2.68,0,56.14,56.14,0,0,0,21,3,51.62,51.62,0,0,0,26.57-9.53c15.38-10.8,24.67-25.62,28.33-44a48.52,48.52,0,0,0,.93-16c0-.25,0-.51-.08-.77-.56-3-.55-3,2.31-4.42a76.2,76.2,0,0,1,13.9-5c.9-.24,1.31-.08,1.66.88a76.45,76.45,0,0,1,4.58,20.3c0,.28-.11.64.29.78Z"/><path class="cls-4" d="M83.9,0c2,.62,4,.55,6,.87a77,77,0,0,1,44.41,23.29,77.94,77.94,0,0,1,15.08,22.74c.44,1,.37,1.34-.81,1.62a69.44,69.44,0,0,0-15.43,5.75c-.51.26-1.06.92-1.47-.32C128,42.83,120,35.63,109.59,30.86A53.74,53.74,0,0,0,86.41,26.3c-13.68.12-26.55,3.78-39.16,8.67-9,3.47-17.84,7.22-27.18,9.63A81,81,0,0,1,6.89,47c-.23-.4,0-.66.1-.92C18.26,22.28,36.65,7.33,62.42,1.58A53.71,53.71,0,0,1,71.15.32c.25,0,.53,0,.63-.29Z"/><path class="cls-4" d="M10.59,51c12.6.12,24.65-2.67,36.48-6.72,8.75-3,17.35-6.46,26.27-9C81.1,33.16,89,31.72,97,32.39c13.65,1.13,24.94,6.54,32,18.9.71,1.24,1.72,2.7,1.56,3.92s-2.1,1.53-3.26,2.24A106.21,106.21,0,0,0,101.2,80.52c-14.9,17.87-32.84,31.69-54.69,40.17a4.23,4.23,0,0,1-2.95.06,92.59,92.59,0,0,0-24.85-3.84,29.56,29.56,0,0,0-5.87.46,1.85,1.85,0,0,1-2.32-1.07A78.34,78.34,0,0,1,4.66,51.89c.34-1,.75-1.26,1.75-1.14C7.79,50.93,9.2,50.92,10.59,51Z"/><path class="cls-4" d="M57.46,125a93.28,93.28,0,0,0,8.63-3.63C77,116,85.3,107.61,92.32,97.83,96.45,92.08,100,85.94,104.1,80.2c6.91-9.67,15.9-17,26.12-23,.8-.47,1-.27,1.21.54,1.08,4.51.8,9.06.22,13.57a67.76,67.76,0,0,1-14.4,34.16c-8.73,10.94-19.63,18.6-33.47,21.73-8.64,2-17,.85-25.28-1.89Z"/><path class="cls-5" d="M42.7,122a62.31,62.31,0,0,1-8.18,2.41A88,88,0,0,1,19,126.8a1.8,1.8,0,0,1-1.82-.79q-2.27-3.23-4.59-6.42c-.69-.94-.36-1.13.66-1.23,9.71-1,19.12.63,28.4,3.33Z"/></g></g></g></svg>