<svg xmlns="http://www.w3.org/2000/svg" xmlns:xlink="http://www.w3.org/1999/xlink" viewBox="0 0 752.81 276.72"><defs><style>.cls-1{fill:none;}.cls-2{fill:#231f20;}.cls-3{fill:#969696;}.cls-4{clip-path:url(#clip-path);}.cls-5{fill:#fff;}.cls-6{fill:#010101;}.cls-7{fill:#010201;}</style><clipPath id="clip-path"><circle class="cls-1" cx="376.4" cy="78.05" r="76.9"/></clipPath></defs><title>dhc-logoAsset 1</title><g id="Layer_2" data-name="Layer 2"><g id="Layer_1-2" data-name="Layer 1"><path class="cls-2" d="M.12,186.53l16.25.05c12.92,0,21.85,8.28,21.82,20.7s-9,20.55-21.94,20.52L0,227.75Zm16.16,33.54c8.15,0,12.93-5.83,13-12.82,0-7.29-4.41-12.92-12.88-12.95l-7.48,0L8.8,220.05Z"/><path class="cls-2" d="M59,197.33c8.9,0,14.94,6.72,14.91,16.48v1.73l-22.18-.06c.48,3.77,3.5,6.93,8.57,6.94a12.18,12.18,0,0,0,8-2.94l3.45,5.08c-3,2.71-7.68,4.12-12.31,4.1-9.09,0-15.93-6.16-15.9-15.74,0-8.65,6.41-15.62,15.49-15.59m-7.39,12.83,14.71,0A6.92,6.92,0,0,0,59,203.57a7.18,7.18,0,0,0-7.37,6.59"/><path class="cls-2" d="M81.66,218.59A17.06,17.06,0,0,0,92,222.7c3.4,0,5-1.16,5-3,0-2.11-2.59-2.85-6-3.54-5.13-1-11.74-2.26-11.72-9.37,0-5,4.42-9.38,12.27-9.36a19.16,19.16,0,0,1,12,4.11l-3.17,5.37a12.6,12.6,0,0,0-8.83-3.48c-2.84,0-4.7,1-4.7,2.76s2.34,2.55,5.67,3.23c5.13,1,12,2.39,12,9.8,0,5.44-4.66,9.57-12.94,9.54-5.19,0-10.19-1.76-13.34-4.67Z"/><path class="cls-2" d="M110.85,189.13a4.7,4.7,0,1,1,9.39,0,4.7,4.7,0,0,1-9.39,0m.78,9.09,7.85,0-.09,29.85-7.85,0Z"/><path class="cls-2" d="M131.31,230.1c2.4,2.67,5.55,3.73,9.32,3.74s8.23-1.65,8.24-7.52v-3a11.62,11.62,0,0,1-9.22,4.68c-7.48,0-13.15-5.3-13.12-15.25,0-9.76,5.67-15.18,13.21-15.16a11.48,11.48,0,0,1,9.19,4.6v-3.83l7.91,0-.08,27.81c0,11.37-8.81,14.13-16.17,14.11-5.13,0-9.08-1.2-12.84-4.49ZM148.93,208a8.53,8.53,0,0,0-6.73-3.42c-4.45,0-7.55,3.07-7.56,8.2s3.06,8.23,7.51,8.24a8.7,8.7,0,0,0,6.75-3.38Z"/><path class="cls-2" d="M186,210.24c0-4.14-2.15-5.57-5.49-5.58a8.47,8.47,0,0,0-6.8,3.5l-.06,20.09-7.85,0,.09-29.84,7.84,0v3.89a13.67,13.67,0,0,1,10.46-4.6c6.55,0,9.69,3.73,9.67,9.54l-.06,21.07-7.84,0Z"/><path class="cls-2" d="M216.44,197.78c8.9,0,14.93,6.72,14.9,16.48V216l-22.19-.06c.49,3.77,3.51,6.93,8.57,6.94a12.23,12.23,0,0,0,8-2.94l3.44,5.08c-3,2.71-7.67,4.12-12.31,4.1-9.08,0-15.93-6.16-15.9-15.74,0-8.65,6.41-15.62,15.5-15.59m-7.39,12.83,14.7,0a6.91,6.91,0,0,0-7.33-6.63,7.18,7.18,0,0,0-7.37,6.59"/><path class="cls-2" d="M238.31,198.58l7.85,0v4.08a12.75,12.75,0,0,1,9.53-4.74l0,7.67a9.53,9.53,0,0,0-2.17-.26c-2.59,0-6.06,1.47-7.36,3.38l-.06,19.71-7.84,0Z"/><path class="cls-2" d="M262.54,219.11a17.12,17.12,0,0,0,10.31,4.11c3.39,0,5-1.16,5-3,0-2.1-2.59-2.85-6-3.54-5.13-1-11.74-2.26-11.72-9.36,0-5,4.42-9.38,12.26-9.36a19.08,19.08,0,0,1,12,4.11l-3.16,5.37a12.65,12.65,0,0,0-8.83-3.49c-2.84,0-4.7,1-4.71,2.77s2.35,2.54,5.68,3.23c5.13,1,12,2.38,12,9.8,0,5.44-4.66,9.57-12.94,9.54-5.19,0-10.19-1.76-13.34-4.67Z"/><polygon class="cls-2" points="320.9 211.37 301.43 211.31 301.38 228.61 292.61 228.59 292.72 187.37 301.5 187.39 301.45 203.59 320.92 203.64 320.96 187.45 329.8 187.47 329.68 228.69 320.85 228.67 320.9 211.37"/><path class="cls-2" d="M352.45,198.17c8.9,0,14.94,6.72,14.91,16.48v1.73l-22.18-.06c.48,3.77,3.5,6.93,8.57,6.94a12.18,12.18,0,0,0,8-2.94l3.44,5.08c-3,2.71-7.67,4.12-12.3,4.1-9.09,0-15.93-6.16-15.9-15.74,0-8.65,6.41-15.62,15.49-15.59M345.06,211l14.71,0a6.92,6.92,0,0,0-7.34-6.63,7.18,7.18,0,0,0-7.37,6.59"/><path class="cls-2" d="M392.17,225.78c-2.05,2.41-5.57,3.82-9.47,3.81-4.76,0-10.37-3.25-10.35-9.92,0-7,5.65-9.5,10.41-9.49,3.95,0,7.47,1.26,9.44,3.68v-4.15c0-3-2.58-5-6.53-5a12.58,12.58,0,0,0-8.73,3.5L374,202.93a19.53,19.53,0,0,1,13.06-4.66c6.79,0,13,2.75,13,11.34L400,228.89l-7.85,0Zm0-7.78c-1.29-1.74-3.76-2.61-6.3-2.62-3.09,0-5.62,1.59-5.63,4.5s2.52,4.39,5.61,4.4c2.53,0,5-.85,6.31-2.58Z"/><rect class="cls-2" x="392.4" y="204.4" width="41.22" height="7.85" transform="translate(203.53 620.75) rotate(-89.84)"/><path class="cls-2" d="M427.47,221.56l0-15.58h-4.94l0-6.86h4.94l0-8.15,7.91,0,0,8.16h6.06l0,6.86h-6.06l0,13.47c0,1.85,1,3.28,2.71,3.28a4.23,4.23,0,0,0,2.72-.85l1.66,5.93c-1.18,1-3.28,1.91-6.56,1.9-5.5,0-8.46-2.87-8.44-8.18"/><path class="cls-2" d="M468.28,210.92c0-4.14-2.14-5.44-5.54-5.45a8.68,8.68,0,0,0-6.81,3.5l-.06,20.09L448,229l.12-41.22,7.85,0,0,15.27a13.81,13.81,0,0,1,10.51-4.61c6.55,0,9.7,3.62,9.68,9.43l-.06,21.19-7.85,0Z"/><path class="cls-2" d="M483.37,208.55c0-12.66,9.64-21.29,21.69-21.26,9.39,0,14.63,5,17.52,10.13L515,201.11a11.29,11.29,0,0,0-10-6c-7.17,0-12.63,5.71-12.65,13.5s5.4,13.55,12.57,13.57a11.19,11.19,0,0,0,10-6l7.52,3.66a19.12,19.12,0,0,1-17.57,10.09c-12.05,0-21.61-8.72-21.57-21.39"/><path class="cls-2" d="M546.72,226.23c-2,2.4-5.57,3.81-9.46,3.8-4.76,0-10.38-3.24-10.36-9.92,0-7,5.65-9.5,10.41-9.49,4,0,7.48,1.26,9.45,3.68v-4.14c0-3-2.58-5-6.54-5a12.56,12.56,0,0,0-8.72,3.5l-3-5.26a19.59,19.59,0,0,1,13.05-4.66c6.8,0,13,2.76,13,11.35l-.06,19.28-7.85,0Zm0-7.79c-1.29-1.74-3.76-2.61-6.29-2.61-3.09,0-5.63,1.59-5.64,4.49s2.52,4.39,5.61,4.4c2.54,0,5-.85,6.31-2.57Z"/><path class="cls-2" d="M563.67,199.51l7.85,0,0,4.08a12.76,12.76,0,0,1,9.53-4.74l0,7.67a10,10,0,0,0-2.16-.26c-2.59,0-6.06,1.47-7.36,3.38l-.06,19.72-7.85,0Z"/><path class="cls-2" d="M600.69,198.88c8.89,0,14.93,6.72,14.91,16.48v1.73L593.4,217c.49,3.77,3.51,6.93,8.58,6.94a12.16,12.16,0,0,0,8-2.94l3.45,5.08c-3,2.71-7.67,4.11-12.31,4.1-9.08,0-15.93-6.16-15.9-15.74,0-8.65,6.41-15.62,15.5-15.59m-7.4,12.83,14.71,0a6.91,6.91,0,0,0-7.33-6.63,7.18,7.18,0,0,0-7.38,6.59"/><path class="cls-2" d="M626.27,220.21a5,5,0,1,1-5,5,5.06,5.06,0,0,1,5-5"/><path class="cls-2" d="M653,199c6.12,0,9.82,2.68,11.79,5.41l-5.15,4.8a7.24,7.24,0,0,0-6.29-3.23c-4.76,0-8.11,3.44-8.12,8.63s3.31,8.72,8.07,8.74a7.51,7.51,0,0,0,6.31-3.2l5.12,4.78c-2,2.77-5.7,5.42-11.82,5.4-9.21,0-15.8-6.54-15.78-15.74S643.82,199,653,199"/><path class="cls-2" d="M669.24,214.71c0-8.47,6-15.62,15.8-15.59s15.8,7.21,15.77,15.68-6,15.68-15.86,15.65-15.74-7.21-15.71-15.74m23.42.07c0-4.64-2.76-8.66-7.64-8.68s-7.61,4-7.63,8.63,2.7,8.72,7.58,8.74,7.67-4,7.69-8.69"/><path class="cls-2" d="M744.89,211c0-2.78-1.23-4.76-4.44-4.77a7.93,7.93,0,0,0-6.19,3.44l-.06,20.15-7.91,0,.06-18.85c0-2.78-1.23-4.76-4.44-4.77a8,8,0,0,0-6.19,3.5l-.06,20.09-7.84,0,.08-29.85,7.85,0v3.89a13.05,13.05,0,0,1,9.78-4.61c4.38,0,7.16,2.07,8.26,5.47a12.64,12.64,0,0,1,10.28-5.41c5.5,0,8.76,2.93,8.75,9.05l-.07,21.56-7.91,0Z"/><rect class="cls-3" x="149.97" y="253.77" width="2.2" height="17.69"/><path class="cls-3" d="M172.74,262.76c0-1.61-.72-2.68-2.36-2.68a4.48,4.48,0,0,0-3.39,2v9.39h-2v-8.69c0-1.62-.69-2.68-2.36-2.68a4.48,4.48,0,0,0-3.37,2v9.37h-2V258.65h2v1.85a5.54,5.54,0,0,1,4.14-2.17,3.29,3.29,0,0,1,3.44,2.39,5.42,5.42,0,0,1,4.3-2.39c2.34,0,3.57,1.3,3.57,3.87v9.26h-2Z"/><path class="cls-3" d="M195.22,262.76c0-1.61-.71-2.68-2.35-2.68a4.48,4.48,0,0,0-3.4,2v9.39h-2v-8.69c0-1.62-.69-2.68-2.36-2.68a4.46,4.46,0,0,0-3.36,2v9.37h-2V258.65h2v1.85a5.52,5.52,0,0,1,4.13-2.17,3.3,3.3,0,0,1,3.45,2.39,5.38,5.38,0,0,1,4.29-2.39c2.34,0,3.57,1.3,3.57,3.87v9.26h-2Z"/><path class="cls-3" d="M207.82,258.33c3.88,0,6.15,3,6.15,6.87v.5H203.61a4.51,4.51,0,0,0,4.55,4.47h.06a5.61,5.61,0,0,0,3.95-1.62l1,1.3a7,7,0,0,1-5.09,2,6.35,6.35,0,0,1-6.53-6.73c0-3.75,2.65-6.75,6.31-6.75m-4.21,5.92H212a4.14,4.14,0,0,0-4-4.27h-.2a4.26,4.26,0,0,0-4.19,4.27"/><path class="cls-3" d="M227.52,269.55a5.33,5.33,0,0,1-4.32,2.22c-3.34,0-5.7-2.54-5.7-6.7s2.33-6.74,5.7-6.74a5.37,5.37,0,0,1,4.32,2.25v-6.81h2v17.69h-2Zm0-7.38a4.82,4.82,0,0,0-3.84-2.06c-2.57,0-4.12,2.12-4.12,5s1.55,4.93,4.12,4.93a4.79,4.79,0,0,0,3.84-2Z"/><path class="cls-3" d="M234.21,255.15a1.34,1.34,0,1,1,1.34,1.34,1.34,1.34,0,0,1-1.34-1.34m.34,3.5h2v12.81h-2Z"/><path class="cls-3" d="M249.59,270a5.55,5.55,0,0,1-4.25,1.78,4.27,4.27,0,0,1-4.46-4v-.19a4.18,4.18,0,0,1,4.46-4.21,5.35,5.35,0,0,1,4.25,1.78v-2.3c0-1.73-1.39-2.68-3.24-2.68a5.1,5.1,0,0,0-3.93,1.78l-.89-1.38a6.73,6.73,0,0,1,5.12-2.12c2.68,0,5,1.22,5,4.33v8.8h-2Zm0-3.66a4.3,4.3,0,0,0-3.53-1.59,2.87,2.87,0,0,0-3.14,2.58v.23a2.86,2.86,0,0,0,3.15,2.78,4.25,4.25,0,0,0,3.53-1.59Z"/><path class="cls-3" d="M257,268.78V260.4h-2.12v-1.79H257v-3.46h2v3.5h2.6v1.78H259v8c0,.95.43,1.64,1.3,1.64a1.92,1.92,0,0,0,1.35-.52l.58,1.48a3.25,3.25,0,0,1-2.38.82c-1.89,0-2.84-1.12-2.84-3"/><path class="cls-3" d="M271,258.33c3.87,0,6.15,3,6.15,6.87v.5H266.82a4.51,4.51,0,0,0,4.55,4.47h.07a5.6,5.6,0,0,0,3.94-1.62l1,1.3a7,7,0,0,1-5.09,2,6.35,6.35,0,0,1-6.53-6.73c0-3.75,2.65-6.75,6.32-6.75m-4.22,5.92h8.4a4.14,4.14,0,0,0-4-4.27H271a4.26,4.26,0,0,0-4.19,4.27"/><path class="cls-3" d="M281.78,267.29a7.44,7.44,0,0,0,5.56,2.53c3.16,0,4.16-1.7,4.16-3.06,0-2.11-2.14-2.68-4.46-3.34-2.84-.74-6-1.53-6-5,0-2.92,2.59-4.91,6.07-4.91a8.31,8.31,0,0,1,6.25,2.48l-1.26,1.58a6.79,6.79,0,0,0-5.12-2.13c-2.12,0-3.63,1.14-3.63,2.81s2,2.31,4.29,2.92c2.9.77,6.18,1.67,6.18,5.36,0,2.57-1.78,5.2-6.53,5.2a8.77,8.77,0,0,1-6.78-2.8Z"/><path class="cls-3" d="M306.07,270a5.55,5.55,0,0,1-4.25,1.78,4.27,4.27,0,0,1-4.46-4v-.19a4.18,4.18,0,0,1,4.46-4.21,5.35,5.35,0,0,1,4.25,1.78v-2.3c0-1.73-1.39-2.68-3.25-2.68a5.1,5.1,0,0,0-3.92,1.78l-.89-1.38a6.73,6.73,0,0,1,5.12-2.12c2.68,0,4.95,1.22,4.95,4.33v8.8h-2Zm0-3.66a4.3,4.3,0,0,0-3.53-1.59,2.87,2.87,0,0,0-3.15,2.59v.22a2.87,2.87,0,0,0,3.16,2.78,4.25,4.25,0,0,0,3.53-1.59Z"/><polygon class="cls-3" points="311.18 258.65 313.33 258.65 317.6 269.17 321.85 258.67 324.01 258.67 318.66 271.48 316.49 271.48 311.18 258.65"/><path class="cls-3" d="M326.8,255.15a1.33,1.33,0,0,1,1.32-1.33,1.36,1.36,0,0,1,1.36,1.33,1.34,1.34,0,0,1-2.68,0m.34,3.5h2v12.81h-2Z"/><path class="cls-3" d="M342.81,263.08c0-2.25-1.13-3-2.86-3a4.94,4.94,0,0,0-3.79,2v9.37h-2V258.65h2v1.85a6.41,6.41,0,0,1,4.56-2.17c2.68,0,4.08,1.35,4.08,4.14v9h-2Z"/><path class="cls-3" d="M350.82,273.26a4.9,4.9,0,0,0,4.16,1.79c2.13,0,4.12-1,4.12-3.84v-1.83a5.38,5.38,0,0,1-4.3,2.28c-3.34,0-5.7-2.49-5.7-6.63s2.33-6.65,5.7-6.65a5.36,5.36,0,0,1,4.3,2.25v-1.94h2v12.44c0,4.24-3,5.57-6.1,5.57a6.59,6.59,0,0,1-5.17-1.91Zm8.26-11.09a4.76,4.76,0,0,0-3.82-2.06c-2.57,0-4.11,2-4.11,4.88s1.54,4.88,4.11,4.88a4.74,4.74,0,0,0,3.82-2.1Z"/><path class="cls-3" d="M366.05,268.33a5.82,5.82,0,0,0,4.21,1.83c2,0,3-.9,3-2.12,0-1.41-1.56-1.86-3.29-2.29-2.17-.5-4.64-1.09-4.64-3.73,0-2,1.72-3.69,4.78-3.69a6.49,6.49,0,0,1,4.74,1.86l-.89,1.38a5,5,0,0,0-3.82-1.62c-1.78,0-2.84.79-2.84,1.94s1.47,1.64,3.14,2c2.22.51,4.79,1.15,4.79,4,0,2.14-1.72,3.86-5,3.86a6.76,6.76,0,0,1-5.17-2Z"/><path class="cls-3" d="M379,274a4,4,0,0,0,1.72-2.47,1.15,1.15,0,0,1-.37,0,1.25,1.25,0,0,1-1.28-1.24v-.11a1.43,1.43,0,0,1,1.41-1.43,1.78,1.78,0,0,1,1.68,1.89v.12a5.1,5.1,0,0,1-2.18,4Z"/><path class="cls-3" d="M387,267.29a7.47,7.47,0,0,0,5.57,2.53c3.15,0,4.16-1.7,4.16-3.06,0-2.11-2.14-2.68-4.47-3.34-2.83-.74-6-1.53-6-5,0-2.92,2.6-4.91,6.08-4.91a8.34,8.34,0,0,1,6.25,2.48l-1.31,1.58a6.77,6.77,0,0,0-5.12-2.13c-2.12,0-3.63,1.14-3.63,2.81s2,2.31,4.3,2.92c2.88.77,6.18,1.67,6.18,5.36,0,2.57-1.79,5.2-6.53,5.2a8.78,8.78,0,0,1-6.79-2.8Z"/><path class="cls-3" d="M402.92,255.15a1.34,1.34,0,1,1,1.34,1.34,1.35,1.35,0,0,1-1.34-1.34m.35,3.5h2v12.81h-2Z"/><path class="cls-3" d="M425.76,262.76c0-1.61-.72-2.68-2.37-2.68a4.54,4.54,0,0,0-3.39,2v9.39h-2v-8.69c0-1.62-.7-2.68-2.37-2.68a4.48,4.48,0,0,0-3.37,2v9.37h-2V258.65h2v1.85a5.59,5.59,0,0,1,4.14-2.17,3.3,3.3,0,0,1,3.45,2.39,5.42,5.42,0,0,1,4.3-2.39c2.33,0,3.57,1.3,3.57,3.87v9.26h-2Z"/><path class="cls-3" d="M432.79,276.31V258.65h2v1.91a5.37,5.37,0,0,1,4.32-2.23c3.38,0,5.71,2.55,5.71,6.71s-2.33,6.73-5.71,6.73a5.21,5.21,0,0,1-4.32-2.25v6.79Zm5.8-16.23a4.77,4.77,0,0,0-3.82,2v5.79a4.79,4.79,0,0,0,3.82,2.06c2.57,0,4.11-2.12,4.11-5s-1.54-4.9-4.14-4.9Z"/><rect class="cls-3" x="449.06" y="253.77" width="1.99" height="17.69"/><path class="cls-3" d="M461.66,258.33c3.87,0,6.15,3,6.15,6.87v.5H457.44a4.51,4.51,0,0,0,4.55,4.47h.07a5.57,5.57,0,0,0,3.94-1.62l1,1.3a7,7,0,0,1-5.09,2,6.35,6.35,0,0,1-6.52-6.73c0-3.75,2.65-6.75,6.31-6.75m-4.22,5.92h8.41a4.14,4.14,0,0,0-4-4.27h-.19a4.28,4.28,0,0,0-4.19,4.27"/><polygon class="cls-3" points="472.16 253.77 483.76 253.77 483.76 255.77 474.36 255.77 474.36 261.47 483.56 261.47 483.56 263.43 474.36 263.43 474.36 269.53 483.75 269.53 483.75 271.5 472.14 271.5 472.16 253.77"/><path class="cls-3" d="M496.87,263.08c0-2.25-1.14-3-2.86-3a5,5,0,0,0-3.8,2v9.37h-2V258.65h2v1.85a6.41,6.41,0,0,1,4.57-2.17c2.67,0,4.08,1.35,4.08,4.14v9h-2Z"/><path class="cls-3" d="M503.9,258.65h2v2.07a5.45,5.45,0,0,1,4.27-2.33v2a4.23,4.23,0,0,0-.79-.08,4.74,4.74,0,0,0-3.48,2.05v9.07h-2Z"/><path class="cls-3" d="M513,265c0-3.71,2.43-6.71,6.34-6.71s6.34,3,6.34,6.71-2.45,6.73-6.34,6.73-6.34-3-6.34-6.73m10.58,0c0-2.6-1.51-4.93-4.24-4.93S515,262.44,515,265s1.53,5,4.27,5,4.24-2.33,4.24-5"/><rect class="cls-3" x="529.94" y="253.77" width="1.98" height="17.69"/><rect class="cls-3" x="536.96" y="253.77" width="1.99" height="17.69"/><path class="cls-3" d="M559.44,262.76c0-1.61-.71-2.68-2.35-2.68a4.48,4.48,0,0,0-3.4,2v9.39h-2v-8.69c0-1.62-.69-2.68-2.36-2.68a4.48,4.48,0,0,0-3.36,2v9.37h-2V258.65h2v1.85a5.52,5.52,0,0,1,4.13-2.17,3.3,3.3,0,0,1,3.45,2.39,5.38,5.38,0,0,1,4.29-2.39c2.34,0,3.58,1.3,3.58,3.87v9.26h-2Z"/><path class="cls-3" d="M572,258.33c3.88,0,6.16,3,6.16,6.87v.5H567.83a4.51,4.51,0,0,0,4.55,4.47h.07a5.6,5.6,0,0,0,3.94-1.62l1,1.3a7,7,0,0,1-5.09,2,6.35,6.35,0,0,1-6.53-6.73c0-3.75,2.65-6.75,6.31-6.75m-4.21,5.92h8.4a4.14,4.14,0,0,0-4-4.27H572a4.26,4.26,0,0,0-4.19,4.27"/><path class="cls-3" d="M591.11,263.08c0-2.25-1.15-3-2.87-3a4.92,4.92,0,0,0-3.78,2v9.37h-2V258.65h2v1.85a6.37,6.37,0,0,1,4.56-2.17c2.68,0,4.08,1.35,4.08,4.14v9h-2Z"/><path class="cls-3" d="M598.54,268.78V260.4h-2.13v-1.79h2.13v-3.46h2v3.5h2.6v1.78h-2.6v8c0,.95.43,1.64,1.3,1.64a1.9,1.9,0,0,0,1.35-.52l.58,1.44a3.22,3.22,0,0,1-2.39.82c-1.88,0-2.82-1.08-2.82-3"/><g class="cls-4"><path class="cls-5" d="M453.84,84.21q0,35.1,0,70.2c0,1.07-.21,1.27-1.28,1.27q-76.56,0-153.14,0c-1.06,0-1.27-.2-1.27-1.27q.06-76.56,0-153.14c0-1.06.21-1.27,1.27-1.27Q334.72.06,370,0c0,.8-.7.64-1.15.69a76.37,76.37,0,0,0-41.34,17,74,74,0,0,0-19.92,24.52c-.67,1.34-1.38,2.66-2,4a.9.9,0,0,0,0,.24,13.5,13.5,0,0,0,3.8-.4c9.1-1.46,17.78-4.36,26.32-7.7,9.16-3.59,18.28-7.28,27.83-9.72a83.7,83.7,0,0,1,27.09-2.52c11.93.89,22.52,5.27,31.12,13.81a34.54,34.54,0,0,1,8.12,12.55c.66,1.77.7,1.74,2.45.92a73.16,73.16,0,0,1,13.51-5c1.58-.39,1.7-.65,1-2.14Q432.58,15.55,400.66,4.35A69,69,0,0,0,383.23.72c-.46,0-1.11.11-1.15-.69q35.25,0,70.51,0c1.07,0,1.28.21,1.28,1.27q-.06,35.1,0,70.2c-.89-.16-.66-.91-.72-1.46a80.58,80.58,0,0,0-4.05-18.14c-.73-2.13-.77-2.12-3-1.56a70.69,70.69,0,0,0-13.78,5.19,1.67,1.67,0,0,0-1.14,2.06c1.52,7.17.47,14.23-1.15,21.21a69.41,69.41,0,0,1-15.77,30.59,60.58,60.58,0,0,1-26,17.76,49.46,49.46,0,0,1-31,.41,15,15,0,0,0-8.45-.18A96.74,96.74,0,0,1,329.23,130c-3.08.14-6.17.2-9.62.29,1.83,1.85,3.36,3.51,5.05,5a76.92,76.92,0,0,0,57.83,19.37,75.69,75.69,0,0,0,24.29-6,77.54,77.54,0,0,0,45.84-59.46c.2-1.28.3-2.57.51-3.85C453.21,84.9,453.05,84.25,453.84,84.21Z"/><path class="cls-6" d="M453.84,84.21c-.69,1.73-.59,3.6-.87,5.4-4.81,30.47-26.78,55.52-56.7,63.05-29.68,7.48-55.51-.2-77-22.1a6.1,6.1,0,0,1-.41-.46s0-.09.08-.26c3.61.06,7.26-.05,10.91-.25a98.75,98.75,0,0,0,21.82-3.37,4.46,4.46,0,0,1,2.68,0,56.14,56.14,0,0,0,21,3,51.55,51.55,0,0,0,26.57-9.53c15.38-10.8,24.67-25.62,28.34-44a48.79,48.79,0,0,0,.92-16c0-.25,0-.51-.08-.77-.56-3-.55-3,2.31-4.42a76.2,76.2,0,0,1,13.9-5c.9-.24,1.31-.08,1.66.88a76.45,76.45,0,0,1,4.58,20.3c0,.28-.1.64.3.78Z"/><path class="cls-6" d="M382.08,0c2,.62,4,.55,6,.87a77,77,0,0,1,44.41,23.29,77.74,77.74,0,0,1,15.08,22.74c.44,1,.37,1.34-.8,1.62a69.33,69.33,0,0,0-15.44,5.75c-.51.26-1.05.92-1.47-.32-3.75-11.15-11.71-18.35-22.11-23.12a53.71,53.71,0,0,0-23.18-4.56c-13.68.12-26.55,3.78-39.16,8.67-9,3.47-17.83,7.22-27.18,9.63A81,81,0,0,1,305.07,47c-.23-.4,0-.66.1-.92C316.44,22.28,334.83,7.33,360.6,1.58A53.71,53.71,0,0,1,369.33.32c.25,0,.53,0,.64-.29Z"/><path class="cls-6" d="M308.77,51c12.6.12,24.65-2.67,36.49-6.72,8.75-3,17.34-6.46,26.26-9,7.76-2.17,15.64-3.61,23.7-2.94,13.64,1.13,24.93,6.54,32,18.9.71,1.24,1.73,2.7,1.56,3.92s-2.1,1.53-3.26,2.24a106.21,106.21,0,0,0-26.15,23.07c-14.89,17.87-32.84,31.69-54.69,40.17a4.23,4.23,0,0,1-2.95.06,92.59,92.59,0,0,0-24.85-3.84,29.56,29.56,0,0,0-5.87.46,1.86,1.86,0,0,1-2.32-1.07,78.34,78.34,0,0,1-5.86-64.41c.34-1,.76-1.26,1.75-1.14C306,50.93,307.38,50.92,308.77,51Z"/><path class="cls-6" d="M355.64,125a93.28,93.28,0,0,0,8.63-3.63c10.92-5.43,19.21-13.79,26.24-23.57,4.12-5.75,7.66-11.89,11.77-17.63,6.91-9.67,15.91-17,26.12-23,.8-.47,1-.27,1.21.54,1.08,4.51.8,9.06.22,13.57a67.76,67.76,0,0,1-14.4,34.16c-8.73,10.94-19.63,18.6-33.47,21.73-8.64,2-17,.85-25.28-1.89Z"/><path class="cls-7" d="M340.89,122a62.89,62.89,0,0,1-8.19,2.41,88,88,0,0,1-15.57,2.39,1.81,1.81,0,0,1-1.82-.79q-2.26-3.23-4.59-6.42c-.69-.94-.36-1.13.66-1.23,9.72-1,19.12.63,28.4,3.33Z"/></g></g></g></svg>